<svg width="40" height="40" viewBox="0 0 40 40" fill="none" xmlns="http://www.w3.org/2000/svg">
<path d="M26.6667 26.6664C26.6667 28.4173 26.3218 30.1512 25.6517 31.7688C24.9817 33.3865 23.9995 34.8564 22.7614 36.0945C21.5233 37.3326 20.0535 38.3147 18.4358 38.9848C16.8181 39.6549 15.0843 39.9998 13.3333 39.9998C11.5824 39.9998 9.84856 39.6549 8.23089 38.9848C6.61321 38.3147 5.14336 37.3326 3.90524 36.0945C2.66713 34.8564 1.685 33.3865 1.01494 31.7688C0.344877 30.1512 -1.53074e-07 28.4173 0 26.6664L13.3333 26.6664H26.6667Z" fill="black"/>
<path d="M13.3333 26.6667C9.79711 26.6667 6.40573 25.262 3.90524 22.7615C1.40476 20.261 -9.8371e-08 16.8696 0 13.3334C9.8371e-08 9.79714 1.40476 6.40575 3.90524 3.90525C6.40573 1.40476 9.79711 -4.21691e-08 13.3333 0L13.3333 13.3334L13.3333 26.6667Z" fill="black"/>
<path d="M13.3335 13.3334C13.3335 9.79714 14.7383 6.40575 17.2387 3.90525C19.7392 1.40476 23.1306 3.79382e-07 26.6668 0C30.203 -3.79382e-07 33.5944 1.40476 36.0949 3.90525C38.5954 6.40574 40.0002 9.79714 40.0002 13.3334L26.6668 13.3334L13.3335 13.3334Z" fill="black"/>
<path d="M26.6668 13.333C30.203 13.333 33.5944 14.7378 36.0949 17.2383C38.5954 19.7388 40.0002 23.1302 40.0002 26.6664C40.0002 30.2026 38.5954 33.594 36.0949 36.0945C33.5944 38.595 30.2031 39.9998 26.6668 39.9998L26.6668 26.6664L26.6668 13.333Z" fill="black"/>
</svg>
