<svg width="40" height="40" viewBox="0 0 40 40" fill="none" xmlns="http://www.w3.org/2000/svg">
<path d="M26.6667 26.6668C26.6667 29.3039 25.8847 31.8818 24.4196 34.0744C22.9545 36.2671 20.8721 37.9761 18.4358 38.9852C15.9994 39.9944 13.3185 40.2584 10.7321 39.744C8.14572 39.2295 5.76994 37.9596 3.90524 36.0949C2.04054 34.2302 0.770666 31.8544 0.256196 29.268C-0.258273 26.6816 0.00577115 24.0007 1.01494 21.5644C2.02411 19.128 3.73307 17.0457 5.92573 15.5806C8.11839 14.1155 10.6962 13.3335 13.3333 13.3335L13.3333 26.6668H26.6667Z" fill="black"/>
<path d="M13.3335 13.3333C13.3335 10.6962 14.1155 8.11838 15.5806 5.92573C17.0457 3.73307 19.128 2.02411 21.5644 1.01494C24.0007 0.00577067 26.6816 -0.258273 29.268 0.256197C31.8544 0.770667 34.2302 2.04054 36.0949 3.90524C37.9596 5.76995 39.2295 8.14572 39.744 10.7321C40.2584 13.3185 39.9944 15.9994 38.9852 18.4358C37.9761 20.8721 36.2671 22.9545 34.0744 24.4196C31.8818 25.8847 29.3039 26.6667 26.6668 26.6667L26.6668 13.3333L13.3335 13.3333Z" fill="black"/>
</svg>
