<svg width="40" height="60" viewBox="0 0 40 60" fill="none" xmlns="http://www.w3.org/2000/svg">
<path d="M40 40C40 42.6264 39.4827 45.2272 38.4776 47.6537C37.4725 50.0802 35.9993 52.285 34.1421 54.1421C32.285 55.9993 30.0802 57.4725 27.6537 58.4776C25.2272 59.4827 22.6264 60 20 60C17.3736 60 14.7728 59.4827 12.3463 58.4776C9.91982 57.4725 7.71503 55.9993 5.85786 54.1421C4.00069 52.285 2.5275 50.0802 1.52241 47.6537C0.517314 45.2272 -8.55801e-07 42.6264 0 40L20 40H40Z" fill="black"/>
<path d="M40 20C40 22.6264 39.4827 25.2272 38.4776 27.6537C37.4725 30.0802 35.9993 32.285 34.1421 34.1421C32.285 35.9993 30.0802 37.4725 27.6537 38.4776C25.2272 39.4827 22.6264 40 20 40C17.3736 40 14.7728 39.4827 12.3463 38.4776C9.91982 37.4725 7.71503 35.9993 5.85786 34.1421C4.00069 32.285 2.5275 30.0802 1.52241 27.6537C0.517314 25.2272 -8.55801e-07 22.6264 0 20L20 20H40Z" fill="black"/>
<circle cx="20" cy="10" r="10" fill="black"/>
</svg>
