<svg width="40" height="40" viewBox="0 0 40 40" fill="none" xmlns="http://www.w3.org/2000/svg">
<path d="M6.66683 19.9998C6.66683 12.6498 12.6502 6.6665 20.0002 6.6665C27.3502 6.6665 33.3335 12.6498 33.3335 19.9998C33.3335 27.3498 27.3502 33.3332 20.0002 33.3332C12.6502 33.3332 6.66683 27.3498 6.66683 19.9998ZM3.3335 19.9998C3.3335 29.1998 10.8002 36.6665 20.0002 36.6665C29.2002 36.6665 36.6668 29.1998 36.6668 19.9998C36.6668 10.7998 29.2002 3.33317 20.0002 3.33317C10.8002 3.33317 3.3335 10.7998 3.3335 19.9998ZM20.0002 18.3332H13.3335V21.6665H20.0002V26.6665L26.6668 19.9998L20.0002 13.3332V18.3332Z" fill="black"/>
</svg>
