<svg width="1618" height="845" viewBox="0 0 1618 845" fill="none" xmlns="http://www.w3.org/2000/svg">
<path d="M1007.02 585.927C1007.38 585.927 1007.74 585.918 1008.11 585.902C1012.34 585.721 1016.48 584.34 1020.17 581.877C1023.85 579.414 1026.98 575.94 1029.28 571.753C1046.49 541.519 1067.61 514.629 1091.88 492.053C1106.58 478.252 1121.93 465.419 1136.78 453.007C1175.08 420.999 1211.15 390.853 1231.18 349.199C1274.83 258.371 1223.42 131.86 1149.97 75.1238C1067.59 11.4913 959.225 1.51004 854.396 0.201981C843.501 0.0665858 832.6 -0.000705387 821.693 5.5748e-06C632.813 0.0851183 444.331 20.3392 258.571 60.5125C196.801 73.9055 132.144 90.3124 80.186 130.129C28.5364 169.71 -2.85681 232.041 0.205811 288.929C4.67737 371.976 79.5873 434.03 147.8 450.253C212.816 465.704 280.358 455.263 351.864 444.204C367.65 441.765 383.972 439.241 400.112 437.048C575.528 413.219 905.059 486.664 919 489.803L932.831 492.915L986.498 574.077C988.912 577.777 992.02 580.771 995.581 582.826C999.141 584.882 1003.06 585.943 1007.02 585.927Z" fill="white"/>
<path d="M1109.42 412.207L1120.95 399.581L1109.42 386.955L1112.97 383.076L1128.07 399.581L1112.97 416.086L1109.42 412.207Z" fill="#FFD037"/>
<path d="M387.227 337V302.091H391.455V317.636H410.068V302.091H414.295V337H410.068V321.386H391.455V337H387.227ZM422.213 337V310.818H426.236V337H422.213ZM424.259 306.455C423.474 306.455 422.798 306.188 422.23 305.653C421.673 305.119 421.395 304.477 421.395 303.727C421.395 302.977 421.673 302.335 422.23 301.801C422.798 301.267 423.474 301 424.259 301C425.043 301 425.713 301.267 426.27 301.801C426.838 302.335 427.122 302.977 427.122 303.727C427.122 304.477 426.838 305.119 426.27 305.653C425.713 306.188 425.043 306.455 424.259 306.455ZM444.581 337.545C442.058 337.545 439.882 336.989 438.053 335.875C436.234 334.75 434.831 333.182 433.842 331.17C432.865 329.148 432.376 326.795 432.376 324.114C432.376 321.432 432.865 319.068 433.842 317.023C434.831 314.966 436.206 313.364 437.967 312.216C439.74 311.057 441.808 310.477 444.172 310.477C445.536 310.477 446.882 310.705 448.212 311.159C449.541 311.614 450.751 312.352 451.842 313.375C452.933 314.386 453.803 315.727 454.45 317.398C455.098 319.068 455.422 321.125 455.422 323.568V325.273H435.24V321.795H451.331C451.331 320.318 451.036 319 450.445 317.841C449.865 316.682 449.036 315.767 447.956 315.097C446.888 314.426 445.626 314.091 444.172 314.091C442.57 314.091 441.183 314.489 440.013 315.284C438.854 316.068 437.962 317.091 437.337 318.352C436.712 319.614 436.399 320.966 436.399 322.409V324.727C436.399 326.705 436.74 328.381 437.422 329.756C438.115 331.119 439.075 332.159 440.303 332.875C441.53 333.58 442.956 333.932 444.581 333.932C445.638 333.932 446.592 333.784 447.445 333.489C448.308 333.182 449.053 332.727 449.678 332.125C450.303 331.511 450.786 330.75 451.126 329.841L455.013 330.932C454.604 332.25 453.916 333.409 452.95 334.409C451.984 335.398 450.791 336.17 449.371 336.727C447.95 337.273 446.354 337.545 444.581 337.545ZM461.541 337V310.818H465.428V314.773H465.7C466.178 313.477 467.041 312.426 468.291 311.619C469.541 310.812 470.95 310.409 472.518 310.409C472.814 310.409 473.183 310.415 473.626 310.426C474.07 310.437 474.405 310.455 474.632 310.477V314.568C474.496 314.534 474.183 314.483 473.695 314.415C473.217 314.335 472.712 314.295 472.178 314.295C470.905 314.295 469.768 314.562 468.768 315.097C467.78 315.619 466.996 316.347 466.416 317.278C465.848 318.199 465.564 319.25 465.564 320.432V337H461.541ZM511.446 316.682L507.832 317.705C507.605 317.102 507.27 316.517 506.827 315.949C506.395 315.369 505.804 314.892 505.054 314.517C504.304 314.142 503.344 313.955 502.173 313.955C500.571 313.955 499.236 314.324 498.168 315.062C497.111 315.79 496.582 316.716 496.582 317.841C496.582 318.841 496.946 319.631 497.673 320.21C498.401 320.79 499.537 321.273 501.082 321.659L504.969 322.614C507.31 323.182 509.054 324.051 510.202 325.222C511.349 326.381 511.923 327.875 511.923 329.705C511.923 331.205 511.491 332.545 510.628 333.727C509.776 334.909 508.582 335.841 507.048 336.523C505.514 337.205 503.73 337.545 501.696 337.545C499.026 337.545 496.815 336.966 495.065 335.807C493.315 334.648 492.207 332.955 491.741 330.727L495.56 329.773C495.923 331.182 496.611 332.239 497.622 332.943C498.645 333.648 499.98 334 501.628 334C503.503 334 504.991 333.602 506.094 332.807C507.207 332 507.764 331.034 507.764 329.909C507.764 329 507.446 328.239 506.81 327.625C506.173 327 505.196 326.534 503.878 326.227L499.514 325.205C497.116 324.636 495.355 323.756 494.23 322.562C493.116 321.358 492.56 319.852 492.56 318.045C492.56 316.568 492.974 315.261 493.804 314.125C494.645 312.989 495.787 312.097 497.23 311.449C498.685 310.801 500.332 310.477 502.173 310.477C504.764 310.477 506.798 311.045 508.276 312.182C509.764 313.318 510.821 314.818 511.446 316.682ZM529.365 310.818V314.227H515.797V310.818H529.365ZM519.751 304.545H523.774V329.5C523.774 330.636 523.939 331.489 524.268 332.057C524.609 332.614 525.041 332.989 525.564 333.182C526.098 333.364 526.661 333.455 527.251 333.455C527.695 333.455 528.058 333.432 528.342 333.386C528.626 333.33 528.854 333.284 529.024 333.25L529.842 336.864C529.57 336.966 529.189 337.068 528.7 337.17C528.212 337.284 527.592 337.341 526.842 337.341C525.706 337.341 524.592 337.097 523.501 336.608C522.422 336.119 521.524 335.375 520.808 334.375C520.104 333.375 519.751 332.114 519.751 330.591V304.545ZM546.112 337.545C543.589 337.545 541.413 336.989 539.584 335.875C537.766 334.75 536.362 333.182 535.374 331.17C534.396 329.148 533.908 326.795 533.908 324.114C533.908 321.432 534.396 319.068 535.374 317.023C536.362 314.966 537.737 313.364 539.499 312.216C541.271 311.057 543.339 310.477 545.703 310.477C547.067 310.477 548.413 310.705 549.743 311.159C551.072 311.614 552.283 312.352 553.374 313.375C554.464 314.386 555.334 315.727 555.982 317.398C556.629 319.068 556.953 321.125 556.953 323.568V325.273H536.771V321.795H552.862C552.862 320.318 552.567 319 551.976 317.841C551.396 316.682 550.567 315.767 549.487 315.097C548.419 314.426 547.158 314.091 545.703 314.091C544.101 314.091 542.714 314.489 541.544 315.284C540.385 316.068 539.493 317.091 538.868 318.352C538.243 319.614 537.93 320.966 537.93 322.409V324.727C537.93 326.705 538.271 328.381 538.953 329.756C539.646 331.119 540.607 332.159 541.834 332.875C543.061 333.58 544.487 333.932 546.112 333.932C547.169 333.932 548.124 333.784 548.976 333.489C549.839 333.182 550.584 332.727 551.209 332.125C551.834 331.511 552.317 330.75 552.658 329.841L556.544 330.932C556.135 332.25 555.447 333.409 554.482 334.409C553.516 335.398 552.322 336.17 550.902 336.727C549.482 337.273 547.885 337.545 546.112 337.545ZM567.095 321.25V337H563.072V302.091H567.095V314.909H567.436C568.05 313.557 568.97 312.483 570.197 311.688C571.436 310.881 573.084 310.477 575.141 310.477C576.925 310.477 578.487 310.835 579.828 311.551C581.169 312.256 582.209 313.341 582.947 314.807C583.697 316.261 584.072 318.114 584.072 320.364V337H580.05V320.636C580.05 318.557 579.51 316.949 578.43 315.812C577.362 314.665 575.879 314.091 573.982 314.091C572.663 314.091 571.482 314.369 570.436 314.926C569.402 315.483 568.584 316.295 567.982 317.364C567.391 318.432 567.095 319.727 567.095 321.25ZM602.818 310.818V314.227H589.25V310.818H602.818ZM593.205 304.545H597.227V329.5C597.227 330.636 597.392 331.489 597.722 332.057C598.063 332.614 598.494 332.989 599.017 333.182C599.551 333.364 600.114 333.455 600.705 333.455C601.148 333.455 601.511 333.432 601.795 333.386C602.08 333.33 602.307 333.284 602.477 333.25L603.295 336.864C603.023 336.966 602.642 337.068 602.153 337.17C601.665 337.284 601.045 337.341 600.295 337.341C599.159 337.341 598.045 337.097 596.955 336.608C595.875 336.119 594.977 335.375 594.261 334.375C593.557 333.375 593.205 332.114 593.205 330.591V304.545ZM628.301 337L620.324 310.818H624.551L630.21 330.864H630.483L636.074 310.818H640.369L645.892 330.795H646.165L651.824 310.818H656.051L648.074 337H644.119L638.392 316.886H637.983L632.256 337H628.301ZM669.074 337.614C667.415 337.614 665.909 337.301 664.557 336.676C663.205 336.04 662.131 335.125 661.335 333.932C660.54 332.727 660.142 331.273 660.142 329.568C660.142 328.068 660.438 326.852 661.028 325.92C661.619 324.977 662.409 324.239 663.398 323.705C664.386 323.17 665.477 322.773 666.67 322.511C667.875 322.239 669.085 322.023 670.301 321.864C671.892 321.659 673.182 321.506 674.17 321.403C675.17 321.29 675.898 321.102 676.352 320.841C676.818 320.58 677.051 320.125 677.051 319.477V319.341C677.051 317.659 676.591 316.352 675.67 315.42C674.761 314.489 673.381 314.023 671.528 314.023C669.608 314.023 668.102 314.443 667.011 315.284C665.92 316.125 665.153 317.023 664.71 317.977L660.892 316.614C661.574 315.023 662.483 313.784 663.619 312.898C664.767 312 666.017 311.375 667.369 311.023C668.733 310.659 670.074 310.477 671.392 310.477C672.233 310.477 673.199 310.58 674.29 310.784C675.392 310.977 676.455 311.381 677.477 311.994C678.511 312.608 679.369 313.534 680.051 314.773C680.733 316.011 681.074 317.67 681.074 319.75V337H677.051V333.455H676.847C676.574 334.023 676.119 334.631 675.483 335.278C674.847 335.926 674 336.477 672.943 336.932C671.886 337.386 670.597 337.614 669.074 337.614ZM669.688 334C671.278 334 672.619 333.688 673.71 333.062C674.813 332.438 675.642 331.631 676.199 330.642C676.767 329.653 677.051 328.614 677.051 327.523V323.841C676.881 324.045 676.506 324.233 675.926 324.403C675.358 324.562 674.699 324.705 673.949 324.83C673.21 324.943 672.489 325.045 671.784 325.136C671.091 325.216 670.528 325.284 670.097 325.341C669.051 325.477 668.074 325.699 667.165 326.006C666.267 326.301 665.54 326.75 664.983 327.352C664.438 327.943 664.165 328.75 664.165 329.773C664.165 331.17 664.682 332.227 665.716 332.943C666.761 333.648 668.085 334 669.688 334ZM688.416 337V310.818H692.303V314.773H692.575C693.053 313.477 693.916 312.426 695.166 311.619C696.416 310.812 697.825 310.409 699.393 310.409C699.689 310.409 700.058 310.415 700.501 310.426C700.945 310.437 701.28 310.455 701.507 310.477V314.568C701.371 314.534 701.058 314.483 700.57 314.415C700.092 314.335 699.587 314.295 699.053 314.295C697.78 314.295 696.643 314.562 695.643 315.097C694.655 315.619 693.871 316.347 693.291 317.278C692.723 318.199 692.439 319.25 692.439 320.432V337H688.416ZM722.776 326.295V310.818H726.798V337H722.776V332.568H722.503C721.889 333.898 720.935 335.028 719.639 335.96C718.344 336.881 716.707 337.341 714.73 337.341C713.094 337.341 711.639 336.983 710.366 336.267C709.094 335.54 708.094 334.449 707.366 332.994C706.639 331.528 706.276 329.682 706.276 327.455V310.818H710.298V327.182C710.298 329.091 710.832 330.614 711.901 331.75C712.98 332.886 714.355 333.455 716.026 333.455C717.026 333.455 718.043 333.199 719.077 332.688C720.122 332.176 720.997 331.392 721.702 330.335C722.418 329.278 722.776 327.932 722.776 326.295ZM734.166 337V310.818H738.053V314.909H738.393C738.939 313.511 739.82 312.426 741.036 311.653C742.251 310.869 743.712 310.477 745.416 310.477C747.143 310.477 748.581 310.869 749.729 311.653C750.888 312.426 751.791 313.511 752.439 314.909H752.712C753.382 313.557 754.388 312.483 755.729 311.688C757.07 310.881 758.678 310.477 760.553 310.477C762.893 310.477 764.808 311.21 766.297 312.676C767.786 314.131 768.53 316.398 768.53 319.477V337H764.507V319.477C764.507 317.545 763.979 316.165 762.922 315.335C761.865 314.506 760.621 314.091 759.189 314.091C757.348 314.091 755.922 314.648 754.911 315.761C753.899 316.864 753.393 318.261 753.393 319.955V337H749.303V319.068C749.303 317.58 748.82 316.381 747.854 315.472C746.888 314.551 745.643 314.091 744.121 314.091C743.075 314.091 742.098 314.369 741.189 314.926C740.291 315.483 739.564 316.256 739.007 317.244C738.462 318.222 738.189 319.352 738.189 320.636V337H734.166ZM781.203 302.091L780.862 327.182H776.908L776.567 302.091H781.203ZM778.885 337.273C778.044 337.273 777.322 336.972 776.72 336.369C776.118 335.767 775.817 335.045 775.817 334.205C775.817 333.364 776.118 332.642 776.72 332.04C777.322 331.437 778.044 331.136 778.885 331.136C779.726 331.136 780.447 331.437 781.05 332.04C781.652 332.642 781.953 333.364 781.953 334.205C781.953 334.761 781.811 335.273 781.527 335.739C781.254 336.205 780.885 336.58 780.419 336.864C779.964 337.136 779.453 337.273 778.885 337.273Z" fill="black"/>
<path d="M1270.89 818.425C1266.85 819.265 1262.03 821.113 1261.56 825.483C1261 830.357 1266.62 833.214 1271.12 834.223C1288.13 838.172 1305.68 838.676 1323.16 839.181C1415.52 841.533 1507.89 841.954 1600.25 840.357C1598.91 828.341 1585.46 823.13 1574.31 820.861C1526.39 811.114 1476.81 816.66 1429.76 806.324C1380.17 795.316 1319.84 807.753 1270.89 818.425Z" fill="url(#paint0_linear_527_2593)"/>
<path d="M1270.89 818.425C1266.85 819.265 1262.03 821.113 1261.56 825.483C1261 830.357 1266.62 833.214 1271.12 834.223C1288.13 838.172 1305.68 838.676 1323.16 839.181C1415.52 841.533 1507.89 841.954 1600.25 840.357C1598.91 828.341 1585.46 823.13 1574.31 820.861C1526.39 811.114 1476.81 816.66 1429.76 806.324C1380.17 795.316 1319.84 807.753 1270.89 818.425Z" fill="url(#paint1_linear_527_2593)"/>
<path d="M1522.43 739.264C1523.46 738.928 1524.56 739.264 1525.59 739.601C1530.1 741.197 1534.53 743.298 1538.48 746.071C1540.46 747.416 1542.44 748.928 1543.39 751.197C1544.26 753.298 1544.18 755.651 1544.02 757.836C1542.59 784.894 1541.25 812.036 1539.83 839.095C1539.75 840.859 1539.51 842.793 1538.25 843.885C1536.66 845.145 1534.45 844.305 1532.71 843.465C1515.71 835.565 1498.79 827.582 1481.78 819.683C1473.64 815.902 1465.26 811.868 1459.25 804.893C1463.83 794.137 1473.48 786.995 1482.34 779.768C1496.1 768.507 1508.75 755.567 1519.9 741.449C1520.53 740.609 1521.32 739.6 1522.43 739.264Z" fill="#DDC199"/>
<path d="M1602.54 599.855C1598.35 598.847 1594.07 597.838 1589.88 596.83C1565.21 644.98 1543.39 694.812 1524.56 745.904C1528.91 748.845 1534.69 751.87 1538.88 748.677C1540.62 747.332 1541.65 745.147 1542.59 743.047C1563.95 695.988 1583.95 648.258 1602.54 599.855Z" fill="#BDB39B"/>
<g opacity="0.26">
<path opacity="0.26" d="M1524.79 834.137C1524.71 835.062 1526.06 835.398 1526.21 834.474C1529.61 807.163 1534.44 780.357 1540.68 753.634C1541.08 751.954 1538.63 751.449 1538.23 753.13C1531.75 779.6 1527.24 806.827 1524.79 834.137Z" fill="#272525"/>
<path opacity="0.26" d="M1498 822.121C1508.43 798.76 1519.5 775.735 1531.21 753.046C1531.92 751.701 1529.86 750.609 1529.15 751.954C1516.97 774.811 1505.98 798.34 1495.94 822.289C1496.1 822.457 1496.18 822.625 1496.26 822.793C1496.81 822.373 1497.36 822.205 1498 822.121Z" fill="#272525"/>
<path opacity="0.26" d="M1480.98 806.743C1498.46 789.264 1514.04 769.853 1527.64 748.844C1528.51 747.416 1526.29 746.239 1525.42 747.668C1512.06 768.592 1496.72 787.92 1479.56 805.398C1478.69 806.322 1480.11 807.667 1480.98 806.743Z" fill="#272525"/>
</g>
<path d="M1359.76 763.213C1359.84 761.953 1360 760.608 1360.08 759.347C1349.64 751.784 1331.3 754.221 1320.23 758.087C1308.36 762.204 1308.36 769.935 1308.52 783.044C1308.6 790.439 1309.23 798.759 1314.61 803.548C1318.72 807.246 1324.5 807.75 1329.87 808.086C1334.7 808.422 1339.44 808.674 1344.26 809.01C1347.59 809.178 1351.3 809.263 1353.91 806.993C1356.52 804.641 1356.92 800.691 1357.23 797.077C1358.1 785.733 1358.97 774.473 1359.76 763.213Z" fill="#2F3F47"/>
<path d="M1372.51 763.213C1372.43 761.953 1372.27 760.608 1372.19 759.347C1382.63 751.784 1400.97 754.221 1412.05 758.087C1423.91 762.204 1423.91 769.935 1423.75 783.044C1423.67 790.439 1423.04 798.759 1417.66 803.548C1413.55 807.246 1407.77 807.75 1402.4 808.086C1397.57 808.422 1392.83 808.674 1388 809.01C1384.68 809.178 1380.97 809.263 1378.36 806.993C1375.75 804.641 1375.35 800.691 1375.04 797.077C1374.25 785.733 1373.38 774.473 1372.51 763.213Z" fill="#2F3F47"/>
<path d="M1283.45 735.148C1280.84 735.735 1278.31 736.576 1275.86 737.668C1274.04 738.424 1272.22 739.433 1270.95 740.945C1269.21 743.13 1268.74 746.156 1268.42 749.097C1268.03 752.963 1267.87 756.828 1267.95 760.693C1267.95 763.97 1268.19 767.332 1269.77 770.105C1271.98 773.971 1276.33 775.735 1280.44 776.827C1288.27 778.929 1296.42 779.432 1304.48 779.853C1353.27 782.374 1402.22 780.692 1450.78 774.895C1452.75 774.643 1454.97 774.307 1456.31 772.71C1457.1 771.786 1457.5 770.525 1457.89 769.348C1460.42 760.777 1462.09 749.097 1456.63 741.114C1451.96 734.307 1443.34 738.172 1436.86 738.088C1430.22 738.004 1423.49 737.416 1416.85 737.164C1403.88 736.576 1390.91 735.987 1377.95 735.567C1359.68 734.895 1341.33 734.307 1323.07 733.803C1310.73 733.551 1296.18 732.122 1283.45 735.148Z" fill="#516770"/>
<path d="M1388.31 550.695C1421.44 550.863 1454.5 551.62 1487.63 552.376C1486.84 533.637 1485.58 514.897 1481.78 496.578C1475.22 464.478 1460.19 433.134 1434.81 414.395C1395.9 385.656 1334.14 389.437 1292.23 417.84C1274.59 429.772 1260.44 446.159 1253.01 466.242C1244.47 489.183 1242.17 514.225 1240.83 538.847C1240.67 542.124 1240.51 545.317 1240.35 548.594C1289.54 546.577 1339.04 550.527 1388.31 550.695Z" fill="#EAF1F2"/>
<path d="M1385.66 560.108C1337.1 560.024 1288.39 556.327 1239.84 558.175C1237.46 614.141 1239.68 670.359 1246.48 725.989C1247.43 733.636 1248.61 741.618 1253.36 747.668C1260.71 756.996 1273.44 752.878 1283.33 752.878C1300.02 752.878 1317.18 753.635 1334.02 754.055C1365.81 754.811 1397.36 754.895 1428.99 751.114C1444.02 749.35 1474.38 754.223 1481.58 739.854C1487.51 728.173 1485.06 704.476 1485.93 691.451C1486.96 675.989 1487.75 660.611 1488.22 645.149C1489.09 617.334 1488.93 589.519 1487.91 561.62C1453.9 560.948 1419.74 560.108 1385.66 560.108Z" fill="#E2ECED"/>
<path d="M1500.33 650.696C1500.96 650.107 1501.04 649.099 1501.12 648.259C1502.78 624.982 1504.2 601.704 1505.23 578.427C1505.31 576.41 1505.31 574.058 1503.81 572.713C1502.7 571.789 1501.28 571.705 1499.85 571.705C1494.95 571.621 1490.13 571.537 1485.22 571.537C1482.14 598.007 1480.88 624.645 1481.51 651.284C1486.96 651.284 1492.34 651.368 1497.8 651.368C1498.67 651.368 1499.62 651.368 1500.33 650.696Z" fill="#2F3F47"/>
<path d="M1525.54 704.31C1526.17 702.378 1526.88 700.361 1528.3 698.932C1529.41 697.84 1530.91 697.167 1532.34 696.663C1538.51 694.31 1544.83 692.546 1551.24 691.369C1556.22 694.983 1560.73 699.269 1564.6 704.226C1565.31 705.151 1566.02 706.159 1566.18 707.336C1566.34 708.26 1566.1 709.184 1565.87 710.109C1563.34 720.445 1560.88 730.781 1558.35 741.117C1554.64 741.621 1550.92 741.705 1547.28 741.201C1548.71 734.898 1550.13 728.596 1551.47 722.377C1552.82 716.411 1553.85 709.1 1549.58 704.899C1545.23 706.075 1540.96 707.336 1536.61 708.512C1535.9 708.68 1535.1 708.932 1534.47 709.436C1533.76 710.109 1533.44 711.117 1533.13 712.041C1531.31 717.924 1529.96 723.974 1529.02 730.109C1526.25 729.268 1523.48 728.511 1520.71 727.671C1520.48 719.688 1523.01 711.874 1525.54 704.31Z" fill="#2F3F47"/>
<path d="M1559.14 695.233C1559.38 694.981 1559.46 694.646 1559.54 694.393C1560.33 690.612 1561.12 686.83 1561.99 683.133C1556.45 681.788 1550.76 680.863 1545.15 680.359C1544.28 683.469 1543.72 686.746 1543.48 690.023C1543.41 690.696 1543.41 691.536 1543.88 692.04C1544.2 692.376 1544.59 692.46 1544.99 692.629C1549.18 693.973 1553.53 694.981 1557.96 695.569C1558.27 695.485 1558.75 695.57 1559.14 695.233Z" fill="#516770"/>
<path d="M1564.69 680.529C1568.01 674.562 1565.32 658.848 1565.32 652.546C1565.24 643.89 1565.24 635.151 1563.34 626.748C1561.44 618.344 1557.57 610.109 1551.16 604.815C1547.53 601.79 1543.26 599.858 1538.83 598.261C1525.62 593.471 1511.47 591.875 1497.63 593.639C1496.52 593.807 1495.34 593.975 1494.54 594.816C1493.67 595.656 1493.52 597 1493.36 598.261C1492.73 603.051 1491.86 608.345 1492.09 613.218C1492.49 621.79 1490.83 619.437 1496.68 621.874C1501.19 623.723 1509.65 622.21 1514.79 623.471C1520.8 624.899 1526.65 627.084 1532.5 629.269C1536.22 630.613 1540.17 632.294 1542.07 635.907C1543.1 637.84 1543.41 640.193 1543.65 642.462C1545.08 655.908 1545.71 669.436 1545.63 682.966C1545.63 685.318 1561.92 684.142 1564.05 681.537C1564.29 681.201 1564.45 680.865 1564.69 680.529Z" fill="#E2ECED"/>
<g opacity="0.15">
<path opacity="0.15" d="M1537 602.129C1536.53 610.196 1534.55 617.507 1531.55 624.902C1530.99 626.33 1532.65 627.423 1533.52 626.163C1538.27 619.104 1540.72 610.7 1541.59 602.129C1541.91 599.104 1537.24 599.019 1537 602.129Z" fill="#272525"/>
<path opacity="0.15" d="M1549.1 607.927C1547.76 615.743 1544.44 620.869 1539.22 626.415C1538.51 627.171 1539.46 628.431 1540.25 627.843C1543.81 625.49 1547.13 623.978 1549.66 620.197C1552.03 616.667 1553.61 612.885 1554.09 608.6C1554.4 605.659 1549.66 604.986 1549.1 607.927Z" fill="#272525"/>
</g>
<path d="M1232.07 572.209C1231.44 572.797 1231.36 573.806 1231.28 574.646C1229.62 597.923 1228.2 621.2 1227.17 644.477C1227.09 646.494 1227.09 648.847 1228.59 650.191C1229.7 651.116 1231.12 651.2 1232.55 651.2C1237.45 651.284 1242.27 651.368 1247.18 651.368C1250.26 624.898 1251.53 598.259 1250.89 571.621C1245.44 571.621 1240.06 571.537 1234.6 571.537C1233.73 571.537 1232.71 571.537 1232.07 572.209Z" fill="#2F3F47"/>
<path d="M1170.78 543.555C1171.02 545.572 1171.25 547.756 1170.54 549.605C1169.99 551.117 1168.96 552.378 1167.85 553.555C1163.35 558.512 1158.44 563.135 1153.14 567.252C1147.13 566.412 1141.28 564.647 1135.83 562.042C1134.8 561.538 1133.69 561.034 1133.06 560.025C1132.58 559.269 1132.35 558.344 1132.19 557.42C1130.13 547 1128 536.496 1125.94 526.076C1129.03 523.891 1132.35 522.042 1135.83 520.697C1137.17 527 1138.59 533.302 1139.94 539.605C1141.28 545.571 1143.42 552.63 1148.95 554.311C1152.35 551.202 1155.67 548.092 1159.08 544.983C1159.63 544.479 1160.26 543.891 1160.58 543.135C1160.97 542.21 1160.81 541.117 1160.66 540.109C1159.79 533.975 1158.52 527.924 1156.78 521.958C1159.63 521.37 1162.4 520.782 1165.24 520.193C1168.88 527.336 1169.83 535.571 1170.78 543.555Z" fill="#2F3F47"/>
<path d="M1144.51 567.502C1144.43 567.838 1144.51 568.175 1144.51 568.427C1145.38 572.208 1146.25 575.906 1147.04 579.687C1152.57 578.258 1158.03 576.41 1163.33 574.225C1162.85 571.031 1161.98 567.838 1160.8 564.813C1160.56 564.141 1160.24 563.468 1159.61 563.216C1159.22 563.048 1158.82 563.132 1158.35 563.216C1154 563.973 1149.73 565.149 1145.54 566.662C1145.14 566.83 1144.67 567.082 1144.51 567.502Z" fill="#516770"/>
<path d="M1145.71 583.303C1145.16 590.193 1154.18 602.966 1156.86 608.68C1160.5 616.412 1164.22 624.227 1169.44 630.865C1174.66 637.504 1181.54 643.05 1189.52 644.73C1194.03 645.739 1198.7 645.487 1203.28 644.815C1217.12 642.882 1230.49 637.672 1242.11 629.521C1243.06 628.848 1244.01 628.176 1244.4 627C1244.8 625.823 1244.4 624.563 1244.09 623.302C1242.58 618.681 1241.24 613.555 1238.95 609.269C1234.99 601.79 1237.52 603.134 1231.2 603.638C1226.37 604.059 1219.41 609.437 1214.27 610.782C1208.26 612.378 1202.1 613.134 1196.01 613.975C1192.13 614.479 1187.86 614.899 1184.62 612.546C1182.88 611.286 1181.62 609.353 1180.51 607.42C1173.63 596.075 1167.38 584.227 1161.77 572.043C1160.82 569.942 1146.74 578.681 1145.87 582.042C1145.79 582.546 1145.71 582.883 1145.71 583.303Z" fill="#E2ECED"/>
<g opacity="0.15">
<path opacity="0.15" d="M1203.19 640.442C1200.26 632.963 1199 625.484 1198.52 617.417C1198.44 615.821 1196.47 615.653 1196.23 617.25C1194.96 625.821 1196.23 634.476 1199.08 642.543C1200.1 645.484 1204.37 643.299 1203.19 640.442Z" fill="#272525"/>
<path opacity="0.15" d="M1190 641.032C1187.94 633.385 1188.73 627.251 1191.1 619.772C1191.42 618.764 1190.08 618.091 1189.52 618.931C1187.39 622.713 1185.01 625.654 1184.3 630.192C1183.67 634.477 1183.83 638.595 1185.25 642.628C1186.2 645.569 1190.71 643.889 1190 641.032Z" fill="#272525"/>
</g>
<path d="M1262.43 495.739C1262.51 498.932 1262.67 502.209 1263.94 505.151C1267.18 512.461 1275.72 514.814 1283.23 516.159C1326.17 523.805 1370.06 526.411 1413.24 520.612C1418.93 519.856 1424.62 518.932 1429.84 516.411C1435.06 513.89 1439.73 509.604 1441.63 503.974C1442.81 500.36 1442.89 496.495 1442.97 492.63C1443.05 488.764 1443.05 484.815 1443.13 480.949C1443.13 479.185 1443.13 477.42 1442.5 475.739C1441.78 473.974 1440.36 472.546 1438.86 471.453C1433.16 467.336 1425.97 466.411 1419.09 465.655C1373.38 460.781 1327.12 456.496 1281.65 463.05C1279.75 463.302 1277.78 463.638 1276.43 465.067C1275.72 465.739 1275.24 466.664 1274.53 467.336C1273.19 468.428 1271.37 468.344 1269.79 468.932C1265.36 470.445 1263.78 476.244 1263.22 481.202C1262.59 485.991 1262.36 490.865 1262.43 495.739Z" fill="#2F3F47"/>
<path opacity="0.2" d="M1319.68 502.797C1321.18 499.856 1321.42 496.411 1321.1 493.05C1320.94 491.033 1320.47 488.933 1319.28 487.42C1316.75 484.227 1312.09 484.563 1308.21 483.807C1304.81 485.319 1301.96 488.26 1300.54 491.874C1299.67 494.058 1299.28 496.411 1299.51 498.764C1300.07 503.554 1303.78 507.672 1308.21 508.512C1312.72 509.521 1317.54 507.083 1319.68 502.797Z" fill="#EAF1F2"/>
<path opacity="0.2" d="M1394.98 502.797C1396.49 499.856 1396.72 496.411 1396.41 493.05C1396.25 491.033 1395.77 488.933 1394.59 487.42C1392.06 484.227 1387.39 484.563 1383.52 483.807C1380.12 485.319 1377.27 488.26 1375.85 491.874C1374.98 494.058 1374.58 496.411 1374.82 498.764C1375.37 503.554 1379.09 507.672 1383.52 508.512C1387.95 509.521 1392.77 507.083 1394.98 502.797Z" fill="#EAF1F2"/>
<defs>
<linearGradient id="paint0_linear_527_2593" x1="1261.57" y1="821.659" x2="1600.34" y2="821.659" gradientUnits="userSpaceOnUse">
<stop stop-color="#4D4D4D"/>
<stop offset="1"/>
</linearGradient>
<linearGradient id="paint1_linear_527_2593" x1="1261.57" y1="821.659" x2="1600.34" y2="821.659" gradientUnits="userSpaceOnUse">
<stop/>
<stop offset="1"/>
</linearGradient>
</defs>
</svg>
