<svg width="1583" height="887" viewBox="0 0 1583 887" fill="none" xmlns="http://www.w3.org/2000/svg">
<path d="M1007.78 585.999C1008.14 585.999 1008.5 585.99 1008.87 585.974C1013.1 585.793 1017.24 584.413 1020.93 581.949C1024.61 579.486 1027.74 576.012 1030.04 571.825C1047.25 541.591 1068.37 514.701 1092.64 492.125C1107.34 478.324 1122.69 465.491 1137.54 453.079C1175.84 421.071 1211.91 390.926 1231.94 349.272C1275.59 258.443 1224.18 131.932 1150.73 75.196C1068.35 11.5636 959.984 1.5823 855.156 0.274247C844.261 0.138851 833.36 0.0715602 822.452 0.0722712C633.573 0.157384 445.091 20.4114 259.331 60.5847C197.561 73.9777 132.904 90.3847 80.9458 130.201C29.2961 169.783 -2.09705 232.113 0.965576 289.001C5.43713 372.048 80.347 434.102 148.559 450.326C213.576 465.777 281.118 455.335 352.623 444.277C368.41 441.838 384.731 439.313 400.872 437.12C576.288 413.292 905.818 486.737 919.76 489.875L933.591 492.987L987.258 574.149C989.671 577.849 992.78 580.843 996.341 582.899C999.901 584.954 1003.82 586.015 1007.78 585.999Z" fill="white"/>
<path d="M1089.42 454.207L1100.95 441.581L1089.42 428.955L1092.97 425.076L1108.07 441.581L1092.97 458.086L1089.42 454.207Z" fill="#FFD037"/>
<path d="M199.227 200V165.091H203.455V180.636H222.068V165.091H226.295V200H222.068V184.386H203.455V200H199.227ZM241.918 200.614C240.259 200.614 238.753 200.301 237.401 199.676C236.048 199.04 234.974 198.125 234.179 196.932C233.384 195.727 232.986 194.273 232.986 192.568C232.986 191.068 233.281 189.852 233.872 188.92C234.463 187.977 235.253 187.239 236.241 186.705C237.23 186.17 238.321 185.773 239.514 185.511C240.719 185.239 241.929 185.023 243.145 184.864C244.736 184.659 246.026 184.506 247.014 184.403C248.014 184.29 248.741 184.102 249.196 183.841C249.662 183.58 249.895 183.125 249.895 182.477V182.341C249.895 180.659 249.435 179.352 248.514 178.42C247.605 177.489 246.224 177.023 244.372 177.023C242.452 177.023 240.946 177.443 239.855 178.284C238.764 179.125 237.997 180.023 237.554 180.977L233.736 179.614C234.418 178.023 235.327 176.784 236.463 175.898C237.611 175 238.861 174.375 240.213 174.023C241.577 173.659 242.918 173.477 244.236 173.477C245.077 173.477 246.043 173.58 247.134 173.784C248.236 173.977 249.298 174.381 250.321 174.994C251.355 175.608 252.213 176.534 252.895 177.773C253.577 179.011 253.918 180.67 253.918 182.75V200H249.895V196.455H249.69C249.418 197.023 248.963 197.631 248.327 198.278C247.69 198.926 246.844 199.477 245.787 199.932C244.73 200.386 243.44 200.614 241.918 200.614ZM242.531 197C244.122 197 245.463 196.688 246.554 196.062C247.656 195.438 248.486 194.631 249.043 193.642C249.611 192.653 249.895 191.614 249.895 190.523V186.841C249.724 187.045 249.349 187.233 248.77 187.403C248.202 187.562 247.543 187.705 246.793 187.83C246.054 187.943 245.332 188.045 244.628 188.136C243.935 188.216 243.372 188.284 242.94 188.341C241.895 188.477 240.918 188.699 240.009 189.006C239.111 189.301 238.384 189.75 237.827 190.352C237.281 190.943 237.009 191.75 237.009 192.773C237.009 194.17 237.526 195.227 238.56 195.943C239.605 196.648 240.929 197 242.531 197ZM265.283 165.091V200H261.26V165.091H265.283ZM276.673 165.091V200H272.651V165.091H276.673ZM294.678 200.545C292.314 200.545 290.24 199.983 288.456 198.858C286.683 197.733 285.297 196.159 284.297 194.136C283.308 192.114 282.814 189.75 282.814 187.045C282.814 184.318 283.308 181.937 284.297 179.903C285.297 177.869 286.683 176.29 288.456 175.165C290.24 174.04 292.314 173.477 294.678 173.477C297.041 173.477 299.109 174.04 300.882 175.165C302.666 176.29 304.053 177.869 305.041 179.903C306.041 181.937 306.541 184.318 306.541 187.045C306.541 189.75 306.041 192.114 305.041 194.136C304.053 196.159 302.666 197.733 300.882 198.858C299.109 199.983 297.041 200.545 294.678 200.545ZM294.678 196.932C296.473 196.932 297.95 196.472 299.109 195.551C300.268 194.631 301.126 193.42 301.683 191.92C302.24 190.42 302.518 188.795 302.518 187.045C302.518 185.295 302.24 183.665 301.683 182.153C301.126 180.642 300.268 179.42 299.109 178.489C297.95 177.557 296.473 177.091 294.678 177.091C292.882 177.091 291.405 177.557 290.246 178.489C289.087 179.42 288.229 180.642 287.672 182.153C287.115 183.665 286.837 185.295 286.837 187.045C286.837 188.795 287.115 190.42 287.672 191.92C288.229 193.42 289.087 194.631 290.246 195.551C291.405 196.472 292.882 196.932 294.678 196.932ZM330.205 184.25V200H326.182V165.091H330.205V177.909H330.545C331.159 176.557 332.08 175.483 333.307 174.688C334.545 173.881 336.193 173.477 338.25 173.477C340.034 173.477 341.597 173.835 342.938 174.551C344.278 175.256 345.318 176.341 346.057 177.807C346.807 179.261 347.182 181.114 347.182 183.364V200H343.159V183.636C343.159 181.557 342.619 179.949 341.54 178.812C340.472 177.665 338.989 177.091 337.091 177.091C335.773 177.091 334.591 177.369 333.545 177.926C332.511 178.483 331.693 179.295 331.091 180.364C330.5 181.432 330.205 182.727 330.205 184.25ZM354.541 200V173.818H358.564V200H354.541ZM356.587 169.455C355.803 169.455 355.126 169.188 354.558 168.653C354.001 168.119 353.723 167.477 353.723 166.727C353.723 165.977 354.001 165.335 354.558 164.801C355.126 164.267 355.803 164 356.587 164C357.371 164 358.041 164.267 358.598 164.801C359.166 165.335 359.45 165.977 359.45 166.727C359.45 167.477 359.166 168.119 358.598 168.653C358.041 169.188 357.371 169.455 356.587 169.455ZM376.909 200.545C374.386 200.545 372.21 199.989 370.381 198.875C368.562 197.75 367.159 196.182 366.17 194.17C365.193 192.148 364.705 189.795 364.705 187.114C364.705 184.432 365.193 182.068 366.17 180.023C367.159 177.966 368.534 176.364 370.295 175.216C372.068 174.057 374.136 173.477 376.5 173.477C377.864 173.477 379.21 173.705 380.54 174.159C381.869 174.614 383.08 175.352 384.17 176.375C385.261 177.386 386.131 178.727 386.778 180.398C387.426 182.068 387.75 184.125 387.75 186.568V188.273H367.568V184.795H383.659C383.659 183.318 383.364 182 382.773 180.841C382.193 179.682 381.364 178.767 380.284 178.097C379.216 177.426 377.955 177.091 376.5 177.091C374.898 177.091 373.511 177.489 372.341 178.284C371.182 179.068 370.29 180.091 369.665 181.352C369.04 182.614 368.727 183.966 368.727 185.409V187.727C368.727 189.705 369.068 191.381 369.75 192.756C370.443 194.119 371.403 195.159 372.631 195.875C373.858 196.58 375.284 196.932 376.909 196.932C377.966 196.932 378.92 196.784 379.773 196.489C380.636 196.182 381.381 195.727 382.006 195.125C382.631 194.511 383.114 193.75 383.455 192.841L387.341 193.932C386.932 195.25 386.244 196.409 385.278 197.409C384.313 198.398 383.119 199.17 381.699 199.727C380.278 200.273 378.682 200.545 376.909 200.545ZM393.869 200V173.818H397.756V177.773H398.028C398.506 176.477 399.369 175.426 400.619 174.619C401.869 173.812 403.278 173.409 404.847 173.409C405.142 173.409 405.511 173.415 405.955 173.426C406.398 173.437 406.733 173.455 406.96 173.477V177.568C406.824 177.534 406.511 177.483 406.023 177.415C405.545 177.335 405.04 177.295 404.506 177.295C403.233 177.295 402.097 177.562 401.097 178.097C400.108 178.619 399.324 179.347 398.744 180.278C398.176 181.199 397.892 182.25 397.892 183.432V200H393.869ZM425.774 200V165.091H429.797V177.977H430.138C430.433 177.523 430.842 176.943 431.365 176.239C431.899 175.523 432.661 174.886 433.649 174.33C434.649 173.761 436.001 173.477 437.706 173.477C439.911 173.477 441.854 174.028 443.536 175.131C445.217 176.233 446.53 177.795 447.473 179.818C448.416 181.841 448.888 184.227 448.888 186.977C448.888 189.75 448.416 192.153 447.473 194.188C446.53 196.21 445.223 197.778 443.553 198.892C441.882 199.994 439.956 200.545 437.774 200.545C436.092 200.545 434.746 200.267 433.734 199.71C432.723 199.142 431.945 198.5 431.399 197.784C430.854 197.057 430.433 196.455 430.138 195.977H429.661V200H425.774ZM429.729 186.909C429.729 188.886 430.018 190.631 430.598 192.142C431.178 193.642 432.024 194.818 433.138 195.67C434.251 196.511 435.615 196.932 437.229 196.932C438.911 196.932 440.314 196.489 441.439 195.602C442.575 194.705 443.428 193.5 443.996 191.989C444.575 190.466 444.865 188.773 444.865 186.909C444.865 185.068 444.581 183.409 444.013 181.932C443.456 180.443 442.609 179.267 441.473 178.403C440.348 177.528 438.933 177.091 437.229 177.091C435.592 177.091 434.217 177.506 433.104 178.335C431.99 179.153 431.149 180.301 430.581 181.778C430.013 183.244 429.729 184.955 429.729 186.909ZM455.041 200V173.818H459.064V200H455.041ZM457.087 169.455C456.303 169.455 455.626 169.188 455.058 168.653C454.501 168.119 454.223 167.477 454.223 166.727C454.223 165.977 454.501 165.335 455.058 164.801C455.626 164.267 456.303 164 457.087 164C457.871 164 458.541 164.267 459.098 164.801C459.666 165.335 459.95 165.977 459.95 166.727C459.95 167.477 459.666 168.119 459.098 168.653C458.541 169.188 457.871 169.455 457.087 169.455ZM470.455 184.25V200H466.432V173.818H470.318V177.909H470.659C471.273 176.58 472.205 175.511 473.455 174.705C474.705 173.886 476.318 173.477 478.295 173.477C480.068 173.477 481.619 173.841 482.949 174.568C484.278 175.284 485.313 176.375 486.051 177.841C486.79 179.295 487.159 181.136 487.159 183.364V200H483.136V183.636C483.136 181.58 482.602 179.977 481.534 178.83C480.466 177.67 479 177.091 477.136 177.091C475.852 177.091 474.705 177.369 473.693 177.926C472.693 178.483 471.903 179.295 471.324 180.364C470.744 181.432 470.455 182.727 470.455 184.25ZM508.01 200V173.818H512.033V200H508.01ZM510.055 169.455C509.271 169.455 508.595 169.188 508.027 168.653C507.47 168.119 507.192 167.477 507.192 166.727C507.192 165.977 507.47 165.335 508.027 164.801C508.595 164.267 509.271 164 510.055 164C510.839 164 511.51 164.267 512.067 164.801C512.635 165.335 512.919 165.977 512.919 166.727C512.919 167.477 512.635 168.119 512.067 168.653C511.51 169.188 510.839 169.455 510.055 169.455ZM530.037 200.545C527.582 200.545 525.469 199.966 523.696 198.807C521.923 197.648 520.56 196.051 519.605 194.017C518.651 191.983 518.173 189.659 518.173 187.045C518.173 184.386 518.662 182.04 519.639 180.006C520.628 177.96 522.003 176.364 523.764 175.216C525.537 174.057 527.605 173.477 529.969 173.477C531.81 173.477 533.469 173.818 534.946 174.5C536.423 175.182 537.634 176.136 538.577 177.364C539.52 178.591 540.105 180.023 540.332 181.659H536.31C536.003 180.466 535.321 179.409 534.264 178.489C533.219 177.557 531.81 177.091 530.037 177.091C528.469 177.091 527.094 177.5 525.912 178.318C524.741 179.125 523.827 180.267 523.168 181.744C522.52 183.21 522.196 184.932 522.196 186.909C522.196 188.932 522.514 190.693 523.151 192.193C523.798 193.693 524.707 194.858 525.878 195.688C527.06 196.517 528.446 196.932 530.037 196.932C531.082 196.932 532.031 196.75 532.884 196.386C533.736 196.023 534.457 195.5 535.048 194.818C535.639 194.136 536.06 193.318 536.31 192.364H540.332C540.105 193.909 539.543 195.301 538.645 196.54C537.759 197.767 536.582 198.744 535.116 199.472C533.662 200.188 531.969 200.545 530.037 200.545ZM550.236 184.25V200H546.213V165.091H550.236V177.909H550.577C551.19 176.557 552.111 175.483 553.338 174.688C554.577 173.881 556.224 173.477 558.281 173.477C560.065 173.477 561.628 173.835 562.969 174.551C564.31 175.256 565.349 176.341 566.088 177.807C566.838 179.261 567.213 181.114 567.213 183.364V200H563.19V183.636C563.19 181.557 562.651 179.949 561.571 178.812C560.503 177.665 559.02 177.091 557.122 177.091C555.804 177.091 554.622 177.369 553.577 177.926C552.543 178.483 551.724 179.295 551.122 180.364C550.531 181.432 550.236 182.727 550.236 184.25ZM594.004 200L586.027 173.818H590.254L595.913 193.864H596.186L601.777 173.818H606.072L611.595 193.795H611.868L617.527 173.818H621.754L613.777 200H609.822L604.095 179.886H603.686L597.959 200H594.004ZM627.072 200V173.818H631.095V200H627.072ZM629.118 169.455C628.334 169.455 627.658 169.188 627.089 168.653C626.533 168.119 626.254 167.477 626.254 166.727C626.254 165.977 626.533 165.335 627.089 164.801C627.658 164.267 628.334 164 629.118 164C629.902 164 630.572 164.267 631.129 164.801C631.697 165.335 631.982 165.977 631.982 166.727C631.982 167.477 631.697 168.119 631.129 168.653C630.572 169.188 629.902 169.455 629.118 169.455ZM649.44 200.545C646.918 200.545 644.741 199.989 642.912 198.875C641.094 197.75 639.69 196.182 638.702 194.17C637.724 192.148 637.236 189.795 637.236 187.114C637.236 184.432 637.724 182.068 638.702 180.023C639.69 177.966 641.065 176.364 642.827 175.216C644.599 174.057 646.668 173.477 649.031 173.477C650.395 173.477 651.741 173.705 653.071 174.159C654.401 174.614 655.611 175.352 656.702 176.375C657.793 177.386 658.662 178.727 659.31 180.398C659.957 182.068 660.281 184.125 660.281 186.568V188.273H640.099V184.795H656.19C656.19 183.318 655.895 182 655.304 180.841C654.724 179.682 653.895 178.767 652.815 178.097C651.747 177.426 650.486 177.091 649.031 177.091C647.429 177.091 646.043 177.489 644.872 178.284C643.713 179.068 642.821 180.091 642.196 181.352C641.571 182.614 641.259 183.966 641.259 185.409V187.727C641.259 189.705 641.599 191.381 642.281 192.756C642.974 194.119 643.935 195.159 645.162 195.875C646.389 196.58 647.815 196.932 649.44 196.932C650.497 196.932 651.452 196.784 652.304 196.489C653.168 196.182 653.912 195.727 654.537 195.125C655.162 194.511 655.645 193.75 655.986 192.841L659.872 193.932C659.463 195.25 658.776 196.409 657.81 197.409C656.844 198.398 655.651 199.17 654.23 199.727C652.81 200.273 651.213 200.545 649.44 200.545ZM676.287 200.545C674.105 200.545 672.179 199.994 670.509 198.892C668.838 197.778 667.531 196.21 666.588 194.188C665.645 192.153 665.173 189.75 665.173 186.977C665.173 184.227 665.645 181.841 666.588 179.818C667.531 177.795 668.844 176.233 670.526 175.131C672.207 174.028 674.151 173.477 676.355 173.477C678.06 173.477 679.406 173.761 680.395 174.33C681.395 174.886 682.156 175.523 682.679 176.239C683.213 176.943 683.628 177.523 683.923 177.977H684.264V165.091H688.287V200H684.401V195.977H683.923C683.628 196.455 683.207 197.057 682.662 197.784C682.116 198.5 681.338 199.142 680.327 199.71C679.315 200.267 677.969 200.545 676.287 200.545ZM676.832 196.932C678.446 196.932 679.81 196.511 680.923 195.67C682.037 194.818 682.884 193.642 683.463 192.142C684.043 190.631 684.332 188.886 684.332 186.909C684.332 184.955 684.048 183.244 683.48 181.778C682.912 180.301 682.071 179.153 680.957 178.335C679.844 177.506 678.469 177.091 676.832 177.091C675.128 177.091 673.707 177.528 672.571 178.403C671.446 179.267 670.599 180.443 670.031 181.932C669.474 183.409 669.196 185.068 669.196 186.909C669.196 188.773 669.48 190.466 670.048 191.989C670.628 193.5 671.48 194.705 672.605 195.602C673.741 196.489 675.151 196.932 676.832 196.932ZM707.19 200.545C704.668 200.545 702.491 199.989 700.662 198.875C698.844 197.75 697.44 196.182 696.452 194.17C695.474 192.148 694.986 189.795 694.986 187.114C694.986 184.432 695.474 182.068 696.452 180.023C697.44 177.966 698.815 176.364 700.577 175.216C702.349 174.057 704.418 173.477 706.781 173.477C708.145 173.477 709.491 173.705 710.821 174.159C712.151 174.614 713.361 175.352 714.452 176.375C715.543 177.386 716.412 178.727 717.06 180.398C717.707 182.068 718.031 184.125 718.031 186.568V188.273H697.849V184.795H713.94C713.94 183.318 713.645 182 713.054 180.841C712.474 179.682 711.645 178.767 710.565 178.097C709.497 177.426 708.236 177.091 706.781 177.091C705.179 177.091 703.793 177.489 702.622 178.284C701.463 179.068 700.571 180.091 699.946 181.352C699.321 182.614 699.009 183.966 699.009 185.409V187.727C699.009 189.705 699.349 191.381 700.031 192.756C700.724 194.119 701.685 195.159 702.912 195.875C704.139 196.58 705.565 196.932 707.19 196.932C708.247 196.932 709.202 196.784 710.054 196.489C710.918 196.182 711.662 195.727 712.287 195.125C712.912 194.511 713.395 193.75 713.736 192.841L717.622 193.932C717.213 195.25 716.526 196.409 715.56 197.409C714.594 198.398 713.401 199.17 711.98 199.727C710.56 200.273 708.963 200.545 707.19 200.545ZM724.151 200V173.818H728.037V177.773H728.31C728.787 176.477 729.651 175.426 730.901 174.619C732.151 173.812 733.56 173.409 735.128 173.409C735.423 173.409 735.793 173.415 736.236 173.426C736.679 173.437 737.014 173.455 737.241 173.477V177.568C737.105 177.534 736.793 177.483 736.304 177.415C735.827 177.335 735.321 177.295 734.787 177.295C733.514 177.295 732.378 177.562 731.378 178.097C730.389 178.619 729.605 179.347 729.026 180.278C728.457 181.199 728.173 182.25 728.173 183.432V200H724.151ZM741.942 200.273C741.101 200.273 740.379 199.972 739.777 199.369C739.175 198.767 738.874 198.045 738.874 197.205C738.874 196.364 739.175 195.642 739.777 195.04C740.379 194.437 741.101 194.136 741.942 194.136C742.783 194.136 743.504 194.437 744.107 195.04C744.709 195.642 745.01 196.364 745.01 197.205C745.01 197.761 744.868 198.273 744.584 198.739C744.311 199.205 743.942 199.58 743.476 199.864C743.021 200.136 742.51 200.273 741.942 200.273ZM790.138 176C789.763 174.852 789.268 173.824 788.655 172.915C788.053 171.994 787.331 171.21 786.49 170.562C785.661 169.915 784.717 169.42 783.661 169.08C782.604 168.739 781.445 168.568 780.183 168.568C778.115 168.568 776.234 169.102 774.541 170.17C772.848 171.239 771.501 172.812 770.501 174.892C769.501 176.972 769.001 179.523 769.001 182.545C769.001 185.568 769.507 188.119 770.518 190.199C771.53 192.278 772.899 193.852 774.626 194.92C776.354 195.989 778.297 196.523 780.456 196.523C782.456 196.523 784.217 196.097 785.74 195.244C787.274 194.381 788.467 193.165 789.32 191.597C790.183 190.017 790.615 188.159 790.615 186.023L791.911 186.295H781.411V182.545H794.706V186.295C794.706 189.17 794.092 191.67 792.865 193.795C791.649 195.92 789.967 197.568 787.82 198.739C785.683 199.898 783.229 200.477 780.456 200.477C777.365 200.477 774.649 199.75 772.308 198.295C769.979 196.841 768.161 194.773 766.854 192.091C765.558 189.409 764.911 186.227 764.911 182.545C764.911 179.784 765.28 177.301 766.018 175.097C766.768 172.881 767.825 170.994 769.189 169.438C770.553 167.881 772.166 166.688 774.03 165.858C775.893 165.028 777.945 164.614 780.183 164.614C782.024 164.614 783.74 164.892 785.331 165.449C786.933 165.994 788.359 166.773 789.609 167.784C790.871 168.784 791.922 169.983 792.763 171.381C793.604 172.767 794.183 174.307 794.501 176H790.138ZM817.901 189.295V173.818H821.923V200H817.901V195.568H817.628C817.014 196.898 816.06 198.028 814.764 198.96C813.469 199.881 811.832 200.341 809.855 200.341C808.219 200.341 806.764 199.983 805.491 199.267C804.219 198.54 803.219 197.449 802.491 195.994C801.764 194.528 801.401 192.682 801.401 190.455V173.818H805.423V190.182C805.423 192.091 805.957 193.614 807.026 194.75C808.105 195.886 809.48 196.455 811.151 196.455C812.151 196.455 813.168 196.199 814.202 195.688C815.247 195.176 816.122 194.392 816.827 193.335C817.543 192.278 817.901 190.932 817.901 189.295ZM840.678 173.818V177.227H827.109V173.818H840.678ZM831.064 167.545H835.087V192.5C835.087 193.636 835.251 194.489 835.581 195.057C835.922 195.614 836.354 195.989 836.876 196.182C837.411 196.364 837.973 196.455 838.564 196.455C839.007 196.455 839.371 196.432 839.655 196.386C839.939 196.33 840.166 196.284 840.337 196.25L841.155 199.864C840.882 199.966 840.501 200.068 840.013 200.17C839.524 200.284 838.905 200.341 838.155 200.341C837.018 200.341 835.905 200.097 834.814 199.608C833.734 199.119 832.837 198.375 832.121 197.375C831.416 196.375 831.064 195.114 831.064 193.591V167.545ZM852.729 195.227L852.456 197.068C852.263 198.364 851.967 199.75 851.57 201.227C851.183 202.705 850.78 204.097 850.359 205.403C849.939 206.71 849.592 207.75 849.32 208.523H846.251C846.399 207.795 846.592 206.835 846.831 205.642C847.07 204.449 847.308 203.114 847.547 201.636C847.797 200.17 848.001 198.67 848.161 197.136L848.365 195.227H852.729ZM883.568 200.545C881.386 200.545 879.46 199.994 877.79 198.892C876.119 197.778 874.813 196.21 873.869 194.188C872.926 192.153 872.455 189.75 872.455 186.977C872.455 184.227 872.926 181.841 873.869 179.818C874.813 177.795 876.125 176.233 877.807 175.131C879.489 174.028 881.432 173.477 883.636 173.477C885.341 173.477 886.688 173.761 887.676 174.33C888.676 174.886 889.438 175.523 889.96 176.239C890.494 176.943 890.909 177.523 891.205 177.977H891.545V165.091H895.568V200H891.682V195.977H891.205C890.909 196.455 890.489 197.057 889.943 197.784C889.398 198.5 888.619 199.142 887.608 199.71C886.597 200.267 885.25 200.545 883.568 200.545ZM884.114 196.932C885.727 196.932 887.091 196.511 888.205 195.67C889.318 194.818 890.165 193.642 890.744 192.142C891.324 190.631 891.614 188.886 891.614 186.909C891.614 184.955 891.33 183.244 890.761 181.778C890.193 180.301 889.352 179.153 888.239 178.335C887.125 177.506 885.75 177.091 884.114 177.091C882.409 177.091 880.989 177.528 879.852 178.403C878.727 179.267 877.881 180.443 877.312 181.932C876.756 183.409 876.477 185.068 876.477 186.909C876.477 188.773 876.761 190.466 877.33 191.989C877.909 193.5 878.761 194.705 879.886 195.602C881.023 196.489 882.432 196.932 884.114 196.932ZM911.199 200.614C909.54 200.614 908.034 200.301 906.682 199.676C905.33 199.04 904.256 198.125 903.46 196.932C902.665 195.727 902.267 194.273 902.267 192.568C902.267 191.068 902.563 189.852 903.153 188.92C903.744 187.977 904.534 187.239 905.523 186.705C906.511 186.17 907.602 185.773 908.795 185.511C910 185.239 911.21 185.023 912.426 184.864C914.017 184.659 915.307 184.506 916.295 184.403C917.295 184.29 918.023 184.102 918.477 183.841C918.943 183.58 919.176 183.125 919.176 182.477V182.341C919.176 180.659 918.716 179.352 917.795 178.42C916.886 177.489 915.506 177.023 913.653 177.023C911.733 177.023 910.227 177.443 909.136 178.284C908.045 179.125 907.278 180.023 906.835 180.977L903.017 179.614C903.699 178.023 904.608 176.784 905.744 175.898C906.892 175 908.142 174.375 909.494 174.023C910.858 173.659 912.199 173.477 913.517 173.477C914.358 173.477 915.324 173.58 916.415 173.784C917.517 173.977 918.58 174.381 919.602 174.994C920.636 175.608 921.494 176.534 922.176 177.773C922.858 179.011 923.199 180.67 923.199 182.75V200H919.176V196.455H918.972C918.699 197.023 918.244 197.631 917.608 198.278C916.972 198.926 916.125 199.477 915.068 199.932C914.011 200.386 912.722 200.614 911.199 200.614ZM911.812 197C913.403 197 914.744 196.688 915.835 196.062C916.938 195.438 917.767 194.631 918.324 193.642C918.892 192.653 919.176 191.614 919.176 190.523V186.841C919.006 187.045 918.631 187.233 918.051 187.403C917.483 187.562 916.824 187.705 916.074 187.83C915.335 187.943 914.614 188.045 913.909 188.136C913.216 188.216 912.653 188.284 912.222 188.341C911.176 188.477 910.199 188.699 909.29 189.006C908.392 189.301 907.665 189.75 907.108 190.352C906.563 190.943 906.29 191.75 906.29 192.773C906.29 194.17 906.807 195.227 907.841 195.943C908.886 196.648 910.21 197 911.812 197ZM949.087 179.682L945.473 180.705C945.246 180.102 944.911 179.517 944.467 178.949C944.036 178.369 943.445 177.892 942.695 177.517C941.945 177.142 940.984 176.955 939.814 176.955C938.212 176.955 936.876 177.324 935.808 178.062C934.751 178.79 934.223 179.716 934.223 180.841C934.223 181.841 934.587 182.631 935.314 183.21C936.041 183.79 937.178 184.273 938.723 184.659L942.609 185.614C944.95 186.182 946.695 187.051 947.842 188.222C948.99 189.381 949.564 190.875 949.564 192.705C949.564 194.205 949.132 195.545 948.268 196.727C947.416 197.909 946.223 198.841 944.689 199.523C943.155 200.205 941.371 200.545 939.337 200.545C936.666 200.545 934.456 199.966 932.706 198.807C930.956 197.648 929.848 195.955 929.382 193.727L933.2 192.773C933.564 194.182 934.251 195.239 935.263 195.943C936.286 196.648 937.621 197 939.268 197C941.143 197 942.632 196.602 943.734 195.807C944.848 195 945.405 194.034 945.405 192.909C945.405 192 945.087 191.239 944.45 190.625C943.814 190 942.837 189.534 941.518 189.227L937.155 188.205C934.757 187.636 932.996 186.756 931.871 185.562C930.757 184.358 930.2 182.852 930.2 181.045C930.2 179.568 930.615 178.261 931.445 177.125C932.286 175.989 933.428 175.097 934.871 174.449C936.325 173.801 937.973 173.477 939.814 173.477C942.405 173.477 944.439 174.045 945.916 175.182C947.405 176.318 948.462 177.818 949.087 179.682ZM974.165 179.682L970.551 180.705C970.324 180.102 969.989 179.517 969.545 178.949C969.114 178.369 968.523 177.892 967.773 177.517C967.023 177.142 966.062 176.955 964.892 176.955C963.29 176.955 961.955 177.324 960.886 178.062C959.83 178.79 959.301 179.716 959.301 180.841C959.301 181.841 959.665 182.631 960.392 183.21C961.119 183.79 962.256 184.273 963.801 184.659L967.688 185.614C970.028 186.182 971.773 187.051 972.92 188.222C974.068 189.381 974.642 190.875 974.642 192.705C974.642 194.205 974.21 195.545 973.347 196.727C972.494 197.909 971.301 198.841 969.767 199.523C968.233 200.205 966.449 200.545 964.415 200.545C961.744 200.545 959.534 199.966 957.784 198.807C956.034 197.648 954.926 195.955 954.46 193.727L958.278 192.773C958.642 194.182 959.33 195.239 960.341 195.943C961.364 196.648 962.699 197 964.347 197C966.222 197 967.71 196.602 968.812 195.807C969.926 195 970.483 194.034 970.483 192.909C970.483 192 970.165 191.239 969.528 190.625C968.892 190 967.915 189.534 966.597 189.227L962.233 188.205C959.835 187.636 958.074 186.756 956.949 185.562C955.835 184.358 955.278 182.852 955.278 181.045C955.278 179.568 955.693 178.261 956.523 177.125C957.364 175.989 958.506 175.097 959.949 174.449C961.403 173.801 963.051 173.477 964.892 173.477C967.483 173.477 969.517 174.045 970.994 175.182C972.483 176.318 973.54 177.818 974.165 179.682ZM1004.08 200.545C1001.9 200.545 999.976 199.994 998.305 198.892C996.635 197.778 995.328 196.21 994.385 194.188C993.442 192.153 992.97 189.75 992.97 186.977C992.97 184.227 993.442 181.841 994.385 179.818C995.328 177.795 996.641 176.233 998.322 175.131C1000 174.028 1001.95 173.477 1004.15 173.477C1005.86 173.477 1007.2 173.761 1008.19 174.33C1009.19 174.886 1009.95 175.523 1010.48 176.239C1011.01 176.943 1011.42 177.523 1011.72 177.977H1012.06V165.091H1016.08V200H1012.2V195.977H1011.72C1011.42 196.455 1011 197.057 1010.46 197.784C1009.91 198.5 1009.13 199.142 1008.12 199.71C1007.11 200.267 1005.77 200.545 1004.08 200.545ZM1004.63 196.932C1006.24 196.932 1007.61 196.511 1008.72 195.67C1009.83 194.818 1010.68 193.642 1011.26 192.142C1011.84 190.631 1012.13 188.886 1012.13 186.909C1012.13 184.955 1011.85 183.244 1011.28 181.778C1010.71 180.301 1009.87 179.153 1008.75 178.335C1007.64 177.506 1006.27 177.091 1004.63 177.091C1002.92 177.091 1001.5 177.528 1000.37 178.403C999.243 179.267 998.396 180.443 997.828 181.932C997.271 183.409 996.993 185.068 996.993 186.909C996.993 188.773 997.277 190.466 997.845 191.989C998.425 193.5 999.277 194.705 1000.4 195.602C1001.54 196.489 1002.95 196.932 1004.63 196.932ZM1040.51 189.295V173.818H1044.53V200H1040.51V195.568H1040.24C1039.62 196.898 1038.67 198.028 1037.37 198.96C1036.08 199.881 1034.44 200.341 1032.46 200.341C1030.83 200.341 1029.37 199.983 1028.1 199.267C1026.83 198.54 1025.83 197.449 1025.1 195.994C1024.37 194.528 1024.01 192.682 1024.01 190.455V173.818H1028.03V190.182C1028.03 192.091 1028.57 193.614 1029.63 194.75C1030.71 195.886 1032.09 196.455 1033.76 196.455C1034.76 196.455 1035.78 196.199 1036.81 195.688C1037.86 195.176 1038.73 194.392 1039.44 193.335C1040.15 192.278 1040.51 190.932 1040.51 189.295ZM198.682 258V231.818H202.568V235.909H202.909C203.455 234.511 204.335 233.426 205.551 232.653C206.767 231.869 208.227 231.477 209.932 231.477C211.659 231.477 213.097 231.869 214.244 232.653C215.403 233.426 216.307 234.511 216.955 235.909H217.227C217.898 234.557 218.903 233.483 220.244 232.688C221.585 231.881 223.193 231.477 225.068 231.477C227.409 231.477 229.324 232.21 230.812 233.676C232.301 235.131 233.045 237.398 233.045 240.477V258H229.023V240.477C229.023 238.545 228.494 237.165 227.438 236.335C226.381 235.506 225.136 235.091 223.705 235.091C221.864 235.091 220.438 235.648 219.426 236.761C218.415 237.864 217.909 239.261 217.909 240.955V258H213.818V240.068C213.818 238.58 213.335 237.381 212.369 236.472C211.403 235.551 210.159 235.091 208.636 235.091C207.591 235.091 206.614 235.369 205.705 235.926C204.807 236.483 204.08 237.256 203.523 238.244C202.977 239.222 202.705 240.352 202.705 241.636V258H198.682ZM251.378 258.545C248.855 258.545 246.679 257.989 244.849 256.875C243.031 255.75 241.628 254.182 240.639 252.17C239.662 250.148 239.173 247.795 239.173 245.114C239.173 242.432 239.662 240.068 240.639 238.023C241.628 235.966 243.003 234.364 244.764 233.216C246.537 232.057 248.605 231.477 250.969 231.477C252.332 231.477 253.679 231.705 255.009 232.159C256.338 232.614 257.548 233.352 258.639 234.375C259.73 235.386 260.599 236.727 261.247 238.398C261.895 240.068 262.219 242.125 262.219 244.568V246.273H242.037V242.795H258.128C258.128 241.318 257.832 240 257.241 238.841C256.662 237.682 255.832 236.767 254.753 236.097C253.685 235.426 252.423 235.091 250.969 235.091C249.366 235.091 247.98 235.489 246.81 236.284C245.651 237.068 244.759 238.091 244.134 239.352C243.509 240.614 243.196 241.966 243.196 243.409V245.727C243.196 247.705 243.537 249.381 244.219 250.756C244.912 252.119 245.872 253.159 247.099 253.875C248.327 254.58 249.753 254.932 251.378 254.932C252.435 254.932 253.389 254.784 254.241 254.489C255.105 254.182 255.849 253.727 256.474 253.125C257.099 252.511 257.582 251.75 257.923 250.841L261.81 251.932C261.401 253.25 260.713 254.409 259.747 255.409C258.781 256.398 257.588 257.17 256.168 257.727C254.747 258.273 253.151 258.545 251.378 258.545ZM272.361 242.25V258H268.338V223.091H272.361V235.909H272.702C273.315 234.557 274.236 233.483 275.463 232.688C276.702 231.881 278.349 231.477 280.406 231.477C282.19 231.477 283.753 231.835 285.094 232.551C286.435 233.256 287.474 234.341 288.213 235.807C288.963 237.261 289.338 239.114 289.338 241.364V258H285.315V241.636C285.315 239.557 284.776 237.949 283.696 236.812C282.628 235.665 281.145 235.091 279.247 235.091C277.929 235.091 276.747 235.369 275.702 235.926C274.668 236.483 273.849 237.295 273.247 238.364C272.656 239.432 272.361 240.727 272.361 242.25ZM296.697 258V231.818H300.584V235.773H300.857C301.334 234.477 302.197 233.426 303.447 232.619C304.697 231.812 306.107 231.409 307.675 231.409C307.97 231.409 308.339 231.415 308.783 231.426C309.226 231.437 309.561 231.455 309.788 231.477V235.568C309.652 235.534 309.339 235.483 308.851 235.415C308.374 235.335 307.868 235.295 307.334 235.295C306.061 235.295 304.925 235.562 303.925 236.097C302.936 236.619 302.152 237.347 301.572 238.278C301.004 239.199 300.72 240.25 300.72 241.432V258H296.697ZM344.557 247.295V231.818H348.58V258H344.557V253.568H344.284C343.67 254.898 342.716 256.028 341.42 256.96C340.125 257.881 338.489 258.341 336.511 258.341C334.875 258.341 333.42 257.983 332.148 257.267C330.875 256.54 329.875 255.449 329.148 253.994C328.42 252.528 328.057 250.682 328.057 248.455V231.818H332.08V248.182C332.08 250.091 332.614 251.614 333.682 252.75C334.761 253.886 336.136 254.455 337.807 254.455C338.807 254.455 339.824 254.199 340.858 253.688C341.903 253.176 342.778 252.392 343.483 251.335C344.199 250.278 344.557 248.932 344.557 247.295ZM333.443 227.455C332.727 227.455 332.091 227.182 331.534 226.636C330.989 226.08 330.716 225.443 330.716 224.727C330.716 223.943 330.989 223.295 331.534 222.784C332.091 222.261 332.727 222 333.443 222C334.227 222 334.875 222.261 335.386 222.784C335.909 223.295 336.17 223.943 336.17 224.727C336.17 225.443 335.909 226.08 335.386 226.636C334.875 227.182 334.227 227.455 333.443 227.455ZM343.261 227.455C342.545 227.455 341.909 227.182 341.352 226.636C340.807 226.08 340.534 225.443 340.534 224.727C340.534 223.943 340.807 223.295 341.352 222.784C341.909 222.261 342.545 222 343.261 222C344.045 222 344.693 222.261 345.205 222.784C345.727 223.295 345.989 223.943 345.989 224.727C345.989 225.443 345.727 226.08 345.205 226.636C344.693 227.182 344.045 227.455 343.261 227.455ZM356.493 258V223.091H360.516V235.977H360.857C361.152 235.523 361.561 234.943 362.084 234.239C362.618 233.523 363.379 232.886 364.368 232.33C365.368 231.761 366.72 231.477 368.425 231.477C370.629 231.477 372.572 232.028 374.254 233.131C375.936 234.233 377.249 235.795 378.192 237.818C379.135 239.841 379.607 242.227 379.607 244.977C379.607 247.75 379.135 250.153 378.192 252.188C377.249 254.21 375.942 255.778 374.271 256.892C372.601 257.994 370.675 258.545 368.493 258.545C366.811 258.545 365.464 258.267 364.453 257.71C363.442 257.142 362.663 256.5 362.118 255.784C361.572 255.057 361.152 254.455 360.857 253.977H360.379V258H356.493ZM360.447 244.909C360.447 246.886 360.737 248.631 361.317 250.142C361.896 251.642 362.743 252.818 363.857 253.67C364.97 254.511 366.334 254.932 367.947 254.932C369.629 254.932 371.033 254.489 372.158 253.602C373.294 252.705 374.146 251.5 374.714 249.989C375.294 248.466 375.584 246.773 375.584 244.909C375.584 243.068 375.3 241.409 374.732 239.932C374.175 238.443 373.328 237.267 372.192 236.403C371.067 235.528 369.652 235.091 367.947 235.091C366.311 235.091 364.936 235.506 363.822 236.335C362.709 237.153 361.868 238.301 361.3 239.778C360.732 241.244 360.447 242.955 360.447 244.909ZM396.737 258.545C394.214 258.545 392.038 257.989 390.209 256.875C388.391 255.75 386.987 254.182 385.999 252.17C385.021 250.148 384.533 247.795 384.533 245.114C384.533 242.432 385.021 240.068 385.999 238.023C386.987 235.966 388.362 234.364 390.124 233.216C391.896 232.057 393.964 231.477 396.328 231.477C397.692 231.477 399.038 231.705 400.368 232.159C401.697 232.614 402.908 233.352 403.999 234.375C405.089 235.386 405.959 236.727 406.607 238.398C407.254 240.068 407.578 242.125 407.578 244.568V246.273H387.396V242.795H403.487C403.487 241.318 403.192 240 402.601 238.841C402.021 237.682 401.192 236.767 400.112 236.097C399.044 235.426 397.783 235.091 396.328 235.091C394.726 235.091 393.339 235.489 392.169 236.284C391.01 237.068 390.118 238.091 389.493 239.352C388.868 240.614 388.555 241.966 388.555 243.409V245.727C388.555 247.705 388.896 249.381 389.578 250.756C390.271 252.119 391.232 253.159 392.459 253.875C393.686 254.58 395.112 254.932 396.737 254.932C397.794 254.932 398.749 254.784 399.601 254.489C400.464 254.182 401.209 253.727 401.834 253.125C402.459 252.511 402.942 251.75 403.283 250.841L407.169 251.932C406.76 253.25 406.072 254.409 405.107 255.409C404.141 256.398 402.947 257.17 401.527 257.727C400.107 258.273 398.51 258.545 396.737 258.545ZM413.697 258V231.818H417.584V235.773H417.857C418.334 234.477 419.197 233.426 420.447 232.619C421.697 231.812 423.107 231.409 424.675 231.409C424.97 231.409 425.339 231.415 425.783 231.426C426.226 231.437 426.561 231.455 426.788 231.477V235.568C426.652 235.534 426.339 235.483 425.851 235.415C425.374 235.335 424.868 235.295 424.334 235.295C423.061 235.295 421.925 235.562 420.925 236.097C419.936 236.619 419.152 237.347 418.572 238.278C418.004 239.199 417.72 240.25 417.72 241.432V258H413.697ZM445.602 258V223.091H457.398C460.136 223.091 462.375 223.585 464.114 224.574C465.864 225.551 467.159 226.875 468 228.545C468.841 230.216 469.261 232.08 469.261 234.136C469.261 236.193 468.841 238.062 468 239.744C467.17 241.426 465.886 242.767 464.148 243.767C462.409 244.756 460.182 245.25 457.466 245.25H449.011V241.5H457.33C459.205 241.5 460.71 241.176 461.847 240.528C462.983 239.881 463.807 239.006 464.318 237.903C464.841 236.79 465.102 235.534 465.102 234.136C465.102 232.739 464.841 231.489 464.318 230.386C463.807 229.284 462.977 228.42 461.83 227.795C460.682 227.159 459.159 226.841 457.261 226.841H449.83V258H445.602ZM483.23 258.614C481.571 258.614 480.065 258.301 478.713 257.676C477.361 257.04 476.287 256.125 475.491 254.932C474.696 253.727 474.298 252.273 474.298 250.568C474.298 249.068 474.594 247.852 475.185 246.92C475.776 245.977 476.565 245.239 477.554 244.705C478.543 244.17 479.634 243.773 480.827 243.511C482.031 243.239 483.241 243.023 484.457 242.864C486.048 242.659 487.338 242.506 488.327 242.403C489.327 242.29 490.054 242.102 490.509 241.841C490.974 241.58 491.207 241.125 491.207 240.477V240.341C491.207 238.659 490.747 237.352 489.827 236.42C488.918 235.489 487.537 235.023 485.685 235.023C483.764 235.023 482.259 235.443 481.168 236.284C480.077 237.125 479.31 238.023 478.866 238.977L475.048 237.614C475.73 236.023 476.639 234.784 477.776 233.898C478.923 233 480.173 232.375 481.526 232.023C482.889 231.659 484.23 231.477 485.548 231.477C486.389 231.477 487.355 231.58 488.446 231.784C489.548 231.977 490.611 232.381 491.634 232.994C492.668 233.608 493.526 234.534 494.207 235.773C494.889 237.011 495.23 238.67 495.23 240.75V258H491.207V254.455H491.003C490.73 255.023 490.276 255.631 489.639 256.278C489.003 256.926 488.156 257.477 487.099 257.932C486.043 258.386 484.753 258.614 483.23 258.614ZM483.844 255C485.435 255 486.776 254.688 487.866 254.062C488.969 253.438 489.798 252.631 490.355 251.642C490.923 250.653 491.207 249.614 491.207 248.523V244.841C491.037 245.045 490.662 245.233 490.082 245.403C489.514 245.562 488.855 245.705 488.105 245.83C487.366 245.943 486.645 246.045 485.94 246.136C485.247 246.216 484.685 246.284 484.253 246.341C483.207 246.477 482.23 246.699 481.321 247.006C480.423 247.301 479.696 247.75 479.139 248.352C478.594 248.943 478.321 249.75 478.321 250.773C478.321 252.17 478.838 253.227 479.872 253.943C480.918 254.648 482.241 255 483.844 255ZM521.118 237.682L517.504 238.705C517.277 238.102 516.942 237.517 516.499 236.949C516.067 236.369 515.476 235.892 514.726 235.517C513.976 235.142 513.016 234.955 511.845 234.955C510.243 234.955 508.908 235.324 507.839 236.062C506.783 236.79 506.254 237.716 506.254 238.841C506.254 239.841 506.618 240.631 507.345 241.21C508.072 241.79 509.209 242.273 510.754 242.659L514.641 243.614C516.982 244.182 518.726 245.051 519.874 246.222C521.021 247.381 521.595 248.875 521.595 250.705C521.595 252.205 521.163 253.545 520.3 254.727C519.447 255.909 518.254 256.841 516.72 257.523C515.186 258.205 513.402 258.545 511.368 258.545C508.697 258.545 506.487 257.966 504.737 256.807C502.987 255.648 501.879 253.955 501.413 251.727L505.232 250.773C505.595 252.182 506.283 253.239 507.294 253.943C508.317 254.648 509.652 255 511.3 255C513.175 255 514.663 254.602 515.766 253.807C516.879 253 517.436 252.034 517.436 250.909C517.436 250 517.118 249.239 516.482 248.625C515.845 248 514.868 247.534 513.55 247.227L509.186 246.205C506.788 245.636 505.027 244.756 503.902 243.562C502.788 242.358 502.232 240.852 502.232 239.045C502.232 237.568 502.646 236.261 503.476 235.125C504.317 233.989 505.459 233.097 506.902 232.449C508.357 231.801 510.004 231.477 511.845 231.477C514.436 231.477 516.47 232.045 517.947 233.182C519.436 234.318 520.493 235.818 521.118 237.682ZM546.196 237.682L542.582 238.705C542.355 238.102 542.02 237.517 541.577 236.949C541.145 236.369 540.554 235.892 539.804 235.517C539.054 235.142 538.094 234.955 536.923 234.955C535.321 234.955 533.986 235.324 532.918 236.062C531.861 236.79 531.332 237.716 531.332 238.841C531.332 239.841 531.696 240.631 532.423 241.21C533.151 241.79 534.287 242.273 535.832 242.659L539.719 243.614C542.06 244.182 543.804 245.051 544.952 246.222C546.099 247.381 546.673 248.875 546.673 250.705C546.673 252.205 546.241 253.545 545.378 254.727C544.526 255.909 543.332 256.841 541.798 257.523C540.264 258.205 538.48 258.545 536.446 258.545C533.776 258.545 531.565 257.966 529.815 256.807C528.065 255.648 526.957 253.955 526.491 251.727L530.31 250.773C530.673 252.182 531.361 253.239 532.372 253.943C533.395 254.648 534.73 255 536.378 255C538.253 255 539.741 254.602 540.844 253.807C541.957 253 542.514 252.034 542.514 250.909C542.514 250 542.196 249.239 541.56 248.625C540.923 248 539.946 247.534 538.628 247.227L534.264 246.205C531.866 245.636 530.105 244.756 528.98 243.562C527.866 242.358 527.31 240.852 527.31 239.045C527.31 237.568 527.724 236.261 528.554 235.125C529.395 233.989 530.537 233.097 531.98 232.449C533.435 231.801 535.082 231.477 536.923 231.477C539.514 231.477 541.548 232.045 543.026 233.182C544.514 234.318 545.571 235.818 546.196 237.682ZM558.661 258L550.683 231.818H554.911L560.57 251.864H560.842L566.433 231.818H570.729L576.251 251.795H576.524L582.183 231.818H586.411L578.433 258H574.479L568.751 237.886H568.342L562.615 258H558.661ZM601.474 258.545C599.111 258.545 597.037 257.983 595.253 256.858C593.48 255.733 592.094 254.159 591.094 252.136C590.105 250.114 589.611 247.75 589.611 245.045C589.611 242.318 590.105 239.937 591.094 237.903C592.094 235.869 593.48 234.29 595.253 233.165C597.037 232.04 599.111 231.477 601.474 231.477C603.838 231.477 605.906 232.04 607.679 233.165C609.463 234.29 610.849 235.869 611.838 237.903C612.838 239.937 613.338 242.318 613.338 245.045C613.338 247.75 612.838 250.114 611.838 252.136C610.849 254.159 609.463 255.733 607.679 256.858C605.906 257.983 603.838 258.545 601.474 258.545ZM601.474 254.932C603.27 254.932 604.747 254.472 605.906 253.551C607.065 252.631 607.923 251.42 608.48 249.92C609.037 248.42 609.315 246.795 609.315 245.045C609.315 243.295 609.037 241.665 608.48 240.153C607.923 238.642 607.065 237.42 605.906 236.489C604.747 235.557 603.27 235.091 601.474 235.091C599.679 235.091 598.202 235.557 597.043 236.489C595.884 237.42 595.026 238.642 594.469 240.153C593.912 241.665 593.634 243.295 593.634 245.045C593.634 246.795 593.912 248.42 594.469 249.92C595.026 251.42 595.884 252.631 597.043 253.551C598.202 254.472 599.679 254.932 601.474 254.932ZM619.479 258V231.818H623.365V235.773H623.638C624.115 234.477 624.979 233.426 626.229 232.619C627.479 231.812 628.888 231.409 630.456 231.409C630.751 231.409 631.121 231.415 631.564 231.426C632.007 231.437 632.342 231.455 632.57 231.477V235.568C632.433 235.534 632.121 235.483 631.632 235.415C631.155 235.335 630.649 235.295 630.115 235.295C628.842 235.295 627.706 235.562 626.706 236.097C625.717 236.619 624.933 237.347 624.354 238.278C623.786 239.199 623.501 240.25 623.501 241.432V258H619.479ZM650.365 231.818V235.227H636.797V231.818H650.365ZM640.751 225.545H644.774V250.5C644.774 251.636 644.939 252.489 645.268 253.057C645.609 253.614 646.041 253.989 646.564 254.182C647.098 254.364 647.661 254.455 648.251 254.455C648.695 254.455 649.058 254.432 649.342 254.386C649.626 254.33 649.854 254.284 650.024 254.25L650.842 257.864C650.57 257.966 650.189 258.068 649.7 258.17C649.212 258.284 648.592 258.341 647.842 258.341C646.706 258.341 645.592 258.097 644.501 257.608C643.422 257.119 642.524 256.375 641.808 255.375C641.104 254.375 640.751 253.114 640.751 251.591V225.545ZM674.493 237.682L670.879 238.705C670.652 238.102 670.317 237.517 669.874 236.949C669.442 236.369 668.851 235.892 668.101 235.517C667.351 235.142 666.391 234.955 665.22 234.955C663.618 234.955 662.283 235.324 661.214 236.062C660.158 236.79 659.629 237.716 659.629 238.841C659.629 239.841 659.993 240.631 660.72 241.21C661.447 241.79 662.584 242.273 664.129 242.659L668.016 243.614C670.357 244.182 672.101 245.051 673.249 246.222C674.396 247.381 674.97 248.875 674.97 250.705C674.97 252.205 674.538 253.545 673.675 254.727C672.822 255.909 671.629 256.841 670.095 257.523C668.561 258.205 666.777 258.545 664.743 258.545C662.072 258.545 659.862 257.966 658.112 256.807C656.362 255.648 655.254 253.955 654.788 251.727L658.607 250.773C658.97 252.182 659.658 253.239 660.669 253.943C661.692 254.648 663.027 255 664.675 255C666.55 255 668.038 254.602 669.141 253.807C670.254 253 670.811 252.034 670.811 250.909C670.811 250 670.493 249.239 669.857 248.625C669.22 248 668.243 247.534 666.925 247.227L662.561 246.205C660.163 245.636 658.402 244.756 657.277 243.562C656.163 242.358 655.607 240.852 655.607 239.045C655.607 237.568 656.021 236.261 656.851 235.125C657.692 233.989 658.834 233.097 660.277 232.449C661.732 231.801 663.379 231.477 665.22 231.477C667.811 231.477 669.845 232.045 671.322 233.182C672.811 234.318 673.868 235.818 674.493 237.682ZM681.026 258V231.818H685.048V258H681.026ZM683.071 227.455C682.287 227.455 681.611 227.188 681.043 226.653C680.486 226.119 680.207 225.477 680.207 224.727C680.207 223.977 680.486 223.335 681.043 222.801C681.611 222.267 682.287 222 683.071 222C683.855 222 684.526 222.267 685.082 222.801C685.651 223.335 685.935 223.977 685.935 224.727C685.935 225.477 685.651 226.119 685.082 226.653C684.526 227.188 683.855 227.455 683.071 227.455ZM703.053 258.545C700.598 258.545 698.484 257.966 696.712 256.807C694.939 255.648 693.575 254.051 692.621 252.017C691.666 249.983 691.189 247.659 691.189 245.045C691.189 242.386 691.678 240.04 692.655 238.006C693.643 235.96 695.018 234.364 696.78 233.216C698.553 232.057 700.621 231.477 702.984 231.477C704.825 231.477 706.484 231.818 707.962 232.5C709.439 233.182 710.649 234.136 711.592 235.364C712.536 236.591 713.121 238.023 713.348 239.659H709.325C709.018 238.466 708.337 237.409 707.28 236.489C706.234 235.557 704.825 235.091 703.053 235.091C701.484 235.091 700.109 235.5 698.928 236.318C697.757 237.125 696.842 238.267 696.183 239.744C695.536 241.21 695.212 242.932 695.212 244.909C695.212 246.932 695.53 248.693 696.166 250.193C696.814 251.693 697.723 252.858 698.893 253.688C700.075 254.517 701.462 254.932 703.053 254.932C704.098 254.932 705.047 254.75 705.899 254.386C706.751 254.023 707.473 253.5 708.064 252.818C708.655 252.136 709.075 251.318 709.325 250.364H713.348C713.121 251.909 712.558 253.301 711.661 254.54C710.774 255.767 709.598 256.744 708.132 257.472C706.678 258.188 704.984 258.545 703.053 258.545ZM723.251 242.25V258H719.229V223.091H723.251V235.909H723.592C724.206 234.557 725.126 233.483 726.354 232.688C727.592 231.881 729.24 231.477 731.297 231.477C733.081 231.477 734.643 231.835 735.984 232.551C737.325 233.256 738.365 234.341 739.104 235.807C739.854 237.261 740.229 239.114 740.229 241.364V258H736.206V241.636C736.206 239.557 735.666 237.949 734.587 236.812C733.518 235.665 732.036 235.091 730.138 235.091C728.82 235.091 727.638 235.369 726.592 235.926C725.558 236.483 724.74 237.295 724.138 238.364C723.547 239.432 723.251 240.727 723.251 242.25ZM758.565 258.545C756.043 258.545 753.866 257.989 752.037 256.875C750.219 255.75 748.815 254.182 747.827 252.17C746.849 250.148 746.361 247.795 746.361 245.114C746.361 242.432 746.849 240.068 747.827 238.023C748.815 235.966 750.19 234.364 751.952 233.216C753.724 232.057 755.793 231.477 758.156 231.477C759.52 231.477 760.866 231.705 762.196 232.159C763.526 232.614 764.736 233.352 765.827 234.375C766.918 235.386 767.787 236.727 768.435 238.398C769.082 240.068 769.406 242.125 769.406 244.568V246.273H749.224V242.795H765.315C765.315 241.318 765.02 240 764.429 238.841C763.849 237.682 763.02 236.767 761.94 236.097C760.872 235.426 759.611 235.091 758.156 235.091C756.554 235.091 755.168 235.489 753.997 236.284C752.838 237.068 751.946 238.091 751.321 239.352C750.696 240.614 750.384 241.966 750.384 243.409V245.727C750.384 247.705 750.724 249.381 751.406 250.756C752.099 252.119 753.06 253.159 754.287 253.875C755.514 254.58 756.94 254.932 758.565 254.932C759.622 254.932 760.577 254.784 761.429 254.489C762.293 254.182 763.037 253.727 763.662 253.125C764.287 252.511 764.77 251.75 765.111 250.841L768.997 251.932C768.588 253.25 767.901 254.409 766.935 255.409C765.969 256.398 764.776 257.17 763.355 257.727C761.935 258.273 760.338 258.545 758.565 258.545ZM775.526 258V231.818H779.412V235.773H779.685C780.162 234.477 781.026 233.426 782.276 232.619C783.526 231.812 784.935 231.409 786.503 231.409C786.798 231.409 787.168 231.415 787.611 231.426C788.054 231.437 788.389 231.455 788.616 231.477V235.568C788.48 235.534 788.168 235.483 787.679 235.415C787.202 235.335 786.696 235.295 786.162 235.295C784.889 235.295 783.753 235.562 782.753 236.097C781.764 236.619 780.98 237.347 780.401 238.278C779.832 239.199 779.548 240.25 779.548 241.432V258H775.526ZM797.408 242.25V258H793.385V223.091H797.408V235.909H797.749C798.362 234.557 799.283 233.483 800.51 232.688C801.749 231.881 803.396 231.477 805.453 231.477C807.237 231.477 808.8 231.835 810.141 232.551C811.482 233.256 812.521 234.341 813.26 235.807C814.01 237.261 814.385 239.114 814.385 241.364V258H810.362V241.636C810.362 239.557 809.822 237.949 808.743 236.812C807.675 235.665 806.192 235.091 804.294 235.091C802.976 235.091 801.794 235.369 800.749 235.926C799.714 236.483 798.896 237.295 798.294 238.364C797.703 239.432 797.408 240.727 797.408 242.25ZM832.722 258.545C830.199 258.545 828.023 257.989 826.193 256.875C824.375 255.75 822.972 254.182 821.983 252.17C821.006 250.148 820.517 247.795 820.517 245.114C820.517 242.432 821.006 240.068 821.983 238.023C822.972 235.966 824.347 234.364 826.108 233.216C827.881 232.057 829.949 231.477 832.312 231.477C833.676 231.477 835.023 231.705 836.352 232.159C837.682 232.614 838.892 233.352 839.983 234.375C841.074 235.386 841.943 236.727 842.591 238.398C843.239 240.068 843.562 242.125 843.562 244.568V246.273H823.381V242.795H839.472C839.472 241.318 839.176 240 838.585 238.841C838.006 237.682 837.176 236.767 836.097 236.097C835.028 235.426 833.767 235.091 832.312 235.091C830.71 235.091 829.324 235.489 828.153 236.284C826.994 237.068 826.102 238.091 825.477 239.352C824.852 240.614 824.54 241.966 824.54 243.409V245.727C824.54 247.705 824.881 249.381 825.562 250.756C826.256 252.119 827.216 253.159 828.443 253.875C829.67 254.58 831.097 254.932 832.722 254.932C833.778 254.932 834.733 254.784 835.585 254.489C836.449 254.182 837.193 253.727 837.818 253.125C838.443 252.511 838.926 251.75 839.267 250.841L843.153 251.932C842.744 253.25 842.057 254.409 841.091 255.409C840.125 256.398 838.932 257.17 837.511 257.727C836.091 258.273 834.494 258.545 832.722 258.545ZM849.682 258V231.818H853.705V258H849.682ZM851.727 227.455C850.943 227.455 850.267 227.188 849.699 226.653C849.142 226.119 848.864 225.477 848.864 224.727C848.864 223.977 849.142 223.335 849.699 222.801C850.267 222.267 850.943 222 851.727 222C852.511 222 853.182 222.267 853.739 222.801C854.307 223.335 854.591 223.977 854.591 224.727C854.591 225.477 854.307 226.119 853.739 226.653C853.182 227.188 852.511 227.455 851.727 227.455ZM872.459 231.818V235.227H858.891V231.818H872.459ZM862.845 225.545H866.868V250.5C866.868 251.636 867.033 252.489 867.362 253.057C867.703 253.614 868.135 253.989 868.658 254.182C869.192 254.364 869.754 254.455 870.345 254.455C870.788 254.455 871.152 254.432 871.436 254.386C871.72 254.33 871.947 254.284 872.118 254.25L872.936 257.864C872.663 257.966 872.283 258.068 871.794 258.17C871.305 258.284 870.686 258.341 869.936 258.341C868.8 258.341 867.686 258.097 866.595 257.608C865.516 257.119 864.618 256.375 863.902 255.375C863.197 254.375 862.845 253.114 862.845 251.591V225.545ZM897.942 258L889.964 231.818H894.192L899.851 251.864H900.124L905.714 231.818H910.01L915.533 251.795H915.805L921.464 231.818H925.692L917.714 258H913.76L908.033 237.886H907.624L901.896 258H897.942ZM931.01 258V231.818H935.033V258H931.01ZM933.055 227.455C932.271 227.455 931.595 227.188 931.027 226.653C930.47 226.119 930.192 225.477 930.192 224.727C930.192 223.977 930.47 223.335 931.027 222.801C931.595 222.267 932.271 222 933.055 222C933.839 222 934.51 222.267 935.067 222.801C935.635 223.335 935.919 223.977 935.919 224.727C935.919 225.477 935.635 226.119 935.067 226.653C934.51 227.188 933.839 227.455 933.055 227.455ZM960.946 237.682L957.332 238.705C957.105 238.102 956.77 237.517 956.327 236.949C955.895 236.369 955.304 235.892 954.554 235.517C953.804 235.142 952.844 234.955 951.673 234.955C950.071 234.955 948.736 235.324 947.668 236.062C946.611 236.79 946.082 237.716 946.082 238.841C946.082 239.841 946.446 240.631 947.173 241.21C947.901 241.79 949.037 242.273 950.582 242.659L954.469 243.614C956.81 244.182 958.554 245.051 959.702 246.222C960.849 247.381 961.423 248.875 961.423 250.705C961.423 252.205 960.991 253.545 960.128 254.727C959.276 255.909 958.082 256.841 956.548 257.523C955.014 258.205 953.23 258.545 951.196 258.545C948.526 258.545 946.315 257.966 944.565 256.807C942.815 255.648 941.707 253.955 941.241 251.727L945.06 250.773C945.423 252.182 946.111 253.239 947.122 253.943C948.145 254.648 949.48 255 951.128 255C953.003 255 954.491 254.602 955.594 253.807C956.707 253 957.264 252.034 957.264 250.909C957.264 250 956.946 249.239 956.31 248.625C955.673 248 954.696 247.534 953.378 247.227L949.014 246.205C946.616 245.636 944.855 244.756 943.73 243.562C942.616 242.358 942.06 240.852 942.06 239.045C942.06 237.568 942.474 236.261 943.304 235.125C944.145 233.989 945.287 233.097 946.73 232.449C948.185 231.801 949.832 231.477 951.673 231.477C954.264 231.477 956.298 232.045 957.776 233.182C959.264 234.318 960.321 235.818 960.946 237.682ZM986.024 237.682L982.411 238.705C982.183 238.102 981.848 237.517 981.405 236.949C980.973 236.369 980.382 235.892 979.632 235.517C978.882 235.142 977.922 234.955 976.751 234.955C975.149 234.955 973.814 235.324 972.746 236.062C971.689 236.79 971.161 237.716 971.161 238.841C971.161 239.841 971.524 240.631 972.251 241.21C972.979 241.79 974.115 242.273 975.661 242.659L979.547 243.614C981.888 244.182 983.632 245.051 984.78 246.222C985.928 247.381 986.501 248.875 986.501 250.705C986.501 252.205 986.07 253.545 985.206 254.727C984.354 255.909 983.161 256.841 981.626 257.523C980.092 258.205 978.308 258.545 976.274 258.545C973.604 258.545 971.393 257.966 969.643 256.807C967.893 255.648 966.786 253.955 966.32 251.727L970.138 250.773C970.501 252.182 971.189 253.239 972.2 253.943C973.223 254.648 974.558 255 976.206 255C978.081 255 979.57 254.602 980.672 253.807C981.786 253 982.342 252.034 982.342 250.909C982.342 250 982.024 249.239 981.388 248.625C980.751 248 979.774 247.534 978.456 247.227L974.092 246.205C971.695 245.636 969.933 244.756 968.808 243.562C967.695 242.358 967.138 240.852 967.138 239.045C967.138 237.568 967.553 236.261 968.382 235.125C969.223 233.989 970.365 233.097 971.808 232.449C973.263 231.801 974.911 231.477 976.751 231.477C979.342 231.477 981.376 232.045 982.854 233.182C984.342 234.318 985.399 235.818 986.024 237.682ZM1003.53 258.545C1001.01 258.545 998.835 257.989 997.006 256.875C995.188 255.75 993.784 254.182 992.795 252.17C991.818 250.148 991.33 247.795 991.33 245.114C991.33 242.432 991.818 240.068 992.795 238.023C993.784 235.966 995.159 234.364 996.92 233.216C998.693 232.057 1000.76 231.477 1003.12 231.477C1004.49 231.477 1005.84 231.705 1007.16 232.159C1008.49 232.614 1009.7 233.352 1010.8 234.375C1011.89 235.386 1012.76 236.727 1013.4 238.398C1014.05 240.068 1014.38 242.125 1014.38 244.568V246.273H994.193V242.795H1010.28C1010.28 241.318 1009.99 240 1009.4 238.841C1008.82 237.682 1007.99 236.767 1006.91 236.097C1005.84 235.426 1004.58 235.091 1003.12 235.091C1001.52 235.091 1000.14 235.489 998.966 236.284C997.807 237.068 996.915 238.091 996.29 239.352C995.665 240.614 995.352 241.966 995.352 243.409V245.727C995.352 247.705 995.693 249.381 996.375 250.756C997.068 252.119 998.028 253.159 999.256 253.875C1000.48 254.58 1001.91 254.932 1003.53 254.932C1004.59 254.932 1005.55 254.784 1006.4 254.489C1007.26 254.182 1008.01 253.727 1008.63 253.125C1009.26 252.511 1009.74 251.75 1010.08 250.841L1013.97 251.932C1013.56 253.25 1012.87 254.409 1011.9 255.409C1010.94 256.398 1009.74 257.17 1008.32 257.727C1006.9 258.273 1005.31 258.545 1003.53 258.545ZM1024.52 242.25V258H1020.49V231.818H1024.38V235.909H1024.72C1025.34 234.58 1026.27 233.511 1027.52 232.705C1028.77 231.886 1030.38 231.477 1032.36 231.477C1034.13 231.477 1035.68 231.841 1037.01 232.568C1038.34 233.284 1039.38 234.375 1040.11 235.841C1040.85 237.295 1041.22 239.136 1041.22 241.364V258H1037.2V241.636C1037.2 239.58 1036.66 237.977 1035.6 236.83C1034.53 235.67 1033.06 235.091 1031.2 235.091C1029.91 235.091 1028.77 235.369 1027.76 235.926C1026.76 236.483 1025.97 237.295 1025.39 238.364C1024.81 239.432 1024.52 240.727 1024.52 242.25ZM204.614 316L196.636 289.818H200.864L206.523 309.864H206.795L212.386 289.818H216.682L222.205 309.795H222.477L228.136 289.818H232.364L224.386 316H220.432L214.705 295.886H214.295L208.568 316H204.614ZM237.682 316V289.818H241.705V316H237.682ZM239.727 285.455C238.943 285.455 238.267 285.188 237.699 284.653C237.142 284.119 236.864 283.477 236.864 282.727C236.864 281.977 237.142 281.335 237.699 280.801C238.267 280.267 238.943 280 239.727 280C240.511 280 241.182 280.267 241.739 280.801C242.307 281.335 242.591 281.977 242.591 282.727C242.591 283.477 242.307 284.119 241.739 284.653C241.182 285.188 240.511 285.455 239.727 285.455ZM253.095 281.091V316H249.072V281.091H253.095ZM264.486 281.091V316H260.463V281.091H264.486ZM290.399 295.682L286.786 296.705C286.558 296.102 286.223 295.517 285.78 294.949C285.348 294.369 284.757 293.892 284.007 293.517C283.257 293.142 282.297 292.955 281.126 292.955C279.524 292.955 278.189 293.324 277.121 294.062C276.064 294.79 275.536 295.716 275.536 296.841C275.536 297.841 275.899 298.631 276.626 299.21C277.354 299.79 278.49 300.273 280.036 300.659L283.922 301.614C286.263 302.182 288.007 303.051 289.155 304.222C290.303 305.381 290.876 306.875 290.876 308.705C290.876 310.205 290.445 311.545 289.581 312.727C288.729 313.909 287.536 314.841 286.001 315.523C284.467 316.205 282.683 316.545 280.649 316.545C277.979 316.545 275.768 315.966 274.018 314.807C272.268 313.648 271.161 311.955 270.695 309.727L274.513 308.773C274.876 310.182 275.564 311.239 276.575 311.943C277.598 312.648 278.933 313 280.581 313C282.456 313 283.945 312.602 285.047 311.807C286.161 311 286.717 310.034 286.717 308.909C286.717 308 286.399 307.239 285.763 306.625C285.126 306 284.149 305.534 282.831 305.227L278.467 304.205C276.07 303.636 274.308 302.756 273.183 301.562C272.07 300.358 271.513 298.852 271.513 297.045C271.513 295.568 271.928 294.261 272.757 293.125C273.598 291.989 274.74 291.097 276.183 290.449C277.638 289.801 279.286 289.477 281.126 289.477C283.717 289.477 285.751 290.045 287.229 291.182C288.717 292.318 289.774 293.818 290.399 295.682ZM308.318 289.818V293.227H294.75V289.818H308.318ZM298.705 283.545H302.727V308.5C302.727 309.636 302.892 310.489 303.222 311.057C303.563 311.614 303.994 311.989 304.517 312.182C305.051 312.364 305.614 312.455 306.205 312.455C306.648 312.455 307.011 312.432 307.295 312.386C307.58 312.33 307.807 312.284 307.977 312.25L308.795 315.864C308.523 315.966 308.142 316.068 307.653 316.17C307.165 316.284 306.545 316.341 305.795 316.341C304.659 316.341 303.545 316.097 302.455 315.608C301.375 315.119 300.477 314.375 299.761 313.375C299.057 312.375 298.705 311.114 298.705 309.591V283.545ZM317.301 316.273C316.46 316.273 315.739 315.972 315.136 315.369C314.534 314.767 314.233 314.045 314.233 313.205C314.233 312.364 314.534 311.642 315.136 311.04C315.739 310.437 316.46 310.136 317.301 310.136C318.142 310.136 318.864 310.437 319.466 311.04C320.068 311.642 320.369 312.364 320.369 313.205C320.369 313.761 320.227 314.273 319.943 314.739C319.67 315.205 319.301 315.58 318.835 315.864C318.381 316.136 317.869 316.273 317.301 316.273Z" fill="black"/>
<path d="M1250.89 860.425C1246.86 861.265 1242.03 863.113 1241.56 867.483C1241 872.357 1246.62 875.214 1251.13 876.223C1268.13 880.172 1285.68 880.676 1303.16 881.181C1395.52 883.533 1487.89 883.954 1580.25 882.357C1578.91 870.341 1565.46 865.13 1554.31 862.861C1506.39 853.114 1456.81 858.66 1409.76 848.324C1360.18 837.316 1299.84 849.753 1250.89 860.425Z" fill="url(#paint0_linear_749_2630)"/>
<path d="M1250.89 860.425C1246.86 861.265 1242.03 863.113 1241.56 867.483C1241 872.357 1246.62 875.214 1251.13 876.223C1268.13 880.172 1285.68 880.676 1303.16 881.181C1395.52 883.533 1487.89 883.954 1580.25 882.357C1578.91 870.341 1565.46 865.13 1554.31 862.861C1506.39 853.114 1456.81 858.66 1409.76 848.324C1360.18 837.316 1299.84 849.753 1250.89 860.425Z" fill="url(#paint1_linear_749_2630)"/>
<path d="M1502.43 781.264C1503.46 780.928 1504.56 781.264 1505.59 781.601C1510.1 783.197 1514.53 785.298 1518.48 788.071C1520.46 789.416 1522.44 790.928 1523.39 793.197C1524.26 795.298 1524.18 797.651 1524.02 799.836C1522.59 826.894 1521.25 854.036 1519.83 881.095C1519.75 882.859 1519.51 884.793 1518.25 885.885C1516.66 887.145 1514.45 886.305 1512.71 885.465C1495.71 877.565 1478.79 869.582 1461.78 861.683C1453.64 857.902 1445.26 853.868 1439.25 846.893C1443.83 836.137 1453.48 828.995 1462.34 821.768C1476.1 810.507 1488.75 797.567 1499.9 783.449C1500.53 782.609 1501.32 781.6 1502.43 781.264Z" fill="#DDC199"/>
<path d="M1582.54 641.855C1578.35 640.847 1574.07 639.838 1569.89 638.83C1545.21 686.98 1523.39 736.812 1504.57 787.904C1508.92 790.845 1514.69 793.87 1518.88 790.677C1520.62 789.332 1521.65 787.147 1522.6 785.047C1543.95 737.988 1563.95 690.258 1582.54 641.855Z" fill="#BDB39B"/>
<g opacity="0.26">
<path opacity="0.26" d="M1504.79 876.137C1504.71 877.062 1506.05 877.398 1506.21 876.474C1509.61 849.163 1514.44 822.357 1520.68 795.634C1521.08 793.954 1518.63 793.449 1518.23 795.13C1511.75 821.6 1507.24 848.827 1504.79 876.137Z" fill="#272525"/>
<path opacity="0.26" d="M1477.99 864.121C1488.43 840.76 1499.5 817.735 1511.21 795.046C1511.92 793.701 1509.86 792.609 1509.15 793.954C1496.97 816.811 1485.98 840.34 1475.94 864.289C1476.1 864.457 1476.17 864.625 1476.25 864.793C1476.81 864.373 1477.36 864.205 1477.99 864.121Z" fill="#272525"/>
<path opacity="0.26" d="M1460.98 848.743C1478.46 831.264 1494.03 811.853 1507.64 790.844C1508.51 789.416 1506.29 788.239 1505.42 789.668C1492.06 810.592 1476.72 829.92 1459.56 847.398C1458.69 848.322 1460.11 849.667 1460.98 848.743Z" fill="#272525"/>
</g>
<path d="M1339.77 805.213C1339.85 803.953 1340 802.608 1340.08 801.347C1329.64 793.784 1311.3 796.221 1300.23 800.087C1288.37 804.204 1288.36 811.935 1288.52 825.044C1288.6 832.439 1289.23 840.759 1294.61 845.548C1298.72 849.246 1304.5 849.75 1309.87 850.086C1314.7 850.422 1319.44 850.674 1324.27 851.01C1327.59 851.178 1331.3 851.263 1333.91 848.993C1336.52 846.641 1336.92 842.691 1337.24 839.077C1338.11 827.733 1338.98 816.473 1339.77 805.213Z" fill="#2F3F47"/>
<path d="M1352.5 805.213C1352.43 803.953 1352.27 802.608 1352.19 801.347C1362.63 793.784 1380.97 796.221 1392.04 800.087C1403.9 804.204 1403.9 811.935 1403.75 825.044C1403.67 832.439 1403.03 840.759 1397.66 845.548C1393.55 849.246 1387.77 849.75 1382.4 850.086C1377.57 850.422 1372.83 850.674 1368 851.01C1364.68 851.178 1360.97 851.263 1358.36 848.993C1355.75 846.641 1355.35 842.691 1355.03 839.077C1354.24 827.733 1353.37 816.473 1352.5 805.213Z" fill="#2F3F47"/>
<path d="M1263.45 777.148C1260.84 777.735 1258.31 778.576 1255.86 779.668C1254.04 780.424 1252.22 781.433 1250.95 782.945C1249.21 785.13 1248.74 788.156 1248.42 791.097C1248.03 794.963 1247.87 798.828 1247.95 802.693C1247.95 805.97 1248.19 809.332 1249.77 812.105C1251.98 815.971 1256.33 817.735 1260.44 818.827C1268.27 820.929 1276.42 821.432 1284.48 821.853C1333.28 824.374 1382.22 822.692 1430.78 816.895C1432.76 816.643 1434.97 816.307 1436.31 814.71C1437.11 813.786 1437.5 812.525 1437.9 811.348C1440.43 802.777 1442.09 791.097 1436.63 783.114C1431.97 776.307 1423.35 780.172 1416.86 780.088C1410.22 780.004 1403.5 779.416 1396.85 779.164C1383.89 778.576 1370.92 777.987 1357.95 777.567C1339.68 776.895 1321.33 776.307 1303.07 775.803C1290.73 775.551 1276.18 774.122 1263.45 777.148Z" fill="#516770"/>
<path d="M1368.31 592.695C1401.44 592.863 1434.5 593.62 1467.63 594.376C1466.84 575.637 1465.57 556.897 1461.78 538.578C1455.21 506.478 1440.19 475.134 1414.81 456.395C1375.9 427.656 1314.14 431.437 1272.23 459.84C1254.59 471.772 1240.44 488.159 1233 508.242C1224.46 531.183 1222.17 556.225 1220.83 580.847C1220.67 584.124 1220.51 587.317 1220.35 590.594C1269.54 588.577 1319.04 592.527 1368.31 592.695Z" fill="#EAF1F2"/>
<path d="M1365.66 602.108C1317.1 602.024 1268.39 598.327 1219.83 600.175C1217.46 656.141 1219.68 712.359 1226.48 767.989C1227.43 775.636 1228.61 783.618 1233.36 789.668C1240.71 798.996 1253.44 794.878 1263.33 794.878C1280.01 794.878 1297.17 795.635 1314.02 796.055C1345.81 796.811 1377.36 796.895 1408.99 793.114C1424.02 791.35 1454.38 796.223 1461.58 781.854C1467.51 770.173 1465.06 746.476 1465.93 733.451C1466.95 717.989 1467.75 702.611 1468.22 687.149C1469.09 659.334 1468.93 631.519 1467.9 603.62C1433.9 602.948 1399.74 602.108 1365.66 602.108Z" fill="#E2ECED"/>
<path d="M1480.33 692.696C1480.96 692.107 1481.04 691.099 1481.12 690.259C1482.78 666.982 1484.21 643.704 1485.23 620.427C1485.31 618.41 1485.31 616.058 1483.81 614.713C1482.7 613.789 1481.28 613.705 1479.86 613.705C1474.95 613.621 1470.13 613.537 1465.23 613.537C1462.14 640.007 1460.88 666.645 1461.51 693.284C1466.97 693.284 1472.34 693.368 1477.8 693.368C1478.67 693.368 1479.62 693.368 1480.33 692.696Z" fill="#2F3F47"/>
<path d="M1505.53 746.31C1506.17 744.378 1506.88 742.361 1508.3 740.932C1509.41 739.84 1510.91 739.167 1512.33 738.663C1518.5 736.31 1524.83 734.546 1531.24 733.369C1536.22 736.983 1540.72 741.269 1544.6 746.226C1545.31 747.151 1546.02 748.159 1546.18 749.336C1546.34 750.26 1546.1 751.184 1545.86 752.109C1543.33 762.445 1540.88 772.781 1538.35 783.117C1534.64 783.621 1530.92 783.705 1527.28 783.201C1528.7 776.898 1530.13 770.596 1531.47 764.377C1532.82 758.411 1533.84 751.1 1529.57 746.899C1525.23 748.075 1520.95 749.336 1516.61 750.512C1515.89 750.68 1515.1 750.932 1514.47 751.436C1513.76 752.109 1513.44 753.117 1513.13 754.041C1511.31 759.924 1509.96 765.974 1509.01 772.109C1506.25 771.268 1503.48 770.511 1500.71 769.671C1500.47 761.688 1503 753.874 1505.53 746.31Z" fill="#2F3F47"/>
<path d="M1539.14 737.233C1539.38 736.981 1539.46 736.646 1539.54 736.393C1540.33 732.612 1541.12 728.83 1541.99 725.133C1536.45 723.788 1530.76 722.863 1525.15 722.359C1524.28 725.469 1523.72 728.746 1523.48 732.023C1523.41 732.696 1523.41 733.536 1523.88 734.04C1524.2 734.376 1524.59 734.46 1524.99 734.629C1529.18 735.973 1533.53 736.981 1537.96 737.569C1538.27 737.485 1538.75 737.57 1539.14 737.233Z" fill="#516770"/>
<path d="M1544.68 722.529C1548.01 716.562 1545.32 700.848 1545.32 694.546C1545.24 685.89 1545.24 677.151 1543.34 668.748C1541.44 660.344 1537.57 652.109 1531.16 646.815C1527.52 643.79 1523.25 641.858 1518.83 640.261C1505.62 635.471 1491.47 633.875 1477.63 635.639C1476.52 635.807 1475.33 635.975 1474.54 636.816C1473.67 637.656 1473.51 639 1473.36 640.261C1472.72 645.051 1471.85 650.345 1472.09 655.218C1472.49 663.79 1470.83 661.437 1476.68 663.874C1481.18 665.723 1489.65 664.21 1494.79 665.471C1500.8 666.899 1506.65 669.084 1512.5 671.269C1516.22 672.613 1520.17 674.294 1522.07 677.907C1523.1 679.84 1523.41 682.193 1523.65 684.462C1525.07 697.908 1525.71 711.436 1525.63 724.966C1525.63 727.318 1541.92 726.142 1544.05 723.537C1544.29 723.201 1544.45 722.865 1544.68 722.529Z" fill="#E2ECED"/>
<g opacity="0.15">
<path opacity="0.15" d="M1517 644.129C1516.53 652.196 1514.55 659.507 1511.55 666.902C1510.99 668.33 1512.65 669.423 1513.52 668.163C1518.27 661.104 1520.72 652.7 1521.59 644.129C1521.91 641.104 1517.24 641.019 1517 644.129Z" fill="#272525"/>
<path opacity="0.15" d="M1529.11 649.927C1527.76 657.743 1524.44 662.869 1519.22 668.415C1518.51 669.171 1519.46 670.431 1520.25 669.843C1523.81 667.49 1527.13 665.978 1529.66 662.197C1532.03 658.667 1533.62 654.885 1534.09 650.6C1534.41 647.659 1529.66 646.986 1529.11 649.927Z" fill="#272525"/>
</g>
<path d="M1212.07 614.209C1211.44 614.797 1211.36 615.806 1211.28 616.646C1209.62 639.923 1208.2 663.2 1207.17 686.477C1207.09 688.494 1207.09 690.847 1208.59 692.191C1209.7 693.116 1211.12 693.2 1212.55 693.2C1217.45 693.284 1222.27 693.368 1227.18 693.368C1230.26 666.898 1231.53 640.259 1230.89 613.621C1225.44 613.621 1220.06 613.537 1214.6 613.537C1213.73 613.537 1212.71 613.537 1212.07 614.209Z" fill="#2F3F47"/>
<path d="M1150.78 585.555C1151.02 587.572 1151.25 589.756 1150.54 591.605C1149.99 593.117 1148.96 594.378 1147.85 595.555C1143.35 600.512 1138.44 605.135 1133.14 609.252C1127.13 608.412 1121.28 606.647 1115.83 604.042C1114.8 603.538 1113.69 603.034 1113.06 602.025C1112.58 601.269 1112.35 600.344 1112.19 599.42C1110.13 589 1108 578.496 1105.94 568.076C1109.03 565.891 1112.35 564.042 1115.83 562.697C1117.17 569 1118.59 575.302 1119.94 581.605C1121.28 587.571 1123.42 594.63 1128.95 596.311C1132.35 593.202 1135.67 590.092 1139.08 586.983C1139.63 586.479 1140.26 585.891 1140.58 585.135C1140.97 584.21 1140.81 583.117 1140.66 582.109C1139.79 575.975 1138.52 569.924 1136.78 563.958C1139.63 563.37 1142.4 562.782 1145.24 562.193C1148.88 569.336 1149.83 577.571 1150.78 585.555Z" fill="#2F3F47"/>
<path d="M1124.51 609.502C1124.43 609.838 1124.51 610.175 1124.51 610.427C1125.38 614.208 1126.25 617.906 1127.04 621.687C1132.57 620.258 1138.03 618.41 1143.33 616.225C1142.85 613.031 1141.98 609.838 1140.8 606.813C1140.56 606.141 1140.24 605.468 1139.61 605.216C1139.22 605.048 1138.82 605.132 1138.35 605.216C1134 605.973 1129.73 607.149 1125.54 608.662C1125.14 608.83 1124.67 609.082 1124.51 609.502Z" fill="#516770"/>
<path d="M1125.71 625.303C1125.16 632.193 1134.17 644.966 1136.86 650.68C1140.5 658.412 1144.22 666.227 1149.44 672.865C1154.65 679.504 1161.53 685.05 1169.52 686.73C1174.03 687.739 1178.69 687.487 1183.28 686.815C1197.12 684.882 1210.48 679.672 1222.11 671.521C1223.06 670.848 1224.01 670.176 1224.4 669C1224.8 667.823 1224.4 666.563 1224.09 665.302C1222.58 660.681 1221.24 655.555 1218.95 651.269C1214.99 643.79 1217.52 645.134 1211.2 645.638C1206.37 646.059 1199.41 651.437 1194.27 652.782C1188.26 654.378 1182.09 655.134 1176.01 655.975C1172.13 656.479 1167.86 656.899 1164.62 654.546C1162.88 653.286 1161.61 651.353 1160.51 649.42C1153.63 638.075 1147.38 626.227 1141.76 614.043C1140.82 611.942 1126.74 620.681 1125.87 624.042C1125.79 624.546 1125.71 624.883 1125.71 625.303Z" fill="#E2ECED"/>
<g opacity="0.15">
<path opacity="0.15" d="M1183.19 682.442C1180.26 674.963 1179 667.484 1178.52 659.417C1178.44 657.821 1176.47 657.653 1176.23 659.25C1174.96 667.821 1176.23 676.476 1179.08 684.543C1180.1 687.484 1184.37 685.299 1183.19 682.442Z" fill="#272525"/>
<path opacity="0.15" d="M1170 683.032C1167.94 675.385 1168.73 669.251 1171.1 661.772C1171.42 660.764 1170.08 660.091 1169.52 660.931C1167.39 664.713 1165.01 667.654 1164.3 672.192C1163.67 676.477 1163.83 680.595 1165.25 684.628C1166.2 687.569 1170.71 685.889 1170 683.032Z" fill="#272525"/>
</g>
<path d="M1242.44 537.739C1242.52 540.932 1242.67 544.209 1243.94 547.151C1247.18 554.461 1255.72 556.814 1263.23 558.159C1306.17 565.805 1350.06 568.411 1393.24 562.612C1398.93 561.856 1404.63 560.932 1409.85 558.411C1415.06 555.89 1419.73 551.604 1421.63 545.974C1422.81 542.36 1422.89 538.495 1422.97 534.63C1423.05 530.764 1423.05 526.815 1423.13 522.949C1423.13 521.185 1423.13 519.42 1422.5 517.739C1421.79 515.974 1420.36 514.546 1418.86 513.453C1413.17 509.336 1405.97 508.411 1399.09 507.655C1353.38 502.781 1307.12 498.496 1261.65 505.05C1259.75 505.302 1257.78 505.638 1256.43 507.067C1255.72 507.739 1255.25 508.664 1254.54 509.336C1253.19 510.428 1251.37 510.344 1249.79 510.932C1245.36 512.445 1243.78 518.244 1243.23 523.202C1242.59 527.991 1242.36 532.865 1242.44 537.739Z" fill="#2F3F47"/>
<path opacity="0.2" d="M1299.68 544.797C1301.18 541.856 1301.42 538.411 1301.1 535.05C1300.94 533.033 1300.47 530.933 1299.28 529.42C1296.75 526.227 1292.09 526.563 1288.21 525.807C1284.81 527.319 1281.96 530.26 1280.54 533.874C1279.67 536.058 1279.28 538.411 1279.51 540.764C1280.07 545.554 1283.78 549.672 1288.21 550.512C1292.72 551.521 1297.54 549.083 1299.68 544.797Z" fill="#EAF1F2"/>
<path opacity="0.2" d="M1374.98 544.797C1376.49 541.856 1376.72 538.411 1376.41 535.05C1376.25 533.033 1375.77 530.933 1374.59 529.42C1372.06 526.227 1367.39 526.563 1363.52 525.807C1360.12 527.319 1357.27 530.26 1355.85 533.874C1354.98 536.058 1354.58 538.411 1354.82 540.764C1355.37 545.554 1359.09 549.672 1363.52 550.512C1367.95 551.521 1372.77 549.083 1374.98 544.797Z" fill="#EAF1F2"/>
<defs>
<linearGradient id="paint0_linear_749_2630" x1="1241.57" y1="863.659" x2="1580.34" y2="863.659" gradientUnits="userSpaceOnUse">
<stop stop-color="#4D4D4D"/>
<stop offset="1"/>
</linearGradient>
<linearGradient id="paint1_linear_749_2630" x1="1241.57" y1="863.659" x2="1580.34" y2="863.659" gradientUnits="userSpaceOnUse">
<stop/>
<stop offset="1"/>
</linearGradient>
</defs>
</svg>
