<svg width="1583" height="887" viewBox="0 0 1583 887" fill="none" xmlns="http://www.w3.org/2000/svg">
<path d="M1007.78 585.999C1008.14 585.999 1008.5 585.99 1008.87 585.974C1013.1 585.793 1017.24 584.413 1020.93 581.949C1024.61 579.486 1027.74 576.012 1030.04 571.825C1047.25 541.591 1068.37 514.701 1092.64 492.125C1107.34 478.324 1122.69 465.491 1137.54 453.079C1175.84 421.071 1211.91 390.926 1231.94 349.272C1275.59 258.443 1224.18 131.932 1150.73 75.196C1068.35 11.5636 959.984 1.5823 855.156 0.274247C844.261 0.138851 833.36 0.0715602 822.452 0.0722712C633.573 0.157384 445.091 20.4114 259.331 60.5847C197.561 73.9777 132.904 90.3847 80.9458 130.201C29.2961 169.783 -2.09704 232.113 0.965576 289.001C5.43719 372.048 80.3471 434.102 148.559 450.326C213.576 465.777 281.118 455.335 352.623 444.277C368.41 441.838 384.731 439.313 400.872 437.12C576.288 413.292 905.818 486.737 919.76 489.875L933.591 492.987L987.258 574.149C989.671 577.849 992.78 580.843 996.341 582.899C999.901 584.954 1003.82 586.015 1007.78 585.999Z" fill="white"/>
<path d="M213.568 154L204.023 119.091H208.318L215.614 147.523H215.955L223.386 119.091H228.159L235.591 147.523H235.932L243.227 119.091H247.523L237.977 154H233.614L225.909 126.182H225.636L217.932 154H213.568ZM260.784 154.545C258.261 154.545 256.085 153.989 254.256 152.875C252.438 151.75 251.034 150.182 250.045 148.17C249.068 146.148 248.58 143.795 248.58 141.114C248.58 138.432 249.068 136.068 250.045 134.023C251.034 131.966 252.409 130.364 254.17 129.216C255.943 128.057 258.011 127.477 260.375 127.477C261.739 127.477 263.085 127.705 264.415 128.159C265.744 128.614 266.955 129.352 268.045 130.375C269.136 131.386 270.006 132.727 270.653 134.398C271.301 136.068 271.625 138.125 271.625 140.568V142.273H251.443V138.795H267.534C267.534 137.318 267.239 136 266.648 134.841C266.068 133.682 265.239 132.767 264.159 132.097C263.091 131.426 261.83 131.091 260.375 131.091C258.773 131.091 257.386 131.489 256.216 132.284C255.057 133.068 254.165 134.091 253.54 135.352C252.915 136.614 252.602 137.966 252.602 139.409V141.727C252.602 143.705 252.943 145.381 253.625 146.756C254.318 148.119 255.278 149.159 256.506 149.875C257.733 150.58 259.159 150.932 260.784 150.932C261.841 150.932 262.795 150.784 263.648 150.489C264.511 150.182 265.256 149.727 265.881 149.125C266.506 148.511 266.989 147.75 267.33 146.841L271.216 147.932C270.807 149.25 270.119 150.409 269.153 151.409C268.188 152.398 266.994 153.17 265.574 153.727C264.153 154.273 262.557 154.545 260.784 154.545ZM281.767 138.25V154H277.744V127.818H281.631V131.909H281.972C282.585 130.58 283.517 129.511 284.767 128.705C286.017 127.886 287.631 127.477 289.608 127.477C291.381 127.477 292.932 127.841 294.261 128.568C295.591 129.284 296.625 130.375 297.364 131.841C298.102 133.295 298.472 135.136 298.472 137.364V154H294.449V137.636C294.449 135.58 293.915 133.977 292.847 132.83C291.778 131.67 290.313 131.091 288.449 131.091C287.165 131.091 286.017 131.369 285.006 131.926C284.006 132.483 283.216 133.295 282.636 134.364C282.057 135.432 281.767 136.727 281.767 138.25ZM309.845 138.25V154H305.822V127.818H309.709V131.909H310.05C310.663 130.58 311.595 129.511 312.845 128.705C314.095 127.886 315.709 127.477 317.686 127.477C319.459 127.477 321.01 127.841 322.339 128.568C323.669 129.284 324.703 130.375 325.442 131.841C326.18 133.295 326.55 135.136 326.55 137.364V154H322.527V137.636C322.527 135.58 321.993 133.977 320.925 132.83C319.857 131.67 318.391 131.091 316.527 131.091C315.243 131.091 314.095 131.369 313.084 131.926C312.084 132.483 311.294 133.295 310.714 134.364C310.135 135.432 309.845 136.727 309.845 138.25ZM358.378 154.545C355.855 154.545 353.679 153.989 351.849 152.875C350.031 151.75 348.628 150.182 347.639 148.17C346.662 146.148 346.173 143.795 346.173 141.114C346.173 138.432 346.662 136.068 347.639 134.023C348.628 131.966 350.003 130.364 351.764 129.216C353.537 128.057 355.605 127.477 357.969 127.477C359.332 127.477 360.679 127.705 362.009 128.159C363.338 128.614 364.548 129.352 365.639 130.375C366.73 131.386 367.599 132.727 368.247 134.398C368.895 136.068 369.219 138.125 369.219 140.568V142.273H349.037V138.795H365.128C365.128 137.318 364.832 136 364.241 134.841C363.662 133.682 362.832 132.767 361.753 132.097C360.685 131.426 359.423 131.091 357.969 131.091C356.366 131.091 354.98 131.489 353.81 132.284C352.651 133.068 351.759 134.091 351.134 135.352C350.509 136.614 350.196 137.966 350.196 139.409V141.727C350.196 143.705 350.537 145.381 351.219 146.756C351.912 148.119 352.872 149.159 354.099 149.875C355.327 150.58 356.753 150.932 358.378 150.932C359.435 150.932 360.389 150.784 361.241 150.489C362.105 150.182 362.849 149.727 363.474 149.125C364.099 148.511 364.582 147.75 364.923 146.841L368.81 147.932C368.401 149.25 367.713 150.409 366.747 151.409C365.781 152.398 364.588 153.17 363.168 153.727C361.747 154.273 360.151 154.545 358.378 154.545ZM375.338 154V127.818H379.361V154H375.338ZM377.384 123.455C376.599 123.455 375.923 123.188 375.355 122.653C374.798 122.119 374.52 121.477 374.52 120.727C374.52 119.977 374.798 119.335 375.355 118.801C375.923 118.267 376.599 118 377.384 118C378.168 118 378.838 118.267 379.395 118.801C379.963 119.335 380.247 119.977 380.247 120.727C380.247 121.477 379.963 122.119 379.395 122.653C378.838 123.188 378.168 123.455 377.384 123.455ZM390.751 138.25V154H386.729V127.818H390.615V131.909H390.956C391.57 130.58 392.501 129.511 393.751 128.705C395.001 127.886 396.615 127.477 398.592 127.477C400.365 127.477 401.916 127.841 403.246 128.568C404.575 129.284 405.609 130.375 406.348 131.841C407.087 133.295 407.456 135.136 407.456 137.364V154H403.433V137.636C403.433 135.58 402.899 133.977 401.831 132.83C400.763 131.67 399.297 131.091 397.433 131.091C396.149 131.091 395.001 131.369 393.99 131.926C392.99 132.483 392.2 133.295 391.621 134.364C391.041 135.432 390.751 136.727 390.751 138.25ZM430.284 154H425.852L438.67 119.091H443.034L455.852 154H451.42L440.989 124.614H440.716L430.284 154ZM431.92 140.364H449.784V144.114H431.92V140.364ZM464.767 138.25V154H460.744V127.818H464.631V131.909H464.972C465.585 130.58 466.517 129.511 467.767 128.705C469.017 127.886 470.631 127.477 472.608 127.477C474.381 127.477 475.932 127.841 477.261 128.568C478.591 129.284 479.625 130.375 480.364 131.841C481.102 133.295 481.472 135.136 481.472 137.364V154H477.449V137.636C477.449 135.58 476.915 133.977 475.847 132.83C474.778 131.67 473.313 131.091 471.449 131.091C470.165 131.091 469.017 131.369 468.006 131.926C467.006 132.483 466.216 133.295 465.636 134.364C465.057 135.432 464.767 136.727 464.767 138.25ZM499.391 164.364C497.447 164.364 495.777 164.114 494.379 163.614C492.982 163.125 491.817 162.477 490.885 161.67C489.964 160.875 489.232 160.023 488.686 159.114L491.891 156.864C492.254 157.341 492.714 157.886 493.271 158.5C493.828 159.125 494.589 159.665 495.555 160.119C496.533 160.585 497.811 160.818 499.391 160.818C501.504 160.818 503.249 160.307 504.624 159.284C505.999 158.261 506.686 156.659 506.686 154.477V149.159H506.345C506.05 149.636 505.629 150.227 505.084 150.932C504.55 151.625 503.777 152.244 502.766 152.79C501.766 153.324 500.413 153.591 498.709 153.591C496.595 153.591 494.697 153.091 493.016 152.091C491.345 151.091 490.021 149.636 489.044 147.727C488.078 145.818 487.595 143.5 487.595 140.773C487.595 138.091 488.067 135.756 489.01 133.767C489.953 131.767 491.266 130.222 492.947 129.131C494.629 128.028 496.572 127.477 498.777 127.477C500.482 127.477 501.834 127.761 502.834 128.33C503.845 128.886 504.618 129.523 505.152 130.239C505.697 130.943 506.118 131.523 506.413 131.977H506.822V127.818H510.709V154.75C510.709 157 510.197 158.83 509.175 160.239C508.163 161.659 506.8 162.699 505.084 163.358C503.379 164.028 501.482 164.364 499.391 164.364ZM499.254 149.977C500.868 149.977 502.232 149.608 503.345 148.869C504.459 148.131 505.305 147.068 505.885 145.682C506.464 144.295 506.754 142.636 506.754 140.705C506.754 138.818 506.47 137.153 505.902 135.71C505.334 134.267 504.493 133.136 503.379 132.318C502.266 131.5 500.891 131.091 499.254 131.091C497.55 131.091 496.129 131.523 494.993 132.386C493.868 133.25 493.021 134.409 492.453 135.864C491.896 137.318 491.618 138.932 491.618 140.705C491.618 142.523 491.902 144.131 492.47 145.528C493.05 146.915 493.902 148.006 495.027 148.801C496.163 149.585 497.572 149.977 499.254 149.977ZM518.072 154V127.818H521.959V131.773H522.232C522.709 130.477 523.572 129.426 524.822 128.619C526.072 127.812 527.482 127.409 529.05 127.409C529.345 127.409 529.714 127.415 530.158 127.426C530.601 127.437 530.936 127.455 531.163 127.477V131.568C531.027 131.534 530.714 131.483 530.226 131.415C529.749 131.335 529.243 131.295 528.709 131.295C527.436 131.295 526.3 131.562 525.3 132.097C524.311 132.619 523.527 133.347 522.947 134.278C522.379 135.199 522.095 136.25 522.095 137.432V154H518.072ZM546.112 154.545C543.589 154.545 541.413 153.989 539.584 152.875C537.766 151.75 536.362 150.182 535.374 148.17C534.396 146.148 533.908 143.795 533.908 141.114C533.908 138.432 534.396 136.068 535.374 134.023C536.362 131.966 537.737 130.364 539.499 129.216C541.271 128.057 543.339 127.477 545.703 127.477C547.067 127.477 548.413 127.705 549.743 128.159C551.072 128.614 552.283 129.352 553.374 130.375C554.464 131.386 555.334 132.727 555.982 134.398C556.629 136.068 556.953 138.125 556.953 140.568V142.273H536.771V138.795H552.862C552.862 137.318 552.567 136 551.976 134.841C551.396 133.682 550.567 132.767 549.487 132.097C548.419 131.426 547.158 131.091 545.703 131.091C544.101 131.091 542.714 131.489 541.544 132.284C540.385 133.068 539.493 134.091 538.868 135.352C538.243 136.614 537.93 137.966 537.93 139.409V141.727C537.93 143.705 538.271 145.381 538.953 146.756C539.646 148.119 540.607 149.159 541.834 149.875C543.061 150.58 544.487 150.932 546.112 150.932C547.169 150.932 548.124 150.784 548.976 150.489C549.839 150.182 550.584 149.727 551.209 149.125C551.834 148.511 552.317 147.75 552.658 146.841L556.544 147.932C556.135 149.25 555.447 150.409 554.482 151.409C553.516 152.398 552.322 153.17 550.902 153.727C549.482 154.273 547.885 154.545 546.112 154.545ZM563.072 154V127.818H567.095V154H563.072ZM565.118 123.455C564.334 123.455 563.658 123.188 563.089 122.653C562.533 122.119 562.254 121.477 562.254 120.727C562.254 119.977 562.533 119.335 563.089 118.801C563.658 118.267 564.334 118 565.118 118C565.902 118 566.572 118.267 567.129 118.801C567.697 119.335 567.982 119.977 567.982 120.727C567.982 121.477 567.697 122.119 567.129 122.653C566.572 123.188 565.902 123.455 565.118 123.455ZM586.122 127.818V131.227H572.009V127.818H586.122ZM576.236 154V124.205C576.236 122.705 576.588 121.455 577.293 120.455C577.997 119.455 578.912 118.705 580.037 118.205C581.162 117.705 582.349 117.455 583.599 117.455C584.588 117.455 585.395 117.534 586.02 117.693C586.645 117.852 587.111 118 587.418 118.136L586.259 121.614C586.054 121.545 585.77 121.46 585.406 121.358C585.054 121.256 584.588 121.205 584.009 121.205C582.679 121.205 581.719 121.54 581.128 122.21C580.548 122.881 580.259 123.864 580.259 125.159V154H576.236ZM601.659 154.545C599.136 154.545 596.96 153.989 595.131 152.875C593.312 151.75 591.909 150.182 590.92 148.17C589.943 146.148 589.455 143.795 589.455 141.114C589.455 138.432 589.943 136.068 590.92 134.023C591.909 131.966 593.284 130.364 595.045 129.216C596.818 128.057 598.886 127.477 601.25 127.477C602.614 127.477 603.96 127.705 605.29 128.159C606.619 128.614 607.83 129.352 608.92 130.375C610.011 131.386 610.881 132.727 611.528 134.398C612.176 136.068 612.5 138.125 612.5 140.568V142.273H592.318V138.795H608.409C608.409 137.318 608.114 136 607.523 134.841C606.943 133.682 606.114 132.767 605.034 132.097C603.966 131.426 602.705 131.091 601.25 131.091C599.648 131.091 598.261 131.489 597.091 132.284C595.932 133.068 595.04 134.091 594.415 135.352C593.79 136.614 593.477 137.966 593.477 139.409V141.727C593.477 143.705 593.818 145.381 594.5 146.756C595.193 148.119 596.153 149.159 597.381 149.875C598.608 150.58 600.034 150.932 601.659 150.932C602.716 150.932 603.67 150.784 604.523 150.489C605.386 150.182 606.131 149.727 606.756 149.125C607.381 148.511 607.864 147.75 608.205 146.841L612.091 147.932C611.682 149.25 610.994 150.409 610.028 151.409C609.063 152.398 607.869 153.17 606.449 153.727C605.028 154.273 603.432 154.545 601.659 154.545ZM618.619 154V127.818H622.506V131.773H622.778C623.256 130.477 624.119 129.426 625.369 128.619C626.619 127.812 628.028 127.409 629.597 127.409C629.892 127.409 630.261 127.415 630.705 127.426C631.148 127.437 631.483 127.455 631.71 127.477V131.568C631.574 131.534 631.261 131.483 630.773 131.415C630.295 131.335 629.79 131.295 629.256 131.295C627.983 131.295 626.847 131.562 625.847 132.097C624.858 132.619 624.074 133.347 623.494 134.278C622.926 135.199 622.642 136.25 622.642 137.432V154H618.619ZM649.229 154V150.932L664.092 131.841V131.568H649.706V127.818H669.274V131.023L654.82 149.977V150.25H669.751V154H649.229ZM692.447 143.295V127.818H696.47V154H692.447V149.568H692.175C691.561 150.898 690.607 152.028 689.311 152.96C688.016 153.881 686.379 154.341 684.402 154.341C682.766 154.341 681.311 153.983 680.038 153.267C678.766 152.54 677.766 151.449 677.038 149.994C676.311 148.528 675.947 146.682 675.947 144.455V127.818H679.97V144.182C679.97 146.091 680.504 147.614 681.572 148.75C682.652 149.886 684.027 150.455 685.697 150.455C686.697 150.455 687.714 150.199 688.749 149.688C689.794 149.176 690.669 148.392 691.374 147.335C692.089 146.278 692.447 144.932 692.447 143.295ZM714.406 164.364C712.463 164.364 710.793 164.114 709.395 163.614C707.997 163.125 706.832 162.477 705.901 161.67C704.98 160.875 704.247 160.023 703.702 159.114L706.906 156.864C707.27 157.341 707.73 157.886 708.287 158.5C708.844 159.125 709.605 159.665 710.571 160.119C711.548 160.585 712.827 160.818 714.406 160.818C716.52 160.818 718.264 160.307 719.639 159.284C721.014 158.261 721.702 156.659 721.702 154.477V149.159H721.361C721.065 149.636 720.645 150.227 720.099 150.932C719.565 151.625 718.793 152.244 717.781 152.79C716.781 153.324 715.429 153.591 713.724 153.591C711.611 153.591 709.713 153.091 708.031 152.091C706.361 151.091 705.037 149.636 704.06 147.727C703.094 145.818 702.611 143.5 702.611 140.773C702.611 138.091 703.082 135.756 704.026 133.767C704.969 131.767 706.281 130.222 707.963 129.131C709.645 128.028 711.588 127.477 713.793 127.477C715.497 127.477 716.849 127.761 717.849 128.33C718.861 128.886 719.634 129.523 720.168 130.239C720.713 130.943 721.134 131.523 721.429 131.977H721.838V127.818H725.724V154.75C725.724 157 725.213 158.83 724.19 160.239C723.179 161.659 721.815 162.699 720.099 163.358C718.395 164.028 716.497 164.364 714.406 164.364ZM714.27 149.977C715.884 149.977 717.247 149.608 718.361 148.869C719.474 148.131 720.321 147.068 720.901 145.682C721.48 144.295 721.77 142.636 721.77 140.705C721.77 138.818 721.486 137.153 720.918 135.71C720.349 134.267 719.509 133.136 718.395 132.318C717.281 131.5 715.906 131.091 714.27 131.091C712.565 131.091 711.145 131.523 710.009 132.386C708.884 133.25 708.037 134.409 707.469 135.864C706.912 137.318 706.634 138.932 706.634 140.705C706.634 142.523 706.918 144.131 707.486 145.528C708.065 146.915 708.918 148.006 710.043 148.801C711.179 149.585 712.588 149.977 714.27 149.977ZM733.088 154V127.818H736.974V131.773H737.247C737.724 130.477 738.588 129.426 739.838 128.619C741.088 127.812 742.497 127.409 744.065 127.409C744.361 127.409 744.73 127.415 745.173 127.426C745.616 127.437 745.952 127.455 746.179 127.477V131.568C746.043 131.534 745.73 131.483 745.241 131.415C744.764 131.335 744.259 131.295 743.724 131.295C742.452 131.295 741.315 131.562 740.315 132.097C739.327 132.619 738.543 133.347 737.963 134.278C737.395 135.199 737.111 136.25 737.111 137.432V154H733.088ZM750.947 154V127.818H754.97V154H750.947ZM752.993 123.455C752.209 123.455 751.533 123.188 750.964 122.653C750.408 122.119 750.129 121.477 750.129 120.727C750.129 119.977 750.408 119.335 750.964 118.801C751.533 118.267 752.209 118 752.993 118C753.777 118 754.447 118.267 755.004 118.801C755.572 119.335 755.857 119.977 755.857 120.727C755.857 121.477 755.572 122.119 755.004 122.653C754.447 123.188 753.777 123.455 752.993 123.455ZM773.997 127.818V131.227H759.884V127.818H773.997ZM764.111 154V124.205C764.111 122.705 764.463 121.455 765.168 120.455C765.872 119.455 766.787 118.705 767.912 118.205C769.037 117.705 770.224 117.455 771.474 117.455C772.463 117.455 773.27 117.534 773.895 117.693C774.52 117.852 774.986 118 775.293 118.136L774.134 121.614C773.929 121.545 773.645 121.46 773.281 121.358C772.929 121.256 772.463 121.205 771.884 121.205C770.554 121.205 769.594 121.54 769.003 122.21C768.423 122.881 768.134 123.864 768.134 125.159V154H764.111ZM791.294 127.818V131.227H777.18V127.818H791.294ZM781.408 154V124.205C781.408 122.705 781.76 121.455 782.464 120.455C783.169 119.455 784.084 118.705 785.209 118.205C786.334 117.705 787.521 117.455 788.771 117.455C789.76 117.455 790.567 117.534 791.192 117.693C791.817 117.852 792.283 118 792.589 118.136L791.43 121.614C791.226 121.545 790.942 121.46 790.578 121.358C790.226 121.256 789.76 121.205 789.18 121.205C787.851 121.205 786.891 121.54 786.3 122.21C785.72 122.881 785.43 123.864 785.43 125.159V154H781.408ZM818.136 154.614C816.477 154.614 814.972 154.301 813.619 153.676C812.267 153.04 811.193 152.125 810.398 150.932C809.602 149.727 809.205 148.273 809.205 146.568C809.205 145.068 809.5 143.852 810.091 142.92C810.682 141.977 811.472 141.239 812.46 140.705C813.449 140.17 814.54 139.773 815.733 139.511C816.938 139.239 818.148 139.023 819.364 138.864C820.955 138.659 822.244 138.506 823.233 138.403C824.233 138.29 824.96 138.102 825.415 137.841C825.881 137.58 826.114 137.125 826.114 136.477V136.341C826.114 134.659 825.653 133.352 824.733 132.42C823.824 131.489 822.443 131.023 820.591 131.023C818.67 131.023 817.165 131.443 816.074 132.284C814.983 133.125 814.216 134.023 813.773 134.977L809.955 133.614C810.636 132.023 811.545 130.784 812.682 129.898C813.83 129 815.08 128.375 816.432 128.023C817.795 127.659 819.136 127.477 820.455 127.477C821.295 127.477 822.261 127.58 823.352 127.784C824.455 127.977 825.517 128.381 826.54 128.994C827.574 129.608 828.432 130.534 829.114 131.773C829.795 133.011 830.136 134.67 830.136 136.75V154H826.114V150.455H825.909C825.636 151.023 825.182 151.631 824.545 152.278C823.909 152.926 823.063 153.477 822.006 153.932C820.949 154.386 819.659 154.614 818.136 154.614ZM818.75 151C820.341 151 821.682 150.688 822.773 150.062C823.875 149.438 824.705 148.631 825.261 147.642C825.83 146.653 826.114 145.614 826.114 144.523V140.841C825.943 141.045 825.568 141.233 824.989 141.403C824.42 141.562 823.761 141.705 823.011 141.83C822.273 141.943 821.551 142.045 820.847 142.136C820.153 142.216 819.591 142.284 819.159 142.341C818.114 142.477 817.136 142.699 816.227 143.006C815.33 143.301 814.602 143.75 814.045 144.352C813.5 144.943 813.227 145.75 813.227 146.773C813.227 148.17 813.744 149.227 814.778 149.943C815.824 150.648 817.148 151 818.75 151ZM853.979 143.295V127.818H858.001V154H853.979V149.568H853.706C853.092 150.898 852.138 152.028 850.842 152.96C849.547 153.881 847.911 154.341 845.933 154.341C844.297 154.341 842.842 153.983 841.57 153.267C840.297 152.54 839.297 151.449 838.57 149.994C837.842 148.528 837.479 146.682 837.479 144.455V127.818H841.501V144.182C841.501 146.091 842.036 147.614 843.104 148.75C844.183 149.886 845.558 150.455 847.229 150.455C848.229 150.455 849.246 150.199 850.28 149.688C851.325 149.176 852.2 148.392 852.905 147.335C853.621 146.278 853.979 144.932 853.979 143.295ZM877.028 127.818V131.227H862.915V127.818H877.028ZM867.142 154V124.205C867.142 122.705 867.494 121.455 868.199 120.455C868.903 119.455 869.818 118.705 870.943 118.205C872.068 117.705 873.256 117.455 874.506 117.455C875.494 117.455 876.301 117.534 876.926 117.693C877.551 117.852 878.017 118 878.324 118.136L877.165 121.614C876.96 121.545 876.676 121.46 876.312 121.358C875.96 121.256 875.494 121.205 874.915 121.205C873.585 121.205 872.625 121.54 872.034 122.21C871.455 122.881 871.165 123.864 871.165 125.159V154H867.142ZM906.053 154.545C903.871 154.545 901.945 153.994 900.274 152.892C898.604 151.778 897.297 150.21 896.354 148.188C895.411 146.153 894.939 143.75 894.939 140.977C894.939 138.227 895.411 135.841 896.354 133.818C897.297 131.795 898.609 130.233 900.291 129.131C901.973 128.028 903.916 127.477 906.121 127.477C907.825 127.477 909.172 127.761 910.161 128.33C911.161 128.886 911.922 129.523 912.445 130.239C912.979 130.943 913.393 131.523 913.689 131.977H914.03V119.091H918.053V154H914.166V149.977H913.689C913.393 150.455 912.973 151.057 912.428 151.784C911.882 152.5 911.104 153.142 910.092 153.71C909.081 154.267 907.734 154.545 906.053 154.545ZM906.598 150.932C908.212 150.932 909.575 150.511 910.689 149.67C911.803 148.818 912.649 147.642 913.229 146.142C913.808 144.631 914.098 142.886 914.098 140.909C914.098 138.955 913.814 137.244 913.246 135.778C912.678 134.301 911.837 133.153 910.723 132.335C909.609 131.506 908.234 131.091 906.598 131.091C904.893 131.091 903.473 131.528 902.337 132.403C901.212 133.267 900.365 134.443 899.797 135.932C899.24 137.409 898.962 139.068 898.962 140.909C898.962 142.773 899.246 144.466 899.814 145.989C900.393 147.5 901.246 148.705 902.371 149.602C903.507 150.489 904.916 150.932 906.598 150.932ZM936.956 154.545C934.433 154.545 932.257 153.989 930.428 152.875C928.609 151.75 927.206 150.182 926.217 148.17C925.24 146.148 924.751 143.795 924.751 141.114C924.751 138.432 925.24 136.068 926.217 134.023C927.206 131.966 928.581 130.364 930.342 129.216C932.115 128.057 934.183 127.477 936.547 127.477C937.911 127.477 939.257 127.705 940.587 128.159C941.916 128.614 943.126 129.352 944.217 130.375C945.308 131.386 946.178 132.727 946.825 134.398C947.473 136.068 947.797 138.125 947.797 140.568V142.273H927.615V138.795H943.706C943.706 137.318 943.411 136 942.82 134.841C942.24 133.682 941.411 132.767 940.331 132.097C939.263 131.426 938.001 131.091 936.547 131.091C934.945 131.091 933.558 131.489 932.388 132.284C931.229 133.068 930.337 134.091 929.712 135.352C929.087 136.614 928.774 137.966 928.774 139.409V141.727C928.774 143.705 929.115 145.381 929.797 146.756C930.49 148.119 931.45 149.159 932.678 149.875C933.905 150.58 935.331 150.932 936.956 150.932C938.013 150.932 938.967 150.784 939.82 150.489C940.683 150.182 941.428 149.727 942.053 149.125C942.678 148.511 943.161 147.75 943.501 146.841L947.388 147.932C946.979 149.25 946.291 150.409 945.325 151.409C944.359 152.398 943.166 153.17 941.746 153.727C940.325 154.273 938.729 154.545 936.956 154.545ZM953.916 154V127.818H957.939V154H953.916ZM955.962 123.455C955.178 123.455 954.501 123.188 953.933 122.653C953.376 122.119 953.098 121.477 953.098 120.727C953.098 119.977 953.376 119.335 953.933 118.801C954.501 118.267 955.178 118 955.962 118C956.746 118 957.416 118.267 957.973 118.801C958.541 119.335 958.825 119.977 958.825 120.727C958.825 121.477 958.541 122.119 957.973 122.653C957.416 123.188 956.746 123.455 955.962 123.455ZM969.33 138.25V154H965.307V127.818H969.193V131.909H969.534C970.148 130.58 971.08 129.511 972.33 128.705C973.58 127.886 975.193 127.477 977.17 127.477C978.943 127.477 980.494 127.841 981.824 128.568C983.153 129.284 984.188 130.375 984.926 131.841C985.665 133.295 986.034 135.136 986.034 137.364V154H982.011V137.636C982.011 135.58 981.477 133.977 980.409 132.83C979.341 131.67 977.875 131.091 976.011 131.091C974.727 131.091 973.58 131.369 972.568 131.926C971.568 132.483 970.778 133.295 970.199 134.364C969.619 135.432 969.33 136.727 969.33 138.25ZM207.227 212V177.091H211.455V194.409H211.864L227.545 177.091H233.068L218.409 192.841L233.068 212H227.955L215.818 195.773L211.455 200.682V212H207.227ZM246.709 212.545C244.345 212.545 242.271 211.983 240.487 210.858C238.714 209.733 237.328 208.159 236.328 206.136C235.339 204.114 234.845 201.75 234.845 199.045C234.845 196.318 235.339 193.937 236.328 191.903C237.328 189.869 238.714 188.29 240.487 187.165C242.271 186.04 244.345 185.477 246.709 185.477C249.072 185.477 251.141 186.04 252.913 187.165C254.697 188.29 256.084 189.869 257.072 191.903C258.072 193.937 258.572 196.318 258.572 199.045C258.572 201.75 258.072 204.114 257.072 206.136C256.084 208.159 254.697 209.733 252.913 210.858C251.141 211.983 249.072 212.545 246.709 212.545ZM246.709 208.932C248.504 208.932 249.982 208.472 251.141 207.551C252.3 206.631 253.158 205.42 253.714 203.92C254.271 202.42 254.55 200.795 254.55 199.045C254.55 197.295 254.271 195.665 253.714 194.153C253.158 192.642 252.3 191.42 251.141 190.489C249.982 189.557 248.504 189.091 246.709 189.091C244.913 189.091 243.436 189.557 242.277 190.489C241.118 191.42 240.26 192.642 239.703 194.153C239.146 195.665 238.868 197.295 238.868 199.045C238.868 200.795 239.146 202.42 239.703 203.92C240.26 205.42 241.118 206.631 242.277 207.551C243.436 208.472 244.913 208.932 246.709 208.932ZM268.736 196.25V212H264.713V185.818H268.599V189.909H268.94C269.554 188.58 270.486 187.511 271.736 186.705C272.986 185.886 274.599 185.477 276.577 185.477C278.349 185.477 279.901 185.841 281.23 186.568C282.56 187.284 283.594 188.375 284.332 189.841C285.071 191.295 285.44 193.136 285.44 195.364V212H281.418V195.636C281.418 193.58 280.884 191.977 279.815 190.83C278.747 189.67 277.281 189.091 275.418 189.091C274.134 189.091 272.986 189.369 271.974 189.926C270.974 190.483 270.185 191.295 269.605 192.364C269.026 193.432 268.736 194.727 268.736 196.25ZM304.178 185.818V189.227H290.609V185.818H304.178ZM294.564 179.545H298.587V204.5C298.587 205.636 298.751 206.489 299.081 207.057C299.422 207.614 299.854 207.989 300.376 208.182C300.911 208.364 301.473 208.455 302.064 208.455C302.507 208.455 302.871 208.432 303.155 208.386C303.439 208.33 303.666 208.284 303.837 208.25L304.655 211.864C304.382 211.966 304.001 212.068 303.513 212.17C303.024 212.284 302.405 212.341 301.655 212.341C300.518 212.341 299.405 212.097 298.314 211.608C297.234 211.119 296.337 210.375 295.621 209.375C294.916 208.375 294.564 207.114 294.564 205.591V179.545ZM320.584 212.545C318.22 212.545 316.146 211.983 314.362 210.858C312.589 209.733 311.203 208.159 310.203 206.136C309.214 204.114 308.72 201.75 308.72 199.045C308.72 196.318 309.214 193.937 310.203 191.903C311.203 189.869 312.589 188.29 314.362 187.165C316.146 186.04 318.22 185.477 320.584 185.477C322.947 185.477 325.016 186.04 326.788 187.165C328.572 188.29 329.959 189.869 330.947 191.903C331.947 193.937 332.447 196.318 332.447 199.045C332.447 201.75 331.947 204.114 330.947 206.136C329.959 208.159 328.572 209.733 326.788 210.858C325.016 211.983 322.947 212.545 320.584 212.545ZM320.584 208.932C322.379 208.932 323.857 208.472 325.016 207.551C326.175 206.631 327.033 205.42 327.589 203.92C328.146 202.42 328.425 200.795 328.425 199.045C328.425 197.295 328.146 195.665 327.589 194.153C327.033 192.642 326.175 191.42 325.016 190.489C323.857 189.557 322.379 189.091 320.584 189.091C318.788 189.091 317.311 189.557 316.152 190.489C314.993 191.42 314.135 192.642 313.578 194.153C313.021 195.665 312.743 197.295 312.743 199.045C312.743 200.795 313.021 202.42 313.578 203.92C314.135 205.42 314.993 206.631 316.152 207.551C317.311 208.472 318.788 208.932 320.584 208.932ZM352.634 212V177.091H356.656V189.977H356.997C357.293 189.523 357.702 188.943 358.224 188.239C358.759 187.523 359.52 186.886 360.509 186.33C361.509 185.761 362.861 185.477 364.565 185.477C366.77 185.477 368.713 186.028 370.395 187.131C372.077 188.233 373.389 189.795 374.332 191.818C375.276 193.841 375.747 196.227 375.747 198.977C375.747 201.75 375.276 204.153 374.332 206.188C373.389 208.21 372.082 209.778 370.412 210.892C368.741 211.994 366.815 212.545 364.634 212.545C362.952 212.545 361.605 212.267 360.594 211.71C359.582 211.142 358.804 210.5 358.259 209.784C357.713 209.057 357.293 208.455 356.997 207.977H356.52V212H352.634ZM356.588 198.909C356.588 200.886 356.878 202.631 357.457 204.142C358.037 205.642 358.884 206.818 359.997 207.67C361.111 208.511 362.474 208.932 364.088 208.932C365.77 208.932 367.173 208.489 368.298 207.602C369.435 206.705 370.287 205.5 370.855 203.989C371.435 202.466 371.724 200.773 371.724 198.909C371.724 197.068 371.44 195.409 370.872 193.932C370.315 192.443 369.469 191.267 368.332 190.403C367.207 189.528 365.793 189.091 364.088 189.091C362.452 189.091 361.077 189.506 359.963 190.335C358.849 191.153 358.009 192.301 357.44 193.778C356.872 195.244 356.588 196.955 356.588 198.909ZM392.878 212.545C390.355 212.545 388.179 211.989 386.349 210.875C384.531 209.75 383.128 208.182 382.139 206.17C381.162 204.148 380.673 201.795 380.673 199.114C380.673 196.432 381.162 194.068 382.139 192.023C383.128 189.966 384.503 188.364 386.264 187.216C388.037 186.057 390.105 185.477 392.469 185.477C393.832 185.477 395.179 185.705 396.509 186.159C397.838 186.614 399.048 187.352 400.139 188.375C401.23 189.386 402.099 190.727 402.747 192.398C403.395 194.068 403.719 196.125 403.719 198.568V200.273H383.537V196.795H399.628C399.628 195.318 399.332 194 398.741 192.841C398.162 191.682 397.332 190.767 396.253 190.097C395.185 189.426 393.923 189.091 392.469 189.091C390.866 189.091 389.48 189.489 388.31 190.284C387.151 191.068 386.259 192.091 385.634 193.352C385.009 194.614 384.696 195.966 384.696 197.409V199.727C384.696 201.705 385.037 203.381 385.719 204.756C386.412 206.119 387.372 207.159 388.599 207.875C389.827 208.58 391.253 208.932 392.878 208.932C393.935 208.932 394.889 208.784 395.741 208.489C396.605 208.182 397.349 207.727 397.974 207.125C398.599 206.511 399.082 205.75 399.423 204.841L403.31 205.932C402.901 207.25 402.213 208.409 401.247 209.409C400.281 210.398 399.088 211.17 397.668 211.727C396.247 212.273 394.651 212.545 392.878 212.545ZM413.588 202.455L413.52 197.477H414.338L425.793 185.818H430.77L418.565 198.159H418.224L413.588 202.455ZM409.838 212V177.091H413.861V212H409.838ZM426.474 212L416.247 199.045L419.111 196.25L431.588 212H426.474ZM445.506 212.545C443.142 212.545 441.068 211.983 439.284 210.858C437.511 209.733 436.125 208.159 435.125 206.136C434.136 204.114 433.642 201.75 433.642 199.045C433.642 196.318 434.136 193.937 435.125 191.903C436.125 189.869 437.511 188.29 439.284 187.165C441.068 186.04 443.142 185.477 445.506 185.477C447.869 185.477 449.938 186.04 451.71 187.165C453.494 188.29 454.881 189.869 455.869 191.903C456.869 193.937 457.369 196.318 457.369 199.045C457.369 201.75 456.869 204.114 455.869 206.136C454.881 208.159 453.494 209.733 451.71 210.858C449.938 211.983 447.869 212.545 445.506 212.545ZM445.506 208.932C447.301 208.932 448.778 208.472 449.938 207.551C451.097 206.631 451.955 205.42 452.511 203.92C453.068 202.42 453.347 200.795 453.347 199.045C453.347 197.295 453.068 195.665 452.511 194.153C451.955 192.642 451.097 191.42 449.938 190.489C448.778 189.557 447.301 189.091 445.506 189.091C443.71 189.091 442.233 189.557 441.074 190.489C439.915 191.42 439.057 192.642 438.5 194.153C437.943 195.665 437.665 197.295 437.665 199.045C437.665 200.795 437.943 202.42 438.5 203.92C439.057 205.42 439.915 206.631 441.074 207.551C442.233 208.472 443.71 208.932 445.506 208.932ZM463.51 212V185.818H467.396V189.909H467.737C468.283 188.511 469.163 187.426 470.379 186.653C471.595 185.869 473.055 185.477 474.76 185.477C476.487 185.477 477.925 185.869 479.072 186.653C480.232 187.426 481.135 188.511 481.783 189.909H482.055C482.726 188.557 483.732 187.483 485.072 186.688C486.413 185.881 488.021 185.477 489.896 185.477C492.237 185.477 494.152 186.21 495.641 187.676C497.129 189.131 497.874 191.398 497.874 194.477V212H493.851V194.477C493.851 192.545 493.322 191.165 492.266 190.335C491.209 189.506 489.964 189.091 488.533 189.091C486.692 189.091 485.266 189.648 484.254 190.761C483.243 191.864 482.737 193.261 482.737 194.955V212H478.646V194.068C478.646 192.58 478.163 191.381 477.197 190.472C476.232 189.551 474.987 189.091 473.464 189.091C472.419 189.091 471.442 189.369 470.533 189.926C469.635 190.483 468.908 191.256 468.351 192.244C467.805 193.222 467.533 194.352 467.533 195.636V212H463.51ZM505.229 212V185.818H509.115V189.909H509.456C510.001 188.511 510.882 187.426 512.098 186.653C513.314 185.869 514.774 185.477 516.479 185.477C518.206 185.477 519.643 185.869 520.791 186.653C521.95 187.426 522.854 188.511 523.501 189.909H523.774C524.445 188.557 525.45 187.483 526.791 186.688C528.132 185.881 529.74 185.477 531.615 185.477C533.956 185.477 535.871 186.21 537.359 187.676C538.848 189.131 539.592 191.398 539.592 194.477V212H535.57V194.477C535.57 192.545 535.041 191.165 533.984 190.335C532.928 189.506 531.683 189.091 530.251 189.091C528.411 189.091 526.984 189.648 525.973 190.761C524.962 191.864 524.456 193.261 524.456 194.955V212H520.365V194.068C520.365 192.58 519.882 191.381 518.916 190.472C517.95 189.551 516.706 189.091 515.183 189.091C514.138 189.091 513.161 189.369 512.251 189.926C511.354 190.483 510.626 191.256 510.07 192.244C509.524 193.222 509.251 194.352 509.251 195.636V212H505.229ZM558.334 185.818V189.227H544.766V185.818H558.334ZM548.72 179.545H552.743V204.5C552.743 205.636 552.908 206.489 553.237 207.057C553.578 207.614 554.01 207.989 554.533 208.182C555.067 208.364 555.629 208.455 556.22 208.455C556.663 208.455 557.027 208.432 557.311 208.386C557.595 208.33 557.822 208.284 557.993 208.25L558.811 211.864C558.538 211.966 558.158 212.068 557.669 212.17C557.18 212.284 556.561 212.341 555.811 212.341C554.675 212.341 553.561 212.097 552.47 211.608C551.391 211.119 550.493 210.375 549.777 209.375C549.072 208.375 548.72 207.114 548.72 205.591V179.545ZM570.385 207.227L570.112 209.068C569.919 210.364 569.624 211.75 569.226 213.227C568.839 214.705 568.436 216.097 568.016 217.403C567.595 218.71 567.249 219.75 566.976 220.523H563.908C564.055 219.795 564.249 218.835 564.487 217.642C564.726 216.449 564.964 215.114 565.203 213.636C565.453 212.17 565.658 210.67 565.817 209.136L566.021 207.227H570.385ZM595.088 202.455L595.02 197.477H595.838L607.293 185.818H612.27L600.065 198.159H599.724L595.088 202.455ZM591.338 212V177.091H595.361V212H591.338ZM607.974 212L597.747 199.045L600.611 196.25L613.088 212H607.974ZM625.152 212.614C623.493 212.614 621.987 212.301 620.635 211.676C619.283 211.04 618.209 210.125 617.413 208.932C616.618 207.727 616.22 206.273 616.22 204.568C616.22 203.068 616.516 201.852 617.107 200.92C617.697 199.977 618.487 199.239 619.476 198.705C620.464 198.17 621.555 197.773 622.749 197.511C623.953 197.239 625.163 197.023 626.379 196.864C627.97 196.659 629.26 196.506 630.249 196.403C631.249 196.29 631.976 196.102 632.43 195.841C632.896 195.58 633.129 195.125 633.129 194.477V194.341C633.129 192.659 632.669 191.352 631.749 190.42C630.839 189.489 629.459 189.023 627.607 189.023C625.686 189.023 624.18 189.443 623.089 190.284C621.999 191.125 621.232 192.023 620.788 192.977L616.97 191.614C617.652 190.023 618.561 188.784 619.697 187.898C620.845 187 622.095 186.375 623.447 186.023C624.811 185.659 626.152 185.477 627.47 185.477C628.311 185.477 629.277 185.58 630.368 185.784C631.47 185.977 632.533 186.381 633.555 186.994C634.589 187.608 635.447 188.534 636.129 189.773C636.811 191.011 637.152 192.67 637.152 194.75V212H633.129V208.455H632.925C632.652 209.023 632.197 209.631 631.561 210.278C630.925 210.926 630.078 211.477 629.021 211.932C627.964 212.386 626.675 212.614 625.152 212.614ZM625.766 209C627.357 209 628.697 208.688 629.788 208.062C630.891 207.438 631.72 206.631 632.277 205.642C632.845 204.653 633.129 203.614 633.129 202.523V198.841C632.959 199.045 632.584 199.233 632.004 199.403C631.436 199.562 630.777 199.705 630.027 199.83C629.288 199.943 628.567 200.045 627.862 200.136C627.169 200.216 626.607 200.284 626.175 200.341C625.129 200.477 624.152 200.699 623.243 201.006C622.345 201.301 621.618 201.75 621.061 202.352C620.516 202.943 620.243 203.75 620.243 204.773C620.243 206.17 620.76 207.227 621.794 207.943C622.839 208.648 624.163 209 625.766 209ZM648.517 196.25V212H644.494V185.818H648.381V189.909H648.722C649.335 188.58 650.267 187.511 651.517 186.705C652.767 185.886 654.381 185.477 656.358 185.477C658.131 185.477 659.682 185.841 661.011 186.568C662.341 187.284 663.375 188.375 664.114 189.841C664.852 191.295 665.222 193.136 665.222 195.364V212H661.199V195.636C661.199 193.58 660.665 191.977 659.597 190.83C658.528 189.67 657.063 189.091 655.199 189.091C653.915 189.091 652.767 189.369 651.756 189.926C650.756 190.483 649.966 191.295 649.386 192.364C648.807 193.432 648.517 194.727 648.517 196.25ZM676.595 196.25V212H672.572V185.818H676.459V189.909H676.8C677.413 188.58 678.345 187.511 679.595 186.705C680.845 185.886 682.459 185.477 684.436 185.477C686.209 185.477 687.76 185.841 689.089 186.568C690.419 187.284 691.453 188.375 692.192 189.841C692.93 191.295 693.3 193.136 693.3 195.364V212H689.277V195.636C689.277 193.58 688.743 191.977 687.675 190.83C686.607 189.67 685.141 189.091 683.277 189.091C681.993 189.091 680.845 189.369 679.834 189.926C678.834 190.483 678.044 191.295 677.464 192.364C676.885 193.432 676.595 194.727 676.595 196.25ZM725.128 212.545C722.605 212.545 720.429 211.989 718.599 210.875C716.781 209.75 715.378 208.182 714.389 206.17C713.412 204.148 712.923 201.795 712.923 199.114C712.923 196.432 713.412 194.068 714.389 192.023C715.378 189.966 716.753 188.364 718.514 187.216C720.287 186.057 722.355 185.477 724.719 185.477C726.082 185.477 727.429 185.705 728.759 186.159C730.088 186.614 731.298 187.352 732.389 188.375C733.48 189.386 734.349 190.727 734.997 192.398C735.645 194.068 735.969 196.125 735.969 198.568V200.273H715.787V196.795H731.878C731.878 195.318 731.582 194 730.991 192.841C730.412 191.682 729.582 190.767 728.503 190.097C727.435 189.426 726.173 189.091 724.719 189.091C723.116 189.091 721.73 189.489 720.56 190.284C719.401 191.068 718.509 192.091 717.884 193.352C717.259 194.614 716.946 195.966 716.946 197.409V199.727C716.946 201.705 717.287 203.381 717.969 204.756C718.662 206.119 719.622 207.159 720.849 207.875C722.077 208.58 723.503 208.932 725.128 208.932C726.185 208.932 727.139 208.784 727.991 208.489C728.855 208.182 729.599 207.727 730.224 207.125C730.849 206.511 731.332 205.75 731.673 204.841L735.56 205.932C735.151 207.25 734.463 208.409 733.497 209.409C732.531 210.398 731.338 211.17 729.918 211.727C728.497 212.273 726.901 212.545 725.128 212.545ZM742.088 212V185.818H745.974V189.773H746.247C746.724 188.477 747.588 187.426 748.838 186.619C750.088 185.812 751.497 185.409 753.065 185.409C753.361 185.409 753.73 185.415 754.173 185.426C754.616 185.437 754.952 185.455 755.179 185.477V189.568C755.043 189.534 754.73 189.483 754.241 189.415C753.764 189.335 753.259 189.295 752.724 189.295C751.452 189.295 750.315 189.562 749.315 190.097C748.327 190.619 747.543 191.347 746.963 192.278C746.395 193.199 746.111 194.25 746.111 195.432V212H742.088ZM783.334 212.545C781.152 212.545 779.226 211.994 777.555 210.892C775.885 209.778 774.578 208.21 773.635 206.188C772.692 204.153 772.22 201.75 772.22 198.977C772.22 196.227 772.692 193.841 773.635 191.818C774.578 189.795 775.891 188.233 777.572 187.131C779.254 186.028 781.197 185.477 783.402 185.477C785.107 185.477 786.453 185.761 787.442 186.33C788.442 186.886 789.203 187.523 789.726 188.239C790.26 188.943 790.675 189.523 790.97 189.977H791.311V177.091H795.334V212H791.447V207.977H790.97C790.675 208.455 790.254 209.057 789.709 209.784C789.163 210.5 788.385 211.142 787.374 211.71C786.362 212.267 785.016 212.545 783.334 212.545ZM783.879 208.932C785.493 208.932 786.857 208.511 787.97 207.67C789.084 206.818 789.93 205.642 790.51 204.142C791.089 202.631 791.379 200.886 791.379 198.909C791.379 196.955 791.095 195.244 790.527 193.778C789.959 192.301 789.118 191.153 788.004 190.335C786.891 189.506 785.516 189.091 783.879 189.091C782.175 189.091 780.754 189.528 779.618 190.403C778.493 191.267 777.646 192.443 777.078 193.932C776.521 195.409 776.243 197.068 776.243 198.909C776.243 200.773 776.527 202.466 777.095 203.989C777.675 205.5 778.527 206.705 779.652 207.602C780.788 208.489 782.197 208.932 783.879 208.932ZM803.26 212V185.818H807.283V212H803.26ZM805.305 181.455C804.521 181.455 803.845 181.188 803.277 180.653C802.72 180.119 802.442 179.477 802.442 178.727C802.442 177.977 802.72 177.335 803.277 176.801C803.845 176.267 804.521 176 805.305 176C806.089 176 806.76 176.267 807.317 176.801C807.885 177.335 808.169 177.977 808.169 178.727C808.169 179.477 807.885 180.119 807.317 180.653C806.76 181.188 806.089 181.455 805.305 181.455ZM814.651 212V185.818H818.537V189.773H818.81C819.287 188.477 820.151 187.426 821.401 186.619C822.651 185.812 824.06 185.409 825.628 185.409C825.923 185.409 826.293 185.415 826.736 185.426C827.179 185.437 827.514 185.455 827.741 185.477V189.568C827.605 189.534 827.293 189.483 826.804 189.415C826.327 189.335 825.821 189.295 825.287 189.295C824.014 189.295 822.878 189.562 821.878 190.097C820.889 190.619 820.105 191.347 819.526 192.278C818.957 193.199 818.673 194.25 818.673 195.432V212H814.651ZM217.659 270.545C215.136 270.545 212.96 269.989 211.131 268.875C209.312 267.75 207.909 266.182 206.92 264.17C205.943 262.148 205.455 259.795 205.455 257.114C205.455 254.432 205.943 252.068 206.92 250.023C207.909 247.966 209.284 246.364 211.045 245.216C212.818 244.057 214.886 243.477 217.25 243.477C218.614 243.477 219.96 243.705 221.29 244.159C222.619 244.614 223.83 245.352 224.92 246.375C226.011 247.386 226.881 248.727 227.528 250.398C228.176 252.068 228.5 254.125 228.5 256.568V258.273H208.318V254.795H224.409C224.409 253.318 224.114 252 223.523 250.841C222.943 249.682 222.114 248.767 221.034 248.097C219.966 247.426 218.705 247.091 217.25 247.091C215.648 247.091 214.261 247.489 213.091 248.284C211.932 249.068 211.04 250.091 210.415 251.352C209.79 252.614 209.477 253.966 209.477 255.409V257.727C209.477 259.705 209.818 261.381 210.5 262.756C211.193 264.119 212.153 265.159 213.381 265.875C214.608 266.58 216.034 266.932 217.659 266.932C218.716 266.932 219.67 266.784 220.523 266.489C221.386 266.182 222.131 265.727 222.756 265.125C223.381 264.511 223.864 263.75 224.205 262.841L228.091 263.932C227.682 265.25 226.994 266.409 226.028 267.409C225.063 268.398 223.869 269.17 222.449 269.727C221.028 270.273 219.432 270.545 217.659 270.545ZM234.619 270V243.818H238.506V247.773H238.778C239.256 246.477 240.119 245.426 241.369 244.619C242.619 243.812 244.028 243.409 245.597 243.409C245.892 243.409 246.261 243.415 246.705 243.426C247.148 243.437 247.483 243.455 247.71 243.477V247.568C247.574 247.534 247.261 247.483 246.773 247.415C246.295 247.335 245.79 247.295 245.256 247.295C243.983 247.295 242.847 247.562 241.847 248.097C240.858 248.619 240.074 249.347 239.494 250.278C238.926 251.199 238.642 252.25 238.642 253.432V270H234.619ZM256.501 254.25V270H252.479V243.818H256.365V247.909H256.706C257.32 246.58 258.251 245.511 259.501 244.705C260.751 243.886 262.365 243.477 264.342 243.477C266.115 243.477 267.666 243.841 268.996 244.568C270.325 245.284 271.359 246.375 272.098 247.841C272.837 249.295 273.206 251.136 273.206 253.364V270H269.183V253.636C269.183 251.58 268.649 249.977 267.581 248.83C266.513 247.67 265.047 247.091 263.183 247.091C261.899 247.091 260.751 247.369 259.74 247.926C258.74 248.483 257.95 249.295 257.371 250.364C256.791 251.432 256.501 252.727 256.501 254.25ZM299.102 249.682L295.489 250.705C295.261 250.102 294.926 249.517 294.483 248.949C294.051 248.369 293.46 247.892 292.71 247.517C291.96 247.142 291 246.955 289.83 246.955C288.227 246.955 286.892 247.324 285.824 248.062C284.767 248.79 284.239 249.716 284.239 250.841C284.239 251.841 284.602 252.631 285.33 253.21C286.057 253.79 287.193 254.273 288.739 254.659L292.625 255.614C294.966 256.182 296.71 257.051 297.858 258.222C299.006 259.381 299.58 260.875 299.58 262.705C299.58 264.205 299.148 265.545 298.284 266.727C297.432 267.909 296.239 268.841 294.705 269.523C293.17 270.205 291.386 270.545 289.352 270.545C286.682 270.545 284.472 269.966 282.722 268.807C280.972 267.648 279.864 265.955 279.398 263.727L283.216 262.773C283.58 264.182 284.267 265.239 285.278 265.943C286.301 266.648 287.636 267 289.284 267C291.159 267 292.648 266.602 293.75 265.807C294.864 265 295.42 264.034 295.42 262.909C295.42 262 295.102 261.239 294.466 260.625C293.83 260 292.852 259.534 291.534 259.227L287.17 258.205C284.773 257.636 283.011 256.756 281.886 255.562C280.773 254.358 280.216 252.852 280.216 251.045C280.216 249.568 280.631 248.261 281.46 247.125C282.301 245.989 283.443 245.097 284.886 244.449C286.341 243.801 287.989 243.477 289.83 243.477C292.42 243.477 294.455 244.045 295.932 245.182C297.42 246.318 298.477 247.818 299.102 249.682ZM317.021 243.818V247.227H303.453V243.818H317.021ZM307.408 237.545H311.43V262.5C311.43 263.636 311.595 264.489 311.925 265.057C312.266 265.614 312.697 265.989 313.22 266.182C313.754 266.364 314.317 266.455 314.908 266.455C315.351 266.455 315.714 266.432 315.999 266.386C316.283 266.33 316.51 266.284 316.68 266.25L317.499 269.864C317.226 269.966 316.845 270.068 316.357 270.17C315.868 270.284 315.249 270.341 314.499 270.341C313.362 270.341 312.249 270.097 311.158 269.608C310.078 269.119 309.18 268.375 308.464 267.375C307.76 266.375 307.408 265.114 307.408 263.591V237.545ZM327.658 254.25V270H323.635V235.091H327.658V247.909H327.999C328.612 246.557 329.533 245.483 330.76 244.688C331.999 243.881 333.646 243.477 335.703 243.477C337.487 243.477 339.05 243.835 340.391 244.551C341.732 245.256 342.771 246.341 343.51 247.807C344.26 249.261 344.635 251.114 344.635 253.364V270H340.612V253.636C340.612 251.557 340.072 249.949 338.993 248.812C337.925 247.665 336.442 247.091 334.544 247.091C333.226 247.091 332.044 247.369 330.999 247.926C329.964 248.483 329.146 249.295 328.544 250.364C327.953 251.432 327.658 252.727 327.658 254.25ZM359.699 270.614C358.04 270.614 356.534 270.301 355.182 269.676C353.83 269.04 352.756 268.125 351.96 266.932C351.165 265.727 350.767 264.273 350.767 262.568C350.767 261.068 351.063 259.852 351.653 258.92C352.244 257.977 353.034 257.239 354.023 256.705C355.011 256.17 356.102 255.773 357.295 255.511C358.5 255.239 359.71 255.023 360.926 254.864C362.517 254.659 363.807 254.506 364.795 254.403C365.795 254.29 366.523 254.102 366.977 253.841C367.443 253.58 367.676 253.125 367.676 252.477V252.341C367.676 250.659 367.216 249.352 366.295 248.42C365.386 247.489 364.006 247.023 362.153 247.023C360.233 247.023 358.727 247.443 357.636 248.284C356.545 249.125 355.778 250.023 355.335 250.977L351.517 249.614C352.199 248.023 353.108 246.784 354.244 245.898C355.392 245 356.642 244.375 357.994 244.023C359.358 243.659 360.699 243.477 362.017 243.477C362.858 243.477 363.824 243.58 364.915 243.784C366.017 243.977 367.08 244.381 368.102 244.994C369.136 245.608 369.994 246.534 370.676 247.773C371.358 249.011 371.699 250.67 371.699 252.75V270H367.676V266.455H367.472C367.199 267.023 366.744 267.631 366.108 268.278C365.472 268.926 364.625 269.477 363.568 269.932C362.511 270.386 361.222 270.614 359.699 270.614ZM360.312 267C361.903 267 363.244 266.688 364.335 266.062C365.438 265.438 366.267 264.631 366.824 263.642C367.392 262.653 367.676 261.614 367.676 260.523V256.841C367.506 257.045 367.131 257.233 366.551 257.403C365.983 257.562 365.324 257.705 364.574 257.83C363.835 257.943 363.114 258.045 362.409 258.136C361.716 258.216 361.153 258.284 360.722 258.341C359.676 258.477 358.699 258.699 357.79 259.006C356.892 259.301 356.165 259.75 355.608 260.352C355.063 260.943 354.79 261.75 354.79 262.773C354.79 264.17 355.307 265.227 356.341 265.943C357.386 266.648 358.71 267 360.312 267ZM390.7 243.818V247.227H376.587V243.818H390.7ZM380.814 270V240.205C380.814 238.705 381.166 237.455 381.871 236.455C382.575 235.455 383.49 234.705 384.615 234.205C385.74 233.705 386.928 233.455 388.178 233.455C389.166 233.455 389.973 233.534 390.598 233.693C391.223 233.852 391.689 234 391.996 234.136L390.837 237.614C390.632 237.545 390.348 237.46 389.984 237.358C389.632 237.256 389.166 237.205 388.587 237.205C387.257 237.205 386.297 237.54 385.706 238.21C385.126 238.881 384.837 239.864 384.837 241.159V270H380.814ZM407.724 243.818V247.227H394.156V243.818H407.724ZM398.111 237.545H402.134V262.5C402.134 263.636 402.298 264.489 402.628 265.057C402.969 265.614 403.401 265.989 403.923 266.182C404.457 266.364 405.02 266.455 405.611 266.455C406.054 266.455 406.418 266.432 406.702 266.386C406.986 266.33 407.213 266.284 407.384 266.25L408.202 269.864C407.929 269.966 407.548 270.068 407.06 270.17C406.571 270.284 405.952 270.341 405.202 270.341C404.065 270.341 402.952 270.097 401.861 269.608C400.781 269.119 399.884 268.375 399.168 267.375C398.463 266.375 398.111 265.114 398.111 263.591V237.545ZM424.472 270.545C421.949 270.545 419.773 269.989 417.943 268.875C416.125 267.75 414.722 266.182 413.733 264.17C412.756 262.148 412.267 259.795 412.267 257.114C412.267 254.432 412.756 252.068 413.733 250.023C414.722 247.966 416.097 246.364 417.858 245.216C419.631 244.057 421.699 243.477 424.062 243.477C425.426 243.477 426.773 243.705 428.102 244.159C429.432 244.614 430.642 245.352 431.733 246.375C432.824 247.386 433.693 248.727 434.341 250.398C434.989 252.068 435.312 254.125 435.312 256.568V258.273H415.131V254.795H431.222C431.222 253.318 430.926 252 430.335 250.841C429.756 249.682 428.926 248.767 427.847 248.097C426.778 247.426 425.517 247.091 424.062 247.091C422.46 247.091 421.074 247.489 419.903 248.284C418.744 249.068 417.852 250.091 417.227 251.352C416.602 252.614 416.29 253.966 416.29 255.409V257.727C416.29 259.705 416.631 261.381 417.312 262.756C418.006 264.119 418.966 265.159 420.193 265.875C421.42 266.58 422.847 266.932 424.472 266.932C425.528 266.932 426.483 266.784 427.335 266.489C428.199 266.182 428.943 265.727 429.568 265.125C430.193 264.511 430.676 263.75 431.017 262.841L434.903 263.932C434.494 265.25 433.807 266.409 432.841 267.409C431.875 268.398 430.682 269.17 429.261 269.727C427.841 270.273 426.244 270.545 424.472 270.545ZM445.455 254.25V270H441.432V243.818H445.318V247.909H445.659C446.273 246.58 447.205 245.511 448.455 244.705C449.705 243.886 451.318 243.477 453.295 243.477C455.068 243.477 456.619 243.841 457.949 244.568C459.278 245.284 460.313 246.375 461.051 247.841C461.79 249.295 462.159 251.136 462.159 253.364V270H458.136V253.636C458.136 251.58 457.602 249.977 456.534 248.83C455.466 247.67 454 247.091 452.136 247.091C450.852 247.091 449.705 247.369 448.693 247.926C447.693 248.483 446.903 249.295 446.324 250.364C445.744 251.432 445.455 252.727 445.455 254.25ZM483.555 270V235.091H504.487V238.841H487.783V250.636H502.919V254.386H487.783V270H483.555ZM511.182 270V243.818H515.205V270H511.182ZM513.227 239.455C512.443 239.455 511.767 239.188 511.199 238.653C510.642 238.119 510.364 237.477 510.364 236.727C510.364 235.977 510.642 235.335 511.199 234.801C511.767 234.267 512.443 234 513.227 234C514.011 234 514.682 234.267 515.239 234.801C515.807 235.335 516.091 235.977 516.091 236.727C516.091 237.477 515.807 238.119 515.239 238.653C514.682 239.188 514.011 239.455 513.227 239.455ZM526.595 254.25V270H522.572V243.818H526.459V247.909H526.8C527.413 246.58 528.345 245.511 529.595 244.705C530.845 243.886 532.459 243.477 534.436 243.477C536.209 243.477 537.76 243.841 539.089 244.568C540.419 245.284 541.453 246.375 542.192 247.841C542.93 249.295 543.3 251.136 543.3 253.364V270H539.277V253.636C539.277 251.58 538.743 249.977 537.675 248.83C536.607 247.67 535.141 247.091 533.277 247.091C531.993 247.091 530.845 247.369 529.834 247.926C528.834 248.483 528.044 249.295 527.464 250.364C526.885 251.432 526.595 252.727 526.595 254.25ZM558.355 270.614C556.696 270.614 555.19 270.301 553.838 269.676C552.486 269.04 551.412 268.125 550.616 266.932C549.821 265.727 549.423 264.273 549.423 262.568C549.423 261.068 549.719 259.852 550.31 258.92C550.901 257.977 551.69 257.239 552.679 256.705C553.668 256.17 554.759 255.773 555.952 255.511C557.156 255.239 558.366 255.023 559.582 254.864C561.173 254.659 562.463 254.506 563.452 254.403C564.452 254.29 565.179 254.102 565.634 253.841C566.099 253.58 566.332 253.125 566.332 252.477V252.341C566.332 250.659 565.872 249.352 564.952 248.42C564.043 247.489 562.662 247.023 560.81 247.023C558.889 247.023 557.384 247.443 556.293 248.284C555.202 249.125 554.435 250.023 553.991 250.977L550.173 249.614C550.855 248.023 551.764 246.784 552.901 245.898C554.048 245 555.298 244.375 556.651 244.023C558.014 243.659 559.355 243.477 560.673 243.477C561.514 243.477 562.48 243.58 563.571 243.784C564.673 243.977 565.736 244.381 566.759 244.994C567.793 245.608 568.651 246.534 569.332 247.773C570.014 249.011 570.355 250.67 570.355 252.75V270H566.332V266.455H566.128C565.855 267.023 565.401 267.631 564.764 268.278C564.128 268.926 563.281 269.477 562.224 269.932C561.168 270.386 559.878 270.614 558.355 270.614ZM558.969 267C560.56 267 561.901 266.688 562.991 266.062C564.094 265.438 564.923 264.631 565.48 263.642C566.048 262.653 566.332 261.614 566.332 260.523V256.841C566.162 257.045 565.787 257.233 565.207 257.403C564.639 257.562 563.98 257.705 563.23 257.83C562.491 257.943 561.77 258.045 561.065 258.136C560.372 258.216 559.81 258.284 559.378 258.341C558.332 258.477 557.355 258.699 556.446 259.006C555.548 259.301 554.821 259.75 554.264 260.352C553.719 260.943 553.446 261.75 553.446 262.773C553.446 264.17 553.963 265.227 554.997 265.943C556.043 266.648 557.366 267 558.969 267ZM581.72 254.25V270H577.697V243.818H581.584V247.909H581.925C582.538 246.58 583.47 245.511 584.72 244.705C585.97 243.886 587.584 243.477 589.561 243.477C591.334 243.477 592.885 243.841 594.214 244.568C595.544 245.284 596.578 246.375 597.317 247.841C598.055 249.295 598.425 251.136 598.425 253.364V270H594.402V253.636C594.402 251.58 593.868 249.977 592.8 248.83C591.732 247.67 590.266 247.091 588.402 247.091C587.118 247.091 585.97 247.369 584.959 247.926C583.959 248.483 583.169 249.295 582.589 250.364C582.01 251.432 581.72 252.727 581.72 254.25ZM605.026 270V266.932L619.889 247.841V247.568H605.503V243.818H625.071V247.023L610.616 265.977V266.25H625.548V270H605.026ZM631.744 270V243.818H635.767V270H631.744ZM633.79 239.455C633.006 239.455 632.33 239.188 631.761 238.653C631.205 238.119 630.926 237.477 630.926 236.727C630.926 235.977 631.205 235.335 631.761 234.801C632.33 234.267 633.006 234 633.79 234C634.574 234 635.244 234.267 635.801 234.801C636.369 235.335 636.653 235.977 636.653 236.727C636.653 237.477 636.369 238.119 635.801 238.653C635.244 239.188 634.574 239.455 633.79 239.455ZM654.112 270.545C651.589 270.545 649.413 269.989 647.584 268.875C645.766 267.75 644.362 266.182 643.374 264.17C642.396 262.148 641.908 259.795 641.908 257.114C641.908 254.432 642.396 252.068 643.374 250.023C644.362 247.966 645.737 246.364 647.499 245.216C649.271 244.057 651.339 243.477 653.703 243.477C655.067 243.477 656.413 243.705 657.743 244.159C659.072 244.614 660.283 245.352 661.374 246.375C662.464 247.386 663.334 248.727 663.982 250.398C664.629 252.068 664.953 254.125 664.953 256.568V258.273H644.771V254.795H660.862C660.862 253.318 660.567 252 659.976 250.841C659.396 249.682 658.567 248.767 657.487 248.097C656.419 247.426 655.158 247.091 653.703 247.091C652.101 247.091 650.714 247.489 649.544 248.284C648.385 249.068 647.493 250.091 646.868 251.352C646.243 252.614 645.93 253.966 645.93 255.409V257.727C645.93 259.705 646.271 261.381 646.953 262.756C647.646 264.119 648.607 265.159 649.834 265.875C651.061 266.58 652.487 266.932 654.112 266.932C655.169 266.932 656.124 266.784 656.976 266.489C657.839 266.182 658.584 265.727 659.209 265.125C659.834 264.511 660.317 263.75 660.658 262.841L664.544 263.932C664.135 265.25 663.447 266.409 662.482 267.409C661.516 268.398 660.322 269.17 658.902 269.727C657.482 270.273 655.885 270.545 654.112 270.545ZM675.095 235.091V270H671.072V235.091H675.095ZM686.486 235.091V270H682.463V235.091H686.486ZM704.831 270.545C702.308 270.545 700.132 269.989 698.303 268.875C696.484 267.75 695.081 266.182 694.092 264.17C693.115 262.148 692.626 259.795 692.626 257.114C692.626 254.432 693.115 252.068 694.092 250.023C695.081 247.966 696.456 246.364 698.217 245.216C699.99 244.057 702.058 243.477 704.422 243.477C705.786 243.477 707.132 243.705 708.462 244.159C709.791 244.614 711.001 245.352 712.092 246.375C713.183 247.386 714.053 248.727 714.7 250.398C715.348 252.068 715.672 254.125 715.672 256.568V258.273H695.49V254.795H711.581C711.581 253.318 711.286 252 710.695 250.841C710.115 249.682 709.286 248.767 708.206 248.097C707.138 247.426 705.876 247.091 704.422 247.091C702.82 247.091 701.433 247.489 700.263 248.284C699.104 249.068 698.212 250.091 697.587 251.352C696.962 252.614 696.649 253.966 696.649 255.409V257.727C696.649 259.705 696.99 261.381 697.672 262.756C698.365 264.119 699.325 265.159 700.553 265.875C701.78 266.58 703.206 266.932 704.831 266.932C705.888 266.932 706.842 266.784 707.695 266.489C708.558 266.182 709.303 265.727 709.928 265.125C710.553 264.511 711.036 263.75 711.376 262.841L715.263 263.932C714.854 265.25 714.166 266.409 713.2 267.409C712.234 268.398 711.041 269.17 709.621 269.727C708.2 270.273 706.604 270.545 704.831 270.545ZM725.814 254.25V270H721.791V243.818H725.678V247.909H726.018C726.632 246.58 727.564 245.511 728.814 244.705C730.064 243.886 731.678 243.477 733.655 243.477C735.428 243.477 736.979 243.841 738.308 244.568C739.638 245.284 740.672 246.375 741.411 247.841C742.149 249.295 742.518 251.136 742.518 253.364V270H738.496V253.636C738.496 251.58 737.962 249.977 736.893 248.83C735.825 247.67 734.359 247.091 732.496 247.091C731.212 247.091 730.064 247.369 729.053 247.926C728.053 248.483 727.263 249.295 726.683 250.364C726.104 251.432 725.814 252.727 725.814 254.25ZM781.915 249.682L778.301 250.705C778.074 250.102 777.739 249.517 777.295 248.949C776.864 248.369 776.273 247.892 775.523 247.517C774.773 247.142 773.812 246.955 772.642 246.955C771.04 246.955 769.705 247.324 768.636 248.062C767.58 248.79 767.051 249.716 767.051 250.841C767.051 251.841 767.415 252.631 768.142 253.21C768.869 253.79 770.006 254.273 771.551 254.659L775.438 255.614C777.778 256.182 779.523 257.051 780.67 258.222C781.818 259.381 782.392 260.875 782.392 262.705C782.392 264.205 781.96 265.545 781.097 266.727C780.244 267.909 779.051 268.841 777.517 269.523C775.983 270.205 774.199 270.545 772.165 270.545C769.494 270.545 767.284 269.966 765.534 268.807C763.784 267.648 762.676 265.955 762.21 263.727L766.028 262.773C766.392 264.182 767.08 265.239 768.091 265.943C769.114 266.648 770.449 267 772.097 267C773.972 267 775.46 266.602 776.562 265.807C777.676 265 778.233 264.034 778.233 262.909C778.233 262 777.915 261.239 777.278 260.625C776.642 260 775.665 259.534 774.347 259.227L769.983 258.205C767.585 257.636 765.824 256.756 764.699 255.562C763.585 254.358 763.028 252.852 763.028 251.045C763.028 249.568 763.443 248.261 764.273 247.125C765.114 245.989 766.256 245.097 767.699 244.449C769.153 243.801 770.801 243.477 772.642 243.477C775.233 243.477 777.267 244.045 778.744 245.182C780.233 246.318 781.29 247.818 781.915 249.682ZM799.084 270.545C796.629 270.545 794.516 269.966 792.743 268.807C790.97 267.648 789.607 266.051 788.652 264.017C787.697 261.983 787.22 259.659 787.22 257.045C787.22 254.386 787.709 252.04 788.686 250.006C789.675 247.96 791.05 246.364 792.811 245.216C794.584 244.057 796.652 243.477 799.016 243.477C800.857 243.477 802.516 243.818 803.993 244.5C805.47 245.182 806.68 246.136 807.624 247.364C808.567 248.591 809.152 250.023 809.379 251.659H805.357C805.05 250.466 804.368 249.409 803.311 248.489C802.266 247.557 800.857 247.091 799.084 247.091C797.516 247.091 796.141 247.5 794.959 248.318C793.788 249.125 792.874 250.267 792.214 251.744C791.567 253.21 791.243 254.932 791.243 256.909C791.243 258.932 791.561 260.693 792.197 262.193C792.845 263.693 793.754 264.858 794.925 265.688C796.107 266.517 797.493 266.932 799.084 266.932C800.129 266.932 801.078 266.75 801.93 266.386C802.783 266.023 803.504 265.5 804.095 264.818C804.686 264.136 805.107 263.318 805.357 262.364H809.379C809.152 263.909 808.589 265.301 807.692 266.54C806.805 267.767 805.629 268.744 804.163 269.472C802.709 270.188 801.016 270.545 799.084 270.545ZM819.283 254.25V270H815.26V235.091H819.283V247.909H819.624C820.237 246.557 821.158 245.483 822.385 244.688C823.624 243.881 825.271 243.477 827.328 243.477C829.112 243.477 830.675 243.835 832.016 244.551C833.357 245.256 834.396 246.341 835.135 247.807C835.885 249.261 836.26 251.114 836.26 253.364V270H832.237V253.636C832.237 251.557 831.697 249.949 830.618 248.812C829.55 247.665 828.067 247.091 826.169 247.091C824.851 247.091 823.669 247.369 822.624 247.926C821.589 248.483 820.771 249.295 820.169 250.364C819.578 251.432 819.283 252.727 819.283 254.25ZM851.324 270.614C849.665 270.614 848.159 270.301 846.807 269.676C845.455 269.04 844.381 268.125 843.585 266.932C842.79 265.727 842.392 264.273 842.392 262.568C842.392 261.068 842.688 259.852 843.278 258.92C843.869 257.977 844.659 257.239 845.648 256.705C846.636 256.17 847.727 255.773 848.92 255.511C850.125 255.239 851.335 255.023 852.551 254.864C854.142 254.659 855.432 254.506 856.42 254.403C857.42 254.29 858.148 254.102 858.602 253.841C859.068 253.58 859.301 253.125 859.301 252.477V252.341C859.301 250.659 858.841 249.352 857.92 248.42C857.011 247.489 855.631 247.023 853.778 247.023C851.858 247.023 850.352 247.443 849.261 248.284C848.17 249.125 847.403 250.023 846.96 250.977L843.142 249.614C843.824 248.023 844.733 246.784 845.869 245.898C847.017 245 848.267 244.375 849.619 244.023C850.983 243.659 852.324 243.477 853.642 243.477C854.483 243.477 855.449 243.58 856.54 243.784C857.642 243.977 858.705 244.381 859.727 244.994C860.761 245.608 861.619 246.534 862.301 247.773C862.983 249.011 863.324 250.67 863.324 252.75V270H859.301V266.455H859.097C858.824 267.023 858.369 267.631 857.733 268.278C857.097 268.926 856.25 269.477 855.193 269.932C854.136 270.386 852.847 270.614 851.324 270.614ZM851.938 267C853.528 267 854.869 266.688 855.96 266.062C857.063 265.438 857.892 264.631 858.449 263.642C859.017 262.653 859.301 261.614 859.301 260.523V256.841C859.131 257.045 858.756 257.233 858.176 257.403C857.608 257.562 856.949 257.705 856.199 257.83C855.46 257.943 854.739 258.045 854.034 258.136C853.341 258.216 852.778 258.284 852.347 258.341C851.301 258.477 850.324 258.699 849.415 259.006C848.517 259.301 847.79 259.75 847.233 260.352C846.688 260.943 846.415 261.75 846.415 262.773C846.415 264.17 846.932 265.227 847.966 265.943C849.011 266.648 850.335 267 851.938 267ZM880.553 270.545C878.371 270.545 876.445 269.994 874.774 268.892C873.104 267.778 871.797 266.21 870.854 264.188C869.911 262.153 869.439 259.75 869.439 256.977C869.439 254.227 869.911 251.841 870.854 249.818C871.797 247.795 873.109 246.233 874.791 245.131C876.473 244.028 878.416 243.477 880.621 243.477C882.325 243.477 883.672 243.761 884.661 244.33C885.661 244.886 886.422 245.523 886.945 246.239C887.479 246.943 887.893 247.523 888.189 247.977H888.53V235.091H892.553V270H888.666V265.977H888.189C887.893 266.455 887.473 267.057 886.928 267.784C886.382 268.5 885.604 269.142 884.592 269.71C883.581 270.267 882.234 270.545 880.553 270.545ZM881.098 266.932C882.712 266.932 884.075 266.511 885.189 265.67C886.303 264.818 887.149 263.642 887.729 262.142C888.308 260.631 888.598 258.886 888.598 256.909C888.598 254.955 888.314 253.244 887.746 251.778C887.178 250.301 886.337 249.153 885.223 248.335C884.109 247.506 882.734 247.091 881.098 247.091C879.393 247.091 877.973 247.528 876.837 248.403C875.712 249.267 874.865 250.443 874.297 251.932C873.74 253.409 873.462 255.068 873.462 256.909C873.462 258.773 873.746 260.466 874.314 261.989C874.893 263.5 875.746 264.705 876.871 265.602C878.007 266.489 879.416 266.932 881.098 266.932ZM911.456 270.545C908.933 270.545 906.757 269.989 904.928 268.875C903.109 267.75 901.706 266.182 900.717 264.17C899.74 262.148 899.251 259.795 899.251 257.114C899.251 254.432 899.74 252.068 900.717 250.023C901.706 247.966 903.081 246.364 904.842 245.216C906.615 244.057 908.683 243.477 911.047 243.477C912.411 243.477 913.757 243.705 915.087 244.159C916.416 244.614 917.626 245.352 918.717 246.375C919.808 247.386 920.678 248.727 921.325 250.398C921.973 252.068 922.297 254.125 922.297 256.568V258.273H902.115V254.795H918.206C918.206 253.318 917.911 252 917.32 250.841C916.74 249.682 915.911 248.767 914.831 248.097C913.763 247.426 912.501 247.091 911.047 247.091C909.445 247.091 908.058 247.489 906.888 248.284C905.729 249.068 904.837 250.091 904.212 251.352C903.587 252.614 903.274 253.966 903.274 255.409V257.727C903.274 259.705 903.615 261.381 904.297 262.756C904.99 264.119 905.95 265.159 907.178 265.875C908.405 266.58 909.831 266.932 911.456 266.932C912.513 266.932 913.467 266.784 914.32 266.489C915.183 266.182 915.928 265.727 916.553 265.125C917.178 264.511 917.661 263.75 918.001 262.841L921.888 263.932C921.479 265.25 920.791 266.409 919.825 267.409C918.859 268.398 917.666 269.17 916.246 269.727C914.825 270.273 913.229 270.545 911.456 270.545ZM932.439 254.25V270H928.416V243.818H932.303V247.909H932.643C933.257 246.58 934.189 245.511 935.439 244.705C936.689 243.886 938.303 243.477 940.28 243.477C942.053 243.477 943.604 243.841 944.933 244.568C946.263 245.284 947.297 246.375 948.036 247.841C948.774 249.295 949.143 251.136 949.143 253.364V270H945.121V253.636C945.121 251.58 944.587 249.977 943.518 248.83C942.45 247.67 940.984 247.091 939.121 247.091C937.837 247.091 936.689 247.369 935.678 247.926C934.678 248.483 933.888 249.295 933.308 250.364C932.729 251.432 932.439 252.727 932.439 254.25ZM205.932 328V324.932L220.795 305.841V305.568H206.409V301.818H225.977V305.023L211.523 323.977V324.25H226.455V328H205.932ZM249.151 317.295V301.818H253.173V328H249.151V323.568H248.878C248.264 324.898 247.31 326.028 246.014 326.96C244.719 327.881 243.082 328.341 241.105 328.341C239.469 328.341 238.014 327.983 236.741 327.267C235.469 326.54 234.469 325.449 233.741 323.994C233.014 322.528 232.651 320.682 232.651 318.455V301.818H236.673V318.182C236.673 320.091 237.207 321.614 238.276 322.75C239.355 323.886 240.73 324.455 242.401 324.455C243.401 324.455 244.418 324.199 245.452 323.688C246.497 323.176 247.372 322.392 248.077 321.335C248.793 320.278 249.151 318.932 249.151 317.295ZM272.2 301.818V305.227H258.087V301.818H272.2ZM262.314 328V298.205C262.314 296.705 262.666 295.455 263.371 294.455C264.075 293.455 264.99 292.705 266.115 292.205C267.24 291.705 268.428 291.455 269.678 291.455C270.666 291.455 271.473 291.534 272.098 291.693C272.723 291.852 273.189 292 273.496 292.136L272.337 295.614C272.132 295.545 271.848 295.46 271.484 295.358C271.132 295.256 270.666 295.205 270.087 295.205C268.757 295.205 267.797 295.54 267.206 296.21C266.626 296.881 266.337 297.864 266.337 299.159V328H262.314ZM294.338 317.295V301.818H298.361V328H294.338V323.568H294.065C293.452 324.898 292.497 326.028 291.202 326.96C289.906 327.881 288.27 328.341 286.293 328.341C284.656 328.341 283.202 327.983 281.929 327.267C280.656 326.54 279.656 325.449 278.929 323.994C278.202 322.528 277.838 320.682 277.838 318.455V301.818H281.861V318.182C281.861 320.091 282.395 321.614 283.463 322.75C284.543 323.886 285.918 324.455 287.588 324.455C288.588 324.455 289.605 324.199 290.639 323.688C291.685 323.176 292.56 322.392 293.264 321.335C293.98 320.278 294.338 318.932 294.338 317.295ZM283.224 297.455C282.509 297.455 281.872 297.182 281.315 296.636C280.77 296.08 280.497 295.443 280.497 294.727C280.497 293.943 280.77 293.295 281.315 292.784C281.872 292.261 282.509 292 283.224 292C284.009 292 284.656 292.261 285.168 292.784C285.69 293.295 285.952 293.943 285.952 294.727C285.952 295.443 285.69 296.08 285.168 296.636C284.656 297.182 284.009 297.455 283.224 297.455ZM293.043 297.455C292.327 297.455 291.69 297.182 291.134 296.636C290.588 296.08 290.315 295.443 290.315 294.727C290.315 293.943 290.588 293.295 291.134 292.784C291.69 292.261 292.327 292 293.043 292C293.827 292 294.474 292.261 294.986 292.784C295.509 293.295 295.77 293.943 295.77 294.727C295.77 295.443 295.509 296.08 294.986 296.636C294.474 297.182 293.827 297.455 293.043 297.455ZM316.297 338.364C314.354 338.364 312.683 338.114 311.286 337.614C309.888 337.125 308.723 336.477 307.791 335.67C306.871 334.875 306.138 334.023 305.592 333.114L308.797 330.864C309.161 331.341 309.621 331.886 310.178 332.5C310.734 333.125 311.496 333.665 312.462 334.119C313.439 334.585 314.717 334.818 316.297 334.818C318.411 334.818 320.155 334.307 321.53 333.284C322.905 332.261 323.592 330.659 323.592 328.477V323.159H323.251C322.956 323.636 322.536 324.227 321.99 324.932C321.456 325.625 320.683 326.244 319.672 326.79C318.672 327.324 317.32 327.591 315.615 327.591C313.501 327.591 311.604 327.091 309.922 326.091C308.251 325.091 306.928 323.636 305.95 321.727C304.984 319.818 304.501 317.5 304.501 314.773C304.501 312.091 304.973 309.756 305.916 307.767C306.859 305.767 308.172 304.222 309.854 303.131C311.536 302.028 313.479 301.477 315.683 301.477C317.388 301.477 318.74 301.761 319.74 302.33C320.751 302.886 321.524 303.523 322.058 304.239C322.604 304.943 323.024 305.523 323.32 305.977H323.729V301.818H327.615V328.75C327.615 331 327.104 332.83 326.081 334.239C325.07 335.659 323.706 336.699 321.99 337.358C320.286 338.028 318.388 338.364 316.297 338.364ZM316.161 323.977C317.774 323.977 319.138 323.608 320.251 322.869C321.365 322.131 322.212 321.068 322.791 319.682C323.371 318.295 323.661 316.636 323.661 314.705C323.661 312.818 323.376 311.153 322.808 309.71C322.24 308.267 321.399 307.136 320.286 306.318C319.172 305.5 317.797 305.091 316.161 305.091C314.456 305.091 313.036 305.523 311.899 306.386C310.774 307.25 309.928 308.409 309.359 309.864C308.803 311.318 308.524 312.932 308.524 314.705C308.524 316.523 308.808 318.131 309.376 319.528C309.956 320.915 310.808 322.006 311.933 322.801C313.07 323.585 314.479 323.977 316.161 323.977ZM345.956 328.545C343.433 328.545 341.257 327.989 339.428 326.875C337.609 325.75 336.206 324.182 335.217 322.17C334.24 320.148 333.751 317.795 333.751 315.114C333.751 312.432 334.24 310.068 335.217 308.023C336.206 305.966 337.581 304.364 339.342 303.216C341.115 302.057 343.183 301.477 345.547 301.477C346.911 301.477 348.257 301.705 349.587 302.159C350.916 302.614 352.126 303.352 353.217 304.375C354.308 305.386 355.178 306.727 355.825 308.398C356.473 310.068 356.797 312.125 356.797 314.568V316.273H336.615V312.795H352.706C352.706 311.318 352.411 310 351.82 308.841C351.24 307.682 350.411 306.767 349.331 306.097C348.263 305.426 347.001 305.091 345.547 305.091C343.945 305.091 342.558 305.489 341.388 306.284C340.229 307.068 339.337 308.091 338.712 309.352C338.087 310.614 337.774 311.966 337.774 313.409V315.727C337.774 317.705 338.115 319.381 338.797 320.756C339.49 322.119 340.45 323.159 341.678 323.875C342.905 324.58 344.331 324.932 345.956 324.932C347.013 324.932 347.967 324.784 348.82 324.489C349.683 324.182 350.428 323.727 351.053 323.125C351.678 322.511 352.161 321.75 352.501 320.841L356.388 321.932C355.979 323.25 355.291 324.409 354.325 325.409C353.359 326.398 352.166 327.17 350.746 327.727C349.325 328.273 347.729 328.545 345.956 328.545ZM366.939 312.25V328H362.916V301.818H366.803V305.909H367.143C367.757 304.58 368.689 303.511 369.939 302.705C371.189 301.886 372.803 301.477 374.78 301.477C376.553 301.477 378.104 301.841 379.433 302.568C380.763 303.284 381.797 304.375 382.536 305.841C383.274 307.295 383.643 309.136 383.643 311.364V328H379.621V311.636C379.621 309.58 379.087 307.977 378.018 306.83C376.95 305.67 375.484 305.091 373.621 305.091C372.337 305.091 371.189 305.369 370.178 305.926C369.178 306.483 368.388 307.295 367.808 308.364C367.229 309.432 366.939 310.727 366.939 312.25ZM393.926 328.273C393.085 328.273 392.364 327.972 391.761 327.369C391.159 326.767 390.858 326.045 390.858 325.205C390.858 324.364 391.159 323.642 391.761 323.04C392.364 322.437 393.085 322.136 393.926 322.136C394.767 322.136 395.489 322.437 396.091 323.04C396.693 323.642 396.994 324.364 396.994 325.205C396.994 325.761 396.852 326.273 396.568 326.739C396.295 327.205 395.926 327.58 395.46 327.864C395.006 328.136 394.494 328.273 393.926 328.273Z" fill="black"/>
<path d="M1089.42 454.207L1100.95 441.581L1089.42 428.955L1092.97 425.076L1108.07 441.581L1092.97 458.086L1089.42 454.207Z" fill="#FFD037"/>
<path d="M1250.89 860.425C1246.85 861.265 1242.03 863.113 1241.56 867.483C1241 872.357 1246.62 875.214 1251.12 876.223C1268.13 880.172 1285.68 880.676 1303.16 881.181C1395.52 883.533 1487.89 883.954 1580.25 882.357C1578.91 870.341 1565.46 865.13 1554.31 862.861C1506.39 853.114 1456.81 858.66 1409.76 848.324C1360.17 837.316 1299.84 849.753 1250.89 860.425Z" fill="url(#paint0_linear_749_2635)"/>
<path d="M1250.89 860.425C1246.85 861.265 1242.03 863.113 1241.56 867.483C1241 872.357 1246.62 875.214 1251.12 876.223C1268.13 880.172 1285.68 880.676 1303.16 881.181C1395.52 883.533 1487.89 883.954 1580.25 882.357C1578.91 870.341 1565.46 865.13 1554.31 862.861C1506.39 853.114 1456.81 858.66 1409.76 848.324C1360.17 837.316 1299.84 849.753 1250.89 860.425Z" fill="url(#paint1_linear_749_2635)"/>
<path d="M1502.43 781.264C1503.46 780.928 1504.56 781.264 1505.59 781.601C1510.1 783.197 1514.53 785.298 1518.48 788.071C1520.46 789.416 1522.44 790.928 1523.39 793.197C1524.26 795.298 1524.18 797.651 1524.02 799.836C1522.59 826.894 1521.25 854.036 1519.83 881.095C1519.75 882.859 1519.51 884.793 1518.25 885.885C1516.66 887.145 1514.45 886.305 1512.71 885.465C1495.71 877.565 1478.79 869.582 1461.78 861.683C1453.64 857.902 1445.26 853.868 1439.25 846.893C1443.83 836.137 1453.48 828.995 1462.34 821.768C1476.1 810.507 1488.75 797.567 1499.9 783.449C1500.53 782.609 1501.32 781.6 1502.43 781.264Z" fill="#DDC199"/>
<path d="M1582.54 641.855C1578.35 640.847 1574.07 639.838 1569.88 638.83C1545.21 686.98 1523.39 736.812 1504.56 787.904C1508.91 790.845 1514.69 793.87 1518.88 790.677C1520.62 789.332 1521.65 787.147 1522.59 785.047C1543.95 737.988 1563.95 690.258 1582.54 641.855Z" fill="#BDB39B"/>
<g opacity="0.26">
<path opacity="0.26" d="M1504.79 876.137C1504.71 877.062 1506.06 877.398 1506.21 876.474C1509.61 849.163 1514.44 822.357 1520.68 795.634C1521.08 793.954 1518.63 793.449 1518.23 795.13C1511.75 821.6 1507.24 848.827 1504.79 876.137Z" fill="#272525"/>
<path opacity="0.26" d="M1478 864.121C1488.43 840.76 1499.5 817.735 1511.21 795.046C1511.92 793.701 1509.86 792.609 1509.15 793.954C1496.97 816.811 1485.98 840.34 1475.94 864.289C1476.1 864.457 1476.18 864.625 1476.26 864.793C1476.81 864.373 1477.36 864.205 1478 864.121Z" fill="#272525"/>
<path opacity="0.26" d="M1460.98 848.743C1478.46 831.264 1494.04 811.853 1507.64 790.844C1508.51 789.416 1506.29 788.239 1505.42 789.668C1492.06 810.592 1476.72 829.92 1459.56 847.398C1458.69 848.322 1460.11 849.667 1460.98 848.743Z" fill="#272525"/>
</g>
<path d="M1339.76 805.213C1339.84 803.953 1340 802.608 1340.08 801.347C1329.64 793.784 1311.3 796.221 1300.23 800.087C1288.36 804.204 1288.36 811.935 1288.52 825.044C1288.6 832.439 1289.23 840.759 1294.61 845.548C1298.72 849.246 1304.5 849.75 1309.87 850.086C1314.7 850.422 1319.44 850.674 1324.26 851.01C1327.59 851.178 1331.3 851.263 1333.91 848.993C1336.52 846.641 1336.92 842.691 1337.23 839.077C1338.1 827.733 1338.97 816.473 1339.76 805.213Z" fill="#2F3F47"/>
<path d="M1352.51 805.213C1352.43 803.953 1352.27 802.608 1352.19 801.347C1362.63 793.784 1380.97 796.221 1392.05 800.087C1403.91 804.204 1403.91 811.935 1403.75 825.044C1403.67 832.439 1403.04 840.759 1397.66 845.548C1393.55 849.246 1387.77 849.75 1382.4 850.086C1377.57 850.422 1372.83 850.674 1368 851.01C1364.68 851.178 1360.97 851.263 1358.36 848.993C1355.75 846.641 1355.35 842.691 1355.04 839.077C1354.25 827.733 1353.38 816.473 1352.51 805.213Z" fill="#2F3F47"/>
<path d="M1263.45 777.148C1260.84 777.735 1258.31 778.576 1255.86 779.668C1254.04 780.424 1252.22 781.433 1250.95 782.945C1249.21 785.13 1248.74 788.156 1248.42 791.097C1248.03 794.963 1247.87 798.828 1247.95 802.693C1247.95 805.97 1248.19 809.332 1249.77 812.105C1251.98 815.971 1256.33 817.735 1260.44 818.827C1268.27 820.929 1276.42 821.432 1284.48 821.853C1333.27 824.374 1382.22 822.692 1430.78 816.895C1432.75 816.643 1434.97 816.307 1436.31 814.71C1437.1 813.786 1437.5 812.525 1437.89 811.348C1440.42 802.777 1442.09 791.097 1436.63 783.114C1431.96 776.307 1423.34 780.172 1416.86 780.088C1410.22 780.004 1403.49 779.416 1396.85 779.164C1383.88 778.576 1370.91 777.987 1357.95 777.567C1339.68 776.895 1321.33 776.307 1303.07 775.803C1290.73 775.551 1276.18 774.122 1263.45 777.148Z" fill="#516770"/>
<path d="M1368.31 592.695C1401.44 592.863 1434.5 593.62 1467.63 594.376C1466.84 575.637 1465.58 556.897 1461.78 538.578C1455.22 506.478 1440.19 475.134 1414.81 456.395C1375.9 427.656 1314.14 431.437 1272.23 459.84C1254.59 471.772 1240.44 488.159 1233.01 508.242C1224.47 531.183 1222.17 556.225 1220.83 580.847C1220.67 584.124 1220.51 587.317 1220.35 590.594C1269.54 588.577 1319.04 592.527 1368.31 592.695Z" fill="#EAF1F2"/>
<path d="M1365.66 602.108C1317.1 602.024 1268.39 598.327 1219.84 600.175C1217.46 656.141 1219.68 712.359 1226.48 767.989C1227.43 775.636 1228.61 783.618 1233.36 789.668C1240.71 798.996 1253.44 794.878 1263.33 794.878C1280.02 794.878 1297.18 795.635 1314.02 796.055C1345.81 796.811 1377.36 796.895 1408.99 793.114C1424.02 791.35 1454.38 796.223 1461.58 781.853C1467.51 770.173 1465.06 746.476 1465.93 733.451C1466.96 717.989 1467.75 702.611 1468.22 687.149C1469.09 659.334 1468.93 631.519 1467.91 603.62C1433.9 602.948 1399.74 602.108 1365.66 602.108Z" fill="#E2ECED"/>
<path d="M1480.33 692.696C1480.96 692.107 1481.04 691.099 1481.12 690.259C1482.78 666.982 1484.2 643.704 1485.23 620.427C1485.31 618.41 1485.31 616.058 1483.81 614.713C1482.7 613.789 1481.28 613.705 1479.85 613.705C1474.95 613.621 1470.13 613.537 1465.22 613.537C1462.14 640.007 1460.88 666.645 1461.51 693.284C1466.96 693.284 1472.34 693.368 1477.8 693.368C1478.67 693.368 1479.62 693.368 1480.33 692.696Z" fill="#2F3F47"/>
<path d="M1505.54 746.31C1506.17 744.378 1506.88 742.361 1508.3 740.932C1509.41 739.84 1510.91 739.167 1512.34 738.663C1518.51 736.31 1524.83 734.546 1531.24 733.369C1536.22 736.983 1540.73 741.269 1544.6 746.226C1545.31 747.151 1546.02 748.159 1546.18 749.336C1546.34 750.26 1546.1 751.184 1545.87 752.109C1543.34 762.445 1540.88 772.781 1538.35 783.117C1534.64 783.621 1530.92 783.705 1527.28 783.201C1528.71 776.898 1530.13 770.596 1531.47 764.377C1532.82 758.411 1533.85 751.1 1529.58 746.899C1525.23 748.075 1520.96 749.336 1516.61 750.512C1515.9 750.68 1515.1 750.932 1514.47 751.436C1513.76 752.109 1513.44 753.117 1513.13 754.041C1511.31 759.924 1509.96 765.974 1509.02 772.109C1506.25 771.268 1503.48 770.511 1500.71 769.671C1500.48 761.688 1503.01 753.874 1505.54 746.31Z" fill="#2F3F47"/>
<path d="M1539.14 737.233C1539.38 736.981 1539.46 736.646 1539.54 736.393C1540.33 732.612 1541.12 728.83 1541.99 725.133C1536.45 723.788 1530.76 722.863 1525.15 722.359C1524.28 725.469 1523.72 728.746 1523.48 732.023C1523.41 732.696 1523.41 733.536 1523.88 734.04C1524.2 734.376 1524.59 734.46 1524.99 734.629C1529.18 735.973 1533.53 736.981 1537.96 737.569C1538.27 737.485 1538.75 737.57 1539.14 737.233Z" fill="#516770"/>
<path d="M1544.69 722.529C1548.01 716.562 1545.32 700.848 1545.32 694.546C1545.24 685.89 1545.24 677.151 1543.34 668.748C1541.44 660.344 1537.57 652.109 1531.16 646.815C1527.53 643.79 1523.26 641.858 1518.83 640.261C1505.62 635.471 1491.47 633.875 1477.63 635.639C1476.52 635.807 1475.34 635.975 1474.54 636.816C1473.67 637.656 1473.52 639 1473.36 640.261C1472.73 645.051 1471.86 650.345 1472.09 655.218C1472.49 663.79 1470.83 661.437 1476.68 663.874C1481.19 665.723 1489.65 664.21 1494.79 665.471C1500.8 666.899 1506.65 669.084 1512.5 671.269C1516.22 672.613 1520.17 674.294 1522.07 677.907C1523.1 679.84 1523.41 682.193 1523.65 684.462C1525.08 697.908 1525.71 711.436 1525.63 724.966C1525.63 727.318 1541.92 726.142 1544.05 723.537C1544.29 723.201 1544.45 722.865 1544.69 722.529Z" fill="#E2ECED"/>
<g opacity="0.15">
<path opacity="0.15" d="M1517 644.129C1516.53 652.196 1514.55 659.507 1511.55 666.902C1510.99 668.33 1512.65 669.423 1513.52 668.162C1518.27 661.104 1520.72 652.7 1521.59 644.129C1521.91 641.104 1517.24 641.019 1517 644.129Z" fill="#272525"/>
<path opacity="0.15" d="M1529.1 649.927C1527.76 657.743 1524.44 662.869 1519.22 668.415C1518.51 669.171 1519.46 670.431 1520.25 669.843C1523.81 667.49 1527.13 665.978 1529.66 662.197C1532.03 658.667 1533.61 654.885 1534.09 650.6C1534.4 647.659 1529.66 646.986 1529.1 649.927Z" fill="#272525"/>
</g>
<path d="M1212.07 614.209C1211.44 614.797 1211.36 615.806 1211.28 616.646C1209.62 639.923 1208.2 663.2 1207.17 686.477C1207.09 688.494 1207.09 690.847 1208.59 692.191C1209.7 693.116 1211.12 693.2 1212.55 693.2C1217.45 693.284 1222.27 693.368 1227.18 693.368C1230.26 666.898 1231.53 640.259 1230.89 613.621C1225.44 613.621 1220.06 613.537 1214.6 613.537C1213.73 613.537 1212.71 613.537 1212.07 614.209Z" fill="#2F3F47"/>
<path d="M1150.78 585.555C1151.02 587.572 1151.25 589.756 1150.54 591.605C1149.99 593.117 1148.96 594.378 1147.85 595.555C1143.35 600.512 1138.44 605.135 1133.14 609.252C1127.13 608.412 1121.28 606.647 1115.83 604.042C1114.8 603.538 1113.69 603.034 1113.06 602.025C1112.58 601.269 1112.35 600.344 1112.19 599.42C1110.13 589 1108 578.496 1105.94 568.076C1109.03 565.891 1112.35 564.042 1115.83 562.697C1117.17 569 1118.59 575.302 1119.94 581.605C1121.28 587.571 1123.42 594.63 1128.95 596.311C1132.35 593.202 1135.67 590.092 1139.08 586.983C1139.63 586.479 1140.26 585.891 1140.58 585.135C1140.97 584.21 1140.81 583.117 1140.66 582.109C1139.79 575.975 1138.52 569.924 1136.78 563.958C1139.63 563.37 1142.4 562.782 1145.24 562.193C1148.88 569.336 1149.83 577.571 1150.78 585.555Z" fill="#2F3F47"/>
<path d="M1124.51 609.502C1124.43 609.838 1124.51 610.175 1124.51 610.427C1125.38 614.208 1126.25 617.906 1127.04 621.687C1132.57 620.258 1138.03 618.41 1143.33 616.225C1142.85 613.031 1141.98 609.838 1140.8 606.813C1140.56 606.141 1140.24 605.468 1139.61 605.216C1139.22 605.048 1138.82 605.132 1138.35 605.216C1134 605.973 1129.73 607.149 1125.54 608.662C1125.14 608.83 1124.67 609.082 1124.51 609.502Z" fill="#516770"/>
<path d="M1125.71 625.303C1125.16 632.193 1134.18 644.966 1136.86 650.68C1140.5 658.412 1144.22 666.227 1149.44 672.865C1154.66 679.504 1161.54 685.05 1169.52 686.73C1174.03 687.739 1178.7 687.487 1183.28 686.815C1197.12 684.882 1210.49 679.672 1222.11 671.521C1223.06 670.848 1224.01 670.176 1224.4 669C1224.8 667.823 1224.4 666.563 1224.09 665.302C1222.58 660.681 1221.24 655.555 1218.95 651.269C1214.99 643.79 1217.52 645.134 1211.2 645.638C1206.37 646.059 1199.41 651.437 1194.27 652.782C1188.26 654.378 1182.1 655.134 1176.01 655.975C1172.13 656.479 1167.86 656.899 1164.62 654.546C1162.88 653.286 1161.62 651.353 1160.51 649.42C1153.63 638.075 1147.38 626.227 1141.77 614.043C1140.82 611.942 1126.74 620.681 1125.87 624.042C1125.79 624.546 1125.71 624.883 1125.71 625.303Z" fill="#E2ECED"/>
<g opacity="0.15">
<path opacity="0.15" d="M1183.19 682.442C1180.26 674.963 1179 667.484 1178.52 659.417C1178.44 657.821 1176.47 657.653 1176.23 659.25C1174.96 667.821 1176.23 676.476 1179.08 684.543C1180.1 687.484 1184.37 685.299 1183.19 682.442Z" fill="#272525"/>
<path opacity="0.15" d="M1170 683.032C1167.94 675.385 1168.73 669.251 1171.1 661.772C1171.42 660.764 1170.08 660.091 1169.52 660.931C1167.39 664.713 1165.01 667.654 1164.3 672.192C1163.67 676.477 1163.83 680.595 1165.25 684.628C1166.2 687.569 1170.71 685.889 1170 683.032Z" fill="#272525"/>
</g>
<path d="M1242.43 537.739C1242.51 540.932 1242.67 544.209 1243.94 547.151C1247.18 554.461 1255.72 556.814 1263.23 558.159C1306.17 565.805 1350.06 568.411 1393.24 562.612C1398.93 561.856 1404.62 560.932 1409.84 558.411C1415.06 555.89 1419.73 551.604 1421.63 545.974C1422.81 542.36 1422.89 538.495 1422.97 534.63C1423.05 530.764 1423.05 526.815 1423.13 522.949C1423.13 521.185 1423.13 519.42 1422.5 517.739C1421.78 515.974 1420.36 514.546 1418.86 513.453C1413.16 509.336 1405.97 508.411 1399.09 507.655C1353.38 502.781 1307.12 498.496 1261.65 505.05C1259.75 505.302 1257.78 505.638 1256.43 507.067C1255.72 507.739 1255.24 508.664 1254.53 509.336C1253.19 510.428 1251.37 510.344 1249.79 510.932C1245.36 512.445 1243.78 518.244 1243.22 523.202C1242.59 527.991 1242.36 532.865 1242.43 537.739Z" fill="#2F3F47"/>
<path opacity="0.2" d="M1299.68 544.797C1301.18 541.856 1301.42 538.411 1301.1 535.05C1300.94 533.033 1300.47 530.933 1299.28 529.42C1296.75 526.227 1292.09 526.563 1288.21 525.807C1284.81 527.319 1281.96 530.26 1280.54 533.874C1279.67 536.058 1279.28 538.411 1279.51 540.764C1280.07 545.554 1283.78 549.672 1288.21 550.512C1292.72 551.521 1297.54 549.083 1299.68 544.797Z" fill="#EAF1F2"/>
<path opacity="0.2" d="M1374.98 544.797C1376.49 541.856 1376.72 538.411 1376.41 535.05C1376.25 533.033 1375.77 530.933 1374.59 529.42C1372.06 526.227 1367.39 526.563 1363.52 525.807C1360.12 527.319 1357.27 530.26 1355.85 533.874C1354.98 536.058 1354.58 538.411 1354.82 540.764C1355.37 545.554 1359.09 549.672 1363.52 550.512C1367.95 551.521 1372.77 549.083 1374.98 544.797Z" fill="#EAF1F2"/>
<defs>
<linearGradient id="paint0_linear_749_2635" x1="1241.57" y1="863.659" x2="1580.34" y2="863.659" gradientUnits="userSpaceOnUse">
<stop stop-color="#4D4D4D"/>
<stop offset="1"/>
</linearGradient>
<linearGradient id="paint1_linear_749_2635" x1="1241.57" y1="863.659" x2="1580.34" y2="863.659" gradientUnits="userSpaceOnUse">
<stop/>
<stop offset="1"/>
</linearGradient>
</defs>
</svg>
