<svg width="698" height="450" viewBox="0 0 698 450" fill="none" xmlns="http://www.w3.org/2000/svg">
<path d="M127.432 17.1818C127.261 15.7424 126.57 14.625 125.358 13.8295C124.146 13.0341 122.659 12.6364 120.898 12.6364C119.61 12.6364 118.483 12.8447 117.517 13.2614C116.561 13.678 115.813 14.2509 115.273 14.9801C114.742 15.7093 114.477 16.5379 114.477 17.4659C114.477 18.2424 114.662 18.91 115.031 19.4688C115.41 20.018 115.893 20.4773 116.48 20.8466C117.067 21.2064 117.683 21.5047 118.327 21.7415C118.971 21.9687 119.562 22.1534 120.102 22.2955L123.057 23.0909C123.814 23.2898 124.657 23.5644 125.585 23.9148C126.523 24.2652 127.418 24.7434 128.27 25.3494C129.132 25.946 129.842 26.7131 130.401 27.6506C130.959 28.5881 131.239 29.7386 131.239 31.1023C131.239 32.6742 130.827 34.0947 130.003 35.3636C129.188 36.6326 127.995 37.6411 126.423 38.3892C124.861 39.1373 122.962 39.5114 120.727 39.5114C118.644 39.5114 116.84 39.1752 115.315 38.5028C113.8 37.8305 112.607 36.893 111.736 35.6903C110.874 34.4877 110.386 33.0909 110.273 31.5H113.909C114.004 32.5985 114.373 33.5076 115.017 34.2273C115.67 34.9375 116.494 35.4678 117.489 35.8182C118.492 36.1591 119.572 36.3295 120.727 36.3295C122.072 36.3295 123.279 36.1117 124.349 35.6761C125.42 35.2311 126.267 34.6155 126.892 33.8295C127.517 33.0341 127.83 32.1061 127.83 31.0455C127.83 30.0795 127.56 29.2936 127.02 28.6875C126.48 28.0814 125.77 27.589 124.889 27.2102C124.009 26.8314 123.057 26.5 122.034 26.2159L118.455 25.1932C116.182 24.5398 114.383 23.607 113.057 22.3949C111.731 21.1828 111.068 19.5966 111.068 17.6364C111.068 16.0076 111.509 14.5871 112.389 13.375C113.279 12.1534 114.473 11.2064 115.969 10.5341C117.474 9.85227 119.155 9.51136 121.011 9.51136C122.886 9.51136 124.553 9.84754 126.011 10.5199C127.47 11.1828 128.625 12.0919 129.477 13.2472C130.339 14.4025 130.794 15.714 130.841 17.1818H127.432ZM136.576 39V17.1818H139.928V39H136.576ZM138.281 13.5455C137.627 13.5455 137.064 13.3229 136.59 12.8778C136.126 12.4328 135.894 11.8977 135.894 11.2727C135.894 10.6477 136.126 10.1127 136.59 9.66761C137.064 9.22254 137.627 9 138.281 9C138.934 9 139.493 9.22254 139.957 9.66761C140.43 10.1127 140.667 10.6477 140.667 11.2727C140.667 11.8977 140.43 12.4328 139.957 12.8778C139.493 13.3229 138.934 13.5455 138.281 13.5455ZM154.932 39.4545C152.886 39.4545 151.125 38.9716 149.648 38.0057C148.17 37.0398 147.034 35.7093 146.239 34.0142C145.443 32.3191 145.045 30.3826 145.045 28.2045C145.045 25.9886 145.453 24.0331 146.267 22.3381C147.091 20.6335 148.237 19.303 149.705 18.3466C151.182 17.3807 152.905 16.8977 154.875 16.8977C156.409 16.8977 157.792 17.1818 159.023 17.75C160.254 18.3182 161.262 19.1136 162.048 20.1364C162.834 21.1591 163.322 22.3523 163.511 23.7159H160.159C159.903 22.7216 159.335 21.8409 158.455 21.0739C157.583 20.2973 156.409 19.9091 154.932 19.9091C153.625 19.9091 152.479 20.25 151.494 20.9318C150.519 21.6042 149.757 22.5559 149.207 23.7869C148.668 25.0085 148.398 26.4432 148.398 28.0909C148.398 29.7765 148.663 31.2443 149.193 32.4943C149.733 33.7443 150.491 34.715 151.466 35.4062C152.451 36.0975 153.606 36.4432 154.932 36.4432C155.803 36.4432 156.594 36.2917 157.304 35.9886C158.014 35.6856 158.616 35.25 159.108 34.6818C159.6 34.1136 159.951 33.4318 160.159 32.6364H163.511C163.322 33.9242 162.853 35.0843 162.105 36.1165C161.366 37.1392 160.386 37.9536 159.165 38.5597C157.953 39.1562 156.542 39.4545 154.932 39.4545ZM171.764 25.875V39H168.412V9.90909H171.764V20.5909H172.048C172.56 19.464 173.327 18.5691 174.349 17.9062C175.382 17.2339 176.755 16.8977 178.469 16.8977C179.955 16.8977 181.258 17.196 182.375 17.7926C183.492 18.3797 184.359 19.2841 184.974 20.5057C185.599 21.7178 185.912 23.2614 185.912 25.1364V39H182.56V25.3636C182.56 23.6307 182.11 22.2907 181.21 21.3438C180.32 20.3873 179.084 19.9091 177.503 19.9091C176.404 19.9091 175.42 20.1411 174.548 20.6051C173.687 21.0691 173.005 21.7462 172.503 22.6364C172.01 23.5265 171.764 24.6061 171.764 25.875ZM201.192 39.4545C199.09 39.4545 197.277 38.9905 195.752 38.0625C194.237 37.125 193.067 35.8182 192.244 34.142C191.429 32.4564 191.022 30.4962 191.022 28.2614C191.022 26.0265 191.429 24.0568 192.244 22.3523C193.067 20.6383 194.213 19.303 195.681 18.3466C197.158 17.3807 198.882 16.8977 200.852 16.8977C201.988 16.8977 203.11 17.0871 204.218 17.4659C205.326 17.8447 206.335 18.4602 207.244 19.3125C208.153 20.1553 208.877 21.2727 209.417 22.6648C209.957 24.0568 210.227 25.7708 210.227 27.8068V29.2273H193.408V26.3295H206.817C206.817 25.0985 206.571 24 206.079 23.0341C205.596 22.0682 204.905 21.3059 204.005 20.7472C203.115 20.1884 202.064 19.9091 200.852 19.9091C199.516 19.9091 198.361 20.2405 197.386 20.9034C196.42 21.5568 195.676 22.4091 195.156 23.4602C194.635 24.5114 194.374 25.6383 194.374 26.8409V28.7727C194.374 30.4205 194.658 31.8172 195.227 32.9631C195.804 34.0994 196.604 34.9659 197.627 35.5625C198.65 36.1496 199.838 36.4432 201.192 36.4432C202.073 36.4432 202.869 36.3201 203.579 36.0739C204.299 35.8182 204.919 35.4394 205.44 34.9375C205.96 34.4261 206.363 33.7917 206.647 33.0341L209.886 33.9432C209.545 35.0417 208.972 36.0076 208.167 36.8409C207.362 37.6648 206.368 38.3087 205.184 38.7727C204 39.2273 202.67 39.4545 201.192 39.4545ZM215.326 39V17.1818H218.565V20.4773H218.792C219.19 19.3977 219.909 18.5218 220.951 17.8494C221.993 17.1771 223.167 16.8409 224.474 16.8409C224.72 16.8409 225.028 16.8456 225.397 16.8551C225.766 16.8646 226.046 16.8788 226.235 16.8977V20.3068C226.121 20.2784 225.861 20.2358 225.454 20.179C225.056 20.1127 224.635 20.0795 224.19 20.0795C223.129 20.0795 222.182 20.3021 221.349 20.7472C220.525 21.1828 219.871 21.7888 219.388 22.5653C218.915 23.3324 218.678 24.2083 218.678 25.1932V39H215.326ZM238.692 39.4545C236.59 39.4545 234.777 38.9905 233.252 38.0625C231.737 37.125 230.567 35.8182 229.744 34.142C228.929 32.4564 228.522 30.4962 228.522 28.2614C228.522 26.0265 228.929 24.0568 229.744 22.3523C230.567 20.6383 231.713 19.303 233.181 18.3466C234.658 17.3807 236.382 16.8977 238.352 16.8977C239.488 16.8977 240.61 17.0871 241.718 17.4659C242.826 17.8447 243.835 18.4602 244.744 19.3125C245.653 20.1553 246.377 21.2727 246.917 22.6648C247.457 24.0568 247.727 25.7708 247.727 27.8068V29.2273H230.908V26.3295H244.317C244.317 25.0985 244.071 24 243.579 23.0341C243.096 22.0682 242.405 21.3059 241.505 20.7472C240.615 20.1884 239.564 19.9091 238.352 19.9091C237.016 19.9091 235.861 20.2405 234.886 20.9034C233.92 21.5568 233.176 22.4091 232.656 23.4602C232.135 24.5114 231.874 25.6383 231.874 26.8409V28.7727C231.874 30.4205 232.158 31.8172 232.727 32.9631C233.304 34.0994 234.104 34.9659 235.127 35.5625C236.15 36.1496 237.338 36.4432 238.692 36.4432C239.573 36.4432 240.369 36.3201 241.079 36.0739C241.799 35.8182 242.419 35.4394 242.94 34.9375C243.46 34.4261 243.863 33.7917 244.147 33.0341L247.386 33.9432C247.045 35.0417 246.472 36.0076 245.667 36.8409C244.862 37.6648 243.868 38.3087 242.684 38.7727C241.5 39.2273 240.17 39.4545 238.692 39.4545ZM264.531 39V9.90909H274.36C276.642 9.90909 278.508 10.321 279.957 11.1449C281.415 11.9593 282.495 13.0625 283.195 14.4545C283.896 15.8466 284.246 17.3996 284.246 19.1136C284.246 20.8277 283.896 22.3854 283.195 23.7869C282.504 25.1884 281.434 26.3059 279.985 27.1392C278.536 27.9631 276.68 28.375 274.417 28.375H267.371V25.25H274.303C275.866 25.25 277.121 24.9801 278.067 24.4403C279.014 23.9006 279.701 23.1714 280.127 22.2528C280.563 21.3248 280.781 20.2784 280.781 19.1136C280.781 17.9489 280.563 16.9072 280.127 15.9886C279.701 15.0701 279.01 14.3504 278.053 13.8295C277.097 13.2992 275.828 13.0341 274.246 13.0341H268.053V39H264.531ZM295.887 39.5114C294.504 39.5114 293.25 39.2509 292.123 38.7301C290.996 38.1998 290.101 37.4375 289.438 36.4432C288.775 35.4394 288.444 34.2273 288.444 32.8068C288.444 31.5568 288.69 30.5436 289.183 29.767C289.675 28.9811 290.333 28.3655 291.157 27.9205C291.981 27.4754 292.89 27.1439 293.884 26.9261C294.888 26.6989 295.897 26.5189 296.91 26.3864C298.236 26.2159 299.31 26.0881 300.134 26.0028C300.968 25.9081 301.574 25.7519 301.952 25.5341C302.341 25.3163 302.535 24.9375 302.535 24.3977V24.2841C302.535 22.8826 302.151 21.7936 301.384 21.017C300.627 20.2405 299.476 19.8523 297.933 19.8523C296.332 19.8523 295.077 20.2027 294.168 20.9034C293.259 21.6042 292.62 22.3523 292.251 23.1477L289.069 22.0114C289.637 20.6856 290.395 19.6534 291.342 18.9148C292.298 18.1667 293.34 17.6458 294.467 17.3523C295.603 17.0492 296.72 16.8977 297.819 16.8977C298.52 16.8977 299.325 16.983 300.234 17.1534C301.152 17.3144 302.038 17.6506 302.89 18.1619C303.752 18.6733 304.467 19.4451 305.035 20.4773C305.603 21.5095 305.887 22.892 305.887 24.625V39H302.535V36.0455H302.364C302.137 36.5189 301.758 37.0256 301.228 37.5653C300.698 38.1051 299.992 38.5644 299.112 38.9432C298.231 39.322 297.156 39.5114 295.887 39.5114ZM296.398 36.5C297.724 36.5 298.842 36.2396 299.751 35.7188C300.669 35.1979 301.361 34.5256 301.825 33.7017C302.298 32.8778 302.535 32.0114 302.535 31.1023V28.0341C302.393 28.2045 302.08 28.3608 301.597 28.5028C301.124 28.6354 300.575 28.7538 299.95 28.858C299.334 28.9527 298.733 29.0379 298.146 29.1136C297.568 29.1799 297.099 29.2367 296.739 29.2841C295.868 29.3977 295.054 29.5824 294.296 29.8381C293.548 30.0843 292.942 30.4583 292.478 30.9602C292.023 31.4527 291.796 32.125 291.796 32.9773C291.796 34.142 292.227 35.0227 293.089 35.6193C293.96 36.2064 295.063 36.5 296.398 36.5ZM327.46 22.0682L324.449 22.9205C324.259 22.4186 323.98 21.9309 323.611 21.4574C323.251 20.9744 322.759 20.5767 322.134 20.2642C321.509 19.9517 320.708 19.7955 319.733 19.7955C318.398 19.7955 317.285 20.1032 316.395 20.7188C315.514 21.3248 315.074 22.0966 315.074 23.0341C315.074 23.8674 315.377 24.5256 315.983 25.0085C316.589 25.4915 317.536 25.8939 318.824 26.2159L322.062 27.0114C324.013 27.4848 325.467 28.2093 326.423 29.1847C327.38 30.1506 327.858 31.3958 327.858 32.9205C327.858 34.1705 327.498 35.2879 326.778 36.2727C326.068 37.2576 325.074 38.0341 323.795 38.6023C322.517 39.1705 321.03 39.4545 319.335 39.4545C317.11 39.4545 315.268 38.9716 313.81 38.0057C312.351 37.0398 311.428 35.6288 311.04 33.7727L314.222 32.9773C314.525 34.1515 315.098 35.0322 315.94 35.6193C316.793 36.2064 317.905 36.5 319.278 36.5C320.841 36.5 322.081 36.1686 323 35.5057C323.928 34.8333 324.392 34.0284 324.392 33.0909C324.392 32.3333 324.127 31.6989 323.597 31.1875C323.066 30.6667 322.252 30.2784 321.153 30.0227L317.517 29.1705C315.519 28.697 314.051 27.9631 313.114 26.9688C312.186 25.965 311.722 24.7102 311.722 23.2045C311.722 21.9735 312.067 20.8845 312.759 19.9375C313.459 18.9905 314.411 18.2472 315.614 17.7074C316.826 17.1676 318.199 16.8977 319.733 16.8977C321.892 16.8977 323.587 17.3712 324.818 18.3182C326.059 19.2652 326.939 20.5152 327.46 22.0682ZM348.359 22.0682L345.347 22.9205C345.158 22.4186 344.879 21.9309 344.509 21.4574C344.149 20.9744 343.657 20.5767 343.032 20.2642C342.407 19.9517 341.607 19.7955 340.631 19.7955C339.296 19.7955 338.183 20.1032 337.293 20.7188C336.413 21.3248 335.972 22.0966 335.972 23.0341C335.972 23.8674 336.275 24.5256 336.881 25.0085C337.487 25.4915 338.434 25.8939 339.722 26.2159L342.961 27.0114C344.912 27.4848 346.365 28.2093 347.322 29.1847C348.278 30.1506 348.756 31.3958 348.756 32.9205C348.756 34.1705 348.397 35.2879 347.677 36.2727C346.967 37.2576 345.972 38.0341 344.694 38.6023C343.415 39.1705 341.929 39.4545 340.234 39.4545C338.008 39.4545 336.166 38.9716 334.708 38.0057C333.25 37.0398 332.326 35.6288 331.938 33.7727L335.12 32.9773C335.423 34.1515 335.996 35.0322 336.839 35.6193C337.691 36.2064 338.804 36.5 340.177 36.5C341.739 36.5 342.98 36.1686 343.898 35.5057C344.826 34.8333 345.29 34.0284 345.29 33.0909C345.29 32.3333 345.025 31.6989 344.495 31.1875C343.965 30.6667 343.15 30.2784 342.052 30.0227L338.415 29.1705C336.417 28.697 334.95 27.9631 334.012 26.9688C333.084 25.965 332.62 24.7102 332.62 23.2045C332.62 21.9735 332.966 20.8845 333.657 19.9375C334.358 18.9905 335.309 18.2472 336.512 17.7074C337.724 17.1676 339.097 16.8977 340.631 16.8977C342.79 16.8977 344.486 17.3712 345.717 18.3182C346.957 19.2652 347.838 20.5152 348.359 22.0682ZM358.746 39L352.098 17.1818H355.621L360.337 33.8864H360.564L365.223 17.1818H368.803L373.405 33.8295H373.632L378.348 17.1818H381.871L375.223 39H371.928L367.155 22.2386H366.814L362.041 39H358.746ZM394.424 39.4545C392.454 39.4545 390.726 38.9858 389.239 38.0483C387.762 37.1108 386.607 35.7992 385.773 34.1136C384.95 32.428 384.538 30.4583 384.538 28.2045C384.538 25.9318 384.95 23.9479 385.773 22.2528C386.607 20.5578 387.762 19.2415 389.239 18.304C390.726 17.3665 392.454 16.8977 394.424 16.8977C396.394 16.8977 398.117 17.3665 399.594 18.304C401.081 19.2415 402.237 20.5578 403.06 22.2528C403.894 23.9479 404.31 25.9318 404.31 28.2045C404.31 30.4583 403.894 32.428 403.06 34.1136C402.237 35.7992 401.081 37.1108 399.594 38.0483C398.117 38.9858 396.394 39.4545 394.424 39.4545ZM394.424 36.4432C395.92 36.4432 397.151 36.0597 398.117 35.2926C399.083 34.5256 399.798 33.517 400.262 32.267C400.726 31.017 400.958 29.6629 400.958 28.2045C400.958 26.7462 400.726 25.3873 400.262 24.1278C399.798 22.8684 399.083 21.8504 398.117 21.0739C397.151 20.2973 395.92 19.9091 394.424 19.9091C392.928 19.9091 391.697 20.2973 390.731 21.0739C389.765 21.8504 389.05 22.8684 388.586 24.1278C388.122 25.3873 387.89 26.7462 387.89 28.2045C387.89 29.6629 388.122 31.017 388.586 32.267C389.05 33.517 389.765 34.5256 390.731 35.2926C391.697 36.0597 392.928 36.4432 394.424 36.4432ZM390.333 13.5455C389.737 13.5455 389.206 13.3182 388.742 12.8636C388.288 12.3996 388.06 11.8693 388.06 11.2727C388.06 10.6193 388.288 10.0795 388.742 9.65341C389.206 9.2178 389.737 9 390.333 9C390.987 9 391.526 9.2178 391.952 9.65341C392.388 10.0795 392.606 10.6193 392.606 11.2727C392.606 11.8693 392.388 12.3996 391.952 12.8636C391.526 13.3182 390.987 13.5455 390.333 13.5455ZM398.515 13.5455C397.918 13.5455 397.388 13.3182 396.924 12.8636C396.469 12.3996 396.242 11.8693 396.242 11.2727C396.242 10.6193 396.469 10.0795 396.924 9.65341C397.388 9.2178 397.918 9 398.515 9C399.168 9 399.708 9.2178 400.134 9.65341C400.57 10.0795 400.788 10.6193 400.788 11.2727C400.788 11.8693 400.57 12.3996 400.134 12.8636C399.708 13.3182 399.168 13.5455 398.515 13.5455ZM409.428 39V17.1818H412.666V20.4773H412.893C413.291 19.3977 414.011 18.5218 415.053 17.8494C416.094 17.1771 417.268 16.8409 418.575 16.8409C418.821 16.8409 419.129 16.8456 419.499 16.8551C419.868 16.8646 420.147 16.8788 420.337 16.8977V20.3068C420.223 20.2784 419.963 20.2358 419.555 20.179C419.158 20.1127 418.736 20.0795 418.291 20.0795C417.231 20.0795 416.284 20.3021 415.45 20.7472C414.626 21.1828 413.973 21.7888 413.49 22.5653C413.017 23.3324 412.78 24.2083 412.78 25.1932V39H409.428ZM435.166 17.1818V20.0227H423.859V17.1818H435.166ZM427.155 11.9545H430.507V32.75C430.507 33.697 430.644 34.4072 430.919 34.8807C431.203 35.3447 431.563 35.6572 431.999 35.8182C432.444 35.9697 432.912 36.0455 433.405 36.0455C433.774 36.0455 434.077 36.0265 434.314 35.9886C434.551 35.9413 434.74 35.9034 434.882 35.875L435.564 38.8864C435.337 38.9716 435.019 39.0568 434.612 39.142C434.205 39.2367 433.689 39.2841 433.064 39.2841C432.117 39.2841 431.189 39.0805 430.28 38.6733C429.38 38.2661 428.632 37.6458 428.036 36.8125C427.448 35.9792 427.155 34.928 427.155 33.6591V11.9545ZM449.122 39.4545C447.02 39.4545 445.206 38.9905 443.682 38.0625C442.167 37.125 440.997 35.8182 440.173 34.142C439.359 32.4564 438.952 30.4962 438.952 28.2614C438.952 26.0265 439.359 24.0568 440.173 22.3523C440.997 20.6383 442.143 19.303 443.611 18.3466C445.088 17.3807 446.812 16.8977 448.781 16.8977C449.918 16.8977 451.04 17.0871 452.148 17.4659C453.256 17.8447 454.264 18.4602 455.173 19.3125C456.082 20.1553 456.807 21.2727 457.347 22.6648C457.886 24.0568 458.156 25.7708 458.156 27.8068V29.2273H441.338V26.3295H454.747C454.747 25.0985 454.501 24 454.009 23.0341C453.526 22.0682 452.834 21.3059 451.935 20.7472C451.045 20.1884 449.993 19.9091 448.781 19.9091C447.446 19.9091 446.291 20.2405 445.315 20.9034C444.349 21.5568 443.606 22.4091 443.085 23.4602C442.564 24.5114 442.304 25.6383 442.304 26.8409V28.7727C442.304 30.4205 442.588 31.8172 443.156 32.9631C443.734 34.0994 444.534 34.9659 445.557 35.5625C446.58 36.1496 447.768 36.4432 449.122 36.4432C450.003 36.4432 450.798 36.3201 451.509 36.0739C452.228 35.8182 452.848 35.4394 453.369 34.9375C453.89 34.4261 454.293 33.7917 454.577 33.0341L457.815 33.9432C457.474 35.0417 456.902 36.0076 456.097 36.8409C455.292 37.6648 454.297 38.3087 453.114 38.7727C451.93 39.2273 450.599 39.4545 449.122 39.4545ZM463.256 39V17.1818H466.494V20.4773H466.722C467.119 19.3977 467.839 18.5218 468.881 17.8494C469.922 17.1771 471.097 16.8409 472.403 16.8409C472.65 16.8409 472.957 16.8456 473.327 16.8551C473.696 16.8646 473.975 16.8788 474.165 16.8977V20.3068C474.051 20.2784 473.791 20.2358 473.384 20.179C472.986 20.1127 472.564 20.0795 472.119 20.0795C471.059 20.0795 470.112 20.3021 469.278 20.7472C468.455 21.1828 467.801 21.7888 467.318 22.5653C466.845 23.3324 466.608 24.2083 466.608 25.1932V39H463.256Z" fill="white"/>
<g filter="url(#filter0_d_591_3172)">
<path d="M139.486 130.451L166.711 177.084C170.296 183.224 176.872 187 183.983 187H437.036C449.173 187 458.513 176.276 456.846 164.253L446.177 87.3057C444.687 76.5638 434.908 68.966 424.132 70.1778L154.523 100.492C140.156 102.108 132.197 117.965 139.486 130.451Z" fill="white"/>
</g>
<rect x="390" y="78" width="48" height="48" rx="24" fill="#FBA200"/>
<path d="M414.536 110.266L414 109.926L413.464 110.266L406.228 114.864L408.166 106.116L408.292 105.551L407.864 105.161L401.355 99.2253L409.874 98.4645L410.484 98.41L410.713 97.8419L414 89.6774L417.287 97.8419L417.516 98.41L418.126 98.4645L426.645 99.2253L420.136 105.161L419.708 105.551L419.834 106.116L421.772 114.864L414.536 110.266Z" fill="#FFD037" stroke="#575988" stroke-width="2"/>
<rect x="390" y="78" width="48" height="48" rx="24" stroke="black" stroke-width="2"/>
<path d="M192.545 164H186.636L203.727 117.455H209.545L226.636 164H220.727L206.818 124.818H206.455L192.545 164ZM194.727 145.818H218.545V150.818H194.727V145.818ZM247.341 164.727C244.068 164.727 241.25 163.955 238.886 162.409C236.523 160.864 234.705 158.735 233.432 156.023C232.159 153.311 231.523 150.212 231.523 146.727C231.523 143.182 232.174 140.053 233.477 137.341C234.795 134.614 236.629 132.485 238.977 130.955C241.341 129.409 244.098 128.636 247.25 128.636C249.705 128.636 251.917 129.091 253.886 130C255.856 130.909 257.47 132.182 258.727 133.818C259.985 135.455 260.765 137.364 261.068 139.545H255.705C255.295 137.955 254.386 136.545 252.977 135.318C251.583 134.076 249.705 133.455 247.341 133.455C245.25 133.455 243.417 134 241.841 135.091C240.28 136.167 239.061 137.689 238.182 139.659C237.318 141.614 236.886 143.909 236.886 146.545C236.886 149.242 237.311 151.591 238.159 153.591C239.023 155.591 240.235 157.144 241.795 158.25C243.371 159.356 245.22 159.909 247.341 159.909C248.735 159.909 250 159.667 251.136 159.182C252.273 158.697 253.235 158 254.023 157.091C254.811 156.182 255.371 155.091 255.705 153.818H261.068C260.765 155.879 260.015 157.735 258.818 159.386C257.636 161.023 256.068 162.326 254.114 163.295C252.174 164.25 249.917 164.727 247.341 164.727ZM274.273 143V164H268.909V117.455H274.273V134.545H274.727C275.545 132.742 276.773 131.311 278.409 130.25C280.061 129.174 282.258 128.636 285 128.636C287.379 128.636 289.462 129.114 291.25 130.068C293.038 131.008 294.424 132.455 295.409 134.409C296.409 136.348 296.909 138.818 296.909 141.818V164H291.545V142.182C291.545 139.409 290.826 137.265 289.386 135.75C287.962 134.22 285.985 133.455 283.455 133.455C281.697 133.455 280.121 133.826 278.727 134.568C277.348 135.311 276.258 136.394 275.455 137.818C274.667 139.242 274.273 140.97 274.273 143ZM321.903 129.091V133.636H303.812V129.091H321.903ZM309.085 120.727H314.449V154C314.449 155.515 314.669 156.652 315.108 157.409C315.563 158.152 316.138 158.652 316.835 158.909C317.547 159.152 318.297 159.273 319.085 159.273C319.676 159.273 320.161 159.242 320.54 159.182C320.919 159.106 321.222 159.045 321.449 159L322.54 163.818C322.176 163.955 321.669 164.091 321.017 164.227C320.366 164.379 319.54 164.455 318.54 164.455C317.025 164.455 315.54 164.129 314.085 163.477C312.646 162.826 311.449 161.833 310.494 160.5C309.555 159.167 309.085 157.485 309.085 155.455V120.727ZM351.972 149.727V129.091H357.335V164H351.972V158.091H351.608C350.79 159.864 349.517 161.371 347.79 162.614C346.063 163.841 343.881 164.455 341.244 164.455C339.062 164.455 337.123 163.977 335.426 163.023C333.729 162.053 332.396 160.598 331.426 158.659C330.456 156.705 329.972 154.242 329.972 151.273V129.091H335.335V150.909C335.335 153.455 336.047 155.485 337.472 157C338.911 158.515 340.744 159.273 342.972 159.273C344.305 159.273 345.661 158.932 347.04 158.25C348.434 157.568 349.6 156.523 350.54 155.114C351.494 153.705 351.972 151.909 351.972 149.727ZM372.523 143V164H367.159V129.091H372.341V134.545H372.795C373.614 132.773 374.856 131.348 376.523 130.273C378.189 129.182 380.341 128.636 382.977 128.636C385.341 128.636 387.409 129.121 389.182 130.091C390.955 131.045 392.333 132.5 393.318 134.455C394.303 136.394 394.795 138.848 394.795 141.818V164H389.432V142.182C389.432 139.439 388.72 137.303 387.295 135.773C385.871 134.227 383.917 133.455 381.432 133.455C379.72 133.455 378.189 133.826 376.841 134.568C375.508 135.311 374.455 136.394 373.682 137.818C372.909 139.242 372.523 140.97 372.523 143ZM418.688 177.818C416.097 177.818 413.869 177.485 412.006 176.818C410.142 176.167 408.589 175.303 407.347 174.227C406.119 173.167 405.142 172.03 404.415 170.818L408.688 167.818C409.172 168.455 409.786 169.182 410.528 170C411.271 170.833 412.286 171.553 413.574 172.159C414.877 172.78 416.581 173.091 418.688 173.091C421.506 173.091 423.831 172.409 425.665 171.045C427.498 169.682 428.415 167.545 428.415 164.636V157.545H427.96C427.566 158.182 427.006 158.97 426.278 159.909C425.566 160.833 424.536 161.659 423.188 162.386C421.854 163.098 420.051 163.455 417.778 163.455C414.96 163.455 412.43 162.788 410.188 161.455C407.96 160.121 406.195 158.182 404.892 155.636C403.604 153.091 402.96 150 402.96 146.364C402.96 142.788 403.589 139.674 404.847 137.023C406.104 134.356 407.854 132.295 410.097 130.841C412.339 129.371 414.93 128.636 417.869 128.636C420.142 128.636 421.945 129.015 423.278 129.773C424.627 130.515 425.657 131.364 426.369 132.318C427.097 133.258 427.657 134.03 428.051 134.636H428.597V129.091H433.778V165C433.778 168 433.097 170.439 431.733 172.318C430.384 174.212 428.566 175.598 426.278 176.477C424.006 177.371 421.475 177.818 418.688 177.818ZM418.506 158.636C420.657 158.636 422.475 158.144 423.96 157.159C425.445 156.174 426.574 154.758 427.347 152.909C428.119 151.061 428.506 148.848 428.506 146.273C428.506 143.758 428.127 141.538 427.369 139.614C426.612 137.689 425.491 136.182 424.006 135.091C422.521 134 420.688 133.455 418.506 133.455C416.233 133.455 414.339 134.03 412.824 135.182C411.324 136.333 410.195 137.879 409.438 139.818C408.695 141.758 408.324 143.909 408.324 146.273C408.324 148.697 408.703 150.841 409.46 152.705C410.233 154.553 411.369 156.008 412.869 157.068C414.384 158.114 416.263 158.636 418.506 158.636Z" fill="black"/>
<path d="M146.402 229.07L150 220.117L149.285 217.82C149.035 217.039 148.805 216.551 148.594 216.355C148.383 216.16 148.051 216.062 147.598 216.062C147.473 216.062 147.375 216.066 147.305 216.074C147.242 216.074 147.184 216.078 147.129 216.086L147.117 215.277C147.836 215.316 148.414 215.348 148.852 215.371C149.289 215.387 149.664 215.395 149.977 215.395C150.273 215.395 150.652 215.387 151.113 215.371C151.582 215.348 152.211 215.316 153 215.277V216.086H152.684C152.121 216.086 151.75 216.141 151.57 216.25C151.391 216.352 151.301 216.547 151.301 216.836C151.301 217.008 151.328 217.219 151.383 217.469C151.445 217.719 151.586 218.172 151.805 218.828L155.133 229.07C155.438 228.219 155.852 227.039 156.375 225.531C158.203 220.344 159.117 217.5 159.117 217C159.117 216.648 159.023 216.41 158.836 216.285C158.648 216.152 158.262 216.086 157.676 216.086H157.371V215.277C157.863 215.309 158.332 215.332 158.777 215.348C159.23 215.363 159.641 215.371 160.008 215.371C160.43 215.371 160.859 215.363 161.297 215.348C161.742 215.332 162.191 215.309 162.645 215.277V216.086H162.457C162.238 216.086 162.051 216.105 161.895 216.145C161.746 216.184 161.613 216.246 161.496 216.332C161.246 216.527 160.555 218.137 159.422 221.16L158.906 222.543L157.922 225.133C157.633 225.906 157.25 226.922 156.773 228.18C155.914 230.438 155.441 231.773 155.355 232.188H153.984C153.875 231.781 153.707 231.23 153.48 230.535C153.402 230.301 153.348 230.137 153.316 230.043L150.598 221.875L147.434 229.738C147.41 229.801 147.363 229.918 147.293 230.09C146.965 230.848 146.715 231.547 146.543 232.188H145.172C145.117 231.797 144.656 230.414 143.789 228.039C143.383 226.922 143.062 226.035 142.828 225.379L141.551 221.875C141.34 221.281 141.07 220.496 140.742 219.52C139.953 217.199 139.23 216.039 138.574 216.039C138.535 216.039 138.488 216.043 138.434 216.051C138.387 216.059 138.316 216.07 138.223 216.086L138.211 215.277C138.711 215.309 139.184 215.332 139.629 215.348C140.074 215.363 140.484 215.371 140.859 215.371C141.305 215.371 141.762 215.363 142.23 215.348C142.699 215.332 143.176 215.309 143.66 215.277V216.086C143.098 216.086 142.727 216.137 142.547 216.238C142.367 216.34 142.277 216.539 142.277 216.836C142.277 217.156 142.469 217.859 142.852 218.945L142.898 219.062L146.402 229.07ZM163.781 215.277C164.328 215.309 164.871 215.332 165.41 215.348C165.949 215.363 166.477 215.371 166.992 215.371C167.43 215.371 167.918 215.363 168.457 215.348C168.996 215.332 169.566 215.309 170.168 215.277V216.086H169.969C169.461 216.086 169.078 216.145 168.82 216.262C168.57 216.379 168.395 216.574 168.293 216.848C168.23 217.027 168.184 217.32 168.152 217.727C168.129 218.125 168.117 218.777 168.117 219.684V222.016V227.852C168.117 228.773 168.137 229.422 168.176 229.797C168.223 230.172 168.293 230.449 168.387 230.629C168.488 230.824 168.668 230.965 168.926 231.051C169.191 231.137 169.562 231.18 170.039 231.18H170.285V232C169.613 231.969 168.992 231.945 168.422 231.93C167.852 231.914 167.375 231.906 166.992 231.906C166.539 231.906 166.027 231.914 165.457 231.93C164.887 231.945 164.289 231.969 163.664 232V231.18H163.898C164.383 231.18 164.754 231.137 165.012 231.051C165.27 230.965 165.449 230.824 165.551 230.629C165.66 230.418 165.734 230.074 165.773 229.598C165.82 229.113 165.844 228.242 165.844 226.984V225.133V220.551C165.844 219.324 165.828 218.453 165.797 217.938C165.766 217.414 165.715 217.051 165.645 216.848C165.551 216.574 165.379 216.379 165.129 216.262C164.887 216.145 164.508 216.086 163.992 216.086H163.781V215.277ZM172.195 215.277C173.562 215.324 174.785 215.359 175.863 215.383C176.941 215.406 177.871 215.418 178.652 215.418C179.52 215.418 180.395 215.406 181.277 215.383C182.168 215.359 183.07 215.324 183.984 215.277C183.992 215.863 184.016 216.465 184.055 217.082C184.094 217.691 184.141 218.305 184.195 218.922L183.41 218.992C183.348 218.055 183.059 217.422 182.543 217.094C182.027 216.758 180.914 216.59 179.203 216.59C178.766 216.59 177.965 216.602 176.801 216.625C176.566 216.633 176.395 216.637 176.285 216.637C176.27 217.574 176.246 218.723 176.215 220.082C176.184 221.441 176.164 222.324 176.156 222.73H176.52C176.98 222.73 177.555 222.738 178.242 222.754C178.938 222.762 179.402 222.766 179.637 222.766C180.77 222.766 181.516 222.66 181.875 222.449C182.242 222.238 182.441 221.848 182.473 221.277L183.211 221.348C183.156 221.832 183.113 222.281 183.082 222.695C183.059 223.109 183.047 223.492 183.047 223.844C183.047 224.047 183.066 224.484 183.105 225.156C183.121 225.398 183.133 225.582 183.141 225.707L182.379 225.73V225.637C182.379 224.973 182.184 224.523 181.793 224.289C181.41 224.055 180.508 223.938 179.086 223.938H177H176.156C176.156 224.32 176.152 224.852 176.145 225.531C176.137 226.203 176.133 226.688 176.133 226.984C176.133 227.5 176.137 228.039 176.145 228.602C176.152 229.156 176.168 229.809 176.191 230.559C176.582 230.605 177.023 230.641 177.516 230.664C178.016 230.688 178.562 230.699 179.156 230.699C181.117 230.699 182.406 230.512 183.023 230.137C183.648 229.754 184.145 229.023 184.512 227.945L185.355 228.227C185.121 228.875 184.914 229.512 184.734 230.137C184.555 230.762 184.398 231.383 184.266 232C183.039 231.953 181.898 231.918 180.844 231.895C179.789 231.871 178.836 231.859 177.984 231.859C176.82 231.859 174.945 231.902 172.359 231.988L171.938 232V231.238C171.992 231.246 172.043 231.254 172.09 231.262C172.145 231.262 172.223 231.262 172.324 231.262C173.363 231.262 173.891 229.801 173.906 226.879C173.914 226.145 173.922 225.57 173.93 225.156L173.977 221.957C173.984 221.27 173.988 220.602 173.988 219.953C173.996 219.305 174 218.602 174 217.844C174 217.172 173.875 216.707 173.625 216.449C173.375 216.191 172.93 216.062 172.289 216.062H172.195V215.277ZM203.953 215.781C203.953 216.359 203.984 216.93 204.047 217.492C204.117 218.055 204.223 218.609 204.363 219.156L203.449 219.332C203.316 218.363 202.941 217.645 202.324 217.176C201.715 216.707 200.852 216.473 199.734 216.473C198.703 216.473 197.863 216.723 197.215 217.223C196.574 217.723 196.254 218.367 196.254 219.156C196.254 220.453 197.629 221.562 200.379 222.484C200.746 222.602 201.027 222.695 201.223 222.766C202.48 223.203 203.406 223.766 204 224.453C204.594 225.133 204.891 225.977 204.891 226.984C204.891 228.539 204.301 229.801 203.121 230.77C201.941 231.73 200.379 232.211 198.434 232.211C197.691 232.211 196.965 232.148 196.254 232.023C195.551 231.906 194.836 231.719 194.109 231.461C194.117 231.383 194.121 231.293 194.121 231.191C194.129 231.082 194.133 230.926 194.133 230.723C194.133 230.168 194.102 229.621 194.039 229.082C193.977 228.543 193.883 228.004 193.758 227.465L194.812 227.219C194.945 228.5 195.348 229.438 196.02 230.031C196.691 230.625 197.688 230.922 199.008 230.922C200.164 230.922 201.105 230.633 201.832 230.055C202.559 229.469 202.922 228.719 202.922 227.805C202.922 226.508 201.789 225.5 199.523 224.781C199.203 224.68 198.953 224.598 198.773 224.535C197.203 224.027 196.078 223.406 195.398 222.672C194.719 221.938 194.379 221 194.379 219.859C194.379 218.516 194.91 217.395 195.973 216.496C197.035 215.598 198.367 215.148 199.969 215.148C200.555 215.148 201.148 215.195 201.75 215.289C202.352 215.383 203.086 215.547 203.953 215.781ZM221.309 215.805V216.203C221.309 216.75 221.328 217.32 221.367 217.914C221.406 218.5 221.465 219.117 221.543 219.766L220.688 219.906C220.531 218.781 220 217.906 219.094 217.281C218.188 216.648 217.004 216.332 215.543 216.332C213.598 216.332 212.094 216.93 211.031 218.125C209.977 219.312 209.449 221 209.449 223.188C209.449 225.523 210.055 227.414 211.266 228.859C212.484 230.297 214.062 231.016 216 231.016C217.219 231.016 218.273 230.734 219.164 230.172C220.062 229.609 220.762 228.785 221.262 227.699L222.047 228.086C221.797 228.594 221.57 229.113 221.367 229.645C221.164 230.168 220.984 230.695 220.828 231.227C219.984 231.609 219.125 231.898 218.25 232.094C217.375 232.289 216.496 232.387 215.613 232.387C213.02 232.387 210.918 231.586 209.309 229.984C207.707 228.375 206.906 226.262 206.906 223.645C206.906 221.066 207.754 218.969 209.449 217.352C211.145 215.727 213.336 214.914 216.023 214.914C216.82 214.914 217.66 214.988 218.543 215.137C219.434 215.285 220.355 215.508 221.309 215.805ZM223.805 215.277C224.359 215.309 224.891 215.332 225.398 215.348C225.906 215.363 226.367 215.371 226.781 215.371C227.258 215.371 227.746 215.363 228.246 215.348C228.746 215.332 229.258 215.309 229.781 215.277V216.086H229.465C228.824 216.086 228.391 216.258 228.164 216.602C227.945 216.938 227.836 217.84 227.836 219.309V219.883V222.766C228.344 222.781 228.879 222.793 229.441 222.801C230.012 222.809 230.805 222.812 231.82 222.812C232.859 222.812 233.762 222.809 234.527 222.801C235.301 222.793 236.086 222.781 236.883 222.766V219.496C236.883 217.941 236.77 216.984 236.543 216.625C236.324 216.266 235.895 216.086 235.254 216.086H234.938V215.277C235.461 215.309 235.973 215.332 236.473 215.348C236.98 215.363 237.477 215.371 237.961 215.371C238.375 215.371 238.832 215.363 239.332 215.348C239.832 215.332 240.359 215.309 240.914 215.277V216.086C240.875 216.086 240.82 216.082 240.75 216.074C240.68 216.066 240.629 216.062 240.598 216.062C239.996 216.062 239.586 216.254 239.367 216.637C239.148 217.012 239.039 217.82 239.039 219.062C239.039 219.297 239.043 219.742 239.051 220.398C239.059 221.055 239.062 221.594 239.062 222.016V225.133C239.062 225.555 239.059 226.098 239.051 226.762C239.043 227.418 239.039 227.867 239.039 228.109C239.039 229.391 239.148 230.227 239.367 230.617C239.586 231.008 239.996 231.203 240.598 231.203C240.707 231.203 240.789 231.203 240.844 231.203C240.906 231.195 240.961 231.191 241.008 231.191V232C240.391 231.969 239.816 231.945 239.285 231.93C238.762 231.914 238.32 231.906 237.961 231.906C237.539 231.906 237.062 231.914 236.531 231.93C236.008 231.945 235.445 231.969 234.844 232V231.18C234.891 231.18 234.961 231.184 235.055 231.191C235.148 231.199 235.215 231.203 235.254 231.203C235.895 231.203 236.324 231.027 236.543 230.676C236.77 230.324 236.883 229.477 236.883 228.133V226.715V224.148H236.73C234.723 224.117 233.254 224.102 232.324 224.102C231.621 224.102 230.949 224.109 230.309 224.125C230.223 224.125 230.176 224.125 230.168 224.125C229.832 224.125 229.469 224.129 229.078 224.137C228.688 224.137 228.273 224.141 227.836 224.148V226.938V227.875C227.836 229.375 227.949 230.305 228.176 230.664C228.402 231.023 228.84 231.203 229.488 231.203C229.527 231.203 229.594 231.199 229.688 231.191C229.781 231.184 229.852 231.18 229.898 231.18V232C229.297 231.969 228.73 231.945 228.199 231.93C227.676 231.914 227.203 231.906 226.781 231.906C226.422 231.906 225.98 231.914 225.457 231.93C224.934 231.945 224.359 231.969 223.734 232V231.191C223.781 231.191 223.832 231.195 223.887 231.203C223.949 231.203 224.031 231.203 224.133 231.203C224.742 231.203 225.156 231.008 225.375 230.617C225.594 230.227 225.703 229.391 225.703 228.109C225.703 227.867 225.699 227.418 225.691 226.762C225.684 226.098 225.68 225.555 225.68 225.133V222.016C225.68 221.625 225.684 221.129 225.691 220.527C225.699 219.918 225.703 219.504 225.703 219.285C225.703 217.934 225.59 217.059 225.363 216.66C225.145 216.262 224.727 216.062 224.109 216.062C224.086 216.062 224.039 216.066 223.969 216.074C223.898 216.082 223.844 216.086 223.805 216.086V215.277ZM248.953 215.277V216.086C248.906 216.086 248.84 216.082 248.754 216.074C248.668 216.066 248.605 216.062 248.566 216.062C247.949 216.062 247.531 216.266 247.312 216.672C247.094 217.078 246.984 218.043 246.984 219.566V221.418V223.844C246.984 225.109 247.023 226.043 247.102 226.645C247.18 227.246 247.309 227.742 247.488 228.133C247.871 228.977 248.434 229.621 249.176 230.066C249.926 230.504 250.828 230.723 251.883 230.723C252.672 230.723 253.363 230.609 253.957 230.383C254.551 230.156 255.059 229.809 255.48 229.34C255.902 228.871 256.199 228.297 256.371 227.617C256.543 226.938 256.629 225.805 256.629 224.219C256.629 222.312 256.605 220.711 256.559 219.414C256.52 218.109 256.465 217.32 256.395 217.047C256.285 216.688 256.113 216.438 255.879 216.297C255.652 216.156 255.281 216.086 254.766 216.086H254.59V215.277C254.684 215.277 254.82 215.281 255 215.289C256.078 215.344 256.848 215.371 257.309 215.371C257.762 215.371 258.527 215.344 259.605 215.289C259.793 215.281 259.93 215.277 260.016 215.277V216.086H259.875C259.414 216.086 259.066 216.145 258.832 216.262C258.605 216.379 258.441 216.574 258.34 216.848C258.254 217.074 258.191 217.672 258.152 218.641C258.113 219.602 258.094 221.16 258.094 223.316V224.488C258.094 225.723 258.047 226.668 257.953 227.324C257.859 227.973 257.707 228.547 257.496 229.047C257.059 230.086 256.305 230.902 255.234 231.496C254.164 232.09 252.902 232.387 251.449 232.387C250.441 232.387 249.512 232.238 248.66 231.941C247.816 231.645 247.098 231.215 246.504 230.652C245.855 230.059 245.395 229.359 245.121 228.555C244.848 227.742 244.711 226.609 244.711 225.156C244.711 224.594 244.719 223.676 244.734 222.402C244.75 221.121 244.758 220.121 244.758 219.402V219.039C244.758 217.695 244.645 216.867 244.418 216.555C244.199 216.242 243.766 216.086 243.117 216.086H242.906V215.277C243.461 215.309 243.988 215.332 244.488 215.348C244.988 215.363 245.445 215.371 245.859 215.371C246.359 215.371 246.867 215.363 247.383 215.348C247.898 215.332 248.422 215.309 248.953 215.277ZM254.262 210.18C254.566 210.18 254.891 210.336 255.234 210.648C255.578 210.961 255.75 211.262 255.75 211.551C255.75 211.832 255.578 212.129 255.234 212.441C254.891 212.754 254.566 212.91 254.262 212.91C253.949 212.91 253.625 212.758 253.289 212.453C252.961 212.141 252.797 211.84 252.797 211.551C252.797 211.27 252.965 210.973 253.301 210.66C253.637 210.34 253.957 210.18 254.262 210.18ZM249.27 210.18C249.574 210.18 249.895 210.336 250.23 210.648C250.566 210.961 250.734 211.262 250.734 211.551C250.734 211.832 250.566 212.129 250.23 212.441C249.895 212.754 249.574 212.91 249.27 212.91C248.957 212.91 248.633 212.758 248.297 212.453C247.969 212.141 247.805 211.84 247.805 211.551C247.805 211.27 247.973 210.973 248.309 210.66C248.645 210.34 248.965 210.18 249.27 210.18ZM264.75 231.18H265.16C265.715 231.18 266.109 231.113 266.344 230.98C266.578 230.84 266.742 230.586 266.836 230.219C266.906 229.977 266.953 229.098 266.977 227.582C267.008 226.066 267.023 223.707 267.023 220.504V216.766H264.656C263.508 216.766 262.73 216.922 262.324 217.234C261.926 217.539 261.629 218.188 261.434 219.18L260.672 219.016C260.82 218.336 260.934 217.668 261.012 217.012C261.09 216.355 261.129 215.711 261.129 215.078C261.363 215.227 261.836 215.332 262.547 215.395C263.266 215.457 264.52 215.488 266.309 215.488H269.168C271.543 215.488 273.07 215.461 273.75 215.406C274.438 215.344 274.918 215.234 275.191 215.078C275.191 215.156 275.188 215.281 275.18 215.453C275.172 215.617 275.168 215.742 275.168 215.828C275.168 216.32 275.188 216.828 275.227 217.352C275.273 217.875 275.34 218.414 275.426 218.969L274.688 219.109C274.594 218.227 274.352 217.625 273.961 217.305C273.578 216.984 272.766 216.805 271.523 216.766H269.309C269.301 217.211 269.293 217.84 269.285 218.652C269.27 220.785 269.262 222.219 269.262 222.953C269.262 225.727 269.277 227.605 269.309 228.59C269.348 229.574 269.41 230.188 269.496 230.43C269.598 230.711 269.766 230.906 270 231.016C270.234 231.125 270.594 231.18 271.078 231.18H271.488V232C270.84 231.969 270.227 231.945 269.648 231.93C269.078 231.914 268.566 231.906 268.113 231.906C267.715 231.906 267.223 231.914 266.637 231.93C266.059 231.945 265.43 231.969 264.75 232V231.18ZM277.805 215.277C278.453 215.348 279.207 215.402 280.066 215.441C280.934 215.473 282.129 215.488 283.652 215.488H285.047H286.441C287.387 215.488 288.203 215.473 288.891 215.441C289.578 215.402 290.234 215.348 290.859 215.277L291.188 215.922C290.891 216.195 290.59 216.504 290.285 216.848C289.988 217.184 289.652 217.602 289.277 218.102L280.02 230.441C280.512 230.449 281.023 230.457 281.555 230.465C282.094 230.465 282.844 230.465 283.805 230.465C285.289 230.465 286.422 230.445 287.203 230.406C287.992 230.367 288.578 230.305 288.961 230.219C289.406 230.133 289.797 229.879 290.133 229.457C290.469 229.027 290.781 228.387 291.07 227.535L291.867 227.781C291.617 228.523 291.402 229.242 291.223 229.938C291.051 230.633 290.914 231.32 290.812 232C289.922 231.914 288.875 231.848 287.672 231.801C286.477 231.754 285.09 231.73 283.512 231.73H282.621C281.309 231.73 280.211 231.754 279.328 231.801C278.453 231.84 277.617 231.906 276.82 232L276.434 231.309C276.848 230.965 277.391 230.344 278.062 229.445C278.148 229.336 278.215 229.25 278.262 229.188L287.52 216.766H283.582C281.324 216.766 279.863 216.934 279.199 217.27C278.535 217.605 278.117 218.25 277.945 219.203L277.172 218.992C277.359 218.406 277.504 217.809 277.605 217.199C277.707 216.582 277.773 215.941 277.805 215.277ZM293.133 215.277C294.5 215.324 295.723 215.359 296.801 215.383C297.879 215.406 298.809 215.418 299.59 215.418C300.457 215.418 301.332 215.406 302.215 215.383C303.105 215.359 304.008 215.324 304.922 215.277C304.93 215.863 304.953 216.465 304.992 217.082C305.031 217.691 305.078 218.305 305.133 218.922L304.348 218.992C304.285 218.055 303.996 217.422 303.48 217.094C302.965 216.758 301.852 216.59 300.141 216.59C299.703 216.59 298.902 216.602 297.738 216.625C297.504 216.633 297.332 216.637 297.223 216.637C297.207 217.574 297.184 218.723 297.152 220.082C297.121 221.441 297.102 222.324 297.094 222.73H297.457C297.918 222.73 298.492 222.738 299.18 222.754C299.875 222.762 300.34 222.766 300.574 222.766C301.707 222.766 302.453 222.66 302.812 222.449C303.18 222.238 303.379 221.848 303.41 221.277L304.148 221.348C304.094 221.832 304.051 222.281 304.02 222.695C303.996 223.109 303.984 223.492 303.984 223.844C303.984 224.047 304.004 224.484 304.043 225.156C304.059 225.398 304.07 225.582 304.078 225.707L303.316 225.73V225.637C303.316 224.973 303.121 224.523 302.73 224.289C302.348 224.055 301.445 223.938 300.023 223.938H297.938H297.094C297.094 224.32 297.09 224.852 297.082 225.531C297.074 226.203 297.07 226.688 297.07 226.984C297.07 227.5 297.074 228.039 297.082 228.602C297.09 229.156 297.105 229.809 297.129 230.559C297.52 230.605 297.961 230.641 298.453 230.664C298.953 230.688 299.5 230.699 300.094 230.699C302.055 230.699 303.344 230.512 303.961 230.137C304.586 229.754 305.082 229.023 305.449 227.945L306.293 228.227C306.059 228.875 305.852 229.512 305.672 230.137C305.492 230.762 305.336 231.383 305.203 232C303.977 231.953 302.836 231.918 301.781 231.895C300.727 231.871 299.773 231.859 298.922 231.859C297.758 231.859 295.883 231.902 293.297 231.988L292.875 232V231.238C292.93 231.246 292.98 231.254 293.027 231.262C293.082 231.262 293.16 231.262 293.262 231.262C294.301 231.262 294.828 229.801 294.844 226.879C294.852 226.145 294.859 225.57 294.867 225.156L294.914 221.957C294.922 221.27 294.926 220.602 294.926 219.953C294.934 219.305 294.938 218.602 294.938 217.844C294.938 217.172 294.812 216.707 294.562 216.449C294.312 216.191 293.867 216.062 293.227 216.062H293.133V215.277ZM307.91 215.277C308.277 215.309 308.633 215.332 308.977 215.348C309.328 215.363 309.672 215.371 310.008 215.371C310.258 215.371 310.551 215.363 310.887 215.348C311.223 215.332 311.586 215.309 311.977 215.277C312.078 215.535 312.219 215.801 312.398 216.074C312.578 216.348 312.805 216.648 313.078 216.977L322.746 228.414C322.723 227.227 322.699 225.652 322.676 223.691C322.613 219.574 322.543 217.359 322.465 217.047C322.371 216.688 322.203 216.438 321.961 216.297C321.727 216.156 321.34 216.086 320.801 216.086H320.438V215.277C320.531 215.277 320.672 215.281 320.859 215.289C321.969 215.344 322.75 215.371 323.203 215.371C323.664 215.371 324.469 215.344 325.617 215.289C325.781 215.281 325.906 215.277 325.992 215.277L325.98 216.086C325.934 216.078 325.883 216.074 325.828 216.074C325.773 216.066 325.699 216.062 325.605 216.062C324.559 216.062 324.027 217.52 324.012 220.434C324.004 221.168 324 221.742 324 222.156L323.953 225.273C323.938 225.734 323.926 226.211 323.918 226.703C323.918 227.188 323.918 227.855 323.918 228.707C323.918 229.652 323.93 230.391 323.953 230.922C323.977 231.445 324.016 231.867 324.07 232.188H322.77C322.637 231.875 322.164 231.25 321.352 230.312L321.234 230.172L311.18 218.348V218.617C311.227 225.93 311.305 229.797 311.414 230.219C311.508 230.578 311.672 230.828 311.906 230.969C312.148 231.109 312.531 231.18 313.055 231.18H313.406V232C313.289 231.992 313.117 231.984 312.891 231.977C311.797 231.93 311.051 231.906 310.652 231.906C310.27 231.906 309.844 231.914 309.375 231.93C308.914 231.945 308.426 231.969 307.91 232V231.191C307.957 231.191 308.008 231.195 308.062 231.203C308.125 231.203 308.203 231.203 308.297 231.203C309.344 231.203 309.875 229.754 309.891 226.855C309.898 226.121 309.902 225.547 309.902 225.133L309.961 222.016C309.969 221.344 309.973 220.691 309.973 220.059C309.98 219.418 309.984 218.688 309.984 217.867C309.984 217.195 309.855 216.73 309.598 216.473C309.34 216.215 308.883 216.086 308.227 216.086H307.91V215.277ZM344.297 215.781C344.297 216.359 344.328 216.93 344.391 217.492C344.461 218.055 344.566 218.609 344.707 219.156L343.793 219.332C343.66 218.363 343.285 217.645 342.668 217.176C342.059 216.707 341.195 216.473 340.078 216.473C339.047 216.473 338.207 216.723 337.559 217.223C336.918 217.723 336.598 218.367 336.598 219.156C336.598 220.453 337.973 221.562 340.723 222.484C341.09 222.602 341.371 222.695 341.566 222.766C342.824 223.203 343.75 223.766 344.344 224.453C344.938 225.133 345.234 225.977 345.234 226.984C345.234 228.539 344.645 229.801 343.465 230.77C342.285 231.73 340.723 232.211 338.777 232.211C338.035 232.211 337.309 232.148 336.598 232.023C335.895 231.906 335.18 231.719 334.453 231.461C334.461 231.383 334.465 231.293 334.465 231.191C334.473 231.082 334.477 230.926 334.477 230.723C334.477 230.168 334.445 229.621 334.383 229.082C334.32 228.543 334.227 228.004 334.102 227.465L335.156 227.219C335.289 228.5 335.691 229.438 336.363 230.031C337.035 230.625 338.031 230.922 339.352 230.922C340.508 230.922 341.449 230.633 342.176 230.055C342.902 229.469 343.266 228.719 343.266 227.805C343.266 226.508 342.133 225.5 339.867 224.781C339.547 224.68 339.297 224.598 339.117 224.535C337.547 224.027 336.422 223.406 335.742 222.672C335.062 221.938 334.723 221 334.723 219.859C334.723 218.516 335.254 217.395 336.316 216.496C337.379 215.598 338.711 215.148 340.312 215.148C340.898 215.148 341.492 215.195 342.094 215.289C342.695 215.383 343.43 215.547 344.297 215.781ZM347.156 215.277C347.703 215.309 348.246 215.332 348.785 215.348C349.324 215.363 349.852 215.371 350.367 215.371C350.805 215.371 351.293 215.363 351.832 215.348C352.371 215.332 352.941 215.309 353.543 215.277V216.086H353.344C352.836 216.086 352.453 216.145 352.195 216.262C351.945 216.379 351.77 216.574 351.668 216.848C351.605 217.027 351.559 217.32 351.527 217.727C351.504 218.125 351.492 218.777 351.492 219.684V222.016V227.852C351.492 228.773 351.512 229.422 351.551 229.797C351.598 230.172 351.668 230.449 351.762 230.629C351.863 230.824 352.043 230.965 352.301 231.051C352.566 231.137 352.938 231.18 353.414 231.18H353.66V232C352.988 231.969 352.367 231.945 351.797 231.93C351.227 231.914 350.75 231.906 350.367 231.906C349.914 231.906 349.402 231.914 348.832 231.93C348.262 231.945 347.664 231.969 347.039 232V231.18H347.273C347.758 231.18 348.129 231.137 348.387 231.051C348.645 230.965 348.824 230.824 348.926 230.629C349.035 230.418 349.109 230.074 349.148 229.598C349.195 229.113 349.219 228.242 349.219 226.984V225.133V220.551C349.219 219.324 349.203 218.453 349.172 217.938C349.141 217.414 349.09 217.051 349.02 216.848C348.926 216.574 348.754 216.379 348.504 216.262C348.262 216.145 347.883 216.086 347.367 216.086H347.156V215.277ZM355.57 215.277C356.938 215.324 358.16 215.359 359.238 215.383C360.316 215.406 361.246 215.418 362.027 215.418C362.895 215.418 363.77 215.406 364.652 215.383C365.543 215.359 366.445 215.324 367.359 215.277C367.367 215.863 367.391 216.465 367.43 217.082C367.469 217.691 367.516 218.305 367.57 218.922L366.785 218.992C366.723 218.055 366.434 217.422 365.918 217.094C365.402 216.758 364.289 216.59 362.578 216.59C362.141 216.59 361.34 216.602 360.176 216.625C359.941 216.633 359.77 216.637 359.66 216.637C359.645 217.574 359.621 218.723 359.59 220.082C359.559 221.441 359.539 222.324 359.531 222.73H359.895C360.355 222.73 360.93 222.738 361.617 222.754C362.312 222.762 362.777 222.766 363.012 222.766C364.145 222.766 364.891 222.66 365.25 222.449C365.617 222.238 365.816 221.848 365.848 221.277L366.586 221.348C366.531 221.832 366.488 222.281 366.457 222.695C366.434 223.109 366.422 223.492 366.422 223.844C366.422 224.047 366.441 224.484 366.48 225.156C366.496 225.398 366.508 225.582 366.516 225.707L365.754 225.73V225.637C365.754 224.973 365.559 224.523 365.168 224.289C364.785 224.055 363.883 223.938 362.461 223.938H360.375H359.531C359.531 224.32 359.527 224.852 359.52 225.531C359.512 226.203 359.508 226.688 359.508 226.984C359.508 227.5 359.512 228.039 359.52 228.602C359.527 229.156 359.543 229.809 359.566 230.559C359.957 230.605 360.398 230.641 360.891 230.664C361.391 230.688 361.938 230.699 362.531 230.699C364.492 230.699 365.781 230.512 366.398 230.137C367.023 229.754 367.52 229.023 367.887 227.945L368.73 228.227C368.496 228.875 368.289 229.512 368.109 230.137C367.93 230.762 367.773 231.383 367.641 232C366.414 231.953 365.273 231.918 364.219 231.895C363.164 231.871 362.211 231.859 361.359 231.859C360.195 231.859 358.32 231.902 355.734 231.988L355.312 232V231.238C355.367 231.246 355.418 231.254 355.465 231.262C355.52 231.262 355.598 231.262 355.699 231.262C356.738 231.262 357.266 229.801 357.281 226.879C357.289 226.145 357.297 225.57 357.305 225.156L357.352 221.957C357.359 221.27 357.363 220.602 357.363 219.953C357.371 219.305 357.375 218.602 357.375 217.844C357.375 217.172 357.25 216.707 357 216.449C356.75 216.191 356.305 216.062 355.664 216.062H355.57V215.277ZM387.328 215.781C387.328 216.359 387.359 216.93 387.422 217.492C387.492 218.055 387.598 218.609 387.738 219.156L386.824 219.332C386.691 218.363 386.316 217.645 385.699 217.176C385.09 216.707 384.227 216.473 383.109 216.473C382.078 216.473 381.238 216.723 380.59 217.223C379.949 217.723 379.629 218.367 379.629 219.156C379.629 220.453 381.004 221.562 383.754 222.484C384.121 222.602 384.402 222.695 384.598 222.766C385.855 223.203 386.781 223.766 387.375 224.453C387.969 225.133 388.266 225.977 388.266 226.984C388.266 228.539 387.676 229.801 386.496 230.77C385.316 231.73 383.754 232.211 381.809 232.211C381.066 232.211 380.34 232.148 379.629 232.023C378.926 231.906 378.211 231.719 377.484 231.461C377.492 231.383 377.496 231.293 377.496 231.191C377.504 231.082 377.508 230.926 377.508 230.723C377.508 230.168 377.477 229.621 377.414 229.082C377.352 228.543 377.258 228.004 377.133 227.465L378.188 227.219C378.32 228.5 378.723 229.438 379.395 230.031C380.066 230.625 381.062 230.922 382.383 230.922C383.539 230.922 384.48 230.633 385.207 230.055C385.934 229.469 386.297 228.719 386.297 227.805C386.297 226.508 385.164 225.5 382.898 224.781C382.578 224.68 382.328 224.598 382.148 224.535C380.578 224.027 379.453 223.406 378.773 222.672C378.094 221.938 377.754 221 377.754 219.859C377.754 218.516 378.285 217.395 379.348 216.496C380.41 215.598 381.742 215.148 383.344 215.148C383.93 215.148 384.523 215.195 385.125 215.289C385.727 215.383 386.461 215.547 387.328 215.781ZM390.188 215.277C390.734 215.309 391.277 215.332 391.816 215.348C392.355 215.363 392.883 215.371 393.398 215.371C393.836 215.371 394.324 215.363 394.863 215.348C395.402 215.332 395.973 215.309 396.574 215.277V216.086H396.375C395.867 216.086 395.484 216.145 395.227 216.262C394.977 216.379 394.801 216.574 394.699 216.848C394.637 217.027 394.59 217.32 394.559 217.727C394.535 218.125 394.523 218.777 394.523 219.684V222.016V227.852C394.523 228.773 394.543 229.422 394.582 229.797C394.629 230.172 394.699 230.449 394.793 230.629C394.895 230.824 395.074 230.965 395.332 231.051C395.598 231.137 395.969 231.18 396.445 231.18H396.691V232C396.02 231.969 395.398 231.945 394.828 231.93C394.258 231.914 393.781 231.906 393.398 231.906C392.945 231.906 392.434 231.914 391.863 231.93C391.293 231.945 390.695 231.969 390.07 232V231.18H390.305C390.789 231.18 391.16 231.137 391.418 231.051C391.676 230.965 391.855 230.824 391.957 230.629C392.066 230.418 392.141 230.074 392.18 229.598C392.227 229.113 392.25 228.242 392.25 226.984V225.133V220.551C392.25 219.324 392.234 218.453 392.203 217.938C392.172 217.414 392.121 217.051 392.051 216.848C391.957 216.574 391.785 216.379 391.535 216.262C391.293 216.145 390.914 216.086 390.398 216.086H390.188V215.277ZM412.84 215.805V216.203C412.84 216.75 412.859 217.32 412.898 217.914C412.938 218.5 412.996 219.117 413.074 219.766L412.219 219.906C412.062 218.781 411.531 217.906 410.625 217.281C409.719 216.648 408.535 216.332 407.074 216.332C405.129 216.332 403.625 216.93 402.562 218.125C401.508 219.312 400.98 221 400.98 223.188C400.98 225.523 401.586 227.414 402.797 228.859C404.016 230.297 405.594 231.016 407.531 231.016C408.75 231.016 409.805 230.734 410.695 230.172C411.594 229.609 412.293 228.785 412.793 227.699L413.578 228.086C413.328 228.594 413.102 229.113 412.898 229.645C412.695 230.168 412.516 230.695 412.359 231.227C411.516 231.609 410.656 231.898 409.781 232.094C408.906 232.289 408.027 232.387 407.145 232.387C404.551 232.387 402.449 231.586 400.84 229.984C399.238 228.375 398.438 226.262 398.438 223.645C398.438 221.066 399.285 218.969 400.98 217.352C402.676 215.727 404.867 214.914 407.555 214.914C408.352 214.914 409.191 214.988 410.074 215.137C410.965 215.285 411.887 215.508 412.84 215.805ZM415.336 215.277C415.891 215.309 416.422 215.332 416.93 215.348C417.438 215.363 417.898 215.371 418.312 215.371C418.789 215.371 419.277 215.363 419.777 215.348C420.277 215.332 420.789 215.309 421.312 215.277V216.086H420.996C420.355 216.086 419.922 216.258 419.695 216.602C419.477 216.938 419.367 217.84 419.367 219.309V219.883V222.766C419.875 222.781 420.41 222.793 420.973 222.801C421.543 222.809 422.336 222.812 423.352 222.812C424.391 222.812 425.293 222.809 426.059 222.801C426.832 222.793 427.617 222.781 428.414 222.766V219.496C428.414 217.941 428.301 216.984 428.074 216.625C427.855 216.266 427.426 216.086 426.785 216.086H426.469V215.277C426.992 215.309 427.504 215.332 428.004 215.348C428.512 215.363 429.008 215.371 429.492 215.371C429.906 215.371 430.363 215.363 430.863 215.348C431.363 215.332 431.891 215.309 432.445 215.277V216.086C432.406 216.086 432.352 216.082 432.281 216.074C432.211 216.066 432.16 216.062 432.129 216.062C431.527 216.062 431.117 216.254 430.898 216.637C430.68 217.012 430.57 217.82 430.57 219.062C430.57 219.297 430.574 219.742 430.582 220.398C430.59 221.055 430.594 221.594 430.594 222.016V225.133C430.594 225.555 430.59 226.098 430.582 226.762C430.574 227.418 430.57 227.867 430.57 228.109C430.57 229.391 430.68 230.227 430.898 230.617C431.117 231.008 431.527 231.203 432.129 231.203C432.238 231.203 432.32 231.203 432.375 231.203C432.438 231.195 432.492 231.191 432.539 231.191V232C431.922 231.969 431.348 231.945 430.816 231.93C430.293 231.914 429.852 231.906 429.492 231.906C429.07 231.906 428.594 231.914 428.062 231.93C427.539 231.945 426.977 231.969 426.375 232V231.18C426.422 231.18 426.492 231.184 426.586 231.191C426.68 231.199 426.746 231.203 426.785 231.203C427.426 231.203 427.855 231.027 428.074 230.676C428.301 230.324 428.414 229.477 428.414 228.133V226.715V224.148H428.262C426.254 224.117 424.785 224.102 423.855 224.102C423.152 224.102 422.48 224.109 421.84 224.125C421.754 224.125 421.707 224.125 421.699 224.125C421.363 224.125 421 224.129 420.609 224.137C420.219 224.137 419.805 224.141 419.367 224.148V226.938V227.875C419.367 229.375 419.48 230.305 419.707 230.664C419.934 231.023 420.371 231.203 421.02 231.203C421.059 231.203 421.125 231.199 421.219 231.191C421.312 231.184 421.383 231.18 421.43 231.18V232C420.828 231.969 420.262 231.945 419.73 231.93C419.207 231.914 418.734 231.906 418.312 231.906C417.953 231.906 417.512 231.914 416.988 231.93C416.465 231.945 415.891 231.969 415.266 232V231.191C415.312 231.191 415.363 231.195 415.418 231.203C415.48 231.203 415.562 231.203 415.664 231.203C416.273 231.203 416.688 231.008 416.906 230.617C417.125 230.227 417.234 229.391 417.234 228.109C417.234 227.867 417.23 227.418 417.223 226.762C417.215 226.098 417.211 225.555 417.211 225.133V222.016C417.211 221.625 417.215 221.129 417.223 220.527C417.23 219.918 417.234 219.504 417.234 219.285C417.234 217.934 417.121 217.059 416.895 216.66C416.676 216.262 416.258 216.062 415.641 216.062C415.617 216.062 415.57 216.066 415.5 216.074C415.43 216.082 415.375 216.086 415.336 216.086V215.277ZM436.934 229.188L437.754 229.82C437.973 229.984 438.129 230.145 438.223 230.301C438.324 230.457 438.375 230.625 438.375 230.805C438.375 230.984 438.336 231.141 438.258 231.273C438.18 231.406 438.035 231.551 437.824 231.707L436.934 232.41L436.09 231.766C435.871 231.594 435.711 231.43 435.609 231.273C435.516 231.117 435.469 230.953 435.469 230.781C435.469 230.602 435.508 230.445 435.586 230.312C435.664 230.18 435.816 230.031 436.043 229.867L436.934 229.188ZM437.344 227.418L436.453 227.406C436.461 227.281 436.465 227.141 436.465 226.984C436.473 226.828 436.477 226.598 436.477 226.293C436.477 225.84 436.465 225.379 436.441 224.91C436.426 224.434 436.398 223.949 436.359 223.457C437.867 223.098 439.043 222.543 439.887 221.793C440.73 221.043 441.152 220.18 441.152 219.203C441.152 218.438 440.887 217.805 440.355 217.305C439.824 216.797 439.156 216.543 438.352 216.543C437.789 216.543 437.199 216.723 436.582 217.082C435.965 217.441 435.586 217.621 435.445 217.621C435.211 217.621 435.016 217.539 434.859 217.375C434.703 217.203 434.625 216.988 434.625 216.73C434.625 216.215 434.875 215.793 435.375 215.465C435.875 215.129 436.523 214.961 437.32 214.961C438.867 214.961 440.156 215.426 441.188 216.355C442.227 217.277 442.746 218.43 442.746 219.812C442.746 220.883 442.445 221.789 441.844 222.531C441.242 223.266 440.145 224.02 438.551 224.793C438.504 224.816 438.438 224.848 438.352 224.887C437.68 225.199 437.344 225.859 437.344 226.867V227.418Z" fill="#FFD037"/>
<path d="M539.884 227.625C537.964 228.016 535.668 228.877 535.442 230.911C535.178 233.181 537.852 234.511 539.997 234.981C548.092 236.82 556.45 237.055 564.77 237.289C608.744 238.385 652.717 238.581 696.692 237.837C696.052 232.242 689.65 229.816 684.342 228.759C661.527 224.221 637.921 226.803 615.52 221.99C591.915 216.864 563.189 222.656 539.884 227.625Z" fill="url(#paint0_linear_591_3172)"/>
<path d="M539.884 227.625C537.964 228.016 535.668 228.877 535.442 230.911C535.178 233.181 537.852 234.511 539.997 234.981C548.092 236.82 556.45 237.055 564.77 237.289C608.744 238.385 652.717 238.581 696.692 237.837C696.052 232.242 689.65 229.816 684.342 228.759C661.527 224.221 637.921 226.803 615.52 221.99C591.915 216.864 563.189 222.656 539.884 227.625Z" fill="url(#paint1_linear_591_3172)"/>
<path d="M659.64 190.766C660.129 190.61 660.656 190.766 661.146 190.923C663.292 191.666 665.4 192.644 667.283 193.935C668.224 194.562 669.165 195.266 669.617 196.322C670.031 197.301 669.993 198.396 669.918 199.413C669.24 212.013 668.6 224.651 667.923 237.25C667.885 238.072 667.772 238.972 667.17 239.481C666.417 240.068 665.363 239.676 664.534 239.285C656.44 235.607 648.383 231.89 640.289 228.212C636.411 226.451 632.42 224.573 629.559 221.325C631.742 216.317 636.336 212.991 640.552 209.626C647.103 204.382 653.127 198.357 658.435 191.783C658.737 191.392 659.113 190.922 659.64 190.766Z" fill="#DDC199"/>
<path d="M697.78 125.852C695.785 125.383 693.75 124.913 691.756 124.443C680.01 146.864 669.619 170.067 660.658 193.857C662.729 195.226 665.477 196.635 667.473 195.148C668.301 194.522 668.79 193.505 669.242 192.527C679.407 170.615 688.932 148.39 697.78 125.852Z" fill="#BDB39B"/>
<g opacity="0.26">
<path opacity="0.26" d="M660.765 234.942C660.728 235.373 661.368 235.529 661.443 235.099C663.062 222.382 665.358 209.9 668.332 197.458C668.521 196.675 667.354 196.44 667.165 197.223C664.078 209.548 661.932 222.226 660.765 234.942Z" fill="#272525"/>
<path opacity="0.26" d="M648.008 229.346C652.978 218.469 658.249 207.748 663.821 197.183C664.159 196.557 663.181 196.048 662.842 196.674C657.044 207.317 651.811 218.273 647.029 229.425C647.105 229.503 647.142 229.581 647.18 229.66C647.443 229.464 647.707 229.386 648.008 229.346Z" fill="#272525"/>
<path opacity="0.26" d="M639.908 222.186C648.229 214.047 655.646 205.009 662.121 195.227C662.535 194.561 661.481 194.014 661.067 194.679C654.704 204.422 647.401 213.421 639.231 221.56C638.817 221.99 639.494 222.617 639.908 222.186Z" fill="#272525"/>
</g>
<path d="M582.198 201.919C582.236 201.332 582.311 200.705 582.349 200.119C577.379 196.597 568.645 197.732 563.374 199.532C557.727 201.449 557.726 205.049 557.802 211.153C557.839 214.596 558.141 218.47 560.701 220.7C562.659 222.422 565.407 222.656 567.967 222.813C570.264 222.969 572.523 223.087 574.819 223.243C576.4 223.321 578.17 223.361 579.412 222.304C580.655 221.209 580.843 219.37 580.994 217.687C581.408 212.405 581.822 207.162 582.198 201.919Z" fill="#2F3F47"/>
<path d="M588.264 201.919C588.226 201.332 588.151 200.705 588.113 200.119C593.083 196.597 601.818 197.732 607.088 199.532C612.735 201.449 612.735 205.049 612.66 211.153C612.623 214.596 612.321 218.47 609.761 220.7C607.803 222.422 605.055 222.656 602.495 222.813C600.198 222.969 597.94 223.087 595.643 223.243C594.062 223.321 592.292 223.361 591.05 222.304C589.808 221.209 589.619 219.37 589.469 217.687C589.092 212.405 588.678 207.162 588.264 201.919Z" fill="#2F3F47"/>
<path d="M545.863 188.848C544.621 189.122 543.416 189.513 542.249 190.022C541.383 190.374 540.517 190.844 539.915 191.548C539.086 192.565 538.861 193.974 538.71 195.344C538.522 197.143 538.446 198.943 538.484 200.743C538.484 202.269 538.597 203.834 539.35 205.126C540.404 206.926 542.475 207.747 544.433 208.256C548.16 209.234 552.037 209.469 555.878 209.664C579.107 210.838 602.411 210.055 625.528 207.356C626.469 207.238 627.523 207.082 628.163 206.339C628.539 205.908 628.728 205.321 628.916 204.773C630.121 200.782 630.911 195.344 628.314 191.626C626.092 188.457 621.989 190.257 618.902 190.217C615.739 190.178 612.539 189.905 609.376 189.787C603.202 189.513 597.028 189.239 590.853 189.044C582.157 188.731 573.422 188.457 564.725 188.222C558.852 188.105 551.925 187.44 545.863 188.848Z" fill="#516770"/>
<path d="M595.788 102.962C611.563 103.041 627.3 103.393 643.075 103.745C642.698 95.0196 642.096 86.2938 640.289 77.7639C637.164 62.817 630.011 48.2222 617.925 39.4966C599.402 26.1148 569.999 27.8755 550.045 41.1008C541.649 46.657 534.91 54.287 531.371 63.6386C527.305 74.3206 526.213 85.9809 525.574 97.4455C525.498 98.9715 525.423 100.458 525.348 101.984C548.765 101.045 572.333 102.884 595.788 102.962Z" fill="#EAF1F2"/>
<path d="M594.524 107.346C571.408 107.307 548.216 105.585 525.1 106.446C523.971 132.505 525.025 158.682 528.263 184.585C528.715 188.146 529.279 191.863 531.538 194.68C535.04 199.023 541.101 197.106 545.807 197.106C553.751 197.106 561.921 197.458 569.94 197.654C585.075 198.006 600.096 198.045 615.156 196.284C622.309 195.463 636.766 197.732 640.192 191.041C643.016 185.602 641.849 174.568 642.263 168.503C642.752 161.304 643.129 154.143 643.355 146.944C643.769 133.992 643.693 121.041 643.204 108.05C627.015 107.737 610.751 107.346 594.524 107.346Z" fill="#E2ECED"/>
<path d="M649.12 149.525C649.421 149.251 649.459 148.781 649.497 148.39C650.287 137.552 650.965 126.713 651.454 115.874C651.492 114.935 651.492 113.84 650.776 113.214C650.249 112.783 649.572 112.744 648.894 112.744C646.56 112.705 644.263 112.666 641.929 112.666C640.461 124.991 639.858 137.395 640.159 149.799C642.757 149.799 645.317 149.838 647.915 149.838C648.329 149.838 648.781 149.838 649.12 149.525Z" fill="#2F3F47"/>
<path d="M661.12 174.491C661.421 173.591 661.76 172.652 662.438 171.987C662.965 171.478 663.68 171.165 664.358 170.93C667.295 169.834 670.306 169.013 673.356 168.465C675.728 170.147 677.874 172.143 679.719 174.451C680.057 174.882 680.396 175.351 680.472 175.899C680.547 176.33 680.434 176.76 680.321 177.191C679.116 182.003 677.949 186.816 676.744 191.629C674.975 191.864 673.205 191.903 671.474 191.668C672.151 188.733 672.829 185.799 673.469 182.903C674.109 180.125 674.599 176.721 672.566 174.765C670.495 175.312 668.462 175.899 666.391 176.447C666.052 176.525 665.676 176.643 665.375 176.877C665.036 177.191 664.885 177.66 664.734 178.091C663.869 180.829 663.228 183.647 662.777 186.503C661.459 186.112 660.141 185.759 658.824 185.368C658.711 181.651 659.915 178.012 661.12 174.491Z" fill="#2F3F47"/>
<path d="M677.12 170.264C677.233 170.146 677.27 169.99 677.308 169.873C677.684 168.112 678.061 166.351 678.475 164.629C675.839 164.003 673.129 163.573 670.456 163.338C670.042 164.786 669.778 166.312 669.665 167.838C669.627 168.151 669.627 168.542 669.853 168.777C670.004 168.933 670.192 168.972 670.38 169.051C672.376 169.677 674.447 170.146 676.555 170.42C676.706 170.381 676.931 170.42 677.12 170.264Z" fill="#516770"/>
<path d="M679.76 163.418C681.341 160.64 680.061 153.323 680.061 150.388C680.024 146.358 680.024 142.289 679.12 138.376C678.217 134.463 676.372 130.629 673.322 128.164C671.59 126.755 669.557 125.855 667.449 125.112C661.162 122.881 654.423 122.138 647.834 122.96C647.307 123.038 646.742 123.116 646.366 123.507C645.952 123.899 645.876 124.525 645.801 125.112C645.5 127.342 645.086 129.807 645.199 132.076C645.387 136.068 644.597 134.972 647.383 136.107C649.528 136.968 653.557 136.263 656.004 136.85C658.865 137.515 661.651 138.533 664.437 139.55C666.207 140.176 668.089 140.959 668.993 142.641C669.482 143.541 669.633 144.637 669.746 145.693C670.423 151.954 670.725 158.253 670.687 164.553C670.687 165.648 678.442 165.101 679.459 163.888C679.572 163.731 679.647 163.575 679.76 163.418Z" fill="#E2ECED"/>
<g opacity="0.15">
<path opacity="0.15" d="M666.58 126.911C666.354 130.667 665.413 134.072 663.982 137.515C663.719 138.18 664.509 138.689 664.923 138.102C667.182 134.815 668.35 130.902 668.764 126.911C668.914 125.502 666.693 125.463 666.58 126.911Z" fill="#272525"/>
<path opacity="0.15" d="M672.341 129.61C671.701 133.249 670.12 135.636 667.635 138.219C667.296 138.571 667.748 139.158 668.124 138.884C669.818 137.788 671.4 137.084 672.604 135.323C673.734 133.68 674.487 131.919 674.713 129.924C674.863 128.554 672.605 128.241 672.341 129.61Z" fill="#272525"/>
</g>
<path d="M521.405 112.979C521.104 113.253 521.067 113.723 521.029 114.114C520.238 124.952 519.561 135.791 519.071 146.629C519.034 147.568 519.034 148.664 519.749 149.29C520.276 149.72 520.954 149.759 521.631 149.759C523.965 149.799 526.262 149.838 528.596 149.838C530.064 137.513 530.667 125.109 530.366 112.705C527.768 112.705 525.208 112.666 522.61 112.666C522.196 112.666 521.707 112.666 521.405 112.979Z" fill="#2F3F47"/>
<path d="M492.224 99.6375C492.337 100.577 492.449 101.594 492.111 102.455C491.847 103.159 491.358 103.746 490.831 104.294C488.685 106.602 486.351 108.755 483.828 110.672C480.967 110.281 478.181 109.459 475.583 108.246C475.094 108.011 474.566 107.776 474.265 107.307C474.039 106.955 473.926 106.524 473.851 106.094C472.872 101.242 471.856 96.3508 470.877 91.4989C472.345 90.4815 473.926 89.6205 475.583 88.9945C476.223 91.9291 476.901 94.8638 477.541 97.7984C478.181 100.576 479.197 103.863 481.833 104.646C483.451 103.198 485.033 101.75 486.652 100.303C486.915 100.068 487.216 99.7941 487.367 99.442C487.555 99.0115 487.48 98.5026 487.404 98.0331C486.99 95.1769 486.388 92.3596 485.56 89.5816C486.915 89.3076 488.233 89.0337 489.588 88.7598C491.32 92.0857 491.772 95.9203 492.224 99.6375Z" fill="#2F3F47"/>
<path d="M479.716 110.789C479.678 110.945 479.716 111.102 479.716 111.22C480.13 112.98 480.544 114.702 480.921 116.463C483.556 115.797 486.154 114.937 488.676 113.919C488.45 112.432 488.036 110.945 487.472 109.537C487.359 109.224 487.208 108.911 486.907 108.793C486.719 108.715 486.53 108.754 486.304 108.793C484.234 109.145 482.201 109.693 480.205 110.398C480.017 110.476 479.791 110.593 479.716 110.789Z" fill="#516770"/>
<path d="M480.289 118.145C480.025 121.353 484.317 127.301 485.597 129.962C487.329 133.561 489.099 137.201 491.584 140.291C494.068 143.383 497.344 145.965 501.146 146.748C503.292 147.217 505.513 147.1 507.697 146.787C514.286 145.887 520.648 143.461 526.183 139.665C526.634 139.352 527.086 139.039 527.274 138.492C527.462 137.944 527.274 137.357 527.124 136.77C526.408 134.618 525.768 132.231 524.677 130.236C522.794 126.753 523.999 127.379 520.987 127.614C518.69 127.81 515.377 130.314 512.93 130.94C510.069 131.683 507.132 132.035 504.233 132.427C502.389 132.661 500.356 132.857 498.812 131.762C497.984 131.175 497.381 130.275 496.854 129.375C493.579 124.092 490.605 118.575 487.932 112.902C487.48 111.924 480.778 115.993 480.364 117.558C480.326 117.793 480.289 117.949 480.289 118.145Z" fill="#E2ECED"/>
<g opacity="0.15">
<path opacity="0.15" d="M507.654 144.751C506.261 141.269 505.659 137.786 505.433 134.03C505.395 133.286 504.454 133.208 504.341 133.952C503.739 137.943 504.341 141.973 505.696 145.729C506.186 147.099 508.219 146.081 507.654 144.751Z" fill="#272525"/>
<path opacity="0.15" d="M501.373 145.025C500.394 141.464 500.771 138.608 501.9 135.125C502.051 134.656 501.411 134.343 501.147 134.734C500.131 136.495 499.001 137.864 498.662 139.977C498.361 141.973 498.437 143.89 499.114 145.768C499.566 147.137 501.712 146.355 501.373 145.025Z" fill="#272525"/>
</g>
<path d="M535.861 77.3732C535.898 78.86 535.973 80.386 536.576 81.7557C538.119 85.1598 542.185 86.2553 545.762 86.8813C566.205 90.442 587.1 91.6551 607.656 88.9552C610.367 88.6031 613.078 88.1728 615.562 86.9989C618.047 85.825 620.268 83.8293 621.172 81.2078C621.737 79.5253 621.774 77.7253 621.812 75.9256C621.85 74.1257 621.85 72.2866 621.887 70.4866C621.887 69.6651 621.887 68.8433 621.586 68.0607C621.247 67.2391 620.57 66.5739 619.854 66.0652C617.144 64.1479 613.718 63.7174 610.442 63.3653C588.681 61.0959 566.657 59.1004 545.009 62.1524C544.105 62.2698 543.164 62.4261 542.524 63.0914C542.185 63.4045 541.959 63.835 541.621 64.1479C540.98 64.6566 540.115 64.6174 539.362 64.8913C537.253 65.5957 536.5 68.2956 536.237 70.6042C535.936 72.8344 535.823 75.1038 535.861 77.3732Z" fill="#2F3F47"/>
<path opacity="0.2" d="M563.113 80.659C563.829 79.2896 563.941 77.6854 563.791 76.1205C563.716 75.1813 563.49 74.2032 562.925 73.499C561.72 72.0119 559.499 72.1685 557.654 71.8164C556.035 72.5206 554.68 73.89 554.002 75.5726C553.588 76.5899 553.4 77.6854 553.513 78.7812C553.776 81.0114 555.546 82.9289 557.654 83.32C559.8 83.7897 562.097 82.6547 563.113 80.659Z" fill="#EAF1F2"/>
<path opacity="0.2" d="M598.965 80.659C599.68 79.2896 599.793 77.6854 599.642 76.1205C599.567 75.1813 599.341 74.2032 598.776 73.499C597.572 72.0119 595.351 72.1685 593.506 71.8164C591.887 72.5206 590.532 73.89 589.854 75.5726C589.44 76.5899 589.251 77.6854 589.364 78.7812C589.628 81.0114 591.397 82.9289 593.506 83.32C595.614 83.7897 597.91 82.6547 598.965 80.659Z" fill="#EAF1F2"/>
<defs>
<filter id="filter0_d_591_3172" x="124.738" y="58.0508" width="344.301" height="140.949" filterUnits="userSpaceOnUse" color-interpolation-filters="sRGB">
<feFlood flood-opacity="0" result="BackgroundImageFix"/>
<feColorMatrix in="SourceAlpha" type="matrix" values="0 0 0 0 0 0 0 0 0 0 0 0 0 0 0 0 0 0 127 0" result="hardAlpha"/>
<feOffset/>
<feGaussianBlur stdDeviation="6"/>
<feComposite in2="hardAlpha" operator="out"/>
<feColorMatrix type="matrix" values="0 0 0 0 0.206152 0 0 0 0 0.206152 0 0 0 0 0.206152 0 0 0 1 0"/>
<feBlend mode="normal" in2="BackgroundImageFix" result="effect1_dropShadow_591_3172"/>
<feBlend mode="normal" in="SourceGraphic" in2="effect1_dropShadow_591_3172" result="shape"/>
</filter>
<linearGradient id="paint0_linear_591_3172" x1="535.449" y1="229.131" x2="696.734" y2="229.131" gradientUnits="userSpaceOnUse">
<stop stop-color="#4D4D4D"/>
<stop offset="1"/>
</linearGradient>
<linearGradient id="paint1_linear_591_3172" x1="535.449" y1="229.131" x2="696.734" y2="229.131" gradientUnits="userSpaceOnUse">
<stop/>
<stop offset="1"/>
</linearGradient>
</defs>
</svg>
