<svg width="419" height="378" viewBox="0 0 419 378" fill="none" xmlns="http://www.w3.org/2000/svg">
<g clip-path="url(#clip0_529_2722)">
<rect x="416.443" y="198.978" width="2.55623" height="76.5956" rx="1.27811" fill="#C4C4C4"/>
<rect y="133.688" width="2.996" height="23.3177" rx="1.27982" fill="#C4C4C4"/>
<rect y="181.877" width="2.996" height="48.1899" rx="1.27982" fill="#C4C4C4"/>
<rect y="245.612" width="2.996" height="48.1899" rx="1.27982" fill="#C4C4C4"/>
<rect x="1.99707" width="414.446" height="663" rx="65" fill="url(#paint0_linear_529_2722)"/>
<rect x="7.98926" y="4.66309" width="402.462" height="653.673" rx="60" fill="black"/>
<rect x="28" y="24" width="363" height="623" rx="42" fill="#FFD037"/>
<path d="M135.206 73.9091V103H129.936V73.9091H135.206ZM145.827 90.2159V103H140.685V81.1818H145.6V84.8892H145.855C146.357 83.6676 147.158 82.697 148.256 81.9773C149.364 81.2576 150.732 80.8977 152.361 80.8977C153.867 80.8977 155.178 81.2197 156.296 81.8636C157.423 82.5076 158.294 83.4403 158.909 84.6619C159.534 85.8835 159.842 87.3655 159.833 89.108V103H154.691V89.9034C154.691 88.4451 154.312 87.304 153.554 86.4801C152.806 85.6562 151.769 85.2443 150.444 85.2443C149.544 85.2443 148.744 85.4432 148.043 85.8409C147.352 86.2292 146.807 86.7926 146.409 87.5312C146.021 88.2699 145.827 89.1648 145.827 90.2159ZM175.955 81.1818V85.1591H163.412V81.1818H175.955ZM166.509 75.9545H171.651V96.4375C171.651 97.1288 171.755 97.6591 171.963 98.0284C172.181 98.3883 172.465 98.6345 172.816 98.767C173.166 98.8996 173.554 98.9659 173.98 98.9659C174.302 98.9659 174.596 98.9422 174.861 98.8949C175.136 98.8475 175.344 98.8049 175.486 98.767L176.353 102.787C176.078 102.882 175.685 102.986 175.174 103.099C174.672 103.213 174.056 103.279 173.327 103.298C172.039 103.336 170.879 103.142 169.847 102.716C168.815 102.28 167.996 101.608 167.39 100.699C166.793 99.7898 166.499 98.6534 166.509 97.2898V75.9545ZM180.255 103V81.1818H185.241V84.8182H185.468C185.866 83.5587 186.548 82.5881 187.514 81.9062C188.489 81.215 189.602 80.8693 190.852 80.8693C191.136 80.8693 191.453 80.8835 191.804 80.9119C192.163 80.9309 192.462 80.964 192.699 81.0114V85.7415C192.481 85.6657 192.135 85.5994 191.662 85.5426C191.198 85.4763 190.748 85.4432 190.312 85.4432C189.375 85.4432 188.532 85.6468 187.784 86.054C187.045 86.4517 186.463 87.0057 186.037 87.7159C185.61 88.4261 185.397 89.2453 185.397 90.1733V103H180.255ZM202.002 103.44C200.62 103.44 199.375 103.194 198.267 102.702C197.168 102.2 196.297 101.461 195.653 100.486C195.019 99.5104 194.701 98.3078 194.701 96.8778C194.701 95.6468 194.929 94.6288 195.383 93.8239C195.838 93.0189 196.458 92.375 197.244 91.892C198.03 91.4091 198.915 91.0445 199.9 90.7983C200.895 90.5426 201.922 90.358 202.983 90.2443C204.261 90.1117 205.298 89.9934 206.093 89.8892C206.889 89.7756 207.467 89.6051 207.826 89.3778C208.196 89.1411 208.38 88.7765 208.38 88.2841V88.1989C208.38 87.1288 208.063 86.3002 207.429 85.7131C206.794 85.1259 205.88 84.8324 204.687 84.8324C203.428 84.8324 202.429 85.107 201.69 85.6562C200.961 86.2055 200.468 86.8542 200.213 87.6023L195.412 86.9205C195.79 85.5947 196.415 84.4867 197.287 83.5966C198.158 82.697 199.223 82.0246 200.483 81.5795C201.742 81.125 203.134 80.8977 204.659 80.8977C205.71 80.8977 206.756 81.0208 207.798 81.267C208.84 81.5133 209.791 81.9205 210.653 82.4886C211.515 83.0473 212.206 83.8097 212.727 84.7756C213.257 85.7415 213.522 86.9489 213.522 88.3977V103H208.579V100.003H208.409C208.096 100.609 207.656 101.177 207.088 101.707C206.529 102.228 205.824 102.65 204.971 102.972C204.128 103.284 203.139 103.44 202.002 103.44ZM203.338 99.6619C204.37 99.6619 205.265 99.4583 206.022 99.0511C206.78 98.6345 207.362 98.0852 207.77 97.4034C208.186 96.7216 208.395 95.9782 208.395 95.1733V92.6023C208.234 92.7348 207.959 92.858 207.571 92.9716C207.192 93.0852 206.766 93.1847 206.292 93.2699C205.819 93.3551 205.35 93.4309 204.886 93.4972C204.422 93.5634 204.02 93.6203 203.679 93.6676C202.912 93.7718 202.225 93.9422 201.619 94.179C201.013 94.4157 200.535 94.7472 200.184 95.1733C199.834 95.59 199.659 96.1297 199.659 96.7926C199.659 97.7396 200.004 98.4545 200.696 98.9375C201.387 99.4205 202.268 99.6619 203.338 99.6619ZM223.835 90.2159V103H218.693V81.1818H223.608V84.8892H223.863C224.365 83.6676 225.165 82.697 226.264 81.9773C227.372 81.2576 228.74 80.8977 230.369 80.8977C231.875 80.8977 233.186 81.2197 234.304 81.8636C235.431 82.5076 236.302 83.4403 236.917 84.6619C237.542 85.8835 237.85 87.3655 237.841 89.108V103H232.699V89.9034C232.699 88.4451 232.32 87.304 231.562 86.4801C230.814 85.6562 229.777 85.2443 228.451 85.2443C227.552 85.2443 226.752 85.4432 226.051 85.8409C225.359 86.2292 224.815 86.7926 224.417 87.5312C224.029 88.2699 223.835 89.1648 223.835 90.2159ZM252.727 103.426C250.539 103.426 248.65 102.972 247.059 102.062C245.478 101.144 244.261 99.8466 243.409 98.1705C242.556 96.4848 242.13 94.5009 242.13 92.2188C242.13 89.9744 242.556 88.0047 243.409 86.3097C244.27 84.6051 245.473 83.2794 247.017 82.3324C248.56 81.3759 250.374 80.8977 252.457 80.8977C253.802 80.8977 255.071 81.1155 256.264 81.5511C257.467 81.9773 258.527 82.6402 259.446 83.5398C260.374 84.4394 261.103 85.5852 261.633 86.9773C262.163 88.3598 262.429 90.0076 262.429 91.9205V93.4972H244.545V90.0312H257.5C257.49 89.0464 257.277 88.1705 256.86 87.4034C256.444 86.6269 255.861 86.0161 255.113 85.571C254.375 85.1259 253.513 84.9034 252.528 84.9034C251.477 84.9034 250.554 85.1591 249.758 85.6705C248.963 86.1723 248.342 86.8352 247.897 87.6591C247.462 88.4735 247.239 89.3684 247.23 90.3438V93.3693C247.23 94.6383 247.462 95.7273 247.926 96.6364C248.39 97.536 249.038 98.2273 249.872 98.7102C250.705 99.1837 251.681 99.4205 252.798 99.4205C253.546 99.4205 254.223 99.3163 254.829 99.108C255.435 98.8902 255.961 98.5729 256.406 98.1562C256.851 97.7396 257.187 97.2235 257.414 96.608L262.216 97.1477C261.913 98.4167 261.335 99.5246 260.483 100.472C259.64 101.409 258.56 102.138 257.244 102.659C255.928 103.17 254.422 103.426 252.727 103.426ZM277.674 81.1818V85.1591H265.131V81.1818H277.674ZM268.228 75.9545H273.37V96.4375C273.37 97.1288 273.474 97.6591 273.682 98.0284C273.9 98.3883 274.184 98.6345 274.534 98.767C274.885 98.8996 275.273 98.9659 275.699 98.9659C276.021 98.9659 276.315 98.9422 276.58 98.8949C276.855 98.8475 277.063 98.8049 277.205 98.767L278.071 102.787C277.797 102.882 277.404 102.986 276.892 103.099C276.391 103.213 275.775 103.279 275.046 103.298C273.758 103.336 272.598 103.142 271.566 102.716C270.533 102.28 269.714 101.608 269.108 100.699C268.512 99.7898 268.218 98.6534 268.228 97.2898V75.9545ZM285.142 103.312C284.28 103.312 283.541 103.009 282.926 102.403C282.31 101.797 282.007 101.059 282.017 100.188C282.007 99.3352 282.31 98.6061 282.926 98C283.541 97.3939 284.28 97.0909 285.142 97.0909C285.975 97.0909 286.699 97.3939 287.315 98C287.94 98.6061 288.257 99.3352 288.267 100.188C288.257 100.765 288.106 101.291 287.812 101.764C287.528 102.238 287.149 102.616 286.676 102.901C286.212 103.175 285.7 103.312 285.142 103.312ZM285.142 87.7443C284.28 87.7443 283.541 87.4413 282.926 86.8352C282.31 86.2197 282.007 85.4811 282.017 84.6193C282.007 83.767 282.31 83.0379 282.926 82.4318C283.541 81.8163 284.28 81.5085 285.142 81.5085C285.975 81.5085 286.699 81.8163 287.315 82.4318C287.94 83.0379 288.257 83.767 288.267 84.6193C288.257 85.1875 288.106 85.7083 287.812 86.1818C287.528 86.6553 287.149 87.0341 286.676 87.3182C286.212 87.6023 285.7 87.7443 285.142 87.7443Z" fill="black"/>
<path d="M72.0057 158.727C71.089 158.727 70.2519 158.504 69.4943 158.057C68.7367 157.602 68.1307 156.996 67.6761 156.239C67.2292 155.481 67.0057 154.644 67.0057 153.727C67.0057 152.803 67.2292 151.966 67.6761 151.216C68.1307 150.458 68.7367 149.856 69.4943 149.409C70.2519 148.955 71.089 148.727 72.0057 148.727C72.9299 148.727 73.767 148.955 74.517 149.409C75.2746 149.856 75.8769 150.458 76.3239 151.216C76.7784 151.966 77.0057 152.803 77.0057 153.727C77.0057 154.644 76.7784 155.481 76.3239 156.239C75.8769 156.996 75.2746 157.602 74.517 158.057C73.767 158.504 72.9299 158.727 72.0057 158.727ZM109.761 169.545V160.25H109.591C109.379 160.674 109.072 161.125 108.67 161.602C108.269 162.072 107.739 162.473 107.08 162.807C106.42 163.14 105.591 163.307 104.591 163.307C103.22 163.307 101.992 162.955 100.909 162.25C99.8258 161.545 98.9697 160.523 98.3409 159.182C97.7121 157.841 97.3977 156.212 97.3977 154.295C97.3977 152.356 97.7159 150.72 98.3523 149.386C98.9962 148.045 99.8636 147.034 100.955 146.352C102.045 145.663 103.261 145.318 104.602 145.318C105.625 145.318 106.466 145.492 107.125 145.841C107.784 146.182 108.307 146.595 108.693 147.08C109.08 147.557 109.379 148.008 109.591 148.432H109.841V145.545H113.886V169.545H109.761ZM105.739 159.932C106.61 159.932 107.352 159.697 107.966 159.227C108.58 158.75 109.045 158.087 109.364 157.239C109.682 156.39 109.841 155.402 109.841 154.273C109.841 153.144 109.682 152.163 109.364 151.33C109.053 150.496 108.591 149.848 107.977 149.386C107.371 148.924 106.625 148.693 105.739 148.693C104.822 148.693 104.057 148.932 103.443 149.409C102.83 149.886 102.367 150.545 102.057 151.386C101.746 152.227 101.591 153.189 101.591 154.273C101.591 155.364 101.746 156.337 102.057 157.193C102.375 158.042 102.841 158.712 103.455 159.205C104.076 159.689 104.837 159.932 105.739 159.932ZM121.716 163L116.784 145.545H120.977L124.045 157.818H124.205L127.341 145.545H131.489L134.625 157.75H134.795L137.818 145.545H142.023L137.08 163H132.795L129.523 151.205H129.284L126.011 163H121.716ZM152.122 163.341C150.372 163.341 148.861 162.977 147.588 162.25C146.323 161.515 145.349 160.477 144.668 159.136C143.986 157.788 143.645 156.201 143.645 154.375C143.645 152.58 143.986 151.004 144.668 149.648C145.357 148.284 146.319 147.223 147.554 146.466C148.789 145.701 150.24 145.318 151.906 145.318C152.982 145.318 153.997 145.492 154.952 145.841C155.914 146.182 156.762 146.712 157.497 147.432C158.24 148.152 158.823 149.068 159.247 150.182C159.671 151.288 159.884 152.606 159.884 154.136V155.398H145.577V152.625H155.94C155.933 151.837 155.762 151.136 155.429 150.523C155.096 149.902 154.63 149.413 154.031 149.057C153.44 148.701 152.751 148.523 151.963 148.523C151.122 148.523 150.384 148.727 149.747 149.136C149.111 149.538 148.615 150.068 148.259 150.727C147.91 151.379 147.732 152.095 147.724 152.875V155.295C147.724 156.311 147.91 157.182 148.281 157.909C148.652 158.629 149.171 159.182 149.838 159.568C150.505 159.947 151.285 160.136 152.179 160.136C152.777 160.136 153.319 160.053 153.804 159.886C154.289 159.712 154.709 159.458 155.065 159.125C155.421 158.792 155.69 158.379 155.872 157.886L159.713 158.318C159.471 159.333 159.009 160.22 158.327 160.977C157.652 161.727 156.789 162.311 155.736 162.727C154.683 163.136 153.478 163.341 152.122 163.341ZM163.364 163V145.545H167.352V148.455H167.534C167.852 147.447 168.398 146.67 169.17 146.125C169.951 145.572 170.841 145.295 171.841 145.295C172.068 145.295 172.322 145.307 172.602 145.33C172.89 145.345 173.129 145.371 173.318 145.409V149.193C173.144 149.133 172.867 149.08 172.489 149.034C172.117 148.981 171.758 148.955 171.409 148.955C170.659 148.955 169.985 149.117 169.386 149.443C168.795 149.761 168.33 150.205 167.989 150.773C167.648 151.341 167.477 151.996 167.477 152.739V163H163.364ZM185.705 145.545V148.727H175.67V145.545H185.705ZM178.148 141.364H182.261V157.75C182.261 158.303 182.345 158.727 182.511 159.023C182.686 159.311 182.913 159.508 183.193 159.614C183.473 159.72 183.784 159.773 184.125 159.773C184.383 159.773 184.617 159.754 184.83 159.716C185.049 159.678 185.216 159.644 185.33 159.614L186.023 162.83C185.803 162.905 185.489 162.989 185.08 163.08C184.678 163.17 184.186 163.223 183.602 163.239C182.572 163.269 181.644 163.114 180.818 162.773C179.992 162.424 179.337 161.886 178.852 161.159C178.375 160.432 178.14 159.523 178.148 158.432V141.364ZM191.702 169.545C191.141 169.545 190.622 169.5 190.145 169.409C189.675 169.326 189.3 169.227 189.02 169.114L189.974 165.909C190.573 166.083 191.107 166.167 191.577 166.159C192.046 166.152 192.459 166.004 192.815 165.716C193.179 165.436 193.486 164.966 193.736 164.307L194.088 163.364L187.759 145.545H192.122L196.145 158.727H196.327L200.361 145.545H204.736L197.747 165.114C197.421 166.038 196.99 166.83 196.452 167.489C195.914 168.155 195.255 168.663 194.474 169.011C193.702 169.367 192.777 169.545 191.702 169.545ZM217.003 139.727V163H212.787V143.83H212.651L207.207 147.307V143.443L212.991 139.727H217.003ZM232.378 139.727V163H228.162V143.83H228.026L222.582 147.307V143.443L228.366 139.727H232.378ZM247.753 139.727V163H243.537V143.83H243.401L237.957 147.307V143.443L243.741 139.727H247.753ZM72.0057 197.727C71.089 197.727 70.2519 197.504 69.4943 197.057C68.7367 196.602 68.1307 195.996 67.6761 195.239C67.2292 194.481 67.0057 193.644 67.0057 192.727C67.0057 191.803 67.2292 190.966 67.6761 190.216C68.1307 189.458 68.7367 188.856 69.4943 188.409C70.2519 187.955 71.089 187.727 72.0057 187.727C72.9299 187.727 73.767 187.955 74.517 188.409C75.2746 188.856 75.8769 189.458 76.3239 190.216C76.7784 190.966 77.0057 191.803 77.0057 192.727C77.0057 193.644 76.7784 194.481 76.3239 195.239C75.8769 195.996 75.2746 196.602 74.517 197.057C73.767 197.504 72.9299 197.727 72.0057 197.727ZM107.534 178.727V202H103.318V182.83H103.182L97.7386 186.307V182.443L103.523 178.727H107.534ZM113.443 202V198.955L121.523 191.034C122.295 190.254 122.939 189.561 123.455 188.955C123.97 188.348 124.356 187.761 124.614 187.193C124.871 186.625 125 186.019 125 185.375C125 184.64 124.833 184.011 124.5 183.489C124.167 182.958 123.708 182.549 123.125 182.261C122.542 181.973 121.879 181.83 121.136 181.83C120.371 181.83 119.701 181.989 119.125 182.307C118.549 182.617 118.102 183.061 117.784 183.636C117.473 184.212 117.318 184.898 117.318 185.693H113.307C113.307 184.216 113.644 182.932 114.318 181.841C114.992 180.75 115.92 179.905 117.102 179.307C118.292 178.708 119.655 178.409 121.193 178.409C122.754 178.409 124.125 178.701 125.307 179.284C126.489 179.867 127.405 180.667 128.057 181.682C128.716 182.697 129.045 183.856 129.045 185.159C129.045 186.03 128.879 186.886 128.545 187.727C128.212 188.568 127.625 189.5 126.784 190.523C125.951 191.545 124.78 192.784 123.273 194.239L119.261 198.318V198.477H129.398V202H113.443ZM141.67 202.318C140.034 202.318 138.58 202.038 137.307 201.477C136.042 200.917 135.042 200.136 134.307 199.136C133.572 198.136 133.182 196.981 133.136 195.67H137.409C137.447 196.299 137.655 196.848 138.034 197.318C138.413 197.78 138.917 198.14 139.545 198.398C140.174 198.655 140.879 198.784 141.659 198.784C142.492 198.784 143.231 198.64 143.875 198.352C144.519 198.057 145.023 197.648 145.386 197.125C145.75 196.602 145.928 196 145.92 195.318C145.928 194.614 145.746 193.992 145.375 193.455C145.004 192.917 144.466 192.496 143.761 192.193C143.064 191.89 142.223 191.739 141.239 191.739H139.182V188.489H141.239C142.049 188.489 142.758 188.348 143.364 188.068C143.977 187.788 144.458 187.394 144.807 186.886C145.155 186.371 145.326 185.777 145.318 185.102C145.326 184.443 145.178 183.871 144.875 183.386C144.58 182.894 144.159 182.511 143.614 182.239C143.076 181.966 142.443 181.83 141.716 181.83C141.004 181.83 140.345 181.958 139.739 182.216C139.133 182.473 138.644 182.841 138.273 183.318C137.902 183.788 137.705 184.348 137.682 185H133.625C133.655 183.697 134.03 182.553 134.75 181.568C135.477 180.576 136.447 179.803 137.659 179.25C138.871 178.689 140.231 178.409 141.739 178.409C143.292 178.409 144.64 178.701 145.784 179.284C146.936 179.86 147.826 180.636 148.455 181.614C149.083 182.591 149.398 183.67 149.398 184.852C149.405 186.163 149.019 187.261 148.239 188.148C147.466 189.034 146.451 189.614 145.193 189.886V190.068C146.83 190.295 148.083 190.902 148.955 191.886C149.833 192.864 150.269 194.08 150.261 195.534C150.261 196.837 149.89 198.004 149.148 199.034C148.413 200.057 147.398 200.86 146.102 201.443C144.814 202.027 143.337 202.318 141.67 202.318ZM153.741 197.682V194.33L163.616 178.727H166.412V183.5H164.707L158.06 194.034V194.216H171.844V197.682H153.741ZM164.844 202V196.659L164.889 195.159V178.727H168.866V202H164.844ZM183.565 202.318C182.05 202.318 180.694 202.034 179.497 201.466C178.3 200.89 177.349 200.102 176.645 199.102C175.948 198.102 175.577 196.958 175.531 195.67H179.622C179.698 196.625 180.111 197.405 180.861 198.011C181.611 198.61 182.512 198.909 183.565 198.909C184.391 198.909 185.126 198.72 185.77 198.341C186.414 197.962 186.921 197.436 187.293 196.761C187.664 196.087 187.846 195.318 187.838 194.455C187.846 193.576 187.66 192.795 187.281 192.114C186.902 191.432 186.384 190.898 185.724 190.511C185.065 190.117 184.308 189.92 183.452 189.92C182.755 189.913 182.069 190.042 181.395 190.307C180.721 190.572 180.187 190.92 179.793 191.352L175.986 190.727L177.202 178.727H190.702V182.25H180.69L180.02 188.42H180.156C180.588 187.913 181.198 187.492 181.986 187.159C182.774 186.818 183.637 186.648 184.577 186.648C185.986 186.648 187.243 186.981 188.349 187.648C189.455 188.307 190.327 189.216 190.963 190.375C191.599 191.534 191.918 192.86 191.918 194.352C191.918 195.89 191.562 197.261 190.849 198.466C190.145 199.663 189.164 200.606 187.906 201.295C186.656 201.977 185.209 202.318 183.565 202.318ZM204.247 202.318C203.134 202.311 202.046 202.117 200.986 201.739C199.925 201.352 198.971 200.727 198.122 199.864C197.274 198.992 196.599 197.837 196.099 196.398C195.599 194.951 195.353 193.159 195.361 191.023C195.361 189.03 195.573 187.254 195.997 185.693C196.421 184.133 197.031 182.814 197.827 181.739C198.622 180.655 199.58 179.83 200.702 179.261C201.83 178.693 203.092 178.409 204.486 178.409C205.948 178.409 207.243 178.697 208.372 179.273C209.509 179.848 210.425 180.636 211.122 181.636C211.819 182.629 212.251 183.75 212.418 185H208.27C208.058 184.106 207.622 183.394 206.963 182.864C206.312 182.326 205.486 182.057 204.486 182.057C202.872 182.057 201.63 182.758 200.759 184.159C199.895 185.561 199.459 187.485 199.452 189.932H199.611C199.982 189.265 200.463 188.693 201.054 188.216C201.645 187.739 202.312 187.371 203.054 187.114C203.804 186.848 204.596 186.716 205.429 186.716C206.793 186.716 208.016 187.042 209.099 187.693C210.19 188.345 211.054 189.242 211.69 190.386C212.327 191.523 212.641 192.826 212.634 194.295C212.641 195.826 212.293 197.201 211.588 198.42C210.884 199.633 209.902 200.587 208.645 201.284C207.387 201.981 205.921 202.326 204.247 202.318ZM204.224 198.909C205.05 198.909 205.789 198.708 206.44 198.307C207.092 197.905 207.607 197.364 207.986 196.682C208.365 196 208.55 195.235 208.543 194.386C208.55 193.553 208.368 192.799 207.997 192.125C207.634 191.451 207.13 190.917 206.486 190.523C205.842 190.129 205.107 189.932 204.281 189.932C203.668 189.932 203.096 190.049 202.565 190.284C202.035 190.519 201.573 190.845 201.179 191.261C200.785 191.67 200.474 192.148 200.247 192.693C200.027 193.231 199.914 193.807 199.906 194.42C199.914 195.231 200.103 195.977 200.474 196.659C200.846 197.341 201.357 197.886 202.009 198.295C202.66 198.705 203.399 198.909 204.224 198.909ZM217.327 202L227.224 182.409V182.25H215.736V178.727H231.588V182.33L221.702 202H217.327ZM243.06 202.318C241.37 202.318 239.87 202.034 238.56 201.466C237.257 200.898 236.234 200.121 235.491 199.136C234.757 198.144 234.393 197.019 234.401 195.761C234.393 194.784 234.605 193.886 235.037 193.068C235.469 192.25 236.052 191.568 236.787 191.023C237.529 190.47 238.355 190.117 239.264 189.966V189.807C238.067 189.542 237.098 188.932 236.355 187.977C235.62 187.015 235.257 185.905 235.264 184.648C235.257 183.451 235.59 182.383 236.264 181.443C236.938 180.504 237.863 179.765 239.037 179.227C240.211 178.682 241.552 178.409 243.06 178.409C244.552 178.409 245.882 178.682 247.048 179.227C248.223 179.765 249.147 180.504 249.821 181.443C250.503 182.383 250.844 183.451 250.844 184.648C250.844 185.905 250.469 187.015 249.719 187.977C248.976 188.932 248.018 189.542 246.844 189.807V189.966C247.753 190.117 248.571 190.47 249.298 191.023C250.033 191.568 250.616 192.25 251.048 193.068C251.488 193.886 251.707 194.784 251.707 195.761C251.707 197.019 251.336 198.144 250.594 199.136C249.851 200.121 248.829 200.898 247.526 201.466C246.23 202.034 244.741 202.318 243.06 202.318ZM243.06 199.068C243.931 199.068 244.688 198.92 245.332 198.625C245.976 198.322 246.476 197.898 246.832 197.352C247.188 196.807 247.37 196.178 247.378 195.466C247.37 194.723 247.177 194.068 246.798 193.5C246.427 192.924 245.916 192.473 245.264 192.148C244.62 191.822 243.885 191.659 243.06 191.659C242.226 191.659 241.484 191.822 240.832 192.148C240.181 192.473 239.666 192.924 239.287 193.5C238.916 194.068 238.734 194.723 238.741 195.466C238.734 196.178 238.908 196.807 239.264 197.352C239.62 197.89 240.12 198.311 240.764 198.614C241.416 198.917 242.181 199.068 243.06 199.068ZM243.06 188.466C243.772 188.466 244.401 188.322 244.946 188.034C245.499 187.746 245.935 187.345 246.253 186.83C246.571 186.314 246.734 185.72 246.741 185.045C246.734 184.379 246.575 183.795 246.264 183.295C245.954 182.788 245.522 182.398 244.969 182.125C244.416 181.845 243.779 181.705 243.06 181.705C242.325 181.705 241.677 181.845 241.116 182.125C240.563 182.398 240.132 182.788 239.821 183.295C239.518 183.795 239.37 184.379 239.378 185.045C239.37 185.72 239.522 186.314 239.832 186.83C240.151 187.337 240.586 187.739 241.139 188.034C241.7 188.322 242.34 188.466 243.06 188.466ZM72.0057 236.727C71.089 236.727 70.2519 236.504 69.4943 236.057C68.7367 235.602 68.1307 234.996 67.6761 234.239C67.2292 233.481 67.0057 232.644 67.0057 231.727C67.0057 230.803 67.2292 229.966 67.6761 229.216C68.1307 228.458 68.7367 227.856 69.4943 227.409C70.2519 226.955 71.089 226.727 72.0057 226.727C72.9299 226.727 73.767 226.955 74.517 227.409C75.2746 227.856 75.8769 228.458 76.3239 229.216C76.7784 229.966 77.0057 230.803 77.0057 231.727C77.0057 232.644 76.7784 233.481 76.3239 234.239C75.8769 234.996 75.2746 235.602 74.517 236.057C73.767 236.504 72.9299 236.727 72.0057 236.727ZM98.2955 241V217.727H107.023C108.811 217.727 110.311 218.038 111.523 218.659C112.742 219.28 113.663 220.152 114.284 221.273C114.913 222.386 115.227 223.686 115.227 225.17C115.227 226.663 114.909 227.958 114.273 229.057C113.644 230.148 112.716 230.992 111.489 231.591C110.261 232.182 108.754 232.477 106.966 232.477H100.75V228.977H106.398C107.443 228.977 108.299 228.833 108.966 228.545C109.633 228.25 110.125 227.822 110.443 227.261C110.769 226.693 110.932 225.996 110.932 225.17C110.932 224.345 110.769 223.64 110.443 223.057C110.117 222.466 109.621 222.019 108.955 221.716C108.288 221.405 107.428 221.25 106.375 221.25H102.511V241H98.2955ZM110.318 230.455L116.08 241H111.375L105.716 230.455H110.318ZM127.699 241L131.517 217.727H134.699L130.881 241H127.699ZM117.21 235L117.744 231.818H135.653L135.119 235H117.21ZM119.517 241L123.335 217.727H126.517L122.699 241H119.517ZM118.562 226.909L119.085 223.727H136.994L136.472 226.909H118.562ZM152.861 223.409H149.156C149.156 222.697 148.94 222.102 148.509 221.625C148.084 221.148 147.429 220.909 146.543 220.909C146.05 220.909 145.615 220.992 145.236 221.159C144.865 221.318 144.577 221.542 144.372 221.83C144.168 222.11 144.065 222.432 144.065 222.795C144.065 223.189 144.183 223.553 144.418 223.886C144.66 224.22 144.955 224.511 145.304 224.761C145.66 225.004 145.997 225.201 146.315 225.352L150.69 227.568C150.986 227.712 151.342 227.917 151.759 228.182C152.175 228.439 152.577 228.777 152.963 229.193C153.349 229.602 153.66 230.098 153.895 230.682C154.137 231.258 154.236 231.939 154.19 232.727C154.152 233.333 153.974 233.875 153.656 234.352C153.338 234.83 152.955 235.227 152.509 235.545C152.069 235.856 151.641 236.076 151.224 236.205L151.19 236.25C151.796 236.78 152.251 237.383 152.554 238.057C152.857 238.731 153.012 239.477 153.02 240.295C153.02 241.462 152.728 242.447 152.145 243.25C151.569 244.061 150.796 244.67 149.827 245.08C148.865 245.496 147.793 245.705 146.611 245.705C145.277 245.705 144.099 245.455 143.077 244.955C142.054 244.455 141.255 243.746 140.679 242.83C140.111 241.92 139.827 240.841 139.827 239.591H143.554C143.546 240.439 143.823 241.091 144.384 241.545C144.952 242 145.705 242.216 146.645 242.193C147.312 242.186 147.914 242.027 148.452 241.716C148.997 241.413 149.274 240.939 149.281 240.295C149.281 239.841 149.16 239.455 148.918 239.136C148.675 238.811 148.38 238.538 148.031 238.318C147.69 238.091 147.368 237.898 147.065 237.739L142.69 235.568C142.387 235.424 142.027 235.22 141.611 234.955C141.194 234.689 140.793 234.348 140.406 233.932C140.02 233.515 139.705 233.015 139.463 232.432C139.221 231.841 139.122 231.152 139.168 230.364C139.205 229.758 139.372 229.216 139.668 228.739C139.971 228.261 140.342 227.864 140.781 227.545C141.228 227.227 141.687 227 142.156 226.864V226.807C141.611 226.277 141.171 225.686 140.838 225.034C140.505 224.375 140.338 223.629 140.338 222.795C140.338 221.765 140.603 220.845 141.134 220.034C141.664 219.216 142.395 218.576 143.327 218.114C144.259 217.644 145.33 217.409 146.543 217.409C147.815 217.409 148.925 217.667 149.872 218.182C150.819 218.697 151.554 219.409 152.077 220.318C152.599 221.22 152.861 222.25 152.861 223.409ZM150.702 232.886C150.732 232.568 150.668 232.269 150.509 231.989C150.357 231.701 150.13 231.436 149.827 231.193C149.531 230.951 149.179 230.731 148.77 230.534L144.747 228.523C144.459 228.379 144.152 228.364 143.827 228.477C143.509 228.591 143.236 228.803 143.009 229.114C142.781 229.417 142.656 229.78 142.634 230.205C142.596 230.712 142.759 231.163 143.122 231.557C143.486 231.943 143.978 232.284 144.599 232.58L148.531 234.523C148.796 234.659 149.092 234.674 149.418 234.568C149.751 234.455 150.043 234.254 150.293 233.966C150.543 233.67 150.679 233.311 150.702 232.886ZM163.074 241.352C161.968 241.352 160.972 241.155 160.085 240.761C159.206 240.36 158.509 239.769 157.994 238.989C157.487 238.208 157.233 237.246 157.233 236.102C157.233 235.117 157.415 234.303 157.778 233.659C158.142 233.015 158.638 232.5 159.267 232.114C159.896 231.727 160.604 231.436 161.392 231.239C162.188 231.034 163.009 230.886 163.858 230.795C164.881 230.689 165.71 230.595 166.347 230.511C166.983 230.42 167.445 230.284 167.733 230.102C168.028 229.913 168.176 229.621 168.176 229.227V229.159C168.176 228.303 167.922 227.64 167.415 227.17C166.907 226.701 166.176 226.466 165.222 226.466C164.214 226.466 163.415 226.686 162.824 227.125C162.241 227.564 161.847 228.083 161.642 228.682L157.801 228.136C158.104 227.076 158.604 226.189 159.301 225.477C159.998 224.758 160.85 224.22 161.858 223.864C162.866 223.5 163.979 223.318 165.199 223.318C166.04 223.318 166.877 223.417 167.71 223.614C168.544 223.811 169.305 224.136 169.994 224.591C170.684 225.038 171.237 225.648 171.653 226.42C172.078 227.193 172.29 228.159 172.29 229.318V241H168.335V238.602H168.199C167.949 239.087 167.597 239.542 167.142 239.966C166.695 240.383 166.131 240.72 165.449 240.977C164.775 241.227 163.983 241.352 163.074 241.352ZM164.142 238.33C164.968 238.33 165.684 238.167 166.29 237.841C166.896 237.508 167.362 237.068 167.688 236.523C168.021 235.977 168.188 235.383 168.188 234.739V232.682C168.059 232.788 167.839 232.886 167.528 232.977C167.225 233.068 166.884 233.148 166.506 233.216C166.127 233.284 165.752 233.345 165.381 233.398C165.009 233.451 164.688 233.496 164.415 233.534C163.801 233.617 163.252 233.754 162.767 233.943C162.282 234.133 161.9 234.398 161.619 234.739C161.339 235.072 161.199 235.504 161.199 236.034C161.199 236.792 161.475 237.364 162.028 237.75C162.581 238.136 163.286 238.33 164.142 238.33ZM190.222 228.159L186.472 228.568C186.366 228.189 186.18 227.833 185.915 227.5C185.657 227.167 185.309 226.898 184.869 226.693C184.43 226.489 183.892 226.386 183.256 226.386C182.4 226.386 181.68 226.572 181.097 226.943C180.521 227.314 180.237 227.795 180.244 228.386C180.237 228.894 180.422 229.307 180.801 229.625C181.188 229.943 181.824 230.205 182.71 230.409L185.688 231.045C187.339 231.402 188.566 231.966 189.369 232.739C190.18 233.511 190.589 234.523 190.597 235.773C190.589 236.871 190.267 237.841 189.631 238.682C189.002 239.515 188.127 240.167 187.006 240.636C185.884 241.106 184.597 241.341 183.142 241.341C181.006 241.341 179.286 240.894 177.983 240C176.68 239.098 175.903 237.845 175.653 236.239L179.665 235.852C179.847 236.64 180.233 237.235 180.824 237.636C181.415 238.038 182.184 238.239 183.131 238.239C184.108 238.239 184.892 238.038 185.483 237.636C186.081 237.235 186.381 236.739 186.381 236.148C186.381 235.648 186.188 235.235 185.801 234.909C185.422 234.583 184.831 234.333 184.028 234.159L181.051 233.534C179.377 233.186 178.138 232.598 177.335 231.773C176.532 230.939 176.134 229.886 176.142 228.614C176.134 227.538 176.426 226.606 177.017 225.818C177.616 225.023 178.445 224.409 179.506 223.977C180.574 223.538 181.805 223.318 183.199 223.318C185.244 223.318 186.854 223.754 188.028 224.625C189.21 225.496 189.941 226.674 190.222 228.159ZM202.83 223.545V226.727H192.511V223.545H202.83ZM195.091 241V221.898C195.091 220.723 195.333 219.746 195.818 218.966C196.311 218.186 196.97 217.602 197.795 217.216C198.621 216.83 199.538 216.636 200.545 216.636C201.258 216.636 201.89 216.693 202.443 216.807C202.996 216.92 203.405 217.023 203.67 217.114L202.852 220.295C202.678 220.242 202.458 220.189 202.193 220.136C201.928 220.076 201.633 220.045 201.307 220.045C200.542 220.045 200 220.231 199.682 220.602C199.371 220.966 199.216 221.489 199.216 222.17V241H195.091ZM203.585 236.682V233.33L213.46 217.727H216.256V222.5H214.551L207.903 233.034V233.216H221.688V236.682H203.585ZM214.688 241V235.659L214.733 234.159V217.727H218.71V241H214.688ZM230.557 235.909L230.818 231.307L226.955 233.841L225.568 231.432L229.693 229.364L225.568 227.295L226.955 224.886L230.818 227.42L230.557 222.818H233.318L233.068 227.42L236.932 224.886L238.318 227.295L234.182 229.364L238.318 231.432L236.932 233.841L233.068 231.307L233.318 235.909H230.557ZM242.693 241V237.955L250.773 230.034C251.545 229.254 252.189 228.561 252.705 227.955C253.22 227.348 253.606 226.761 253.864 226.193C254.121 225.625 254.25 225.019 254.25 224.375C254.25 223.64 254.083 223.011 253.75 222.489C253.417 221.958 252.958 221.549 252.375 221.261C251.792 220.973 251.129 220.83 250.386 220.83C249.621 220.83 248.951 220.989 248.375 221.307C247.799 221.617 247.352 222.061 247.034 222.636C246.723 223.212 246.568 223.898 246.568 224.693H242.557C242.557 223.216 242.894 221.932 243.568 220.841C244.242 219.75 245.17 218.905 246.352 218.307C247.542 217.708 248.905 217.409 250.443 217.409C252.004 217.409 253.375 217.701 254.557 218.284C255.739 218.867 256.655 219.667 257.307 220.682C257.966 221.697 258.295 222.856 258.295 224.159C258.295 225.03 258.129 225.886 257.795 226.727C257.462 227.568 256.875 228.5 256.034 229.523C255.201 230.545 254.03 231.784 252.523 233.239L248.511 237.318V237.477H258.648V241H242.693ZM272.034 217.727V241H267.818V221.83H267.682L262.239 225.307V221.443L268.023 217.727H272.034ZM286.034 241.318C284.519 241.318 283.163 241.034 281.966 240.466C280.769 239.89 279.818 239.102 279.114 238.102C278.417 237.102 278.045 235.958 278 234.67H282.091C282.167 235.625 282.58 236.405 283.33 237.011C284.08 237.61 284.981 237.909 286.034 237.909C286.86 237.909 287.595 237.72 288.239 237.341C288.883 236.962 289.39 236.436 289.761 235.761C290.133 235.087 290.314 234.318 290.307 233.455C290.314 232.576 290.129 231.795 289.75 231.114C289.371 230.432 288.852 229.898 288.193 229.511C287.534 229.117 286.777 228.92 285.92 228.92C285.223 228.913 284.538 229.042 283.864 229.307C283.189 229.572 282.655 229.92 282.261 230.352L278.455 229.727L279.67 217.727H293.17V221.25H283.159L282.489 227.42H282.625C283.057 226.913 283.667 226.492 284.455 226.159C285.242 225.818 286.106 225.648 287.045 225.648C288.455 225.648 289.712 225.981 290.818 226.648C291.924 227.307 292.795 228.216 293.432 229.375C294.068 230.534 294.386 231.86 294.386 233.352C294.386 234.89 294.03 236.261 293.318 237.466C292.614 238.663 291.633 239.606 290.375 240.295C289.125 240.977 287.678 241.318 286.034 241.318ZM304.716 241.307C303.345 241.307 302.117 240.955 301.034 240.25C299.951 239.545 299.095 238.523 298.466 237.182C297.837 235.841 297.523 234.212 297.523 232.295C297.523 230.356 297.841 228.72 298.477 227.386C299.121 226.045 299.989 225.034 301.08 224.352C302.17 223.663 303.386 223.318 304.727 223.318C305.75 223.318 306.591 223.492 307.25 223.841C307.909 224.182 308.432 224.595 308.818 225.08C309.205 225.557 309.504 226.008 309.716 226.432H309.886V217.727H314.011V241H309.966V238.25H309.716C309.504 238.674 309.197 239.125 308.795 239.602C308.394 240.072 307.864 240.473 307.205 240.807C306.545 241.14 305.716 241.307 304.716 241.307ZM305.864 237.932C306.735 237.932 307.477 237.697 308.091 237.227C308.705 236.75 309.17 236.087 309.489 235.239C309.807 234.39 309.966 233.402 309.966 232.273C309.966 231.144 309.807 230.163 309.489 229.33C309.178 228.496 308.716 227.848 308.102 227.386C307.496 226.924 306.75 226.693 305.864 226.693C304.947 226.693 304.182 226.932 303.568 227.409C302.955 227.886 302.492 228.545 302.182 229.386C301.871 230.227 301.716 231.189 301.716 232.273C301.716 233.364 301.871 234.337 302.182 235.193C302.5 236.042 302.966 236.712 303.58 237.205C304.201 237.689 304.962 237.932 305.864 237.932ZM323.418 241.352C322.312 241.352 321.315 241.155 320.429 240.761C319.55 240.36 318.853 239.769 318.338 238.989C317.83 238.208 317.577 237.246 317.577 236.102C317.577 235.117 317.759 234.303 318.122 233.659C318.486 233.015 318.982 232.5 319.611 232.114C320.24 231.727 320.948 231.436 321.736 231.239C322.531 231.034 323.353 230.886 324.202 230.795C325.224 230.689 326.054 230.595 326.69 230.511C327.327 230.42 327.789 230.284 328.077 230.102C328.372 229.913 328.52 229.621 328.52 229.227V229.159C328.52 228.303 328.266 227.64 327.759 227.17C327.251 226.701 326.52 226.466 325.565 226.466C324.558 226.466 323.759 226.686 323.168 227.125C322.584 227.564 322.19 228.083 321.986 228.682L318.145 228.136C318.448 227.076 318.948 226.189 319.645 225.477C320.342 224.758 321.194 224.22 322.202 223.864C323.209 223.5 324.323 223.318 325.543 223.318C326.384 223.318 327.221 223.417 328.054 223.614C328.887 223.811 329.649 224.136 330.338 224.591C331.027 225.038 331.58 225.648 331.997 226.42C332.421 227.193 332.634 228.159 332.634 229.318V241H328.679V238.602H328.543C328.293 239.087 327.94 239.542 327.486 239.966C327.039 240.383 326.474 240.72 325.793 240.977C325.118 241.227 324.327 241.352 323.418 241.352ZM324.486 238.33C325.312 238.33 326.027 238.167 326.634 237.841C327.24 237.508 327.705 237.068 328.031 236.523C328.365 235.977 328.531 235.383 328.531 234.739V232.682C328.402 232.788 328.183 232.886 327.872 232.977C327.569 233.068 327.228 233.148 326.849 233.216C326.471 233.284 326.096 233.345 325.724 233.398C325.353 233.451 325.031 233.496 324.759 233.534C324.145 233.617 323.596 233.754 323.111 233.943C322.626 234.133 322.243 234.398 321.963 234.739C321.683 235.072 321.543 235.504 321.543 236.034C321.543 236.792 321.819 237.364 322.372 237.75C322.925 238.136 323.63 238.33 324.486 238.33ZM72.0057 275.727C71.089 275.727 70.2519 275.504 69.4943 275.057C68.7367 274.602 68.1307 273.996 67.6761 273.239C67.2292 272.481 67.0057 271.644 67.0057 270.727C67.0057 269.803 67.2292 268.966 67.6761 268.216C68.1307 267.458 68.7367 266.856 69.4943 266.409C70.2519 265.955 71.089 265.727 72.0057 265.727C72.9299 265.727 73.767 265.955 74.517 266.409C75.2746 266.856 75.8769 267.458 76.3239 268.216C76.7784 268.966 77.0057 269.803 77.0057 270.727C77.0057 271.644 76.7784 272.481 76.3239 273.239C75.8769 273.996 75.2746 274.602 74.517 275.057C73.767 275.504 72.9299 275.727 72.0057 275.727ZM98.1136 286.545V262.545H102.159V265.432H102.398C102.61 265.008 102.909 264.557 103.295 264.08C103.682 263.595 104.205 263.182 104.864 262.841C105.523 262.492 106.364 262.318 107.386 262.318C108.735 262.318 109.951 262.663 111.034 263.352C112.125 264.034 112.989 265.045 113.625 266.386C114.269 267.72 114.591 269.356 114.591 271.295C114.591 273.212 114.277 274.841 113.648 276.182C113.019 277.523 112.163 278.545 111.08 279.25C109.996 279.955 108.769 280.307 107.398 280.307C106.398 280.307 105.568 280.14 104.909 279.807C104.25 279.473 103.72 279.072 103.318 278.602C102.924 278.125 102.617 277.674 102.398 277.25H102.227V286.545H98.1136ZM102.148 271.273C102.148 272.402 102.307 273.39 102.625 274.239C102.951 275.087 103.417 275.75 104.023 276.227C104.636 276.697 105.379 276.932 106.25 276.932C107.159 276.932 107.92 276.689 108.534 276.205C109.148 275.712 109.61 275.042 109.92 274.193C110.239 273.337 110.398 272.364 110.398 271.273C110.398 270.189 110.242 269.227 109.932 268.386C109.621 267.545 109.159 266.886 108.545 266.409C107.932 265.932 107.167 265.693 106.25 265.693C105.371 265.693 104.625 265.924 104.011 266.386C103.398 266.848 102.932 267.496 102.614 268.33C102.303 269.163 102.148 270.144 102.148 271.273ZM132.739 286.523C130.352 286.523 128.231 286.197 126.375 285.545C124.527 284.902 122.966 283.951 121.693 282.693C120.42 281.443 119.455 279.917 118.795 278.114C118.136 276.311 117.803 274.25 117.795 271.932C117.803 269.667 118.14 267.625 118.807 265.807C119.473 263.981 120.447 262.42 121.727 261.125C123.008 259.822 124.572 258.822 126.42 258.125C128.269 257.428 130.371 257.08 132.727 257.08C134.947 257.08 136.913 257.417 138.625 258.091C140.345 258.765 141.795 259.705 142.977 260.909C144.167 262.106 145.064 263.508 145.67 265.114C146.284 266.712 146.591 268.447 146.591 270.318C146.591 271.614 146.492 272.841 146.295 274C146.098 275.152 145.761 276.174 145.284 277.068C144.814 277.962 144.174 278.674 143.364 279.205C142.553 279.727 141.538 280.011 140.318 280.057C139.553 280.095 138.883 280.023 138.307 279.841C137.731 279.659 137.265 279.375 136.909 278.989C136.561 278.595 136.341 278.114 136.25 277.545H136.114C135.939 278 135.61 278.417 135.125 278.795C134.648 279.167 134.057 279.458 133.352 279.67C132.648 279.875 131.864 279.958 131 279.92C130.076 279.875 129.22 279.663 128.432 279.284C127.652 278.898 126.97 278.36 126.386 277.67C125.811 276.973 125.364 276.133 125.045 275.148C124.727 274.163 124.568 273.045 124.568 271.795C124.568 270.576 124.742 269.5 125.091 268.568C125.439 267.636 125.905 266.841 126.489 266.182C127.08 265.523 127.746 265.008 128.489 264.636C129.231 264.258 129.996 264.015 130.784 263.909C131.602 263.795 132.371 263.807 133.091 263.943C133.811 264.08 134.409 264.288 134.886 264.568C135.371 264.848 135.674 265.155 135.795 265.489H135.955V264.216H139.125V275.034C139.133 275.602 139.269 276.061 139.534 276.409C139.807 276.758 140.186 276.932 140.67 276.932C141.277 276.932 141.765 276.693 142.136 276.216C142.515 275.731 142.788 274.989 142.955 273.989C143.129 272.981 143.212 271.693 143.205 270.125C143.212 268.837 143.042 267.67 142.693 266.625C142.352 265.572 141.867 264.648 141.239 263.852C140.61 263.057 139.856 262.394 138.977 261.864C138.106 261.326 137.136 260.92 136.068 260.648C135 260.375 133.86 260.239 132.648 260.239C130.792 260.239 129.159 260.523 127.75 261.091C126.341 261.652 125.159 262.451 124.205 263.489C123.258 264.527 122.542 265.758 122.057 267.182C121.58 268.598 121.341 270.167 121.341 271.886C121.341 273.727 121.591 275.36 122.091 276.784C122.598 278.201 123.341 279.394 124.318 280.364C125.295 281.333 126.504 282.068 127.943 282.568C129.39 283.068 131.053 283.318 132.932 283.318C133.795 283.318 134.64 283.25 135.466 283.114C136.292 282.977 137.034 282.818 137.693 282.636C138.352 282.455 138.86 282.295 139.216 282.159L140.182 285.045C139.712 285.288 139.076 285.523 138.273 285.75C137.477 285.977 136.598 286.163 135.636 286.307C134.682 286.451 133.716 286.523 132.739 286.523ZM131.943 276.659C132.905 276.659 133.674 276.473 134.25 276.102C134.826 275.723 135.239 275.163 135.489 274.42C135.739 273.678 135.86 272.754 135.852 271.648C135.852 270.617 135.723 269.773 135.466 269.114C135.208 268.455 134.795 267.966 134.227 267.648C133.659 267.33 132.905 267.17 131.966 267.17C131.117 267.17 130.394 267.364 129.795 267.75C129.205 268.136 128.75 268.67 128.432 269.352C128.121 270.027 127.966 270.795 127.966 271.659C127.966 272.523 128.091 273.337 128.341 274.102C128.598 274.86 129.015 275.477 129.591 275.955C130.174 276.424 130.958 276.659 131.943 276.659ZM163.878 267.159L160.128 267.568C160.022 267.189 159.836 266.833 159.571 266.5C159.313 266.167 158.965 265.898 158.526 265.693C158.086 265.489 157.548 265.386 156.912 265.386C156.056 265.386 155.336 265.572 154.753 265.943C154.177 266.314 153.893 266.795 153.901 267.386C153.893 267.894 154.079 268.307 154.457 268.625C154.844 268.943 155.48 269.205 156.366 269.409L159.344 270.045C160.995 270.402 162.223 270.966 163.026 271.739C163.836 272.511 164.245 273.523 164.253 274.773C164.245 275.871 163.923 276.841 163.287 277.682C162.658 278.515 161.783 279.167 160.662 279.636C159.541 280.106 158.253 280.341 156.798 280.341C154.662 280.341 152.942 279.894 151.639 279C150.336 278.098 149.56 276.845 149.31 275.239L153.321 274.852C153.503 275.64 153.889 276.235 154.48 276.636C155.071 277.038 155.84 277.239 156.787 277.239C157.764 277.239 158.548 277.038 159.139 276.636C159.738 276.235 160.037 275.739 160.037 275.148C160.037 274.648 159.844 274.235 159.457 273.909C159.079 273.583 158.488 273.333 157.685 273.159L154.707 272.534C153.033 272.186 151.795 271.598 150.991 270.773C150.188 269.939 149.791 268.886 149.798 267.614C149.791 266.538 150.082 265.606 150.673 264.818C151.272 264.023 152.101 263.409 153.162 262.977C154.23 262.538 155.461 262.318 156.855 262.318C158.901 262.318 160.51 262.754 161.685 263.625C162.866 264.496 163.598 265.674 163.878 267.159ZM181.44 267.159L177.69 267.568C177.584 267.189 177.399 266.833 177.134 266.5C176.876 266.167 176.527 265.898 176.088 265.693C175.649 265.489 175.111 265.386 174.474 265.386C173.618 265.386 172.899 265.572 172.315 265.943C171.74 266.314 171.455 266.795 171.463 267.386C171.455 267.894 171.641 268.307 172.02 268.625C172.406 268.943 173.043 269.205 173.929 269.409L176.906 270.045C178.558 270.402 179.785 270.966 180.588 271.739C181.399 272.511 181.808 273.523 181.815 274.773C181.808 275.871 181.486 276.841 180.849 277.682C180.221 278.515 179.346 279.167 178.224 279.636C177.103 280.106 175.815 280.341 174.361 280.341C172.224 280.341 170.505 279.894 169.202 279C167.899 278.098 167.122 276.845 166.872 275.239L170.884 274.852C171.065 275.64 171.452 276.235 172.043 276.636C172.634 277.038 173.402 277.239 174.349 277.239C175.327 277.239 176.111 277.038 176.702 276.636C177.3 276.235 177.599 275.739 177.599 275.148C177.599 274.648 177.406 274.235 177.02 273.909C176.641 273.583 176.05 273.333 175.247 273.159L172.27 272.534C170.596 272.186 169.357 271.598 168.554 270.773C167.751 269.939 167.353 268.886 167.361 267.614C167.353 266.538 167.645 265.606 168.236 264.818C168.834 264.023 169.664 263.409 170.724 262.977C171.793 262.538 173.024 262.318 174.418 262.318C176.463 262.318 178.073 262.754 179.247 263.625C180.429 264.496 181.16 265.674 181.44 267.159ZM188.81 280L183.878 262.545H188.071L191.139 274.818H191.298L194.435 262.545H198.582L201.719 274.75H201.889L204.912 262.545H209.116L204.173 280H199.889L196.616 268.205H196.378L193.105 280H188.81ZM220.545 280.443C218.674 280.443 217.068 279.97 215.727 279.023C214.394 278.068 213.367 276.693 212.648 274.898C211.936 273.095 211.58 270.924 211.58 268.386C211.587 265.848 211.947 263.689 212.659 261.909C213.379 260.121 214.405 258.758 215.739 257.818C217.08 256.879 218.682 256.409 220.545 256.409C222.409 256.409 224.011 256.879 225.352 257.818C226.693 258.758 227.72 260.121 228.432 261.909C229.152 263.697 229.511 265.856 229.511 268.386C229.511 270.932 229.152 273.106 228.432 274.909C227.72 276.705 226.693 278.076 225.352 279.023C224.019 279.97 222.417 280.443 220.545 280.443ZM220.545 276.886C222 276.886 223.148 276.17 223.989 274.739C224.837 273.299 225.261 271.182 225.261 268.386C225.261 266.538 225.068 264.985 224.682 263.727C224.295 262.47 223.75 261.523 223.045 260.886C222.341 260.242 221.508 259.92 220.545 259.92C219.098 259.92 217.955 260.64 217.114 262.08C216.273 263.511 215.848 265.614 215.841 268.386C215.833 270.242 216.019 271.803 216.398 273.068C216.784 274.333 217.33 275.288 218.034 275.932C218.739 276.568 219.576 276.886 220.545 276.886ZM233.332 280V262.545H237.321V265.455H237.503C237.821 264.447 238.366 263.67 239.139 263.125C239.92 262.572 240.81 262.295 241.81 262.295C242.037 262.295 242.291 262.307 242.571 262.33C242.859 262.345 243.098 262.371 243.287 262.409V266.193C243.113 266.133 242.836 266.08 242.457 266.034C242.086 265.981 241.726 265.955 241.378 265.955C240.628 265.955 239.954 266.117 239.355 266.443C238.764 266.761 238.298 267.205 237.957 267.773C237.616 268.341 237.446 268.996 237.446 269.739V280H233.332ZM251.778 280.307C250.407 280.307 249.18 279.955 248.097 279.25C247.013 278.545 246.157 277.523 245.528 276.182C244.9 274.841 244.585 273.212 244.585 271.295C244.585 269.356 244.903 267.72 245.54 266.386C246.184 265.045 247.051 264.034 248.142 263.352C249.233 262.663 250.449 262.318 251.79 262.318C252.813 262.318 253.653 262.492 254.312 262.841C254.972 263.182 255.494 263.595 255.881 264.08C256.267 264.557 256.566 265.008 256.778 265.432H256.949V256.727H261.074V280H257.028V277.25H256.778C256.566 277.674 256.259 278.125 255.858 278.602C255.456 279.072 254.926 279.473 254.267 279.807C253.608 280.14 252.778 280.307 251.778 280.307ZM252.926 276.932C253.797 276.932 254.54 276.697 255.153 276.227C255.767 275.75 256.233 275.087 256.551 274.239C256.869 273.39 257.028 272.402 257.028 271.273C257.028 270.144 256.869 269.163 256.551 268.33C256.241 267.496 255.778 266.848 255.165 266.386C254.559 265.924 253.813 265.693 252.926 265.693C252.009 265.693 251.244 265.932 250.631 266.409C250.017 266.886 249.555 267.545 249.244 268.386C248.934 269.227 248.778 270.189 248.778 271.273C248.778 272.364 248.934 273.337 249.244 274.193C249.563 275.042 250.028 275.712 250.642 276.205C251.263 276.689 252.025 276.932 252.926 276.932Z" fill="black"/>
<circle cx="72" cy="152" r="16" fill="#FF8A00"/>
<path d="M68.3026 159H65.4901L70.6108 144.455H73.8636L78.9915 159H76.179L72.294 147.438H72.1804L68.3026 159ZM68.3949 153.297H76.0653V155.413H68.3949V153.297Z" fill="white"/>
<circle cx="72" cy="194" r="16" fill="#FF8A00"/>
<path d="M66.4347 201V186.455H72.0028C73.054 186.455 73.9276 186.62 74.6236 186.952C75.3243 187.278 75.8475 187.726 76.1932 188.294C76.5436 188.862 76.7188 189.506 76.7188 190.226C76.7188 190.818 76.6051 191.324 76.3778 191.746C76.1506 192.162 75.8452 192.501 75.4616 192.761C75.0781 193.022 74.6496 193.209 74.1761 193.322V193.464C74.6922 193.493 75.187 193.652 75.6605 193.94C76.1387 194.224 76.5294 194.627 76.8324 195.148C77.1354 195.669 77.2869 196.298 77.2869 197.037C77.2869 197.79 77.1046 198.467 76.7401 199.068C76.3755 199.665 75.8262 200.136 75.0923 200.482C74.3584 200.827 73.4351 201 72.3224 201H66.4347ZM69.0696 198.798H71.9034C72.8598 198.798 73.5488 198.616 73.9702 198.251C74.3963 197.882 74.6094 197.409 74.6094 196.831C74.6094 196.4 74.5028 196.012 74.2898 195.666C74.0767 195.316 73.7737 195.041 73.3807 194.842C72.9877 194.639 72.5189 194.537 71.9744 194.537H69.0696V198.798ZM69.0696 192.641H71.6761C72.1307 192.641 72.5402 192.558 72.9048 192.392C73.2694 192.222 73.5559 191.982 73.7642 191.675C73.9773 191.362 74.0838 190.993 74.0838 190.567C74.0838 190.003 73.8849 189.539 73.4872 189.175C73.0942 188.81 72.5095 188.628 71.733 188.628H69.0696V192.641Z" fill="white"/>
<circle cx="72" cy="236" r="16" fill="#FF8A00"/>
<path d="M78.8849 233.362H76.2287C76.1529 232.927 76.0133 232.541 75.8097 232.205C75.6061 231.864 75.3527 231.575 75.0497 231.338C74.7467 231.101 74.401 230.924 74.0128 230.805C73.6293 230.682 73.215 230.621 72.7699 230.621C71.9792 230.621 71.2784 230.82 70.6676 231.217C70.0568 231.61 69.5786 232.188 69.233 232.95C68.8873 233.708 68.7145 234.634 68.7145 235.727C68.7145 236.84 68.8873 237.777 69.233 238.54C69.5833 239.297 70.0616 239.87 70.6676 240.259C71.2784 240.642 71.9768 240.834 72.7628 240.834C73.1984 240.834 73.6056 240.777 73.9844 240.663C74.3679 240.545 74.7112 240.372 75.0142 240.145C75.322 239.918 75.58 239.638 75.7884 239.307C76.0014 238.975 76.1482 238.597 76.2287 238.17L78.8849 238.185C78.7855 238.876 78.5701 239.525 78.2386 240.131C77.9119 240.737 77.4834 241.272 76.9531 241.736C76.4228 242.195 75.8026 242.555 75.0923 242.815C74.3821 243.071 73.5938 243.199 72.7273 243.199C71.4489 243.199 70.3078 242.903 69.304 242.311C68.3002 241.719 67.5095 240.865 66.9318 239.747C66.3542 238.63 66.0653 237.29 66.0653 235.727C66.0653 234.16 66.3565 232.82 66.9389 231.707C67.5213 230.59 68.3144 229.735 69.3182 229.143C70.322 228.552 71.4583 228.256 72.7273 228.256C73.5369 228.256 74.2898 228.369 74.9858 228.597C75.6818 228.824 76.3021 229.158 76.8466 229.598C77.3911 230.034 77.8385 230.569 78.1889 231.203C78.544 231.833 78.776 232.553 78.8849 233.362Z" fill="white"/>
<circle cx="72" cy="278" r="16" fill="#FF8A00"/>
<path d="M71.3636 285H66.4347V270.455H71.4631C72.9072 270.455 74.1477 270.746 75.1847 271.328C76.2263 271.906 77.0265 272.737 77.5852 273.821C78.1439 274.905 78.4233 276.203 78.4233 277.713C78.4233 279.228 78.1416 280.53 77.5781 281.619C77.0194 282.708 76.2121 283.544 75.1562 284.126C74.1051 284.709 72.8409 285 71.3636 285ZM69.0696 282.72H71.2358C72.2491 282.72 73.0942 282.536 73.7713 282.166C74.4484 281.792 74.9574 281.236 75.2983 280.497C75.6392 279.754 75.8097 278.826 75.8097 277.713C75.8097 276.6 75.6392 275.677 75.2983 274.943C74.9574 274.205 74.4531 273.653 73.7855 273.288C73.1226 272.919 72.2988 272.734 71.3139 272.734H69.0696V282.72Z" fill="white"/>
<g style="mix-blend-mode:multiply">
<rect x="280.016" width="7.98933" height="4.66354" fill="#C0C0C0"/>
</g>
<rect x="130.825" y="6.21777" width="66.9106" height="5.4408" rx="2.7204" fill="#171718"/>
<g style="mix-blend-mode:multiply">
<rect x="411.046" y="66.0674" width="5.992" height="6.21805" fill="#C0C0C0"/>
</g>
<g style="mix-blend-mode:multiply">
<rect x="1.99707" y="66.0674" width="5.992" height="6.21805" fill="#C0C0C0"/>
</g>
<path fill-rule="evenodd" clip-rule="evenodd" d="M131.829 15.5449H127.829V15.5449C127.829 15.5449 127.829 15.5449 127.829 15.5449C129.95 15.5449 131.669 17.2639 131.669 19.3844C131.669 19.4382 131.668 19.4917 131.665 19.5449H131.829V15.5449Z" fill="black"/>
<path d="M131.829 15.5449H285.829V27.7077C285.829 38.6635 276.948 47.5449 265.992 47.5449H151.666C140.711 47.5449 131.829 38.6635 131.829 27.7077V15.5449Z" fill="black"/>
<path fill-rule="evenodd" clip-rule="evenodd" d="M285.829 15.5449H289.829V15.5449C289.829 15.5449 289.829 15.5449 289.829 15.5449C287.626 15.5449 285.838 17.3342 285.829 19.5449V15.5449Z" fill="black"/>
<ellipse cx="151.797" cy="24.095" rx="7.98933" ry="6.21805" fill="#171718"/>
</g>
<defs>
<linearGradient id="paint0_linear_529_2722" x1="209.22" y1="0" x2="209.22" y2="663" gradientUnits="userSpaceOnUse">
<stop stop-color="#527190"/>
<stop offset="1" stop-color="#2B4A69"/>
</linearGradient>
<clipPath id="clip0_529_2722">
<rect width="419" height="378" fill="white"/>
</clipPath>
</defs>
</svg>
