<svg width="419" height="378" viewBox="0 0 419 378" fill="none" xmlns="http://www.w3.org/2000/svg">
<g clip-path="url(#clip0_529_2778)">
<rect x="416.444" y="198.978" width="2.55623" height="76.5956" rx="1.27811" fill="#C4C4C4"/>
<rect y="133.688" width="2.996" height="23.3177" rx="1.27982" fill="#C4C4C4"/>
<rect y="181.877" width="2.996" height="48.1899" rx="1.27982" fill="#C4C4C4"/>
<rect y="245.612" width="2.996" height="48.1899" rx="1.27982" fill="#C4C4C4"/>
<rect x="1.99707" width="414.446" height="663" rx="65" fill="url(#paint0_linear_529_2778)"/>
<rect x="8" y="5" width="402.462" height="653.673" rx="60" fill="black"/>
<rect x="28" y="24" width="363" height="623" rx="42" fill="#FFD037"/>
<path d="M73.0043 295.795C72.3168 295.795 71.6889 295.628 71.1207 295.293C70.5526 294.952 70.098 294.497 69.7571 293.929C69.4219 293.361 69.2543 292.733 69.2543 292.045C69.2543 291.352 69.4219 290.724 69.7571 290.162C70.098 289.594 70.5526 289.142 71.1207 288.807C71.6889 288.466 72.3168 288.295 73.0043 288.295C73.6974 288.295 74.3253 288.466 74.8878 288.807C75.456 289.142 75.9077 289.594 76.2429 290.162C76.5838 290.724 76.7543 291.352 76.7543 292.045C76.7543 292.733 76.5838 293.361 76.2429 293.929C75.9077 294.497 75.456 294.952 74.8878 295.293C74.3253 295.628 73.6974 295.795 73.0043 295.795ZM99.2159 285.909V288.295H91.4773V285.909H99.2159ZM93.4119 299V284.673C93.4119 283.793 93.5938 283.06 93.9574 282.474C94.3267 281.889 94.821 281.452 95.4403 281.162C96.0597 280.872 96.7472 280.727 97.5028 280.727C98.0369 280.727 98.5114 280.77 98.9261 280.855C99.3409 280.94 99.6477 281.017 99.8466 281.085L99.233 283.472C99.1023 283.432 98.9375 283.392 98.7386 283.352C98.5398 283.307 98.3182 283.284 98.0739 283.284C97.5 283.284 97.0938 283.423 96.8551 283.702C96.6222 283.974 96.5057 284.366 96.5057 284.878V299H93.4119ZM104.954 299.264C104.124 299.264 103.377 299.116 102.712 298.821C102.053 298.52 101.531 298.077 101.144 297.491C100.763 296.906 100.573 296.185 100.573 295.327C100.573 294.588 100.71 293.977 100.982 293.494C101.255 293.011 101.627 292.625 102.099 292.335C102.57 292.045 103.102 291.827 103.692 291.679C104.289 291.526 104.906 291.415 105.542 291.347C106.309 291.267 106.931 291.196 107.408 291.134C107.886 291.065 108.232 290.963 108.448 290.827C108.67 290.685 108.781 290.466 108.781 290.17V290.119C108.781 289.477 108.59 288.98 108.21 288.628C107.829 288.276 107.281 288.099 106.565 288.099C105.809 288.099 105.21 288.264 104.766 288.594C104.329 288.923 104.033 289.312 103.88 289.761L100.999 289.352C101.227 288.557 101.602 287.892 102.124 287.358C102.647 286.818 103.286 286.415 104.042 286.148C104.798 285.875 105.633 285.739 106.548 285.739C107.178 285.739 107.806 285.812 108.431 285.96C109.056 286.108 109.627 286.352 110.144 286.693C110.661 287.028 111.076 287.486 111.388 288.065C111.707 288.645 111.866 289.369 111.866 290.239V299H108.9V297.202H108.798C108.61 297.565 108.346 297.906 108.005 298.224C107.67 298.537 107.246 298.79 106.735 298.983C106.229 299.17 105.636 299.264 104.954 299.264ZM105.755 296.997C106.374 296.997 106.911 296.875 107.366 296.631C107.82 296.381 108.17 296.051 108.414 295.642C108.664 295.233 108.789 294.787 108.789 294.304V292.761C108.692 292.841 108.528 292.915 108.295 292.983C108.067 293.051 107.812 293.111 107.528 293.162C107.244 293.213 106.962 293.259 106.684 293.298C106.406 293.338 106.164 293.372 105.96 293.401C105.499 293.463 105.087 293.565 104.724 293.707C104.36 293.849 104.073 294.048 103.863 294.304C103.653 294.554 103.548 294.878 103.548 295.276C103.548 295.844 103.755 296.273 104.17 296.562C104.585 296.852 105.113 296.997 105.755 296.997ZM120.678 299.256C119.371 299.256 118.249 298.969 117.312 298.395C116.38 297.821 115.661 297.028 115.156 296.017C114.656 295 114.406 293.83 114.406 292.506C114.406 291.176 114.661 290.003 115.173 288.986C115.684 287.963 116.406 287.168 117.337 286.599C118.275 286.026 119.383 285.739 120.661 285.739C121.724 285.739 122.664 285.935 123.482 286.327C124.306 286.713 124.962 287.261 125.451 287.972C125.94 288.676 126.218 289.5 126.286 290.443H123.337C123.218 289.812 122.934 289.287 122.485 288.866C122.042 288.44 121.448 288.227 120.704 288.227C120.073 288.227 119.519 288.398 119.042 288.739C118.565 289.074 118.192 289.557 117.925 290.188C117.664 290.818 117.533 291.574 117.533 292.455C117.533 293.347 117.664 294.114 117.925 294.756C118.187 295.392 118.553 295.884 119.025 296.23C119.502 296.571 120.062 296.741 120.704 296.741C121.158 296.741 121.565 296.656 121.923 296.486C122.286 296.31 122.59 296.057 122.835 295.727C123.079 295.398 123.246 294.997 123.337 294.526H126.286C126.212 295.452 125.94 296.273 125.468 296.989C124.996 297.699 124.354 298.256 123.542 298.659C122.729 299.057 121.775 299.256 120.678 299.256ZM128.956 299V281.545H140.308V284.196H132.118V288.935H139.72V291.585H132.118V296.349H140.376V299H128.956ZM143.534 299V281.545H146.619V288.074H146.747C146.906 287.756 147.131 287.418 147.42 287.06C147.71 286.696 148.102 286.386 148.597 286.131C149.091 285.869 149.722 285.739 150.489 285.739C151.5 285.739 152.412 285.997 153.224 286.514C154.043 287.026 154.69 287.784 155.168 288.79C155.651 289.79 155.892 291.017 155.892 292.472C155.892 293.909 155.656 295.131 155.185 296.136C154.713 297.142 154.071 297.909 153.259 298.438C152.446 298.966 151.526 299.23 150.497 299.23C149.747 299.23 149.125 299.105 148.631 298.855C148.136 298.605 147.739 298.304 147.438 297.952C147.142 297.594 146.912 297.256 146.747 296.938H146.568V299H143.534ZM146.56 292.455C146.56 293.301 146.679 294.043 146.918 294.679C147.162 295.315 147.511 295.812 147.966 296.17C148.426 296.523 148.983 296.699 149.636 296.699C150.318 296.699 150.889 296.517 151.349 296.153C151.81 295.784 152.156 295.281 152.389 294.645C152.628 294.003 152.747 293.273 152.747 292.455C152.747 291.642 152.631 290.92 152.398 290.29C152.165 289.659 151.818 289.165 151.358 288.807C150.898 288.449 150.324 288.27 149.636 288.27C148.977 288.27 148.418 288.443 147.957 288.79C147.497 289.136 147.148 289.622 146.909 290.247C146.676 290.872 146.56 291.608 146.56 292.455ZM164.933 299.332C163.529 299.332 162.325 298.977 161.319 298.267C160.319 297.551 159.549 296.52 159.009 295.173C158.475 293.821 158.208 292.193 158.208 290.29C158.214 288.386 158.484 286.767 159.018 285.432C159.558 284.091 160.327 283.068 161.327 282.364C162.333 281.659 163.535 281.307 164.933 281.307C166.33 281.307 167.532 281.659 168.538 282.364C169.543 283.068 170.313 284.091 170.847 285.432C171.387 286.773 171.657 288.392 171.657 290.29C171.657 292.199 171.387 293.83 170.847 295.182C170.313 296.528 169.543 297.557 168.538 298.267C167.538 298.977 166.336 299.332 164.933 299.332ZM164.933 296.665C166.023 296.665 166.884 296.128 167.515 295.054C168.151 293.974 168.469 292.386 168.469 290.29C168.469 288.903 168.325 287.739 168.035 286.795C167.745 285.852 167.336 285.142 166.808 284.665C166.279 284.182 165.654 283.94 164.933 283.94C163.847 283.94 162.989 284.48 162.359 285.56C161.728 286.634 161.41 288.21 161.404 290.29C161.398 291.682 161.538 292.852 161.822 293.801C162.112 294.75 162.521 295.466 163.049 295.949C163.577 296.426 164.205 296.665 164.933 296.665ZM180.233 299.256C178.955 299.256 177.847 298.974 176.909 298.412C175.972 297.849 175.244 297.062 174.727 296.051C174.216 295.04 173.96 293.858 173.96 292.506C173.96 291.153 174.216 289.969 174.727 288.952C175.244 287.935 175.972 287.145 176.909 286.582C177.847 286.02 178.955 285.739 180.233 285.739C181.511 285.739 182.619 286.02 183.557 286.582C184.494 287.145 185.219 287.935 185.73 288.952C186.247 289.969 186.506 291.153 186.506 292.506C186.506 293.858 186.247 295.04 185.73 296.051C185.219 297.062 184.494 297.849 183.557 298.412C182.619 298.974 181.511 299.256 180.233 299.256ZM180.25 296.784C180.943 296.784 181.523 296.594 181.989 296.213C182.455 295.827 182.801 295.31 183.028 294.662C183.261 294.014 183.378 293.293 183.378 292.497C183.378 291.696 183.261 290.972 183.028 290.324C182.801 289.67 182.455 289.151 181.989 288.764C181.523 288.378 180.943 288.185 180.25 288.185C179.54 288.185 178.949 288.378 178.477 288.764C178.011 289.151 177.662 289.67 177.429 290.324C177.202 290.972 177.088 291.696 177.088 292.497C177.088 293.293 177.202 294.014 177.429 294.662C177.662 295.31 178.011 295.827 178.477 296.213C178.949 296.594 179.54 296.784 180.25 296.784ZM191.937 294.892L191.928 291.168H192.423L197.127 285.909H200.732L194.945 292.352H194.306L191.937 294.892ZM189.124 299V281.545H192.21V299H189.124ZM197.34 299L193.079 293.043L195.158 290.869L201.031 299H197.34Z" fill="black"/>
<path d="M73.0043 253.795C72.3168 253.795 71.6889 253.628 71.1207 253.293C70.5526 252.952 70.098 252.497 69.7571 251.929C69.4219 251.361 69.2543 250.733 69.2543 250.045C69.2543 249.352 69.4219 248.724 69.7571 248.162C70.098 247.594 70.5526 247.142 71.1207 246.807C71.6889 246.466 72.3168 246.295 73.0043 246.295C73.6974 246.295 74.3253 246.466 74.8878 246.807C75.456 247.142 75.9077 247.594 76.2429 248.162C76.5838 248.724 76.7543 249.352 76.7543 250.045C76.7543 250.733 76.5838 251.361 76.2429 251.929C75.9077 252.497 75.456 252.952 74.8878 253.293C74.3253 253.628 73.6974 253.795 73.0043 253.795ZM99.2244 251.136H102.088L103.784 253.335L104.994 254.767L107.901 258.5H104.832L102.855 255.994L102.011 254.801L99.2244 251.136ZM108.318 248.273C108.318 250.153 107.966 251.764 107.261 253.105C106.563 254.44 105.608 255.463 104.398 256.173C103.193 256.884 101.827 257.239 100.298 257.239C98.7699 257.239 97.4006 256.884 96.1903 256.173C94.9858 255.457 94.0313 254.432 93.3267 253.097C92.6278 251.756 92.2784 250.148 92.2784 248.273C92.2784 246.392 92.6278 244.784 93.3267 243.449C94.0313 242.108 94.9858 241.082 96.1903 240.372C97.4006 239.662 98.7699 239.307 100.298 239.307C101.827 239.307 103.193 239.662 104.398 240.372C105.608 241.082 106.563 242.108 107.261 243.449C107.966 244.784 108.318 246.392 108.318 248.273ZM105.139 248.273C105.139 246.949 104.932 245.832 104.517 244.923C104.108 244.009 103.54 243.318 102.812 242.852C102.085 242.381 101.247 242.145 100.298 242.145C99.3494 242.145 98.5114 242.381 97.7841 242.852C97.0568 243.318 96.4858 244.009 96.071 244.923C95.6619 245.832 95.4574 246.949 95.4574 248.273C95.4574 249.597 95.6619 250.716 96.071 251.631C96.4858 252.54 97.0568 253.23 97.7841 253.702C98.5114 254.168 99.3494 254.401 100.298 254.401C101.247 254.401 102.085 254.168 102.812 253.702C103.54 253.23 104.108 252.54 104.517 251.631C104.932 250.716 105.139 249.597 105.139 248.273ZM114.559 257L109.633 239.545H113.033L116.178 252.372H116.34L119.698 239.545H122.792L126.158 252.381H126.312L129.457 239.545H132.857L127.931 257H124.812L121.317 244.753H121.181L117.678 257H114.559ZM135.05 257V239.545H146.402V242.196H138.212V246.935H145.814V249.585H138.212V254.349H146.47V257H135.05ZM149.628 257V239.545H156.173C157.514 239.545 158.639 239.778 159.548 240.244C160.463 240.71 161.153 241.364 161.619 242.205C162.091 243.04 162.327 244.014 162.327 245.128C162.327 246.247 162.088 247.219 161.611 248.043C161.139 248.861 160.443 249.494 159.523 249.943C158.602 250.386 157.472 250.608 156.131 250.608H151.469V247.983H155.705C156.489 247.983 157.131 247.875 157.631 247.659C158.131 247.437 158.5 247.116 158.739 246.696C158.983 246.27 159.105 245.747 159.105 245.128C159.105 244.509 158.983 243.98 158.739 243.543C158.494 243.099 158.122 242.764 157.622 242.537C157.122 242.304 156.477 242.188 155.688 242.188H152.79V257H149.628ZM158.645 249.091L162.966 257H159.438L155.193 249.091H158.645ZM164.47 242.196V239.545H178.396V242.196H173.001V257H169.865V242.196H164.47ZM180.757 257V255.031L189.706 242.196H180.706V239.545H193.626V241.514L184.686 254.349H193.678V257H180.757ZM203.666 239.545V257H200.504V242.622H200.402L196.32 245.23V242.332L200.658 239.545H203.666Z" fill="black"/>
<path d="M73.0607 94V64.9091H83.9698C86.2047 64.9091 88.0797 65.3258 89.5948 66.1591C91.1194 66.9924 92.27 68.1383 93.0465 69.5966C93.8325 71.0455 94.2255 72.6932 94.2255 74.5398C94.2255 76.4053 93.8325 78.0625 93.0465 79.5114C92.2605 80.9602 91.1005 82.1013 89.5664 82.9347C88.0323 83.7585 86.1431 84.1705 83.8988 84.1705H76.6687V79.8381H83.1886C84.4954 79.8381 85.5655 79.6108 86.3988 79.1562C87.2321 78.7017 87.8477 78.0767 88.2454 77.2812C88.6526 76.4858 88.8562 75.572 88.8562 74.5398C88.8562 73.5076 88.6526 72.5985 88.2454 71.8125C87.8477 71.0265 87.2274 70.4157 86.3846 69.9801C85.5513 69.535 84.4764 69.3125 83.1602 69.3125H78.3306V94H73.0607ZM123.703 74.7244H118.391C118.239 73.8532 117.96 73.0814 117.553 72.4091C117.146 71.7273 116.639 71.1496 116.033 70.6761C115.427 70.2027 114.736 69.8475 113.959 69.6108C113.192 69.3646 112.364 69.2415 111.473 69.2415C109.892 69.2415 108.49 69.6392 107.269 70.4347C106.047 71.2206 105.091 72.3759 104.4 73.9006C103.708 75.4157 103.363 77.267 103.363 79.4545C103.363 81.6799 103.708 83.5549 104.4 85.0795C105.1 86.5947 106.057 87.7405 107.269 88.517C108.49 89.2841 109.887 89.6676 111.459 89.6676C112.33 89.6676 113.145 89.554 113.902 89.3267C114.669 89.09 115.356 88.7443 115.962 88.2898C116.578 87.8352 117.094 87.2765 117.51 86.6136C117.936 85.9508 118.23 85.1932 118.391 84.3409L123.703 84.3693C123.505 85.7519 123.074 87.0492 122.411 88.2614C121.757 89.4735 120.9 90.5436 119.84 91.4716C118.779 92.3902 117.539 93.1098 116.118 93.6307C114.698 94.142 113.121 94.3977 111.388 94.3977C108.831 94.3977 106.549 93.8059 104.542 92.6222C102.534 91.4384 100.953 89.7292 99.7972 87.4943C98.6419 85.2595 98.0643 82.5795 98.0643 79.4545C98.0643 76.3201 98.6467 73.6402 99.8114 71.4148C100.976 69.1799 102.562 67.4706 104.57 66.2869C106.578 65.1032 108.85 64.5114 111.388 64.5114C113.007 64.5114 114.513 64.7386 115.905 65.1932C117.297 65.6477 118.538 66.3153 119.627 67.196C120.716 68.0672 121.611 69.1373 122.311 70.4062C123.022 71.6657 123.486 73.1051 123.703 74.7244ZM149.275 72.1818V76.1591H136.377V72.1818H149.275ZM139.602 94V70.1222C139.602 68.6544 139.905 67.4328 140.511 66.4574C141.127 65.482 141.95 64.7528 142.983 64.2699C144.015 63.7869 145.161 63.5455 146.42 63.5455C147.31 63.5455 148.101 63.6165 148.792 63.7585C149.484 63.9006 149.995 64.0284 150.326 64.142L149.304 68.1193C149.086 68.053 148.811 67.9867 148.48 67.9205C148.148 67.8447 147.779 67.8068 147.372 67.8068C146.415 67.8068 145.738 68.0388 145.341 68.5028C144.952 68.9574 144.758 69.6108 144.758 70.4631V94H139.602ZM167.208 84.8239V72.1818H172.35V94H167.365V90.1222H167.137C166.645 91.3437 165.835 92.3428 164.708 93.1193C163.591 93.8958 162.213 94.2841 160.575 94.2841C159.145 94.2841 157.881 93.9669 156.782 93.3324C155.693 92.6884 154.841 91.7557 154.225 90.5341C153.61 89.303 153.302 87.8163 153.302 86.0739V72.1818H158.444V85.2784C158.444 86.661 158.823 87.7595 159.581 88.5739C160.338 89.3883 161.333 89.7955 162.564 89.7955C163.321 89.7955 164.055 89.6108 164.765 89.2415C165.475 88.8722 166.058 88.3229 166.512 87.5938C166.976 86.8551 167.208 85.9318 167.208 84.8239ZM158.6 68.9716C157.852 68.9716 157.204 68.7064 156.654 68.1761C156.115 67.6458 155.845 67.0208 155.845 66.3011C155.845 65.5436 156.115 64.9091 156.654 64.3977C157.204 63.8769 157.852 63.6165 158.6 63.6165C159.368 63.6165 160.011 63.8769 160.532 64.3977C161.063 64.9091 161.328 65.5436 161.328 66.3011C161.328 67.0208 161.063 67.6458 160.532 68.1761C160.011 68.7064 159.368 68.9716 158.6 68.9716ZM167.123 68.9716C166.375 68.9716 165.726 68.7064 165.177 68.1761C164.637 67.6458 164.368 67.0208 164.368 66.3011C164.368 65.5436 164.637 64.9091 165.177 64.3977C165.726 63.8769 166.375 63.6165 167.123 63.6165C167.89 63.6165 168.534 63.8769 169.055 64.3977C169.585 64.9091 169.85 65.5436 169.85 66.3011C169.85 67.0208 169.585 67.6458 169.055 68.1761C168.534 68.7064 167.89 68.9716 167.123 68.9716ZM177.638 94V72.1818H182.624V75.8182H182.851C183.249 74.5587 183.931 73.5881 184.897 72.9062C185.872 72.215 186.985 71.8693 188.235 71.8693C188.519 71.8693 188.836 71.8835 189.186 71.9119C189.546 71.9309 189.845 71.964 190.081 72.0114V76.7415C189.864 76.6657 189.518 76.5994 189.044 76.5426C188.58 76.4763 188.131 76.4432 187.695 76.4432C186.757 76.4432 185.915 76.6468 185.167 77.054C184.428 77.4517 183.846 78.0057 183.419 78.7159C182.993 79.4261 182.78 80.2453 182.78 81.1733V94H177.638ZM207.382 94H201.757L211.999 64.9091H218.505L228.76 94H223.135L215.365 70.875H215.138L207.382 94ZM207.567 82.5938H222.908V86.8267H207.567V82.5938ZM237.507 81.2159V94H232.365V72.1818H237.279V75.8892H237.535C238.037 74.6676 238.837 73.697 239.936 72.9773C241.044 72.2576 242.412 71.8977 244.041 71.8977C245.547 71.8977 246.858 72.2197 247.975 72.8636C249.102 73.5076 249.974 74.4403 250.589 75.6619C251.214 76.8835 251.522 78.3655 251.512 80.108V94H246.37V80.9034C246.37 79.4451 245.992 78.304 245.234 77.4801C244.486 76.6562 243.449 76.2443 242.123 76.2443C241.224 76.2443 240.423 76.4432 239.723 76.8409C239.031 77.2292 238.487 77.7926 238.089 78.5312C237.701 79.2699 237.507 80.1648 237.507 81.2159ZM261.882 64.9091V94H256.74V64.9091H261.882ZM273.448 94.4403C272.065 94.4403 270.82 94.1941 269.712 93.7017C268.614 93.1998 267.742 92.4612 267.098 91.4858C266.464 90.5104 266.147 89.3078 266.147 87.8778C266.147 86.6468 266.374 85.6288 266.828 84.8239C267.283 84.0189 267.903 83.375 268.689 82.892C269.475 82.4091 270.361 82.0445 271.346 81.7983C272.34 81.5426 273.367 81.358 274.428 81.2443C275.706 81.1117 276.743 80.9934 277.539 80.8892C278.334 80.7756 278.912 80.6051 279.272 80.3778C279.641 80.1411 279.826 79.7765 279.826 79.2841V79.1989C279.826 78.1288 279.508 77.3002 278.874 76.7131C278.239 76.1259 277.326 75.8324 276.132 75.8324C274.873 75.8324 273.874 76.107 273.135 76.6562C272.406 77.2055 271.914 77.8542 271.658 78.6023L266.857 77.9205C267.236 76.5947 267.861 75.4867 268.732 74.5966C269.603 73.697 270.668 73.0246 271.928 72.5795C273.187 72.125 274.579 71.8977 276.104 71.8977C277.155 71.8977 278.202 72.0208 279.243 72.267C280.285 72.5133 281.237 72.9205 282.098 73.4886C282.96 74.0473 283.651 74.8097 284.172 75.7756C284.703 76.7415 284.968 77.9489 284.968 79.3977V94H280.025V91.0028H279.854C279.542 91.6089 279.101 92.1771 278.533 92.7074C277.974 93.2282 277.269 93.6496 276.417 93.9716C275.574 94.2841 274.584 94.4403 273.448 94.4403ZM274.783 90.6619C275.815 90.6619 276.71 90.4583 277.468 90.0511C278.225 89.6345 278.808 89.0852 279.215 88.4034C279.632 87.7216 279.84 86.9782 279.84 86.1733V83.6023C279.679 83.7348 279.404 83.858 279.016 83.9716C278.637 84.0852 278.211 84.1847 277.738 84.2699C277.264 84.3551 276.795 84.4309 276.331 84.4972C275.867 84.5634 275.465 84.6203 275.124 84.6676C274.357 84.7718 273.67 84.9422 273.064 85.179C272.458 85.4157 271.98 85.7472 271.63 86.1733C271.279 86.59 271.104 87.1297 271.104 87.7926C271.104 88.7396 271.45 89.4545 272.141 89.9375C272.832 90.4205 273.713 90.6619 274.783 90.6619ZM299.627 102.636C297.78 102.636 296.194 102.385 294.868 101.884C293.542 101.391 292.477 100.728 291.672 99.8949C290.867 99.0616 290.309 98.1383 289.996 97.125L294.627 96.0028C294.835 96.429 295.138 96.8504 295.536 97.267C295.934 97.6932 296.469 98.0436 297.141 98.3182C297.823 98.6023 298.68 98.7443 299.712 98.7443C301.17 98.7443 302.378 98.3892 303.334 97.679C304.291 96.9782 304.769 95.8229 304.769 94.2131V90.0795H304.513C304.248 90.6098 303.86 91.1544 303.348 91.7131C302.846 92.2718 302.179 92.7405 301.346 93.1193C300.522 93.4981 299.485 93.6875 298.235 93.6875C296.559 93.6875 295.039 93.2945 293.675 92.5085C292.321 91.7131 291.241 90.5294 290.436 88.9574C289.641 87.3759 289.243 85.3968 289.243 83.0199C289.243 80.6241 289.641 78.6023 290.436 76.9545C291.241 75.2973 292.326 74.0426 293.689 73.1903C295.053 72.3286 296.573 71.8977 298.249 71.8977C299.527 71.8977 300.578 72.1155 301.402 72.5511C302.236 72.9773 302.899 73.4934 303.391 74.0994C303.883 74.696 304.257 75.2595 304.513 75.7898H304.797V72.1818H309.868V94.3551C309.868 96.2206 309.423 97.7642 308.533 98.9858C307.643 100.207 306.426 101.121 304.882 101.727C303.339 102.333 301.587 102.636 299.627 102.636ZM299.669 89.6534C300.758 89.6534 301.686 89.3883 302.453 88.858C303.221 88.3277 303.803 87.5653 304.201 86.571C304.598 85.5767 304.797 84.3835 304.797 82.9915C304.797 81.6184 304.598 80.4157 304.201 79.3835C303.812 78.3513 303.235 77.5511 302.468 76.983C301.71 76.4053 300.777 76.1165 299.669 76.1165C298.524 76.1165 297.567 76.4148 296.8 77.0114C296.033 77.608 295.455 78.4271 295.067 79.4688C294.679 80.5009 294.485 81.6752 294.485 82.9915C294.485 84.3267 294.679 85.4962 295.067 86.5C295.465 87.4943 296.047 88.2708 296.814 88.8295C297.591 89.3788 298.542 89.6534 299.669 89.6534ZM324.797 94.4261C322.61 94.4261 320.721 93.9716 319.13 93.0625C317.548 92.1439 316.331 90.8466 315.479 89.1705C314.627 87.4848 314.201 85.5009 314.201 83.2188C314.201 80.9744 314.627 79.0047 315.479 77.3097C316.341 75.6051 317.543 74.2794 319.087 73.3324C320.631 72.3759 322.444 71.8977 324.527 71.8977C325.872 71.8977 327.141 72.1155 328.334 72.5511C329.537 72.9773 330.597 73.6402 331.516 74.5398C332.444 75.4394 333.173 76.5852 333.703 77.9773C334.234 79.3598 334.499 81.0076 334.499 82.9205V84.4972H316.615V81.0312H329.57C329.56 80.0464 329.347 79.1705 328.931 78.4034C328.514 77.6269 327.932 77.0161 327.184 76.571C326.445 76.1259 325.583 75.9034 324.598 75.9034C323.547 75.9034 322.624 76.1591 321.828 76.6705C321.033 77.1723 320.413 77.8352 319.968 78.6591C319.532 79.4735 319.31 80.3684 319.3 81.3438V84.3693C319.3 85.6383 319.532 86.7273 319.996 87.6364C320.46 88.536 321.109 89.2273 321.942 89.7102C322.775 90.1837 323.751 90.4205 324.868 90.4205C325.616 90.4205 326.293 90.3163 326.9 90.108C327.506 89.8902 328.031 89.5729 328.476 89.1562C328.921 88.7396 329.257 88.2235 329.485 87.608L334.286 88.1477C333.983 89.4167 333.405 90.5246 332.553 91.4716C331.71 92.4091 330.631 93.1383 329.314 93.6591C327.998 94.1705 326.492 94.4261 324.797 94.4261ZM342.017 94.3125C341.155 94.3125 340.416 94.0095 339.801 93.4034C339.185 92.7973 338.882 92.0587 338.892 91.1875C338.882 90.3352 339.185 89.6061 339.801 89C340.416 88.3939 341.155 88.0909 342.017 88.0909C342.85 88.0909 343.574 88.3939 344.19 89C344.815 89.6061 345.132 90.3352 345.142 91.1875C345.132 91.7652 344.981 92.2907 344.687 92.7642C344.403 93.2377 344.024 93.6165 343.551 93.9006C343.087 94.1752 342.575 94.3125 342.017 94.3125ZM342.017 78.7443C341.155 78.7443 340.416 78.4413 339.801 77.8352C339.185 77.2197 338.882 76.4811 338.892 75.6193C338.882 74.767 339.185 74.0379 339.801 73.4318C340.416 72.8163 341.155 72.5085 342.017 72.5085C342.85 72.5085 343.574 72.8163 344.19 73.4318C344.815 74.0379 345.132 74.767 345.142 75.6193C345.132 76.1875 344.981 76.7083 344.687 77.1818C344.403 77.6553 344.024 78.0341 343.551 78.3182C343.087 78.6023 342.575 78.7443 342.017 78.7443Z" fill="black"/>
<path d="M73.0043 140.795C72.3168 140.795 71.6889 140.628 71.1207 140.293C70.5526 139.952 70.098 139.497 69.7571 138.929C69.4219 138.361 69.2543 137.733 69.2543 137.045C69.2543 136.352 69.4219 135.724 69.7571 135.162C70.098 134.594 70.5526 134.142 71.1207 133.807C71.6889 133.466 72.3168 133.295 73.0043 133.295C73.6974 133.295 74.3253 133.466 74.8878 133.807C75.456 134.142 75.9077 134.594 76.2429 135.162C76.5838 135.724 76.7543 136.352 76.7543 137.045C76.7543 137.733 76.5838 138.361 76.2429 138.929C75.9077 139.497 75.456 139.952 74.8878 140.293C74.3253 140.628 73.6974 140.795 73.0043 140.795ZM92.7216 144V126.545H99.267C100.608 126.545 101.733 126.778 102.642 127.244C103.557 127.71 104.247 128.364 104.713 129.205C105.185 130.04 105.42 131.014 105.42 132.128C105.42 133.247 105.182 134.219 104.705 135.043C104.233 135.861 103.537 136.494 102.616 136.943C101.696 137.386 100.565 137.608 99.2244 137.608H94.5625V134.983H98.7983C99.5824 134.983 100.224 134.875 100.724 134.659C101.224 134.437 101.594 134.116 101.832 133.696C102.077 133.27 102.199 132.747 102.199 132.128C102.199 131.509 102.077 130.98 101.832 130.543C101.588 130.099 101.216 129.764 100.716 129.537C100.216 129.304 99.571 129.188 98.7812 129.188H95.8835V144H92.7216ZM101.739 136.091L106.06 144H102.531L98.2869 136.091H101.739ZM114.774 144L117.638 126.545H120.024L117.161 144H114.774ZM106.908 139.5L107.308 137.114H120.74L120.339 139.5H106.908ZM108.638 144L111.501 126.545H113.888L111.024 144H108.638ZM107.922 133.432L108.314 131.045H121.746L121.354 133.432H107.922ZM135.333 130.909L130.671 144H127.262L122.6 130.909H125.89L128.898 140.634H129.035L132.052 130.909H135.333ZM137.119 140.761V138.247L144.525 126.545H146.621V130.125H145.343L140.357 138.026V138.162H150.695V140.761H137.119ZM145.445 144V139.994L145.479 138.869V126.545H148.462V144H145.445ZM161.387 135.46V138H153.529V135.46H161.387ZM171.169 130.909V133.295H163.643V130.909H171.169ZM165.501 127.773H168.587V140.062C168.587 140.477 168.649 140.795 168.774 141.017C168.905 141.233 169.075 141.381 169.286 141.46C169.496 141.54 169.729 141.58 169.984 141.58C170.178 141.58 170.354 141.565 170.513 141.537C170.678 141.509 170.803 141.483 170.888 141.46L171.408 143.872C171.243 143.929 171.007 143.991 170.7 144.06C170.399 144.128 170.03 144.168 169.592 144.179C168.82 144.202 168.124 144.085 167.504 143.83C166.885 143.568 166.393 143.165 166.03 142.619C165.672 142.074 165.496 141.392 165.501 140.574V127.773ZM173.715 144V141.716L179.775 135.776C180.354 135.19 180.837 134.67 181.224 134.216C181.61 133.761 181.9 133.321 182.093 132.895C182.286 132.469 182.383 132.014 182.383 131.531C182.383 130.98 182.258 130.509 182.008 130.116C181.758 129.719 181.414 129.412 180.977 129.196C180.539 128.98 180.042 128.872 179.485 128.872C178.911 128.872 178.408 128.991 177.977 129.23C177.545 129.463 177.21 129.795 176.971 130.227C176.738 130.659 176.621 131.173 176.621 131.77H173.613C173.613 130.662 173.866 129.699 174.371 128.881C174.877 128.062 175.573 127.429 176.46 126.98C177.352 126.531 178.374 126.307 179.528 126.307C180.698 126.307 181.727 126.526 182.613 126.963C183.499 127.401 184.187 128 184.675 128.761C185.17 129.523 185.417 130.392 185.417 131.369C185.417 132.023 185.292 132.665 185.042 133.295C184.792 133.926 184.352 134.625 183.721 135.392C183.096 136.159 182.218 137.088 181.087 138.179L178.079 141.239V141.358H185.681V144H173.715ZM196.59 135.46V138H188.732V135.46H196.59ZM210.182 134.369L207.369 134.676C207.29 134.392 207.151 134.125 206.952 133.875C206.759 133.625 206.497 133.423 206.168 133.27C205.838 133.116 205.435 133.04 204.957 133.04C204.315 133.04 203.776 133.179 203.338 133.457C202.906 133.736 202.693 134.097 202.699 134.54C202.693 134.92 202.832 135.23 203.116 135.469C203.406 135.707 203.884 135.903 204.548 136.057L206.781 136.534C208.02 136.801 208.94 137.224 209.543 137.804C210.151 138.384 210.457 139.142 210.463 140.08C210.457 140.903 210.216 141.631 209.739 142.261C209.267 142.886 208.611 143.375 207.77 143.727C206.929 144.08 205.963 144.256 204.872 144.256C203.27 144.256 201.98 143.92 201.003 143.25C200.026 142.574 199.443 141.634 199.256 140.429L202.264 140.139C202.401 140.73 202.69 141.176 203.134 141.477C203.577 141.778 204.153 141.929 204.864 141.929C205.597 141.929 206.185 141.778 206.628 141.477C207.077 141.176 207.301 140.804 207.301 140.361C207.301 139.986 207.156 139.676 206.866 139.432C206.582 139.187 206.139 139 205.537 138.869L203.304 138.401C202.048 138.139 201.119 137.699 200.517 137.08C199.915 136.455 199.616 135.665 199.622 134.71C199.616 133.903 199.835 133.205 200.278 132.614C200.727 132.017 201.349 131.557 202.145 131.233C202.946 130.903 203.869 130.739 204.915 130.739C206.449 130.739 207.656 131.065 208.537 131.719C209.423 132.372 209.972 133.256 210.182 134.369ZM219.544 130.909V133.295H212.018V130.909H219.544ZM213.876 127.773H216.962V140.062C216.962 140.477 217.024 140.795 217.149 141.017C217.28 141.233 217.45 141.381 217.661 141.46C217.871 141.54 218.104 141.58 218.359 141.58C218.553 141.58 218.729 141.565 218.888 141.537C219.053 141.509 219.178 141.483 219.263 141.46L219.783 143.872C219.618 143.929 219.382 143.991 219.075 144.06C218.774 144.128 218.405 144.168 217.967 144.179C217.195 144.202 216.499 144.085 215.879 143.83C215.26 143.568 214.768 143.165 214.405 142.619C214.047 142.074 213.871 141.392 213.876 140.574V127.773ZM222.542 144V131.105C222.542 130.111 222.778 129.256 223.249 128.54C223.721 127.818 224.383 127.267 225.235 126.886C226.093 126.5 227.09 126.307 228.227 126.307C229.3 126.307 230.281 126.486 231.167 126.844C232.053 127.202 232.758 127.727 233.281 128.42C233.803 129.108 234.065 129.955 234.065 130.96C234.065 131.892 233.829 132.685 233.357 133.338C232.891 133.991 232.263 134.437 231.474 134.676V134.864C232.599 134.949 233.502 135.386 234.184 136.176C234.866 136.966 235.204 137.972 235.198 139.193C235.198 140.182 234.968 141.037 234.508 141.759C234.053 142.474 233.417 143.028 232.599 143.42C231.786 143.807 230.843 144 229.769 144H227.596V141.401H229.394C229.94 141.401 230.414 141.298 230.817 141.094C231.221 140.889 231.533 140.605 231.755 140.241C231.977 139.872 232.087 139.446 232.087 138.963C232.082 138.207 231.809 137.594 231.269 137.122C230.729 136.651 229.999 136.415 229.079 136.415H227.664V133.892H228.636C229.102 133.892 229.505 133.778 229.846 133.551C230.187 133.318 230.451 133.014 230.638 132.639C230.826 132.259 230.923 131.849 230.928 131.412C230.928 130.713 230.695 130.131 230.229 129.665C229.769 129.193 229.13 128.957 228.312 128.957C227.522 128.957 226.877 129.188 226.377 129.648C225.877 130.108 225.627 130.713 225.627 131.463V144H222.542ZM237.898 144V130.909H240.889V133.091H241.026C241.264 132.335 241.673 131.753 242.253 131.344C242.838 130.929 243.506 130.722 244.256 130.722C244.426 130.722 244.616 130.73 244.827 130.747C245.043 130.759 245.222 130.778 245.364 130.807V133.645C245.233 133.599 245.026 133.56 244.741 133.526C244.463 133.486 244.193 133.466 243.932 133.466C243.369 133.466 242.864 133.588 242.415 133.832C241.972 134.071 241.622 134.403 241.366 134.83C241.111 135.256 240.983 135.747 240.983 136.304V144H237.898ZM250.499 136.33V144H247.413V130.909H250.362V133.134H250.516C250.817 132.401 251.297 131.818 251.956 131.386C252.621 130.955 253.442 130.739 254.419 130.739C255.322 130.739 256.109 130.932 256.78 131.318C257.456 131.705 257.979 132.264 258.348 132.997C258.723 133.73 258.908 134.619 258.902 135.665V144H255.817V136.142C255.817 135.267 255.589 134.582 255.135 134.088C254.686 133.594 254.064 133.347 253.268 133.347C252.729 133.347 252.249 133.466 251.828 133.705C251.413 133.937 251.087 134.276 250.848 134.719C250.615 135.162 250.499 135.699 250.499 136.33ZM267.732 149.182C266.624 149.182 265.672 149.031 264.876 148.73C264.081 148.435 263.442 148.037 262.959 147.537C262.476 147.037 262.141 146.483 261.953 145.875L264.732 145.202C264.857 145.457 265.038 145.71 265.277 145.96C265.516 146.216 265.837 146.426 266.24 146.591C266.649 146.761 267.163 146.847 267.783 146.847C268.658 146.847 269.382 146.634 269.956 146.207C270.53 145.787 270.817 145.094 270.817 144.128V141.648H270.663C270.504 141.966 270.271 142.293 269.964 142.628C269.663 142.963 269.263 143.244 268.763 143.472C268.268 143.699 267.646 143.812 266.896 143.812C265.891 143.812 264.979 143.577 264.161 143.105C263.348 142.628 262.7 141.918 262.217 140.974C261.74 140.026 261.501 138.838 261.501 137.412C261.501 135.974 261.74 134.761 262.217 133.773C262.7 132.778 263.351 132.026 264.169 131.514C264.987 130.997 265.899 130.739 266.905 130.739C267.672 130.739 268.303 130.869 268.797 131.131C269.297 131.386 269.695 131.696 269.99 132.06C270.286 132.418 270.51 132.756 270.663 133.074H270.834V130.909H273.876V144.213C273.876 145.332 273.609 146.259 273.075 146.991C272.541 147.724 271.811 148.273 270.885 148.636C269.959 149 268.908 149.182 267.732 149.182ZM267.757 141.392C268.411 141.392 268.967 141.233 269.428 140.915C269.888 140.597 270.237 140.139 270.476 139.543C270.714 138.946 270.834 138.23 270.834 137.395C270.834 136.571 270.714 135.849 270.476 135.23C270.243 134.611 269.896 134.131 269.436 133.79C268.982 133.443 268.422 133.27 267.757 133.27C267.07 133.27 266.496 133.449 266.036 133.807C265.575 134.165 265.229 134.656 264.996 135.281C264.763 135.901 264.646 136.605 264.646 137.395C264.646 138.196 264.763 138.898 264.996 139.5C265.234 140.097 265.584 140.562 266.044 140.898C266.51 141.227 267.081 141.392 267.757 141.392ZM284.973 135.46V138H277.115V135.46H284.973ZM92.5852 177.909V159.909H95.6193V162.074H95.7983C95.9574 161.756 96.1818 161.418 96.4716 161.06C96.7614 160.696 97.1534 160.386 97.6477 160.131C98.142 159.869 98.7727 159.739 99.5398 159.739C100.551 159.739 101.463 159.997 102.276 160.514C103.094 161.026 103.741 161.784 104.219 162.79C104.702 163.79 104.943 165.017 104.943 166.472C104.943 167.909 104.707 169.131 104.236 170.136C103.764 171.142 103.122 171.909 102.31 172.438C101.497 172.966 100.577 173.23 99.5483 173.23C98.7983 173.23 98.1761 173.105 97.6818 172.855C97.1875 172.605 96.7898 172.304 96.4886 171.952C96.1932 171.594 95.9631 171.256 95.7983 170.938H95.6705V177.909H92.5852ZM95.6108 166.455C95.6108 167.301 95.7301 168.043 95.9688 168.679C96.2131 169.315 96.5625 169.812 97.017 170.17C97.4773 170.523 98.0341 170.699 98.6875 170.699C99.3693 170.699 99.9403 170.517 100.401 170.153C100.861 169.784 101.207 169.281 101.44 168.645C101.679 168.003 101.798 167.273 101.798 166.455C101.798 165.642 101.682 164.92 101.449 164.29C101.216 163.659 100.869 163.165 100.409 162.807C99.9489 162.449 99.375 162.27 98.6875 162.27C98.0284 162.27 97.4688 162.443 97.0085 162.79C96.5483 163.136 96.1989 163.622 95.9602 164.247C95.7273 164.872 95.6108 165.608 95.6108 166.455ZM118.554 177.892C116.764 177.892 115.173 177.648 113.781 177.159C112.395 176.676 111.224 175.963 110.27 175.02C109.315 174.082 108.591 172.938 108.097 171.585C107.602 170.233 107.352 168.688 107.347 166.949C107.352 165.25 107.605 163.719 108.105 162.355C108.605 160.986 109.335 159.815 110.295 158.844C111.256 157.866 112.429 157.116 113.815 156.594C115.202 156.071 116.778 155.81 118.545 155.81C120.21 155.81 121.685 156.062 122.969 156.568C124.259 157.074 125.347 157.778 126.233 158.682C127.125 159.58 127.798 160.631 128.253 161.835C128.713 163.034 128.943 164.335 128.943 165.739C128.943 166.71 128.869 167.631 128.722 168.5C128.574 169.364 128.321 170.131 127.963 170.801C127.611 171.472 127.131 172.006 126.523 172.403C125.915 172.795 125.153 173.009 124.239 173.043C123.665 173.071 123.162 173.017 122.73 172.881C122.298 172.744 121.949 172.531 121.682 172.241C121.42 171.946 121.256 171.585 121.188 171.159H121.085C120.955 171.5 120.707 171.812 120.344 172.097C119.986 172.375 119.543 172.594 119.014 172.753C118.486 172.906 117.898 172.969 117.25 172.94C116.557 172.906 115.915 172.747 115.324 172.463C114.739 172.173 114.227 171.77 113.79 171.253C113.358 170.73 113.023 170.099 112.784 169.361C112.545 168.622 112.426 167.784 112.426 166.847C112.426 165.932 112.557 165.125 112.818 164.426C113.08 163.727 113.429 163.131 113.866 162.636C114.31 162.142 114.81 161.756 115.366 161.477C115.923 161.193 116.497 161.011 117.088 160.932C117.702 160.847 118.278 160.855 118.818 160.957C119.358 161.06 119.807 161.216 120.165 161.426C120.528 161.636 120.756 161.866 120.847 162.116H120.966V161.162H123.344V169.276C123.349 169.702 123.452 170.045 123.651 170.307C123.855 170.568 124.139 170.699 124.503 170.699C124.957 170.699 125.324 170.52 125.602 170.162C125.886 169.798 126.091 169.241 126.216 168.491C126.347 167.736 126.409 166.77 126.403 165.594C126.409 164.628 126.281 163.753 126.02 162.969C125.764 162.179 125.401 161.486 124.929 160.889C124.457 160.293 123.892 159.795 123.233 159.398C122.58 158.994 121.852 158.69 121.051 158.486C120.25 158.281 119.395 158.179 118.486 158.179C117.094 158.179 115.869 158.392 114.812 158.818C113.756 159.239 112.869 159.838 112.153 160.616C111.443 161.395 110.906 162.318 110.543 163.386C110.185 164.449 110.006 165.625 110.006 166.915C110.006 168.295 110.193 169.52 110.568 170.588C110.949 171.651 111.506 172.545 112.239 173.273C112.972 174 113.878 174.551 114.957 174.926C116.043 175.301 117.29 175.489 118.699 175.489C119.347 175.489 119.98 175.438 120.599 175.335C121.219 175.233 121.776 175.114 122.27 174.977C122.764 174.841 123.145 174.722 123.412 174.619L124.136 176.784C123.784 176.966 123.307 177.142 122.705 177.312C122.108 177.483 121.449 177.622 120.727 177.73C120.011 177.838 119.287 177.892 118.554 177.892ZM117.957 170.494C118.679 170.494 119.256 170.355 119.688 170.077C120.119 169.793 120.429 169.372 120.616 168.815C120.804 168.259 120.895 167.565 120.889 166.736C120.889 165.963 120.793 165.33 120.599 164.835C120.406 164.341 120.097 163.974 119.67 163.736C119.244 163.497 118.679 163.378 117.974 163.378C117.338 163.378 116.795 163.523 116.347 163.812C115.903 164.102 115.563 164.503 115.324 165.014C115.091 165.52 114.974 166.097 114.974 166.744C114.974 167.392 115.068 168.003 115.256 168.577C115.449 169.145 115.761 169.608 116.193 169.966C116.631 170.318 117.219 170.494 117.957 170.494ZM141.908 163.369L139.096 163.676C139.016 163.392 138.877 163.125 138.678 162.875C138.485 162.625 138.224 162.423 137.894 162.27C137.565 162.116 137.161 162.04 136.684 162.04C136.042 162.04 135.502 162.179 135.065 162.457C134.633 162.736 134.42 163.097 134.425 163.54C134.42 163.92 134.559 164.23 134.843 164.469C135.133 164.707 135.61 164.903 136.275 165.057L138.508 165.534C139.746 165.801 140.667 166.224 141.269 166.804C141.877 167.384 142.184 168.142 142.19 169.08C142.184 169.903 141.942 170.631 141.465 171.261C140.994 171.886 140.337 172.375 139.496 172.727C138.656 173.08 137.69 173.256 136.599 173.256C134.996 173.256 133.707 172.92 132.729 172.25C131.752 171.574 131.17 170.634 130.982 169.429L133.991 169.139C134.127 169.73 134.417 170.176 134.86 170.477C135.303 170.778 135.88 170.929 136.59 170.929C137.323 170.929 137.911 170.778 138.354 170.477C138.803 170.176 139.028 169.804 139.028 169.361C139.028 168.986 138.883 168.676 138.593 168.432C138.309 168.187 137.866 168 137.263 167.869L135.031 167.401C133.775 167.139 132.846 166.699 132.244 166.08C131.641 165.455 131.343 164.665 131.349 163.71C131.343 162.903 131.562 162.205 132.005 161.614C132.454 161.017 133.076 160.557 133.871 160.233C134.673 159.903 135.596 159.739 136.641 159.739C138.175 159.739 139.383 160.065 140.263 160.719C141.15 161.372 141.698 162.256 141.908 163.369ZM155.08 163.369L152.268 163.676C152.188 163.392 152.049 163.125 151.85 162.875C151.657 162.625 151.396 162.423 151.066 162.27C150.737 162.116 150.333 162.04 149.856 162.04C149.214 162.04 148.674 162.179 148.237 162.457C147.805 162.736 147.592 163.097 147.597 163.54C147.592 163.92 147.731 164.23 148.015 164.469C148.305 164.707 148.782 164.903 149.447 165.057L151.68 165.534C152.918 165.801 153.839 166.224 154.441 166.804C155.049 167.384 155.356 168.142 155.362 169.08C155.356 169.903 155.114 170.631 154.637 171.261C154.165 171.886 153.509 172.375 152.668 172.727C151.827 173.08 150.862 173.256 149.771 173.256C148.168 173.256 146.879 172.92 145.901 172.25C144.924 171.574 144.342 170.634 144.154 169.429L147.163 169.139C147.299 169.73 147.589 170.176 148.032 170.477C148.475 170.778 149.052 170.929 149.762 170.929C150.495 170.929 151.083 170.778 151.526 170.477C151.975 170.176 152.2 169.804 152.2 169.361C152.2 168.986 152.055 168.676 151.765 168.432C151.481 168.187 151.038 168 150.435 167.869L148.202 167.401C146.947 167.139 146.018 166.699 145.415 166.08C144.813 165.455 144.515 164.665 144.521 163.71C144.515 162.903 144.734 162.205 145.177 161.614C145.626 161.017 146.248 160.557 147.043 160.233C147.844 159.903 148.768 159.739 149.813 159.739C151.347 159.739 152.555 160.065 153.435 160.719C154.322 161.372 154.87 162.256 155.08 163.369ZM160.607 173L156.908 159.909H160.053L162.354 169.114H162.474L164.826 159.909H167.937L170.289 169.062H170.417L172.684 159.909H175.837L172.13 173H168.917L166.462 164.153H166.283L163.829 173H160.607ZM184.409 173.332C183.006 173.332 181.801 172.977 180.795 172.267C179.795 171.551 179.026 170.52 178.486 169.173C177.952 167.821 177.685 166.193 177.685 164.29C177.69 162.386 177.96 160.767 178.494 159.432C179.034 158.091 179.804 157.068 180.804 156.364C181.81 155.659 183.011 155.307 184.409 155.307C185.807 155.307 187.009 155.659 188.014 156.364C189.02 157.068 189.79 158.091 190.324 159.432C190.864 160.773 191.134 162.392 191.134 164.29C191.134 166.199 190.864 167.83 190.324 169.182C189.79 170.528 189.02 171.557 188.014 172.267C187.014 172.977 185.813 173.332 184.409 173.332ZM184.409 170.665C185.5 170.665 186.361 170.128 186.991 169.054C187.628 167.974 187.946 166.386 187.946 164.29C187.946 162.903 187.801 161.739 187.511 160.795C187.222 159.852 186.813 159.142 186.284 158.665C185.756 158.182 185.131 157.94 184.409 157.94C183.324 157.94 182.466 158.48 181.835 159.56C181.205 160.634 180.886 162.21 180.881 164.29C180.875 165.682 181.014 166.852 181.298 167.801C181.588 168.75 181.997 169.466 182.526 169.949C183.054 170.426 183.682 170.665 184.409 170.665ZM193.999 173V159.909H196.991V162.091H197.127C197.366 161.335 197.775 160.753 198.354 160.344C198.94 159.929 199.607 159.722 200.357 159.722C200.528 159.722 200.718 159.73 200.928 159.747C201.144 159.759 201.323 159.778 201.465 159.807V162.645C201.335 162.599 201.127 162.56 200.843 162.526C200.565 162.486 200.295 162.466 200.033 162.466C199.471 162.466 198.965 162.588 198.516 162.832C198.073 163.071 197.724 163.403 197.468 163.83C197.212 164.256 197.085 164.747 197.085 165.304V173H193.999ZM209.566 173H203.651V155.545H209.685C211.418 155.545 212.907 155.895 214.151 156.594C215.401 157.287 216.362 158.284 217.032 159.585C217.702 160.886 218.038 162.443 218.038 164.256C218.038 166.074 217.7 167.636 217.023 168.943C216.353 170.25 215.384 171.253 214.117 171.952C212.856 172.651 211.339 173 209.566 173ZM206.813 170.264H209.413C210.629 170.264 211.643 170.043 212.455 169.599C213.268 169.151 213.879 168.483 214.288 167.597C214.697 166.705 214.901 165.591 214.901 164.256C214.901 162.92 214.697 161.812 214.288 160.932C213.879 160.045 213.273 159.384 212.472 158.946C211.677 158.503 210.688 158.281 209.506 158.281H206.813V170.264Z" fill="black"/>
<path d="M71.0043 205.795C70.3168 205.795 69.6889 205.628 69.1207 205.293C68.5526 204.952 68.098 204.497 67.7571 203.929C67.4219 203.361 67.2543 202.733 67.2543 202.045C67.2543 201.352 67.4219 200.724 67.7571 200.162C68.098 199.594 68.5526 199.142 69.1207 198.807C69.6889 198.466 70.3168 198.295 71.0043 198.295C71.6974 198.295 72.3253 198.466 72.8878 198.807C73.456 199.142 73.9077 199.594 74.2429 200.162C74.5838 200.724 74.7543 201.352 74.7543 202.045C74.7543 202.733 74.5838 203.361 74.2429 203.929C73.9077 204.497 73.456 204.952 72.8878 205.293C72.3253 205.628 71.6974 205.795 71.0043 205.795ZM90.5852 213.909V195.909H93.6193V198.074H93.7983C93.9574 197.756 94.1818 197.418 94.4716 197.06C94.7614 196.696 95.1534 196.386 95.6477 196.131C96.142 195.869 96.7727 195.739 97.5398 195.739C98.5511 195.739 99.4631 195.997 100.276 196.514C101.094 197.026 101.741 197.784 102.219 198.79C102.702 199.79 102.943 201.017 102.943 202.472C102.943 203.909 102.707 205.131 102.236 206.136C101.764 207.142 101.122 207.909 100.31 208.438C99.4972 208.966 98.5767 209.23 97.5483 209.23C96.7983 209.23 96.1761 209.105 95.6818 208.855C95.1875 208.605 94.7898 208.304 94.4886 207.952C94.1932 207.594 93.9631 207.256 93.7983 206.938H93.6705V213.909H90.5852ZM93.6108 202.455C93.6108 203.301 93.7301 204.043 93.9688 204.679C94.2131 205.315 94.5625 205.812 95.017 206.17C95.4773 206.523 96.0341 206.699 96.6875 206.699C97.3693 206.699 97.9403 206.517 98.4006 206.153C98.8608 205.784 99.2074 205.281 99.4403 204.645C99.679 204.003 99.7983 203.273 99.7983 202.455C99.7983 201.642 99.6818 200.92 99.4489 200.29C99.2159 199.659 98.8693 199.165 98.4091 198.807C97.9489 198.449 97.375 198.27 96.6875 198.27C96.0284 198.27 95.4688 198.443 95.0085 198.79C94.5483 199.136 94.1989 199.622 93.9602 200.247C93.7273 200.872 93.6108 201.608 93.6108 202.455ZM116.554 213.892C114.764 213.892 113.173 213.648 111.781 213.159C110.395 212.676 109.224 211.963 108.27 211.02C107.315 210.082 106.591 208.938 106.097 207.585C105.602 206.233 105.352 204.688 105.347 202.949C105.352 201.25 105.605 199.719 106.105 198.355C106.605 196.986 107.335 195.815 108.295 194.844C109.256 193.866 110.429 193.116 111.815 192.594C113.202 192.071 114.778 191.81 116.545 191.81C118.21 191.81 119.685 192.062 120.969 192.568C122.259 193.074 123.347 193.778 124.233 194.682C125.125 195.58 125.798 196.631 126.253 197.835C126.713 199.034 126.943 200.335 126.943 201.739C126.943 202.71 126.869 203.631 126.722 204.5C126.574 205.364 126.321 206.131 125.963 206.801C125.611 207.472 125.131 208.006 124.523 208.403C123.915 208.795 123.153 209.009 122.239 209.043C121.665 209.071 121.162 209.017 120.73 208.881C120.298 208.744 119.949 208.531 119.682 208.241C119.42 207.946 119.256 207.585 119.188 207.159H119.085C118.955 207.5 118.707 207.812 118.344 208.097C117.986 208.375 117.543 208.594 117.014 208.753C116.486 208.906 115.898 208.969 115.25 208.94C114.557 208.906 113.915 208.747 113.324 208.463C112.739 208.173 112.227 207.77 111.79 207.253C111.358 206.73 111.023 206.099 110.784 205.361C110.545 204.622 110.426 203.784 110.426 202.847C110.426 201.932 110.557 201.125 110.818 200.426C111.08 199.727 111.429 199.131 111.866 198.636C112.31 198.142 112.81 197.756 113.366 197.477C113.923 197.193 114.497 197.011 115.088 196.932C115.702 196.847 116.278 196.855 116.818 196.957C117.358 197.06 117.807 197.216 118.165 197.426C118.528 197.636 118.756 197.866 118.847 198.116H118.966V197.162H121.344V205.276C121.349 205.702 121.452 206.045 121.651 206.307C121.855 206.568 122.139 206.699 122.503 206.699C122.957 206.699 123.324 206.52 123.602 206.162C123.886 205.798 124.091 205.241 124.216 204.491C124.347 203.736 124.409 202.77 124.403 201.594C124.409 200.628 124.281 199.753 124.02 198.969C123.764 198.179 123.401 197.486 122.929 196.889C122.457 196.293 121.892 195.795 121.233 195.398C120.58 194.994 119.852 194.69 119.051 194.486C118.25 194.281 117.395 194.179 116.486 194.179C115.094 194.179 113.869 194.392 112.812 194.818C111.756 195.239 110.869 195.838 110.153 196.616C109.443 197.395 108.906 198.318 108.543 199.386C108.185 200.449 108.006 201.625 108.006 202.915C108.006 204.295 108.193 205.52 108.568 206.588C108.949 207.651 109.506 208.545 110.239 209.273C110.972 210 111.878 210.551 112.957 210.926C114.043 211.301 115.29 211.489 116.699 211.489C117.347 211.489 117.98 211.438 118.599 211.335C119.219 211.233 119.776 211.114 120.27 210.977C120.764 210.841 121.145 210.722 121.412 210.619L122.136 212.784C121.784 212.966 121.307 213.142 120.705 213.312C120.108 213.483 119.449 213.622 118.727 213.73C118.011 213.838 117.287 213.892 116.554 213.892ZM115.957 206.494C116.679 206.494 117.256 206.355 117.688 206.077C118.119 205.793 118.429 205.372 118.616 204.815C118.804 204.259 118.895 203.565 118.889 202.736C118.889 201.963 118.793 201.33 118.599 200.835C118.406 200.341 118.097 199.974 117.67 199.736C117.244 199.497 116.679 199.378 115.974 199.378C115.338 199.378 114.795 199.523 114.347 199.812C113.903 200.102 113.563 200.503 113.324 201.014C113.091 201.52 112.974 202.097 112.974 202.744C112.974 203.392 113.068 204.003 113.256 204.577C113.449 205.145 113.761 205.608 114.193 205.966C114.631 206.318 115.219 206.494 115.957 206.494ZM139.908 199.369L137.096 199.676C137.016 199.392 136.877 199.125 136.678 198.875C136.485 198.625 136.224 198.423 135.894 198.27C135.565 198.116 135.161 198.04 134.684 198.04C134.042 198.04 133.502 198.179 133.065 198.457C132.633 198.736 132.42 199.097 132.425 199.54C132.42 199.92 132.559 200.23 132.843 200.469C133.133 200.707 133.61 200.903 134.275 201.057L136.508 201.534C137.746 201.801 138.667 202.224 139.269 202.804C139.877 203.384 140.184 204.142 140.19 205.08C140.184 205.903 139.942 206.631 139.465 207.261C138.994 207.886 138.337 208.375 137.496 208.727C136.656 209.08 135.69 209.256 134.599 209.256C132.996 209.256 131.707 208.92 130.729 208.25C129.752 207.574 129.17 206.634 128.982 205.429L131.991 205.139C132.127 205.73 132.417 206.176 132.86 206.477C133.303 206.778 133.88 206.929 134.59 206.929C135.323 206.929 135.911 206.778 136.354 206.477C136.803 206.176 137.028 205.804 137.028 205.361C137.028 204.986 136.883 204.676 136.593 204.432C136.309 204.187 135.866 204 135.263 203.869L133.031 203.401C131.775 203.139 130.846 202.699 130.244 202.08C129.641 201.455 129.343 200.665 129.349 199.71C129.343 198.903 129.562 198.205 130.005 197.614C130.454 197.017 131.076 196.557 131.871 196.233C132.673 195.903 133.596 195.739 134.641 195.739C136.175 195.739 137.383 196.065 138.263 196.719C139.15 197.372 139.698 198.256 139.908 199.369ZM153.08 199.369L150.268 199.676C150.188 199.392 150.049 199.125 149.85 198.875C149.657 198.625 149.396 198.423 149.066 198.27C148.737 198.116 148.333 198.04 147.856 198.04C147.214 198.04 146.674 198.179 146.237 198.457C145.805 198.736 145.592 199.097 145.597 199.54C145.592 199.92 145.731 200.23 146.015 200.469C146.305 200.707 146.782 200.903 147.447 201.057L149.68 201.534C150.918 201.801 151.839 202.224 152.441 202.804C153.049 203.384 153.356 204.142 153.362 205.08C153.356 205.903 153.114 206.631 152.637 207.261C152.165 207.886 151.509 208.375 150.668 208.727C149.827 209.08 148.862 209.256 147.771 209.256C146.168 209.256 144.879 208.92 143.901 208.25C142.924 207.574 142.342 206.634 142.154 205.429L145.163 205.139C145.299 205.73 145.589 206.176 146.032 206.477C146.475 206.778 147.052 206.929 147.762 206.929C148.495 206.929 149.083 206.778 149.526 206.477C149.975 206.176 150.2 205.804 150.2 205.361C150.2 204.986 150.055 204.676 149.765 204.432C149.481 204.187 149.038 204 148.435 203.869L146.202 203.401C144.947 203.139 144.018 202.699 143.415 202.08C142.813 201.455 142.515 200.665 142.521 199.71C142.515 198.903 142.734 198.205 143.177 197.614C143.626 197.017 144.248 196.557 145.043 196.233C145.844 195.903 146.768 195.739 147.813 195.739C149.347 195.739 150.555 196.065 151.435 196.719C152.322 197.372 152.87 198.256 153.08 199.369ZM158.607 209L154.908 195.909H158.053L160.354 205.114H160.474L162.826 195.909H165.937L168.289 205.062H168.417L170.684 195.909H173.837L170.13 209H166.917L164.462 200.153H164.283L161.829 209H158.607ZM182.409 209.332C181.006 209.332 179.801 208.977 178.795 208.267C177.795 207.551 177.026 206.52 176.486 205.173C175.952 203.821 175.685 202.193 175.685 200.29C175.69 198.386 175.96 196.767 176.494 195.432C177.034 194.091 177.804 193.068 178.804 192.364C179.81 191.659 181.011 191.307 182.409 191.307C183.807 191.307 185.009 191.659 186.014 192.364C187.02 193.068 187.79 194.091 188.324 195.432C188.864 196.773 189.134 198.392 189.134 200.29C189.134 202.199 188.864 203.83 188.324 205.182C187.79 206.528 187.02 207.557 186.014 208.267C185.014 208.977 183.813 209.332 182.409 209.332ZM182.409 206.665C183.5 206.665 184.361 206.128 184.991 205.054C185.628 203.974 185.946 202.386 185.946 200.29C185.946 198.903 185.801 197.739 185.511 196.795C185.222 195.852 184.813 195.142 184.284 194.665C183.756 194.182 183.131 193.94 182.409 193.94C181.324 193.94 180.466 194.48 179.835 195.56C179.205 196.634 178.886 198.21 178.881 200.29C178.875 201.682 179.014 202.852 179.298 203.801C179.588 204.75 179.997 205.466 180.526 205.949C181.054 206.426 181.682 206.665 182.409 206.665ZM191.999 209V195.909H194.991V198.091H195.127C195.366 197.335 195.775 196.753 196.354 196.344C196.94 195.929 197.607 195.722 198.357 195.722C198.528 195.722 198.718 195.73 198.928 195.747C199.144 195.759 199.323 195.778 199.465 195.807V198.645C199.335 198.599 199.127 198.56 198.843 198.526C198.565 198.486 198.295 198.466 198.033 198.466C197.471 198.466 196.965 198.588 196.516 198.832C196.073 199.071 195.724 199.403 195.468 199.83C195.212 200.256 195.085 200.747 195.085 201.304V209H191.999ZM211.137 196.344C211.058 195.599 210.722 195.02 210.131 194.605C209.546 194.19 208.785 193.983 207.847 193.983C207.188 193.983 206.623 194.082 206.151 194.281C205.68 194.48 205.319 194.75 205.069 195.091C204.819 195.432 204.691 195.821 204.685 196.259C204.685 196.622 204.768 196.937 204.933 197.205C205.103 197.472 205.333 197.699 205.623 197.886C205.913 198.068 206.234 198.222 206.586 198.347C206.938 198.472 207.293 198.577 207.651 198.662L209.288 199.071C209.947 199.224 210.58 199.432 211.188 199.693C211.802 199.955 212.35 200.284 212.833 200.682C213.322 201.08 213.708 201.56 213.992 202.122C214.276 202.685 214.418 203.344 214.418 204.099C214.418 205.122 214.157 206.023 213.634 206.801C213.112 207.574 212.356 208.179 211.367 208.616C210.384 209.048 209.194 209.264 207.796 209.264C206.438 209.264 205.259 209.054 204.259 208.634C203.265 208.213 202.487 207.599 201.924 206.793C201.367 205.986 201.066 205.003 201.021 203.844H204.131C204.177 204.452 204.364 204.957 204.694 205.361C205.023 205.764 205.452 206.065 205.981 206.264C206.515 206.463 207.112 206.562 207.771 206.562C208.458 206.562 209.06 206.46 209.577 206.256C210.1 206.045 210.509 205.756 210.805 205.386C211.1 205.011 211.251 204.574 211.256 204.074C211.251 203.619 211.117 203.244 210.856 202.949C210.594 202.648 210.228 202.398 209.756 202.199C209.29 201.994 208.745 201.812 208.12 201.653L206.134 201.142C204.697 200.773 203.56 200.213 202.725 199.463C201.896 198.707 201.481 197.705 201.481 196.455C201.481 195.426 201.759 194.526 202.316 193.753C202.879 192.98 203.643 192.381 204.609 191.955C205.575 191.523 206.668 191.307 207.89 191.307C209.129 191.307 210.214 191.523 211.146 191.955C212.083 192.381 212.819 192.974 213.353 193.736C213.887 194.491 214.163 195.361 214.18 196.344H211.137Z" fill="black"/>
<rect x="55" y="128" width="24" height="24" rx="12" fill="#FBA200"/>
<path d="M63.642 145.5H61.392L65.4886 133.864H68.0909L72.1932 145.5H69.9432L66.8352 136.25H66.7443L63.642 145.5ZM63.7159 140.938H69.8523V142.631H63.7159V140.938Z" fill="white"/>
<rect x="55" y="278" width="24" height="24" rx="12" fill="#FBA200"/>
<path d="M66.0909 295.5H62.1477V283.864H66.1705C67.3258 283.864 68.3182 284.097 69.1477 284.562C69.9811 285.025 70.6212 285.689 71.0682 286.557C71.5152 287.424 71.7386 288.462 71.7386 289.67C71.7386 290.883 71.5133 291.924 71.0625 292.795C70.6155 293.667 69.9697 294.335 69.125 294.801C68.2841 295.267 67.2727 295.5 66.0909 295.5ZM64.2557 293.676H65.9886C66.7992 293.676 67.4754 293.528 68.017 293.233C68.5587 292.934 68.9659 292.489 69.2386 291.898C69.5114 291.303 69.6477 290.561 69.6477 289.67C69.6477 288.78 69.5114 288.042 69.2386 287.455C68.9659 286.864 68.5625 286.422 68.0284 286.131C67.4981 285.835 66.839 285.688 66.0511 285.688H64.2557V293.676Z" fill="white"/>
<rect x="55" y="234" width="24" height="24" rx="12" fill="#FBA200"/>
<path d="M72.108 243.79H69.983C69.9223 243.441 69.8106 243.133 69.6477 242.864C69.4848 242.591 69.2822 242.36 69.0398 242.17C68.7973 241.981 68.5208 241.839 68.2102 241.744C67.9034 241.646 67.572 241.597 67.2159 241.597C66.5833 241.597 66.0227 241.756 65.5341 242.074C65.0455 242.388 64.6629 242.85 64.3864 243.46C64.1098 244.066 63.9716 244.807 63.9716 245.682C63.9716 246.572 64.1098 247.322 64.3864 247.932C64.6667 248.538 65.0492 248.996 65.5341 249.307C66.0227 249.614 66.5814 249.767 67.2102 249.767C67.5587 249.767 67.8845 249.722 68.1875 249.631C68.4943 249.536 68.7689 249.398 69.0114 249.216C69.2576 249.034 69.464 248.811 69.6307 248.545C69.8011 248.28 69.9186 247.977 69.983 247.636L72.108 247.648C72.0284 248.201 71.8561 248.72 71.5909 249.205C71.3295 249.689 70.9867 250.117 70.5625 250.489C70.1383 250.856 69.642 251.144 69.0739 251.352C68.5057 251.557 67.875 251.659 67.1818 251.659C66.1591 251.659 65.2462 251.422 64.4432 250.949C63.6402 250.475 63.0076 249.792 62.5455 248.898C62.0833 248.004 61.8523 246.932 61.8523 245.682C61.8523 244.428 62.0852 243.356 62.5511 242.466C63.017 241.572 63.6515 240.888 64.4545 240.415C65.2576 239.941 66.1667 239.705 67.1818 239.705C67.8295 239.705 68.4318 239.795 68.9886 239.977C69.5455 240.159 70.0417 240.426 70.4773 240.778C70.9129 241.127 71.2708 241.555 71.5511 242.062C71.8352 242.566 72.0208 243.142 72.108 243.79Z" fill="white"/>
<rect x="55" y="191" width="24" height="24" rx="12" fill="#FBA200"/>
<path d="M62.6477 208.5V196.864H67.1023C67.9432 196.864 68.642 196.996 69.1989 197.261C69.7595 197.523 70.178 197.881 70.4545 198.335C70.7348 198.79 70.875 199.305 70.875 199.881C70.875 200.354 70.7841 200.759 70.6023 201.097C70.4205 201.43 70.1761 201.701 69.8693 201.909C69.5625 202.117 69.2197 202.267 68.8409 202.358V202.472C69.2538 202.494 69.6496 202.621 70.0284 202.852C70.411 203.08 70.7235 203.402 70.9659 203.818C71.2083 204.235 71.3295 204.739 71.3295 205.33C71.3295 205.932 71.1837 206.473 70.892 206.955C70.6004 207.432 70.161 207.809 69.5739 208.085C68.9867 208.362 68.2481 208.5 67.358 208.5H62.6477ZM64.7557 206.739H67.0227C67.7879 206.739 68.339 206.593 68.6761 206.301C69.017 206.006 69.1875 205.627 69.1875 205.165C69.1875 204.82 69.1023 204.509 68.9318 204.233C68.7614 203.953 68.5189 203.733 68.2045 203.574C67.8902 203.411 67.5152 203.33 67.0795 203.33H64.7557V206.739ZM64.7557 201.812H66.8409C67.2045 201.812 67.5322 201.746 67.8239 201.614C68.1155 201.477 68.3447 201.286 68.5114 201.04C68.6818 200.79 68.767 200.494 68.767 200.153C68.767 199.703 68.608 199.331 68.2898 199.04C67.9754 198.748 67.5076 198.602 66.8864 198.602H64.7557V201.812Z" fill="white"/>
<g style="mix-blend-mode:multiply">
<rect x="280.016" width="7.98933" height="4.66354" fill="#C0C0C0"/>
</g>
<rect x="130.825" y="6.21777" width="66.9106" height="5.4408" rx="2.7204" fill="#171718"/>
<g style="mix-blend-mode:multiply">
<rect x="411.045" y="66.0674" width="5.992" height="6.21805" fill="#C0C0C0"/>
</g>
<g style="mix-blend-mode:multiply">
<rect x="1.99707" y="66.0674" width="5.992" height="6.21805" fill="#C0C0C0"/>
</g>
<path fill-rule="evenodd" clip-rule="evenodd" d="M131.829 15.5449H127.829V15.5449C127.829 15.5449 127.829 15.5449 127.829 15.5449C129.95 15.5449 131.669 17.2639 131.669 19.3844C131.669 19.4382 131.668 19.4917 131.665 19.5449H131.829V15.5449Z" fill="black"/>
<path d="M131.829 15.5449H285.829V27.7077C285.829 38.6635 276.948 47.5449 265.992 47.5449H151.666C140.711 47.5449 131.829 38.6635 131.829 27.7077V15.5449Z" fill="black"/>
<path fill-rule="evenodd" clip-rule="evenodd" d="M285.829 15.5449H289.829V15.5449C289.829 15.5449 289.829 15.5449 289.829 15.5449C287.626 15.5449 285.838 17.3342 285.829 19.5449V15.5449Z" fill="black"/>
<ellipse cx="151.797" cy="24.095" rx="7.98933" ry="6.21805" fill="#171718"/>
</g>
<defs>
<linearGradient id="paint0_linear_529_2778" x1="209.22" y1="0" x2="209.22" y2="663" gradientUnits="userSpaceOnUse">
<stop stop-color="#527190"/>
<stop offset="1" stop-color="#2B4A69"/>
</linearGradient>
<clipPath id="clip0_529_2778">
<rect width="419" height="378" fill="white"/>
</clipPath>
</defs>
</svg>
