<svg width="419" height="378" viewBox="0 0 419 378" fill="none" xmlns="http://www.w3.org/2000/svg">
<rect x="416.444" y="198.978" width="2.55623" height="76.5956" rx="1.27811" fill="#C4C4C4"/>
<rect y="133.688" width="2.996" height="23.3177" rx="1.27982" fill="#C4C4C4"/>
<rect y="181.877" width="2.996" height="48.1899" rx="1.27982" fill="#C4C4C4"/>
<rect y="245.612" width="2.996" height="48.1899" rx="1.27982" fill="#C4C4C4"/>
<rect x="1.99756" width="414.446" height="663" rx="65" fill="url(#paint0_linear_529_2831)"/>
<rect x="8" y="4.66309" width="402.462" height="653.673" rx="60" fill="black"/>
<rect x="28" y="24" width="363" height="623" rx="42" fill="#FFD037"/>
<path d="M115.919 83.3636C115.919 85.8712 115.449 88.0189 114.51 89.8068C113.578 91.5871 112.305 92.9508 110.692 93.8977C109.086 94.8447 107.264 95.3182 105.226 95.3182C103.188 95.3182 101.362 94.8447 99.7486 93.8977C98.1425 92.9432 96.8698 91.5758 95.9304 89.7955C94.9986 88.0076 94.5327 85.8636 94.5327 83.3636C94.5327 80.8561 94.9986 78.7121 95.9304 76.9318C96.8698 75.1439 98.1425 73.7765 99.7486 72.8295C101.362 71.8826 103.188 71.4091 105.226 71.4091C107.264 71.4091 109.086 71.8826 110.692 72.8295C112.305 73.7765 113.578 75.1439 114.51 76.9318C115.449 78.7121 115.919 80.8561 115.919 83.3636ZM111.68 83.3636C111.68 81.5985 111.404 80.1098 110.851 78.8977C110.305 77.678 109.548 76.7576 108.578 76.1364C107.608 75.5076 106.491 75.1932 105.226 75.1932C103.961 75.1932 102.843 75.5076 101.874 76.1364C100.904 76.7576 100.143 77.678 99.5895 78.8977C99.044 80.1098 98.7713 81.5985 98.7713 83.3636C98.7713 85.1288 99.044 86.6212 99.5895 87.8409C100.143 89.053 100.904 89.9735 101.874 90.6023C102.843 91.2235 103.961 91.5341 105.226 91.5341C106.491 91.5341 107.608 91.2235 108.578 90.6023C109.548 89.9735 110.305 89.053 110.851 87.8409C111.404 86.6212 111.68 85.1288 111.68 83.3636ZM123.837 84.7727V95H119.723V77.5455H123.655V80.5114H123.859C124.261 79.5341 124.901 78.7576 125.78 78.1818C126.666 77.6061 127.761 77.3182 129.064 77.3182C130.268 77.3182 131.318 77.5758 132.212 78.0909C133.113 78.6061 133.81 79.3523 134.303 80.3295C134.803 81.3068 135.049 82.4924 135.041 83.8864V95H130.928V84.5227C130.928 83.3561 130.625 82.4432 130.018 81.7841C129.42 81.125 128.59 80.7955 127.53 80.7955C126.81 80.7955 126.17 80.9545 125.609 81.2727C125.056 81.5833 124.621 82.0341 124.303 82.625C123.992 83.2159 123.837 83.9318 123.837 84.7727ZM143.337 71.7273V95H139.223V71.7273H143.337ZM147.567 95V77.5455H151.68V95H147.567ZM149.635 75.0682C148.983 75.0682 148.423 74.8523 147.953 74.4205C147.483 73.9811 147.249 73.4545 147.249 72.8409C147.249 72.2197 147.483 71.6932 147.953 71.2614C148.423 70.822 148.983 70.6023 149.635 70.6023C150.294 70.6023 150.855 70.822 151.317 71.2614C151.786 71.6932 152.021 72.2197 152.021 72.8409C152.021 73.4545 151.786 73.9811 151.317 74.4205C150.855 74.8523 150.294 75.0682 149.635 75.0682ZM160.024 84.7727V95H155.911V77.5455H159.842V80.5114H160.047C160.448 79.5341 161.089 78.7576 161.967 78.1818C162.854 77.6061 163.948 77.3182 165.251 77.3182C166.456 77.3182 167.505 77.5758 168.399 78.0909C169.301 78.6061 169.998 79.3523 170.49 80.3295C170.99 81.3068 171.236 82.4924 171.229 83.8864V95H167.115V84.5227C167.115 83.3561 166.812 82.4432 166.206 81.7841C165.607 81.125 164.778 80.7955 163.717 80.7955C162.998 80.7955 162.357 80.9545 161.797 81.2727C161.244 81.5833 160.808 82.0341 160.49 82.625C160.179 83.2159 160.024 83.9318 160.024 84.7727ZM183.138 95.3409C181.388 95.3409 179.876 94.9773 178.604 94.25C177.339 93.5152 176.365 92.4773 175.683 91.1364C175.001 89.7879 174.661 88.2008 174.661 86.375C174.661 84.5795 175.001 83.0038 175.683 81.6477C176.373 80.2841 177.335 79.2235 178.57 78.4659C179.804 77.7008 181.255 77.3182 182.922 77.3182C183.998 77.3182 185.013 77.4924 185.967 77.8409C186.929 78.1818 187.778 78.7121 188.513 79.4318C189.255 80.1515 189.839 81.0682 190.263 82.1818C190.687 83.2879 190.899 84.6061 190.899 86.1364V87.3977H176.592V84.625H186.956C186.948 83.8371 186.778 83.1364 186.445 82.5227C186.111 81.9015 185.645 81.4129 185.047 81.0568C184.456 80.7008 183.767 80.5227 182.979 80.5227C182.138 80.5227 181.399 80.7273 180.763 81.1364C180.126 81.5379 179.63 82.0682 179.274 82.7273C178.926 83.3788 178.748 84.0947 178.74 84.875V87.2955C178.74 88.3106 178.926 89.1818 179.297 89.9091C179.668 90.6288 180.187 91.1818 180.854 91.5682C181.52 91.947 182.301 92.1364 183.195 92.1364C183.793 92.1364 184.335 92.053 184.82 91.8864C185.304 91.7121 185.725 91.4583 186.081 91.125C186.437 90.7917 186.706 90.3788 186.888 89.8864L190.729 90.3182C190.486 91.3333 190.024 92.2197 189.342 92.9773C188.668 93.7273 187.804 94.3106 186.751 94.7273C185.698 95.1364 184.494 95.3409 183.138 95.3409ZM202.499 95V71.7273H211.408C213.089 71.7273 214.487 71.9924 215.601 72.5227C216.722 73.0455 217.559 73.7614 218.112 74.6705C218.673 75.5795 218.953 76.6098 218.953 77.7614C218.953 78.7083 218.771 79.5189 218.408 80.1932C218.044 80.8598 217.555 81.4015 216.942 81.8182C216.328 82.2348 215.643 82.5341 214.885 82.7159V82.9432C215.711 82.9886 216.502 83.2424 217.26 83.7045C218.025 84.1591 218.65 84.803 219.135 85.6364C219.62 86.4697 219.862 87.4773 219.862 88.6591C219.862 89.8636 219.571 90.947 218.987 91.9091C218.404 92.8636 217.525 93.6174 216.351 94.1705C215.177 94.7235 213.699 95 211.919 95H202.499ZM206.714 91.4773H211.249C212.779 91.4773 213.881 91.1856 214.555 90.6023C215.237 90.0114 215.578 89.2538 215.578 88.3295C215.578 87.6402 215.408 87.0189 215.067 86.4659C214.726 85.9053 214.241 85.4659 213.612 85.1477C212.983 84.822 212.233 84.6591 211.362 84.6591H206.714V91.4773ZM206.714 81.625H210.885C211.612 81.625 212.268 81.4924 212.851 81.2273C213.434 80.9545 213.893 80.572 214.226 80.0795C214.567 79.5795 214.737 78.9886 214.737 78.3068C214.737 77.4053 214.419 76.6629 213.783 76.0795C213.154 75.4962 212.218 75.2045 210.976 75.2045H206.714V81.625ZM228.371 95.3523C227.265 95.3523 226.268 95.1553 225.382 94.7614C224.503 94.3598 223.806 93.7689 223.291 92.9886C222.784 92.2083 222.53 91.2462 222.53 90.1023C222.53 89.1174 222.712 88.303 223.075 87.6591C223.439 87.0152 223.935 86.5 224.564 86.1136C225.193 85.7273 225.901 85.4356 226.689 85.2386C227.484 85.0341 228.306 84.8864 229.155 84.7955C230.178 84.6894 231.007 84.5947 231.643 84.5114C232.28 84.4205 232.742 84.2841 233.03 84.1023C233.325 83.9129 233.473 83.6212 233.473 83.2273V83.1591C233.473 82.303 233.219 81.6402 232.712 81.1705C232.204 80.7008 231.473 80.4659 230.518 80.4659C229.511 80.4659 228.712 80.6856 228.121 81.125C227.537 81.5644 227.143 82.0833 226.939 82.6818L223.098 82.1364C223.401 81.0758 223.901 80.1894 224.598 79.4773C225.295 78.7576 226.147 78.2197 227.155 77.8636C228.162 77.5 229.276 77.3182 230.496 77.3182C231.337 77.3182 232.174 77.4167 233.007 77.6136C233.84 77.8106 234.602 78.1364 235.291 78.5909C235.981 79.0379 236.534 79.6477 236.95 80.4205C237.375 81.1932 237.587 82.1591 237.587 83.3182V95H233.632V92.6023H233.496C233.246 93.0871 232.893 93.5417 232.439 93.9659C231.992 94.3826 231.428 94.7197 230.746 94.9773C230.071 95.2273 229.28 95.3523 228.371 95.3523ZM229.439 92.3295C230.265 92.3295 230.981 92.1667 231.587 91.8409C232.193 91.5076 232.659 91.0682 232.984 90.5227C233.318 89.9773 233.484 89.3826 233.484 88.7386V86.6818C233.356 86.7879 233.136 86.8864 232.825 86.9773C232.522 87.0682 232.181 87.1477 231.803 87.2159C231.424 87.2841 231.049 87.3447 230.678 87.3977C230.306 87.4508 229.984 87.4962 229.712 87.5341C229.098 87.6174 228.549 87.7538 228.064 87.9432C227.579 88.1326 227.196 88.3977 226.916 88.7386C226.636 89.072 226.496 89.5038 226.496 90.0341C226.496 90.7917 226.772 91.3636 227.325 91.75C227.878 92.1364 228.583 92.3295 229.439 92.3295ZM245.837 84.7727V95H241.723V77.5455H245.655V80.5114H245.859C246.261 79.5341 246.901 78.7576 247.78 78.1818C248.666 77.6061 249.761 77.3182 251.064 77.3182C252.268 77.3182 253.318 77.5758 254.212 78.0909C255.113 78.6061 255.81 79.3523 256.303 80.3295C256.803 81.3068 257.049 82.4924 257.041 83.8864V95H252.928V84.5227C252.928 83.3561 252.625 82.4432 252.018 81.7841C251.42 81.125 250.59 80.7955 249.53 80.7955C248.81 80.7955 248.17 80.9545 247.609 81.2727C247.056 81.5833 246.621 82.0341 246.303 82.625C245.992 83.2159 245.837 83.9318 245.837 84.7727ZM264.973 89.5227L264.962 84.5568H265.621L271.893 77.5455H276.7L268.984 86.1364H268.132L264.973 89.5227ZM261.223 95V71.7273H265.337V95H261.223ZM272.178 95L266.496 87.0568L269.268 84.1591L277.098 95H272.178ZM279.442 95V77.5455H283.555V95H279.442ZM281.51 75.0682C280.858 75.0682 280.298 74.8523 279.828 74.4205C279.358 73.9811 279.124 73.4545 279.124 72.8409C279.124 72.2197 279.358 71.6932 279.828 71.2614C280.298 70.822 280.858 70.6023 281.51 70.6023C282.169 70.6023 282.73 70.822 283.192 71.2614C283.661 71.6932 283.896 72.2197 283.896 72.8409C283.896 73.4545 283.661 73.9811 283.192 74.4205C282.73 74.8523 282.169 75.0682 281.51 75.0682ZM291.899 84.7727V95H287.786V77.5455H291.717V80.5114H291.922C292.323 79.5341 292.964 78.7576 293.842 78.1818C294.729 77.6061 295.823 77.3182 297.126 77.3182C298.331 77.3182 299.38 77.5758 300.274 78.0909C301.176 78.6061 301.873 79.3523 302.365 80.3295C302.865 81.3068 303.111 82.4924 303.104 83.8864V95H298.99V84.5227C298.99 83.3561 298.687 82.4432 298.081 81.7841C297.482 81.125 296.653 80.7955 295.592 80.7955C294.873 80.7955 294.232 80.9545 293.672 81.2727C293.119 81.5833 292.683 82.0341 292.365 82.625C292.054 83.2159 291.899 83.9318 291.899 84.7727ZM314.876 101.909C313.399 101.909 312.13 101.708 311.07 101.307C310.009 100.913 309.157 100.383 308.513 99.7159C307.869 99.0492 307.422 98.3106 307.172 97.5L310.876 96.6023C311.043 96.9432 311.286 97.2803 311.604 97.6136C311.922 97.9545 312.35 98.2348 312.888 98.4545C313.433 98.6818 314.119 98.7955 314.945 98.7955C316.111 98.7955 317.077 98.5114 317.842 97.9432C318.607 97.3826 318.99 96.4583 318.99 95.1705V91.8636H318.786C318.573 92.2879 318.263 92.7235 317.854 93.1705C317.452 93.6174 316.918 93.9924 316.251 94.2955C315.592 94.5985 314.763 94.75 313.763 94.75C312.422 94.75 311.206 94.4356 310.115 93.8068C309.032 93.1705 308.168 92.2235 307.524 90.9659C306.888 89.7008 306.57 88.1174 306.57 86.2159C306.57 84.2992 306.888 82.6818 307.524 81.3636C308.168 80.0379 309.036 79.0341 310.126 78.3523C311.217 77.6629 312.433 77.3182 313.774 77.3182C314.797 77.3182 315.638 77.4924 316.297 77.8409C316.964 78.1818 317.494 78.5947 317.888 79.0795C318.282 79.5568 318.581 80.0076 318.786 80.4318H319.013V77.5455H323.07V95.2841C323.07 96.7765 322.714 98.0114 322.001 98.9886C321.289 99.9659 320.316 100.697 319.081 101.182C317.846 101.667 316.445 101.909 314.876 101.909ZM314.911 91.5227C315.782 91.5227 316.524 91.3106 317.138 90.8864C317.751 90.4621 318.217 89.8523 318.536 89.0568C318.854 88.2614 319.013 87.3068 319.013 86.1932C319.013 85.0947 318.854 84.1326 318.536 83.3068C318.225 82.4811 317.763 81.8409 317.149 81.3864C316.543 80.9242 315.797 80.6932 314.911 80.6932C313.994 80.6932 313.229 80.9318 312.615 81.4091C312.001 81.8864 311.539 82.5417 311.229 83.375C310.918 84.2008 310.763 85.1402 310.763 86.1932C310.763 87.2614 310.918 88.197 311.229 89C311.547 89.7955 312.013 90.4167 312.626 90.8636C313.248 91.303 314.009 91.5227 314.911 91.5227Z" fill="black"/>
<path d="M66.0043 145.795C65.3168 145.795 64.6889 145.628 64.1207 145.293C63.5526 144.952 63.098 144.497 62.7571 143.929C62.4219 143.361 62.2543 142.733 62.2543 142.045C62.2543 141.352 62.4219 140.724 62.7571 140.162C63.098 139.594 63.5526 139.142 64.1207 138.807C64.6889 138.466 65.3168 138.295 66.0043 138.295C66.6974 138.295 67.3253 138.466 67.8878 138.807C68.456 139.142 68.9077 139.594 69.2429 140.162C69.5838 140.724 69.7543 141.352 69.7543 142.045C69.7543 142.733 69.5838 143.361 69.2429 143.929C68.9077 144.497 68.456 144.952 67.8878 145.293C67.3253 145.628 66.6974 145.795 66.0043 145.795ZM85.7216 149V131.545H92.267C93.608 131.545 94.733 131.778 95.642 132.244C96.5568 132.71 97.2472 133.364 97.7131 134.205C98.1847 135.04 98.4205 136.014 98.4205 137.128C98.4205 138.247 98.1818 139.219 97.7045 140.043C97.233 140.861 96.5369 141.494 95.6165 141.943C94.696 142.386 93.5653 142.608 92.2244 142.608H87.5625V139.983H91.7983C92.5824 139.983 93.2244 139.875 93.7244 139.659C94.2244 139.437 94.5938 139.116 94.8324 138.696C95.0767 138.27 95.1989 137.747 95.1989 137.128C95.1989 136.509 95.0767 135.98 94.8324 135.543C94.5881 135.099 94.2159 134.764 93.7159 134.537C93.2159 134.304 92.571 134.188 91.7812 134.188H88.8835V149H85.7216ZM94.7386 141.091L99.0597 149H95.5312L91.2869 141.091H94.7386ZM107.774 149L110.638 131.545H113.024L110.161 149H107.774ZM99.9077 144.5L100.308 142.114H113.74L113.339 144.5H99.9077ZM101.638 149L104.501 131.545H106.888L104.024 149H101.638ZM100.922 138.432L101.314 136.045H114.746L114.354 138.432H100.922ZM128.333 135.909L123.671 149H120.262L115.6 135.909H118.89L121.898 145.634H122.035L125.052 135.909H128.333ZM130.119 145.761V143.247L137.525 131.545H139.621V135.125H138.343L133.357 143.026V143.162H143.695V145.761H130.119ZM138.445 149V144.994L138.479 143.869V131.545H141.462V149H138.445ZM154.387 140.46V143H146.529V140.46H154.387ZM164.169 135.909V138.295H156.643V135.909H164.169ZM158.501 132.773H161.587V145.062C161.587 145.477 161.649 145.795 161.774 146.017C161.905 146.233 162.075 146.381 162.286 146.46C162.496 146.54 162.729 146.58 162.984 146.58C163.178 146.58 163.354 146.565 163.513 146.537C163.678 146.509 163.803 146.483 163.888 146.46L164.408 148.872C164.243 148.929 164.007 148.991 163.7 149.06C163.399 149.128 163.03 149.168 162.592 149.179C161.82 149.202 161.124 149.085 160.504 148.83C159.885 148.568 159.393 148.165 159.03 147.619C158.672 147.074 158.496 146.392 158.501 145.574V132.773ZM166.715 149V146.716L172.775 140.776C173.354 140.19 173.837 139.67 174.224 139.216C174.61 138.761 174.9 138.321 175.093 137.895C175.286 137.469 175.383 137.014 175.383 136.531C175.383 135.98 175.258 135.509 175.008 135.116C174.758 134.719 174.414 134.412 173.977 134.196C173.539 133.98 173.042 133.872 172.485 133.872C171.911 133.872 171.408 133.991 170.977 134.23C170.545 134.463 170.21 134.795 169.971 135.227C169.738 135.659 169.621 136.173 169.621 136.77H166.613C166.613 135.662 166.866 134.699 167.371 133.881C167.877 133.062 168.573 132.429 169.46 131.98C170.352 131.531 171.374 131.307 172.528 131.307C173.698 131.307 174.727 131.526 175.613 131.963C176.499 132.401 177.187 133 177.675 133.761C178.17 134.523 178.417 135.392 178.417 136.369C178.417 137.023 178.292 137.665 178.042 138.295C177.792 138.926 177.352 139.625 176.721 140.392C176.096 141.159 175.218 142.088 174.087 143.179L171.079 146.239V146.358H178.681V149H166.715ZM189.59 140.46V143H181.732V140.46H189.59ZM203.182 139.369L200.369 139.676C200.29 139.392 200.151 139.125 199.952 138.875C199.759 138.625 199.497 138.423 199.168 138.27C198.838 138.116 198.435 138.04 197.957 138.04C197.315 138.04 196.776 138.179 196.338 138.457C195.906 138.736 195.693 139.097 195.699 139.54C195.693 139.92 195.832 140.23 196.116 140.469C196.406 140.707 196.884 140.903 197.548 141.057L199.781 141.534C201.02 141.801 201.94 142.224 202.543 142.804C203.151 143.384 203.457 144.142 203.463 145.08C203.457 145.903 203.216 146.631 202.739 147.261C202.267 147.886 201.611 148.375 200.77 148.727C199.929 149.08 198.963 149.256 197.872 149.256C196.27 149.256 194.98 148.92 194.003 148.25C193.026 147.574 192.443 146.634 192.256 145.429L195.264 145.139C195.401 145.73 195.69 146.176 196.134 146.477C196.577 146.778 197.153 146.929 197.864 146.929C198.597 146.929 199.185 146.778 199.628 146.477C200.077 146.176 200.301 145.804 200.301 145.361C200.301 144.986 200.156 144.676 199.866 144.432C199.582 144.187 199.139 144 198.537 143.869L196.304 143.401C195.048 143.139 194.119 142.699 193.517 142.08C192.915 141.455 192.616 140.665 192.622 139.71C192.616 138.903 192.835 138.205 193.278 137.614C193.727 137.017 194.349 136.557 195.145 136.233C195.946 135.903 196.869 135.739 197.915 135.739C199.449 135.739 200.656 136.065 201.537 136.719C202.423 137.372 202.972 138.256 203.182 139.369ZM212.544 135.909V138.295H205.018V135.909H212.544ZM206.876 132.773H209.962V145.062C209.962 145.477 210.024 145.795 210.149 146.017C210.28 146.233 210.45 146.381 210.661 146.46C210.871 146.54 211.104 146.58 211.359 146.58C211.553 146.58 211.729 146.565 211.888 146.537C212.053 146.509 212.178 146.483 212.263 146.46L212.783 148.872C212.618 148.929 212.382 148.991 212.075 149.06C211.774 149.128 211.405 149.168 210.967 149.179C210.195 149.202 209.499 149.085 208.879 148.83C208.26 148.568 207.768 148.165 207.405 147.619C207.047 147.074 206.871 146.392 206.876 145.574V132.773ZM215.542 149V136.105C215.542 135.111 215.778 134.256 216.249 133.54C216.721 132.818 217.383 132.267 218.235 131.886C219.093 131.5 220.09 131.307 221.227 131.307C222.3 131.307 223.281 131.486 224.167 131.844C225.053 132.202 225.758 132.727 226.281 133.42C226.803 134.108 227.065 134.955 227.065 135.96C227.065 136.892 226.829 137.685 226.357 138.338C225.891 138.991 225.263 139.437 224.474 139.676V139.864C225.599 139.949 226.502 140.386 227.184 141.176C227.866 141.966 228.204 142.972 228.198 144.193C228.198 145.182 227.968 146.037 227.508 146.759C227.053 147.474 226.417 148.028 225.599 148.42C224.786 148.807 223.843 149 222.769 149H220.596V146.401H222.394C222.94 146.401 223.414 146.298 223.817 146.094C224.221 145.889 224.533 145.605 224.755 145.241C224.977 144.872 225.087 144.446 225.087 143.963C225.082 143.207 224.809 142.594 224.269 142.122C223.729 141.651 222.999 141.415 222.079 141.415H220.664V138.892H221.636C222.102 138.892 222.505 138.778 222.846 138.551C223.187 138.318 223.451 138.014 223.638 137.639C223.826 137.259 223.923 136.849 223.928 136.412C223.928 135.713 223.695 135.131 223.229 134.665C222.769 134.193 222.13 133.957 221.312 133.957C220.522 133.957 219.877 134.188 219.377 134.648C218.877 135.108 218.627 135.713 218.627 136.463V149H215.542ZM230.898 149V135.909H233.889V138.091H234.026C234.264 137.335 234.673 136.753 235.253 136.344C235.838 135.929 236.506 135.722 237.256 135.722C237.426 135.722 237.616 135.73 237.827 135.747C238.043 135.759 238.222 135.778 238.364 135.807V138.645C238.233 138.599 238.026 138.56 237.741 138.526C237.463 138.486 237.193 138.466 236.932 138.466C236.369 138.466 235.864 138.588 235.415 138.832C234.972 139.071 234.622 139.403 234.366 139.83C234.111 140.256 233.983 140.747 233.983 141.304V149H230.898ZM243.499 141.33V149H240.413V135.909H243.362V138.134H243.516C243.817 137.401 244.297 136.818 244.956 136.386C245.621 135.955 246.442 135.739 247.419 135.739C248.322 135.739 249.109 135.932 249.78 136.318C250.456 136.705 250.979 137.264 251.348 137.997C251.723 138.73 251.908 139.619 251.902 140.665V149H248.817V141.142C248.817 140.267 248.589 139.582 248.135 139.088C247.686 138.594 247.064 138.347 246.268 138.347C245.729 138.347 245.249 138.466 244.828 138.705C244.413 138.937 244.087 139.276 243.848 139.719C243.615 140.162 243.499 140.699 243.499 141.33ZM260.732 154.182C259.624 154.182 258.672 154.031 257.876 153.73C257.081 153.435 256.442 153.037 255.959 152.537C255.476 152.037 255.141 151.483 254.953 150.875L257.732 150.202C257.857 150.457 258.038 150.71 258.277 150.96C258.516 151.216 258.837 151.426 259.24 151.591C259.649 151.761 260.163 151.847 260.783 151.847C261.658 151.847 262.382 151.634 262.956 151.207C263.53 150.787 263.817 150.094 263.817 149.128V146.648H263.663C263.504 146.966 263.271 147.293 262.964 147.628C262.663 147.963 262.263 148.244 261.763 148.472C261.268 148.699 260.646 148.812 259.896 148.812C258.891 148.812 257.979 148.577 257.161 148.105C256.348 147.628 255.7 146.918 255.217 145.974C254.74 145.026 254.501 143.838 254.501 142.412C254.501 140.974 254.74 139.761 255.217 138.773C255.7 137.778 256.351 137.026 257.169 136.514C257.987 135.997 258.899 135.739 259.905 135.739C260.672 135.739 261.303 135.869 261.797 136.131C262.297 136.386 262.695 136.696 262.99 137.06C263.286 137.418 263.51 137.756 263.663 138.074H263.834V135.909H266.876V149.213C266.876 150.332 266.609 151.259 266.075 151.991C265.541 152.724 264.811 153.273 263.885 153.636C262.959 154 261.908 154.182 260.732 154.182ZM260.757 146.392C261.411 146.392 261.967 146.233 262.428 145.915C262.888 145.597 263.237 145.139 263.476 144.543C263.714 143.946 263.834 143.23 263.834 142.395C263.834 141.571 263.714 140.849 263.476 140.23C263.243 139.611 262.896 139.131 262.436 138.79C261.982 138.443 261.422 138.27 260.757 138.27C260.07 138.27 259.496 138.449 259.036 138.807C258.575 139.165 258.229 139.656 257.996 140.281C257.763 140.901 257.646 141.605 257.646 142.395C257.646 143.196 257.763 143.898 257.996 144.5C258.234 145.097 258.584 145.562 259.044 145.898C259.51 146.227 260.081 146.392 260.757 146.392ZM277.973 140.46V143H270.115V140.46H277.973ZM85.5852 182.909V164.909H88.6193V167.074H88.7983C88.9574 166.756 89.1818 166.418 89.4716 166.06C89.7614 165.696 90.1534 165.386 90.6477 165.131C91.142 164.869 91.7727 164.739 92.5398 164.739C93.5511 164.739 94.4631 164.997 95.2756 165.514C96.0938 166.026 96.7415 166.784 97.2188 167.79C97.7017 168.79 97.9432 170.017 97.9432 171.472C97.9432 172.909 97.7074 174.131 97.2358 175.136C96.7642 176.142 96.1222 176.909 95.3097 177.438C94.4972 177.966 93.5767 178.23 92.5483 178.23C91.7983 178.23 91.1761 178.105 90.6818 177.855C90.1875 177.605 89.7898 177.304 89.4886 176.952C89.1932 176.594 88.9631 176.256 88.7983 175.938H88.6705V182.909H85.5852ZM88.6108 171.455C88.6108 172.301 88.7301 173.043 88.9688 173.679C89.2131 174.315 89.5625 174.812 90.017 175.17C90.4773 175.523 91.0341 175.699 91.6875 175.699C92.3693 175.699 92.9403 175.517 93.4006 175.153C93.8608 174.784 94.2074 174.281 94.4403 173.645C94.679 173.003 94.7983 172.273 94.7983 171.455C94.7983 170.642 94.6818 169.92 94.4489 169.29C94.2159 168.659 93.8693 168.165 93.4091 167.807C92.9489 167.449 92.375 167.27 91.6875 167.27C91.0284 167.27 90.4688 167.443 90.0085 167.79C89.5483 168.136 89.1989 168.622 88.9602 169.247C88.7273 169.872 88.6108 170.608 88.6108 171.455ZM111.554 182.892C109.764 182.892 108.173 182.648 106.781 182.159C105.395 181.676 104.224 180.963 103.27 180.02C102.315 179.082 101.591 177.938 101.097 176.585C100.602 175.233 100.352 173.688 100.347 171.949C100.352 170.25 100.605 168.719 101.105 167.355C101.605 165.986 102.335 164.815 103.295 163.844C104.256 162.866 105.429 162.116 106.815 161.594C108.202 161.071 109.778 160.81 111.545 160.81C113.21 160.81 114.685 161.062 115.969 161.568C117.259 162.074 118.347 162.778 119.233 163.682C120.125 164.58 120.798 165.631 121.253 166.835C121.713 168.034 121.943 169.335 121.943 170.739C121.943 171.71 121.869 172.631 121.722 173.5C121.574 174.364 121.321 175.131 120.963 175.801C120.611 176.472 120.131 177.006 119.523 177.403C118.915 177.795 118.153 178.009 117.239 178.043C116.665 178.071 116.162 178.017 115.73 177.881C115.298 177.744 114.949 177.531 114.682 177.241C114.42 176.946 114.256 176.585 114.188 176.159H114.085C113.955 176.5 113.707 176.812 113.344 177.097C112.986 177.375 112.543 177.594 112.014 177.753C111.486 177.906 110.898 177.969 110.25 177.94C109.557 177.906 108.915 177.747 108.324 177.463C107.739 177.173 107.227 176.77 106.79 176.253C106.358 175.73 106.023 175.099 105.784 174.361C105.545 173.622 105.426 172.784 105.426 171.847C105.426 170.932 105.557 170.125 105.818 169.426C106.08 168.727 106.429 168.131 106.866 167.636C107.31 167.142 107.81 166.756 108.366 166.477C108.923 166.193 109.497 166.011 110.088 165.932C110.702 165.847 111.278 165.855 111.818 165.957C112.358 166.06 112.807 166.216 113.165 166.426C113.528 166.636 113.756 166.866 113.847 167.116H113.966V166.162H116.344V174.276C116.349 174.702 116.452 175.045 116.651 175.307C116.855 175.568 117.139 175.699 117.503 175.699C117.957 175.699 118.324 175.52 118.602 175.162C118.886 174.798 119.091 174.241 119.216 173.491C119.347 172.736 119.409 171.77 119.403 170.594C119.409 169.628 119.281 168.753 119.02 167.969C118.764 167.179 118.401 166.486 117.929 165.889C117.457 165.293 116.892 164.795 116.233 164.398C115.58 163.994 114.852 163.69 114.051 163.486C113.25 163.281 112.395 163.179 111.486 163.179C110.094 163.179 108.869 163.392 107.812 163.818C106.756 164.239 105.869 164.838 105.153 165.616C104.443 166.395 103.906 167.318 103.543 168.386C103.185 169.449 103.006 170.625 103.006 171.915C103.006 173.295 103.193 174.52 103.568 175.588C103.949 176.651 104.506 177.545 105.239 178.273C105.972 179 106.878 179.551 107.957 179.926C109.043 180.301 110.29 180.489 111.699 180.489C112.347 180.489 112.98 180.438 113.599 180.335C114.219 180.233 114.776 180.114 115.27 179.977C115.764 179.841 116.145 179.722 116.412 179.619L117.136 181.784C116.784 181.966 116.307 182.142 115.705 182.312C115.108 182.483 114.449 182.622 113.727 182.73C113.011 182.838 112.287 182.892 111.554 182.892ZM110.957 175.494C111.679 175.494 112.256 175.355 112.688 175.077C113.119 174.793 113.429 174.372 113.616 173.815C113.804 173.259 113.895 172.565 113.889 171.736C113.889 170.963 113.793 170.33 113.599 169.835C113.406 169.341 113.097 168.974 112.67 168.736C112.244 168.497 111.679 168.378 110.974 168.378C110.338 168.378 109.795 168.523 109.347 168.812C108.903 169.102 108.563 169.503 108.324 170.014C108.091 170.52 107.974 171.097 107.974 171.744C107.974 172.392 108.068 173.003 108.256 173.577C108.449 174.145 108.761 174.608 109.193 174.966C109.631 175.318 110.219 175.494 110.957 175.494ZM134.908 168.369L132.096 168.676C132.016 168.392 131.877 168.125 131.678 167.875C131.485 167.625 131.224 167.423 130.894 167.27C130.565 167.116 130.161 167.04 129.684 167.04C129.042 167.04 128.502 167.179 128.065 167.457C127.633 167.736 127.42 168.097 127.425 168.54C127.42 168.92 127.559 169.23 127.843 169.469C128.133 169.707 128.61 169.903 129.275 170.057L131.508 170.534C132.746 170.801 133.667 171.224 134.269 171.804C134.877 172.384 135.184 173.142 135.19 174.08C135.184 174.903 134.942 175.631 134.465 176.261C133.994 176.886 133.337 177.375 132.496 177.727C131.656 178.08 130.69 178.256 129.599 178.256C127.996 178.256 126.707 177.92 125.729 177.25C124.752 176.574 124.17 175.634 123.982 174.429L126.991 174.139C127.127 174.73 127.417 175.176 127.86 175.477C128.303 175.778 128.88 175.929 129.59 175.929C130.323 175.929 130.911 175.778 131.354 175.477C131.803 175.176 132.028 174.804 132.028 174.361C132.028 173.986 131.883 173.676 131.593 173.432C131.309 173.187 130.866 173 130.263 172.869L128.031 172.401C126.775 172.139 125.846 171.699 125.244 171.08C124.641 170.455 124.343 169.665 124.349 168.71C124.343 167.903 124.562 167.205 125.005 166.614C125.454 166.017 126.076 165.557 126.871 165.233C127.673 164.903 128.596 164.739 129.641 164.739C131.175 164.739 132.383 165.065 133.263 165.719C134.15 166.372 134.698 167.256 134.908 168.369ZM148.08 168.369L145.268 168.676C145.188 168.392 145.049 168.125 144.85 167.875C144.657 167.625 144.396 167.423 144.066 167.27C143.737 167.116 143.333 167.04 142.856 167.04C142.214 167.04 141.674 167.179 141.237 167.457C140.805 167.736 140.592 168.097 140.597 168.54C140.592 168.92 140.731 169.23 141.015 169.469C141.305 169.707 141.782 169.903 142.447 170.057L144.68 170.534C145.918 170.801 146.839 171.224 147.441 171.804C148.049 172.384 148.356 173.142 148.362 174.08C148.356 174.903 148.114 175.631 147.637 176.261C147.165 176.886 146.509 177.375 145.668 177.727C144.827 178.08 143.862 178.256 142.771 178.256C141.168 178.256 139.879 177.92 138.901 177.25C137.924 176.574 137.342 175.634 137.154 174.429L140.163 174.139C140.299 174.73 140.589 175.176 141.032 175.477C141.475 175.778 142.052 175.929 142.762 175.929C143.495 175.929 144.083 175.778 144.526 175.477C144.975 175.176 145.2 174.804 145.2 174.361C145.2 173.986 145.055 173.676 144.765 173.432C144.481 173.187 144.038 173 143.435 172.869L141.202 172.401C139.947 172.139 139.018 171.699 138.415 171.08C137.813 170.455 137.515 169.665 137.521 168.71C137.515 167.903 137.734 167.205 138.177 166.614C138.626 166.017 139.248 165.557 140.043 165.233C140.844 164.903 141.768 164.739 142.813 164.739C144.347 164.739 145.555 165.065 146.435 165.719C147.322 166.372 147.87 167.256 148.08 168.369ZM153.607 178L149.908 164.909H153.053L155.354 174.114H155.474L157.826 164.909H160.937L163.289 174.062H163.417L165.684 164.909H168.837L165.13 178H161.917L159.462 169.153H159.283L156.829 178H153.607ZM177.409 178.332C176.006 178.332 174.801 177.977 173.795 177.267C172.795 176.551 172.026 175.52 171.486 174.173C170.952 172.821 170.685 171.193 170.685 169.29C170.69 167.386 170.96 165.767 171.494 164.432C172.034 163.091 172.804 162.068 173.804 161.364C174.81 160.659 176.011 160.307 177.409 160.307C178.807 160.307 180.009 160.659 181.014 161.364C182.02 162.068 182.79 163.091 183.324 164.432C183.864 165.773 184.134 167.392 184.134 169.29C184.134 171.199 183.864 172.83 183.324 174.182C182.79 175.528 182.02 176.557 181.014 177.267C180.014 177.977 178.813 178.332 177.409 178.332ZM177.409 175.665C178.5 175.665 179.361 175.128 179.991 174.054C180.628 172.974 180.946 171.386 180.946 169.29C180.946 167.903 180.801 166.739 180.511 165.795C180.222 164.852 179.813 164.142 179.284 163.665C178.756 163.182 178.131 162.94 177.409 162.94C176.324 162.94 175.466 163.48 174.835 164.56C174.205 165.634 173.886 167.21 173.881 169.29C173.875 170.682 174.014 171.852 174.298 172.801C174.588 173.75 174.997 174.466 175.526 174.949C176.054 175.426 176.682 175.665 177.409 175.665ZM186.999 178V164.909H189.991V167.091H190.127C190.366 166.335 190.775 165.753 191.354 165.344C191.94 164.929 192.607 164.722 193.357 164.722C193.528 164.722 193.718 164.73 193.928 164.747C194.144 164.759 194.323 164.778 194.465 164.807V167.645C194.335 167.599 194.127 167.56 193.843 167.526C193.565 167.486 193.295 167.466 193.033 167.466C192.471 167.466 191.965 167.588 191.516 167.832C191.073 168.071 190.724 168.403 190.468 168.83C190.212 169.256 190.085 169.747 190.085 170.304V178H186.999ZM202.566 178H196.651V160.545H202.685C204.418 160.545 205.907 160.895 207.151 161.594C208.401 162.287 209.362 163.284 210.032 164.585C210.702 165.886 211.038 167.443 211.038 169.256C211.038 171.074 210.7 172.636 210.023 173.943C209.353 175.25 208.384 176.253 207.117 176.952C205.856 177.651 204.339 178 202.566 178ZM199.813 175.264H202.413C203.629 175.264 204.643 175.043 205.455 174.599C206.268 174.151 206.879 173.483 207.288 172.597C207.697 171.705 207.901 170.591 207.901 169.256C207.901 167.92 207.697 166.812 207.288 165.932C206.879 165.045 206.273 164.384 205.472 163.946C204.677 163.503 203.688 163.281 202.506 163.281H199.813V175.264Z" fill="black"/>
<path d="M66.0043 212.795C65.3168 212.795 64.6889 212.628 64.1207 212.293C63.5526 211.952 63.098 211.497 62.7571 210.929C62.4219 210.361 62.2543 209.733 62.2543 209.045C62.2543 208.352 62.4219 207.724 62.7571 207.162C63.098 206.594 63.5526 206.142 64.1207 205.807C64.6889 205.466 65.3168 205.295 66.0043 205.295C66.6974 205.295 67.3253 205.466 67.8878 205.807C68.456 206.142 68.9077 206.594 69.2429 207.162C69.5838 207.724 69.7543 208.352 69.7543 209.045C69.7543 209.733 69.5838 210.361 69.2429 210.929C68.9077 211.497 68.456 211.952 67.8878 212.293C67.3253 212.628 66.6974 212.795 66.0043 212.795ZM85.5852 220.909V202.909H88.6193V205.074H88.7983C88.9574 204.756 89.1818 204.418 89.4716 204.06C89.7614 203.696 90.1534 203.386 90.6477 203.131C91.142 202.869 91.7727 202.739 92.5398 202.739C93.5511 202.739 94.4631 202.997 95.2756 203.514C96.0938 204.026 96.7415 204.784 97.2188 205.79C97.7017 206.79 97.9432 208.017 97.9432 209.472C97.9432 210.909 97.7074 212.131 97.2358 213.136C96.7642 214.142 96.1222 214.909 95.3097 215.438C94.4972 215.966 93.5767 216.23 92.5483 216.23C91.7983 216.23 91.1761 216.105 90.6818 215.855C90.1875 215.605 89.7898 215.304 89.4886 214.952C89.1932 214.594 88.9631 214.256 88.7983 213.938H88.6705V220.909H85.5852ZM88.6108 209.455C88.6108 210.301 88.7301 211.043 88.9688 211.679C89.2131 212.315 89.5625 212.812 90.017 213.17C90.4773 213.523 91.0341 213.699 91.6875 213.699C92.3693 213.699 92.9403 213.517 93.4006 213.153C93.8608 212.784 94.2074 212.281 94.4403 211.645C94.679 211.003 94.7983 210.273 94.7983 209.455C94.7983 208.642 94.6818 207.92 94.4489 207.29C94.2159 206.659 93.8693 206.165 93.4091 205.807C92.9489 205.449 92.375 205.27 91.6875 205.27C91.0284 205.27 90.4688 205.443 90.0085 205.79C89.5483 206.136 89.1989 206.622 88.9602 207.247C88.7273 207.872 88.6108 208.608 88.6108 209.455ZM111.554 220.892C109.764 220.892 108.173 220.648 106.781 220.159C105.395 219.676 104.224 218.963 103.27 218.02C102.315 217.082 101.591 215.938 101.097 214.585C100.602 213.233 100.352 211.688 100.347 209.949C100.352 208.25 100.605 206.719 101.105 205.355C101.605 203.986 102.335 202.815 103.295 201.844C104.256 200.866 105.429 200.116 106.815 199.594C108.202 199.071 109.778 198.81 111.545 198.81C113.21 198.81 114.685 199.062 115.969 199.568C117.259 200.074 118.347 200.778 119.233 201.682C120.125 202.58 120.798 203.631 121.253 204.835C121.713 206.034 121.943 207.335 121.943 208.739C121.943 209.71 121.869 210.631 121.722 211.5C121.574 212.364 121.321 213.131 120.963 213.801C120.611 214.472 120.131 215.006 119.523 215.403C118.915 215.795 118.153 216.009 117.239 216.043C116.665 216.071 116.162 216.017 115.73 215.881C115.298 215.744 114.949 215.531 114.682 215.241C114.42 214.946 114.256 214.585 114.188 214.159H114.085C113.955 214.5 113.707 214.812 113.344 215.097C112.986 215.375 112.543 215.594 112.014 215.753C111.486 215.906 110.898 215.969 110.25 215.94C109.557 215.906 108.915 215.747 108.324 215.463C107.739 215.173 107.227 214.77 106.79 214.253C106.358 213.73 106.023 213.099 105.784 212.361C105.545 211.622 105.426 210.784 105.426 209.847C105.426 208.932 105.557 208.125 105.818 207.426C106.08 206.727 106.429 206.131 106.866 205.636C107.31 205.142 107.81 204.756 108.366 204.477C108.923 204.193 109.497 204.011 110.088 203.932C110.702 203.847 111.278 203.855 111.818 203.957C112.358 204.06 112.807 204.216 113.165 204.426C113.528 204.636 113.756 204.866 113.847 205.116H113.966V204.162H116.344V212.276C116.349 212.702 116.452 213.045 116.651 213.307C116.855 213.568 117.139 213.699 117.503 213.699C117.957 213.699 118.324 213.52 118.602 213.162C118.886 212.798 119.091 212.241 119.216 211.491C119.347 210.736 119.409 209.77 119.403 208.594C119.409 207.628 119.281 206.753 119.02 205.969C118.764 205.179 118.401 204.486 117.929 203.889C117.457 203.293 116.892 202.795 116.233 202.398C115.58 201.994 114.852 201.69 114.051 201.486C113.25 201.281 112.395 201.179 111.486 201.179C110.094 201.179 108.869 201.392 107.812 201.818C106.756 202.239 105.869 202.838 105.153 203.616C104.443 204.395 103.906 205.318 103.543 206.386C103.185 207.449 103.006 208.625 103.006 209.915C103.006 211.295 103.193 212.52 103.568 213.588C103.949 214.651 104.506 215.545 105.239 216.273C105.972 217 106.878 217.551 107.957 217.926C109.043 218.301 110.29 218.489 111.699 218.489C112.347 218.489 112.98 218.438 113.599 218.335C114.219 218.233 114.776 218.114 115.27 217.977C115.764 217.841 116.145 217.722 116.412 217.619L117.136 219.784C116.784 219.966 116.307 220.142 115.705 220.312C115.108 220.483 114.449 220.622 113.727 220.73C113.011 220.838 112.287 220.892 111.554 220.892ZM110.957 213.494C111.679 213.494 112.256 213.355 112.688 213.077C113.119 212.793 113.429 212.372 113.616 211.815C113.804 211.259 113.895 210.565 113.889 209.736C113.889 208.963 113.793 208.33 113.599 207.835C113.406 207.341 113.097 206.974 112.67 206.736C112.244 206.497 111.679 206.378 110.974 206.378C110.338 206.378 109.795 206.523 109.347 206.812C108.903 207.102 108.563 207.503 108.324 208.014C108.091 208.52 107.974 209.097 107.974 209.744C107.974 210.392 108.068 211.003 108.256 211.577C108.449 212.145 108.761 212.608 109.193 212.966C109.631 213.318 110.219 213.494 110.957 213.494ZM134.908 206.369L132.096 206.676C132.016 206.392 131.877 206.125 131.678 205.875C131.485 205.625 131.224 205.423 130.894 205.27C130.565 205.116 130.161 205.04 129.684 205.04C129.042 205.04 128.502 205.179 128.065 205.457C127.633 205.736 127.42 206.097 127.425 206.54C127.42 206.92 127.559 207.23 127.843 207.469C128.133 207.707 128.61 207.903 129.275 208.057L131.508 208.534C132.746 208.801 133.667 209.224 134.269 209.804C134.877 210.384 135.184 211.142 135.19 212.08C135.184 212.903 134.942 213.631 134.465 214.261C133.994 214.886 133.337 215.375 132.496 215.727C131.656 216.08 130.69 216.256 129.599 216.256C127.996 216.256 126.707 215.92 125.729 215.25C124.752 214.574 124.17 213.634 123.982 212.429L126.991 212.139C127.127 212.73 127.417 213.176 127.86 213.477C128.303 213.778 128.88 213.929 129.59 213.929C130.323 213.929 130.911 213.778 131.354 213.477C131.803 213.176 132.028 212.804 132.028 212.361C132.028 211.986 131.883 211.676 131.593 211.432C131.309 211.187 130.866 211 130.263 210.869L128.031 210.401C126.775 210.139 125.846 209.699 125.244 209.08C124.641 208.455 124.343 207.665 124.349 206.71C124.343 205.903 124.562 205.205 125.005 204.614C125.454 204.017 126.076 203.557 126.871 203.233C127.673 202.903 128.596 202.739 129.641 202.739C131.175 202.739 132.383 203.065 133.263 203.719C134.15 204.372 134.698 205.256 134.908 206.369ZM148.08 206.369L145.268 206.676C145.188 206.392 145.049 206.125 144.85 205.875C144.657 205.625 144.396 205.423 144.066 205.27C143.737 205.116 143.333 205.04 142.856 205.04C142.214 205.04 141.674 205.179 141.237 205.457C140.805 205.736 140.592 206.097 140.597 206.54C140.592 206.92 140.731 207.23 141.015 207.469C141.305 207.707 141.782 207.903 142.447 208.057L144.68 208.534C145.918 208.801 146.839 209.224 147.441 209.804C148.049 210.384 148.356 211.142 148.362 212.08C148.356 212.903 148.114 213.631 147.637 214.261C147.165 214.886 146.509 215.375 145.668 215.727C144.827 216.08 143.862 216.256 142.771 216.256C141.168 216.256 139.879 215.92 138.901 215.25C137.924 214.574 137.342 213.634 137.154 212.429L140.163 212.139C140.299 212.73 140.589 213.176 141.032 213.477C141.475 213.778 142.052 213.929 142.762 213.929C143.495 213.929 144.083 213.778 144.526 213.477C144.975 213.176 145.2 212.804 145.2 212.361C145.2 211.986 145.055 211.676 144.765 211.432C144.481 211.187 144.038 211 143.435 210.869L141.202 210.401C139.947 210.139 139.018 209.699 138.415 209.08C137.813 208.455 137.515 207.665 137.521 206.71C137.515 205.903 137.734 205.205 138.177 204.614C138.626 204.017 139.248 203.557 140.043 203.233C140.844 202.903 141.768 202.739 142.813 202.739C144.347 202.739 145.555 203.065 146.435 203.719C147.322 204.372 147.87 205.256 148.08 206.369ZM153.607 216L149.908 202.909H153.053L155.354 212.114H155.474L157.826 202.909H160.937L163.289 212.062H163.417L165.684 202.909H168.837L165.13 216H161.917L159.462 207.153H159.283L156.829 216H153.607ZM177.409 216.332C176.006 216.332 174.801 215.977 173.795 215.267C172.795 214.551 172.026 213.52 171.486 212.173C170.952 210.821 170.685 209.193 170.685 207.29C170.69 205.386 170.96 203.767 171.494 202.432C172.034 201.091 172.804 200.068 173.804 199.364C174.81 198.659 176.011 198.307 177.409 198.307C178.807 198.307 180.009 198.659 181.014 199.364C182.02 200.068 182.79 201.091 183.324 202.432C183.864 203.773 184.134 205.392 184.134 207.29C184.134 209.199 183.864 210.83 183.324 212.182C182.79 213.528 182.02 214.557 181.014 215.267C180.014 215.977 178.813 216.332 177.409 216.332ZM177.409 213.665C178.5 213.665 179.361 213.128 179.991 212.054C180.628 210.974 180.946 209.386 180.946 207.29C180.946 205.903 180.801 204.739 180.511 203.795C180.222 202.852 179.813 202.142 179.284 201.665C178.756 201.182 178.131 200.94 177.409 200.94C176.324 200.94 175.466 201.48 174.835 202.56C174.205 203.634 173.886 205.21 173.881 207.29C173.875 208.682 174.014 209.852 174.298 210.801C174.588 211.75 174.997 212.466 175.526 212.949C176.054 213.426 176.682 213.665 177.409 213.665ZM186.999 216V202.909H189.991V205.091H190.127C190.366 204.335 190.775 203.753 191.354 203.344C191.94 202.929 192.607 202.722 193.357 202.722C193.528 202.722 193.718 202.73 193.928 202.747C194.144 202.759 194.323 202.778 194.465 202.807V205.645C194.335 205.599 194.127 205.56 193.843 205.526C193.565 205.486 193.295 205.466 193.033 205.466C192.471 205.466 191.965 205.588 191.516 205.832C191.073 206.071 190.724 206.403 190.468 206.83C190.212 207.256 190.085 207.747 190.085 208.304V216H186.999ZM206.137 203.344C206.058 202.599 205.722 202.02 205.131 201.605C204.546 201.19 203.785 200.983 202.847 200.983C202.188 200.983 201.623 201.082 201.151 201.281C200.68 201.48 200.319 201.75 200.069 202.091C199.819 202.432 199.691 202.821 199.685 203.259C199.685 203.622 199.768 203.937 199.933 204.205C200.103 204.472 200.333 204.699 200.623 204.886C200.913 205.068 201.234 205.222 201.586 205.347C201.938 205.472 202.293 205.577 202.651 205.662L204.288 206.071C204.947 206.224 205.58 206.432 206.188 206.693C206.802 206.955 207.35 207.284 207.833 207.682C208.322 208.08 208.708 208.56 208.992 209.122C209.276 209.685 209.418 210.344 209.418 211.099C209.418 212.122 209.157 213.023 208.634 213.801C208.112 214.574 207.356 215.179 206.367 215.616C205.384 216.048 204.194 216.264 202.796 216.264C201.438 216.264 200.259 216.054 199.259 215.634C198.265 215.213 197.487 214.599 196.924 213.793C196.367 212.986 196.066 212.003 196.021 210.844H199.131C199.177 211.452 199.364 211.957 199.694 212.361C200.023 212.764 200.452 213.065 200.981 213.264C201.515 213.463 202.112 213.562 202.771 213.562C203.458 213.562 204.06 213.46 204.577 213.256C205.1 213.045 205.509 212.756 205.805 212.386C206.1 212.011 206.251 211.574 206.256 211.074C206.251 210.619 206.117 210.244 205.856 209.949C205.594 209.648 205.228 209.398 204.756 209.199C204.29 208.994 203.745 208.812 203.12 208.653L201.134 208.142C199.697 207.773 198.56 207.213 197.725 206.463C196.896 205.707 196.481 204.705 196.481 203.455C196.481 202.426 196.759 201.526 197.316 200.753C197.879 199.98 198.643 199.381 199.609 198.955C200.575 198.523 201.668 198.307 202.89 198.307C204.129 198.307 205.214 198.523 206.146 198.955C207.083 199.381 207.819 199.974 208.353 200.736C208.887 201.491 209.163 202.361 209.18 203.344H206.137Z" fill="black"/>
<path d="M66.0043 255.795C65.3168 255.795 64.6889 255.628 64.1207 255.293C63.5526 254.952 63.098 254.497 62.7571 253.929C62.4219 253.361 62.2543 252.733 62.2543 252.045C62.2543 251.352 62.4219 250.724 62.7571 250.162C63.098 249.594 63.5526 249.142 64.1207 248.807C64.6889 248.466 65.3168 248.295 66.0043 248.295C66.6974 248.295 67.3253 248.466 67.8878 248.807C68.456 249.142 68.9077 249.594 69.2429 250.162C69.5838 250.724 69.7543 251.352 69.7543 252.045C69.7543 252.733 69.5838 253.361 69.2429 253.929C68.9077 254.497 68.456 254.952 67.8878 255.293C67.3253 255.628 66.6974 255.795 66.0043 255.795ZM85.7216 259V241.545H92.267C93.608 241.545 94.733 241.778 95.642 242.244C96.5568 242.71 97.2472 243.364 97.7131 244.205C98.1847 245.04 98.4205 246.014 98.4205 247.128C98.4205 248.247 98.1818 249.219 97.7045 250.043C97.233 250.861 96.5369 251.494 95.6165 251.943C94.696 252.386 93.5653 252.608 92.2244 252.608H87.5625V249.983H91.7983C92.5824 249.983 93.2244 249.875 93.7244 249.659C94.2244 249.437 94.5938 249.116 94.8324 248.696C95.0767 248.27 95.1989 247.747 95.1989 247.128C95.1989 246.509 95.0767 245.98 94.8324 245.543C94.5881 245.099 94.2159 244.764 93.7159 244.537C93.2159 244.304 92.571 244.188 91.7812 244.188H88.8835V259H85.7216ZM94.7386 251.091L99.0597 259H95.5312L91.2869 251.091H94.7386ZM107.774 259L110.638 241.545H113.024L110.161 259H107.774ZM99.9077 254.5L100.308 252.114H113.74L113.339 254.5H99.9077ZM101.638 259L104.501 241.545H106.888L104.024 259H101.638ZM100.922 248.432L101.314 246.045H114.746L114.354 248.432H100.922ZM126.646 245.807H123.867C123.867 245.273 123.705 244.827 123.381 244.469C123.063 244.111 122.572 243.932 121.907 243.932C121.538 243.932 121.211 243.994 120.927 244.119C120.648 244.239 120.433 244.406 120.279 244.622C120.126 244.832 120.049 245.074 120.049 245.347C120.049 245.642 120.137 245.915 120.313 246.165C120.495 246.415 120.717 246.634 120.978 246.821C121.245 247.003 121.498 247.151 121.737 247.264L125.018 248.926C125.239 249.034 125.506 249.187 125.819 249.386C126.131 249.58 126.433 249.832 126.722 250.145C127.012 250.452 127.245 250.824 127.421 251.261C127.603 251.693 127.677 252.205 127.643 252.795C127.614 253.25 127.481 253.656 127.242 254.014C127.004 254.372 126.717 254.67 126.381 254.909C126.052 255.142 125.731 255.307 125.418 255.403L125.393 255.438C125.847 255.835 126.188 256.287 126.415 256.793C126.643 257.298 126.759 257.858 126.765 258.472C126.765 259.347 126.546 260.085 126.109 260.688C125.677 261.295 125.097 261.753 124.37 262.06C123.648 262.372 122.844 262.528 121.958 262.528C120.958 262.528 120.075 262.341 119.308 261.966C118.54 261.591 117.941 261.06 117.509 260.372C117.083 259.69 116.87 258.881 116.87 257.943H119.665C119.66 258.58 119.867 259.068 120.288 259.409C120.714 259.75 121.279 259.912 121.984 259.895C122.484 259.889 122.935 259.77 123.339 259.537C123.748 259.31 123.955 258.955 123.961 258.472C123.961 258.131 123.87 257.841 123.688 257.602C123.506 257.358 123.285 257.153 123.023 256.989C122.768 256.818 122.526 256.673 122.299 256.554L119.018 254.926C118.79 254.818 118.521 254.665 118.208 254.466C117.896 254.267 117.594 254.011 117.305 253.699C117.015 253.386 116.779 253.011 116.597 252.574C116.415 252.131 116.342 251.614 116.376 251.023C116.404 250.568 116.529 250.162 116.751 249.804C116.978 249.446 117.256 249.148 117.586 248.909C117.921 248.67 118.265 248.5 118.617 248.398V248.355C118.208 247.957 117.879 247.514 117.629 247.026C117.379 246.531 117.254 245.972 117.254 245.347C117.254 244.574 117.452 243.884 117.85 243.276C118.248 242.662 118.796 242.182 119.495 241.835C120.194 241.483 120.998 241.307 121.907 241.307C122.862 241.307 123.694 241.5 124.404 241.886C125.114 242.273 125.665 242.807 126.058 243.489C126.45 244.165 126.646 244.937 126.646 245.807ZM125.026 252.915C125.049 252.676 125.001 252.452 124.881 252.241C124.768 252.026 124.597 251.827 124.37 251.645C124.148 251.463 123.884 251.298 123.577 251.151L120.56 249.642C120.344 249.534 120.114 249.523 119.87 249.608C119.631 249.693 119.427 249.852 119.256 250.085C119.086 250.312 118.992 250.585 118.975 250.903C118.947 251.284 119.069 251.622 119.342 251.918C119.614 252.207 119.984 252.463 120.45 252.685L123.398 254.142C123.597 254.244 123.819 254.256 124.063 254.176C124.313 254.091 124.532 253.94 124.719 253.724C124.907 253.503 125.009 253.233 125.026 252.915ZM134.305 259.264C133.476 259.264 132.729 259.116 132.064 258.821C131.405 258.52 130.882 258.077 130.496 257.491C130.115 256.906 129.925 256.185 129.925 255.327C129.925 254.588 130.061 253.977 130.334 253.494C130.607 253.011 130.979 252.625 131.45 252.335C131.922 252.045 132.453 251.827 133.044 251.679C133.641 251.526 134.257 251.415 134.893 251.347C135.661 251.267 136.283 251.196 136.76 251.134C137.237 251.065 137.584 250.963 137.8 250.827C138.021 250.685 138.132 250.466 138.132 250.17V250.119C138.132 249.477 137.942 248.98 137.561 248.628C137.18 248.276 136.632 248.099 135.916 248.099C135.161 248.099 134.561 248.264 134.118 248.594C133.68 248.923 133.385 249.312 133.232 249.761L130.351 249.352C130.578 248.557 130.953 247.892 131.476 247.358C131.999 246.818 132.638 246.415 133.393 246.148C134.149 245.875 134.984 245.739 135.899 245.739C136.53 245.739 137.158 245.812 137.783 245.96C138.408 246.108 138.979 246.352 139.496 246.693C140.013 247.028 140.428 247.486 140.74 248.065C141.058 248.645 141.217 249.369 141.217 250.239V259H138.251V257.202H138.149C137.962 257.565 137.697 257.906 137.357 258.224C137.021 258.537 136.598 258.79 136.087 258.983C135.581 259.17 134.987 259.264 134.305 259.264ZM135.107 256.997C135.726 256.997 136.263 256.875 136.717 256.631C137.172 256.381 137.521 256.051 137.766 255.642C138.016 255.233 138.141 254.787 138.141 254.304V252.761C138.044 252.841 137.879 252.915 137.646 252.983C137.419 253.051 137.163 253.111 136.879 253.162C136.595 253.213 136.314 253.259 136.036 253.298C135.757 253.338 135.516 253.372 135.311 253.401C134.851 253.463 134.439 253.565 134.075 253.707C133.712 253.849 133.425 254.048 133.214 254.304C133.004 254.554 132.899 254.878 132.899 255.276C132.899 255.844 133.107 256.273 133.521 256.562C133.936 256.852 134.464 256.997 135.107 256.997ZM148.095 241.545L147.814 253.869H145.07L144.797 241.545H148.095ZM146.442 259.188C145.925 259.188 145.482 259.006 145.112 258.642C144.749 258.278 144.567 257.835 144.567 257.312C144.567 256.801 144.749 256.364 145.112 256C145.482 255.636 145.925 255.455 146.442 255.455C146.947 255.455 147.385 255.636 147.754 256C148.129 256.364 148.317 256.801 148.317 257.312C148.317 257.659 148.229 257.974 148.053 258.259C147.882 258.543 147.655 258.77 147.371 258.94C147.092 259.105 146.783 259.188 146.442 259.188ZM157.956 259.239C156.729 259.239 155.638 259.028 154.683 258.608C153.734 258.187 152.984 257.602 152.433 256.852C151.882 256.102 151.589 255.236 151.555 254.253H154.76C154.788 254.724 154.945 255.136 155.229 255.489C155.513 255.835 155.891 256.105 156.362 256.298C156.834 256.491 157.362 256.588 157.947 256.588C158.572 256.588 159.126 256.48 159.609 256.264C160.092 256.043 160.47 255.736 160.743 255.344C161.016 254.952 161.149 254.5 161.143 253.989C161.149 253.46 161.013 252.994 160.734 252.591C160.456 252.187 160.053 251.872 159.524 251.645C159.001 251.418 158.371 251.304 157.632 251.304H156.089V248.866H157.632C158.24 248.866 158.771 248.761 159.226 248.551C159.686 248.341 160.047 248.045 160.308 247.665C160.57 247.278 160.697 246.832 160.692 246.327C160.697 245.832 160.587 245.403 160.359 245.04C160.138 244.67 159.822 244.384 159.413 244.179C159.01 243.974 158.536 243.872 157.99 243.872C157.456 243.872 156.962 243.969 156.507 244.162C156.053 244.355 155.686 244.631 155.408 244.989C155.129 245.341 154.982 245.761 154.964 246.25H151.922C151.945 245.273 152.226 244.415 152.766 243.676C153.311 242.932 154.038 242.352 154.947 241.938C155.857 241.517 156.876 241.307 158.007 241.307C159.172 241.307 160.183 241.526 161.041 241.963C161.905 242.395 162.572 242.977 163.044 243.71C163.516 244.443 163.751 245.253 163.751 246.139C163.757 247.122 163.467 247.946 162.882 248.611C162.303 249.276 161.541 249.71 160.598 249.915V250.051C161.825 250.222 162.766 250.676 163.419 251.415C164.078 252.148 164.405 253.06 164.399 254.151C164.399 255.128 164.121 256.003 163.564 256.776C163.013 257.543 162.251 258.145 161.28 258.582C160.314 259.02 159.206 259.239 157.956 259.239ZM173.589 259.239C172.362 259.239 171.271 259.028 170.316 258.608C169.367 258.187 168.617 257.602 168.066 256.852C167.515 256.102 167.222 255.236 167.188 254.253H170.393C170.421 254.724 170.577 255.136 170.862 255.489C171.146 255.835 171.523 256.105 171.995 256.298C172.467 256.491 172.995 256.588 173.58 256.588C174.205 256.588 174.759 256.48 175.242 256.264C175.725 256.043 176.103 255.736 176.376 255.344C176.648 254.952 176.782 254.5 176.776 253.989C176.782 253.46 176.646 252.994 176.367 252.591C176.089 252.187 175.685 251.872 175.157 251.645C174.634 251.418 174.004 251.304 173.265 251.304H171.722V248.866H173.265C173.873 248.866 174.404 248.761 174.859 248.551C175.319 248.341 175.68 248.045 175.941 247.665C176.202 247.278 176.33 246.832 176.325 246.327C176.33 245.832 176.219 245.403 175.992 245.04C175.771 244.67 175.455 244.384 175.046 244.179C174.643 243.974 174.168 243.872 173.623 243.872C173.089 243.872 172.594 243.969 172.14 244.162C171.685 244.355 171.319 244.631 171.04 244.989C170.762 245.341 170.614 245.761 170.597 246.25H167.555C167.577 245.273 167.859 244.415 168.398 243.676C168.944 242.932 169.671 242.352 170.58 241.938C171.489 241.517 172.509 241.307 173.64 241.307C174.805 241.307 175.816 241.526 176.674 241.963C177.538 242.395 178.205 242.977 178.677 243.71C179.148 244.443 179.384 245.253 179.384 246.139C179.39 247.122 179.1 247.946 178.515 248.611C177.935 249.276 177.174 249.71 176.231 249.915V250.051C177.458 250.222 178.398 250.676 179.052 251.415C179.711 252.148 180.038 253.06 180.032 254.151C180.032 255.128 179.754 256.003 179.197 256.776C178.646 257.543 177.884 258.145 176.913 258.582C175.947 259.02 174.839 259.239 173.589 259.239ZM193.338 249.369L190.526 249.676C190.446 249.392 190.307 249.125 190.108 248.875C189.915 248.625 189.653 248.423 189.324 248.27C188.994 248.116 188.591 248.04 188.114 248.04C187.472 248.04 186.932 248.179 186.494 248.457C186.062 248.736 185.849 249.097 185.855 249.54C185.849 249.92 185.989 250.23 186.273 250.469C186.563 250.707 187.04 250.903 187.705 251.057L189.938 251.534C191.176 251.801 192.097 252.224 192.699 252.804C193.307 253.384 193.614 254.142 193.619 255.08C193.614 255.903 193.372 256.631 192.895 257.261C192.423 257.886 191.767 258.375 190.926 258.727C190.085 259.08 189.119 259.256 188.028 259.256C186.426 259.256 185.136 258.92 184.159 258.25C183.182 257.574 182.599 256.634 182.412 255.429L185.42 255.139C185.557 255.73 185.847 256.176 186.29 256.477C186.733 256.778 187.31 256.929 188.02 256.929C188.753 256.929 189.341 256.778 189.784 256.477C190.233 256.176 190.457 255.804 190.457 255.361C190.457 254.986 190.313 254.676 190.023 254.432C189.739 254.187 189.295 254 188.693 253.869L186.46 253.401C185.205 253.139 184.276 252.699 183.673 252.08C183.071 251.455 182.773 250.665 182.778 249.71C182.773 248.903 182.991 248.205 183.435 247.614C183.884 247.017 184.506 246.557 185.301 246.233C186.102 245.903 187.026 245.739 188.071 245.739C189.605 245.739 190.813 246.065 191.693 246.719C192.58 247.372 193.128 248.256 193.338 249.369ZM202.794 245.909V248.295H195.055V245.909H202.794ZM196.99 259V244.673C196.99 243.793 197.172 243.06 197.536 242.474C197.905 241.889 198.399 241.452 199.018 241.162C199.638 240.872 200.325 240.727 201.081 240.727C201.615 240.727 202.089 240.77 202.504 240.855C202.919 240.94 203.226 241.017 203.425 241.085L202.811 243.472C202.68 243.432 202.516 243.392 202.317 243.352C202.118 243.307 201.896 243.284 201.652 243.284C201.078 243.284 200.672 243.423 200.433 243.702C200.2 243.974 200.084 244.366 200.084 244.878V259H196.99ZM203.361 255.761V253.247L210.767 241.545H212.864V245.125H211.585L206.599 253.026V253.162H216.938V255.761H203.361ZM211.688 259V254.994L211.722 253.869V241.545H214.705V259H211.688ZM227.629 249.003V251.543H219.771V249.003H227.629ZM234.769 251.364L234.965 247.912L232.067 249.812L231.028 248.006L234.121 246.455L231.028 244.903L232.067 243.097L234.965 244.997L234.769 241.545H236.84L236.653 244.997L239.55 243.097L240.59 244.903L237.488 246.455L240.59 248.006L239.55 249.812L236.653 247.912L236.84 251.364H234.769ZM243.871 259V256.716L249.931 250.776C250.511 250.19 250.994 249.67 251.38 249.216C251.766 248.761 252.056 248.321 252.249 247.895C252.442 247.469 252.539 247.014 252.539 246.531C252.539 245.98 252.414 245.509 252.164 245.116C251.914 244.719 251.57 244.412 251.133 244.196C250.695 243.98 250.198 243.872 249.641 243.872C249.067 243.872 248.565 243.991 248.133 244.23C247.701 244.463 247.366 244.795 247.127 245.227C246.894 245.659 246.778 246.173 246.778 246.77H243.769C243.769 245.662 244.022 244.699 244.528 243.881C245.033 243.062 245.729 242.429 246.616 241.98C247.508 241.531 248.531 241.307 249.684 241.307C250.854 241.307 251.883 241.526 252.769 241.963C253.656 242.401 254.343 243 254.832 243.761C255.326 244.523 255.573 245.392 255.573 246.369C255.573 247.023 255.448 247.665 255.198 248.295C254.948 248.926 254.508 249.625 253.877 250.392C253.252 251.159 252.374 252.088 251.244 253.179L248.235 256.239V256.358H255.837V259H243.871ZM265.877 241.545V259H262.715V244.622H262.613L258.531 247.23V244.332L262.869 241.545H265.877ZM276.377 259.239C275.241 259.239 274.224 259.026 273.326 258.599C272.428 258.168 271.715 257.577 271.187 256.827C270.664 256.077 270.386 255.219 270.352 254.253H273.42C273.477 254.969 273.786 255.554 274.349 256.009C274.911 256.457 275.587 256.682 276.377 256.682C276.996 256.682 277.548 256.54 278.031 256.256C278.513 255.972 278.894 255.577 279.173 255.071C279.451 254.565 279.587 253.989 279.582 253.341C279.587 252.682 279.448 252.097 279.164 251.585C278.88 251.074 278.491 250.673 277.996 250.384C277.502 250.088 276.934 249.94 276.292 249.94C275.769 249.935 275.255 250.031 274.749 250.23C274.244 250.429 273.843 250.69 273.548 251.014L270.692 250.545L271.604 241.545H281.729V244.188H274.221L273.718 248.815H273.82C274.144 248.435 274.602 248.119 275.192 247.869C275.783 247.614 276.431 247.486 277.136 247.486C278.192 247.486 279.136 247.736 279.965 248.236C280.795 248.73 281.448 249.412 281.925 250.281C282.403 251.151 282.641 252.145 282.641 253.264C282.641 254.418 282.374 255.446 281.84 256.349C281.312 257.247 280.576 257.955 279.633 258.472C278.695 258.983 277.61 259.239 276.377 259.239ZM290.388 259.23C289.36 259.23 288.44 258.966 287.627 258.438C286.815 257.909 286.173 257.142 285.701 256.136C285.229 255.131 284.994 253.909 284.994 252.472C284.994 251.017 285.232 249.79 285.71 248.79C286.192 247.784 286.843 247.026 287.661 246.514C288.479 245.997 289.391 245.739 290.397 245.739C291.164 245.739 291.795 245.869 292.289 246.131C292.783 246.386 293.175 246.696 293.465 247.06C293.755 247.418 293.979 247.756 294.138 248.074H294.266V241.545H297.36V259H294.326V256.938H294.138C293.979 257.256 293.749 257.594 293.448 257.952C293.147 258.304 292.749 258.605 292.255 258.855C291.761 259.105 291.138 259.23 290.388 259.23ZM291.249 256.699C291.903 256.699 292.46 256.523 292.92 256.17C293.38 255.812 293.729 255.315 293.968 254.679C294.207 254.043 294.326 253.301 294.326 252.455C294.326 251.608 294.207 250.872 293.968 250.247C293.735 249.622 293.388 249.136 292.928 248.79C292.474 248.443 291.914 248.27 291.249 248.27C290.562 248.27 289.988 248.449 289.528 248.807C289.067 249.165 288.721 249.659 288.488 250.29C288.255 250.92 288.138 251.642 288.138 252.455C288.138 253.273 288.255 254.003 288.488 254.645C288.727 255.281 289.076 255.784 289.536 256.153C290.002 256.517 290.573 256.699 291.249 256.699ZM304.415 259.264C303.585 259.264 302.838 259.116 302.173 258.821C301.514 258.52 300.991 258.077 300.605 257.491C300.224 256.906 300.034 256.185 300.034 255.327C300.034 254.588 300.17 253.977 300.443 253.494C300.716 253.011 301.088 252.625 301.56 252.335C302.031 252.045 302.563 251.827 303.153 251.679C303.75 251.526 304.366 251.415 305.003 251.347C305.77 251.267 306.392 251.196 306.869 251.134C307.347 251.065 307.693 250.963 307.909 250.827C308.131 250.685 308.241 250.466 308.241 250.17V250.119C308.241 249.477 308.051 248.98 307.67 248.628C307.29 248.276 306.741 248.099 306.026 248.099C305.27 248.099 304.67 248.264 304.227 248.594C303.79 248.923 303.494 249.312 303.341 249.761L300.46 249.352C300.688 248.557 301.063 247.892 301.585 247.358C302.108 246.818 302.747 246.415 303.503 246.148C304.259 245.875 305.094 245.739 306.009 245.739C306.639 245.739 307.267 245.812 307.892 245.96C308.517 246.108 309.088 246.352 309.605 246.693C310.122 247.028 310.537 247.486 310.849 248.065C311.168 248.645 311.327 249.369 311.327 250.239V259H308.361V257.202H308.259C308.071 257.565 307.807 257.906 307.466 258.224C307.131 258.537 306.707 258.79 306.196 258.983C305.69 259.17 305.097 259.264 304.415 259.264ZM305.216 256.997C305.835 256.997 306.372 256.875 306.827 256.631C307.281 256.381 307.631 256.051 307.875 255.642C308.125 255.233 308.25 254.787 308.25 254.304V252.761C308.153 252.841 307.989 252.915 307.756 252.983C307.528 253.051 307.273 253.111 306.989 253.162C306.705 253.213 306.423 253.259 306.145 253.298C305.866 253.338 305.625 253.372 305.42 253.401C304.96 253.463 304.548 253.565 304.185 253.707C303.821 253.849 303.534 254.048 303.324 254.304C303.114 254.554 303.009 254.878 303.009 255.276C303.009 255.844 303.216 256.273 303.631 256.562C304.045 256.852 304.574 256.997 305.216 256.997Z" fill="black"/>
<path d="M66.0043 292.795C65.3168 292.795 64.6889 292.628 64.1207 292.293C63.5526 291.952 63.098 291.497 62.7571 290.929C62.4219 290.361 62.2543 289.733 62.2543 289.045C62.2543 288.352 62.4219 287.724 62.7571 287.162C63.098 286.594 63.5526 286.142 64.1207 285.807C64.6889 285.466 65.3168 285.295 66.0043 285.295C66.6974 285.295 67.3253 285.466 67.8878 285.807C68.456 286.142 68.9077 286.594 69.2429 287.162C69.5838 287.724 69.7543 288.352 69.7543 289.045C69.7543 289.733 69.5838 290.361 69.2429 290.929C68.9077 291.497 68.456 291.952 67.8878 292.293C67.3253 292.628 66.6974 292.795 66.0043 292.795ZM85.7216 296V278.545H92.4034C93.6648 278.545 94.7131 278.744 95.5483 279.142C96.3892 279.534 97.017 280.071 97.4318 280.753C97.8523 281.435 98.0625 282.207 98.0625 283.071C98.0625 283.781 97.9261 284.389 97.6534 284.895C97.3807 285.395 97.0142 285.801 96.554 286.114C96.0938 286.426 95.5795 286.651 95.0114 286.787V286.957C95.6307 286.991 96.2244 287.182 96.7926 287.528C97.3665 287.869 97.8352 288.352 98.1989 288.977C98.5625 289.602 98.7443 290.358 98.7443 291.244C98.7443 292.148 98.5256 292.96 98.0881 293.682C97.6506 294.398 96.9915 294.963 96.1108 295.378C95.2301 295.793 94.1222 296 92.7869 296H85.7216ZM88.8835 293.358H92.2841C93.4318 293.358 94.2585 293.139 94.7642 292.702C95.2756 292.259 95.5312 291.69 95.5312 290.997C95.5312 290.48 95.4034 290.014 95.1477 289.599C94.892 289.179 94.5284 288.849 94.0568 288.611C93.5852 288.366 93.0227 288.244 92.3693 288.244H88.8835V293.358ZM88.8835 285.969H92.0114C92.5568 285.969 93.0483 285.869 93.4858 285.67C93.9233 285.466 94.267 285.179 94.517 284.81C94.7727 284.435 94.9006 283.991 94.9006 283.48C94.9006 282.804 94.6619 282.247 94.1847 281.81C93.7131 281.372 93.0114 281.153 92.0795 281.153H88.8835V285.969ZM104.657 278.545V296H101.495V278.545H104.657ZM107.314 281.196V278.545H121.24V281.196H115.845V296H112.709V281.196H107.314ZM127.6 296.256C126.293 296.256 125.171 295.969 124.234 295.395C123.302 294.821 122.583 294.028 122.077 293.017C121.577 292 121.327 290.83 121.327 289.506C121.327 288.176 121.583 287.003 122.094 285.986C122.606 284.963 123.327 284.168 124.259 283.599C125.197 283.026 126.305 282.739 127.583 282.739C128.646 282.739 129.586 282.935 130.404 283.327C131.228 283.713 131.884 284.261 132.373 284.972C132.862 285.676 133.14 286.5 133.208 287.443H130.259C130.14 286.812 129.856 286.287 129.407 285.866C128.964 285.44 128.37 285.227 127.626 285.227C126.995 285.227 126.441 285.398 125.964 285.739C125.487 286.074 125.114 286.557 124.847 287.188C124.586 287.818 124.455 288.574 124.455 289.455C124.455 290.347 124.586 291.114 124.847 291.756C125.109 292.392 125.475 292.884 125.947 293.23C126.424 293.571 126.984 293.741 127.626 293.741C128.08 293.741 128.487 293.656 128.844 293.486C129.208 293.31 129.512 293.057 129.756 292.727C130.001 292.398 130.168 291.997 130.259 291.526H133.208C133.134 292.452 132.862 293.273 132.39 293.989C131.918 294.699 131.276 295.256 130.464 295.659C129.651 296.057 128.697 296.256 127.6 296.256ZM141.452 296.256C140.173 296.256 139.065 295.974 138.128 295.412C137.19 294.849 136.463 294.062 135.946 293.051C135.435 292.04 135.179 290.858 135.179 289.506C135.179 288.153 135.435 286.969 135.946 285.952C136.463 284.935 137.19 284.145 138.128 283.582C139.065 283.02 140.173 282.739 141.452 282.739C142.73 282.739 143.838 283.02 144.776 283.582C145.713 284.145 146.438 284.935 146.949 285.952C147.466 286.969 147.724 288.153 147.724 289.506C147.724 290.858 147.466 292.04 146.949 293.051C146.438 294.062 145.713 294.849 144.776 295.412C143.838 295.974 142.73 296.256 141.452 296.256ZM141.469 293.784C142.162 293.784 142.741 293.594 143.207 293.213C143.673 292.827 144.02 292.31 144.247 291.662C144.48 291.014 144.597 290.293 144.597 289.497C144.597 288.696 144.48 287.972 144.247 287.324C144.02 286.67 143.673 286.151 143.207 285.764C142.741 285.378 142.162 285.185 141.469 285.185C140.759 285.185 140.168 285.378 139.696 285.764C139.23 286.151 138.881 286.67 138.648 287.324C138.42 287.972 138.307 288.696 138.307 289.497C138.307 290.293 138.42 291.014 138.648 291.662C138.881 292.31 139.23 292.827 139.696 293.213C140.168 293.594 140.759 293.784 141.469 293.784ZM154.119 278.545L153.837 290.869H151.093L150.82 278.545H154.119ZM152.465 296.188C151.948 296.188 151.505 296.006 151.136 295.642C150.772 295.278 150.59 294.835 150.59 294.312C150.59 293.801 150.772 293.364 151.136 293C151.505 292.636 151.948 292.455 152.465 292.455C152.971 292.455 153.408 292.636 153.778 293C154.153 293.364 154.34 293.801 154.34 294.312C154.34 294.659 154.252 294.974 154.076 295.259C153.906 295.543 153.678 295.77 153.394 295.94C153.116 296.105 152.806 296.188 152.465 296.188ZM160.835 288.33V296H157.749V282.909H160.698V285.134H160.852C161.153 284.401 161.633 283.818 162.292 283.386C162.957 282.955 163.778 282.739 164.755 282.739C165.658 282.739 166.445 282.932 167.116 283.318C167.792 283.705 168.315 284.264 168.684 284.997C169.059 285.73 169.244 286.619 169.238 287.665V296H166.153V288.142C166.153 287.267 165.925 286.582 165.471 286.088C165.022 285.594 164.4 285.347 163.604 285.347C163.065 285.347 162.585 285.466 162.164 285.705C161.749 285.937 161.423 286.276 161.184 286.719C160.951 287.162 160.835 287.699 160.835 288.33Z" fill="black"/>
<rect x="55" y="128" width="24" height="24" rx="12" fill="#FBA200"/>
<path d="M63.642 145.5H61.392L65.4886 133.864H68.0909L72.1932 145.5H69.9432L66.8352 136.25H66.7443L63.642 145.5ZM63.7159 140.938H69.8523V142.631H63.7159V140.938Z" fill="white"/>
<rect x="55" y="273" width="24" height="24" rx="12" fill="#FBA200"/>
<path d="M66.0909 290.5H62.1477V278.864H66.1705C67.3258 278.864 68.3182 279.097 69.1477 279.562C69.9811 280.025 70.6212 280.689 71.0682 281.557C71.5152 282.424 71.7386 283.462 71.7386 284.67C71.7386 285.883 71.5133 286.924 71.0625 287.795C70.6155 288.667 69.9697 289.335 69.125 289.801C68.2841 290.267 67.2727 290.5 66.0909 290.5ZM64.2557 288.676H65.9886C66.7992 288.676 67.4754 288.528 68.017 288.233C68.5587 287.934 68.9659 287.489 69.2386 286.898C69.5114 286.303 69.6477 285.561 69.6477 284.67C69.6477 283.78 69.5114 283.042 69.2386 282.455C68.9659 281.864 68.5625 281.422 68.0284 281.131C67.4981 280.835 66.839 280.688 66.0511 280.688H64.2557V288.676Z" fill="white"/>
<rect x="55" y="238" width="24" height="24" rx="12" fill="#FBA200"/>
<path d="M72.108 247.79H69.983C69.9223 247.441 69.8106 247.133 69.6477 246.864C69.4848 246.591 69.2822 246.36 69.0398 246.17C68.7973 245.981 68.5208 245.839 68.2102 245.744C67.9034 245.646 67.572 245.597 67.2159 245.597C66.5833 245.597 66.0227 245.756 65.5341 246.074C65.0455 246.388 64.6629 246.85 64.3864 247.46C64.1098 248.066 63.9716 248.807 63.9716 249.682C63.9716 250.572 64.1098 251.322 64.3864 251.932C64.6667 252.538 65.0492 252.996 65.5341 253.307C66.0227 253.614 66.5814 253.767 67.2102 253.767C67.5587 253.767 67.8845 253.722 68.1875 253.631C68.4943 253.536 68.7689 253.398 69.0114 253.216C69.2576 253.034 69.464 252.811 69.6307 252.545C69.8011 252.28 69.9186 251.977 69.983 251.636L72.108 251.648C72.0284 252.201 71.8561 252.72 71.5909 253.205C71.3295 253.689 70.9867 254.117 70.5625 254.489C70.1383 254.856 69.642 255.144 69.0739 255.352C68.5057 255.557 67.875 255.659 67.1818 255.659C66.1591 255.659 65.2462 255.422 64.4432 254.949C63.6402 254.475 63.0076 253.792 62.5455 252.898C62.0833 252.004 61.8523 250.932 61.8523 249.682C61.8523 248.428 62.0852 247.356 62.5511 246.466C63.017 245.572 63.6515 244.888 64.4545 244.415C65.2576 243.941 66.1667 243.705 67.1818 243.705C67.8295 243.705 68.4318 243.795 68.9886 243.977C69.5455 244.159 70.0417 244.426 70.4773 244.778C70.9129 245.127 71.2708 245.555 71.5511 246.062C71.8352 246.566 72.0208 247.142 72.108 247.79Z" fill="white"/>
<rect x="55" y="198" width="24" height="24" rx="12" fill="#FBA200"/>
<path d="M62.6477 215.5V203.864H67.1023C67.9432 203.864 68.642 203.996 69.1989 204.261C69.7595 204.523 70.178 204.881 70.4545 205.335C70.7348 205.79 70.875 206.305 70.875 206.881C70.875 207.354 70.7841 207.759 70.6023 208.097C70.4205 208.43 70.1761 208.701 69.8693 208.909C69.5625 209.117 69.2197 209.267 68.8409 209.358V209.472C69.2538 209.494 69.6496 209.621 70.0284 209.852C70.411 210.08 70.7235 210.402 70.9659 210.818C71.2083 211.235 71.3295 211.739 71.3295 212.33C71.3295 212.932 71.1837 213.473 70.892 213.955C70.6004 214.432 70.161 214.809 69.5739 215.085C68.9867 215.362 68.2481 215.5 67.358 215.5H62.6477ZM64.7557 213.739H67.0227C67.7879 213.739 68.339 213.593 68.6761 213.301C69.017 213.006 69.1875 212.627 69.1875 212.165C69.1875 211.82 69.1023 211.509 68.9318 211.233C68.7614 210.953 68.5189 210.733 68.2045 210.574C67.8902 210.411 67.5152 210.33 67.0795 210.33H64.7557V213.739ZM64.7557 208.812H66.8409C67.2045 208.812 67.5322 208.746 67.8239 208.614C68.1155 208.477 68.3447 208.286 68.5114 208.04C68.6818 207.79 68.767 207.494 68.767 207.153C68.767 206.703 68.608 206.331 68.2898 206.04C67.9754 205.748 67.5076 205.602 66.8864 205.602H64.7557V208.812Z" fill="white"/>
<g style="mix-blend-mode:multiply">
<rect x="280.016" width="7.98933" height="4.66354" fill="#C0C0C0"/>
</g>
<rect x="130.825" y="6.21777" width="66.9106" height="5.4408" rx="2.7204" fill="#171718"/>
<g style="mix-blend-mode:multiply">
<rect x="411.046" y="66.0674" width="5.992" height="6.21805" fill="#C0C0C0"/>
</g>
<g style="mix-blend-mode:multiply">
<rect x="1.99756" y="66.0674" width="5.992" height="6.21805" fill="#C0C0C0"/>
</g>
<path fill-rule="evenodd" clip-rule="evenodd" d="M131.829 15.5449H127.829V15.5449C127.829 15.5449 127.829 15.5449 127.829 15.5449C129.95 15.5449 131.669 17.2639 131.669 19.3844C131.669 19.4382 131.668 19.4917 131.665 19.5449H131.829V15.5449Z" fill="black"/>
<path d="M131.829 15.5449H285.829V27.7077C285.829 38.6635 276.948 47.5449 265.992 47.5449H151.666C140.711 47.5449 131.829 38.6635 131.829 27.7077V15.5449Z" fill="black"/>
<path fill-rule="evenodd" clip-rule="evenodd" d="M285.829 15.5449H289.829V15.5449C289.829 15.5449 289.829 15.5449 289.829 15.5449C287.626 15.5449 285.838 17.3342 285.829 19.5449V15.5449Z" fill="black"/>
<ellipse cx="151.797" cy="24.095" rx="7.98933" ry="6.21805" fill="#171718"/>
<defs>
<linearGradient id="paint0_linear_529_2831" x1="209.221" y1="0" x2="209.221" y2="663" gradientUnits="userSpaceOnUse">
<stop stop-color="#527190"/>
<stop offset="1" stop-color="#2B4A69"/>
</linearGradient>
</defs>
</svg>
