<svg width="481" height="451" viewBox="0 0 481 451" fill="none" xmlns="http://www.w3.org/2000/svg">
<path d="M148.887 424.425C144.855 425.265 140.031 427.113 139.557 431.483C139.003 436.357 144.618 439.214 149.125 440.223C166.127 444.172 183.683 444.676 201.159 445.181C293.522 447.533 385.886 447.954 478.251 446.357C476.907 434.341 463.461 429.13 452.312 426.861C404.39 417.114 354.808 422.66 307.757 412.324C258.174 401.316 197.837 413.753 148.887 424.425Z" fill="url(#paint0_linear_815_2537)"/>
<path d="M148.887 424.425C144.855 425.265 140.031 427.113 139.557 431.483C139.003 436.357 144.618 439.214 149.125 440.223C166.127 444.172 183.683 444.676 201.159 445.181C293.522 447.533 385.886 447.954 478.251 446.357C476.907 434.341 463.461 429.13 452.312 426.861C404.39 417.114 354.808 422.66 307.757 412.324C258.174 401.316 197.837 413.753 148.887 424.425Z" fill="url(#paint1_linear_815_2537)"/>
<path d="M400.429 345.264C401.457 344.928 402.564 345.264 403.592 345.601C408.1 347.197 412.528 349.298 416.482 352.071C418.459 353.416 420.436 354.928 421.385 357.197C422.255 359.298 422.176 361.651 422.018 363.836C420.594 390.894 419.249 418.036 417.826 445.095C417.747 446.859 417.51 448.793 416.245 449.885C414.663 451.145 412.449 450.305 410.709 449.465C393.707 441.565 376.785 433.582 359.783 425.683C351.638 421.902 343.255 417.868 337.245 410.893C341.832 400.137 351.48 392.995 360.336 385.768C374.096 374.507 386.749 361.567 397.899 347.449C398.532 346.609 399.322 345.6 400.429 345.264Z" fill="#DDC199"/>
<path d="M480.537 205.855C476.345 204.847 472.073 203.838 467.883 202.83C443.211 250.98 421.385 300.812 402.564 351.904C406.914 354.845 412.686 357.87 416.877 354.677C418.617 353.332 419.646 351.147 420.594 349.047C441.946 301.988 461.952 254.258 480.537 205.855Z" fill="#BDB39B"/>
<g opacity="0.26">
<path opacity="0.26" d="M402.789 440.137C402.71 441.062 404.055 441.398 404.213 440.474C407.613 413.163 412.436 386.357 418.684 359.634C419.079 357.954 416.628 357.449 416.232 359.13C409.748 385.6 405.241 412.827 402.789 440.137Z" fill="#272525"/>
<path opacity="0.26" d="M375.996 428.121C386.434 404.76 397.505 381.735 409.209 359.046C409.92 357.701 407.864 356.609 407.153 357.954C394.974 380.811 383.982 404.34 373.939 428.289C374.097 428.457 374.176 428.625 374.255 428.793C374.809 428.373 375.363 428.205 375.996 428.121Z" fill="#272525"/>
<path opacity="0.26" d="M358.982 412.743C376.458 395.264 392.037 375.853 405.638 354.844C406.508 353.416 404.294 352.239 403.424 353.668C390.06 374.592 374.719 393.92 357.559 411.398C356.689 412.322 358.112 413.667 358.982 412.743Z" fill="#272525"/>
</g>
<path d="M237.765 369.213C237.845 367.953 238.003 366.608 238.081 365.347C227.643 357.784 209.297 360.221 198.226 364.087C186.364 368.204 186.364 375.935 186.522 389.044C186.601 396.439 187.234 404.759 192.611 409.548C196.723 413.246 202.496 413.75 207.874 414.086C212.697 414.422 217.442 414.674 222.266 415.01C225.587 415.178 229.304 415.263 231.913 412.993C234.523 410.641 234.918 406.691 235.235 403.077C236.104 391.733 236.974 380.473 237.765 369.213Z" fill="#2F3F47"/>
<path d="M250.506 369.213C250.427 367.953 250.269 366.608 250.189 365.347C260.628 357.784 278.974 360.221 290.045 364.087C301.907 368.204 301.907 375.935 301.749 389.044C301.67 396.439 301.037 404.759 295.659 409.548C291.547 413.246 285.775 413.75 280.397 414.086C275.574 414.422 270.829 414.674 266.005 415.01C262.684 415.178 258.967 415.263 256.358 412.993C253.748 410.641 253.353 406.691 253.037 403.077C252.246 391.733 251.376 380.473 250.506 369.213Z" fill="#2F3F47"/>
<path d="M161.448 341.148C158.838 341.735 156.308 342.576 153.856 343.668C152.037 344.424 150.219 345.433 148.953 346.945C147.214 349.13 146.739 352.156 146.423 355.097C146.028 358.963 145.869 362.828 145.949 366.693C145.949 369.97 146.186 373.332 147.768 376.105C149.982 379.971 154.331 381.735 158.443 382.827C166.272 384.929 174.417 385.432 182.483 385.853C231.274 388.374 280.224 386.692 328.778 380.895C330.755 380.643 332.969 380.307 334.313 378.71C335.104 377.786 335.5 376.525 335.895 375.348C338.425 366.777 340.086 355.097 334.63 347.114C329.964 340.307 321.345 344.172 314.861 344.088C308.218 344.004 301.496 343.416 294.853 343.164C281.884 342.576 268.916 341.987 255.947 341.567C237.68 340.895 219.334 340.307 201.066 339.803C188.73 339.551 174.18 338.122 161.448 341.148Z" fill="#516770"/>
<path d="M266.308 156.695C299.442 156.863 332.497 157.62 365.631 158.376C364.84 139.637 363.575 120.897 359.779 102.578C353.215 70.4779 338.191 39.1339 312.806 20.3947C273.9 -8.34444 212.14 -4.56319 170.228 23.8398C152.593 35.7724 138.439 52.1588 131.005 72.2423C122.465 95.1832 120.171 120.225 118.827 144.847C118.668 148.124 118.511 151.317 118.353 154.594C167.539 152.577 217.042 156.527 266.308 156.695Z" fill="#EAF1F2"/>
<path d="M263.657 166.108C215.103 166.024 166.39 162.327 117.836 164.175C115.464 220.141 117.678 276.359 124.479 331.989C125.428 339.636 126.614 347.618 131.359 353.668C138.713 362.996 151.445 358.878 161.33 358.878C178.015 358.878 195.175 359.635 212.019 360.055C243.809 360.811 275.361 360.895 306.992 357.114C322.017 355.35 352.383 360.223 359.579 345.854C365.51 334.173 363.059 310.476 363.929 297.451C364.957 281.989 365.748 266.611 366.222 251.149C367.092 223.334 366.934 195.519 365.905 167.62C331.902 166.948 297.74 166.108 263.657 166.108Z" fill="#E2ECED"/>
<path d="M378.329 256.696C378.962 256.107 379.041 255.099 379.12 254.259C380.78 230.982 382.204 207.704 383.232 184.427C383.311 182.41 383.311 180.058 381.808 178.713C380.701 177.789 379.278 177.705 377.854 177.705C372.951 177.621 368.128 177.537 363.225 177.537C360.141 204.007 358.876 230.645 359.508 257.284C364.965 257.284 370.342 257.368 375.798 257.368C376.668 257.368 377.617 257.368 378.329 256.696Z" fill="#2F3F47"/>
<path d="M403.535 310.31C404.168 308.378 404.88 306.361 406.303 304.932C407.41 303.84 408.912 303.167 410.336 302.663C416.504 300.31 422.83 298.546 429.236 297.369C434.218 300.983 438.725 305.269 442.6 310.226C443.312 311.151 444.023 312.159 444.182 313.336C444.34 314.26 444.103 315.184 443.865 316.109C441.335 326.445 438.883 336.781 436.353 347.117C432.636 347.621 428.92 347.705 425.282 347.201C426.705 340.898 428.129 334.596 429.473 328.377C430.818 322.411 431.846 315.1 427.576 310.899C423.226 312.075 418.956 313.336 414.606 314.512C413.895 314.68 413.104 314.932 412.471 315.436C411.76 316.109 411.443 317.117 411.127 318.041C409.308 323.924 407.964 329.974 407.015 336.109C404.247 335.268 401.479 334.511 398.712 333.671C398.474 325.688 401.005 317.874 403.535 310.31Z" fill="#2F3F47"/>
<path d="M437.143 301.233C437.38 300.981 437.459 300.646 437.538 300.393C438.329 296.612 439.12 292.83 439.99 289.133C434.454 287.788 428.761 286.863 423.146 286.359C422.276 289.469 421.723 292.746 421.486 296.023C421.406 296.696 421.406 297.536 421.881 298.04C422.197 298.376 422.593 298.46 422.988 298.629C427.179 299.973 431.529 300.981 435.957 301.569C436.273 301.485 436.747 301.57 437.143 301.233Z" fill="#516770"/>
<path d="M442.687 286.529C446.008 280.562 443.32 264.848 443.32 258.546C443.241 249.89 443.241 241.151 441.342 232.748C439.445 224.344 435.57 216.109 429.164 210.815C425.527 207.79 421.256 205.858 416.828 204.261C403.622 199.471 389.467 197.875 375.628 199.639C374.521 199.807 373.335 199.975 372.544 200.816C371.674 201.656 371.516 203 371.358 204.261C370.725 209.051 369.856 214.345 370.093 219.218C370.488 227.79 368.828 225.437 374.68 227.874C379.187 229.723 387.648 228.21 392.788 229.471C398.798 230.899 404.65 233.084 410.502 235.269C414.218 236.613 418.172 238.294 420.07 241.907C421.098 243.84 421.415 246.193 421.652 248.462C423.075 261.908 423.708 275.436 423.629 288.966C423.629 291.318 439.919 290.142 442.054 287.537C442.291 287.201 442.45 286.865 442.687 286.529Z" fill="#E2ECED"/>
<g opacity="0.15">
<path opacity="0.15" d="M415.002 208.129C414.528 216.196 412.551 223.507 409.546 230.902C408.993 232.33 410.653 233.423 411.523 232.163C416.267 225.104 418.719 216.7 419.589 208.129C419.906 205.104 415.24 205.019 415.002 208.129Z" fill="#272525"/>
<path opacity="0.15" d="M427.105 213.927C425.761 221.743 422.44 226.869 417.221 232.415C416.509 233.171 417.457 234.431 418.248 233.843C421.807 231.49 425.128 229.978 427.658 226.197C430.031 222.667 431.612 218.885 432.087 214.6C432.403 211.659 427.659 210.986 427.105 213.927Z" fill="#272525"/>
</g>
<path d="M110.075 178.209C109.442 178.797 109.364 179.806 109.284 180.646C107.624 203.923 106.2 227.2 105.172 250.477C105.093 252.494 105.093 254.847 106.596 256.191C107.703 257.116 109.126 257.2 110.549 257.2C115.452 257.284 120.276 257.368 125.179 257.368C128.263 230.898 129.528 204.259 128.896 177.621C123.439 177.621 118.062 177.537 112.606 177.537C111.736 177.537 110.708 177.537 110.075 178.209Z" fill="#2F3F47"/>
<path d="M48.7799 149.555C49.0171 151.572 49.2538 153.756 48.5422 155.605C47.9886 157.117 46.961 158.378 45.8539 159.555C41.3464 164.512 36.4436 169.135 31.1454 173.252C25.1354 172.412 19.2836 170.647 13.8272 168.042C12.7992 167.538 11.6918 167.034 11.0592 166.025C10.5847 165.269 10.3476 164.344 10.1894 163.42C8.13336 153 5.99843 142.496 3.94238 132.076C7.02645 129.891 10.3478 128.042 13.8272 126.697C15.1715 133 16.5946 139.302 17.9389 145.605C19.2833 151.571 21.4185 158.63 26.954 160.311C30.3543 157.202 33.6759 154.092 37.0763 150.983C37.6298 150.479 38.2625 149.891 38.5788 149.135C38.9741 148.21 38.8156 147.117 38.6574 146.109C37.7876 139.975 36.5224 133.924 34.7827 127.958C37.6295 127.37 40.3973 126.782 43.2442 126.193C46.8817 133.336 47.8306 141.571 48.7799 149.555Z" fill="#2F3F47"/>
<path d="M22.5088 173.502C22.4297 173.838 22.5088 174.175 22.5088 174.427C23.3786 178.208 24.2485 181.906 25.0394 185.687C30.5748 184.258 36.0312 182.41 41.3295 180.225C40.855 177.031 39.9851 173.838 38.7989 170.813C38.5617 170.141 38.2456 169.468 37.613 169.216C37.2176 169.048 36.822 169.132 36.3475 169.216C31.9982 169.973 27.728 171.149 23.5368 172.662C23.1414 172.83 22.6669 173.082 22.5088 173.502Z" fill="#516770"/>
<path d="M23.7139 189.303C23.1603 196.193 32.175 208.966 34.8637 214.68C38.5013 222.412 42.2182 230.227 47.4375 236.865C52.6568 243.504 59.536 249.05 67.523 250.73C72.0307 251.739 76.6959 251.487 81.2829 250.815C95.1215 248.882 108.486 243.672 120.11 235.521C121.059 234.848 122.008 234.176 122.404 233C122.799 231.823 122.404 230.563 122.087 229.302C120.585 224.681 119.24 219.555 116.947 215.269C112.993 207.79 115.524 209.134 109.197 209.638C104.374 210.059 97.4148 215.437 92.2747 216.782C86.2645 218.378 80.0969 219.134 74.0075 219.975C70.1326 220.479 65.8626 220.899 62.6201 218.546C60.8805 217.286 59.6152 215.353 58.508 213.42C51.6283 202.075 45.3811 190.227 39.7665 178.043C38.8176 175.942 24.7416 184.681 23.8717 188.042C23.7926 188.546 23.7139 188.883 23.7139 189.303Z" fill="#E2ECED"/>
<g opacity="0.15">
<path opacity="0.15" d="M81.1866 246.442C78.2605 238.963 76.9958 231.484 76.5214 223.417C76.4421 221.821 74.4649 221.653 74.2277 223.25C72.9624 231.821 74.2281 240.476 77.075 248.543C78.103 251.484 82.3726 249.299 81.1866 246.442Z" fill="#272525"/>
<path opacity="0.15" d="M67.9955 247.032C65.9394 239.385 66.7303 233.251 69.1023 225.772C69.4187 224.764 68.0742 224.091 67.5206 224.931C65.3858 228.713 63.0134 231.654 62.3018 236.192C61.6694 240.477 61.8274 244.595 63.2506 248.628C64.1998 251.569 68.7071 249.889 67.9955 247.032Z" fill="#272525"/>
</g>
<path d="M140.436 101.739C140.514 104.932 140.672 108.209 141.938 111.151C145.18 118.461 153.72 120.814 161.233 122.159C204.172 129.805 248.061 132.411 291.238 126.612C296.931 125.856 302.625 124.932 307.844 122.411C313.064 119.89 317.729 115.604 319.627 109.974C320.813 106.36 320.892 102.495 320.971 98.6299C321.05 94.7643 321.05 90.8145 321.129 86.9489C321.129 85.1845 321.129 83.4196 320.497 81.7389C319.785 79.9745 318.362 78.5458 316.859 77.4534C311.166 73.3358 303.969 72.4112 297.09 71.655C251.383 66.7812 205.122 62.4957 159.652 69.0503C157.754 69.3023 155.776 69.6381 154.432 71.0667C153.72 71.7392 153.246 72.6638 152.534 73.3358C151.19 74.4282 149.371 74.344 147.79 74.9323C143.361 76.4452 141.78 82.2435 141.226 87.2015C140.594 91.9911 140.356 96.8649 140.436 101.739Z" fill="#2F3F47"/>
<path opacity="0.2" d="M197.679 108.797C199.182 105.856 199.419 102.411 199.103 99.0501C198.945 97.0332 198.47 94.9325 197.284 93.4202C194.753 90.2266 190.088 90.5628 186.213 89.8066C182.813 91.319 179.965 94.26 178.542 97.8735C177.672 100.058 177.277 102.411 177.514 104.764C178.068 109.554 181.785 113.672 186.213 114.512C190.72 115.521 195.544 113.083 197.679 108.797Z" fill="#EAF1F2"/>
<path opacity="0.2" d="M272.983 108.797C274.485 105.856 274.723 102.411 274.406 99.0501C274.248 97.0332 273.774 94.9325 272.587 93.4202C270.057 90.2266 265.392 90.5628 261.517 89.8066C258.116 91.319 255.269 94.26 253.846 97.8735C252.976 100.058 252.581 102.411 252.818 104.764C253.371 109.554 257.088 113.672 261.517 114.512C265.945 115.521 270.768 113.083 272.983 108.797Z" fill="#EAF1F2"/>
<defs>
<linearGradient id="paint0_linear_815_2537" x1="139.571" y1="427.659" x2="478.341" y2="427.659" gradientUnits="userSpaceOnUse">
<stop stop-color="#4D4D4D"/>
<stop offset="1"/>
</linearGradient>
<linearGradient id="paint1_linear_815_2537" x1="139.571" y1="427.659" x2="478.341" y2="427.659" gradientUnits="userSpaceOnUse">
<stop/>
<stop offset="1"/>
</linearGradient>
</defs>
</svg>
