<svg width="969" height="700" viewBox="0 0 969 700" fill="none" xmlns="http://www.w3.org/2000/svg">
<path d="M450.648 301C450.462 301 450.277 300.996 450.09 300.987C447.909 300.894 445.779 300.185 443.882 298.919C441.985 297.654 440.377 295.87 439.194 293.718C430.334 278.187 419.461 264.373 406.968 252.775C399.405 245.685 391.502 239.093 383.86 232.717C364.143 216.274 345.575 200.788 335.268 179.389C312.796 132.729 339.261 67.7384 377.068 38.5923C419.474 5.90327 475.252 0.77573 529.211 0.103761C534.819 0.0342062 540.43 -0.000362368 546.045 2.86387e-06C643.268 0.0437266 740.287 10.4486 835.904 31.0862C867.699 37.9664 900.981 46.3949 927.726 66.8494C954.311 87.1829 970.471 119.203 968.894 148.427C966.593 191.09 928.034 222.968 892.922 231.302C859.456 239.24 824.689 233.876 787.883 228.195C779.757 226.942 771.356 225.645 763.048 224.518C672.755 212.277 503.133 250.007 495.957 251.62L488.838 253.218L461.214 294.913C459.971 296.813 458.371 298.351 456.538 299.407C454.706 300.463 452.69 301.008 450.648 301Z" fill="white"/>
<path d="M411 72H403.818V48.7273H411.318C413.576 48.7273 415.508 49.1932 417.114 50.125C418.72 51.0492 419.951 52.3788 420.807 54.1136C421.663 55.8409 422.091 57.9091 422.091 60.3182C422.091 62.7424 421.659 64.8295 420.795 66.5795C419.932 68.322 418.674 69.6629 417.023 70.6023C415.371 71.5341 413.364 72 411 72ZM406.636 69.5H410.818C412.742 69.5 414.337 69.1288 415.602 68.3864C416.867 67.6439 417.811 66.5871 418.432 65.2159C419.053 63.8447 419.364 62.2121 419.364 60.3182C419.364 58.4394 419.057 56.822 418.443 55.4659C417.83 54.1023 416.913 53.0568 415.693 52.3295C414.473 51.5947 412.955 51.2273 411.136 51.2273H406.636V69.5ZM426.455 72V54.5455H429.136V72H426.455ZM427.818 51.6364C427.295 51.6364 426.845 51.4583 426.466 51.1023C426.095 50.7462 425.909 50.3182 425.909 49.8182C425.909 49.3182 426.095 48.8902 426.466 48.5341C426.845 48.178 427.295 48 427.818 48C428.341 48 428.788 48.178 429.159 48.5341C429.538 48.8902 429.727 49.3182 429.727 49.8182C429.727 50.3182 429.538 50.7462 429.159 51.1023C428.788 51.4583 428.341 51.6364 427.818 51.6364ZM441.366 72.3636C439.685 72.3636 438.234 71.9924 437.014 71.25C435.802 70.5 434.866 69.4545 434.207 68.1136C433.556 66.7652 433.23 65.197 433.23 63.4091C433.23 61.6212 433.556 60.0455 434.207 58.6818C434.866 57.3106 435.783 56.2424 436.957 55.4773C438.139 54.7045 439.518 54.3182 441.094 54.3182C442.003 54.3182 442.901 54.4697 443.787 54.7727C444.673 55.0758 445.48 55.5682 446.207 56.25C446.935 56.9242 447.514 57.8182 447.946 58.9318C448.378 60.0455 448.594 61.4167 448.594 63.0455V64.1818H435.139V61.8636H445.866C445.866 60.8788 445.67 60 445.276 59.2273C444.889 58.4545 444.336 57.8447 443.616 57.3977C442.904 56.9508 442.063 56.7273 441.094 56.7273C440.026 56.7273 439.101 56.9924 438.321 57.5227C437.548 58.0455 436.954 58.7273 436.537 59.5682C436.12 60.4091 435.912 61.3106 435.912 62.2727V63.8182C435.912 65.1364 436.139 66.2538 436.594 67.1705C437.056 68.0795 437.696 68.7727 438.514 69.25C439.332 69.7197 440.283 69.9545 441.366 69.9545C442.071 69.9545 442.707 69.8561 443.276 69.6591C443.851 69.4545 444.348 69.1515 444.764 68.75C445.181 68.3409 445.503 67.8333 445.73 67.2273L448.321 67.9545C448.048 68.8333 447.59 69.6061 446.946 70.2727C446.302 70.9318 445.507 71.447 444.56 71.8182C443.613 72.1818 442.548 72.3636 441.366 72.3636ZM462.991 48.7273L469.901 68.3182H470.173L477.082 48.7273H480.037L471.491 72H468.582L460.037 48.7273H462.991ZM488.991 72.3636C487.31 72.3636 485.859 71.9924 484.639 71.25C483.427 70.5 482.491 69.4545 481.832 68.1136C481.181 66.7652 480.855 65.197 480.855 63.4091C480.855 61.6212 481.181 60.0455 481.832 58.6818C482.491 57.3106 483.408 56.2424 484.582 55.4773C485.764 54.7045 487.143 54.3182 488.719 54.3182C489.628 54.3182 490.526 54.4697 491.412 54.7727C492.298 55.0758 493.105 55.5682 493.832 56.25C494.56 56.9242 495.139 57.8182 495.571 58.9318C496.003 60.0455 496.219 61.4167 496.219 63.0455V64.1818H482.764V61.8636H493.491C493.491 60.8788 493.295 60 492.901 59.2273C492.514 58.4545 491.961 57.8447 491.241 57.3977C490.529 56.9508 489.688 56.7273 488.719 56.7273C487.651 56.7273 486.726 56.9924 485.946 57.5227C485.173 58.0455 484.579 58.7273 484.162 59.5682C483.745 60.4091 483.537 61.3106 483.537 62.2727V63.8182C483.537 65.1364 483.764 66.2538 484.219 67.1705C484.681 68.0795 485.321 68.7727 486.139 69.25C486.957 69.7197 487.908 69.9545 488.991 69.9545C489.696 69.9545 490.332 69.8561 490.901 69.6591C491.476 69.4545 491.973 69.1515 492.389 68.75C492.806 68.3409 493.128 67.8333 493.355 67.2273L495.946 67.9545C495.673 68.8333 495.215 69.6061 494.571 70.2727C493.927 70.9318 493.132 71.447 492.185 71.8182C491.238 72.1818 490.173 72.3636 488.991 72.3636ZM500.298 72V54.5455H502.889V57.1818H503.071C503.389 56.3182 503.965 55.6174 504.798 55.0795C505.632 54.5417 506.571 54.2727 507.616 54.2727C507.813 54.2727 508.06 54.2765 508.355 54.2841C508.651 54.2917 508.874 54.303 509.026 54.3182V57.0455C508.935 57.0227 508.726 56.9886 508.401 56.9432C508.082 56.8902 507.745 56.8636 507.389 56.8636C506.541 56.8636 505.783 57.0417 505.116 57.3977C504.457 57.7462 503.935 58.2311 503.548 58.8523C503.17 59.4659 502.98 60.1667 502.98 60.9545V72H500.298ZM521.071 54.5455V56.8182H511.662V54.5455H521.071ZM514.48 72V52.1364C514.48 51.1364 514.715 50.303 515.185 49.6364C515.654 48.9697 516.264 48.4697 517.014 48.1364C517.764 47.803 518.556 47.6364 519.389 47.6364C520.048 47.6364 520.586 47.6894 521.003 47.7955C521.42 47.9015 521.73 48 521.935 48.0909L521.162 50.4091C521.026 50.3636 520.836 50.3068 520.594 50.2386C520.359 50.1705 520.048 50.1364 519.662 50.1364C518.776 50.1364 518.135 50.3598 517.741 50.8068C517.355 51.2538 517.162 51.9091 517.162 52.7727V72H514.48ZM531.202 72.3636C529.626 72.3636 528.243 71.9886 527.054 71.2386C525.872 70.4886 524.948 69.4394 524.281 68.0909C523.622 66.7424 523.293 65.1667 523.293 63.3636C523.293 61.5455 523.622 59.9583 524.281 58.6023C524.948 57.2462 525.872 56.1932 527.054 55.4432C528.243 54.6932 529.626 54.3182 531.202 54.3182C532.777 54.3182 534.156 54.6932 535.338 55.4432C536.527 56.1932 537.452 57.2462 538.111 58.6023C538.777 59.9583 539.111 61.5455 539.111 63.3636C539.111 65.1667 538.777 66.7424 538.111 68.0909C537.452 69.4394 536.527 70.4886 535.338 71.2386C534.156 71.9886 532.777 72.3636 531.202 72.3636ZM531.202 69.9545C532.399 69.9545 533.384 69.6477 534.156 69.0341C534.929 68.4205 535.501 67.6136 535.872 66.6136C536.243 65.6136 536.429 64.5303 536.429 63.3636C536.429 62.197 536.243 61.1098 535.872 60.1023C535.501 59.0947 534.929 58.2803 534.156 57.6591C533.384 57.0379 532.399 56.7273 531.202 56.7273C530.005 56.7273 529.02 57.0379 528.247 57.6591C527.474 58.2803 526.902 59.0947 526.531 60.1023C526.16 61.1098 525.974 62.197 525.974 63.3636C525.974 64.5303 526.16 65.6136 526.531 66.6136C526.902 67.6136 527.474 68.4205 528.247 69.0341C529.02 69.6477 530.005 69.9545 531.202 69.9545ZM545.886 48.7273V72H543.205V48.7273H545.886ZM557.844 78.9091C556.548 78.9091 555.435 78.7424 554.503 78.4091C553.571 78.0833 552.795 77.6515 552.173 77.1136C551.56 76.5833 551.071 76.0152 550.707 75.4091L552.844 73.9091C553.086 74.2273 553.393 74.5909 553.764 75C554.135 75.4167 554.643 75.7765 555.287 76.0795C555.938 76.3902 556.791 76.5455 557.844 76.5455C559.253 76.5455 560.416 76.2045 561.332 75.5227C562.249 74.8409 562.707 73.7727 562.707 72.3182V68.7727H562.48C562.283 69.0909 562.003 69.4848 561.639 69.9545C561.283 70.4167 560.768 70.8295 560.094 71.1932C559.427 71.5492 558.526 71.7273 557.389 71.7273C555.98 71.7273 554.715 71.3939 553.594 70.7273C552.48 70.0606 551.598 69.0909 550.946 67.8182C550.302 66.5455 549.98 65 549.98 63.1818C549.98 61.3939 550.295 59.8371 550.923 58.5114C551.552 57.178 552.427 56.1477 553.548 55.4205C554.67 54.6856 555.965 54.3182 557.435 54.3182C558.571 54.3182 559.473 54.5076 560.139 54.8864C560.813 55.2576 561.329 55.6818 561.685 56.1591C562.048 56.6288 562.329 57.0152 562.526 57.3182H562.798V54.5455H565.389V72.5C565.389 74 565.048 75.2197 564.366 76.1591C563.692 77.1061 562.783 77.7992 561.639 78.2386C560.503 78.6856 559.238 78.9091 557.844 78.9091ZM557.753 69.3182C558.829 69.3182 559.738 69.072 560.48 68.5795C561.223 68.0871 561.787 67.3788 562.173 66.4545C562.56 65.5303 562.753 64.4242 562.753 63.1364C562.753 61.8788 562.563 60.7689 562.185 59.8068C561.806 58.8447 561.245 58.0909 560.503 57.5455C559.76 57 558.844 56.7273 557.753 56.7273C556.616 56.7273 555.67 57.0152 554.912 57.5909C554.162 58.1667 553.598 58.9394 553.219 59.9091C552.848 60.8788 552.662 61.9545 552.662 63.1364C552.662 64.3485 552.851 65.4205 553.23 66.3523C553.616 67.2765 554.185 68.0038 554.935 68.5341C555.692 69.0568 556.632 69.3182 557.753 69.3182ZM581.298 64.8636V54.5455H583.98V72H581.298V69.0455H581.116C580.707 69.9318 580.071 70.6856 579.207 71.3068C578.344 71.9205 577.253 72.2273 575.935 72.2273C574.844 72.2273 573.874 71.9886 573.026 71.5114C572.177 71.0265 571.51 70.2992 571.026 69.3295C570.541 68.3523 570.298 67.1212 570.298 65.6364V54.5455H572.98V65.4545C572.98 66.7273 573.336 67.7424 574.048 68.5C574.768 69.2576 575.685 69.6364 576.798 69.6364C577.465 69.6364 578.143 69.4659 578.832 69.125C579.529 68.7841 580.113 68.2614 580.582 67.5568C581.06 66.8523 581.298 65.9545 581.298 64.8636ZM591.574 61.5V72H588.892V54.5455H591.483V57.2727H591.71C592.119 56.3864 592.741 55.6742 593.574 55.1364C594.407 54.5909 595.483 54.3182 596.801 54.3182C597.983 54.3182 599.017 54.5606 599.903 55.0455C600.79 55.5227 601.479 56.25 601.972 57.2273C602.464 58.197 602.71 59.4242 602.71 60.9091V72H600.028V61.0909C600.028 59.7197 599.672 58.6515 598.96 57.8864C598.248 57.1136 597.271 56.7273 596.028 56.7273C595.172 56.7273 594.407 56.9129 593.733 57.2841C593.066 57.6553 592.54 58.197 592.153 58.9091C591.767 59.6212 591.574 60.4848 591.574 61.5ZM614.656 78.9091C613.361 78.9091 612.247 78.7424 611.315 78.4091C610.384 78.0833 609.607 77.6515 608.986 77.1136C608.372 76.5833 607.884 76.0152 607.52 75.4091L609.656 73.9091C609.899 74.2273 610.205 74.5909 610.577 75C610.948 75.4167 611.455 75.7765 612.099 76.0795C612.751 76.3902 613.603 76.5455 614.656 76.5455C616.065 76.5455 617.228 76.2045 618.145 75.5227C619.062 74.8409 619.52 73.7727 619.52 72.3182V68.7727H619.293C619.096 69.0909 618.815 69.4848 618.452 69.9545C618.096 70.4167 617.58 70.8295 616.906 71.1932C616.24 71.5492 615.338 71.7273 614.202 71.7273C612.793 71.7273 611.527 71.3939 610.406 70.7273C609.293 70.0606 608.41 69.0909 607.759 67.8182C607.115 66.5455 606.793 65 606.793 63.1818C606.793 61.3939 607.107 59.8371 607.736 58.5114C608.365 57.178 609.24 56.1477 610.361 55.4205C611.482 54.6856 612.777 54.3182 614.247 54.3182C615.384 54.3182 616.285 54.5076 616.952 54.8864C617.626 55.2576 618.141 55.6818 618.497 56.1591C618.861 56.6288 619.141 57.0152 619.338 57.3182H619.611V54.5455H622.202V72.5C622.202 74 621.861 75.2197 621.179 76.1591C620.505 77.1061 619.596 77.7992 618.452 78.2386C617.315 78.6856 616.05 78.9091 614.656 78.9091ZM614.565 69.3182C615.641 69.3182 616.55 69.072 617.293 68.5795C618.035 68.0871 618.599 67.3788 618.986 66.4545C619.372 65.5303 619.565 64.4242 619.565 63.1364C619.565 61.8788 619.376 60.7689 618.997 59.8068C618.618 58.8447 618.058 58.0909 617.315 57.5455C616.573 57 615.656 56.7273 614.565 56.7273C613.429 56.7273 612.482 57.0152 611.724 57.5909C610.974 58.1667 610.41 58.9394 610.031 59.9091C609.66 60.8788 609.474 61.9545 609.474 63.1364C609.474 64.3485 609.664 65.4205 610.043 66.3523C610.429 67.2765 610.997 68.0038 611.747 68.5341C612.505 69.0568 613.444 69.3182 614.565 69.3182ZM642.702 72.3636C641.247 72.3636 639.963 71.9962 638.849 71.2614C637.736 70.5189 636.865 69.4735 636.236 68.125C635.607 66.7689 635.293 65.1667 635.293 63.3182C635.293 61.4848 635.607 59.8939 636.236 58.5455C636.865 57.197 637.74 56.1553 638.861 55.4205C639.982 54.6856 641.277 54.3182 642.747 54.3182C643.884 54.3182 644.781 54.5076 645.44 54.8864C646.107 55.2576 646.615 55.6818 646.963 56.1591C647.319 56.6288 647.596 57.0152 647.793 57.3182H648.02V48.7273H650.702V72H648.111V69.3182H647.793C647.596 69.6364 647.315 70.0379 646.952 70.5227C646.588 71 646.069 71.428 645.395 71.8068C644.721 72.178 643.823 72.3636 642.702 72.3636ZM643.065 69.9545C644.141 69.9545 645.05 69.6742 645.793 69.1136C646.535 68.5455 647.099 67.7614 647.486 66.7614C647.872 65.7538 648.065 64.5909 648.065 63.2727C648.065 61.9697 647.876 60.8295 647.497 59.8523C647.118 58.8674 646.558 58.1023 645.815 57.5568C645.073 57.0038 644.156 56.7273 643.065 56.7273C641.929 56.7273 640.982 57.0189 640.224 57.6023C639.474 58.178 638.91 58.9621 638.531 59.9545C638.16 60.9394 637.974 62.0455 637.974 63.2727C637.974 64.5152 638.164 65.6439 638.543 66.6591C638.929 67.6667 639.497 68.4697 640.247 69.0682C641.005 69.6591 641.944 69.9545 643.065 69.9545ZM663.304 72.3636C661.622 72.3636 660.171 71.9924 658.952 71.25C657.74 70.5 656.804 69.4545 656.145 68.1136C655.493 66.7652 655.168 65.197 655.168 63.4091C655.168 61.6212 655.493 60.0455 656.145 58.6818C656.804 57.3106 657.721 56.2424 658.895 55.4773C660.077 54.7045 661.455 54.3182 663.031 54.3182C663.94 54.3182 664.838 54.4697 665.724 54.7727C666.611 55.0758 667.418 55.5682 668.145 56.25C668.872 56.9242 669.452 57.8182 669.884 58.9318C670.315 60.0455 670.531 61.4167 670.531 63.0455V64.1818H657.077V61.8636H667.804C667.804 60.8788 667.607 60 667.213 59.2273C666.827 58.4545 666.274 57.8447 665.554 57.3977C664.842 56.9508 664.001 56.7273 663.031 56.7273C661.963 56.7273 661.039 56.9924 660.259 57.5227C659.486 58.0455 658.891 58.7273 658.474 59.5682C658.058 60.4091 657.849 61.3106 657.849 62.2727V63.8182C657.849 65.1364 658.077 66.2538 658.531 67.1705C658.993 68.0795 659.634 68.7727 660.452 69.25C661.27 69.7197 662.221 69.9545 663.304 69.9545C664.009 69.9545 664.645 69.8561 665.213 69.6591C665.789 69.4545 666.285 69.1515 666.702 68.75C667.118 68.3409 667.44 67.8333 667.668 67.2273L670.259 67.9545C669.986 68.8333 669.527 69.6061 668.884 70.2727C668.24 70.9318 667.444 71.447 666.497 71.8182C665.55 72.1818 664.486 72.3636 663.304 72.3636ZM674.611 72V54.5455H677.202V57.1818H677.384C677.702 56.3182 678.277 55.6174 679.111 55.0795C679.944 54.5417 680.884 54.2727 681.929 54.2727C682.126 54.2727 682.372 54.2765 682.668 54.2841C682.963 54.2917 683.187 54.303 683.338 54.3182V57.0455C683.247 57.0227 683.039 56.9886 682.713 56.9432C682.395 56.8902 682.058 56.8636 681.702 56.8636C680.853 56.8636 680.096 57.0417 679.429 57.3977C678.77 57.7462 678.247 58.2311 677.861 58.8523C677.482 59.4659 677.293 60.1667 677.293 60.9545V72H674.611ZM695.881 72V48.7273H698.699V59.0909H711.108V48.7273H713.926V72H711.108V61.5909H698.699V72H695.881ZM724.341 72.4091C723.235 72.4091 722.231 72.2008 721.33 71.7841C720.428 71.3598 719.712 70.75 719.182 69.9545C718.652 69.1515 718.386 68.1818 718.386 67.0455C718.386 66.0455 718.583 65.2348 718.977 64.6136C719.371 63.9848 719.898 63.4924 720.557 63.1364C721.216 62.7803 721.943 62.5152 722.739 62.3409C723.542 62.1591 724.348 62.0152 725.159 61.9091C726.22 61.7727 727.08 61.6705 727.739 61.6023C728.405 61.5265 728.89 61.4015 729.193 61.2273C729.504 61.053 729.659 60.75 729.659 60.3182V60.2273C729.659 59.1061 729.352 58.2348 728.739 57.6136C728.133 56.9924 727.212 56.6818 725.977 56.6818C724.697 56.6818 723.693 56.9621 722.966 57.5227C722.239 58.0833 721.727 58.6818 721.432 59.3182L718.886 58.4091C719.341 57.3485 719.947 56.5227 720.705 55.9318C721.47 55.3333 722.303 54.9167 723.205 54.6818C724.114 54.4394 725.008 54.3182 725.886 54.3182C726.447 54.3182 727.091 54.3864 727.818 54.5227C728.553 54.6515 729.261 54.9205 729.943 55.3295C730.633 55.7386 731.205 56.3561 731.659 57.1818C732.114 58.0076 732.341 59.1136 732.341 60.5V72H729.659V69.6364H729.523C729.341 70.0152 729.038 70.4205 728.614 70.8523C728.189 71.2841 727.625 71.6515 726.92 71.9545C726.216 72.2576 725.356 72.4091 724.341 72.4091ZM724.75 70C725.811 70 726.705 69.7917 727.432 69.375C728.167 68.9583 728.72 68.4205 729.091 67.7614C729.47 67.1023 729.659 66.4091 729.659 65.6818V63.2273C729.545 63.3636 729.295 63.4886 728.909 63.6023C728.53 63.7083 728.091 63.803 727.591 63.8864C727.098 63.9621 726.617 64.0303 726.148 64.0909C725.686 64.1439 725.311 64.1894 725.023 64.2273C724.326 64.3182 723.674 64.4659 723.068 64.6705C722.47 64.8674 721.985 65.1667 721.614 65.5682C721.25 65.9621 721.068 66.5 721.068 67.1818C721.068 68.1136 721.413 68.8182 722.102 69.2955C722.799 69.7652 723.682 70 724.75 70ZM744.327 72.3636C742.69 72.3636 741.281 71.9773 740.099 71.2045C738.918 70.4318 738.009 69.3674 737.372 68.0114C736.736 66.6553 736.418 65.1061 736.418 63.3636C736.418 61.5909 736.743 60.0265 737.395 58.6705C738.054 57.3068 738.971 56.2424 740.145 55.4773C741.327 54.7045 742.705 54.3182 744.281 54.3182C745.509 54.3182 746.615 54.5455 747.599 55C748.584 55.4545 749.391 56.0909 750.02 56.9091C750.649 57.7273 751.039 58.6818 751.19 59.7727H748.509C748.304 58.9773 747.849 58.2727 747.145 57.6591C746.448 57.0379 745.509 56.7273 744.327 56.7273C743.281 56.7273 742.365 57 741.577 57.5455C740.796 58.0833 740.187 58.8447 739.747 59.8295C739.315 60.8068 739.099 61.9545 739.099 63.2727C739.099 64.6212 739.312 65.7955 739.736 66.7955C740.168 67.7955 740.774 68.572 741.554 69.125C742.342 69.678 743.266 69.9545 744.327 69.9545C745.024 69.9545 745.656 69.8333 746.224 69.5909C746.793 69.3485 747.274 69 747.668 68.5455C748.062 68.0909 748.342 67.5455 748.509 66.9091H751.19C751.039 67.9394 750.664 68.8674 750.065 69.6932C749.474 70.5114 748.69 71.1629 747.713 71.6477C746.743 72.125 745.615 72.3636 744.327 72.3636ZM757.611 65.6364L757.565 62.3182H758.111L765.747 54.5455H769.065L760.929 62.7727H760.702L757.611 65.6364ZM755.111 72V48.7273H757.793V72H755.111ZM766.202 72L759.384 63.3636L761.293 61.5L769.611 72H766.202ZM779.116 72.3636C777.435 72.3636 775.984 71.9924 774.764 71.25C773.552 70.5 772.616 69.4545 771.957 68.1136C771.306 66.7652 770.98 65.197 770.98 63.4091C770.98 61.6212 771.306 60.0455 771.957 58.6818C772.616 57.3106 773.533 56.2424 774.707 55.4773C775.889 54.7045 777.268 54.3182 778.844 54.3182C779.753 54.3182 780.651 54.4697 781.537 54.7727C782.423 55.0758 783.23 55.5682 783.957 56.25C784.685 56.9242 785.264 57.8182 785.696 58.9318C786.128 60.0455 786.344 61.4167 786.344 63.0455V64.1818H772.889V61.8636H783.616C783.616 60.8788 783.42 60 783.026 59.2273C782.639 58.4545 782.086 57.8447 781.366 57.3977C780.654 56.9508 779.813 56.7273 778.844 56.7273C777.776 56.7273 776.851 56.9924 776.071 57.5227C775.298 58.0455 774.704 58.7273 774.287 59.5682C773.87 60.4091 773.662 61.3106 773.662 62.2727V63.8182C773.662 65.1364 773.889 66.2538 774.344 67.1705C774.806 68.0795 775.446 68.7727 776.264 69.25C777.082 69.7197 778.033 69.9545 779.116 69.9545C779.821 69.9545 780.457 69.8561 781.026 69.6591C781.601 69.4545 782.098 69.1515 782.514 68.75C782.931 68.3409 783.253 67.8333 783.48 67.2273L786.071 67.9545C785.798 68.8333 785.34 69.6061 784.696 70.2727C784.052 70.9318 783.257 71.447 782.31 71.8182C781.363 72.1818 780.298 72.3636 779.116 72.3636ZM790.423 72V54.5455H793.014V57.1818H793.196C793.514 56.3182 794.09 55.6174 794.923 55.0795C795.757 54.5417 796.696 54.2727 797.741 54.2727C797.938 54.2727 798.185 54.2765 798.48 54.2841C798.776 54.2917 798.999 54.303 799.151 54.3182V57.0455C799.06 57.0227 798.851 56.9886 798.526 56.9432C798.207 56.8902 797.87 56.8636 797.514 56.8636C796.666 56.8636 795.908 57.0417 795.241 57.3977C794.582 57.7462 794.06 58.2311 793.673 58.8523C793.295 59.4659 793.105 60.1667 793.105 60.9545V72H790.423ZM414.455 103.864V93.5455H417.136V111H414.455V108.045H414.273C413.864 108.932 413.227 109.686 412.364 110.307C411.5 110.92 410.409 111.227 409.091 111.227C408 111.227 407.03 110.989 406.182 110.511C405.333 110.027 404.667 109.299 404.182 108.33C403.697 107.352 403.455 106.121 403.455 104.636V93.5455H406.136V104.455C406.136 105.727 406.492 106.742 407.205 107.5C407.924 108.258 408.841 108.636 409.955 108.636C410.621 108.636 411.299 108.466 411.989 108.125C412.686 107.784 413.269 107.261 413.739 106.557C414.216 105.852 414.455 104.955 414.455 103.864ZM407.045 90.6364C406.568 90.6364 406.144 90.4545 405.773 90.0909C405.409 89.7197 405.227 89.2955 405.227 88.8182C405.227 88.2955 405.409 87.8636 405.773 87.5227C406.144 87.1742 406.568 87 407.045 87C407.568 87 408 87.1742 408.341 87.5227C408.689 87.8636 408.864 88.2955 408.864 88.8182C408.864 89.2955 408.689 89.7197 408.341 90.0909C408 90.4545 407.568 90.6364 407.045 90.6364ZM413.591 90.6364C413.114 90.6364 412.689 90.4545 412.318 90.0909C411.955 89.7197 411.773 89.2955 411.773 88.8182C411.773 88.2955 411.955 87.8636 412.318 87.5227C412.689 87.1742 413.114 87 413.591 87C414.114 87 414.545 87.1742 414.886 87.5227C415.235 87.8636 415.409 88.2955 415.409 88.8182C415.409 89.2955 415.235 89.7197 414.886 90.0909C414.545 90.4545 414.114 90.6364 413.591 90.6364ZM422.412 111V87.7273H425.094V96.3182H425.321C425.518 96.0152 425.791 95.6288 426.139 95.1591C426.495 94.6818 427.003 94.2576 427.662 93.8864C428.329 93.5076 429.23 93.3182 430.366 93.3182C431.836 93.3182 433.132 93.6856 434.253 94.4205C435.374 95.1553 436.249 96.197 436.878 97.5455C437.507 98.8939 437.821 100.485 437.821 102.318C437.821 104.167 437.507 105.769 436.878 107.125C436.249 108.473 435.378 109.519 434.264 110.261C433.151 110.996 431.866 111.364 430.412 111.364C429.291 111.364 428.393 111.178 427.719 110.807C427.045 110.428 426.526 110 426.162 109.523C425.798 109.038 425.518 108.636 425.321 108.318H425.003V111H422.412ZM425.048 102.273C425.048 103.591 425.241 104.754 425.628 105.761C426.014 106.761 426.579 107.545 427.321 108.114C428.063 108.674 428.973 108.955 430.048 108.955C431.17 108.955 432.105 108.659 432.855 108.068C433.613 107.47 434.181 106.667 434.56 105.659C434.946 104.644 435.139 103.515 435.139 102.273C435.139 101.045 434.95 99.9394 434.571 98.9545C434.2 97.9621 433.635 97.178 432.878 96.6023C432.128 96.0189 431.185 95.7273 430.048 95.7273C428.957 95.7273 428.041 96.0038 427.298 96.5568C426.556 97.1023 425.995 97.8674 425.616 98.8523C425.238 99.8295 425.048 100.97 425.048 102.273ZM449.241 111.364C447.56 111.364 446.109 110.992 444.889 110.25C443.677 109.5 442.741 108.455 442.082 107.114C441.431 105.765 441.105 104.197 441.105 102.409C441.105 100.621 441.431 99.0455 442.082 97.6818C442.741 96.3106 443.658 95.2424 444.832 94.4773C446.014 93.7045 447.393 93.3182 448.969 93.3182C449.878 93.3182 450.776 93.4697 451.662 93.7727C452.548 94.0758 453.355 94.5682 454.082 95.25C454.81 95.9242 455.389 96.8182 455.821 97.9318C456.253 99.0455 456.469 100.417 456.469 102.045V103.182H443.014V100.864H453.741C453.741 99.8788 453.545 99 453.151 98.2273C452.764 97.4545 452.211 96.8447 451.491 96.3977C450.779 95.9508 449.938 95.7273 448.969 95.7273C447.901 95.7273 446.976 95.9924 446.196 96.5227C445.423 97.0455 444.829 97.7273 444.412 98.5682C443.995 99.4091 443.787 100.311 443.787 101.273V102.818C443.787 104.136 444.014 105.254 444.469 106.17C444.931 107.08 445.571 107.773 446.389 108.25C447.207 108.72 448.158 108.955 449.241 108.955C449.946 108.955 450.582 108.856 451.151 108.659C451.726 108.455 452.223 108.152 452.639 107.75C453.056 107.341 453.378 106.833 453.605 106.227L456.196 106.955C455.923 107.833 455.465 108.606 454.821 109.273C454.177 109.932 453.382 110.447 452.435 110.818C451.488 111.182 450.423 111.364 449.241 111.364ZM460.548 111V93.5455H463.139V96.1818H463.321C463.639 95.3182 464.215 94.6174 465.048 94.0795C465.882 93.5417 466.821 93.2727 467.866 93.2727C468.063 93.2727 468.31 93.2765 468.605 93.2841C468.901 93.2917 469.124 93.303 469.276 93.3182V96.0455C469.185 96.0227 468.976 95.9886 468.651 95.9432C468.332 95.8902 467.995 95.8636 467.639 95.8636C466.791 95.8636 466.033 96.0417 465.366 96.3977C464.707 96.7462 464.185 97.2311 463.798 97.8523C463.42 98.4659 463.23 99.1667 463.23 99.9545V111H460.548ZM475.136 87.7273V111H472.455V87.7273H475.136ZM485.185 111.409C484.079 111.409 483.075 111.201 482.173 110.784C481.272 110.36 480.556 109.75 480.026 108.955C479.495 108.152 479.23 107.182 479.23 106.045C479.23 105.045 479.427 104.235 479.821 103.614C480.215 102.985 480.741 102.492 481.401 102.136C482.06 101.78 482.787 101.515 483.582 101.341C484.385 101.159 485.192 101.015 486.003 100.909C487.063 100.773 487.923 100.67 488.582 100.602C489.249 100.527 489.734 100.402 490.037 100.227C490.348 100.053 490.503 99.75 490.503 99.3182V99.2273C490.503 98.1061 490.196 97.2348 489.582 96.6136C488.976 95.9924 488.056 95.6818 486.821 95.6818C485.541 95.6818 484.537 95.9621 483.81 96.5227C483.082 97.0833 482.571 97.6818 482.276 98.3182L479.73 97.4091C480.185 96.3485 480.791 95.5227 481.548 94.9318C482.313 94.3333 483.147 93.9167 484.048 93.6818C484.957 93.4394 485.851 93.3182 486.73 93.3182C487.291 93.3182 487.935 93.3864 488.662 93.5227C489.397 93.6515 490.105 93.9205 490.787 94.3295C491.476 94.7386 492.048 95.3561 492.503 96.1818C492.957 97.0076 493.185 98.1136 493.185 99.5V111H490.503V108.636H490.366C490.185 109.015 489.882 109.42 489.457 109.852C489.033 110.284 488.469 110.652 487.764 110.955C487.06 111.258 486.2 111.409 485.185 111.409ZM485.594 109C486.654 109 487.548 108.792 488.276 108.375C489.01 107.958 489.563 107.42 489.935 106.761C490.313 106.102 490.503 105.409 490.503 104.682V102.227C490.389 102.364 490.139 102.489 489.753 102.602C489.374 102.708 488.935 102.803 488.435 102.886C487.942 102.962 487.461 103.03 486.991 103.091C486.529 103.144 486.154 103.189 485.866 103.227C485.17 103.318 484.518 103.466 483.912 103.67C483.313 103.867 482.829 104.167 482.457 104.568C482.094 104.962 481.912 105.5 481.912 106.182C481.912 107.114 482.257 107.818 482.946 108.295C483.643 108.765 484.526 109 485.594 109ZM510.443 97.4545L508.034 98.1364C507.883 97.7348 507.659 97.3447 507.364 96.9659C507.076 96.5795 506.682 96.2614 506.182 96.0114C505.682 95.7614 505.042 95.6364 504.261 95.6364C503.193 95.6364 502.303 95.8826 501.591 96.375C500.886 96.8598 500.534 97.4773 500.534 98.2273C500.534 98.8939 500.777 99.4205 501.261 99.8068C501.746 100.193 502.504 100.515 503.534 100.773L506.125 101.409C507.686 101.788 508.848 102.367 509.614 103.148C510.379 103.92 510.761 104.917 510.761 106.136C510.761 107.136 510.473 108.03 509.898 108.818C509.33 109.606 508.534 110.227 507.511 110.682C506.489 111.136 505.299 111.364 503.943 111.364C502.163 111.364 500.689 110.977 499.523 110.205C498.356 109.432 497.617 108.303 497.307 106.818L499.852 106.182C500.095 107.121 500.553 107.826 501.227 108.295C501.909 108.765 502.799 109 503.898 109C505.148 109 506.14 108.735 506.875 108.205C507.617 107.667 507.989 107.023 507.989 106.273C507.989 105.667 507.777 105.159 507.352 104.75C506.928 104.333 506.277 104.023 505.398 103.818L502.489 103.136C500.89 102.758 499.716 102.17 498.966 101.375C498.223 100.572 497.852 99.5682 497.852 98.3636C497.852 97.3788 498.129 96.5076 498.682 95.75C499.242 94.9924 500.004 94.3977 500.966 93.9659C501.936 93.5341 503.034 93.3182 504.261 93.3182C505.989 93.3182 507.345 93.697 508.33 94.4545C509.322 95.2121 510.027 96.2121 510.443 97.4545ZM527.162 97.4545L524.753 98.1364C524.601 97.7348 524.378 97.3447 524.082 96.9659C523.795 96.5795 523.401 96.2614 522.901 96.0114C522.401 95.7614 521.76 95.6364 520.98 95.6364C519.912 95.6364 519.022 95.8826 518.31 96.375C517.605 96.8598 517.253 97.4773 517.253 98.2273C517.253 98.8939 517.495 99.4205 517.98 99.8068C518.465 100.193 519.223 100.515 520.253 100.773L522.844 101.409C524.404 101.788 525.567 102.367 526.332 103.148C527.098 103.92 527.48 104.917 527.48 106.136C527.48 107.136 527.192 108.03 526.616 108.818C526.048 109.606 525.253 110.227 524.23 110.682C523.207 111.136 522.018 111.364 520.662 111.364C518.882 111.364 517.408 110.977 516.241 110.205C515.075 109.432 514.336 108.303 514.026 106.818L516.571 106.182C516.813 107.121 517.272 107.826 517.946 108.295C518.628 108.765 519.518 109 520.616 109C521.866 109 522.859 108.735 523.594 108.205C524.336 107.667 524.707 107.023 524.707 106.273C524.707 105.667 524.495 105.159 524.071 104.75C523.647 104.333 522.995 104.023 522.116 103.818L519.207 103.136C517.609 102.758 516.435 102.17 515.685 101.375C514.942 100.572 514.571 99.5682 514.571 98.3636C514.571 97.3788 514.848 96.5076 515.401 95.75C515.961 94.9924 516.723 94.3977 517.685 93.9659C518.654 93.5341 519.753 93.3182 520.98 93.3182C522.707 93.3182 524.063 93.697 525.048 94.4545C526.041 95.2121 526.745 96.2121 527.162 97.4545ZM538.835 111.364C537.153 111.364 535.703 110.992 534.483 110.25C533.271 109.5 532.335 108.455 531.676 107.114C531.025 105.765 530.699 104.197 530.699 102.409C530.699 100.621 531.025 99.0455 531.676 97.6818C532.335 96.3106 533.252 95.2424 534.426 94.4773C535.608 93.7045 536.987 93.3182 538.562 93.3182C539.472 93.3182 540.369 93.4697 541.256 93.7727C542.142 94.0758 542.949 94.5682 543.676 95.25C544.403 95.9242 544.983 96.8182 545.415 97.9318C545.847 99.0455 546.062 100.417 546.062 102.045V103.182H532.608V100.864H543.335C543.335 99.8788 543.138 99 542.744 98.2273C542.358 97.4545 541.805 96.8447 541.085 96.3977C540.373 95.9508 539.532 95.7273 538.562 95.7273C537.494 95.7273 536.57 95.9924 535.79 96.5227C535.017 97.0455 534.422 97.7273 534.006 98.5682C533.589 99.4091 533.381 100.311 533.381 101.273V102.818C533.381 104.136 533.608 105.254 534.062 106.17C534.525 107.08 535.165 107.773 535.983 108.25C536.801 108.72 537.752 108.955 538.835 108.955C539.54 108.955 540.176 108.856 540.744 108.659C541.32 108.455 541.816 108.152 542.233 107.75C542.65 107.341 542.972 106.833 543.199 106.227L545.79 106.955C545.517 107.833 545.059 108.606 544.415 109.273C543.771 109.932 542.975 110.447 542.028 110.818C541.081 111.182 540.017 111.364 538.835 111.364ZM552.824 100.5V111H550.142V93.5455H552.733V96.2727H552.96C553.369 95.3864 553.991 94.6742 554.824 94.1364C555.657 93.5909 556.733 93.3182 558.051 93.3182C559.233 93.3182 560.267 93.5606 561.153 94.0455C562.04 94.5227 562.729 95.25 563.222 96.2273C563.714 97.197 563.96 98.4242 563.96 99.9091V111H561.278V100.091C561.278 98.7197 560.922 97.6515 560.21 96.8864C559.498 96.1136 558.521 95.7273 557.278 95.7273C556.422 95.7273 555.657 95.9129 554.983 96.2841C554.316 96.6553 553.79 97.197 553.403 97.9091C553.017 98.6212 552.824 99.4848 552.824 100.5ZM581.815 111L576.497 93.5455H579.315L583.088 106.909H583.27L586.997 93.5455H589.861L593.543 106.864H593.724L597.497 93.5455H600.315L594.997 111H592.361L588.543 97.5909H588.27L584.452 111H581.815ZM603.861 111V93.5455H606.543V111H603.861ZM605.224 90.6364C604.702 90.6364 604.251 90.4583 603.872 90.1023C603.501 89.7462 603.315 89.3182 603.315 88.8182C603.315 88.3182 603.501 87.8902 603.872 87.5341C604.251 87.178 604.702 87 605.224 87C605.747 87 606.194 87.178 606.565 87.5341C606.944 87.8902 607.134 88.3182 607.134 88.8182C607.134 89.3182 606.944 89.7462 606.565 90.1023C606.194 90.4583 605.747 90.6364 605.224 90.6364ZM611.455 111V93.5455H614.045V96.1818H614.227C614.545 95.3182 615.121 94.6174 615.955 94.0795C616.788 93.5417 617.727 93.2727 618.773 93.2727C618.97 93.2727 619.216 93.2765 619.511 93.2841C619.807 93.2917 620.03 93.303 620.182 93.3182V96.0455C620.091 96.0227 619.883 95.9886 619.557 95.9432C619.239 95.8902 618.902 95.8636 618.545 95.8636C617.697 95.8636 616.939 96.0417 616.273 96.3977C615.614 96.7462 615.091 97.2311 614.705 97.8523C614.326 98.4659 614.136 99.1667 614.136 99.9545V111H611.455ZM637.497 111.409C636.391 111.409 635.387 111.201 634.486 110.784C633.584 110.36 632.868 109.75 632.338 108.955C631.808 108.152 631.543 107.182 631.543 106.045C631.543 105.045 631.74 104.235 632.134 103.614C632.527 102.985 633.054 102.492 633.713 102.136C634.372 101.78 635.099 101.515 635.895 101.341C636.698 101.159 637.505 101.015 638.315 100.909C639.376 100.773 640.236 100.67 640.895 100.602C641.562 100.527 642.046 100.402 642.349 100.227C642.66 100.053 642.815 99.75 642.815 99.3182V99.2273C642.815 98.1061 642.509 97.2348 641.895 96.6136C641.289 95.9924 640.368 95.6818 639.134 95.6818C637.853 95.6818 636.849 95.9621 636.122 96.5227C635.395 97.0833 634.884 97.6818 634.588 98.3182L632.043 97.4091C632.497 96.3485 633.103 95.5227 633.861 94.9318C634.626 94.3333 635.459 93.9167 636.361 93.6818C637.27 93.4394 638.164 93.3182 639.043 93.3182C639.603 93.3182 640.247 93.3864 640.974 93.5227C641.709 93.6515 642.418 93.9205 643.099 94.3295C643.789 94.7386 644.361 95.3561 644.815 96.1818C645.27 97.0076 645.497 98.1136 645.497 99.5V111H642.815V108.636H642.679C642.497 109.015 642.194 109.42 641.77 109.852C641.346 110.284 640.781 110.652 640.077 110.955C639.372 111.258 638.512 111.409 637.497 111.409ZM637.906 109C638.967 109 639.861 108.792 640.588 108.375C641.323 107.958 641.876 107.42 642.247 106.761C642.626 106.102 642.815 105.409 642.815 104.682V102.227C642.702 102.364 642.452 102.489 642.065 102.602C641.687 102.708 641.247 102.803 640.747 102.886C640.255 102.962 639.774 103.03 639.304 103.091C638.842 103.144 638.467 103.189 638.179 103.227C637.482 103.318 636.83 103.466 636.224 103.67C635.626 103.867 635.141 104.167 634.77 104.568C634.406 104.962 634.224 105.5 634.224 106.182C634.224 107.114 634.569 107.818 635.259 108.295C635.955 108.765 636.838 109 637.906 109ZM650.392 111V93.5455H652.983V96.2727H653.21C653.574 95.3409 654.161 94.6174 654.972 94.1023C655.782 93.5795 656.756 93.3182 657.892 93.3182C659.044 93.3182 660.002 93.5795 660.767 94.1023C661.54 94.6174 662.142 95.3409 662.574 96.2727H662.756C663.203 95.3712 663.873 94.6553 664.767 94.125C665.661 93.5871 666.733 93.3182 667.983 93.3182C669.544 93.3182 670.82 93.8068 671.812 94.7841C672.805 95.7538 673.301 97.2652 673.301 99.3182V111H670.619V99.3182C670.619 98.0303 670.267 97.1098 669.562 96.5568C668.858 96.0038 668.028 95.7273 667.074 95.7273C665.847 95.7273 664.896 96.0985 664.222 96.8409C663.547 97.5758 663.21 98.5076 663.21 99.6364V111H660.483V99.0455C660.483 98.053 660.161 97.2538 659.517 96.6477C658.873 96.0341 658.044 95.7273 657.028 95.7273C656.331 95.7273 655.68 95.9129 655.074 96.2841C654.475 96.6553 653.991 97.1705 653.619 97.8295C653.256 98.4811 653.074 99.2348 653.074 100.091V111H650.392ZM687.568 111V87.7273H690.25V96.3182H690.477C690.674 96.0152 690.947 95.6288 691.295 95.1591C691.652 94.6818 692.159 94.2576 692.818 93.8864C693.485 93.5076 694.386 93.3182 695.523 93.3182C696.992 93.3182 698.288 93.6856 699.409 94.4205C700.53 95.1553 701.405 96.197 702.034 97.5455C702.663 98.8939 702.977 100.485 702.977 102.318C702.977 104.167 702.663 105.769 702.034 107.125C701.405 108.473 700.534 109.519 699.42 110.261C698.307 110.996 697.023 111.364 695.568 111.364C694.447 111.364 693.549 111.178 692.875 110.807C692.201 110.428 691.682 110 691.318 109.523C690.955 109.038 690.674 108.636 690.477 108.318H690.159V111H687.568ZM690.205 102.273C690.205 103.591 690.398 104.754 690.784 105.761C691.17 106.761 691.735 107.545 692.477 108.114C693.22 108.674 694.129 108.955 695.205 108.955C696.326 108.955 697.261 108.659 698.011 108.068C698.769 107.47 699.337 106.667 699.716 105.659C700.102 104.644 700.295 103.515 700.295 102.273C700.295 101.045 700.106 99.9394 699.727 98.9545C699.356 97.9621 698.792 97.178 698.034 96.6023C697.284 96.0189 696.341 95.7273 695.205 95.7273C694.114 95.7273 693.197 96.0038 692.455 96.5568C691.712 97.1023 691.152 97.8674 690.773 98.8523C690.394 99.8295 690.205 100.97 690.205 102.273ZM714.398 111.364C712.716 111.364 711.265 110.992 710.045 110.25C708.833 109.5 707.898 108.455 707.239 107.114C706.587 105.765 706.261 104.197 706.261 102.409C706.261 100.621 706.587 99.0455 707.239 97.6818C707.898 96.3106 708.814 95.2424 709.989 94.4773C711.17 93.7045 712.549 93.3182 714.125 93.3182C715.034 93.3182 715.932 93.4697 716.818 93.7727C717.705 94.0758 718.511 94.5682 719.239 95.25C719.966 95.9242 720.545 96.8182 720.977 97.9318C721.409 99.0455 721.625 100.417 721.625 102.045V103.182H708.17V100.864H718.898C718.898 99.8788 718.701 99 718.307 98.2273C717.92 97.4545 717.367 96.8447 716.648 96.3977C715.936 95.9508 715.095 95.7273 714.125 95.7273C713.057 95.7273 712.133 95.9924 711.352 96.5227C710.58 97.0455 709.985 97.7273 709.568 98.5682C709.152 99.4091 708.943 100.311 708.943 101.273V102.818C708.943 104.136 709.17 105.254 709.625 106.17C710.087 107.08 710.727 107.773 711.545 108.25C712.364 108.72 713.314 108.955 714.398 108.955C715.102 108.955 715.739 108.856 716.307 108.659C716.883 108.455 717.379 108.152 717.795 107.75C718.212 107.341 718.534 106.833 718.761 106.227L721.352 106.955C721.08 107.833 720.621 108.606 719.977 109.273C719.333 109.932 718.538 110.447 717.591 110.818C716.644 111.182 715.58 111.364 714.398 111.364ZM738.068 97.4545L735.659 98.1364C735.508 97.7348 735.284 97.3447 734.989 96.9659C734.701 96.5795 734.307 96.2614 733.807 96.0114C733.307 95.7614 732.667 95.6364 731.886 95.6364C730.818 95.6364 729.928 95.8826 729.216 96.375C728.511 96.8598 728.159 97.4773 728.159 98.2273C728.159 98.8939 728.402 99.4205 728.886 99.8068C729.371 100.193 730.129 100.515 731.159 100.773L733.75 101.409C735.311 101.788 736.473 102.367 737.239 103.148C738.004 103.92 738.386 104.917 738.386 106.136C738.386 107.136 738.098 108.03 737.523 108.818C736.955 109.606 736.159 110.227 735.136 110.682C734.114 111.136 732.924 111.364 731.568 111.364C729.788 111.364 728.314 110.977 727.148 110.205C725.981 109.432 725.242 108.303 724.932 106.818L727.477 106.182C727.72 107.121 728.178 107.826 728.852 108.295C729.534 108.765 730.424 109 731.523 109C732.773 109 733.765 108.735 734.5 108.205C735.242 107.667 735.614 107.023 735.614 106.273C735.614 105.667 735.402 105.159 734.977 104.75C734.553 104.333 733.902 104.023 733.023 103.818L730.114 103.136C728.515 102.758 727.341 102.17 726.591 101.375C725.848 100.572 725.477 99.5682 725.477 98.3636C725.477 97.3788 725.754 96.5076 726.307 95.75C726.867 94.9924 727.629 94.3977 728.591 93.9659C729.561 93.5341 730.659 93.3182 731.886 93.3182C733.614 93.3182 734.97 93.697 735.955 94.4545C736.947 95.2121 737.652 96.2121 738.068 97.4545ZM750.014 93.5455V95.8182H740.969V93.5455H750.014ZM743.605 89.3636H746.287V106C746.287 106.758 746.397 107.326 746.616 107.705C746.844 108.076 747.132 108.326 747.48 108.455C747.836 108.576 748.211 108.636 748.605 108.636C748.901 108.636 749.143 108.621 749.332 108.591C749.522 108.553 749.673 108.523 749.787 108.5L750.332 110.909C750.151 110.977 749.897 111.045 749.571 111.114C749.245 111.189 748.832 111.227 748.332 111.227C747.575 111.227 746.832 111.064 746.105 110.739C745.385 110.413 744.787 109.917 744.31 109.25C743.84 108.583 743.605 107.742 743.605 106.727V89.3636ZM761.179 111.364C759.497 111.364 758.046 110.992 756.827 110.25C755.615 109.5 754.679 108.455 754.02 107.114C753.368 105.765 753.043 104.197 753.043 102.409C753.043 100.621 753.368 99.0455 754.02 97.6818C754.679 96.3106 755.596 95.2424 756.77 94.4773C757.952 93.7045 759.33 93.3182 760.906 93.3182C761.815 93.3182 762.713 93.4697 763.599 93.7727C764.486 94.0758 765.293 94.5682 766.02 95.25C766.747 95.9242 767.327 96.8182 767.759 97.9318C768.19 99.0455 768.406 100.417 768.406 102.045V103.182H754.952V100.864H765.679C765.679 99.8788 765.482 99 765.088 98.2273C764.702 97.4545 764.149 96.8447 763.429 96.3977C762.717 95.9508 761.876 95.7273 760.906 95.7273C759.838 95.7273 758.914 95.9924 758.134 96.5227C757.361 97.0455 756.766 97.7273 756.349 98.5682C755.933 99.4091 755.724 100.311 755.724 101.273V102.818C755.724 104.136 755.952 105.254 756.406 106.17C756.868 107.08 757.509 107.773 758.327 108.25C759.145 108.72 760.096 108.955 761.179 108.955C761.884 108.955 762.52 108.856 763.088 108.659C763.664 108.455 764.16 108.152 764.577 107.75C764.993 107.341 765.315 106.833 765.543 106.227L768.134 106.955C767.861 107.833 767.402 108.606 766.759 109.273C766.115 109.932 765.319 110.447 764.372 110.818C763.425 111.182 762.361 111.364 761.179 111.364ZM775.168 100.5V111H772.486V93.5455H775.077V96.2727H775.304C775.713 95.3864 776.334 94.6742 777.168 94.1364C778.001 93.5909 779.077 93.3182 780.395 93.3182C781.577 93.3182 782.611 93.5606 783.497 94.0455C784.384 94.5227 785.073 95.25 785.565 96.2273C786.058 97.197 786.304 98.4242 786.304 99.9091V111H783.622V100.091C783.622 98.7197 783.266 97.6515 782.554 96.8864C781.842 96.1136 780.865 95.7273 779.622 95.7273C778.766 95.7273 778.001 95.9129 777.327 96.2841C776.66 96.6553 776.134 97.197 775.747 97.9091C775.361 98.6212 775.168 99.4848 775.168 100.5ZM806.795 111.364C805.341 111.364 804.057 110.996 802.943 110.261C801.83 109.519 800.958 108.473 800.33 107.125C799.701 105.769 799.386 104.167 799.386 102.318C799.386 100.485 799.701 98.8939 800.33 97.5455C800.958 96.197 801.833 95.1553 802.955 94.4205C804.076 93.6856 805.371 93.3182 806.841 93.3182C807.977 93.3182 808.875 93.5076 809.534 93.8864C810.201 94.2576 810.708 94.6818 811.057 95.1591C811.413 95.6288 811.689 96.0152 811.886 96.3182H812.114V87.7273H814.795V111H812.205V108.318H811.886C811.689 108.636 811.409 109.038 811.045 109.523C810.682 110 810.163 110.428 809.489 110.807C808.814 111.178 807.917 111.364 806.795 111.364ZM807.159 108.955C808.235 108.955 809.144 108.674 809.886 108.114C810.629 107.545 811.193 106.761 811.58 105.761C811.966 104.754 812.159 103.591 812.159 102.273C812.159 100.97 811.97 99.8295 811.591 98.8523C811.212 97.8674 810.652 97.1023 809.909 96.5568C809.167 96.0038 808.25 95.7273 807.159 95.7273C806.023 95.7273 805.076 96.0189 804.318 96.6023C803.568 97.178 803.004 97.9621 802.625 98.9545C802.254 99.9394 802.068 101.045 802.068 102.273C802.068 103.515 802.258 104.644 802.636 105.659C803.023 106.667 803.591 107.47 804.341 108.068C805.098 108.659 806.038 108.955 807.159 108.955ZM827.398 111.364C825.716 111.364 824.265 110.992 823.045 110.25C821.833 109.5 820.898 108.455 820.239 107.114C819.587 105.765 819.261 104.197 819.261 102.409C819.261 100.621 819.587 99.0455 820.239 97.6818C820.898 96.3106 821.814 95.2424 822.989 94.4773C824.17 93.7045 825.549 93.3182 827.125 93.3182C828.034 93.3182 828.932 93.4697 829.818 93.7727C830.705 94.0758 831.511 94.5682 832.239 95.25C832.966 95.9242 833.545 96.8182 833.977 97.9318C834.409 99.0455 834.625 100.417 834.625 102.045V103.182H821.17V100.864H831.898C831.898 99.8788 831.701 99 831.307 98.2273C830.92 97.4545 830.367 96.8447 829.648 96.3977C828.936 95.9508 828.095 95.7273 827.125 95.7273C826.057 95.7273 825.133 95.9924 824.352 96.5227C823.58 97.0455 822.985 97.7273 822.568 98.5682C822.152 99.4091 821.943 100.311 821.943 101.273V102.818C821.943 104.136 822.17 105.254 822.625 106.17C823.087 107.08 823.727 107.773 824.545 108.25C825.364 108.72 826.314 108.955 827.398 108.955C828.102 108.955 828.739 108.856 829.307 108.659C829.883 108.455 830.379 108.152 830.795 107.75C831.212 107.341 831.534 106.833 831.761 106.227L834.352 106.955C834.08 107.833 833.621 108.606 832.977 109.273C832.333 109.932 831.538 110.447 830.591 110.818C829.644 111.182 828.58 111.364 827.398 111.364ZM841.386 100.5V111H838.705V93.5455H841.295V96.2727H841.523C841.932 95.3864 842.553 94.6742 843.386 94.1364C844.22 93.5909 845.295 93.3182 846.614 93.3182C847.795 93.3182 848.83 93.5606 849.716 94.0455C850.602 94.5227 851.292 95.25 851.784 96.2273C852.277 97.197 852.523 98.4242 852.523 99.9091V111H849.841V100.091C849.841 98.7197 849.485 97.6515 848.773 96.8864C848.061 96.1136 847.083 95.7273 845.841 95.7273C844.985 95.7273 844.22 95.9129 843.545 96.2841C842.879 96.6553 842.352 97.197 841.966 97.9091C841.58 98.6212 841.386 99.4848 841.386 100.5ZM403.818 150V126.727H417.864V129.227H406.636V137.091H417.136V139.591H406.636V147.5H418.045V150H403.818ZM424.58 132.545L428.761 139.682L432.943 132.545H436.034L430.398 141.273L436.034 150H432.943L428.761 143.227L424.58 150H421.489L427.034 141.273L421.489 132.545H424.58ZM439.861 156.545V132.545H442.452V135.318H442.77C442.967 135.015 443.24 134.629 443.588 134.159C443.944 133.682 444.452 133.258 445.111 132.886C445.777 132.508 446.679 132.318 447.815 132.318C449.285 132.318 450.58 132.686 451.702 133.42C452.823 134.155 453.698 135.197 454.327 136.545C454.955 137.894 455.27 139.485 455.27 141.318C455.27 143.167 454.955 144.769 454.327 146.125C453.698 147.473 452.827 148.519 451.713 149.261C450.599 149.996 449.315 150.364 447.861 150.364C446.74 150.364 445.842 150.178 445.168 149.807C444.493 149.428 443.974 149 443.611 148.523C443.247 148.038 442.967 147.636 442.77 147.318H442.543V156.545H439.861ZM442.497 141.273C442.497 142.591 442.69 143.754 443.077 144.761C443.463 145.761 444.027 146.545 444.77 147.114C445.512 147.674 446.421 147.955 447.497 147.955C448.618 147.955 449.554 147.659 450.304 147.068C451.062 146.47 451.63 145.667 452.009 144.659C452.395 143.644 452.588 142.515 452.588 141.273C452.588 140.045 452.399 138.939 452.02 137.955C451.649 136.962 451.084 136.178 450.327 135.602C449.577 135.019 448.634 134.727 447.497 134.727C446.406 134.727 445.49 135.004 444.747 135.557C444.005 136.102 443.444 136.867 443.065 137.852C442.687 138.83 442.497 139.97 442.497 141.273ZM466.679 150.364C464.997 150.364 463.546 149.992 462.327 149.25C461.115 148.5 460.179 147.455 459.52 146.114C458.868 144.765 458.543 143.197 458.543 141.409C458.543 139.621 458.868 138.045 459.52 136.682C460.179 135.311 461.096 134.242 462.27 133.477C463.452 132.705 464.83 132.318 466.406 132.318C467.315 132.318 468.213 132.47 469.099 132.773C469.986 133.076 470.793 133.568 471.52 134.25C472.247 134.924 472.827 135.818 473.259 136.932C473.69 138.045 473.906 139.417 473.906 141.045V142.182H460.452V139.864H471.179C471.179 138.879 470.982 138 470.588 137.227C470.202 136.455 469.649 135.845 468.929 135.398C468.217 134.951 467.376 134.727 466.406 134.727C465.338 134.727 464.414 134.992 463.634 135.523C462.861 136.045 462.266 136.727 461.849 137.568C461.433 138.409 461.224 139.311 461.224 140.273V141.818C461.224 143.136 461.452 144.254 461.906 145.17C462.368 146.08 463.009 146.773 463.827 147.25C464.645 147.72 465.596 147.955 466.679 147.955C467.384 147.955 468.02 147.856 468.588 147.659C469.164 147.455 469.66 147.152 470.077 146.75C470.493 146.341 470.815 145.833 471.043 145.227L473.634 145.955C473.361 146.833 472.902 147.606 472.259 148.273C471.615 148.932 470.819 149.447 469.872 149.818C468.925 150.182 467.861 150.364 466.679 150.364ZM477.986 150V132.545H480.577V135.182H480.759C481.077 134.318 481.652 133.617 482.486 133.08C483.319 132.542 484.259 132.273 485.304 132.273C485.501 132.273 485.747 132.277 486.043 132.284C486.338 132.292 486.562 132.303 486.713 132.318V135.045C486.622 135.023 486.414 134.989 486.088 134.943C485.77 134.89 485.433 134.864 485.077 134.864C484.228 134.864 483.471 135.042 482.804 135.398C482.145 135.746 481.622 136.231 481.236 136.852C480.857 137.466 480.668 138.167 480.668 138.955V150H477.986ZM498.577 132.545V134.818H489.531V132.545H498.577ZM492.168 128.364H494.849V145C494.849 145.758 494.959 146.326 495.179 146.705C495.406 147.076 495.694 147.326 496.043 147.455C496.399 147.576 496.774 147.636 497.168 147.636C497.463 147.636 497.705 147.621 497.895 147.591C498.084 147.553 498.236 147.523 498.349 147.5L498.895 149.909C498.713 149.977 498.459 150.045 498.134 150.114C497.808 150.189 497.395 150.227 496.895 150.227C496.137 150.227 495.395 150.064 494.668 149.739C493.948 149.413 493.349 148.917 492.872 148.25C492.402 147.583 492.168 146.742 492.168 145.727V128.364ZM509.741 150.364C508.06 150.364 506.609 149.992 505.389 149.25C504.177 148.5 503.241 147.455 502.582 146.114C501.931 144.765 501.605 143.197 501.605 141.409C501.605 139.621 501.931 138.045 502.582 136.682C503.241 135.311 504.158 134.242 505.332 133.477C506.514 132.705 507.893 132.318 509.469 132.318C510.378 132.318 511.276 132.47 512.162 132.773C513.048 133.076 513.855 133.568 514.582 134.25C515.31 134.924 515.889 135.818 516.321 136.932C516.753 138.045 516.969 139.417 516.969 141.045V142.182H503.514V139.864H514.241C514.241 138.879 514.045 138 513.651 137.227C513.264 136.455 512.711 135.845 511.991 135.398C511.279 134.951 510.438 134.727 509.469 134.727C508.401 134.727 507.476 134.992 506.696 135.523C505.923 136.045 505.329 136.727 504.912 137.568C504.495 138.409 504.287 139.311 504.287 140.273V141.818C504.287 143.136 504.514 144.254 504.969 145.17C505.431 146.08 506.071 146.773 506.889 147.25C507.707 147.72 508.658 147.955 509.741 147.955C510.446 147.955 511.082 147.856 511.651 147.659C512.226 147.455 512.723 147.152 513.139 146.75C513.556 146.341 513.878 145.833 514.105 145.227L516.696 145.955C516.423 146.833 515.965 147.606 515.321 148.273C514.677 148.932 513.882 149.447 512.935 149.818C511.988 150.182 510.923 150.364 509.741 150.364ZM523.73 139.5V150H521.048V132.545H523.639V135.273H523.866C524.276 134.386 524.897 133.674 525.73 133.136C526.563 132.591 527.639 132.318 528.957 132.318C530.139 132.318 531.173 132.561 532.06 133.045C532.946 133.523 533.635 134.25 534.128 135.227C534.62 136.197 534.866 137.424 534.866 138.909V150H532.185V139.091C532.185 137.72 531.829 136.652 531.116 135.886C530.404 135.114 529.427 134.727 528.185 134.727C527.329 134.727 526.563 134.913 525.889 135.284C525.223 135.655 524.696 136.197 524.31 136.909C523.923 137.621 523.73 138.485 523.73 139.5ZM559.767 142.864V132.545H562.449V150H559.767V147.045H559.585C559.176 147.932 558.54 148.686 557.676 149.307C556.813 149.92 555.722 150.227 554.403 150.227C553.312 150.227 552.343 149.989 551.494 149.511C550.646 149.027 549.979 148.299 549.494 147.33C549.009 146.352 548.767 145.121 548.767 143.636V132.545H551.449V143.455C551.449 144.727 551.805 145.742 552.517 146.5C553.237 147.258 554.153 147.636 555.267 147.636C555.934 147.636 556.612 147.466 557.301 147.125C557.998 146.784 558.581 146.261 559.051 145.557C559.528 144.852 559.767 143.955 559.767 142.864ZM570.043 139.5V150H567.361V132.545H569.952V135.273H570.179C570.588 134.386 571.209 133.674 572.043 133.136C572.876 132.591 573.952 132.318 575.27 132.318C576.452 132.318 577.486 132.561 578.372 133.045C579.259 133.523 579.948 134.25 580.44 135.227C580.933 136.197 581.179 137.424 581.179 138.909V150H578.497V139.091C578.497 137.72 578.141 136.652 577.429 135.886C576.717 135.114 575.74 134.727 574.497 134.727C573.641 134.727 572.876 134.913 572.202 135.284C571.535 135.655 571.009 136.197 570.622 136.909C570.236 137.621 570.043 138.485 570.043 139.5ZM592.67 150.364C591.216 150.364 589.932 149.996 588.818 149.261C587.705 148.519 586.833 147.473 586.205 146.125C585.576 144.769 585.261 143.167 585.261 141.318C585.261 139.485 585.576 137.894 586.205 136.545C586.833 135.197 587.708 134.155 588.83 133.42C589.951 132.686 591.246 132.318 592.716 132.318C593.852 132.318 594.75 132.508 595.409 132.886C596.076 133.258 596.583 133.682 596.932 134.159C597.288 134.629 597.564 135.015 597.761 135.318H597.989V126.727H600.67V150H598.08V147.318H597.761C597.564 147.636 597.284 148.038 596.92 148.523C596.557 149 596.038 149.428 595.364 149.807C594.689 150.178 593.792 150.364 592.67 150.364ZM593.034 147.955C594.11 147.955 595.019 147.674 595.761 147.114C596.504 146.545 597.068 145.761 597.455 144.761C597.841 143.754 598.034 142.591 598.034 141.273C598.034 139.97 597.845 138.83 597.466 137.852C597.087 136.867 596.527 136.102 595.784 135.557C595.042 135.004 594.125 134.727 593.034 134.727C591.898 134.727 590.951 135.019 590.193 135.602C589.443 136.178 588.879 136.962 588.5 137.955C588.129 138.939 587.943 140.045 587.943 141.273C587.943 142.515 588.133 143.644 588.511 144.659C588.898 145.667 589.466 146.47 590.216 147.068C590.973 147.659 591.913 147.955 593.034 147.955ZM627.318 136.455L624.909 137.136C624.758 136.735 624.534 136.345 624.239 135.966C623.951 135.58 623.557 135.261 623.057 135.011C622.557 134.761 621.917 134.636 621.136 134.636C620.068 134.636 619.178 134.883 618.466 135.375C617.761 135.86 617.409 136.477 617.409 137.227C617.409 137.894 617.652 138.42 618.136 138.807C618.621 139.193 619.379 139.515 620.409 139.773L623 140.409C624.561 140.788 625.723 141.367 626.489 142.148C627.254 142.92 627.636 143.917 627.636 145.136C627.636 146.136 627.348 147.03 626.773 147.818C626.205 148.606 625.409 149.227 624.386 149.682C623.364 150.136 622.174 150.364 620.818 150.364C619.038 150.364 617.564 149.977 616.398 149.205C615.231 148.432 614.492 147.303 614.182 145.818L616.727 145.182C616.97 146.121 617.428 146.826 618.102 147.295C618.784 147.765 619.674 148 620.773 148C622.023 148 623.015 147.735 623.75 147.205C624.492 146.667 624.864 146.023 624.864 145.273C624.864 144.667 624.652 144.159 624.227 143.75C623.803 143.333 623.152 143.023 622.273 142.818L619.364 142.136C617.765 141.758 616.591 141.17 615.841 140.375C615.098 139.572 614.727 138.568 614.727 137.364C614.727 136.379 615.004 135.508 615.557 134.75C616.117 133.992 616.879 133.398 617.841 132.966C618.811 132.534 619.909 132.318 621.136 132.318C622.864 132.318 624.22 132.697 625.205 133.455C626.197 134.212 626.902 135.212 627.318 136.455ZM638.764 150.364C637.128 150.364 635.719 149.977 634.537 149.205C633.355 148.432 632.446 147.367 631.81 146.011C631.173 144.655 630.855 143.106 630.855 141.364C630.855 139.591 631.181 138.027 631.832 136.67C632.491 135.307 633.408 134.242 634.582 133.477C635.764 132.705 637.143 132.318 638.719 132.318C639.946 132.318 641.052 132.545 642.037 133C643.022 133.455 643.829 134.091 644.457 134.909C645.086 135.727 645.476 136.682 645.628 137.773H642.946C642.741 136.977 642.287 136.273 641.582 135.659C640.885 135.038 639.946 134.727 638.764 134.727C637.719 134.727 636.802 135 636.014 135.545C635.234 136.083 634.624 136.845 634.185 137.83C633.753 138.807 633.537 139.955 633.537 141.273C633.537 142.621 633.749 143.795 634.173 144.795C634.605 145.795 635.211 146.572 635.991 147.125C636.779 147.678 637.704 147.955 638.764 147.955C639.461 147.955 640.094 147.833 640.662 147.591C641.23 147.348 641.711 147 642.105 146.545C642.499 146.091 642.779 145.545 642.946 144.909H645.628C645.476 145.939 645.101 146.867 644.503 147.693C643.912 148.511 643.128 149.163 642.151 149.648C641.181 150.125 640.052 150.364 638.764 150.364ZM652.23 139.5V150H649.548V126.727H652.23V135.273H652.457C652.866 134.371 653.48 133.655 654.298 133.125C655.124 132.587 656.223 132.318 657.594 132.318C658.783 132.318 659.825 132.557 660.719 133.034C661.613 133.504 662.306 134.227 662.798 135.205C663.298 136.174 663.548 137.409 663.548 138.909V150H660.866V139.091C660.866 137.705 660.507 136.633 659.787 135.875C659.075 135.11 658.086 134.727 656.821 134.727C655.942 134.727 655.154 134.913 654.457 135.284C653.768 135.655 653.223 136.197 652.821 136.909C652.427 137.621 652.23 138.485 652.23 139.5ZM673.591 150.409C672.485 150.409 671.481 150.201 670.58 149.784C669.678 149.36 668.962 148.75 668.432 147.955C667.902 147.152 667.636 146.182 667.636 145.045C667.636 144.045 667.833 143.235 668.227 142.614C668.621 141.985 669.148 141.492 669.807 141.136C670.466 140.78 671.193 140.515 671.989 140.341C672.792 140.159 673.598 140.015 674.409 139.909C675.47 139.773 676.33 139.67 676.989 139.602C677.655 139.527 678.14 139.402 678.443 139.227C678.754 139.053 678.909 138.75 678.909 138.318V138.227C678.909 137.106 678.602 136.235 677.989 135.614C677.383 134.992 676.462 134.682 675.227 134.682C673.947 134.682 672.943 134.962 672.216 135.523C671.489 136.083 670.977 136.682 670.682 137.318L668.136 136.409C668.591 135.348 669.197 134.523 669.955 133.932C670.72 133.333 671.553 132.917 672.455 132.682C673.364 132.439 674.258 132.318 675.136 132.318C675.697 132.318 676.341 132.386 677.068 132.523C677.803 132.652 678.511 132.92 679.193 133.33C679.883 133.739 680.455 134.356 680.909 135.182C681.364 136.008 681.591 137.114 681.591 138.5V150H678.909V147.636H678.773C678.591 148.015 678.288 148.42 677.864 148.852C677.439 149.284 676.875 149.652 676.17 149.955C675.466 150.258 674.606 150.409 673.591 150.409ZM674 148C675.061 148 675.955 147.792 676.682 147.375C677.417 146.958 677.97 146.42 678.341 145.761C678.72 145.102 678.909 144.409 678.909 143.682V141.227C678.795 141.364 678.545 141.489 678.159 141.602C677.78 141.708 677.341 141.803 676.841 141.886C676.348 141.962 675.867 142.03 675.398 142.091C674.936 142.144 674.561 142.189 674.273 142.227C673.576 142.318 672.924 142.466 672.318 142.67C671.72 142.867 671.235 143.167 670.864 143.568C670.5 143.962 670.318 144.5 670.318 145.182C670.318 146.114 670.663 146.818 671.352 147.295C672.049 147.765 672.932 148 674 148ZM689.168 126.727V150H686.486V126.727H689.168ZM701.67 132.545V134.818H692.625V132.545H701.67ZM695.261 128.364H697.943V145C697.943 145.758 698.053 146.326 698.273 146.705C698.5 147.076 698.788 147.326 699.136 147.455C699.492 147.576 699.867 147.636 700.261 147.636C700.557 147.636 700.799 147.621 700.989 147.591C701.178 147.553 701.33 147.523 701.443 147.5L701.989 149.909C701.807 149.977 701.553 150.045 701.227 150.114C700.902 150.189 700.489 150.227 699.989 150.227C699.231 150.227 698.489 150.064 697.761 149.739C697.042 149.413 696.443 148.917 695.966 148.25C695.496 147.583 695.261 146.742 695.261 145.727V128.364ZM712.835 150.364C711.153 150.364 709.703 149.992 708.483 149.25C707.271 148.5 706.335 147.455 705.676 146.114C705.025 144.765 704.699 143.197 704.699 141.409C704.699 139.621 705.025 138.045 705.676 136.682C706.335 135.311 707.252 134.242 708.426 133.477C709.608 132.705 710.987 132.318 712.562 132.318C713.472 132.318 714.369 132.47 715.256 132.773C716.142 133.076 716.949 133.568 717.676 134.25C718.403 134.924 718.983 135.818 719.415 136.932C719.847 138.045 720.062 139.417 720.062 141.045V142.182H706.608V139.864H717.335C717.335 138.879 717.138 138 716.744 137.227C716.358 136.455 715.805 135.845 715.085 135.398C714.373 134.951 713.532 134.727 712.562 134.727C711.494 134.727 710.57 134.992 709.79 135.523C709.017 136.045 708.422 136.727 708.006 137.568C707.589 138.409 707.381 139.311 707.381 140.273V141.818C707.381 143.136 707.608 144.254 708.062 145.17C708.525 146.08 709.165 146.773 709.983 147.25C710.801 147.72 711.752 147.955 712.835 147.955C713.54 147.955 714.176 147.856 714.744 147.659C715.32 147.455 715.816 147.152 716.233 146.75C716.65 146.341 716.972 145.833 717.199 145.227L719.79 145.955C719.517 146.833 719.059 147.606 718.415 148.273C717.771 148.932 716.975 149.447 716.028 149.818C715.081 150.182 714.017 150.364 712.835 150.364ZM726.824 139.5V150H724.142V132.545H726.733V135.273H726.96C727.369 134.386 727.991 133.674 728.824 133.136C729.657 132.591 730.733 132.318 732.051 132.318C733.233 132.318 734.267 132.561 735.153 133.045C736.04 133.523 736.729 134.25 737.222 135.227C737.714 136.197 737.96 137.424 737.96 138.909V150H735.278V139.091C735.278 137.72 734.922 136.652 734.21 135.886C733.498 135.114 732.521 134.727 731.278 134.727C730.422 134.727 729.657 134.913 728.983 135.284C728.316 135.655 727.79 136.197 727.403 136.909C727.017 137.621 726.824 138.485 726.824 139.5ZM758.452 150.364C756.997 150.364 755.713 149.996 754.599 149.261C753.486 148.519 752.615 147.473 751.986 146.125C751.357 144.769 751.043 143.167 751.043 141.318C751.043 139.485 751.357 137.894 751.986 136.545C752.615 135.197 753.49 134.155 754.611 133.42C755.732 132.686 757.027 132.318 758.497 132.318C759.634 132.318 760.531 132.508 761.19 132.886C761.857 133.258 762.365 133.682 762.713 134.159C763.069 134.629 763.346 135.015 763.543 135.318H763.77V126.727H766.452V150H763.861V147.318H763.543C763.346 147.636 763.065 148.038 762.702 148.523C762.338 149 761.819 149.428 761.145 149.807C760.471 150.178 759.573 150.364 758.452 150.364ZM758.815 147.955C759.891 147.955 760.8 147.674 761.543 147.114C762.285 146.545 762.849 145.761 763.236 144.761C763.622 143.754 763.815 142.591 763.815 141.273C763.815 139.97 763.626 138.83 763.247 137.852C762.868 136.867 762.308 136.102 761.565 135.557C760.823 135.004 759.906 134.727 758.815 134.727C757.679 134.727 756.732 135.019 755.974 135.602C755.224 136.178 754.66 136.962 754.281 137.955C753.91 138.939 753.724 140.045 753.724 141.273C753.724 142.515 753.914 143.644 754.293 144.659C754.679 145.667 755.247 146.47 755.997 147.068C756.755 147.659 757.694 147.955 758.815 147.955ZM771.736 150V132.545H774.418V150H771.736ZM773.099 129.636C772.577 129.636 772.126 129.458 771.747 129.102C771.376 128.746 771.19 128.318 771.19 127.818C771.19 127.318 771.376 126.89 771.747 126.534C772.126 126.178 772.577 126 773.099 126C773.622 126 774.069 126.178 774.44 126.534C774.819 126.89 775.009 127.318 775.009 127.818C775.009 128.318 774.819 128.746 774.44 129.102C774.069 129.458 773.622 129.636 773.099 129.636ZM786.648 150.364C784.966 150.364 783.515 149.992 782.295 149.25C781.083 148.5 780.148 147.455 779.489 146.114C778.837 144.765 778.511 143.197 778.511 141.409C778.511 139.621 778.837 138.045 779.489 136.682C780.148 135.311 781.064 134.242 782.239 133.477C783.42 132.705 784.799 132.318 786.375 132.318C787.284 132.318 788.182 132.47 789.068 132.773C789.955 133.076 790.761 133.568 791.489 134.25C792.216 134.924 792.795 135.818 793.227 136.932C793.659 138.045 793.875 139.417 793.875 141.045V142.182H780.42V139.864H791.148C791.148 138.879 790.951 138 790.557 137.227C790.17 136.455 789.617 135.845 788.898 135.398C788.186 134.951 787.345 134.727 786.375 134.727C785.307 134.727 784.383 134.992 783.602 135.523C782.83 136.045 782.235 136.727 781.818 137.568C781.402 138.409 781.193 139.311 781.193 140.273V141.818C781.193 143.136 781.42 144.254 781.875 145.17C782.337 146.08 782.977 146.773 783.795 147.25C784.614 147.72 785.564 147.955 786.648 147.955C787.352 147.955 787.989 147.856 788.557 147.659C789.133 147.455 789.629 147.152 790.045 146.75C790.462 146.341 790.784 145.833 791.011 145.227L793.602 145.955C793.33 146.833 792.871 147.606 792.227 148.273C791.583 148.932 790.788 149.447 789.841 149.818C788.894 150.182 787.83 150.364 786.648 150.364ZM403.818 189V165.727H411.682C413.508 165.727 415 166.057 416.159 166.716C417.326 167.367 418.189 168.25 418.75 169.364C419.311 170.477 419.591 171.72 419.591 173.091C419.591 174.462 419.311 175.708 418.75 176.83C418.197 177.951 417.341 178.845 416.182 179.511C415.023 180.17 413.538 180.5 411.727 180.5H406.091V178H411.636C412.886 178 413.89 177.784 414.648 177.352C415.405 176.92 415.955 176.337 416.295 175.602C416.644 174.86 416.818 174.023 416.818 173.091C416.818 172.159 416.644 171.326 416.295 170.591C415.955 169.856 415.402 169.28 414.636 168.864C413.871 168.439 412.856 168.227 411.591 168.227H406.636V189H403.818ZM430.67 189.364C429.095 189.364 427.712 188.989 426.523 188.239C425.341 187.489 424.417 186.439 423.75 185.091C423.091 183.742 422.761 182.167 422.761 180.364C422.761 178.545 423.091 176.958 423.75 175.602C424.417 174.246 425.341 173.193 426.523 172.443C427.712 171.693 429.095 171.318 430.67 171.318C432.246 171.318 433.625 171.693 434.807 172.443C435.996 173.193 436.92 174.246 437.58 175.602C438.246 176.958 438.58 178.545 438.58 180.364C438.58 182.167 438.246 183.742 437.58 185.091C436.92 186.439 435.996 187.489 434.807 188.239C433.625 188.989 432.246 189.364 430.67 189.364ZM430.67 186.955C431.867 186.955 432.852 186.648 433.625 186.034C434.398 185.42 434.97 184.614 435.341 183.614C435.712 182.614 435.898 181.53 435.898 180.364C435.898 179.197 435.712 178.11 435.341 177.102C434.97 176.095 434.398 175.28 433.625 174.659C432.852 174.038 431.867 173.727 430.67 173.727C429.473 173.727 428.489 174.038 427.716 174.659C426.943 175.28 426.371 176.095 426 177.102C425.629 178.11 425.443 179.197 425.443 180.364C425.443 181.53 425.629 182.614 426 183.614C426.371 184.614 426.943 185.42 427.716 186.034C428.489 186.648 429.473 186.955 430.67 186.955ZM445.355 165.727V189H442.673V165.727H445.355ZM450.267 189V171.545H452.949V189H450.267ZM451.631 168.636C451.108 168.636 450.657 168.458 450.278 168.102C449.907 167.746 449.722 167.318 449.722 166.818C449.722 166.318 449.907 165.89 450.278 165.534C450.657 165.178 451.108 165 451.631 165C452.153 165 452.6 165.178 452.972 165.534C453.35 165.89 453.54 166.318 453.54 166.818C453.54 167.318 453.35 167.746 452.972 168.102C452.6 168.458 452.153 168.636 451.631 168.636ZM457.361 189V186.955L467.27 174.227V174.045H457.679V171.545H470.724V173.682L461.088 186.318V186.5H471.043V189H457.361ZM481.991 189.364C480.31 189.364 478.859 188.992 477.639 188.25C476.427 187.5 475.491 186.455 474.832 185.114C474.181 183.765 473.855 182.197 473.855 180.409C473.855 178.621 474.181 177.045 474.832 175.682C475.491 174.311 476.408 173.242 477.582 172.477C478.764 171.705 480.143 171.318 481.719 171.318C482.628 171.318 483.526 171.47 484.412 171.773C485.298 172.076 486.105 172.568 486.832 173.25C487.56 173.924 488.139 174.818 488.571 175.932C489.003 177.045 489.219 178.417 489.219 180.045V181.182H475.764V178.864H486.491C486.491 177.879 486.295 177 485.901 176.227C485.514 175.455 484.961 174.845 484.241 174.398C483.529 173.951 482.688 173.727 481.719 173.727C480.651 173.727 479.726 173.992 478.946 174.523C478.173 175.045 477.579 175.727 477.162 176.568C476.745 177.409 476.537 178.311 476.537 179.273V180.818C476.537 182.136 476.764 183.254 477.219 184.17C477.681 185.08 478.321 185.773 479.139 186.25C479.957 186.72 480.908 186.955 481.991 186.955C482.696 186.955 483.332 186.856 483.901 186.659C484.476 186.455 484.973 186.152 485.389 185.75C485.806 185.341 486.128 184.833 486.355 184.227L488.946 184.955C488.673 185.833 488.215 186.606 487.571 187.273C486.927 187.932 486.132 188.447 485.185 188.818C484.238 189.182 483.173 189.364 481.991 189.364ZM493.298 189V171.545H495.98V189H493.298ZM494.662 168.636C494.139 168.636 493.688 168.458 493.31 168.102C492.938 167.746 492.753 167.318 492.753 166.818C492.753 166.318 492.938 165.89 493.31 165.534C493.688 165.178 494.139 165 494.662 165C495.185 165 495.632 165.178 496.003 165.534C496.382 165.89 496.571 166.318 496.571 166.818C496.571 167.318 496.382 167.746 496.003 168.102C495.632 168.458 495.185 168.636 494.662 168.636ZM517.21 189.364C515.528 189.364 514.078 188.992 512.858 188.25C511.646 187.5 510.71 186.455 510.051 185.114C509.4 183.765 509.074 182.197 509.074 180.409C509.074 178.621 509.4 177.045 510.051 175.682C510.71 174.311 511.627 173.242 512.801 172.477C513.983 171.705 515.362 171.318 516.938 171.318C517.847 171.318 518.744 171.47 519.631 171.773C520.517 172.076 521.324 172.568 522.051 173.25C522.778 173.924 523.358 174.818 523.79 175.932C524.222 177.045 524.438 178.417 524.438 180.045V181.182H510.983V178.864H521.71C521.71 177.879 521.513 177 521.119 176.227C520.733 175.455 520.18 174.845 519.46 174.398C518.748 173.951 517.907 173.727 516.938 173.727C515.869 173.727 514.945 173.992 514.165 174.523C513.392 175.045 512.797 175.727 512.381 176.568C511.964 177.409 511.756 178.311 511.756 179.273V180.818C511.756 182.136 511.983 183.254 512.438 184.17C512.9 185.08 513.54 185.773 514.358 186.25C515.176 186.72 516.127 186.955 517.21 186.955C517.915 186.955 518.551 186.856 519.119 186.659C519.695 186.455 520.191 186.152 520.608 185.75C521.025 185.341 521.347 184.833 521.574 184.227L524.165 184.955C523.892 185.833 523.434 186.606 522.79 187.273C522.146 187.932 521.35 188.447 520.403 188.818C519.456 189.182 518.392 189.364 517.21 189.364ZM528.517 189V171.545H531.199V189H528.517ZM529.881 168.636C529.358 168.636 528.907 168.458 528.528 168.102C528.157 167.746 527.972 167.318 527.972 166.818C527.972 166.318 528.157 165.89 528.528 165.534C528.907 165.178 529.358 165 529.881 165C530.403 165 530.85 165.178 531.222 165.534C531.6 165.89 531.79 166.318 531.79 166.818C531.79 167.318 531.6 167.746 531.222 168.102C530.85 168.458 530.403 168.636 529.881 168.636ZM538.793 178.5V189H536.111V171.545H538.702V174.273H538.929C539.338 173.386 539.959 172.674 540.793 172.136C541.626 171.591 542.702 171.318 544.02 171.318C545.202 171.318 546.236 171.561 547.122 172.045C548.009 172.523 548.698 173.25 549.19 174.227C549.683 175.197 549.929 176.424 549.929 177.909V189H547.247V178.091C547.247 176.72 546.891 175.652 546.179 174.886C545.467 174.114 544.49 173.727 543.247 173.727C542.391 173.727 541.626 173.913 540.952 174.284C540.285 174.655 539.759 175.197 539.372 175.909C538.986 176.621 538.793 177.485 538.793 178.5ZM556.784 189.182C556.223 189.182 555.742 188.981 555.341 188.58C554.939 188.178 554.739 187.697 554.739 187.136C554.739 186.576 554.939 186.095 555.341 185.693C555.742 185.292 556.223 185.091 556.784 185.091C557.345 185.091 557.826 185.292 558.227 185.693C558.629 186.095 558.83 186.576 558.83 187.136C558.83 187.508 558.735 187.848 558.545 188.159C558.364 188.47 558.117 188.72 557.807 188.909C557.504 189.091 557.163 189.182 556.784 189.182Z" fill="black"/>
<path d="M332.114 673.424C336.146 674.264 340.97 676.113 341.444 680.482C341.998 685.356 336.383 688.213 331.876 689.222C314.874 693.171 297.318 693.675 279.842 694.18C187.479 696.532 95.115 696.953 2.74977 695.356C4.09374 683.34 17.5396 678.129 28.6894 675.86C76.6111 666.113 126.193 671.659 173.244 661.323C222.827 650.315 283.164 662.752 332.114 673.424Z" fill="url(#paint0_linear_458_2644)"/>
<path d="M332.114 673.424C336.146 674.264 340.97 676.113 341.444 680.482C341.998 685.356 336.383 688.213 331.876 689.222C314.874 693.171 297.318 693.675 279.842 694.18C187.479 696.532 95.115 696.953 2.74977 695.356C4.09374 683.34 17.5396 678.129 28.6894 675.86C76.6111 666.113 126.193 671.659 173.244 661.323C222.827 650.315 283.164 662.752 332.114 673.424Z" fill="url(#paint1_linear_458_2644)"/>
<path d="M80.5703 594.265C79.5423 593.929 78.435 594.265 77.407 594.602C72.8993 596.198 68.4708 598.299 64.5172 601.072C62.5399 602.417 60.5631 603.929 59.6143 606.198C58.7442 608.299 58.8234 610.652 58.9814 612.837C60.4051 639.895 61.7495 667.037 63.1727 694.096C63.2519 695.86 63.4892 697.793 64.7544 698.886C66.336 700.146 68.55 699.306 70.2896 698.465C87.2916 690.566 104.214 682.583 121.216 674.684C129.361 670.903 137.744 666.869 143.754 659.894C139.167 649.138 129.519 641.996 120.663 634.769C106.903 623.508 94.2505 610.568 83.1003 596.45C82.4674 595.61 81.6771 594.601 80.5703 594.265Z" fill="#DDC199"/>
<path d="M0.46262 454.855C4.65487 453.847 8.92729 452.838 13.1167 451.83C37.7892 499.98 59.6148 549.812 78.4355 600.904C74.0863 603.845 68.3138 606.87 64.1225 603.677C62.3829 602.332 61.3544 600.147 60.4056 598.047C39.0544 550.988 19.0476 503.258 0.46262 454.855Z" fill="#BDB39B"/>
<g opacity="0.26">
<path opacity="0.26" d="M78.2095 689.137C78.2887 690.062 76.9443 690.398 76.7864 689.474C73.3859 662.163 68.5627 635.357 62.3153 608.634C61.9201 606.954 64.3714 606.449 64.7665 608.13C71.2511 634.6 75.7583 661.827 78.2095 689.137Z" fill="#272525"/>
<path opacity="0.26" d="M105.004 677.121C94.5663 653.76 83.4953 630.735 71.7914 608.046C71.0798 606.701 73.1359 605.609 73.8475 606.954C86.0258 629.811 97.0175 653.34 107.061 677.289C106.903 677.457 106.824 677.625 106.745 677.793C106.191 677.373 105.637 677.205 105.004 677.121Z" fill="#272525"/>
<path opacity="0.26" d="M122.018 661.742C104.542 644.263 88.9631 624.852 75.3617 603.843C74.4916 602.415 76.7061 601.238 77.5762 602.667C90.9404 623.591 106.281 642.919 123.441 660.397C124.311 661.321 122.888 662.666 122.018 661.742Z" fill="#272525"/>
</g>
<path d="M243.236 618.214C243.156 616.954 242.998 615.609 242.92 614.348C253.358 606.785 271.704 609.222 282.775 613.088C294.637 617.205 294.637 624.936 294.479 638.045C294.4 645.44 293.767 653.76 288.39 658.549C284.278 662.247 278.505 662.751 273.127 663.087C268.304 663.423 263.559 663.675 258.735 664.011C255.414 664.179 251.697 664.263 249.088 661.994C246.478 659.642 246.083 655.692 245.766 652.078C244.897 640.734 244.026 629.474 243.236 618.214Z" fill="#2F3F47"/>
<path d="M230.494 618.214C230.573 616.954 230.731 615.609 230.811 614.348C220.372 606.785 202.026 609.222 190.955 613.088C179.093 617.205 179.093 624.936 179.251 638.045C179.33 645.44 179.963 653.76 185.341 658.549C189.453 662.247 195.225 662.751 200.603 663.087C205.426 663.423 210.171 663.675 214.995 664.011C218.316 664.179 222.033 664.263 224.642 661.994C227.252 659.642 227.647 655.692 227.963 652.078C228.754 640.734 229.624 629.474 230.494 618.214Z" fill="#2F3F47"/>
<path d="M319.553 590.148C322.163 590.735 324.693 591.576 327.145 592.668C328.964 593.424 330.782 594.433 332.048 595.945C333.787 598.13 334.262 601.156 334.578 604.097C334.973 607.963 335.132 611.828 335.052 615.693C335.052 618.97 334.815 622.332 333.233 625.105C331.019 628.971 326.67 630.735 322.558 631.827C314.729 633.929 306.584 634.432 298.518 634.853C249.727 637.374 200.777 635.692 152.223 629.895C150.246 629.643 148.032 629.307 146.688 627.71C145.897 626.786 145.501 625.525 145.106 624.348C142.576 615.777 140.915 604.097 146.371 596.114C151.036 589.307 159.656 593.172 166.14 593.088C172.783 593.004 179.505 592.416 186.148 592.164C199.117 591.576 212.085 590.987 225.054 590.567C243.321 589.895 261.667 589.307 279.935 588.803C292.271 588.551 306.821 587.122 319.553 590.148Z" fill="#516770"/>
<path d="M214.691 405.695C181.557 405.863 148.502 406.62 115.368 407.376C116.159 388.637 117.424 369.897 121.22 351.578C127.784 319.478 142.808 288.134 168.193 269.395C207.099 240.656 268.859 244.437 310.771 272.84C328.406 284.772 342.56 301.159 349.994 321.242C358.534 344.183 360.828 369.225 362.172 393.847C362.331 397.124 362.489 400.317 362.646 403.594C313.46 401.577 263.957 405.527 214.691 405.695Z" fill="#EAF1F2"/>
<path d="M217.343 415.108C265.897 415.024 314.61 411.327 363.164 413.175C365.536 469.141 363.322 525.359 356.521 580.989C355.572 588.636 354.386 596.618 349.641 602.668C342.287 611.996 329.555 607.878 319.67 607.878C302.985 607.878 285.825 608.635 268.981 609.055C237.191 609.811 205.639 609.895 174.008 606.114C158.983 604.35 128.617 609.223 121.421 594.853C115.49 583.173 117.941 559.476 117.071 546.451C116.043 530.989 115.252 515.611 114.778 500.149C113.908 472.334 114.066 444.519 115.095 416.62C149.098 415.948 183.26 415.108 217.343 415.108Z" fill="#E2ECED"/>
<path d="M102.671 505.696C102.038 505.107 101.959 504.099 101.88 503.259C100.22 479.982 98.7963 456.704 97.7683 433.427C97.6891 431.41 97.6891 429.058 99.1915 427.713C100.299 426.789 101.722 426.705 103.146 426.705C108.049 426.621 112.872 426.537 117.775 426.537C120.859 453.007 122.124 479.645 121.492 506.284C116.035 506.284 110.658 506.368 105.202 506.368C104.332 506.368 103.383 506.368 102.671 505.696Z" fill="#2F3F47"/>
<path d="M77.4635 559.309C76.8312 557.377 76.1191 555.36 74.6959 553.931C73.5886 552.839 72.0867 552.167 70.6631 551.662C64.4949 549.309 58.1688 547.545 51.763 546.368C46.7814 549.982 42.2737 554.268 38.3988 559.225C37.6872 560.15 36.9756 561.158 36.8172 562.335C36.6592 563.259 36.8964 564.183 37.1336 565.108C39.664 575.444 42.1157 585.78 44.6461 596.116C48.3626 596.62 52.0795 596.704 55.7171 596.2C54.294 589.897 52.8703 583.595 51.5258 577.376C50.1814 571.41 49.1534 564.099 53.4235 559.898C57.7727 561.074 62.0432 562.335 66.3925 563.511C67.1041 563.679 67.8954 563.931 68.5278 564.435C69.2394 565.108 69.5558 566.116 69.8722 567.04C71.6911 572.923 73.0355 578.973 73.9843 585.108C76.7519 584.267 79.5196 583.51 82.2872 582.67C82.5249 574.687 79.9945 566.873 77.4635 559.309Z" fill="#2F3F47"/>
<path d="M43.8579 550.234C43.6207 549.982 43.5419 549.647 43.4627 549.394C42.6719 545.613 41.8811 541.831 41.011 538.133C46.5468 536.789 52.24 535.864 57.8545 535.36C58.7246 538.47 59.2782 541.747 59.5154 545.024C59.5946 545.697 59.5946 546.537 59.1202 547.041C58.8038 547.377 58.4082 547.461 58.013 547.63C53.8217 548.974 49.4724 549.982 45.0439 550.57C44.7275 550.486 44.2535 550.571 43.8579 550.234Z" fill="#516770"/>
<path d="M38.3131 535.53C34.9919 529.563 37.6803 513.849 37.6803 507.547C37.7595 498.891 37.7595 490.152 39.6575 481.749C41.5551 473.345 45.4305 465.11 51.8358 459.816C55.4735 456.791 59.7435 454.859 64.172 453.262C77.3783 448.472 91.5329 446.876 105.372 448.64C106.479 448.808 107.665 448.976 108.456 449.817C109.326 450.657 109.484 452.001 109.642 453.262C110.275 458.052 111.144 463.346 110.907 468.219C110.512 476.791 112.172 474.438 106.32 476.875C101.813 478.724 93.3518 477.211 88.2117 478.472C82.2015 479.9 76.3498 482.085 70.4981 484.27C66.7817 485.614 62.8276 487.295 60.9295 490.908C59.9015 492.841 59.5851 495.194 59.3479 497.463C57.9247 510.909 57.2918 524.437 57.3711 537.967C57.3711 540.319 41.0812 539.143 38.946 536.538C38.7088 536.202 38.5503 535.866 38.3131 535.53Z" fill="#E2ECED"/>
<g opacity="0.15">
<path opacity="0.15" d="M65.9978 457.128C66.4722 465.195 68.449 472.506 71.4538 479.901C72.0075 481.329 70.3471 482.422 69.477 481.162C64.7326 474.103 62.2809 465.699 61.4109 457.128C61.0944 454.103 65.7601 454.018 65.9978 457.128Z" fill="#272525"/>
<path opacity="0.15" d="M53.8958 462.925C55.2398 470.741 58.5611 475.867 63.7804 481.413C64.492 482.169 63.5436 483.429 62.7528 482.841C59.1944 480.488 55.8731 478.976 53.3427 475.195C50.9702 471.665 49.3885 467.883 48.9142 463.598C48.5977 460.657 53.3422 459.984 53.8958 462.925Z" fill="#272525"/>
</g>
<path d="M370.926 427.209C371.559 427.797 371.637 428.806 371.717 429.646C373.377 452.923 374.801 476.2 375.829 499.477C375.908 501.494 375.908 503.847 374.405 505.191C373.298 506.116 371.875 506.2 370.452 506.2C365.549 506.284 360.725 506.368 355.822 506.368C352.738 479.898 351.473 453.259 352.105 426.621C357.562 426.621 362.939 426.537 368.395 426.537C369.265 426.537 370.293 426.537 370.926 427.209Z" fill="#2F3F47"/>
<path d="M432.221 398.554C431.984 400.571 431.747 402.755 432.459 404.604C433.012 406.116 434.04 407.377 435.147 408.554C439.655 413.511 444.557 418.134 449.856 422.251C455.866 421.411 461.717 419.646 467.174 417.041C468.202 416.537 469.309 416.033 469.942 415.024C470.416 414.268 470.653 413.343 470.812 412.419C472.868 401.999 475.003 391.495 477.059 381.075C473.975 378.89 470.653 377.041 467.174 375.696C465.829 381.999 464.406 388.301 463.062 394.604C461.718 400.57 459.582 407.629 454.047 409.31C450.647 406.201 447.325 403.091 443.925 399.982C443.371 399.478 442.739 398.89 442.422 398.134C442.027 397.209 442.185 396.116 442.344 395.108C443.213 388.974 444.479 382.924 446.218 376.957C443.371 376.369 440.604 375.781 437.757 375.192C434.119 382.335 433.17 390.57 432.221 398.554Z" fill="#2F3F47"/>
<path d="M458.492 422.503C458.571 422.839 458.492 423.176 458.492 423.428C457.622 427.209 456.752 430.906 455.962 434.688C450.426 433.259 444.97 431.411 439.672 429.226C440.146 426.032 441.016 422.839 442.202 419.814C442.439 419.142 442.755 418.469 443.388 418.217C443.783 418.049 444.179 418.133 444.653 418.217C449.003 418.974 453.273 420.15 457.464 421.663C457.86 421.831 458.334 422.083 458.492 422.503Z" fill="#516770"/>
<path d="M457.286 438.303C457.84 445.193 448.825 457.966 446.136 463.68C442.499 471.412 438.782 479.227 433.563 485.865C428.343 492.504 421.464 498.05 413.477 499.73C408.969 500.739 404.304 500.487 399.717 499.815C385.878 497.882 372.514 492.672 360.89 484.521C359.941 483.848 358.992 483.176 358.596 482C358.201 480.823 358.596 479.563 358.913 478.302C360.415 473.681 361.76 468.555 364.053 464.269C368.007 456.79 365.476 458.134 371.803 458.638C376.626 459.059 383.585 464.437 388.725 465.782C394.735 467.378 400.903 468.134 406.992 468.975C410.867 469.479 415.137 469.899 418.38 467.546C420.12 466.286 421.385 464.353 422.492 462.42C429.372 451.075 435.619 439.227 441.233 427.043C442.182 424.942 456.258 433.681 457.128 437.042C457.207 437.546 457.286 437.883 457.286 438.303Z" fill="#E2ECED"/>
<g opacity="0.15">
<path opacity="0.15" d="M399.812 495.442C402.739 487.963 404.003 480.484 404.478 472.417C404.557 470.821 406.534 470.653 406.771 472.25C408.037 480.821 406.771 489.476 403.924 497.543C402.896 500.484 398.626 498.299 399.812 495.442Z" fill="#272525"/>
<path opacity="0.15" d="M413.004 496.031C415.06 488.384 414.269 482.25 411.897 474.771C411.58 473.763 412.925 473.09 413.478 473.93C415.613 477.712 417.986 480.653 418.697 485.191C419.33 489.476 419.172 493.594 417.748 497.627C416.799 500.568 412.292 498.888 413.004 496.031Z" fill="#272525"/>
</g>
<path d="M340.565 350.739C340.487 353.932 340.329 357.209 339.063 360.151C335.821 367.461 327.281 369.814 319.768 371.159C276.829 378.805 232.94 381.411 189.763 375.612C184.07 374.856 178.376 373.932 173.157 371.411C167.937 368.89 163.272 364.604 161.374 358.974C160.188 355.36 160.109 351.495 160.03 347.63C159.951 343.764 159.951 339.815 159.872 335.949C159.872 334.185 159.872 332.42 160.504 330.739C161.216 328.974 162.639 327.546 164.142 326.453C169.835 322.336 177.031 321.411 183.911 320.655C229.618 315.781 275.879 311.496 321.349 318.05C323.247 318.302 325.225 318.638 326.569 320.067C327.281 320.739 327.755 321.664 328.467 322.336C329.811 323.428 331.63 323.344 333.211 323.932C337.64 325.445 339.221 331.244 339.775 336.202C340.407 340.991 340.645 345.865 340.565 350.739Z" fill="#2F3F47"/>
<path opacity="0.2" d="M283.322 357.796C281.819 354.855 281.582 351.41 281.898 348.049C282.056 346.032 282.531 343.932 283.717 342.419C286.248 339.226 290.913 339.562 294.788 338.806C298.188 340.318 301.036 343.259 302.459 346.873C303.329 349.057 303.724 351.41 303.487 353.763C302.933 358.553 299.216 362.671 294.788 363.511C290.281 364.52 285.456 362.082 283.322 357.796Z" fill="#EAF1F2"/>
<path opacity="0.2" d="M208.017 357.796C206.515 354.855 206.277 351.41 206.594 348.049C206.752 346.032 207.226 343.932 208.413 342.419C210.943 339.226 215.608 339.562 219.483 338.806C222.884 340.318 225.731 343.259 227.154 346.873C228.024 349.057 228.419 351.41 228.182 353.763C227.629 358.553 223.912 362.671 219.483 363.511C215.055 364.52 210.232 362.082 208.017 357.796Z" fill="#EAF1F2"/>
<defs>
<linearGradient id="paint0_linear_458_2644" x1="341.43" y1="676.658" x2="2.66016" y2="676.658" gradientUnits="userSpaceOnUse">
<stop stop-color="#4D4D4D"/>
<stop offset="1"/>
</linearGradient>
<linearGradient id="paint1_linear_458_2644" x1="341.43" y1="676.658" x2="2.66016" y2="676.658" gradientUnits="userSpaceOnUse">
<stop/>
<stop offset="1"/>
</linearGradient>
</defs>
</svg>
