<svg width="969" height="700" viewBox="0 0 969 700" fill="none" xmlns="http://www.w3.org/2000/svg">
<path d="M450.648 301C450.462 301 450.277 300.996 450.09 300.987C447.909 300.894 445.779 300.185 443.882 298.919C441.985 297.654 440.377 295.87 439.194 293.718C430.334 278.187 419.461 264.373 406.968 252.775C399.405 245.685 391.502 239.093 383.86 232.717C364.143 216.274 345.575 200.788 335.268 179.389C312.796 132.729 339.261 67.7384 377.068 38.5923C419.474 5.90327 475.252 0.77573 529.211 0.103761C534.819 0.0342062 540.43 -0.000362368 546.045 2.86387e-06C643.268 0.0437266 740.287 10.4486 835.904 31.0862C867.699 37.9664 900.981 46.3949 927.726 66.8494C954.311 87.1829 970.471 119.203 968.894 148.427C966.593 191.09 928.034 222.968 892.922 231.302C859.456 239.24 824.689 233.876 787.883 228.195C779.757 226.942 771.356 225.645 763.048 224.518C672.755 212.277 503.133 250.007 495.957 251.62L488.838 253.218L461.214 294.913C459.971 296.813 458.371 298.351 456.538 299.407C454.706 300.463 452.69 301.008 450.648 301Z" fill="white"/>
<path d="M401.489 59.3636C401.335 58.0682 400.713 57.0625 399.622 56.3466C398.531 55.6307 397.193 55.2727 395.608 55.2727C394.449 55.2727 393.435 55.4602 392.565 55.8352C391.705 56.2102 391.031 56.7259 390.545 57.3821C390.068 58.0384 389.83 58.7841 389.83 59.6193C389.83 60.3182 389.996 60.919 390.328 61.4219C390.669 61.9162 391.104 62.3295 391.632 62.6619C392.161 62.9858 392.714 63.2543 393.294 63.4673C393.874 63.6719 394.406 63.8381 394.892 63.9659L397.551 64.6818C398.233 64.8608 398.991 65.108 399.827 65.4233C400.67 65.7386 401.476 66.169 402.243 66.7145C403.018 67.2514 403.658 67.9418 404.161 68.7855C404.663 69.6293 404.915 70.6648 404.915 71.892C404.915 73.3068 404.544 74.5852 403.803 75.7273C403.07 76.8693 401.996 77.777 400.581 78.4503C399.175 79.1236 397.466 79.4602 395.455 79.4602C393.58 79.4602 391.956 79.1577 390.584 78.5526C389.22 77.9474 388.146 77.1037 387.362 76.0213C386.587 74.9389 386.148 73.6818 386.045 72.25H389.318C389.403 73.2386 389.736 74.0568 390.315 74.7045C390.903 75.3437 391.645 75.821 392.54 76.1364C393.443 76.4432 394.415 76.5966 395.455 76.5966C396.665 76.5966 397.751 76.4006 398.714 76.0085C399.678 75.608 400.44 75.054 401.003 74.3466C401.565 73.6307 401.847 72.7955 401.847 71.8409C401.847 70.9716 401.604 70.2642 401.118 69.7188C400.632 69.1733 399.993 68.7301 399.2 68.3892C398.408 68.0483 397.551 67.75 396.631 67.4943L393.409 66.5739C391.364 65.9858 389.744 65.1463 388.551 64.0554C387.358 62.9645 386.761 61.5369 386.761 59.7727C386.761 58.3068 387.158 57.0284 387.95 55.9375C388.751 54.8381 389.825 53.9858 391.172 53.3807C392.527 52.767 394.04 52.4602 395.71 52.4602C397.398 52.4602 398.898 52.7628 400.21 53.3679C401.523 53.9645 402.563 54.7827 403.33 55.8224C404.105 56.8622 404.514 58.0426 404.557 59.3636H401.489ZM418.258 59.3636V61.9205H408.082V59.3636H418.258ZM411.048 54.6591H414.065V73.375C414.065 74.2273 414.189 74.8665 414.436 75.2926C414.691 75.7102 415.015 75.9915 415.407 76.1364C415.808 76.2727 416.23 76.3409 416.673 76.3409C417.005 76.3409 417.278 76.3239 417.491 76.2898C417.704 76.2472 417.875 76.2131 418.002 76.1875L418.616 78.8977C418.412 78.9744 418.126 79.0511 417.76 79.1278C417.393 79.2131 416.929 79.2557 416.366 79.2557C415.514 79.2557 414.679 79.0724 413.86 78.706C413.051 78.3395 412.377 77.7812 411.841 77.0312C411.312 76.2812 411.048 75.3352 411.048 74.1932V54.6591ZM428.575 79.4602C427.331 79.4602 426.201 79.2259 425.187 78.7571C424.173 78.2798 423.368 77.5938 422.771 76.6989C422.174 75.7955 421.876 74.7045 421.876 73.4261C421.876 72.3011 422.098 71.3892 422.541 70.6903C422.984 69.983 423.576 69.429 424.318 69.0284C425.059 68.6278 425.877 68.3295 426.772 68.1335C427.676 67.929 428.583 67.767 429.495 67.6477C430.689 67.4943 431.656 67.3793 432.397 67.3026C433.147 67.2173 433.693 67.0767 434.034 66.8807C434.383 66.6847 434.558 66.3437 434.558 65.858V65.7557C434.558 64.4943 434.213 63.5142 433.522 62.8153C432.841 62.1165 431.805 61.767 430.416 61.767C428.975 61.767 427.846 62.0824 427.028 62.7131C426.21 63.3437 425.635 64.017 425.302 64.733L422.439 63.7102C422.95 62.517 423.632 61.5881 424.484 60.9233C425.345 60.25 426.282 59.7812 427.297 59.517C428.319 59.2443 429.325 59.108 430.314 59.108C430.944 59.108 431.669 59.1847 432.487 59.3381C433.314 59.483 434.11 59.7855 434.877 60.2457C435.653 60.706 436.297 61.4006 436.808 62.3295C437.319 63.2585 437.575 64.5028 437.575 66.0625V79H434.558V76.3409H434.404C434.2 76.767 433.859 77.223 433.382 77.7088C432.904 78.1946 432.27 78.608 431.477 78.9489C430.684 79.2898 429.717 79.4602 428.575 79.4602ZM429.035 76.75C430.228 76.75 431.234 76.5156 432.052 76.0469C432.879 75.5781 433.501 74.973 433.919 74.2315C434.345 73.4901 434.558 72.7102 434.558 71.892V69.1307C434.43 69.2841 434.149 69.4247 433.714 69.5526C433.288 69.6719 432.794 69.7784 432.231 69.8722C431.677 69.9574 431.136 70.0341 430.608 70.1023C430.088 70.1619 429.666 70.2131 429.342 70.2557C428.558 70.358 427.825 70.5241 427.143 70.7543C426.47 70.9759 425.924 71.3125 425.507 71.7642C425.098 72.2074 424.893 72.8125 424.893 73.5795C424.893 74.6278 425.281 75.4205 426.056 75.9574C426.841 76.4858 427.833 76.75 429.035 76.75ZM451.621 59.3636V61.9205H441.445V59.3636H451.621ZM444.411 54.6591H447.428V73.375C447.428 74.2273 447.552 74.8665 447.799 75.2926C448.055 75.7102 448.379 75.9915 448.771 76.1364C449.171 76.2727 449.593 76.3409 450.036 76.3409C450.369 76.3409 450.641 76.3239 450.854 76.2898C451.067 76.2472 451.238 76.2131 451.366 76.1875L451.979 78.8977C451.775 78.9744 451.489 79.0511 451.123 79.1278C450.756 79.2131 450.292 79.2557 449.729 79.2557C448.877 79.2557 448.042 79.0724 447.224 78.706C446.414 78.3395 445.741 77.7812 445.204 77.0312C444.675 76.2812 444.411 75.3352 444.411 74.1932V54.6591ZM464.7 59.3636V61.9205H454.523V59.3636H464.7ZM457.489 54.6591H460.506V73.375C460.506 74.2273 460.63 74.8665 460.877 75.2926C461.133 75.7102 461.457 75.9915 461.849 76.1364C462.249 76.2727 462.671 76.3409 463.114 76.3409C463.447 76.3409 463.719 76.3239 463.933 76.2898C464.146 76.2472 464.316 76.2131 464.444 76.1875L465.058 78.8977C464.853 78.9744 464.567 79.0511 464.201 79.1278C463.835 79.2131 463.37 79.2557 462.808 79.2557C461.955 79.2557 461.12 79.0724 460.302 78.706C459.492 78.3395 458.819 77.7812 458.282 77.0312C457.754 76.2812 457.489 75.3352 457.489 74.1932V54.6591ZM476.442 79.4091C474.805 79.4091 473.361 78.9957 472.108 78.169C470.855 77.3338 469.875 76.1577 469.168 74.6406C468.46 73.1151 468.107 71.3125 468.107 69.233C468.107 67.1705 468.46 65.3807 469.168 63.8636C469.875 62.3466 470.859 61.1747 472.121 60.348C473.382 59.5213 474.839 59.108 476.493 59.108C477.771 59.108 478.781 59.321 479.523 59.7472C480.273 60.1648 480.844 60.642 481.236 61.179C481.636 61.7074 481.947 62.142 482.169 62.483H482.425V52.8182H485.442V79H482.527V75.983H482.169C481.947 76.3409 481.632 76.7926 481.223 77.3381C480.814 77.875 480.23 78.3565 479.472 78.7827C478.713 79.2003 477.703 79.4091 476.442 79.4091ZM476.851 76.6989C478.061 76.6989 479.084 76.3835 479.919 75.7528C480.754 75.1136 481.389 74.2315 481.824 73.1065C482.259 71.973 482.476 70.6648 482.476 69.1818C482.476 67.7159 482.263 66.4332 481.837 65.3338C481.411 64.2259 480.78 63.3651 479.945 62.7514C479.109 62.1293 478.078 61.8182 476.851 61.8182C475.572 61.8182 474.507 62.1463 473.655 62.8026C472.811 63.4503 472.176 64.3324 471.75 65.4489C471.332 66.5568 471.124 67.8011 471.124 69.1818C471.124 70.5795 471.337 71.8494 471.763 72.9915C472.197 74.125 472.837 75.0284 473.68 75.7017C474.533 76.3665 475.589 76.6989 476.851 76.6989ZM499.619 79.4091C497.727 79.4091 496.095 78.9915 494.723 78.1562C493.359 77.3125 492.307 76.1364 491.565 74.6278C490.832 73.1108 490.466 71.3466 490.466 69.3352C490.466 67.3239 490.832 65.5511 491.565 64.017C492.307 62.4744 493.338 61.2727 494.659 60.4119C495.989 59.5426 497.54 59.108 499.312 59.108C500.335 59.108 501.345 59.2784 502.342 59.6193C503.339 59.9602 504.247 60.5142 505.065 61.2812C505.884 62.0398 506.536 63.0455 507.021 64.2983C507.507 65.5511 507.75 67.0937 507.75 68.9261V70.2045H492.614V67.5966H504.682C504.682 66.4886 504.46 65.5 504.017 64.6307C503.582 63.7614 502.96 63.0753 502.151 62.5724C501.349 62.0696 500.403 61.8182 499.312 61.8182C498.111 61.8182 497.071 62.1165 496.193 62.7131C495.324 63.3011 494.655 64.0682 494.186 65.0142C493.717 65.9602 493.483 66.9744 493.483 68.0568V69.7955C493.483 71.2784 493.739 72.5355 494.25 73.5668C494.77 74.5895 495.49 75.3693 496.411 75.9062C497.331 76.4347 498.401 76.6989 499.619 76.6989C500.412 76.6989 501.128 76.5881 501.767 76.3665C502.415 76.1364 502.973 75.7955 503.442 75.3438C503.911 74.8835 504.273 74.3125 504.528 73.6307L507.443 74.4489C507.136 75.4375 506.621 76.3068 505.896 77.0568C505.172 77.7983 504.277 78.3778 503.212 78.7955C502.146 79.2045 500.949 79.4091 499.619 79.4091ZM526.249 63.7614L523.538 64.5284C523.368 64.0767 523.116 63.6378 522.784 63.2116C522.46 62.777 522.017 62.419 521.455 62.1378C520.892 61.8565 520.172 61.7159 519.294 61.7159C518.092 61.7159 517.091 61.9929 516.29 62.5469C515.497 63.0923 515.101 63.7869 515.101 64.6307C515.101 65.3807 515.374 65.973 515.919 66.4077C516.464 66.8423 517.317 67.2045 518.476 67.4943L521.391 68.2102C523.146 68.6364 524.455 69.2884 525.315 70.1662C526.176 71.0355 526.607 72.1562 526.607 73.5284C526.607 74.6534 526.283 75.6591 525.635 76.5455C524.996 77.4318 524.101 78.1307 522.95 78.642C521.8 79.1534 520.462 79.4091 518.936 79.4091C516.933 79.4091 515.276 78.9744 513.963 78.1051C512.651 77.2358 511.82 75.9659 511.47 74.2955L514.334 73.5795C514.607 74.6364 515.122 75.429 515.881 75.9574C516.648 76.4858 517.649 76.75 518.885 76.75C520.291 76.75 521.408 76.4517 522.234 75.8551C523.07 75.25 523.487 74.5256 523.487 73.6818C523.487 73 523.249 72.429 522.771 71.9688C522.294 71.5 521.561 71.1506 520.572 70.9205L517.3 70.1534C515.501 69.7273 514.18 69.0668 513.337 68.1719C512.501 67.2685 512.084 66.1392 512.084 64.7841C512.084 63.6761 512.395 62.696 513.017 61.8438C513.648 60.9915 514.504 60.3224 515.587 59.8366C516.678 59.3509 517.913 59.108 519.294 59.108C521.237 59.108 522.763 59.5341 523.871 60.3864C524.987 61.2386 525.78 62.3636 526.249 63.7614ZM545.057 63.7614L542.347 64.5284C542.176 64.0767 541.925 63.6378 541.593 63.2116C541.269 62.777 540.826 62.419 540.263 62.1378C539.701 61.8565 538.98 61.7159 538.103 61.7159C536.901 61.7159 535.9 61.9929 535.098 62.5469C534.306 63.0923 533.909 63.7869 533.909 64.6307C533.909 65.3807 534.182 65.973 534.728 66.4077C535.273 66.8423 536.125 67.2045 537.284 67.4943L540.199 68.2102C541.955 68.6364 543.263 69.2884 544.124 70.1662C544.985 71.0355 545.415 72.1562 545.415 73.5284C545.415 74.6534 545.091 75.6591 544.444 76.5455C543.804 77.4318 542.909 78.1307 541.759 78.642C540.608 79.1534 539.27 79.4091 537.745 79.4091C535.742 79.4091 534.084 78.9744 532.772 78.1051C531.459 77.2358 530.628 75.9659 530.279 74.2955L533.142 73.5795C533.415 74.6364 533.931 75.429 534.689 75.9574C535.456 76.4858 536.458 76.75 537.694 76.75C539.1 76.75 540.216 76.4517 541.043 75.8551C541.878 75.25 542.296 74.5256 542.296 73.6818C542.296 73 542.057 72.429 541.58 71.9688C541.103 71.5 540.37 71.1506 539.381 70.9205L536.108 70.1534C534.31 69.7273 532.989 69.0668 532.145 68.1719C531.31 67.2685 530.892 66.1392 530.892 64.7841C530.892 63.6761 531.203 62.696 531.826 61.8438C532.456 60.9915 533.313 60.3224 534.395 59.8366C535.486 59.3509 536.722 59.108 538.103 59.108C540.046 59.108 541.571 59.5341 542.679 60.3864C543.796 61.2386 544.588 62.3636 545.057 63.7614ZM558.19 79.4091C556.298 79.4091 554.665 78.9915 553.293 78.1562C551.93 77.3125 550.877 76.1364 550.136 74.6278C549.403 73.1108 549.036 71.3466 549.036 69.3352C549.036 67.3239 549.403 65.5511 550.136 64.017C550.877 62.4744 551.908 61.2727 553.229 60.4119C554.559 59.5426 556.11 59.108 557.883 59.108C558.906 59.108 559.915 59.2784 560.913 59.6193C561.91 59.9602 562.817 60.5142 563.636 61.2812C564.454 62.0398 565.106 63.0455 565.592 64.2983C566.077 65.5511 566.32 67.0937 566.32 68.9261V70.2045H551.184V67.5966H563.252C563.252 66.4886 563.031 65.5 562.587 64.6307C562.153 63.7614 561.531 63.0753 560.721 62.5724C559.92 62.0696 558.974 61.8182 557.883 61.8182C556.681 61.8182 555.641 62.1165 554.763 62.7131C553.894 63.3011 553.225 64.0682 552.756 65.0142C552.288 65.9602 552.053 66.9744 552.053 68.0568V69.7955C552.053 71.2784 552.309 72.5355 552.82 73.5668C553.34 74.5895 554.06 75.3693 554.981 75.9062C555.901 76.4347 556.971 76.6989 558.19 76.6989C558.982 76.6989 559.698 76.5881 560.337 76.3665C560.985 76.1364 561.543 75.7955 562.012 75.3438C562.481 74.8835 562.843 74.3125 563.099 73.6307L566.013 74.4489C565.707 75.4375 565.191 76.3068 564.467 77.0568C563.742 77.7983 562.847 78.3778 561.782 78.7955C560.717 79.2045 559.519 79.4091 558.19 79.4091ZM573.927 67.1875V79H570.91V59.3636H573.825V62.4318H574.08C574.54 61.4347 575.239 60.6335 576.177 60.0284C577.114 59.4148 578.325 59.108 579.808 59.108C581.137 59.108 582.3 59.3807 583.298 59.9261C584.295 60.4631 585.07 61.2812 585.624 62.3807C586.178 63.4716 586.455 64.8523 586.455 66.5227V79H583.438V66.7273C583.438 65.1847 583.038 63.983 582.237 63.1222C581.435 62.2528 580.336 61.8182 578.938 61.8182C577.975 61.8182 577.114 62.027 576.356 62.4446C575.606 62.8622 575.013 63.4716 574.579 64.2727C574.144 65.0739 573.927 66.0455 573.927 67.1875ZM616.002 63.7614L613.292 64.5284C613.122 64.0767 612.87 63.6378 612.538 63.2116C612.214 62.777 611.771 62.419 611.208 62.1378C610.646 61.8565 609.926 61.7159 609.048 61.7159C607.846 61.7159 606.845 61.9929 606.044 62.5469C605.251 63.0923 604.855 63.7869 604.855 64.6307C604.855 65.3807 605.127 65.973 605.673 66.4077C606.218 66.8423 607.071 67.2045 608.23 67.4943L611.145 68.2102C612.9 68.6364 614.208 69.2884 615.069 70.1662C615.93 71.0355 616.36 72.1562 616.36 73.5284C616.36 74.6534 616.037 75.6591 615.389 76.5455C614.75 77.4318 613.855 78.1307 612.704 78.642C611.554 79.1534 610.216 79.4091 608.69 79.4091C606.687 79.4091 605.029 78.9744 603.717 78.1051C602.404 77.2358 601.574 75.9659 601.224 74.2955L604.088 73.5795C604.36 74.6364 604.876 75.429 605.635 75.9574C606.402 76.4858 607.403 76.75 608.639 76.75C610.045 76.75 611.162 76.4517 611.988 75.8551C612.824 75.25 613.241 74.5256 613.241 73.6818C613.241 73 613.002 72.429 612.525 71.9688C612.048 71.5 611.315 71.1506 610.326 70.9205L607.054 70.1534C605.255 69.7273 603.934 69.0668 603.091 68.1719C602.255 67.2685 601.838 66.1392 601.838 64.7841C601.838 63.6761 602.149 62.696 602.771 61.8438C603.402 60.9915 604.258 60.3224 605.341 59.8366C606.431 59.3509 607.667 59.108 609.048 59.108C610.991 59.108 612.517 59.5341 613.625 60.3864C614.741 61.2386 615.534 62.3636 616.002 63.7614ZM628.879 79.4091C627.107 79.4091 625.551 78.9872 624.213 78.1435C622.884 77.2997 621.844 76.1193 621.094 74.6023C620.352 73.0852 619.982 71.3125 619.982 69.2841C619.982 67.2386 620.352 65.4531 621.094 63.9276C621.844 62.402 622.884 61.2173 624.213 60.3736C625.551 59.5298 627.107 59.108 628.879 59.108C630.652 59.108 632.203 59.5298 633.533 60.3736C634.871 61.2173 635.911 62.402 636.652 63.9276C637.402 65.4531 637.777 67.2386 637.777 69.2841C637.777 71.3125 637.402 73.0852 636.652 74.6023C635.911 76.1193 634.871 77.2997 633.533 78.1435C632.203 78.9872 630.652 79.4091 628.879 79.4091ZM628.879 76.6989C630.226 76.6989 631.334 76.3537 632.203 75.6634C633.072 74.973 633.716 74.0653 634.134 72.9403C634.551 71.8153 634.76 70.5966 634.76 69.2841C634.76 67.9716 634.551 66.7486 634.134 65.6151C633.716 64.4815 633.072 63.5653 632.203 62.8665C631.334 62.1676 630.226 61.8182 628.879 61.8182C627.533 61.8182 626.425 62.1676 625.555 62.8665C624.686 63.5653 624.043 64.4815 623.625 65.6151C623.207 66.7486 622.999 67.9716 622.999 69.2841C622.999 70.5966 623.207 71.8153 623.625 72.9403C624.043 74.0653 624.686 74.973 625.555 75.6634C626.425 76.3537 627.533 76.6989 628.879 76.6989ZM645.4 52.8182V79H642.382V52.8182H645.4ZM653.942 52.8182V79H650.925V52.8182H653.942ZM668.008 59.3636V61.9205H657.832V59.3636H668.008ZM660.798 54.6591H663.815V73.375C663.815 74.2273 663.939 74.8665 664.186 75.2926C664.441 75.7102 664.765 75.9915 665.157 76.1364C665.558 76.2727 665.98 76.3409 666.423 76.3409C666.755 76.3409 667.028 76.3239 667.241 76.2898C667.454 76.2472 667.625 76.2131 667.752 76.1875L668.366 78.8977C668.162 78.9744 667.876 79.0511 667.51 79.1278C667.143 79.2131 666.679 79.2557 666.116 79.2557C665.264 79.2557 664.429 79.0724 663.61 78.706C662.801 78.3395 662.127 77.7812 661.591 77.0312C661.062 76.2812 660.798 75.3352 660.798 74.1932V54.6591ZM680.569 79.4091C678.676 79.4091 677.044 78.9915 675.672 78.1562C674.309 77.3125 673.256 76.1364 672.515 74.6278C671.782 73.1108 671.415 71.3466 671.415 69.3352C671.415 67.3239 671.782 65.5511 672.515 64.017C673.256 62.4744 674.287 61.2727 675.608 60.4119C676.938 59.5426 678.489 59.108 680.262 59.108C681.284 59.108 682.294 59.2784 683.292 59.6193C684.289 59.9602 685.196 60.5142 686.015 61.2812C686.833 62.0398 687.485 63.0455 687.971 64.2983C688.456 65.5511 688.699 67.0937 688.699 68.9261V70.2045H673.563V67.5966H685.631C685.631 66.4886 685.409 65.5 684.966 64.6307C684.532 63.7614 683.909 63.0753 683.1 62.5724C682.299 62.0696 681.353 61.8182 680.262 61.8182C679.06 61.8182 678.02 62.1165 677.142 62.7131C676.273 63.3011 675.604 64.0682 675.135 65.0142C674.667 65.9602 674.432 66.9744 674.432 68.0568V69.7955C674.432 71.2784 674.688 72.5355 675.199 73.5668C675.719 74.5895 676.439 75.3693 677.36 75.9062C678.28 76.4347 679.35 76.6989 680.569 76.6989C681.361 76.6989 682.077 76.5881 682.716 76.3665C683.364 76.1364 683.922 75.7955 684.391 75.3438C684.86 74.8835 685.222 74.3125 685.478 73.6307L688.392 74.4489C688.086 75.4375 687.57 76.3068 686.846 77.0568C686.121 77.7983 685.226 78.3778 684.161 78.7955C683.096 79.2045 681.898 79.4091 680.569 79.4091ZM696.306 67.1875V79H693.289V59.3636H696.203V62.4318H696.459C696.919 61.4347 697.618 60.6335 698.556 60.0284C699.493 59.4148 700.703 59.108 702.186 59.108C703.516 59.108 704.679 59.3807 705.676 59.9261C706.674 60.4631 707.449 61.2812 708.003 62.3807C708.557 63.4716 708.834 64.8523 708.834 66.5227V79H705.817V66.7273C705.817 65.1847 705.417 63.983 704.615 63.1222C703.814 62.2528 702.715 61.8182 701.317 61.8182C700.354 61.8182 699.493 62.027 698.735 62.4446C697.985 62.8622 697.392 63.4716 696.958 64.2727C696.523 65.0739 696.306 66.0455 696.306 67.1875ZM728.921 79L722.938 59.3636H726.109L730.353 74.3977H730.558L734.751 59.3636H737.972L742.114 74.3466H742.319L746.563 59.3636H749.734L743.751 79H740.785L736.489 63.9148H736.183L731.887 79H728.921ZM753.722 79V59.3636H756.739V79H753.722ZM755.256 56.0909C754.668 56.0909 754.161 55.8906 753.735 55.4901C753.317 55.0895 753.109 54.608 753.109 54.0455C753.109 53.483 753.317 53.0014 753.735 52.6009C754.161 52.2003 754.668 52 755.256 52C755.844 52 756.347 52.2003 756.765 52.6009C757.191 53.0014 757.404 53.483 757.404 54.0455C757.404 54.608 757.191 55.0895 756.765 55.4901C756.347 55.8906 755.844 56.0909 755.256 56.0909ZM762.265 79V59.3636H765.18V62.3295H765.385C765.743 61.358 766.39 60.5696 767.328 59.9645C768.265 59.3594 769.322 59.0568 770.498 59.0568C770.72 59.0568 770.997 59.0611 771.329 59.0696C771.662 59.0781 771.913 59.0909 772.083 59.108V62.1761C771.981 62.1506 771.747 62.1122 771.38 62.0611C771.022 62.0014 770.643 61.9716 770.243 61.9716C769.288 61.9716 768.436 62.1719 767.686 62.5724C766.944 62.9645 766.356 63.5099 765.922 64.2088C765.495 64.8991 765.282 65.6875 765.282 66.5739V79H762.265ZM798.16 70.9716V59.3636H801.177V79H798.16V75.6761H797.955C797.495 76.6733 796.779 77.5213 795.808 78.2202C794.836 78.9105 793.609 79.2557 792.126 79.2557C790.898 79.2557 789.808 78.9872 788.853 78.4503C787.898 77.9048 787.148 77.0866 786.603 75.9957C786.058 74.8963 785.785 73.5114 785.785 71.8409V59.3636H788.802V71.6364C788.802 73.0682 789.202 74.2102 790.004 75.0625C790.813 75.9148 791.844 76.3409 793.097 76.3409C793.847 76.3409 794.61 76.1491 795.386 75.7656C796.17 75.3821 796.826 74.794 797.354 74.0014C797.891 73.2088 798.16 72.1989 798.16 70.9716ZM809.72 67.1875V79H806.703V59.3636H809.618V62.4318H809.873C810.333 61.4347 811.032 60.6335 811.97 60.0284C812.907 59.4148 814.118 59.108 815.6 59.108C816.93 59.108 818.093 59.3807 819.091 59.9261C820.088 60.4631 820.863 61.2812 821.417 62.3807C821.971 63.4716 822.248 64.8523 822.248 66.5227V79H819.231V66.7273C819.231 65.1847 818.831 63.983 818.029 63.1222C817.228 62.2528 816.129 61.8182 814.731 61.8182C813.768 61.8182 812.907 62.027 812.149 62.4446C811.399 62.8622 810.806 63.4716 810.372 64.2727C809.937 65.0739 809.72 66.0455 809.72 67.1875ZM841.67 63.7614L838.96 64.5284C838.79 64.0767 838.538 63.6378 838.206 63.2116C837.882 62.777 837.439 62.419 836.876 62.1378C836.314 61.8565 835.594 61.7159 834.716 61.7159C833.514 61.7159 832.513 61.9929 831.712 62.5469C830.919 63.0923 830.523 63.7869 830.523 64.6307C830.523 65.3807 830.795 65.973 831.341 66.4077C831.886 66.8423 832.739 67.2045 833.898 67.4943L836.812 68.2102C838.568 68.6364 839.876 69.2884 840.737 70.1662C841.598 71.0355 842.028 72.1562 842.028 73.5284C842.028 74.6534 841.705 75.6591 841.057 76.5455C840.418 77.4318 839.523 78.1307 838.372 78.642C837.222 79.1534 835.884 79.4091 834.358 79.4091C832.355 79.4091 830.697 78.9744 829.385 78.1051C828.072 77.2358 827.241 75.9659 826.892 74.2955L829.756 73.5795C830.028 74.6364 830.544 75.429 831.303 75.9574C832.07 76.4858 833.071 76.75 834.307 76.75C835.713 76.75 836.83 76.4517 837.656 75.8551C838.491 75.25 838.909 74.5256 838.909 73.6818C838.909 73 838.67 72.429 838.193 71.9688C837.716 71.5 836.983 71.1506 835.994 70.9205L832.722 70.1534C830.923 69.7273 829.602 69.0668 828.759 68.1719C827.923 67.2685 827.506 66.1392 827.506 64.7841C827.506 63.6761 827.817 62.696 828.439 61.8438C829.07 60.9915 829.926 60.3224 831.009 59.8366C832.099 59.3509 833.335 59.108 834.716 59.108C836.659 59.108 838.185 59.5341 839.293 60.3864C840.409 61.2386 841.202 62.3636 841.67 63.7614ZM394.176 123.409C392.54 123.409 391.095 122.996 389.842 122.169C388.589 121.334 387.609 120.158 386.902 118.641C386.195 117.115 385.841 115.312 385.841 113.233C385.841 111.17 386.195 109.381 386.902 107.864C387.609 106.347 388.594 105.175 389.855 104.348C391.116 103.521 392.574 103.108 394.227 103.108C395.506 103.108 396.516 103.321 397.257 103.747C398.007 104.165 398.578 104.642 398.97 105.179C399.371 105.707 399.682 106.142 399.903 106.483H400.159V96.8182H403.176V123H400.261V119.983H399.903C399.682 120.341 399.366 120.793 398.957 121.338C398.548 121.875 397.964 122.357 397.206 122.783C396.447 123.2 395.438 123.409 394.176 123.409ZM394.585 120.699C395.795 120.699 396.818 120.384 397.653 119.753C398.489 119.114 399.124 118.232 399.558 117.107C399.993 115.973 400.21 114.665 400.21 113.182C400.21 111.716 399.997 110.433 399.571 109.334C399.145 108.226 398.514 107.365 397.679 106.751C396.844 106.129 395.813 105.818 394.585 105.818C393.307 105.818 392.241 106.146 391.389 106.803C390.545 107.45 389.911 108.332 389.484 109.449C389.067 110.557 388.858 111.801 388.858 113.182C388.858 114.58 389.071 115.849 389.497 116.991C389.932 118.125 390.571 119.028 391.415 119.702C392.267 120.366 393.324 120.699 394.585 120.699ZM414.899 123.46C413.655 123.46 412.526 123.226 411.511 122.757C410.497 122.28 409.692 121.594 409.095 120.699C408.499 119.795 408.2 118.705 408.2 117.426C408.2 116.301 408.422 115.389 408.865 114.69C409.308 113.983 409.901 113.429 410.642 113.028C411.384 112.628 412.202 112.33 413.097 112.134C414 111.929 414.908 111.767 415.82 111.648C417.013 111.494 417.98 111.379 418.722 111.303C419.472 111.217 420.017 111.077 420.358 110.881C420.707 110.685 420.882 110.344 420.882 109.858V109.756C420.882 108.494 420.537 107.514 419.847 106.815C419.165 106.116 418.129 105.767 416.74 105.767C415.3 105.767 414.17 106.082 413.352 106.713C412.534 107.344 411.959 108.017 411.626 108.733L408.763 107.71C409.274 106.517 409.956 105.588 410.808 104.923C411.669 104.25 412.607 103.781 413.621 103.517C414.643 103.244 415.649 103.108 416.638 103.108C417.268 103.108 417.993 103.185 418.811 103.338C419.638 103.483 420.435 103.786 421.202 104.246C421.977 104.706 422.621 105.401 423.132 106.33C423.643 107.259 423.899 108.503 423.899 110.062V123H420.882V120.341H420.729C420.524 120.767 420.183 121.223 419.706 121.709C419.229 122.195 418.594 122.608 417.801 122.949C417.009 123.29 416.041 123.46 414.899 123.46ZM415.359 120.75C416.553 120.75 417.558 120.516 418.376 120.047C419.203 119.578 419.825 118.973 420.243 118.232C420.669 117.49 420.882 116.71 420.882 115.892V113.131C420.754 113.284 420.473 113.425 420.038 113.553C419.612 113.672 419.118 113.778 418.555 113.872C418.001 113.957 417.46 114.034 416.932 114.102C416.412 114.162 415.99 114.213 415.666 114.256C414.882 114.358 414.149 114.524 413.467 114.754C412.794 114.976 412.249 115.312 411.831 115.764C411.422 116.207 411.217 116.812 411.217 117.58C411.217 118.628 411.605 119.42 412.381 119.957C413.165 120.486 414.158 120.75 415.359 120.75ZM429.406 123V103.364H432.321V106.33H432.525C432.883 105.358 433.531 104.57 434.468 103.964C435.406 103.359 436.463 103.057 437.639 103.057C437.86 103.057 438.137 103.061 438.47 103.07C438.802 103.078 439.054 103.091 439.224 103.108V106.176C439.122 106.151 438.887 106.112 438.521 106.061C438.163 106.001 437.784 105.972 437.383 105.972C436.429 105.972 435.576 106.172 434.826 106.572C434.085 106.964 433.497 107.51 433.062 108.209C432.636 108.899 432.423 109.687 432.423 110.574V123H429.406ZM448.579 123.46C447.335 123.46 446.205 123.226 445.191 122.757C444.177 122.28 443.371 121.594 442.775 120.699C442.178 119.795 441.88 118.705 441.88 117.426C441.88 116.301 442.102 115.389 442.545 114.69C442.988 113.983 443.58 113.429 444.322 113.028C445.063 112.628 445.881 112.33 446.776 112.134C447.68 111.929 448.587 111.767 449.499 111.648C450.692 111.494 451.66 111.379 452.401 111.303C453.151 111.217 453.697 111.077 454.038 110.881C454.387 110.685 454.562 110.344 454.562 109.858V109.756C454.562 108.494 454.217 107.514 453.526 106.815C452.844 106.116 451.809 105.767 450.42 105.767C448.979 105.767 447.85 106.082 447.032 106.713C446.214 107.344 445.638 108.017 445.306 108.733L442.442 107.71C442.954 106.517 443.636 105.588 444.488 104.923C445.349 104.25 446.286 103.781 447.3 103.517C448.323 103.244 449.329 103.108 450.317 103.108C450.948 103.108 451.673 103.185 452.491 103.338C453.317 103.483 454.114 103.786 454.881 104.246C455.657 104.706 456.3 105.401 456.812 106.33C457.323 107.259 457.579 108.503 457.579 110.062V123H454.562V120.341H454.408C454.204 120.767 453.863 121.223 453.386 121.709C452.908 122.195 452.273 122.608 451.481 122.949C450.688 123.29 449.721 123.46 448.579 123.46ZM449.039 120.75C450.232 120.75 451.238 120.516 452.056 120.047C452.883 119.578 453.505 118.973 453.923 118.232C454.349 117.49 454.562 116.71 454.562 115.892V113.131C454.434 113.284 454.153 113.425 453.718 113.553C453.292 113.672 452.798 113.778 452.235 113.872C451.681 113.957 451.14 114.034 450.612 114.102C450.092 114.162 449.67 114.213 449.346 114.256C448.562 114.358 447.829 114.524 447.147 114.754C446.474 114.976 445.928 115.312 445.511 115.764C445.102 116.207 444.897 116.812 444.897 117.58C444.897 118.628 445.285 119.42 446.06 119.957C446.844 120.486 447.837 120.75 449.039 120.75ZM475.461 114.972V103.364H478.478V123H475.461V119.676H475.256C474.796 120.673 474.08 121.521 473.108 122.22C472.137 122.911 470.909 123.256 469.426 123.256C468.199 123.256 467.108 122.987 466.154 122.45C465.199 121.905 464.449 121.087 463.904 119.996C463.358 118.896 463.086 117.511 463.086 115.841V103.364H466.103V115.636C466.103 117.068 466.503 118.21 467.304 119.062C468.114 119.915 469.145 120.341 470.398 120.341C471.148 120.341 471.911 120.149 472.686 119.766C473.471 119.382 474.127 118.794 474.655 118.001C475.192 117.209 475.461 116.199 475.461 114.972ZM492.748 103.364V105.92H482.163V103.364H492.748ZM485.333 123V100.653C485.333 99.5284 485.597 98.5909 486.126 97.8409C486.654 97.0909 487.34 96.5284 488.184 96.1534C489.028 95.7784 489.918 95.5909 490.856 95.5909C491.597 95.5909 492.202 95.6506 492.671 95.7699C493.14 95.8892 493.489 96 493.719 96.1023L492.85 98.7102C492.697 98.6591 492.484 98.5952 492.211 98.5185C491.947 98.4418 491.597 98.4034 491.163 98.4034C490.165 98.4034 489.445 98.6548 489.002 99.1577C488.567 99.6605 488.35 100.398 488.35 101.369V123H485.333ZM509.914 115.841L509.863 112.108H510.476L519.067 103.364H522.8L513.647 112.619H513.391L509.914 115.841ZM507.101 123V96.8182H510.118V123H507.101ZM519.578 123L511.908 113.284L514.056 111.188L523.414 123H519.578ZM533.852 123.409C532.079 123.409 530.524 122.987 529.186 122.143C527.856 121.3 526.816 120.119 526.066 118.602C525.325 117.085 524.954 115.312 524.954 113.284C524.954 111.239 525.325 109.453 526.066 107.928C526.816 106.402 527.856 105.217 529.186 104.374C530.524 103.53 532.079 103.108 533.852 103.108C535.625 103.108 537.176 103.53 538.505 104.374C539.843 105.217 540.883 106.402 541.625 107.928C542.375 109.453 542.75 111.239 542.75 113.284C542.75 115.312 542.375 117.085 541.625 118.602C540.883 120.119 539.843 121.3 538.505 122.143C537.176 122.987 535.625 123.409 533.852 123.409ZM533.852 120.699C535.199 120.699 536.306 120.354 537.176 119.663C538.045 118.973 538.689 118.065 539.106 116.94C539.524 115.815 539.733 114.597 539.733 113.284C539.733 111.972 539.524 110.749 539.106 109.615C538.689 108.482 538.045 107.565 537.176 106.866C536.306 106.168 535.199 105.818 533.852 105.818C532.505 105.818 531.397 106.168 530.528 106.866C529.659 107.565 529.015 108.482 528.598 109.615C528.18 110.749 527.971 111.972 527.971 113.284C527.971 114.597 528.18 115.815 528.598 116.94C529.015 118.065 529.659 118.973 530.528 119.663C531.397 120.354 532.505 120.699 533.852 120.699ZM550.372 111.188V123H547.355V103.364H550.27V106.432H550.526C550.986 105.435 551.685 104.634 552.622 104.028C553.56 103.415 554.77 103.108 556.253 103.108C557.582 103.108 558.746 103.381 559.743 103.926C560.74 104.463 561.516 105.281 562.07 106.381C562.624 107.472 562.901 108.852 562.901 110.523V123H559.884V110.727C559.884 109.185 559.483 107.983 558.682 107.122C557.881 106.253 556.781 105.818 555.384 105.818C554.42 105.818 553.56 106.027 552.801 106.445C552.051 106.862 551.459 107.472 551.024 108.273C550.589 109.074 550.372 110.045 550.372 111.188ZM567.851 123V120.699L578.999 106.381V106.176H568.209V103.364H582.885V105.767L572.044 119.983V120.188H583.243V123H567.851ZM595.561 123.409C593.669 123.409 592.037 122.991 590.664 122.156C589.301 121.312 588.248 120.136 587.507 118.628C586.774 117.111 586.407 115.347 586.407 113.335C586.407 111.324 586.774 109.551 587.507 108.017C588.248 106.474 589.279 105.273 590.6 104.412C591.93 103.543 593.481 103.108 595.254 103.108C596.277 103.108 597.287 103.278 598.284 103.619C599.281 103.96 600.189 104.514 601.007 105.281C601.825 106.04 602.477 107.045 602.963 108.298C603.449 109.551 603.691 111.094 603.691 112.926V114.205H588.555V111.597H600.623C600.623 110.489 600.402 109.5 599.958 108.631C599.524 107.761 598.902 107.075 598.092 106.572C597.291 106.07 596.345 105.818 595.254 105.818C594.052 105.818 593.012 106.116 592.135 106.713C591.265 107.301 590.596 108.068 590.127 109.014C589.659 109.96 589.424 110.974 589.424 112.057V113.795C589.424 115.278 589.68 116.536 590.191 117.567C590.711 118.589 591.431 119.369 592.352 119.906C593.272 120.435 594.342 120.699 595.561 120.699C596.353 120.699 597.069 120.588 597.708 120.366C598.356 120.136 598.914 119.795 599.383 119.344C599.852 118.884 600.214 118.312 600.47 117.631L603.385 118.449C603.078 119.438 602.562 120.307 601.838 121.057C601.113 121.798 600.218 122.378 599.153 122.795C598.088 123.205 596.89 123.409 595.561 123.409ZM611.298 111.188V123H608.281V103.364H611.196V106.432H611.451C611.912 105.435 612.61 104.634 613.548 104.028C614.485 103.415 615.696 103.108 617.179 103.108C618.508 103.108 619.672 103.381 620.669 103.926C621.666 104.463 622.441 105.281 622.995 106.381C623.549 107.472 623.826 108.852 623.826 110.523V123H620.809V110.727C620.809 109.185 620.409 107.983 619.608 107.122C618.806 106.253 617.707 105.818 616.309 105.818C615.346 105.818 614.485 106.027 613.727 106.445C612.977 106.862 612.385 107.472 611.95 108.273C611.515 109.074 611.298 110.045 611.298 111.188ZM637.879 103.364V105.92H627.703V103.364H637.879ZM630.669 98.6591H633.686V117.375C633.686 118.227 633.81 118.866 634.057 119.293C634.313 119.71 634.636 119.991 635.028 120.136C635.429 120.273 635.851 120.341 636.294 120.341C636.626 120.341 636.899 120.324 637.112 120.29C637.325 120.247 637.496 120.213 637.624 120.188L638.237 122.898C638.033 122.974 637.747 123.051 637.381 123.128C637.014 123.213 636.55 123.256 635.987 123.256C635.135 123.256 634.3 123.072 633.482 122.706C632.672 122.339 631.999 121.781 631.462 121.031C630.933 120.281 630.669 119.335 630.669 118.193V98.6591ZM642.418 123V103.364H645.332V106.33H645.537C645.895 105.358 646.543 104.57 647.48 103.964C648.418 103.359 649.474 103.057 650.651 103.057C650.872 103.057 651.149 103.061 651.482 103.07C651.814 103.078 652.065 103.091 652.236 103.108V106.176C652.134 106.151 651.899 106.112 651.533 106.061C651.175 106.001 650.795 105.972 650.395 105.972C649.44 105.972 648.588 106.172 647.838 106.572C647.097 106.964 646.509 107.51 646.074 108.209C645.648 108.899 645.435 109.687 645.435 110.574V123H642.418ZM655.812 123V103.364H658.829V123H655.812ZM657.346 100.091C656.758 100.091 656.251 99.8906 655.825 99.4901C655.407 99.0895 655.199 98.608 655.199 98.0455C655.199 97.483 655.407 97.0014 655.825 96.6009C656.251 96.2003 656.758 96 657.346 96C657.934 96 658.437 96.2003 658.855 96.6009C659.281 97.0014 659.494 97.483 659.494 98.0455C659.494 98.608 659.281 99.0895 658.855 99.4901C658.437 99.8906 657.934 100.091 657.346 100.091ZM672.588 123.409C670.696 123.409 669.064 122.991 667.692 122.156C666.328 121.312 665.276 120.136 664.534 118.628C663.801 117.111 663.435 115.347 663.435 113.335C663.435 111.324 663.801 109.551 664.534 108.017C665.276 106.474 666.307 105.273 667.628 104.412C668.957 103.543 670.509 103.108 672.281 103.108C673.304 103.108 674.314 103.278 675.311 103.619C676.308 103.96 677.216 104.514 678.034 105.281C678.852 106.04 679.504 107.045 679.99 108.298C680.476 109.551 680.719 111.094 680.719 112.926V114.205H665.582V111.597H677.651C677.651 110.489 677.429 109.5 676.986 108.631C676.551 107.761 675.929 107.075 675.119 106.572C674.318 106.07 673.372 105.818 672.281 105.818C671.08 105.818 670.04 106.116 669.162 106.713C668.293 107.301 667.624 108.068 667.155 109.014C666.686 109.96 666.452 110.974 666.452 112.057V113.795C666.452 115.278 666.707 116.536 667.219 117.567C667.739 118.589 668.459 119.369 669.379 119.906C670.3 120.435 671.369 120.699 672.588 120.699C673.381 120.699 674.097 120.588 674.736 120.366C675.384 120.136 675.942 119.795 676.411 119.344C676.879 118.884 677.241 118.312 677.497 117.631L680.412 118.449C680.105 119.438 679.589 120.307 678.865 121.057C678.141 121.798 677.246 122.378 676.18 122.795C675.115 123.205 673.918 123.409 672.588 123.409ZM685.308 123V103.364H688.223V106.33H688.428C688.786 105.358 689.433 104.57 690.371 103.964C691.308 103.359 692.365 103.057 693.541 103.057C693.763 103.057 694.04 103.061 694.372 103.07C694.705 103.078 694.956 103.091 695.126 103.108V106.176C695.024 106.151 694.79 106.112 694.423 106.061C694.065 106.001 693.686 105.972 693.286 105.972C692.331 105.972 691.479 106.172 690.729 106.572C689.987 106.964 689.399 107.51 688.964 108.209C688.538 108.899 688.325 109.687 688.325 110.574V123H685.308ZM706.338 123.409C704.446 123.409 702.814 122.991 701.442 122.156C700.078 121.312 699.026 120.136 698.284 118.628C697.551 117.111 697.185 115.347 697.185 113.335C697.185 111.324 697.551 109.551 698.284 108.017C699.026 106.474 700.057 105.273 701.378 104.412C702.707 103.543 704.259 103.108 706.031 103.108C707.054 103.108 708.064 103.278 709.061 103.619C710.058 103.96 710.966 104.514 711.784 105.281C712.602 106.04 713.254 107.045 713.74 108.298C714.226 109.551 714.469 111.094 714.469 112.926V114.205H699.332V111.597H711.401C711.401 110.489 711.179 109.5 710.736 108.631C710.301 107.761 709.679 107.075 708.869 106.572C708.068 106.07 707.122 105.818 706.031 105.818C704.83 105.818 703.79 106.116 702.912 106.713C702.043 107.301 701.374 108.068 700.905 109.014C700.436 109.96 700.202 110.974 700.202 112.057V113.795C700.202 115.278 700.457 116.536 700.969 117.567C701.489 118.589 702.209 119.369 703.129 119.906C704.05 120.435 705.119 120.699 706.338 120.699C707.131 120.699 707.847 120.588 708.486 120.366C709.134 120.136 709.692 119.795 710.161 119.344C710.629 118.884 710.991 118.312 711.247 117.631L714.162 118.449C713.855 119.438 713.339 120.307 712.615 121.057C711.891 121.798 710.996 122.378 709.93 122.795C708.865 123.205 707.668 123.409 706.338 123.409ZM722.075 111.188V123H719.058V103.364H721.973V106.432H722.229C722.689 105.435 723.388 104.634 724.325 104.028C725.263 103.415 726.473 103.108 727.956 103.108C729.286 103.108 730.449 103.381 731.446 103.926C732.443 104.463 733.219 105.281 733.773 106.381C734.327 107.472 734.604 108.852 734.604 110.523V123H731.587V110.727C731.587 109.185 731.186 107.983 730.385 107.122C729.584 106.253 728.484 105.818 727.087 105.818C726.124 105.818 725.263 106.027 724.504 106.445C723.754 106.862 723.162 107.472 722.727 108.273C722.293 109.074 722.075 110.045 722.075 111.188ZM757.657 123.409C756.02 123.409 754.576 122.996 753.323 122.169C752.07 121.334 751.09 120.158 750.382 118.641C749.675 117.115 749.321 115.312 749.321 113.233C749.321 111.17 749.675 109.381 750.382 107.864C751.09 106.347 752.074 105.175 753.336 104.348C754.597 103.521 756.054 103.108 757.708 103.108C758.986 103.108 759.996 103.321 760.738 103.747C761.488 104.165 762.059 104.642 762.451 105.179C762.851 105.707 763.162 106.142 763.384 106.483H763.64V96.8182H766.657V123H763.742V119.983H763.384C763.162 120.341 762.847 120.793 762.438 121.338C762.029 121.875 761.445 122.357 760.686 122.783C759.928 123.2 758.918 123.409 757.657 123.409ZM758.066 120.699C759.276 120.699 760.299 120.384 761.134 119.753C761.969 119.114 762.604 118.232 763.039 117.107C763.473 115.973 763.691 114.665 763.691 113.182C763.691 111.716 763.478 110.433 763.051 109.334C762.625 108.226 761.995 107.365 761.159 106.751C760.324 106.129 759.293 105.818 758.066 105.818C756.787 105.818 755.722 106.146 754.87 106.803C754.026 107.45 753.391 108.332 752.965 109.449C752.547 110.557 752.338 111.801 752.338 113.182C752.338 114.58 752.551 115.849 752.978 116.991C753.412 118.125 754.051 119.028 754.895 119.702C755.748 120.366 756.804 120.699 758.066 120.699ZM772.601 123V103.364H775.618V123H772.601ZM774.135 100.091C773.547 100.091 773.04 99.8906 772.614 99.4901C772.196 99.0895 771.988 98.608 771.988 98.0455C771.988 97.483 772.196 97.0014 772.614 96.6009C773.04 96.2003 773.547 96 774.135 96C774.723 96 775.226 96.2003 775.644 96.6009C776.07 97.0014 776.283 97.483 776.283 98.0455C776.283 98.608 776.07 99.0895 775.644 99.4901C775.226 99.8906 774.723 100.091 774.135 100.091ZM789.377 123.409C787.485 123.409 785.853 122.991 784.481 122.156C783.117 121.312 782.065 120.136 781.323 118.628C780.59 117.111 780.224 115.347 780.224 113.335C780.224 111.324 780.59 109.551 781.323 108.017C782.065 106.474 783.096 105.273 784.417 104.412C785.746 103.543 787.298 103.108 789.07 103.108C790.093 103.108 791.103 103.278 792.1 103.619C793.097 103.96 794.005 104.514 794.823 105.281C795.641 106.04 796.293 107.045 796.779 108.298C797.265 109.551 797.508 111.094 797.508 112.926V114.205H782.371V111.597H794.44C794.44 110.489 794.218 109.5 793.775 108.631C793.34 107.761 792.718 107.075 791.908 106.572C791.107 106.07 790.161 105.818 789.07 105.818C787.869 105.818 786.829 106.116 785.951 106.713C785.082 107.301 784.413 108.068 783.944 109.014C783.475 109.96 783.241 110.974 783.241 112.057V113.795C783.241 115.278 783.496 116.536 784.008 117.567C784.528 118.589 785.248 119.369 786.168 119.906C787.089 120.435 788.158 120.699 789.377 120.699C790.17 120.699 790.886 120.588 791.525 120.366C792.173 120.136 792.731 119.795 793.2 119.344C793.668 118.884 794.031 118.312 794.286 117.631L797.201 118.449C796.894 119.438 796.379 120.307 795.654 121.057C794.93 121.798 794.035 122.378 792.969 122.795C791.904 123.205 790.707 123.409 789.377 123.409ZM401.489 147.364C401.335 146.068 400.713 145.062 399.622 144.347C398.531 143.631 397.193 143.273 395.608 143.273C394.449 143.273 393.435 143.46 392.565 143.835C391.705 144.21 391.031 144.726 390.545 145.382C390.068 146.038 389.83 146.784 389.83 147.619C389.83 148.318 389.996 148.919 390.328 149.422C390.669 149.916 391.104 150.33 391.632 150.662C392.161 150.986 392.714 151.254 393.294 151.467C393.874 151.672 394.406 151.838 394.892 151.966L397.551 152.682C398.233 152.861 398.991 153.108 399.827 153.423C400.67 153.739 401.476 154.169 402.243 154.714C403.018 155.251 403.658 155.942 404.161 156.786C404.663 157.629 404.915 158.665 404.915 159.892C404.915 161.307 404.544 162.585 403.803 163.727C403.07 164.869 401.996 165.777 400.581 166.45C399.175 167.124 397.466 167.46 395.455 167.46C393.58 167.46 391.956 167.158 390.584 166.553C389.22 165.947 388.146 165.104 387.362 164.021C386.587 162.939 386.148 161.682 386.045 160.25H389.318C389.403 161.239 389.736 162.057 390.315 162.705C390.903 163.344 391.645 163.821 392.54 164.136C393.443 164.443 394.415 164.597 395.455 164.597C396.665 164.597 397.751 164.401 398.714 164.009C399.678 163.608 400.44 163.054 401.003 162.347C401.565 161.631 401.847 160.795 401.847 159.841C401.847 158.972 401.604 158.264 401.118 157.719C400.632 157.173 399.993 156.73 399.2 156.389C398.408 156.048 397.551 155.75 396.631 155.494L393.409 154.574C391.364 153.986 389.744 153.146 388.551 152.055C387.358 150.964 386.761 149.537 386.761 147.773C386.761 146.307 387.158 145.028 387.95 143.938C388.751 142.838 389.825 141.986 391.172 141.381C392.527 140.767 394.04 140.46 395.71 140.46C397.398 140.46 398.898 140.763 400.21 141.368C401.523 141.964 402.563 142.783 403.33 143.822C404.105 144.862 404.514 146.043 404.557 147.364H401.489ZM417.696 167.409C415.855 167.409 414.27 166.974 412.94 166.105C411.61 165.236 410.588 164.038 409.872 162.513C409.156 160.987 408.798 159.244 408.798 157.284C408.798 155.29 409.164 153.53 409.897 152.004C410.639 150.47 411.67 149.273 412.991 148.412C414.321 147.543 415.872 147.108 417.645 147.108C419.025 147.108 420.27 147.364 421.377 147.875C422.485 148.386 423.393 149.102 424.1 150.023C424.808 150.943 425.247 152.017 425.417 153.244H422.4C422.17 152.349 421.659 151.557 420.866 150.866C420.082 150.168 419.025 149.818 417.696 149.818C416.52 149.818 415.488 150.125 414.602 150.739C413.724 151.344 413.038 152.2 412.544 153.308C412.058 154.408 411.815 155.699 411.815 157.182C411.815 158.699 412.054 160.02 412.531 161.145C413.017 162.27 413.699 163.143 414.576 163.766C415.463 164.388 416.502 164.699 417.696 164.699C418.48 164.699 419.191 164.562 419.831 164.29C420.47 164.017 421.011 163.625 421.454 163.114C421.897 162.602 422.213 161.989 422.4 161.273H425.417C425.247 162.432 424.825 163.476 424.152 164.405C423.487 165.325 422.605 166.058 421.505 166.604C420.414 167.141 419.145 167.409 417.696 167.409ZM432.845 155.188V167H429.828V140.818H432.845V150.432H433.1C433.561 149.418 434.251 148.612 435.172 148.016C436.1 147.411 437.336 147.108 438.879 147.108C440.217 147.108 441.389 147.376 442.395 147.913C443.4 148.442 444.18 149.256 444.734 150.355C445.297 151.446 445.578 152.835 445.578 154.523V167H442.561V154.727C442.561 153.168 442.156 151.962 441.346 151.109C440.545 150.249 439.433 149.818 438.01 149.818C437.021 149.818 436.135 150.027 435.35 150.445C434.575 150.862 433.961 151.472 433.51 152.273C433.066 153.074 432.845 154.045 432.845 155.188ZM455.546 167L449.563 147.364H452.734L456.978 162.398H457.183L461.376 147.364H464.597L468.739 162.347H468.944L473.188 147.364H476.359L470.376 167H467.41L463.114 151.915H462.808L458.512 167H455.546ZM486.126 167.46C484.881 167.46 483.752 167.226 482.738 166.757C481.724 166.28 480.918 165.594 480.322 164.699C479.725 163.795 479.427 162.705 479.427 161.426C479.427 160.301 479.648 159.389 480.092 158.69C480.535 157.983 481.127 157.429 481.869 157.028C482.61 156.628 483.428 156.33 484.323 156.134C485.227 155.929 486.134 155.767 487.046 155.648C488.239 155.494 489.207 155.379 489.948 155.303C490.698 155.217 491.244 155.077 491.585 154.881C491.934 154.685 492.109 154.344 492.109 153.858V153.756C492.109 152.494 491.763 151.514 491.073 150.815C490.391 150.116 489.356 149.767 487.967 149.767C486.526 149.767 485.397 150.082 484.579 150.713C483.761 151.344 483.185 152.017 482.853 152.733L479.989 151.71C480.501 150.517 481.183 149.588 482.035 148.923C482.896 148.25 483.833 147.781 484.847 147.517C485.87 147.244 486.876 147.108 487.864 147.108C488.495 147.108 489.219 147.185 490.038 147.338C490.864 147.483 491.661 147.786 492.428 148.246C493.204 148.706 493.847 149.401 494.359 150.33C494.87 151.259 495.126 152.503 495.126 154.062V167H492.109V164.341H491.955C491.751 164.767 491.41 165.223 490.933 165.709C490.455 166.195 489.82 166.608 489.028 166.949C488.235 167.29 487.268 167.46 486.126 167.46ZM486.586 164.75C487.779 164.75 488.785 164.516 489.603 164.047C490.43 163.578 491.052 162.973 491.469 162.232C491.896 161.49 492.109 160.71 492.109 159.892V157.131C491.981 157.284 491.7 157.425 491.265 157.553C490.839 157.672 490.344 157.778 489.782 157.872C489.228 157.957 488.687 158.034 488.158 158.102C487.638 158.162 487.217 158.213 486.893 158.256C486.109 158.358 485.376 158.524 484.694 158.754C484.021 158.976 483.475 159.312 483.058 159.764C482.648 160.207 482.444 160.812 482.444 161.58C482.444 162.628 482.832 163.42 483.607 163.957C484.391 164.486 485.384 164.75 486.586 164.75ZM508.61 167.409C506.769 167.409 505.184 166.974 503.854 166.105C502.525 165.236 501.502 164.038 500.786 162.513C500.07 160.987 499.712 159.244 499.712 157.284C499.712 155.29 500.078 153.53 500.811 152.004C501.553 150.47 502.584 149.273 503.905 148.412C505.235 147.543 506.786 147.108 508.559 147.108C509.939 147.108 511.184 147.364 512.292 147.875C513.4 148.386 514.307 149.102 515.015 150.023C515.722 150.943 516.161 152.017 516.331 153.244H513.314C513.084 152.349 512.573 151.557 511.78 150.866C510.996 150.168 509.939 149.818 508.61 149.818C507.434 149.818 506.402 150.125 505.516 150.739C504.638 151.344 503.952 152.2 503.458 153.308C502.972 154.408 502.729 155.699 502.729 157.182C502.729 158.699 502.968 160.02 503.445 161.145C503.931 162.27 504.613 163.143 505.49 163.766C506.377 164.388 507.417 164.699 508.61 164.699C509.394 164.699 510.105 164.562 510.745 164.29C511.384 164.017 511.925 163.625 512.368 163.114C512.811 162.602 513.127 161.989 513.314 161.273H516.331C516.161 162.432 515.739 163.476 515.066 164.405C514.401 165.325 513.519 166.058 512.419 166.604C511.328 167.141 510.059 167.409 508.61 167.409ZM523.759 155.188V167H520.742V140.818H523.759V150.432H524.015C524.475 149.418 525.165 148.612 526.086 148.016C527.015 147.411 528.25 147.108 529.793 147.108C531.131 147.108 532.303 147.376 533.309 147.913C534.314 148.442 535.094 149.256 535.648 150.355C536.211 151.446 536.492 152.835 536.492 154.523V167H533.475V154.727C533.475 153.168 533.07 151.962 532.26 151.109C531.459 150.249 530.347 149.818 528.924 149.818C527.935 149.818 527.049 150.027 526.265 150.445C525.489 150.862 524.875 151.472 524.424 152.273C523.98 153.074 523.759 154.045 523.759 155.188ZM555.92 151.761L553.21 152.528C553.04 152.077 552.788 151.638 552.456 151.212C552.132 150.777 551.689 150.419 551.126 150.138C550.564 149.857 549.844 149.716 548.966 149.716C547.764 149.716 546.763 149.993 545.962 150.547C545.169 151.092 544.773 151.787 544.773 152.631C544.773 153.381 545.045 153.973 545.591 154.408C546.136 154.842 546.989 155.205 548.148 155.494L551.062 156.21C552.818 156.636 554.126 157.288 554.987 158.166C555.848 159.036 556.278 160.156 556.278 161.528C556.278 162.653 555.955 163.659 555.307 164.545C554.668 165.432 553.773 166.131 552.622 166.642C551.472 167.153 550.134 167.409 548.608 167.409C546.605 167.409 544.947 166.974 543.635 166.105C542.322 165.236 541.491 163.966 541.142 162.295L544.006 161.58C544.278 162.636 544.794 163.429 545.553 163.957C546.32 164.486 547.321 164.75 548.557 164.75C549.963 164.75 551.08 164.452 551.906 163.855C552.741 163.25 553.159 162.526 553.159 161.682C553.159 161 552.92 160.429 552.443 159.969C551.966 159.5 551.233 159.151 550.244 158.92L546.972 158.153C545.173 157.727 543.852 157.067 543.009 156.172C542.173 155.268 541.756 154.139 541.756 152.784C541.756 151.676 542.067 150.696 542.689 149.844C543.32 148.991 544.176 148.322 545.259 147.837C546.349 147.351 547.585 147.108 548.966 147.108C550.909 147.108 552.435 147.534 553.543 148.386C554.659 149.239 555.452 150.364 555.92 151.761ZM569.36 147.364V149.92H559.184V147.364H569.36ZM562.15 142.659H565.167V161.375C565.167 162.227 565.29 162.866 565.537 163.293C565.793 163.71 566.117 163.991 566.509 164.136C566.909 164.273 567.331 164.341 567.775 164.341C568.107 164.341 568.38 164.324 568.593 164.29C568.806 164.247 568.976 164.213 569.104 164.188L569.718 166.898C569.513 166.974 569.228 167.051 568.861 167.128C568.495 167.213 568.03 167.256 567.468 167.256C566.615 167.256 565.78 167.072 564.962 166.706C564.152 166.339 563.479 165.781 562.942 165.031C562.414 164.281 562.15 163.335 562.15 162.193V142.659ZM581.92 167.409C580.028 167.409 578.396 166.991 577.024 166.156C575.66 165.312 574.608 164.136 573.866 162.628C573.133 161.111 572.767 159.347 572.767 157.335C572.767 155.324 573.133 153.551 573.866 152.017C574.608 150.474 575.639 149.273 576.96 148.412C578.289 147.543 579.841 147.108 581.613 147.108C582.636 147.108 583.646 147.278 584.643 147.619C585.64 147.96 586.548 148.514 587.366 149.281C588.184 150.04 588.836 151.045 589.322 152.298C589.808 153.551 590.051 155.094 590.051 156.926V158.205H574.914V155.597H586.983C586.983 154.489 586.761 153.5 586.318 152.631C585.883 151.761 585.261 151.075 584.451 150.572C583.65 150.07 582.704 149.818 581.613 149.818C580.412 149.818 579.372 150.116 578.494 150.713C577.625 151.301 576.956 152.068 576.487 153.014C576.018 153.96 575.784 154.974 575.784 156.057V157.795C575.784 159.278 576.039 160.536 576.551 161.567C577.071 162.589 577.791 163.369 578.711 163.906C579.632 164.435 580.701 164.699 581.92 164.699C582.713 164.699 583.429 164.588 584.068 164.366C584.716 164.136 585.274 163.795 585.743 163.344C586.211 162.884 586.574 162.312 586.829 161.631L589.744 162.449C589.437 163.438 588.922 164.307 588.197 165.057C587.473 165.798 586.578 166.378 585.512 166.795C584.447 167.205 583.25 167.409 581.92 167.409ZM597.657 140.818V167H594.64V140.818H597.657ZM606.2 140.818V167H603.183V140.818H606.2ZM619.959 167.409C618.067 167.409 616.435 166.991 615.063 166.156C613.699 165.312 612.647 164.136 611.905 162.628C611.172 161.111 610.806 159.347 610.806 157.335C610.806 155.324 611.172 153.551 611.905 152.017C612.647 150.474 613.678 149.273 614.999 148.412C616.328 147.543 617.88 147.108 619.652 147.108C620.675 147.108 621.685 147.278 622.682 147.619C623.679 147.96 624.587 148.514 625.405 149.281C626.223 150.04 626.875 151.045 627.361 152.298C627.847 153.551 628.09 155.094 628.09 156.926V158.205H612.953V155.597H625.022C625.022 154.489 624.8 153.5 624.357 152.631C623.922 151.761 623.3 151.075 622.49 150.572C621.689 150.07 620.743 149.818 619.652 149.818C618.451 149.818 617.411 150.116 616.533 150.713C615.664 151.301 614.995 152.068 614.526 153.014C614.057 153.96 613.823 154.974 613.823 156.057V157.795C613.823 159.278 614.078 160.536 614.59 161.567C615.11 162.589 615.83 163.369 616.75 163.906C617.671 164.435 618.74 164.699 619.959 164.699C620.752 164.699 621.468 164.588 622.107 164.366C622.755 164.136 623.313 163.795 623.782 163.344C624.25 162.884 624.613 162.312 624.868 161.631L627.783 162.449C627.476 163.438 626.961 164.307 626.236 165.057C625.512 165.798 624.617 166.378 623.551 166.795C622.486 167.205 621.289 167.409 619.959 167.409ZM635.696 155.188V167H632.679V147.364H635.594V150.432H635.85C636.31 149.435 637.009 148.634 637.946 148.028C638.884 147.415 640.094 147.108 641.577 147.108C642.907 147.108 644.07 147.381 645.067 147.926C646.064 148.463 646.84 149.281 647.394 150.381C647.948 151.472 648.225 152.852 648.225 154.523V167H645.208V154.727C645.208 153.185 644.807 151.983 644.006 151.122C643.205 150.253 642.105 149.818 640.708 149.818C639.745 149.818 638.884 150.027 638.125 150.445C637.375 150.862 636.783 151.472 636.348 152.273C635.914 153.074 635.696 154.045 635.696 155.188ZM663.3 167V164.699L674.448 150.381V150.176H663.658V147.364H678.335V149.767L667.494 163.983V164.188H678.692V167H663.3ZM695.714 158.972V147.364H698.732V167H695.714V163.676H695.51C695.05 164.673 694.334 165.521 693.362 166.22C692.391 166.911 691.163 167.256 689.68 167.256C688.453 167.256 687.362 166.987 686.408 166.45C685.453 165.905 684.703 165.087 684.158 163.996C683.612 162.896 683.339 161.511 683.339 159.841V147.364H686.357V159.636C686.357 161.068 686.757 162.21 687.558 163.062C688.368 163.915 689.399 164.341 690.652 164.341C691.402 164.341 692.165 164.149 692.94 163.766C693.724 163.382 694.381 162.794 694.909 162.001C695.446 161.209 695.714 160.199 695.714 158.972ZM723.127 147.364V149.92H712.542V147.364H723.127ZM715.712 167V144.653C715.712 143.528 715.976 142.591 716.505 141.841C717.033 141.091 717.719 140.528 718.563 140.153C719.407 139.778 720.297 139.591 721.235 139.591C721.976 139.591 722.581 139.651 723.05 139.77C723.519 139.889 723.868 140 724.098 140.102L723.229 142.71C723.076 142.659 722.863 142.595 722.59 142.518C722.326 142.442 721.976 142.403 721.542 142.403C720.544 142.403 719.824 142.655 719.381 143.158C718.946 143.661 718.729 144.398 718.729 145.369V167H715.712ZM727.355 167V147.364H730.372V167H727.355ZM728.889 144.091C728.301 144.091 727.794 143.891 727.368 143.49C726.95 143.089 726.741 142.608 726.741 142.045C726.741 141.483 726.95 141.001 727.368 140.601C727.794 140.2 728.301 140 728.889 140C729.477 140 729.98 140.2 730.398 140.601C730.824 141.001 731.037 141.483 731.037 142.045C731.037 142.608 730.824 143.089 730.398 143.49C729.98 143.891 729.477 144.091 728.889 144.091ZM738.915 155.188V167H735.898V147.364H738.813V150.432H739.069C739.529 149.435 740.228 148.634 741.165 148.028C742.103 147.415 743.313 147.108 744.796 147.108C746.125 147.108 747.289 147.381 748.286 147.926C749.283 148.463 750.059 149.281 750.613 150.381C751.167 151.472 751.444 152.852 751.444 154.523V167H748.426V154.727C748.426 153.185 748.026 151.983 747.225 151.122C746.424 150.253 745.324 149.818 743.926 149.818C742.963 149.818 742.103 150.027 741.344 150.445C740.594 150.862 740.002 151.472 739.567 152.273C739.132 153.074 738.915 154.045 738.915 155.188ZM764.371 167.409C762.735 167.409 761.29 166.996 760.038 166.169C758.785 165.334 757.805 164.158 757.097 162.641C756.39 161.115 756.036 159.312 756.036 157.233C756.036 155.17 756.39 153.381 757.097 151.864C757.805 150.347 758.789 149.175 760.05 148.348C761.312 147.521 762.769 147.108 764.423 147.108C765.701 147.108 766.711 147.321 767.452 147.747C768.202 148.165 768.773 148.642 769.165 149.179C769.566 149.707 769.877 150.142 770.099 150.483H770.354V140.818H773.371V167H770.457V163.983H770.099C769.877 164.341 769.562 164.793 769.153 165.338C768.744 165.875 768.16 166.357 767.401 166.783C766.643 167.2 765.633 167.409 764.371 167.409ZM764.781 164.699C765.991 164.699 767.013 164.384 767.849 163.753C768.684 163.114 769.319 162.232 769.754 161.107C770.188 159.973 770.406 158.665 770.406 157.182C770.406 155.716 770.192 154.433 769.766 153.334C769.34 152.226 768.71 151.365 767.874 150.751C767.039 150.129 766.008 149.818 764.781 149.818C763.502 149.818 762.437 150.146 761.585 150.803C760.741 151.45 760.106 152.332 759.68 153.449C759.262 154.557 759.053 155.801 759.053 157.182C759.053 158.58 759.266 159.849 759.692 160.991C760.127 162.125 760.766 163.028 761.61 163.702C762.462 164.366 763.519 164.699 764.781 164.699ZM787.549 167.409C785.657 167.409 784.025 166.991 782.653 166.156C781.289 165.312 780.237 164.136 779.495 162.628C778.762 161.111 778.396 159.347 778.396 157.335C778.396 155.324 778.762 153.551 779.495 152.017C780.237 150.474 781.268 149.273 782.589 148.412C783.918 147.543 785.469 147.108 787.242 147.108C788.265 147.108 789.275 147.278 790.272 147.619C791.269 147.96 792.177 148.514 792.995 149.281C793.813 150.04 794.465 151.045 794.951 152.298C795.437 153.551 795.68 155.094 795.68 156.926V158.205H780.543V155.597H792.612C792.612 154.489 792.39 153.5 791.947 152.631C791.512 151.761 790.89 151.075 790.08 150.572C789.279 150.07 788.333 149.818 787.242 149.818C786.04 149.818 785.001 150.116 784.123 150.713C783.254 151.301 782.585 152.068 782.116 153.014C781.647 153.96 781.413 154.974 781.413 156.057V157.795C781.413 159.278 781.668 160.536 782.18 161.567C782.7 162.589 783.42 163.369 784.34 163.906C785.261 164.435 786.33 164.699 787.549 164.699C788.342 164.699 789.058 164.588 789.697 164.366C790.344 164.136 790.903 163.795 791.371 163.344C791.84 162.884 792.202 162.312 792.458 161.631L795.373 162.449C795.066 163.438 794.55 164.307 793.826 165.057C793.102 165.798 792.207 166.378 791.141 166.795C790.076 167.205 788.879 167.409 787.549 167.409ZM803.286 155.188V167H800.269V147.364H803.184V150.432H803.44C803.9 149.435 804.599 148.634 805.536 148.028C806.474 147.415 807.684 147.108 809.167 147.108C810.496 147.108 811.66 147.381 812.657 147.926C813.654 148.463 814.43 149.281 814.984 150.381C815.538 151.472 815.815 152.852 815.815 154.523V167H812.798V154.727C812.798 153.185 812.397 151.983 811.596 151.122C810.795 150.253 809.695 149.818 808.298 149.818C807.335 149.818 806.474 150.027 805.715 150.445C804.965 150.862 804.373 151.472 803.938 152.273C803.504 153.074 803.286 154.045 803.286 155.188ZM825.828 163.42L825.623 164.801C825.478 165.773 825.257 166.812 824.958 167.92C824.669 169.028 824.366 170.072 824.051 171.053C823.735 172.033 823.475 172.813 823.271 173.392H820.97C821.081 172.847 821.225 172.126 821.404 171.232C821.583 170.337 821.762 169.335 821.941 168.227C822.129 167.128 822.282 166.003 822.402 164.852L822.555 163.42H825.828ZM848.957 167.409C847.321 167.409 845.876 166.996 844.624 166.169C843.371 165.334 842.391 164.158 841.683 162.641C840.976 161.115 840.622 159.312 840.622 157.233C840.622 155.17 840.976 153.381 841.683 151.864C842.391 150.347 843.375 149.175 844.636 148.348C845.898 147.521 847.355 147.108 849.009 147.108C850.287 147.108 851.297 147.321 852.038 147.747C852.788 148.165 853.359 148.642 853.751 149.179C854.152 149.707 854.463 150.142 854.685 150.483H854.94V140.818H857.957V167H855.043V163.983H854.685C854.463 164.341 854.148 164.793 853.739 165.338C853.33 165.875 852.746 166.357 851.987 166.783C851.229 167.2 850.219 167.409 848.957 167.409ZM849.366 164.699C850.577 164.699 851.599 164.384 852.435 163.753C853.27 163.114 853.905 162.232 854.339 161.107C854.774 159.973 854.991 158.665 854.991 157.182C854.991 155.716 854.778 154.433 854.352 153.334C853.926 152.226 853.295 151.365 852.46 150.751C851.625 150.129 850.594 149.818 849.366 149.818C848.088 149.818 847.023 150.146 846.17 150.803C845.327 151.45 844.692 152.332 844.266 153.449C843.848 154.557 843.639 155.801 843.639 157.182C843.639 158.58 843.852 159.849 844.278 160.991C844.713 162.125 845.352 163.028 846.196 163.702C847.048 164.366 848.105 164.699 849.366 164.699ZM863.902 167V147.364H866.919V167H863.902ZM865.436 144.091C864.848 144.091 864.341 143.891 863.915 143.49C863.497 143.089 863.288 142.608 863.288 142.045C863.288 141.483 863.497 141.001 863.915 140.601C864.341 140.2 864.848 140 865.436 140C866.024 140 866.527 140.2 866.945 140.601C867.371 141.001 867.584 141.483 867.584 142.045C867.584 142.608 867.371 143.089 866.945 143.49C866.527 143.891 866.024 144.091 865.436 144.091ZM880.678 167.409C878.786 167.409 877.154 166.991 875.782 166.156C874.418 165.312 873.365 164.136 872.624 162.628C871.891 161.111 871.525 159.347 871.525 157.335C871.525 155.324 871.891 153.551 872.624 152.017C873.365 150.474 874.397 149.273 875.718 148.412C877.047 147.543 878.598 147.108 880.371 147.108C881.394 147.108 882.404 147.278 883.401 147.619C884.398 147.96 885.306 148.514 886.124 149.281C886.942 150.04 887.594 151.045 888.08 152.298C888.566 153.551 888.809 155.094 888.809 156.926V158.205H873.672V155.597H885.74C885.74 154.489 885.519 153.5 885.076 152.631C884.641 151.761 884.019 151.075 883.209 150.572C882.408 150.07 881.462 149.818 880.371 149.818C879.169 149.818 878.13 150.116 877.252 150.713C876.382 151.301 875.713 152.068 875.245 153.014C874.776 153.96 874.542 154.974 874.542 156.057V157.795C874.542 159.278 874.797 160.536 875.309 161.567C875.828 162.589 876.549 163.369 877.469 163.906C878.39 164.435 879.459 164.699 880.678 164.699C881.471 164.699 882.186 164.588 882.826 164.366C883.473 164.136 884.032 163.795 884.5 163.344C884.969 162.884 885.331 162.312 885.587 161.631L888.502 162.449C888.195 163.438 887.679 164.307 886.955 165.057C886.23 165.798 885.336 166.378 884.27 166.795C883.205 167.205 882.007 167.409 880.678 167.409ZM394.176 211.409C392.54 211.409 391.095 210.996 389.842 210.169C388.589 209.334 387.609 208.158 386.902 206.641C386.195 205.115 385.841 203.312 385.841 201.233C385.841 199.17 386.195 197.381 386.902 195.864C387.609 194.347 388.594 193.175 389.855 192.348C391.116 191.521 392.574 191.108 394.227 191.108C395.506 191.108 396.516 191.321 397.257 191.747C398.007 192.165 398.578 192.642 398.97 193.179C399.371 193.707 399.682 194.142 399.903 194.483H400.159V184.818H403.176V211H400.261V207.983H399.903C399.682 208.341 399.366 208.793 398.957 209.338C398.548 209.875 397.964 210.357 397.206 210.783C396.447 211.2 395.438 211.409 394.176 211.409ZM394.585 208.699C395.795 208.699 396.818 208.384 397.653 207.753C398.489 207.114 399.124 206.232 399.558 205.107C399.993 203.973 400.21 202.665 400.21 201.182C400.21 199.716 399.997 198.433 399.571 197.334C399.145 196.226 398.514 195.365 397.679 194.751C396.844 194.129 395.813 193.818 394.585 193.818C393.307 193.818 392.241 194.146 391.389 194.803C390.545 195.45 389.911 196.332 389.484 197.449C389.067 198.557 388.858 199.801 388.858 201.182C388.858 202.58 389.071 203.849 389.497 204.991C389.932 206.125 390.571 207.028 391.415 207.702C392.267 208.366 393.324 208.699 394.585 208.699ZM409.121 211V191.364H412.138V211H409.121ZM410.655 188.091C410.067 188.091 409.56 187.891 409.134 187.49C408.716 187.089 408.507 186.608 408.507 186.045C408.507 185.483 408.716 185.001 409.134 184.601C409.56 184.2 410.067 184 410.655 184C411.243 184 411.746 184.2 412.163 184.601C412.589 185.001 412.803 185.483 412.803 186.045C412.803 186.608 412.589 187.089 412.163 187.49C411.746 187.891 411.243 188.091 410.655 188.091ZM425.897 211.409C424.005 211.409 422.373 210.991 421 210.156C419.637 209.312 418.584 208.136 417.843 206.628C417.11 205.111 416.743 203.347 416.743 201.335C416.743 199.324 417.11 197.551 417.843 196.017C418.584 194.474 419.615 193.273 420.936 192.412C422.266 191.543 423.817 191.108 425.59 191.108C426.613 191.108 427.623 191.278 428.62 191.619C429.617 191.96 430.525 192.514 431.343 193.281C432.161 194.04 432.813 195.045 433.299 196.298C433.784 197.551 434.027 199.094 434.027 200.926V202.205H418.891V199.597H430.959C430.959 198.489 430.738 197.5 430.294 196.631C429.86 195.761 429.238 195.075 428.428 194.572C427.627 194.07 426.681 193.818 425.59 193.818C424.388 193.818 423.348 194.116 422.471 194.713C421.601 195.301 420.932 196.068 420.463 197.014C419.995 197.96 419.76 198.974 419.76 200.057V201.795C419.76 203.278 420.016 204.536 420.527 205.567C421.047 206.589 421.767 207.369 422.688 207.906C423.608 208.435 424.678 208.699 425.897 208.699C426.689 208.699 427.405 208.588 428.044 208.366C428.692 208.136 429.25 207.795 429.719 207.344C430.188 206.884 430.55 206.312 430.806 205.631L433.721 206.449C433.414 207.438 432.898 208.307 432.174 209.057C431.449 209.798 430.554 210.378 429.489 210.795C428.424 211.205 427.226 211.409 425.897 211.409ZM449.151 211V184.818H452.321V196.477H466.282V184.818H469.452V211H466.282V199.29H452.321V211H449.151ZM481.169 211.46C479.924 211.46 478.795 211.226 477.781 210.757C476.767 210.28 475.961 209.594 475.365 208.699C474.768 207.795 474.47 206.705 474.47 205.426C474.47 204.301 474.691 203.389 475.135 202.69C475.578 201.983 476.17 201.429 476.912 201.028C477.653 200.628 478.471 200.33 479.366 200.134C480.27 199.929 481.177 199.767 482.089 199.648C483.282 199.494 484.25 199.379 484.991 199.303C485.741 199.217 486.287 199.077 486.627 198.881C486.977 198.685 487.152 198.344 487.152 197.858V197.756C487.152 196.494 486.806 195.514 486.116 194.815C485.434 194.116 484.399 193.767 483.01 193.767C481.569 193.767 480.44 194.082 479.622 194.713C478.804 195.344 478.228 196.017 477.896 196.733L475.032 195.71C475.544 194.517 476.225 193.588 477.078 192.923C477.939 192.25 478.876 191.781 479.89 191.517C480.913 191.244 481.919 191.108 482.907 191.108C483.538 191.108 484.262 191.185 485.081 191.338C485.907 191.483 486.704 191.786 487.471 192.246C488.247 192.706 488.89 193.401 489.402 194.33C489.913 195.259 490.169 196.503 490.169 198.062V211H487.152V208.341H486.998C486.794 208.767 486.453 209.223 485.975 209.709C485.498 210.195 484.863 210.608 484.071 210.949C483.278 211.29 482.311 211.46 481.169 211.46ZM481.629 208.75C482.822 208.75 483.828 208.516 484.646 208.047C485.473 207.578 486.095 206.973 486.512 206.232C486.939 205.49 487.152 204.71 487.152 203.892V201.131C487.024 201.284 486.743 201.425 486.308 201.553C485.882 201.672 485.387 201.778 484.825 201.872C484.271 201.957 483.73 202.034 483.201 202.102C482.681 202.162 482.26 202.213 481.936 202.256C481.152 202.358 480.419 202.524 479.737 202.754C479.064 202.976 478.518 203.312 478.1 203.764C477.691 204.207 477.487 204.812 477.487 205.58C477.487 206.628 477.875 207.42 478.65 207.957C479.434 208.486 480.427 208.75 481.629 208.75ZM503.653 211.409C501.812 211.409 500.227 210.974 498.897 210.105C497.567 209.236 496.545 208.038 495.829 206.513C495.113 204.987 494.755 203.244 494.755 201.284C494.755 199.29 495.121 197.53 495.854 196.004C496.596 194.47 497.627 193.273 498.948 192.412C500.278 191.543 501.829 191.108 503.602 191.108C504.982 191.108 506.227 191.364 507.335 191.875C508.442 192.386 509.35 193.102 510.058 194.023C510.765 194.943 511.204 196.017 511.374 197.244H508.357C508.127 196.349 507.616 195.557 506.823 194.866C506.039 194.168 504.982 193.818 503.653 193.818C502.477 193.818 501.445 194.125 500.559 194.739C499.681 195.344 498.995 196.2 498.501 197.308C498.015 198.408 497.772 199.699 497.772 201.182C497.772 202.699 498.011 204.02 498.488 205.145C498.974 206.27 499.656 207.143 500.533 207.766C501.42 208.388 502.46 208.699 503.653 208.699C504.437 208.699 505.148 208.562 505.788 208.29C506.427 208.017 506.968 207.625 507.411 207.114C507.854 206.602 508.17 205.989 508.357 205.273H511.374C511.204 206.432 510.782 207.476 510.109 208.405C509.444 209.325 508.562 210.058 507.462 210.604C506.371 211.141 505.102 211.409 503.653 211.409ZM518.597 203.841L518.546 200.108H519.16L527.751 191.364H531.484L522.33 200.619H522.075L518.597 203.841ZM515.785 211V184.818H518.802V211H515.785ZM528.262 211L520.592 201.284L522.739 199.188L532.097 211H528.262ZM542.791 211.409C540.899 211.409 539.267 210.991 537.895 210.156C536.531 209.312 535.479 208.136 534.737 206.628C534.004 205.111 533.638 203.347 533.638 201.335C533.638 199.324 534.004 197.551 534.737 196.017C535.479 194.474 536.51 193.273 537.831 192.412C539.161 191.543 540.712 191.108 542.484 191.108C543.507 191.108 544.517 191.278 545.514 191.619C546.511 191.96 547.419 192.514 548.237 193.281C549.055 194.04 549.707 195.045 550.193 196.298C550.679 197.551 550.922 199.094 550.922 200.926V202.205H535.786V199.597H547.854C547.854 198.489 547.632 197.5 547.189 196.631C546.754 195.761 546.132 195.075 545.322 194.572C544.521 194.07 543.575 193.818 542.484 193.818C541.283 193.818 540.243 194.116 539.365 194.713C538.496 195.301 537.827 196.068 537.358 197.014C536.889 197.96 536.655 198.974 536.655 200.057V201.795C536.655 203.278 536.911 204.536 537.422 205.567C537.942 206.589 538.662 207.369 539.582 207.906C540.503 208.435 541.572 208.699 542.791 208.699C543.584 208.699 544.3 208.588 544.939 208.366C545.587 208.136 546.145 207.795 546.614 207.344C547.082 206.884 547.445 206.312 547.7 205.631L550.615 206.449C550.308 207.438 549.793 208.307 549.068 209.057C548.344 209.798 547.449 210.378 546.384 210.795C545.318 211.205 544.121 211.409 542.791 211.409ZM555.511 211V191.364H558.426V194.33H558.631C558.989 193.358 559.636 192.57 560.574 191.964C561.511 191.359 562.568 191.057 563.744 191.057C563.966 191.057 564.243 191.061 564.575 191.07C564.908 191.078 565.159 191.091 565.33 191.108V194.176C565.227 194.151 564.993 194.112 564.626 194.061C564.268 194.001 563.889 193.972 563.489 193.972C562.534 193.972 561.682 194.172 560.932 194.572C560.19 194.964 559.602 195.51 559.168 196.209C558.741 196.899 558.528 197.687 558.528 198.574V211H555.511ZM584.809 211.46C583.565 211.46 582.436 211.226 581.422 210.757C580.407 210.28 579.602 209.594 579.005 208.699C578.409 207.795 578.11 206.705 578.11 205.426C578.11 204.301 578.332 203.389 578.775 202.69C579.218 201.983 579.811 201.429 580.552 201.028C581.294 200.628 582.112 200.33 583.007 200.134C583.91 199.929 584.818 199.767 585.73 199.648C586.923 199.494 587.89 199.379 588.632 199.303C589.382 199.217 589.927 199.077 590.268 198.881C590.618 198.685 590.792 198.344 590.792 197.858V197.756C590.792 196.494 590.447 195.514 589.757 194.815C589.075 194.116 588.039 193.767 586.65 193.767C585.21 193.767 584.081 194.082 583.262 194.713C582.444 195.344 581.869 196.017 581.537 196.733L578.673 195.71C579.184 194.517 579.866 193.588 580.718 192.923C581.579 192.25 582.517 191.781 583.531 191.517C584.554 191.244 585.559 191.108 586.548 191.108C587.179 191.108 587.903 191.185 588.721 191.338C589.548 191.483 590.345 191.786 591.112 192.246C591.887 192.706 592.531 193.401 593.042 194.33C593.554 195.259 593.809 196.503 593.809 198.062V211H590.792V208.341H590.639C590.434 208.767 590.093 209.223 589.616 209.709C589.139 210.195 588.504 210.608 587.711 210.949C586.919 211.29 585.951 211.46 584.809 211.46ZM585.27 208.75C586.463 208.75 587.468 208.516 588.287 208.047C589.113 207.578 589.735 206.973 590.153 206.232C590.579 205.49 590.792 204.71 590.792 203.892V201.131C590.664 201.284 590.383 201.425 589.949 201.553C589.522 201.672 589.028 201.778 588.466 201.872C587.912 201.957 587.37 202.034 586.842 202.102C586.322 202.162 585.9 202.213 585.576 202.256C584.792 202.358 584.059 202.524 583.377 202.754C582.704 202.976 582.159 203.312 581.741 203.764C581.332 204.207 581.127 204.812 581.127 205.58C581.127 206.628 581.515 207.42 582.291 207.957C583.075 208.486 584.068 208.75 585.27 208.75ZM611.691 202.972V191.364H614.708V211H611.691V207.676H611.487C611.026 208.673 610.31 209.521 609.339 210.22C608.367 210.911 607.14 211.256 605.657 211.256C604.43 211.256 603.339 210.987 602.384 210.45C601.43 209.905 600.68 209.087 600.134 207.996C599.589 206.896 599.316 205.511 599.316 203.841V191.364H602.333V203.636C602.333 205.068 602.734 206.21 603.535 207.062C604.344 207.915 605.376 208.341 606.629 208.341C607.379 208.341 608.141 208.149 608.917 207.766C609.701 207.382 610.357 206.794 610.886 206.001C611.423 205.209 611.691 204.199 611.691 202.972ZM634.143 195.761L631.433 196.528C631.262 196.077 631.011 195.638 630.679 195.212C630.355 194.777 629.912 194.419 629.349 194.138C628.787 193.857 628.066 193.716 627.189 193.716C625.987 193.716 624.985 193.993 624.184 194.547C623.392 195.092 622.995 195.787 622.995 196.631C622.995 197.381 623.268 197.973 623.814 198.408C624.359 198.842 625.211 199.205 626.37 199.494L629.285 200.21C631.041 200.636 632.349 201.288 633.21 202.166C634.071 203.036 634.501 204.156 634.501 205.528C634.501 206.653 634.177 207.659 633.529 208.545C632.89 209.432 631.995 210.131 630.845 210.642C629.694 211.153 628.356 211.409 626.831 211.409C624.828 211.409 623.17 210.974 621.858 210.105C620.545 209.236 619.714 207.966 619.365 206.295L622.228 205.58C622.501 206.636 623.017 207.429 623.775 207.957C624.542 208.486 625.544 208.75 626.779 208.75C628.186 208.75 629.302 208.452 630.129 207.855C630.964 207.25 631.382 206.526 631.382 205.682C631.382 205 631.143 204.429 630.666 203.969C630.189 203.5 629.456 203.151 628.467 202.92L625.194 202.153C623.396 201.727 622.075 201.067 621.231 200.172C620.396 199.268 619.978 198.139 619.978 196.784C619.978 195.676 620.289 194.696 620.912 193.844C621.542 192.991 622.399 192.322 623.481 191.837C624.572 191.351 625.808 191.108 627.189 191.108C629.132 191.108 630.657 191.534 631.765 192.386C632.882 193.239 633.674 194.364 634.143 195.761ZM646.969 218.773C645.511 218.773 644.259 218.585 643.21 218.21C642.162 217.844 641.288 217.358 640.589 216.753C639.899 216.156 639.349 215.517 638.94 214.835L641.344 213.148C641.616 213.506 641.962 213.915 642.379 214.375C642.797 214.844 643.368 215.249 644.092 215.589C644.825 215.939 645.784 216.114 646.969 216.114C648.554 216.114 649.862 215.73 650.893 214.963C651.925 214.196 652.44 212.994 652.44 211.358V207.369H652.185C651.963 207.727 651.648 208.17 651.239 208.699C650.838 209.219 650.259 209.683 649.5 210.092C648.75 210.493 647.736 210.693 646.457 210.693C644.872 210.693 643.449 210.318 642.188 209.568C640.935 208.818 639.942 207.727 639.209 206.295C638.484 204.864 638.122 203.125 638.122 201.08C638.122 199.068 638.476 197.317 639.183 195.825C639.891 194.325 640.875 193.166 642.136 192.348C643.398 191.521 644.855 191.108 646.509 191.108C647.787 191.108 648.801 191.321 649.551 191.747C650.31 192.165 650.889 192.642 651.29 193.179C651.699 193.707 652.014 194.142 652.236 194.483H652.543V191.364H655.457V211.562C655.457 213.25 655.074 214.622 654.307 215.679C653.548 216.744 652.526 217.524 651.239 218.018C649.96 218.521 648.537 218.773 646.969 218.773ZM646.866 207.983C648.077 207.983 649.099 207.706 649.935 207.152C650.77 206.598 651.405 205.801 651.839 204.761C652.274 203.722 652.491 202.477 652.491 201.028C652.491 199.614 652.278 198.365 651.852 197.283C651.426 196.2 650.795 195.352 649.96 194.739C649.125 194.125 648.094 193.818 646.866 193.818C645.588 193.818 644.523 194.142 643.67 194.79C642.827 195.437 642.192 196.307 641.766 197.398C641.348 198.489 641.139 199.699 641.139 201.028C641.139 202.392 641.352 203.598 641.778 204.646C642.213 205.686 642.852 206.504 643.696 207.101C644.548 207.689 645.605 207.983 646.866 207.983ZM669.213 211.409C667.321 211.409 665.689 210.991 664.317 210.156C662.953 209.312 661.901 208.136 661.159 206.628C660.426 205.111 660.06 203.347 660.06 201.335C660.06 199.324 660.426 197.551 661.159 196.017C661.901 194.474 662.932 193.273 664.253 192.412C665.582 191.543 667.134 191.108 668.906 191.108C669.929 191.108 670.939 191.278 671.936 191.619C672.933 191.96 673.841 192.514 674.659 193.281C675.477 194.04 676.129 195.045 676.615 196.298C677.101 197.551 677.344 199.094 677.344 200.926V202.205H662.207V199.597H674.276C674.276 198.489 674.054 197.5 673.611 196.631C673.176 195.761 672.554 195.075 671.744 194.572C670.943 194.07 669.997 193.818 668.906 193.818C667.705 193.818 666.665 194.116 665.787 194.713C664.918 195.301 664.249 196.068 663.78 197.014C663.311 197.96 663.077 198.974 663.077 200.057V201.795C663.077 203.278 663.332 204.536 663.844 205.567C664.364 206.589 665.084 207.369 666.004 207.906C666.925 208.435 667.994 208.699 669.213 208.699C670.006 208.699 670.722 208.588 671.361 208.366C672.009 208.136 672.567 207.795 673.036 207.344C673.504 206.884 673.866 206.312 674.122 205.631L677.037 206.449C676.73 207.438 676.214 208.307 675.49 209.057C674.766 209.798 673.871 210.378 672.805 210.795C671.74 211.205 670.543 211.409 669.213 211.409ZM684.95 199.188V211H681.933V191.364H684.848V194.432H685.104C685.564 193.435 686.263 192.634 687.2 192.028C688.138 191.415 689.348 191.108 690.831 191.108C692.161 191.108 693.324 191.381 694.321 191.926C695.318 192.463 696.094 193.281 696.648 194.381C697.202 195.472 697.479 196.852 697.479 198.523V211H694.462V198.727C694.462 197.185 694.061 195.983 693.26 195.122C692.459 194.253 691.359 193.818 689.962 193.818C688.999 193.818 688.138 194.027 687.379 194.445C686.629 194.862 686.037 195.472 685.602 196.273C685.168 197.074 684.95 198.045 684.95 199.188ZM715.367 202.972V191.364H718.384V211H715.367V207.676H715.162C714.702 208.673 713.986 209.521 713.015 210.22C712.043 210.911 710.816 211.256 709.333 211.256C708.105 211.256 707.015 210.987 706.06 210.45C705.105 209.905 704.355 209.087 703.81 207.996C703.265 206.896 702.992 205.511 702.992 203.841V191.364H706.009V203.636C706.009 205.068 706.409 206.21 707.211 207.062C708.02 207.915 709.051 208.341 710.304 208.341C711.054 208.341 711.817 208.149 712.593 207.766C713.377 207.382 714.033 206.794 714.561 206.001C715.098 205.209 715.367 204.199 715.367 202.972ZM732.45 191.364V193.92H722.273V191.364H732.45ZM725.239 186.659H728.256V205.375C728.256 206.227 728.38 206.866 728.627 207.293C728.883 207.71 729.207 207.991 729.599 208.136C729.999 208.273 730.421 208.341 730.864 208.341C731.197 208.341 731.469 208.324 731.683 208.29C731.896 208.247 732.066 208.213 732.194 208.188L732.808 210.898C732.603 210.974 732.317 211.051 731.951 211.128C731.585 211.213 731.12 211.256 730.558 211.256C729.705 211.256 728.87 211.072 728.052 210.706C727.242 210.339 726.569 209.781 726.032 209.031C725.504 208.281 725.239 207.335 725.239 206.193V186.659ZM736.425 211V208.699L747.573 194.381V194.176H736.783V191.364H751.46V193.767L740.619 207.983V208.188H751.817V211H736.425ZM765.004 191.364V193.92H754.828V191.364H765.004ZM757.794 186.659H760.811V205.375C760.811 206.227 760.935 206.866 761.182 207.293C761.438 207.71 761.761 207.991 762.153 208.136C762.554 208.273 762.976 208.341 763.419 208.341C763.751 208.341 764.024 208.324 764.237 208.29C764.45 208.247 764.621 208.213 764.749 208.188L765.362 210.898C765.158 210.974 764.872 211.051 764.506 211.128C764.139 211.213 763.675 211.256 763.112 211.256C762.26 211.256 761.425 211.072 760.607 210.706C759.797 210.339 759.124 209.781 758.587 209.031C758.058 208.281 757.794 207.335 757.794 206.193V186.659ZM782.685 199.188V211H779.668V184.818H782.685V194.432H782.94C783.401 193.418 784.091 192.612 785.011 192.016C785.94 191.411 787.176 191.108 788.719 191.108C790.057 191.108 791.229 191.376 792.234 191.913C793.24 192.442 794.02 193.256 794.574 194.355C795.136 195.446 795.418 196.835 795.418 198.523V211H792.401V198.727C792.401 197.168 791.996 195.962 791.186 195.109C790.385 194.249 789.273 193.818 787.849 193.818C786.861 193.818 785.974 194.027 785.19 194.445C784.415 194.862 783.801 195.472 783.349 196.273C782.906 197.074 782.685 198.045 782.685 199.188ZM806.716 211.46C805.471 211.46 804.342 211.226 803.328 210.757C802.314 210.28 801.508 209.594 800.912 208.699C800.315 207.795 800.017 206.705 800.017 205.426C800.017 204.301 800.238 203.389 800.681 202.69C801.125 201.983 801.717 201.429 802.458 201.028C803.2 200.628 804.018 200.33 804.913 200.134C805.816 199.929 806.724 199.767 807.636 199.648C808.829 199.494 809.797 199.379 810.538 199.303C811.288 199.217 811.833 199.077 812.174 198.881C812.524 198.685 812.699 198.344 812.699 197.858V197.756C812.699 196.494 812.353 195.514 811.663 194.815C810.981 194.116 809.946 193.767 808.556 193.767C807.116 193.767 805.987 194.082 805.169 194.713C804.35 195.344 803.775 196.017 803.443 196.733L800.579 195.71C801.091 194.517 801.772 193.588 802.625 192.923C803.485 192.25 804.423 191.781 805.437 191.517C806.46 191.244 807.466 191.108 808.454 191.108C809.085 191.108 809.809 191.185 810.627 191.338C811.454 191.483 812.251 191.786 813.018 192.246C813.794 192.706 814.437 193.401 814.949 194.33C815.46 195.259 815.716 196.503 815.716 198.062V211H812.699V208.341H812.545C812.341 208.767 812 209.223 811.522 209.709C811.045 210.195 810.41 210.608 809.618 210.949C808.825 211.29 807.858 211.46 806.716 211.46ZM807.176 208.75C808.369 208.75 809.375 208.516 810.193 208.047C811.02 207.578 811.642 206.973 812.059 206.232C812.485 205.49 812.699 204.71 812.699 203.892V201.131C812.571 201.284 812.289 201.425 811.855 201.553C811.429 201.672 810.934 201.778 810.372 201.872C809.818 201.957 809.277 202.034 808.748 202.102C808.228 202.162 807.806 202.213 807.483 202.256C806.699 202.358 805.966 202.524 805.284 202.754C804.61 202.976 804.065 203.312 803.647 203.764C803.238 204.207 803.034 204.812 803.034 205.58C803.034 206.628 803.422 207.42 804.197 207.957C804.981 208.486 805.974 208.75 807.176 208.75ZM821.631 211V184.818H824.648V194.483H824.904C825.126 194.142 825.433 193.707 825.825 193.179C826.225 192.642 826.796 192.165 827.538 191.747C828.288 191.321 829.302 191.108 830.58 191.108C832.234 191.108 833.691 191.521 834.952 192.348C836.214 193.175 837.198 194.347 837.906 195.864C838.613 197.381 838.967 199.17 838.967 201.233C838.967 203.312 838.613 205.115 837.906 206.641C837.198 208.158 836.218 209.334 834.965 210.169C833.712 210.996 832.268 211.409 830.631 211.409C829.37 211.409 828.36 211.2 827.602 210.783C826.843 210.357 826.259 209.875 825.85 209.338C825.441 208.793 825.126 208.341 824.904 207.983H824.546V211H821.631ZM824.597 201.182C824.597 202.665 824.815 203.973 825.249 205.107C825.684 206.232 826.319 207.114 827.154 207.753C827.989 208.384 829.012 208.699 830.222 208.699C831.484 208.699 832.536 208.366 833.38 207.702C834.232 207.028 834.871 206.125 835.298 204.991C835.732 203.849 835.95 202.58 835.95 201.182C835.95 199.801 835.737 198.557 835.31 197.449C834.893 196.332 834.258 195.45 833.406 194.803C832.562 194.146 831.501 193.818 830.222 193.818C828.995 193.818 827.964 194.129 827.129 194.751C826.293 195.365 825.663 196.226 825.237 197.334C824.81 198.433 824.597 199.716 824.597 201.182ZM851.815 211.409C849.923 211.409 848.29 210.991 846.918 210.156C845.555 209.312 844.502 208.136 843.761 206.628C843.028 205.111 842.661 203.347 842.661 201.335C842.661 199.324 843.028 197.551 843.761 196.017C844.502 194.474 845.533 193.273 846.854 192.412C848.184 191.543 849.735 191.108 851.508 191.108C852.531 191.108 853.54 191.278 854.538 191.619C855.535 191.96 856.442 192.514 857.261 193.281C858.079 194.04 858.731 195.045 859.217 196.298C859.702 197.551 859.945 199.094 859.945 200.926V202.205H844.809V199.597H856.877C856.877 198.489 856.656 197.5 856.212 196.631C855.778 195.761 855.156 195.075 854.346 194.572C853.545 194.07 852.599 193.818 851.508 193.818C850.306 193.818 849.266 194.116 848.388 194.713C847.519 195.301 846.85 196.068 846.381 197.014C845.913 197.96 845.678 198.974 845.678 200.057V201.795C845.678 203.278 845.934 204.536 846.445 205.567C846.965 206.589 847.685 207.369 848.606 207.906C849.526 208.435 850.596 208.699 851.815 208.699C852.607 208.699 853.323 208.588 853.962 208.366C854.61 208.136 855.168 207.795 855.637 207.344C856.106 206.884 856.468 206.312 856.724 205.631L859.638 206.449C859.332 207.438 858.816 208.307 858.092 209.057C857.367 209.798 856.472 210.378 855.407 210.795C854.342 211.205 853.144 211.409 851.815 211.409ZM867.552 199.188V211H864.535V191.364H867.45V194.432H867.705C868.165 193.435 868.864 192.634 869.802 192.028C870.739 191.415 871.95 191.108 873.433 191.108C874.762 191.108 875.925 191.381 876.923 191.926C877.92 192.463 878.695 193.281 879.249 194.381C879.803 195.472 880.08 196.852 880.08 198.523V211H877.063V198.727C877.063 197.185 876.663 195.983 875.862 195.122C875.06 194.253 873.961 193.818 872.563 193.818C871.6 193.818 870.739 194.027 869.981 194.445C869.231 194.862 868.638 195.472 868.204 196.273C867.769 197.074 867.552 198.045 867.552 199.188ZM887.792 211.205C887.162 211.205 886.62 210.979 886.169 210.527C885.717 210.075 885.491 209.534 885.491 208.903C885.491 208.273 885.717 207.732 886.169 207.28C886.62 206.828 887.162 206.602 887.792 206.602C888.423 206.602 888.964 206.828 889.416 207.28C889.868 207.732 890.093 208.273 890.093 208.903C890.093 209.321 889.987 209.705 889.774 210.054C889.569 210.403 889.292 210.685 888.943 210.898C888.602 211.102 888.218 211.205 887.792 211.205Z" fill="black"/>
<path d="M332.114 673.424C336.146 674.264 340.97 676.113 341.444 680.482C341.998 685.356 336.383 688.213 331.876 689.222C314.874 693.171 297.318 693.675 279.842 694.18C187.479 696.532 95.115 696.953 2.74977 695.356C4.09374 683.34 17.5396 678.129 28.6894 675.86C76.6111 666.113 126.193 671.659 173.244 661.323C222.827 650.315 283.164 662.752 332.114 673.424Z" fill="url(#paint0_linear_458_2800)"/>
<path d="M332.114 673.424C336.146 674.264 340.97 676.113 341.444 680.482C341.998 685.356 336.383 688.213 331.876 689.222C314.874 693.171 297.318 693.675 279.842 694.18C187.479 696.532 95.115 696.953 2.74977 695.356C4.09374 683.34 17.5396 678.129 28.6894 675.86C76.6111 666.113 126.193 671.659 173.244 661.323C222.827 650.315 283.164 662.752 332.114 673.424Z" fill="url(#paint1_linear_458_2800)"/>
<path d="M80.5703 594.265C79.5423 593.929 78.435 594.265 77.407 594.602C72.8993 596.198 68.4708 598.299 64.5172 601.072C62.5399 602.417 60.5631 603.929 59.6143 606.198C58.7442 608.299 58.8234 610.652 58.9814 612.837C60.4051 639.895 61.7495 667.037 63.1727 694.096C63.2519 695.86 63.4892 697.793 64.7544 698.886C66.336 700.146 68.55 699.306 70.2896 698.465C87.2916 690.566 104.214 682.583 121.216 674.684C129.361 670.903 137.744 666.869 143.754 659.894C139.167 649.138 129.519 641.996 120.663 634.769C106.903 623.508 94.2505 610.568 83.1003 596.45C82.4674 595.61 81.6771 594.601 80.5703 594.265Z" fill="#DDC199"/>
<path d="M0.46262 454.855C4.65487 453.847 8.92729 452.838 13.1167 451.83C37.7892 499.98 59.6148 549.812 78.4355 600.904C74.0863 603.845 68.3138 606.87 64.1225 603.677C62.3829 602.332 61.3544 600.147 60.4056 598.047C39.0544 550.988 19.0476 503.258 0.46262 454.855Z" fill="#BDB39B"/>
<g opacity="0.26">
<path opacity="0.26" d="M78.2095 689.137C78.2887 690.062 76.9443 690.398 76.7864 689.474C73.3859 662.163 68.5627 635.357 62.3153 608.634C61.9201 606.954 64.3714 606.449 64.7665 608.13C71.2511 634.6 75.7583 661.827 78.2095 689.137Z" fill="#272525"/>
<path opacity="0.26" d="M105.004 677.121C94.5663 653.76 83.4953 630.735 71.7914 608.046C71.0798 606.701 73.1359 605.609 73.8475 606.954C86.0258 629.811 97.0175 653.34 107.061 677.289C106.903 677.457 106.824 677.625 106.745 677.793C106.191 677.373 105.637 677.205 105.004 677.121Z" fill="#272525"/>
<path opacity="0.26" d="M122.018 661.742C104.542 644.263 88.9631 624.852 75.3617 603.843C74.4916 602.415 76.7061 601.238 77.5762 602.667C90.9404 623.591 106.281 642.919 123.441 660.397C124.311 661.321 122.888 662.666 122.018 661.742Z" fill="#272525"/>
</g>
<path d="M243.236 618.214C243.156 616.954 242.998 615.609 242.92 614.348C253.358 606.785 271.704 609.222 282.775 613.088C294.637 617.205 294.637 624.936 294.479 638.045C294.4 645.44 293.767 653.76 288.39 658.549C284.278 662.247 278.505 662.751 273.127 663.087C268.304 663.423 263.559 663.675 258.735 664.011C255.414 664.179 251.697 664.263 249.088 661.994C246.478 659.642 246.083 655.692 245.766 652.078C244.897 640.734 244.026 629.474 243.236 618.214Z" fill="#2F3F47"/>
<path d="M230.494 618.214C230.573 616.954 230.731 615.609 230.811 614.348C220.372 606.785 202.026 609.222 190.955 613.088C179.093 617.205 179.093 624.936 179.251 638.045C179.33 645.44 179.963 653.76 185.341 658.549C189.453 662.247 195.225 662.751 200.603 663.087C205.426 663.423 210.171 663.675 214.995 664.011C218.316 664.179 222.033 664.263 224.642 661.994C227.252 659.642 227.647 655.692 227.963 652.078C228.754 640.734 229.624 629.474 230.494 618.214Z" fill="#2F3F47"/>
<path d="M319.553 590.148C322.163 590.735 324.693 591.576 327.145 592.668C328.964 593.424 330.782 594.433 332.048 595.945C333.787 598.13 334.262 601.156 334.578 604.097C334.973 607.963 335.132 611.828 335.052 615.693C335.052 618.97 334.815 622.332 333.233 625.105C331.019 628.971 326.67 630.735 322.558 631.827C314.729 633.929 306.584 634.432 298.518 634.853C249.727 637.374 200.777 635.692 152.223 629.895C150.246 629.643 148.032 629.307 146.688 627.71C145.897 626.786 145.501 625.525 145.106 624.348C142.576 615.777 140.915 604.097 146.371 596.114C151.036 589.307 159.656 593.172 166.14 593.088C172.783 593.004 179.505 592.416 186.148 592.164C199.117 591.576 212.085 590.987 225.054 590.567C243.321 589.895 261.667 589.307 279.935 588.803C292.271 588.551 306.821 587.122 319.553 590.148Z" fill="#516770"/>
<path d="M214.691 405.695C181.557 405.863 148.502 406.62 115.368 407.376C116.159 388.637 117.424 369.897 121.22 351.578C127.784 319.478 142.808 288.134 168.193 269.395C207.099 240.656 268.859 244.437 310.771 272.84C328.406 284.772 342.56 301.159 349.994 321.242C358.534 344.183 360.828 369.225 362.172 393.847C362.331 397.124 362.489 400.317 362.646 403.594C313.46 401.577 263.957 405.527 214.691 405.695Z" fill="#EAF1F2"/>
<path d="M217.343 415.108C265.897 415.024 314.61 411.327 363.164 413.175C365.536 469.141 363.322 525.359 356.521 580.989C355.572 588.636 354.386 596.618 349.641 602.668C342.287 611.996 329.555 607.878 319.67 607.878C302.985 607.878 285.825 608.635 268.981 609.055C237.191 609.811 205.639 609.895 174.008 606.114C158.983 604.35 128.617 609.223 121.421 594.853C115.49 583.173 117.941 559.476 117.071 546.451C116.043 530.989 115.252 515.611 114.778 500.149C113.908 472.334 114.066 444.519 115.095 416.62C149.098 415.948 183.26 415.108 217.343 415.108Z" fill="#E2ECED"/>
<path d="M102.671 505.696C102.038 505.107 101.959 504.099 101.88 503.259C100.22 479.982 98.7963 456.704 97.7683 433.427C97.6891 431.41 97.6891 429.058 99.1915 427.713C100.299 426.789 101.722 426.705 103.146 426.705C108.049 426.621 112.872 426.537 117.775 426.537C120.859 453.007 122.124 479.645 121.492 506.284C116.035 506.284 110.658 506.368 105.202 506.368C104.332 506.368 103.383 506.368 102.671 505.696Z" fill="#2F3F47"/>
<path d="M77.4635 559.309C76.8312 557.377 76.1191 555.36 74.6959 553.931C73.5886 552.839 72.0867 552.167 70.6631 551.662C64.4949 549.309 58.1688 547.545 51.763 546.368C46.7814 549.982 42.2737 554.268 38.3988 559.225C37.6872 560.15 36.9756 561.158 36.8172 562.335C36.6592 563.259 36.8964 564.183 37.1336 565.108C39.664 575.444 42.1157 585.78 44.6461 596.116C48.3626 596.62 52.0795 596.704 55.7171 596.2C54.294 589.897 52.8703 583.595 51.5258 577.376C50.1814 571.41 49.1534 564.099 53.4235 559.898C57.7727 561.074 62.0432 562.335 66.3925 563.511C67.1041 563.679 67.8954 563.931 68.5278 564.435C69.2394 565.108 69.5558 566.116 69.8722 567.04C71.6911 572.923 73.0355 578.973 73.9843 585.108C76.7519 584.267 79.5196 583.51 82.2872 582.67C82.5249 574.687 79.9945 566.873 77.4635 559.309Z" fill="#2F3F47"/>
<path d="M43.8579 550.234C43.6207 549.982 43.5419 549.647 43.4627 549.394C42.6719 545.613 41.8811 541.831 41.011 538.133C46.5468 536.789 52.24 535.864 57.8545 535.36C58.7246 538.47 59.2782 541.747 59.5154 545.024C59.5946 545.697 59.5946 546.537 59.1202 547.041C58.8038 547.377 58.4082 547.461 58.013 547.63C53.8217 548.974 49.4724 549.982 45.0439 550.57C44.7275 550.486 44.2535 550.571 43.8579 550.234Z" fill="#516770"/>
<path d="M38.3131 535.53C34.9919 529.563 37.6803 513.849 37.6803 507.547C37.7595 498.891 37.7595 490.152 39.6575 481.749C41.5551 473.345 45.4305 465.11 51.8358 459.816C55.4735 456.791 59.7435 454.859 64.172 453.262C77.3783 448.472 91.5329 446.876 105.372 448.64C106.479 448.808 107.665 448.976 108.456 449.817C109.326 450.657 109.484 452.001 109.642 453.262C110.275 458.052 111.144 463.346 110.907 468.219C110.512 476.791 112.172 474.438 106.32 476.875C101.813 478.724 93.3518 477.211 88.2117 478.472C82.2015 479.9 76.3498 482.085 70.4981 484.27C66.7817 485.614 62.8276 487.295 60.9295 490.908C59.9015 492.841 59.5851 495.194 59.3479 497.463C57.9247 510.909 57.2918 524.437 57.3711 537.967C57.3711 540.319 41.0812 539.143 38.946 536.538C38.7088 536.202 38.5503 535.866 38.3131 535.53Z" fill="#E2ECED"/>
<g opacity="0.15">
<path opacity="0.15" d="M65.9978 457.128C66.4722 465.195 68.449 472.506 71.4538 479.901C72.0075 481.329 70.3471 482.422 69.477 481.162C64.7326 474.103 62.2809 465.699 61.4109 457.128C61.0944 454.103 65.7601 454.018 65.9978 457.128Z" fill="#272525"/>
<path opacity="0.15" d="M53.8958 462.925C55.2398 470.741 58.5611 475.867 63.7804 481.413C64.492 482.169 63.5436 483.429 62.7528 482.841C59.1944 480.488 55.8731 478.976 53.3427 475.195C50.9702 471.665 49.3885 467.883 48.9142 463.598C48.5977 460.657 53.3422 459.984 53.8958 462.925Z" fill="#272525"/>
</g>
<path d="M370.926 427.209C371.559 427.797 371.637 428.806 371.717 429.646C373.377 452.923 374.801 476.2 375.829 499.477C375.908 501.494 375.908 503.847 374.405 505.191C373.298 506.116 371.875 506.2 370.452 506.2C365.549 506.284 360.725 506.368 355.822 506.368C352.738 479.898 351.473 453.259 352.105 426.621C357.562 426.621 362.939 426.537 368.395 426.537C369.265 426.537 370.293 426.537 370.926 427.209Z" fill="#2F3F47"/>
<path d="M432.221 398.554C431.984 400.571 431.747 402.755 432.459 404.604C433.012 406.116 434.04 407.377 435.147 408.554C439.655 413.511 444.557 418.134 449.856 422.251C455.866 421.411 461.717 419.646 467.174 417.041C468.202 416.537 469.309 416.033 469.942 415.024C470.416 414.268 470.653 413.343 470.812 412.419C472.868 401.999 475.003 391.495 477.059 381.075C473.975 378.89 470.653 377.041 467.174 375.696C465.829 381.999 464.406 388.301 463.062 394.604C461.718 400.57 459.582 407.629 454.047 409.31C450.647 406.201 447.325 403.091 443.925 399.982C443.371 399.478 442.739 398.89 442.422 398.134C442.027 397.209 442.185 396.116 442.344 395.108C443.213 388.974 444.479 382.924 446.218 376.957C443.371 376.369 440.604 375.781 437.757 375.192C434.119 382.335 433.17 390.57 432.221 398.554Z" fill="#2F3F47"/>
<path d="M458.492 422.503C458.571 422.839 458.492 423.176 458.492 423.428C457.622 427.209 456.752 430.906 455.962 434.688C450.426 433.259 444.97 431.411 439.672 429.226C440.146 426.032 441.016 422.839 442.202 419.814C442.439 419.142 442.755 418.469 443.388 418.217C443.783 418.049 444.179 418.133 444.653 418.217C449.003 418.974 453.273 420.15 457.464 421.663C457.86 421.831 458.334 422.083 458.492 422.503Z" fill="#516770"/>
<path d="M457.286 438.303C457.84 445.193 448.825 457.966 446.136 463.68C442.499 471.412 438.782 479.227 433.563 485.865C428.343 492.504 421.464 498.05 413.477 499.73C408.969 500.739 404.304 500.487 399.717 499.815C385.878 497.882 372.514 492.672 360.89 484.521C359.941 483.848 358.992 483.176 358.596 482C358.201 480.823 358.596 479.563 358.913 478.302C360.415 473.681 361.76 468.555 364.053 464.269C368.007 456.79 365.476 458.134 371.803 458.638C376.626 459.059 383.585 464.437 388.725 465.782C394.735 467.378 400.903 468.134 406.992 468.975C410.867 469.479 415.137 469.899 418.38 467.546C420.12 466.286 421.385 464.353 422.492 462.42C429.372 451.075 435.619 439.227 441.233 427.043C442.182 424.942 456.258 433.681 457.128 437.042C457.207 437.546 457.286 437.883 457.286 438.303Z" fill="#E2ECED"/>
<g opacity="0.15">
<path opacity="0.15" d="M399.812 495.442C402.739 487.963 404.003 480.484 404.478 472.417C404.557 470.821 406.534 470.653 406.771 472.25C408.037 480.821 406.771 489.476 403.924 497.543C402.896 500.484 398.626 498.299 399.812 495.442Z" fill="#272525"/>
<path opacity="0.15" d="M413.004 496.031C415.06 488.384 414.269 482.25 411.897 474.771C411.58 473.763 412.925 473.09 413.478 473.93C415.613 477.712 417.986 480.653 418.697 485.191C419.33 489.476 419.172 493.594 417.748 497.627C416.799 500.568 412.292 498.888 413.004 496.031Z" fill="#272525"/>
</g>
<path d="M340.565 350.739C340.487 353.932 340.329 357.209 339.063 360.151C335.821 367.461 327.281 369.814 319.768 371.159C276.829 378.805 232.94 381.411 189.763 375.612C184.07 374.856 178.376 373.932 173.157 371.411C167.937 368.89 163.272 364.604 161.374 358.974C160.188 355.36 160.109 351.495 160.03 347.63C159.951 343.764 159.951 339.815 159.872 335.949C159.872 334.185 159.872 332.42 160.504 330.739C161.216 328.974 162.639 327.546 164.142 326.453C169.835 322.336 177.031 321.411 183.911 320.655C229.618 315.781 275.879 311.496 321.349 318.05C323.247 318.302 325.225 318.638 326.569 320.067C327.281 320.739 327.755 321.664 328.467 322.336C329.811 323.428 331.63 323.344 333.211 323.932C337.64 325.445 339.221 331.244 339.775 336.202C340.407 340.991 340.645 345.865 340.565 350.739Z" fill="#2F3F47"/>
<path opacity="0.2" d="M283.322 357.796C281.819 354.855 281.582 351.41 281.898 348.049C282.056 346.032 282.531 343.932 283.717 342.419C286.248 339.226 290.913 339.562 294.788 338.806C298.188 340.318 301.036 343.259 302.459 346.873C303.329 349.057 303.724 351.41 303.487 353.763C302.933 358.553 299.216 362.671 294.788 363.511C290.281 364.52 285.456 362.082 283.322 357.796Z" fill="#EAF1F2"/>
<path opacity="0.2" d="M208.017 357.796C206.515 354.855 206.277 351.41 206.594 348.049C206.752 346.032 207.226 343.932 208.413 342.419C210.943 339.226 215.608 339.562 219.483 338.806C222.884 340.318 225.731 343.259 227.154 346.873C228.024 349.057 228.419 351.41 228.182 353.763C227.629 358.553 223.912 362.671 219.483 363.511C215.055 364.52 210.232 362.082 208.017 357.796Z" fill="#EAF1F2"/>
<defs>
<linearGradient id="paint0_linear_458_2800" x1="341.43" y1="676.658" x2="2.66016" y2="676.658" gradientUnits="userSpaceOnUse">
<stop stop-color="#4D4D4D"/>
<stop offset="1"/>
</linearGradient>
<linearGradient id="paint1_linear_458_2800" x1="341.43" y1="676.658" x2="2.66016" y2="676.658" gradientUnits="userSpaceOnUse">
<stop/>
<stop offset="1"/>
</linearGradient>
</defs>
</svg>
