<svg width="1199" height="772" viewBox="0 0 1199 772" fill="none" xmlns="http://www.w3.org/2000/svg">
<path d="M697.596 387C697.845 387 698.094 386.994 698.346 386.983C701.281 386.864 704.147 385.952 706.7 384.325C709.254 382.698 711.418 380.404 713.01 377.638C724.934 357.669 739.566 339.908 756.379 324.997C766.558 315.881 777.194 307.405 787.478 299.207C814.013 278.066 839.001 258.155 852.872 230.643C883.116 170.652 847.5 87.0923 796.619 49.6186C739.549 7.58992 664.483 0.997367 591.865 0.133407C584.318 0.0439794 576.767 -0.000465902 569.211 3.68211e-06C438.368 0.05622 307.801 13.4339 179.119 39.968C136.33 48.814 91.5399 59.6506 55.547 85.9492C19.7678 112.092 -1.97922 153.261 0.142339 190.835C3.23996 245.687 55.1323 286.673 102.385 297.389C147.424 307.594 194.212 300.697 243.746 293.393C254.682 291.782 265.988 290.115 277.169 288.666C398.685 272.928 626.961 321.438 636.618 323.511L646.2 325.566L683.376 379.173C685.048 381.617 687.202 383.595 689.668 384.952C692.135 386.31 694.848 387.011 697.596 387Z" fill="white"/>
<path d="M98.0511 100V66.5455H102.102V81.4432H119.94V66.5455H123.991V100H119.94V85.0369H102.102V100H98.0511ZM142.099 100.523C139.681 100.523 137.596 99.9891 135.843 98.9219C134.1 97.8438 132.755 96.3409 131.808 94.4134C130.871 92.4749 130.403 90.2206 130.403 87.6506C130.403 85.0805 130.871 82.8153 131.808 80.8551C132.755 78.884 134.073 77.3485 135.761 76.2486C137.46 75.1378 139.442 74.5824 141.707 74.5824C143.014 74.5824 144.304 74.8002 145.578 75.2358C146.853 75.6714 148.012 76.3793 149.058 77.3594C150.103 78.3286 150.936 79.6136 151.557 81.2145C152.178 82.8153 152.488 84.7865 152.488 87.1278V88.7614H133.147V85.429H148.568C148.568 84.0133 148.285 82.75 147.718 81.6392C147.163 80.5284 146.368 79.6518 145.333 79.0092C144.31 78.3667 143.101 78.0455 141.707 78.0455C140.172 78.0455 138.843 78.4266 137.721 79.1889C136.61 79.9403 135.756 80.9205 135.157 82.1293C134.558 83.3381 134.258 84.634 134.258 86.017V88.2386C134.258 90.1335 134.585 91.7398 135.238 93.0575C135.903 94.3643 136.823 95.3608 137.999 96.0469C139.175 96.7221 140.542 97.0597 142.099 97.0597C143.112 97.0597 144.027 96.9181 144.843 96.6349C145.671 96.3409 146.384 95.9053 146.983 95.3281C147.582 94.7401 148.045 94.0104 148.372 93.1392L152.096 94.1847C151.704 95.4479 151.045 96.5587 150.12 97.517C149.194 98.4645 148.051 99.205 146.689 99.7386C145.328 100.261 143.798 100.523 142.099 100.523ZM160.072 109.409C159.419 109.409 158.836 109.355 158.324 109.246C157.812 109.148 157.458 109.05 157.262 108.952L158.242 105.554C159.179 105.794 160.007 105.881 160.725 105.815C161.444 105.75 162.081 105.429 162.637 104.852C163.203 104.285 163.72 103.365 164.188 102.091L164.907 100.131L155.629 74.9091H159.811L166.737 94.9034H166.998L173.924 74.9091H178.106L167.455 103.659C166.976 104.955 166.383 106.028 165.675 106.877C164.967 107.737 164.145 108.375 163.208 108.788C162.283 109.202 161.237 109.409 160.072 109.409ZM188.291 66.5455L187.964 90.5909H184.175L183.848 66.5455H188.291ZM186.069 100.261C185.264 100.261 184.572 99.9728 183.995 99.3956C183.418 98.8184 183.129 98.1269 183.129 97.321C183.129 96.5152 183.418 95.8236 183.995 95.2464C184.572 94.6693 185.264 94.3807 186.069 94.3807C186.875 94.3807 187.567 94.6693 188.144 95.2464C188.721 95.8236 189.01 96.5152 189.01 97.321C189.01 97.8546 188.874 98.3447 188.601 98.7912C188.34 99.2377 187.986 99.5971 187.54 99.8693C187.104 100.131 186.614 100.261 186.069 100.261ZM98.0511 122.545H102.886L114.256 150.315H114.648L126.017 122.545H130.852V156H127.062V130.582H126.736L116.281 156H112.622L102.168 130.582H101.841V156H98.0511V122.545ZM148.972 156.523C146.555 156.523 144.469 155.989 142.716 154.922C140.973 153.844 139.628 152.341 138.681 150.413C137.744 148.475 137.276 146.221 137.276 143.651C137.276 141.08 137.744 138.815 138.681 136.855C139.628 134.884 140.946 133.348 142.634 132.249C144.333 131.138 146.315 130.582 148.58 130.582C149.887 130.582 151.177 130.8 152.452 131.236C153.726 131.671 154.885 132.379 155.931 133.359C156.976 134.329 157.809 135.614 158.43 137.214C159.051 138.815 159.361 140.786 159.361 143.128V144.761H140.02V141.429H155.441C155.441 140.013 155.158 138.75 154.591 137.639C154.036 136.528 153.241 135.652 152.206 135.009C151.183 134.367 149.974 134.045 148.58 134.045C147.045 134.045 145.716 134.427 144.594 135.189C143.483 135.94 142.629 136.92 142.03 138.129C141.431 139.338 141.131 140.634 141.131 142.017V144.239C141.131 146.134 141.458 147.74 142.111 149.058C142.776 150.364 143.696 151.361 144.872 152.047C146.048 152.722 147.415 153.06 148.972 153.06C149.985 153.06 150.9 152.918 151.716 152.635C152.544 152.341 153.257 151.905 153.856 151.328C154.455 150.74 154.918 150.01 155.245 149.139L158.969 150.185C158.577 151.448 157.918 152.559 156.993 153.517C156.067 154.464 154.924 155.205 153.562 155.739C152.201 156.261 150.671 156.523 148.972 156.523ZM165.226 156V130.909H169.081V156H165.226ZM167.186 126.727C166.434 126.727 165.787 126.471 165.242 125.96C164.708 125.448 164.442 124.832 164.442 124.114C164.442 123.395 164.708 122.78 165.242 122.268C165.787 121.756 166.434 121.5 167.186 121.5C167.937 121.5 168.58 121.756 169.113 122.268C169.658 122.78 169.93 123.395 169.93 124.114C169.93 124.832 169.658 125.448 169.113 125.96C168.58 126.471 167.937 126.727 167.186 126.727ZM179.997 140.906V156H176.142V130.909H179.866V134.83H180.193C180.781 133.555 181.674 132.532 182.872 131.759C184.07 130.974 185.616 130.582 187.511 130.582C189.21 130.582 190.696 130.931 191.971 131.628C193.245 132.314 194.236 133.359 194.944 134.764C195.651 136.158 196.005 137.922 196.005 140.057V156H192.15V140.318C192.15 138.347 191.638 136.812 190.615 135.712C189.591 134.601 188.186 134.045 186.4 134.045C185.17 134.045 184.07 134.312 183.1 134.846C182.142 135.379 181.385 136.158 180.83 137.182C180.275 138.205 179.997 139.447 179.997 140.906ZM243.039 122.545V156H239.118L220.888 129.733H220.561V156H216.51V122.545H220.431L238.726 148.878H239.053V122.545H243.039ZM258.006 156.588C256.416 156.588 254.973 156.289 253.677 155.69C252.381 155.08 251.352 154.203 250.589 153.06C249.827 151.905 249.446 150.511 249.446 148.878C249.446 147.44 249.729 146.275 250.295 145.382C250.862 144.478 251.619 143.77 252.566 143.259C253.513 142.747 254.559 142.366 255.702 142.115C256.857 141.854 258.017 141.647 259.182 141.494C260.706 141.298 261.942 141.151 262.89 141.053C263.848 140.944 264.545 140.765 264.981 140.514C265.427 140.264 265.651 139.828 265.651 139.207V139.077C265.651 137.465 265.21 136.213 264.327 135.32C263.456 134.427 262.133 133.98 260.358 133.98C258.518 133.98 257.075 134.383 256.029 135.189C254.984 135.995 254.249 136.855 253.824 137.77L250.165 136.463C250.818 134.938 251.689 133.751 252.778 132.902C253.878 132.042 255.076 131.443 256.372 131.105C257.679 130.757 258.964 130.582 260.227 130.582C261.033 130.582 261.959 130.68 263.004 130.876C264.061 131.062 265.079 131.448 266.059 132.036C267.05 132.624 267.872 133.512 268.526 134.699C269.179 135.886 269.506 137.476 269.506 139.469V156H265.651V152.602H265.455C265.193 153.147 264.758 153.729 264.148 154.35C263.538 154.971 262.727 155.499 261.714 155.935C260.701 156.37 259.465 156.588 258.006 156.588ZM258.594 153.125C260.118 153.125 261.403 152.826 262.449 152.227C263.505 151.628 264.3 150.854 264.834 149.907C265.378 148.96 265.651 147.963 265.651 146.918V143.389C265.487 143.585 265.128 143.765 264.572 143.928C264.028 144.081 263.396 144.217 262.678 144.337C261.97 144.446 261.278 144.544 260.603 144.631C259.939 144.707 259.4 144.772 258.986 144.827C257.984 144.957 257.047 145.17 256.176 145.464C255.316 145.747 254.619 146.177 254.085 146.754C253.563 147.321 253.301 148.094 253.301 149.074C253.301 150.413 253.797 151.426 254.788 152.112C255.79 152.787 257.058 153.125 258.594 153.125ZM276.542 156V130.909H280.267V134.83H280.593C281.116 133.49 281.96 132.45 283.125 131.71C284.29 130.958 285.69 130.582 287.323 130.582C288.979 130.582 290.356 130.958 291.456 131.71C292.567 132.45 293.433 133.49 294.053 134.83H294.315C294.957 133.534 295.921 132.504 297.206 131.742C298.491 130.969 300.032 130.582 301.829 130.582C304.072 130.582 305.907 131.285 307.334 132.69C308.761 134.084 309.474 136.256 309.474 139.207V156H305.619V139.207C305.619 137.356 305.112 136.033 304.1 135.238C303.087 134.443 301.894 134.045 300.522 134.045C298.758 134.045 297.391 134.579 296.422 135.646C295.453 136.703 294.968 138.042 294.968 139.665V156H291.048V138.815C291.048 137.389 290.585 136.24 289.659 135.369C288.734 134.487 287.541 134.045 286.082 134.045C285.08 134.045 284.143 134.312 283.272 134.846C282.412 135.379 281.715 136.12 281.181 137.067C280.659 138.004 280.397 139.088 280.397 140.318V156H276.542ZM327.042 156.523C324.625 156.523 322.539 155.989 320.786 154.922C319.044 153.844 317.699 152.341 316.751 150.413C315.815 148.475 315.346 146.221 315.346 143.651C315.346 141.08 315.815 138.815 316.751 136.855C317.699 134.884 319.016 133.348 320.704 132.249C322.403 131.138 324.385 130.582 326.65 130.582C327.957 130.582 329.248 130.8 330.522 131.236C331.796 131.671 332.956 132.379 334.001 133.359C335.047 134.329 335.88 135.614 336.501 137.214C337.121 138.815 337.432 140.786 337.432 143.128V144.761H318.091V141.429H333.511C333.511 140.013 333.228 138.75 332.662 137.639C332.106 136.528 331.311 135.652 330.277 135.009C329.253 134.367 328.044 134.045 326.65 134.045C325.115 134.045 323.786 134.427 322.665 135.189C321.554 135.94 320.699 136.92 320.1 138.129C319.501 139.338 319.202 140.634 319.202 142.017V144.239C319.202 146.134 319.528 147.74 320.182 149.058C320.846 150.364 321.766 151.361 322.942 152.047C324.118 152.722 325.485 153.06 327.042 153.06C328.055 153.06 328.97 152.918 329.787 152.635C330.614 152.341 331.328 151.905 331.927 151.328C332.526 150.74 332.988 150.01 333.315 149.139L337.04 150.185C336.648 151.448 335.989 152.559 335.063 153.517C334.137 154.464 332.994 155.205 331.633 155.739C330.271 156.261 328.741 156.523 327.042 156.523ZM356.233 156V130.909H360.089V156H356.233ZM358.194 126.727C357.442 126.727 356.794 126.471 356.25 125.96C355.716 125.448 355.449 124.832 355.449 124.114C355.449 123.395 355.716 122.78 356.25 122.268C356.794 121.756 357.442 121.5 358.194 121.5C358.945 121.5 359.588 121.756 360.121 122.268C360.666 122.78 360.938 123.395 360.938 124.114C360.938 124.832 360.666 125.448 360.121 125.96C359.588 126.471 358.945 126.727 358.194 126.727ZM384.922 136.528L381.459 137.509C381.241 136.931 380.92 136.371 380.495 135.826C380.082 135.271 379.515 134.813 378.797 134.454C378.078 134.094 377.158 133.915 376.036 133.915C374.5 133.915 373.221 134.269 372.197 134.977C371.184 135.674 370.678 136.561 370.678 137.639C370.678 138.598 371.026 139.354 371.723 139.91C372.42 140.465 373.509 140.928 374.99 141.298L378.715 142.213C380.958 142.758 382.63 143.591 383.73 144.712C384.83 145.823 385.38 147.255 385.38 149.009C385.38 150.446 384.966 151.731 384.138 152.864C383.321 153.996 382.178 154.889 380.708 155.543C379.238 156.196 377.528 156.523 375.578 156.523C373.019 156.523 370.901 155.967 369.224 154.857C367.547 153.746 366.485 152.123 366.039 149.989L369.698 149.074C370.046 150.424 370.705 151.437 371.674 152.112C372.654 152.787 373.934 153.125 375.513 153.125C377.31 153.125 378.737 152.744 379.793 151.982C380.86 151.208 381.394 150.283 381.394 149.205C381.394 148.333 381.089 147.604 380.479 147.016C379.869 146.417 378.933 145.97 377.669 145.676L373.488 144.696C371.19 144.152 369.502 143.308 368.424 142.164C367.356 141.01 366.823 139.567 366.823 137.835C366.823 136.42 367.22 135.167 368.015 134.078C368.821 132.989 369.916 132.134 371.299 131.513C372.693 130.893 374.272 130.582 376.036 130.582C378.519 130.582 380.468 131.127 381.884 132.216C383.31 133.305 384.323 134.742 384.922 136.528ZM402.095 130.909V134.176H389.092V130.909H402.095ZM392.882 124.898H396.737V148.812C396.737 149.902 396.895 150.718 397.21 151.263C397.537 151.796 397.951 152.156 398.452 152.341C398.964 152.515 399.503 152.602 400.069 152.602C400.494 152.602 400.842 152.58 401.115 152.537C401.387 152.482 401.605 152.439 401.768 152.406L402.552 155.869C402.291 155.967 401.926 156.065 401.458 156.163C400.989 156.272 400.396 156.327 399.677 156.327C398.588 156.327 397.521 156.093 396.475 155.624C395.441 155.156 394.58 154.443 393.894 153.484C393.219 152.526 392.882 151.317 392.882 149.858V124.898ZM434.161 122.545H438.212V146.46C438.212 148.595 437.82 150.408 437.036 151.9C436.252 153.392 435.146 154.524 433.72 155.298C432.293 156.071 430.61 156.457 428.672 156.457C426.843 156.457 425.214 156.125 423.788 155.461C422.361 154.786 421.24 153.827 420.423 152.586C419.606 151.344 419.198 149.869 419.198 148.159H423.183C423.183 149.107 423.418 149.934 423.886 150.642C424.365 151.339 425.018 151.884 425.846 152.276C426.674 152.668 427.616 152.864 428.672 152.864C429.837 152.864 430.828 152.619 431.645 152.129C432.462 151.638 433.083 150.92 433.507 149.972C433.943 149.014 434.161 147.843 434.161 146.46V122.545ZM456.001 156.523C453.736 156.523 451.748 155.984 450.039 154.906C448.34 153.827 447.011 152.319 446.053 150.381C445.105 148.442 444.632 146.177 444.632 143.585C444.632 140.972 445.105 138.69 446.053 136.741C447.011 134.791 448.34 133.278 450.039 132.2C451.748 131.121 453.736 130.582 456.001 130.582C458.266 130.582 460.248 131.121 461.947 132.2C463.657 133.278 464.985 134.791 465.933 136.741C466.891 138.69 467.37 140.972 467.37 143.585C467.37 146.177 466.891 148.442 465.933 150.381C464.985 152.319 463.657 153.827 461.947 154.906C460.248 155.984 458.266 156.523 456.001 156.523ZM456.001 153.06C457.722 153.06 459.137 152.619 460.248 151.737C461.359 150.854 462.181 149.695 462.715 148.257C463.248 146.82 463.515 145.262 463.515 143.585C463.515 141.908 463.248 140.345 462.715 138.897C462.181 137.449 461.359 136.278 460.248 135.385C459.137 134.492 457.722 134.045 456.001 134.045C454.28 134.045 452.865 134.492 451.754 135.385C450.643 136.278 449.821 137.449 449.287 138.897C448.753 140.345 448.487 141.908 448.487 143.585C448.487 145.262 448.753 146.82 449.287 148.257C449.821 149.695 450.643 150.854 451.754 151.737C452.865 152.619 454.28 153.06 456.001 153.06ZM489.067 145.741V130.909H492.923V156H489.067V151.753H488.806C488.218 153.027 487.303 154.111 486.062 155.004C484.82 155.886 483.252 156.327 481.357 156.327C479.789 156.327 478.395 155.984 477.175 155.298C475.956 154.601 474.997 153.555 474.3 152.161C473.603 150.756 473.255 148.987 473.255 146.852V130.909H477.11V146.591C477.11 148.42 477.622 149.88 478.646 150.969C479.68 152.058 480.998 152.602 482.599 152.602C483.557 152.602 484.532 152.357 485.523 151.867C486.525 151.377 487.363 150.626 488.038 149.613C488.724 148.6 489.067 147.31 489.067 145.741ZM503.839 122.545V156H499.983V122.545H503.839ZM521.419 156.523C519.002 156.523 516.916 155.989 515.163 154.922C513.421 153.844 512.076 152.341 511.128 150.413C510.192 148.475 509.723 146.221 509.723 143.651C509.723 141.08 510.192 138.815 511.128 136.855C512.076 134.884 513.393 133.348 515.081 132.249C516.78 131.138 518.762 130.582 521.027 130.582C522.334 130.582 523.625 130.8 524.899 131.236C526.173 131.671 527.333 132.379 528.378 133.359C529.424 134.329 530.257 135.614 530.877 137.214C531.498 138.815 531.809 140.786 531.809 143.128V144.761H512.468V141.429H527.888C527.888 140.013 527.605 138.75 527.039 137.639C526.483 136.528 525.688 135.652 524.654 135.009C523.63 134.367 522.421 134.045 521.027 134.045C519.492 134.045 518.163 134.427 517.042 135.189C515.931 135.94 515.076 136.92 514.477 138.129C513.878 139.338 513.578 140.634 513.578 142.017V144.239C513.578 146.134 513.905 147.74 514.559 149.058C515.223 150.364 516.143 151.361 517.319 152.047C518.495 152.722 519.862 153.06 521.419 153.06C522.432 153.06 523.347 152.918 524.164 152.635C524.991 152.341 525.705 151.905 526.304 151.328C526.903 150.74 527.365 150.01 527.692 149.139L531.417 150.185C531.025 151.448 530.366 152.559 529.44 153.517C528.514 154.464 527.371 155.205 526.01 155.739C524.648 156.261 523.118 156.523 521.419 156.523ZM555.446 136.528L551.983 137.509C551.765 136.931 551.444 136.371 551.019 135.826C550.605 135.271 550.039 134.813 549.32 134.454C548.601 134.094 547.681 133.915 546.559 133.915C545.024 133.915 543.744 134.269 542.721 134.977C541.708 135.674 541.201 136.561 541.201 137.639C541.201 138.598 541.55 139.354 542.247 139.91C542.944 140.465 544.033 140.928 545.514 141.298L549.238 142.213C551.482 142.758 553.153 143.591 554.253 144.712C555.353 145.823 555.903 147.255 555.903 149.009C555.903 150.446 555.489 151.731 554.662 152.864C553.845 153.996 552.701 154.889 551.231 155.543C549.761 156.196 548.051 156.523 546.102 156.523C543.543 156.523 541.425 155.967 539.748 154.857C538.07 153.746 537.009 152.123 536.562 149.989L540.221 149.074C540.57 150.424 541.229 151.437 542.198 152.112C543.178 152.787 544.458 153.125 546.037 153.125C547.833 153.125 549.26 152.744 550.316 151.982C551.384 151.208 551.917 150.283 551.917 149.205C551.917 148.333 551.612 147.604 551.002 147.016C550.393 146.417 549.456 145.97 548.193 145.676L544.011 144.696C541.713 144.152 540.025 143.308 538.947 142.164C537.88 141.01 537.346 139.567 537.346 137.835C537.346 136.42 537.744 135.167 538.539 134.078C539.345 132.989 540.439 132.134 541.822 131.513C543.216 130.893 544.795 130.582 546.559 130.582C549.042 130.582 550.992 131.127 552.407 132.216C553.834 133.305 554.847 134.742 555.446 136.528ZM564.516 156.261C563.71 156.261 563.018 155.973 562.441 155.396C561.864 154.818 561.575 154.127 561.575 153.321C561.575 152.515 561.864 151.824 562.441 151.246C563.018 150.669 563.71 150.381 564.516 150.381C565.322 150.381 566.013 150.669 566.59 151.246C567.168 151.824 567.456 152.515 567.456 153.321C567.456 153.855 567.32 154.345 567.048 154.791C566.786 155.238 566.432 155.597 565.986 155.869C565.55 156.131 565.06 156.261 564.516 156.261ZM591.885 122.545V156H587.834V122.545H591.885ZM609.679 156.523C607.326 156.523 605.301 155.967 603.602 154.857C601.903 153.746 600.596 152.216 599.681 150.266C598.767 148.317 598.309 146.09 598.309 143.585C598.309 141.037 598.778 138.788 599.714 136.839C600.662 134.879 601.979 133.348 603.667 132.249C605.366 131.138 607.348 130.582 609.613 130.582C611.377 130.582 612.967 130.909 614.383 131.562C615.799 132.216 616.959 133.131 617.863 134.307C618.766 135.483 619.327 136.855 619.545 138.423H615.69C615.396 137.28 614.743 136.267 613.73 135.385C612.728 134.492 611.377 134.045 609.679 134.045C608.176 134.045 606.858 134.437 605.725 135.222C604.604 135.995 603.727 137.089 603.096 138.505C602.475 139.91 602.164 141.56 602.164 143.455C602.164 145.393 602.469 147.081 603.079 148.518C603.7 149.956 604.571 151.072 605.693 151.867C606.825 152.662 608.154 153.06 609.679 153.06C610.681 153.06 611.59 152.885 612.407 152.537C613.223 152.188 613.915 151.688 614.481 151.034C615.047 150.381 615.45 149.597 615.69 148.682H619.545C619.327 150.163 618.788 151.497 617.928 152.684C617.078 153.86 615.951 154.797 614.547 155.494C613.153 156.18 611.53 156.523 609.679 156.523ZM629.036 140.906V156H625.181V122.545H629.036V134.83H629.363C629.951 133.534 630.833 132.504 632.009 131.742C633.196 130.969 634.775 130.582 636.746 130.582C638.456 130.582 639.953 130.925 641.238 131.612C642.523 132.287 643.52 133.327 644.228 134.732C644.946 136.125 645.306 137.901 645.306 140.057V156H641.451V140.318C641.451 138.325 640.933 136.784 639.899 135.695C638.875 134.595 637.454 134.045 635.635 134.045C634.372 134.045 633.239 134.312 632.238 134.846C631.247 135.379 630.462 136.158 629.885 137.182C629.319 138.205 629.036 139.447 629.036 140.906ZM665.819 156V122.545H669.674V134.895H670.001C670.284 134.459 670.676 133.904 671.177 133.229C671.689 132.543 672.418 131.933 673.366 131.399C674.324 130.855 675.62 130.582 677.253 130.582C679.366 130.582 681.228 131.111 682.84 132.167C684.452 133.223 685.71 134.721 686.613 136.659C687.517 138.598 687.969 140.884 687.969 143.52C687.969 146.177 687.517 148.48 686.613 150.43C685.71 152.368 684.457 153.871 682.856 154.938C681.256 155.995 679.41 156.523 677.319 156.523C675.707 156.523 674.416 156.256 673.447 155.722C672.478 155.178 671.732 154.562 671.209 153.876C670.687 153.179 670.284 152.602 670.001 152.145H669.543V156H665.819ZM669.608 143.455C669.608 145.349 669.886 147.021 670.442 148.469C670.997 149.907 671.808 151.034 672.876 151.851C673.943 152.657 675.25 153.06 676.796 153.06C678.408 153.06 679.753 152.635 680.831 151.786C681.92 150.925 682.737 149.771 683.281 148.322C683.836 146.863 684.114 145.241 684.114 143.455C684.114 141.69 683.842 140.1 683.297 138.685C682.764 137.258 681.952 136.131 680.863 135.303C679.785 134.465 678.43 134.045 676.796 134.045C675.228 134.045 673.91 134.443 672.843 135.238C671.776 136.022 670.97 137.122 670.425 138.538C669.881 139.942 669.608 141.581 669.608 143.455ZM693.866 156V130.909H697.721V156H693.866ZM695.827 126.727C695.075 126.727 694.427 126.471 693.883 125.96C693.349 125.448 693.082 124.832 693.082 124.114C693.082 123.395 693.349 122.78 693.883 122.268C694.427 121.756 695.075 121.5 695.827 121.5C696.578 121.5 697.22 121.756 697.754 122.268C698.299 122.78 698.571 123.395 698.571 124.114C698.571 124.832 698.299 125.448 697.754 125.96C697.22 126.471 696.578 126.727 695.827 126.727ZM708.637 140.906V156H704.782V130.909H708.507V134.83H708.833C709.422 133.555 710.315 132.532 711.512 131.759C712.71 130.974 714.257 130.582 716.152 130.582C717.85 130.582 719.337 130.931 720.611 131.628C721.885 132.314 722.876 133.359 723.584 134.764C724.292 136.158 724.646 137.922 724.646 140.057V156H720.791V140.318C720.791 138.347 720.279 136.812 719.255 135.712C718.232 134.601 716.827 134.045 715.041 134.045C713.81 134.045 712.71 134.312 711.741 134.846C710.783 135.379 710.026 136.158 709.471 137.182C708.915 138.205 708.637 139.447 708.637 140.906ZM754.102 156.523C752.012 156.523 750.166 155.995 748.565 154.938C746.964 153.871 745.712 152.368 744.808 150.43C743.904 148.48 743.452 146.177 743.452 143.52C743.452 140.884 743.904 138.598 744.808 136.659C745.712 134.721 746.969 133.223 748.581 132.167C750.193 131.111 752.055 130.582 754.168 130.582C755.801 130.582 757.092 130.855 758.039 131.399C758.998 131.933 759.727 132.543 760.228 133.229C760.74 133.904 761.137 134.459 761.421 134.895H761.747V122.545H765.602V156H761.878V152.145H761.421C761.137 152.602 760.735 153.179 760.212 153.876C759.689 154.562 758.943 155.178 757.974 155.722C757.005 156.256 755.714 156.523 754.102 156.523ZM754.625 153.06C756.172 153.06 757.478 152.657 758.546 151.851C759.613 151.034 760.424 149.907 760.98 148.469C761.535 147.021 761.813 145.349 761.813 143.455C761.813 141.581 761.54 139.942 760.996 138.538C760.451 137.122 759.646 136.022 758.578 135.238C757.511 134.443 756.193 134.045 754.625 134.045C752.992 134.045 751.63 134.465 750.541 135.303C749.463 136.131 748.652 137.258 748.107 138.685C747.574 140.1 747.307 141.69 747.307 143.455C747.307 145.241 747.579 146.863 748.124 148.322C748.679 149.771 749.496 150.925 750.574 151.786C751.663 152.635 753.013 153.06 754.625 153.06ZM783.718 156.523C781.301 156.523 779.215 155.989 777.462 154.922C775.719 153.844 774.374 152.341 773.427 150.413C772.49 148.475 772.022 146.221 772.022 143.651C772.022 141.08 772.49 138.815 773.427 136.855C774.374 134.884 775.692 133.348 777.38 132.249C779.079 131.138 781.061 130.582 783.326 130.582C784.633 130.582 785.923 130.8 787.198 131.236C788.472 131.671 789.632 132.379 790.677 133.359C791.722 134.329 792.556 135.614 793.176 137.214C793.797 138.815 794.107 140.786 794.107 143.128V144.761H774.767V141.429H790.187C790.187 140.013 789.904 138.75 789.338 137.639C788.782 136.528 787.987 135.652 786.953 135.009C785.929 134.367 784.72 134.045 783.326 134.045C781.791 134.045 780.462 134.427 779.34 135.189C778.23 135.94 777.375 136.92 776.776 138.129C776.177 139.338 775.877 140.634 775.877 142.017V144.239C775.877 146.134 776.204 147.74 776.857 149.058C777.522 150.364 778.442 151.361 779.618 152.047C780.794 152.722 782.161 153.06 783.718 153.06C784.731 153.06 785.646 152.918 786.463 152.635C787.29 152.341 788.003 151.905 788.602 151.328C789.201 150.74 789.664 150.01 789.991 149.139L793.715 150.185C793.323 151.448 792.664 152.559 791.739 153.517C790.813 154.464 789.67 155.205 788.308 155.739C786.947 156.261 785.417 156.523 783.718 156.523ZM799.972 156V130.909H803.827V156H799.972ZM801.932 126.727C801.181 126.727 800.533 126.471 799.988 125.96C799.454 125.448 799.188 124.832 799.188 124.114C799.188 123.395 799.454 122.78 799.988 122.268C800.533 121.756 801.181 121.5 801.932 121.5C802.683 121.5 803.326 121.756 803.86 122.268C804.404 122.78 804.676 123.395 804.676 124.114C804.676 124.832 804.404 125.448 803.86 125.96C803.326 126.471 802.683 126.727 801.932 126.727ZM814.743 140.906V156H810.888V130.909H814.612V134.83H814.939C815.527 133.555 816.42 132.532 817.618 131.759C818.816 130.974 820.362 130.582 822.257 130.582C823.956 130.582 825.442 130.931 826.717 131.628C827.991 132.314 828.982 133.359 829.69 134.764C830.397 136.158 830.751 137.922 830.751 140.057V156H826.896V140.318C826.896 138.347 826.384 136.812 825.361 135.712C824.337 134.601 822.932 134.045 821.146 134.045C819.916 134.045 818.816 134.312 817.847 134.846C816.888 135.379 816.131 136.158 815.576 137.182C815.021 138.205 814.743 139.447 814.743 140.906ZM98.0511 212V178.545H118.111V182.139H102.102V193.443H116.608V197.037H102.102V212H98.0511ZM124.257 212V186.909H127.981V190.699H128.243C128.7 189.457 129.528 188.45 130.726 187.677C131.924 186.904 133.274 186.517 134.777 186.517C135.06 186.517 135.414 186.522 135.839 186.533C136.263 186.544 136.585 186.561 136.802 186.582V190.503C136.672 190.47 136.372 190.421 135.904 190.356C135.447 190.28 134.962 190.241 134.45 190.241C133.23 190.241 132.141 190.497 131.183 191.009C130.236 191.51 129.484 192.207 128.929 193.1C128.384 193.982 128.112 194.99 128.112 196.122V212H124.257ZM151.128 212.523C148.711 212.523 146.625 211.989 144.872 210.922C143.13 209.844 141.785 208.341 140.837 206.413C139.901 204.475 139.432 202.221 139.432 199.651C139.432 197.08 139.901 194.815 140.837 192.855C141.785 190.884 143.102 189.348 144.79 188.249C146.489 187.138 148.471 186.582 150.736 186.582C152.043 186.582 153.334 186.8 154.608 187.236C155.882 187.671 157.042 188.379 158.087 189.359C159.133 190.329 159.966 191.614 160.586 193.214C161.207 194.815 161.518 196.786 161.518 199.128V200.761H142.177V197.429H157.597C157.597 196.013 157.314 194.75 156.748 193.639C156.192 192.528 155.397 191.652 154.363 191.009C153.339 190.367 152.13 190.045 150.736 190.045C149.201 190.045 147.872 190.427 146.751 191.189C145.64 191.94 144.785 192.92 144.186 194.129C143.587 195.338 143.287 196.634 143.287 198.017V200.239C143.287 202.134 143.614 203.74 144.268 205.058C144.932 206.364 145.852 207.361 147.028 208.047C148.204 208.722 149.571 209.06 151.128 209.06C152.141 209.06 153.056 208.918 153.873 208.635C154.7 208.341 155.414 207.905 156.013 207.328C156.612 206.74 157.074 206.01 157.401 205.139L161.126 206.185C160.733 207.448 160.075 208.559 159.149 209.517C158.223 210.464 157.08 211.205 155.719 211.739C154.357 212.261 152.827 212.523 151.128 212.523ZM183.194 201.741V186.909H187.05V212H183.194V207.753H182.933C182.345 209.027 181.43 210.111 180.189 211.004C178.947 211.886 177.379 212.327 175.484 212.327C173.916 212.327 172.522 211.984 171.302 211.298C170.083 210.601 169.124 209.555 168.427 208.161C167.73 206.756 167.382 204.987 167.382 202.852V186.909H171.237V202.591C171.237 204.42 171.749 205.88 172.773 206.969C173.807 208.058 175.125 208.602 176.726 208.602C177.684 208.602 178.659 208.357 179.65 207.867C180.652 207.377 181.49 206.626 182.165 205.613C182.851 204.6 183.194 203.31 183.194 201.741ZM197.966 196.906V212H194.11V186.909H197.835V190.83H198.162C198.75 189.555 199.643 188.532 200.841 187.759C202.038 186.974 203.585 186.582 205.48 186.582C207.179 186.582 208.665 186.931 209.939 187.628C211.213 188.314 212.204 189.359 212.912 190.764C213.62 192.158 213.974 193.922 213.974 196.057V212H210.119V196.318C210.119 194.347 209.607 192.812 208.583 191.712C207.56 190.601 206.155 190.045 204.369 190.045C203.138 190.045 202.038 190.312 201.069 190.846C200.111 191.379 199.354 192.158 198.799 193.182C198.243 194.205 197.966 195.447 197.966 196.906ZM230.493 212.523C228.402 212.523 226.556 211.995 224.955 210.938C223.355 209.871 222.102 208.368 221.198 206.43C220.294 204.48 219.843 202.177 219.843 199.52C219.843 196.884 220.294 194.598 221.198 192.659C222.102 190.721 223.36 189.223 224.972 188.167C226.584 187.111 228.446 186.582 230.558 186.582C232.192 186.582 233.482 186.855 234.43 187.399C235.388 187.933 236.118 188.543 236.619 189.229C237.131 189.904 237.528 190.459 237.811 190.895H238.138V178.545H241.993V212H238.269V208.145H237.811C237.528 208.602 237.125 209.179 236.602 209.876C236.08 210.562 235.334 211.178 234.365 211.722C233.395 212.256 232.105 212.523 230.493 212.523ZM231.016 209.06C232.562 209.06 233.869 208.657 234.936 207.851C236.003 207.034 236.815 205.907 237.37 204.469C237.926 203.021 238.203 201.349 238.203 199.455C238.203 197.581 237.931 195.942 237.387 194.538C236.842 193.122 236.036 192.022 234.969 191.238C233.902 190.443 232.584 190.045 231.016 190.045C229.382 190.045 228.021 190.465 226.932 191.303C225.854 192.131 225.043 193.258 224.498 194.685C223.964 196.1 223.698 197.69 223.698 199.455C223.698 201.241 223.97 202.863 224.514 204.322C225.07 205.771 225.887 206.925 226.965 207.786C228.054 208.635 229.404 209.06 231.016 209.06ZM278.339 201.741V186.909H282.194V212H278.339V207.753H278.078C277.49 209.027 276.575 210.111 275.333 211.004C274.092 211.886 272.524 212.327 270.629 212.327C269.061 212.327 267.667 211.984 266.447 211.298C265.227 210.601 264.269 209.555 263.572 208.161C262.875 206.756 262.526 204.987 262.526 202.852V186.909H266.382V202.591C266.382 204.42 266.893 205.88 267.917 206.969C268.952 208.058 270.269 208.602 271.87 208.602C272.829 208.602 273.803 208.357 274.794 207.867C275.796 207.377 276.635 206.626 277.31 205.613C277.996 204.6 278.339 203.31 278.339 201.741ZM293.11 196.906V212H289.255V186.909H292.979V190.83H293.306C293.894 189.555 294.787 188.532 295.985 187.759C297.183 186.974 298.729 186.582 300.624 186.582C302.323 186.582 303.81 186.931 305.084 187.628C306.358 188.314 307.349 189.359 308.057 190.764C308.765 192.158 309.119 193.922 309.119 196.057V212H305.263V196.318C305.263 194.347 304.752 192.812 303.728 191.712C302.704 190.601 301.299 190.045 299.513 190.045C298.283 190.045 297.183 190.312 296.214 190.846C295.255 191.379 294.499 192.158 293.943 193.182C293.388 194.205 293.11 195.447 293.11 196.906ZM325.638 212.523C323.547 212.523 321.701 211.995 320.1 210.938C318.499 209.871 317.247 208.368 316.343 206.43C315.439 204.48 314.987 202.177 314.987 199.52C314.987 196.884 315.439 194.598 316.343 192.659C317.247 190.721 318.505 189.223 320.116 188.167C321.728 187.111 323.59 186.582 325.703 186.582C327.336 186.582 328.627 186.855 329.574 187.399C330.533 187.933 331.262 188.543 331.763 189.229C332.275 189.904 332.673 190.459 332.956 190.895H333.282V178.545H337.138V212H333.413V208.145H332.956C332.673 208.602 332.27 209.179 331.747 209.876C331.224 210.562 330.478 211.178 329.509 211.722C328.54 212.256 327.249 212.523 325.638 212.523ZM326.16 209.06C327.707 209.06 329.014 208.657 330.081 207.851C331.148 207.034 331.959 205.907 332.515 204.469C333.07 203.021 333.348 201.349 333.348 199.455C333.348 197.581 333.076 195.942 332.531 194.538C331.987 193.122 331.181 192.022 330.113 191.238C329.046 190.443 327.729 190.045 326.16 190.045C324.527 190.045 323.166 190.465 322.077 191.303C320.998 192.131 320.187 193.258 319.643 194.685C319.109 196.1 318.842 197.69 318.842 199.455C318.842 201.241 319.114 202.863 319.659 204.322C320.214 205.771 321.031 206.925 322.109 207.786C323.198 208.635 324.549 209.06 326.16 209.06ZM363.356 212L355.711 186.909H359.762L365.185 206.119H365.447L370.805 186.909H374.921L380.214 206.054H380.475L385.898 186.909H389.949L382.305 212H378.515L373.026 192.724H372.634L367.145 212H363.356ZM404.712 212.523C402.295 212.523 400.209 211.989 398.456 210.922C396.714 209.844 395.369 208.341 394.421 206.413C393.485 204.475 393.016 202.221 393.016 199.651C393.016 197.08 393.485 194.815 394.421 192.855C395.369 190.884 396.686 189.348 398.374 188.249C400.073 187.138 402.055 186.582 404.32 186.582C405.627 186.582 406.918 186.8 408.192 187.236C409.466 187.671 410.626 188.379 411.671 189.359C412.717 190.329 413.55 191.614 414.17 193.214C414.791 194.815 415.102 196.786 415.102 199.128V200.761H395.761V197.429H411.181C411.181 196.013 410.898 194.75 410.332 193.639C409.776 192.528 408.981 191.652 407.947 191.009C406.923 190.367 405.714 190.045 404.32 190.045C402.785 190.045 401.456 190.427 400.335 191.189C399.224 191.94 398.369 192.92 397.77 194.129C397.171 195.338 396.871 196.634 396.871 198.017V200.239C396.871 202.134 397.198 203.74 397.852 205.058C398.516 206.364 399.436 207.361 400.612 208.047C401.788 208.722 403.155 209.06 404.712 209.06C405.725 209.06 406.64 208.918 407.457 208.635C408.284 208.341 408.998 207.905 409.597 207.328C410.196 206.74 410.658 206.01 410.985 205.139L414.71 206.185C414.317 207.448 413.659 208.559 412.733 209.517C411.807 210.464 410.664 211.205 409.303 211.739C407.941 212.261 406.411 212.523 404.712 212.523ZM420.966 212V186.909H424.69V190.699H424.952C425.409 189.457 426.237 188.45 427.435 187.677C428.633 186.904 429.983 186.517 431.486 186.517C431.769 186.517 432.123 186.522 432.548 186.533C432.972 186.544 433.294 186.561 433.511 186.582V190.503C433.381 190.47 433.081 190.421 432.613 190.356C432.156 190.28 431.671 190.241 431.159 190.241C429.939 190.241 428.85 190.497 427.892 191.009C426.945 191.51 426.193 192.207 425.638 193.1C425.093 193.982 424.821 194.99 424.821 196.122V212H420.966ZM446.792 212.523C444.701 212.523 442.855 211.995 441.254 210.938C439.653 209.871 438.401 208.368 437.497 206.43C436.593 204.48 436.141 202.177 436.141 199.52C436.141 196.884 436.593 194.598 437.497 192.659C438.401 190.721 439.659 189.223 441.271 188.167C442.882 187.111 444.745 186.582 446.857 186.582C448.491 186.582 449.781 186.855 450.729 187.399C451.687 187.933 452.417 188.543 452.918 189.229C453.429 189.904 453.827 190.459 454.11 190.895H454.437V178.545H458.292V212H454.567V208.145H454.11C453.827 208.602 453.424 209.179 452.901 209.876C452.379 210.562 451.633 211.178 450.663 211.722C449.694 212.256 448.404 212.523 446.792 212.523ZM447.315 209.06C448.861 209.06 450.168 208.657 451.235 207.851C452.302 207.034 453.114 205.907 453.669 204.469C454.224 203.021 454.502 201.349 454.502 199.455C454.502 197.581 454.23 195.942 453.685 194.538C453.141 193.122 452.335 192.022 451.268 191.238C450.201 190.443 448.883 190.045 447.315 190.045C445.681 190.045 444.32 190.465 443.231 191.303C442.153 192.131 441.341 193.258 440.797 194.685C440.263 196.1 439.996 197.69 439.996 199.455C439.996 201.241 440.269 202.863 440.813 204.322C441.369 205.771 442.185 206.925 443.263 207.786C444.353 208.635 445.703 209.06 447.315 209.06ZM476.408 212.523C473.99 212.523 471.905 211.989 470.151 210.922C468.409 209.844 467.064 208.341 466.116 206.413C465.18 204.475 464.712 202.221 464.712 199.651C464.712 197.08 465.18 194.815 466.116 192.855C467.064 190.884 468.382 189.348 470.07 188.249C471.768 187.138 473.75 186.582 476.016 186.582C477.322 186.582 478.613 186.8 479.887 187.236C481.161 187.671 482.321 188.379 483.366 189.359C484.412 190.329 485.245 191.614 485.866 193.214C486.487 194.815 486.797 196.786 486.797 199.128V200.761H467.456V197.429H482.876C482.876 196.013 482.593 194.75 482.027 193.639C481.472 192.528 480.677 191.652 479.642 191.009C478.618 190.367 477.41 190.045 476.016 190.045C474.48 190.045 473.152 190.427 472.03 191.189C470.919 191.94 470.064 192.92 469.465 194.129C468.866 195.338 468.567 196.634 468.567 198.017V200.239C468.567 202.134 468.893 203.74 469.547 205.058C470.211 206.364 471.131 207.361 472.308 208.047C473.484 208.722 474.85 209.06 476.408 209.06C477.42 209.06 478.335 208.918 479.152 208.635C479.98 208.341 480.693 207.905 481.292 207.328C481.891 206.74 482.354 206.01 482.68 205.139L486.405 206.185C486.013 207.448 485.354 208.559 484.428 209.517C483.503 210.464 482.359 211.205 480.998 211.739C479.637 212.261 478.107 212.523 476.408 212.523ZM515.073 212.523C512.982 212.523 511.136 211.995 509.536 210.938C507.935 209.871 506.682 208.368 505.778 206.43C504.875 204.48 504.423 202.177 504.423 199.52C504.423 196.884 504.875 194.598 505.778 192.659C506.682 190.721 507.94 189.223 509.552 188.167C511.164 187.111 513.026 186.582 515.138 186.582C516.772 186.582 518.063 186.855 519.01 187.399C519.968 187.933 520.698 188.543 521.199 189.229C521.711 189.904 522.108 190.459 522.391 190.895H522.718V178.545H526.573V212H522.849V208.145H522.391C522.108 208.602 521.705 209.179 521.183 209.876C520.66 210.562 519.914 211.178 518.945 211.722C517.975 212.256 516.685 212.523 515.073 212.523ZM515.596 209.06C517.142 209.06 518.449 208.657 519.516 207.851C520.584 207.034 521.395 205.907 521.95 204.469C522.506 203.021 522.783 201.349 522.783 199.455C522.783 197.581 522.511 195.942 521.967 194.538C521.422 193.122 520.616 192.022 519.549 191.238C518.482 190.443 517.164 190.045 515.596 190.045C513.962 190.045 512.601 190.465 511.512 191.303C510.434 192.131 509.623 193.258 509.078 194.685C508.545 196.1 508.278 197.69 508.278 199.455C508.278 201.241 508.55 202.863 509.094 204.322C509.65 205.771 510.467 206.925 511.545 207.786C512.634 208.635 513.984 209.06 515.596 209.06ZM534.169 212V186.909H538.024V212H534.169ZM536.129 182.727C535.378 182.727 534.73 182.471 534.185 181.96C533.652 181.448 533.385 180.832 533.385 180.114C533.385 179.395 533.652 178.78 534.185 178.268C534.73 177.756 535.378 177.5 536.129 177.5C536.881 177.5 537.523 177.756 538.057 178.268C538.601 178.78 538.874 179.395 538.874 180.114C538.874 180.832 538.601 181.448 538.057 181.96C537.523 182.471 536.881 182.727 536.129 182.727ZM555.278 212.523C552.926 212.523 550.9 211.967 549.202 210.857C547.503 209.746 546.196 208.216 545.281 206.266C544.366 204.317 543.909 202.09 543.909 199.585C543.909 197.037 544.377 194.788 545.314 192.839C546.261 190.879 547.579 189.348 549.267 188.249C550.966 187.138 552.948 186.582 555.213 186.582C556.977 186.582 558.567 186.909 559.983 187.562C561.398 188.216 562.558 189.131 563.462 190.307C564.366 191.483 564.927 192.855 565.145 194.423H561.29C560.996 193.28 560.342 192.267 559.329 191.385C558.327 190.492 556.977 190.045 555.278 190.045C553.775 190.045 552.458 190.437 551.325 191.222C550.203 191.995 549.327 193.089 548.695 194.505C548.074 195.91 547.764 197.56 547.764 199.455C547.764 201.393 548.069 203.081 548.679 204.518C549.3 205.956 550.171 207.072 551.292 207.867C552.425 208.662 553.754 209.06 555.278 209.06C556.28 209.06 557.189 208.885 558.006 208.537C558.823 208.188 559.515 207.688 560.081 207.034C560.647 206.381 561.05 205.597 561.29 204.682H565.145C564.927 206.163 564.388 207.497 563.528 208.684C562.678 209.86 561.551 210.797 560.146 211.494C558.752 212.18 557.13 212.523 555.278 212.523ZM574.635 196.906V212H570.78V178.545H574.635V190.83H574.962C575.55 189.534 576.432 188.504 577.608 187.742C578.796 186.969 580.375 186.582 582.346 186.582C584.055 186.582 585.553 186.925 586.838 187.612C588.123 188.287 589.119 189.327 589.827 190.732C590.546 192.125 590.905 193.901 590.905 196.057V212H587.05V196.318C587.05 194.325 586.533 192.784 585.498 191.695C584.475 190.595 583.054 190.045 581.235 190.045C579.972 190.045 578.839 190.312 577.837 190.846C576.846 191.379 576.062 192.158 575.485 193.182C574.919 194.205 574.635 195.447 574.635 196.906ZM610.896 212V186.909H614.751V212H610.896ZM612.856 182.727C612.104 182.727 611.456 182.471 610.912 181.96C610.378 181.448 610.112 180.832 610.112 180.114C610.112 179.395 610.378 178.78 610.912 178.268C611.456 177.756 612.104 177.5 612.856 177.5C613.607 177.5 614.25 177.756 614.783 178.268C615.328 178.78 615.6 179.395 615.6 180.114C615.6 180.832 615.328 181.448 614.783 181.96C614.25 182.471 613.607 182.727 612.856 182.727ZM625.667 196.906V212H621.812V186.909H625.536V190.83H625.863C626.451 189.555 627.344 188.532 628.542 187.759C629.74 186.974 631.286 186.582 633.181 186.582C634.88 186.582 636.366 186.931 637.64 187.628C638.915 188.314 639.906 189.359 640.613 190.764C641.321 192.158 641.675 193.922 641.675 196.057V212H637.82V196.318C637.82 194.347 637.308 192.812 636.285 191.712C635.261 190.601 633.856 190.045 632.07 190.045C630.84 190.045 629.74 190.312 628.77 190.846C627.812 191.379 627.055 192.158 626.5 193.182C625.944 194.205 625.667 195.447 625.667 196.906ZM671.132 212.523C669.041 212.523 667.195 211.995 665.594 210.938C663.993 209.871 662.741 208.368 661.837 206.43C660.933 204.48 660.481 202.177 660.481 199.52C660.481 196.884 660.933 194.598 661.837 192.659C662.741 190.721 663.999 189.223 665.61 188.167C667.222 187.111 669.084 186.582 671.197 186.582C672.831 186.582 674.121 186.855 675.069 187.399C676.027 187.933 676.757 188.543 677.257 189.229C677.769 189.904 678.167 190.459 678.45 190.895H678.777V178.545H682.632V212H678.907V208.145H678.45C678.167 208.602 677.764 209.179 677.241 209.876C676.718 210.562 675.972 211.178 675.003 211.722C674.034 212.256 672.743 212.523 671.132 212.523ZM671.654 209.06C673.201 209.06 674.508 208.657 675.575 207.851C676.642 207.034 677.453 205.907 678.009 204.469C678.564 203.021 678.842 201.349 678.842 199.455C678.842 197.581 678.57 195.942 678.025 194.538C677.481 193.122 676.675 192.022 675.608 191.238C674.54 190.443 673.223 190.045 671.654 190.045C670.021 190.045 668.66 190.465 667.571 191.303C666.493 192.131 665.681 193.258 665.137 194.685C664.603 196.1 664.336 197.69 664.336 199.455C664.336 201.241 664.609 202.863 665.153 204.322C665.708 205.771 666.525 206.925 667.603 207.786C668.692 208.635 670.043 209.06 671.654 209.06ZM700.748 212.523C698.33 212.523 696.244 211.989 694.491 210.922C692.749 209.844 691.404 208.341 690.456 206.413C689.52 204.475 689.051 202.221 689.051 199.651C689.051 197.08 689.52 194.815 690.456 192.855C691.404 190.884 692.721 189.348 694.409 188.249C696.108 187.138 698.09 186.582 700.355 186.582C701.662 186.582 702.953 186.8 704.227 187.236C705.501 187.671 706.661 188.379 707.706 189.359C708.752 190.329 709.585 191.614 710.206 193.214C710.826 194.815 711.137 196.786 711.137 199.128V200.761H691.796V197.429H707.216C707.216 196.013 706.933 194.75 706.367 193.639C705.811 192.528 705.016 191.652 703.982 191.009C702.958 190.367 701.749 190.045 700.355 190.045C698.82 190.045 697.491 190.427 696.37 191.189C695.259 191.94 694.404 192.92 693.805 194.129C693.206 195.338 692.907 196.634 692.907 198.017V200.239C692.907 202.134 693.233 203.74 693.887 205.058C694.551 206.364 695.471 207.361 696.647 208.047C697.824 208.722 699.19 209.06 700.748 209.06C701.76 209.06 702.675 208.918 703.492 208.635C704.319 208.341 705.033 207.905 705.632 207.328C706.231 206.74 706.694 206.01 707.02 205.139L710.745 206.185C710.353 207.448 709.694 208.559 708.768 209.517C707.842 210.464 706.699 211.205 705.338 211.739C703.976 212.261 702.446 212.523 700.748 212.523ZM720.856 196.906V212H717.001V186.909H720.725V190.83H721.052C721.64 189.555 722.533 188.532 723.731 187.759C724.929 186.974 726.475 186.582 728.37 186.582C730.069 186.582 731.556 186.931 732.83 187.628C734.104 188.314 735.095 189.359 735.803 190.764C736.511 192.158 736.865 193.922 736.865 196.057V212H733.01V196.318C733.01 194.347 732.498 192.812 731.474 191.712C730.45 190.601 729.046 190.045 727.26 190.045C726.029 190.045 724.929 190.312 723.96 190.846C723.002 191.379 722.245 192.158 721.689 193.182C721.134 194.205 720.856 195.447 720.856 196.906ZM108.702 242.909V246.176H95.1761V242.909H108.702ZM99.2273 268V239.446C99.2273 238.009 99.5649 236.811 100.24 235.852C100.915 234.894 101.792 234.175 102.87 233.696C103.948 233.217 105.086 232.977 106.284 232.977C107.232 232.977 108.005 233.054 108.604 233.206C109.203 233.358 109.649 233.5 109.943 233.631L108.832 236.963C108.636 236.898 108.364 236.816 108.016 236.718C107.678 236.62 107.232 236.571 106.676 236.571C105.402 236.571 104.482 236.892 103.915 237.535C103.36 238.177 103.082 239.119 103.082 240.361V268H99.2273ZM123.265 268.523C120.999 268.523 119.012 267.984 117.302 266.906C115.603 265.827 114.275 264.319 113.316 262.381C112.369 260.442 111.895 258.177 111.895 255.585C111.895 252.972 112.369 250.69 113.316 248.741C114.275 246.791 115.603 245.278 117.302 244.2C119.012 243.121 120.999 242.582 123.265 242.582C125.53 242.582 127.512 243.121 129.211 244.2C130.92 245.278 132.249 246.791 133.196 248.741C134.155 250.69 134.634 252.972 134.634 255.585C134.634 258.177 134.155 260.442 133.196 262.381C132.249 264.319 130.92 265.827 129.211 266.906C127.512 267.984 125.53 268.523 123.265 268.523ZM123.265 265.06C124.985 265.06 126.401 264.619 127.512 263.737C128.623 262.854 129.445 261.695 129.978 260.257C130.512 258.82 130.779 257.262 130.779 255.585C130.779 253.908 130.512 252.345 129.978 250.897C129.445 249.449 128.623 248.278 127.512 247.385C126.401 246.492 124.985 246.045 123.265 246.045C121.544 246.045 120.128 246.492 119.017 247.385C117.907 248.278 117.084 249.449 116.551 250.897C116.017 252.345 115.75 253.908 115.75 255.585C115.75 257.262 116.017 258.82 116.551 260.257C117.084 261.695 117.907 262.854 119.017 263.737C120.128 264.619 121.544 265.06 123.265 265.06ZM144.374 234.545V268H140.519V234.545H144.374ZM161.562 277.932C159.7 277.932 158.099 277.692 156.76 277.213C155.42 276.745 154.304 276.124 153.411 275.351C152.529 274.589 151.827 273.772 151.304 272.901L154.375 270.744C154.723 271.202 155.165 271.724 155.698 272.312C156.232 272.911 156.961 273.429 157.887 273.864C158.824 274.311 160.049 274.534 161.562 274.534C163.588 274.534 165.26 274.044 166.577 273.064C167.895 272.084 168.554 270.548 168.554 268.457V263.361H168.227C167.944 263.818 167.541 264.384 167.018 265.06C166.507 265.724 165.766 266.317 164.797 266.84C163.839 267.352 162.543 267.608 160.909 267.608C158.884 267.608 157.065 267.129 155.453 266.17C153.852 265.212 152.584 263.818 151.647 261.989C150.721 260.159 150.259 257.937 150.259 255.324C150.259 252.754 150.71 250.516 151.614 248.61C152.518 246.693 153.776 245.212 155.388 244.167C157 243.111 158.862 242.582 160.974 242.582C162.608 242.582 163.904 242.855 164.862 243.399C165.831 243.933 166.572 244.543 167.084 245.229C167.607 245.904 168.009 246.459 168.293 246.895H168.685V242.909H172.409V268.719C172.409 270.875 171.919 272.628 170.939 273.979C169.97 275.34 168.663 276.336 167.018 276.968C165.385 277.611 163.566 277.932 161.562 277.932ZM161.432 264.145C162.978 264.145 164.285 263.791 165.352 263.083C166.42 262.375 167.231 261.357 167.786 260.028C168.342 258.7 168.619 257.11 168.619 255.259C168.619 253.451 168.347 251.855 167.803 250.472C167.258 249.089 166.452 248.006 165.385 247.222C164.318 246.437 163 246.045 161.432 246.045C159.798 246.045 158.437 246.459 157.348 247.287C156.27 248.115 155.459 249.225 154.914 250.619C154.38 252.013 154.114 253.56 154.114 255.259C154.114 257.001 154.386 258.542 154.93 259.881C155.486 261.21 156.303 262.255 157.381 263.018C158.47 263.769 159.82 264.145 161.432 264.145ZM189.986 268.523C187.568 268.523 185.483 267.989 183.729 266.922C181.987 265.844 180.642 264.341 179.695 262.413C178.758 260.475 178.29 258.221 178.29 255.651C178.29 253.08 178.758 250.815 179.695 248.855C180.642 246.884 181.96 245.348 183.648 244.249C185.347 243.138 187.329 242.582 189.594 242.582C190.901 242.582 192.191 242.8 193.465 243.236C194.739 243.671 195.899 244.379 196.945 245.359C197.99 246.329 198.823 247.614 199.444 249.214C200.065 250.815 200.375 252.786 200.375 255.128V256.761H181.034V253.429H196.455C196.455 252.013 196.171 250.75 195.605 249.639C195.05 248.528 194.255 247.652 193.22 247.009C192.196 246.367 190.988 246.045 189.594 246.045C188.058 246.045 186.73 246.427 185.608 247.189C184.497 247.94 183.642 248.92 183.043 250.129C182.444 251.338 182.145 252.634 182.145 254.017V256.239C182.145 258.134 182.472 259.74 183.125 261.058C183.789 262.364 184.71 263.361 185.886 264.047C187.062 264.722 188.429 265.06 189.986 265.06C190.999 265.06 191.913 264.918 192.73 264.635C193.558 264.341 194.271 263.905 194.87 263.328C195.469 262.74 195.932 262.01 196.259 261.139L199.983 262.185C199.591 263.448 198.932 264.559 198.006 265.517C197.081 266.464 195.937 267.205 194.576 267.739C193.215 268.261 191.685 268.523 189.986 268.523ZM210.094 252.906V268H206.239V242.909H209.964V246.83H210.29C210.879 245.555 211.772 244.532 212.969 243.759C214.167 242.974 215.714 242.582 217.609 242.582C219.308 242.582 220.794 242.931 222.068 243.628C223.342 244.314 224.333 245.359 225.041 246.764C225.749 248.158 226.103 249.922 226.103 252.057V268H222.248V252.318C222.248 250.347 221.736 248.812 220.712 247.712C219.689 246.601 218.284 246.045 216.498 246.045C215.267 246.045 214.167 246.312 213.198 246.846C212.24 247.379 211.483 248.158 210.928 249.182C210.372 250.205 210.094 251.447 210.094 252.906ZM242.622 268.523C240.531 268.523 238.685 267.995 237.084 266.938C235.483 265.871 234.231 264.368 233.327 262.43C232.423 260.48 231.971 258.177 231.971 255.52C231.971 252.884 232.423 250.598 233.327 248.659C234.231 246.721 235.489 245.223 237.101 244.167C238.712 243.111 240.575 242.582 242.687 242.582C244.321 242.582 245.611 242.855 246.559 243.399C247.517 243.933 248.247 244.543 248.748 245.229C249.26 245.904 249.657 246.459 249.94 246.895H250.267V234.545H254.122V268H250.398V264.145H249.94C249.657 264.602 249.254 265.179 248.731 265.876C248.209 266.562 247.463 267.178 246.493 267.722C245.524 268.256 244.234 268.523 242.622 268.523ZM243.145 265.06C244.691 265.06 245.998 264.657 247.065 263.851C248.132 263.034 248.944 261.907 249.499 260.469C250.055 259.021 250.332 257.349 250.332 255.455C250.332 253.581 250.06 251.942 249.515 250.538C248.971 249.122 248.165 248.022 247.098 247.238C246.031 246.443 244.713 246.045 243.145 246.045C241.511 246.045 240.15 246.465 239.061 247.303C237.983 248.131 237.171 249.258 236.627 250.685C236.093 252.1 235.827 253.69 235.827 255.455C235.827 257.241 236.099 258.863 236.643 260.322C237.199 261.771 238.015 262.925 239.094 263.786C240.183 264.635 241.533 265.06 243.145 265.06ZM272.238 268.523C269.82 268.523 267.735 267.989 265.981 266.922C264.239 265.844 262.894 264.341 261.947 262.413C261.01 260.475 260.542 258.221 260.542 255.651C260.542 253.08 261.01 250.815 261.947 248.855C262.894 246.884 264.212 245.348 265.9 244.249C267.599 243.138 269.581 242.582 271.846 242.582C273.153 242.582 274.443 242.8 275.717 243.236C276.991 243.671 278.151 244.379 279.197 245.359C280.242 246.329 281.075 247.614 281.696 249.214C282.317 250.815 282.627 252.786 282.627 255.128V256.761H263.286V253.429H278.706C278.706 252.013 278.423 250.75 277.857 249.639C277.302 248.528 276.507 247.652 275.472 247.009C274.448 246.367 273.24 246.045 271.846 246.045C270.31 246.045 268.982 246.427 267.86 247.189C266.749 247.94 265.894 248.92 265.295 250.129C264.696 251.338 264.397 252.634 264.397 254.017V256.239C264.397 258.134 264.724 259.74 265.377 261.058C266.041 262.364 266.961 263.361 268.138 264.047C269.314 264.722 270.68 265.06 272.238 265.06C273.251 265.06 274.165 264.918 274.982 264.635C275.81 264.341 276.523 263.905 277.122 263.328C277.721 262.74 278.184 262.01 278.51 261.139L282.235 262.185C281.843 263.448 281.184 264.559 280.258 265.517C279.333 266.464 278.189 267.205 276.828 267.739C275.467 268.261 273.937 268.523 272.238 268.523ZM292.346 252.906V268H288.491V242.909H292.216V246.83H292.542C293.131 245.555 294.023 244.532 295.221 243.759C296.419 242.974 297.966 242.582 299.861 242.582C301.559 242.582 303.046 242.931 304.32 243.628C305.594 244.314 306.585 245.359 307.293 246.764C308.001 248.158 308.355 249.922 308.355 252.057V268H304.5V252.318C304.5 250.347 303.988 248.812 302.964 247.712C301.941 246.601 300.536 246.045 298.75 246.045C297.519 246.045 296.419 246.312 295.45 246.846C294.492 247.379 293.735 248.158 293.18 249.182C292.624 250.205 292.346 251.447 292.346 252.906ZM347.155 242.909C346.959 241.254 346.164 239.969 344.77 239.054C343.376 238.139 341.667 237.682 339.641 237.682C338.16 237.682 336.864 237.921 335.753 238.401C334.653 238.88 333.793 239.539 333.172 240.377C332.562 241.216 332.257 242.169 332.257 243.236C332.257 244.129 332.47 244.897 332.895 245.539C333.33 246.171 333.886 246.699 334.561 247.124C335.236 247.537 335.944 247.88 336.684 248.153C337.425 248.414 338.105 248.626 338.726 248.79L342.124 249.705C342.995 249.933 343.964 250.249 345.032 250.652C346.11 251.055 347.139 251.605 348.119 252.302C349.11 252.988 349.927 253.87 350.569 254.948C351.212 256.026 351.533 257.349 351.533 258.918C351.533 260.725 351.059 262.359 350.112 263.818C349.175 265.277 347.803 266.437 345.995 267.298C344.199 268.158 342.015 268.588 339.445 268.588C337.049 268.588 334.975 268.201 333.221 267.428C331.479 266.655 330.107 265.577 329.105 264.194C328.114 262.811 327.553 261.205 327.422 259.375H331.604C331.713 260.638 332.138 261.684 332.878 262.511C333.63 263.328 334.577 263.938 335.721 264.341C336.875 264.733 338.116 264.929 339.445 264.929C340.991 264.929 342.38 264.679 343.61 264.178C344.841 263.666 345.816 262.958 346.534 262.054C347.253 261.139 347.613 260.072 347.613 258.852C347.613 257.741 347.302 256.838 346.681 256.141C346.061 255.444 345.244 254.877 344.231 254.442C343.218 254.006 342.124 253.625 340.948 253.298L336.831 252.122C334.218 251.371 332.149 250.298 330.624 248.904C329.099 247.51 328.337 245.686 328.337 243.432C328.337 241.559 328.843 239.925 329.856 238.531C330.88 237.126 332.252 236.037 333.973 235.264C335.704 234.48 337.637 234.088 339.772 234.088C341.928 234.088 343.845 234.475 345.522 235.248C347.199 236.01 348.527 237.056 349.507 238.384C350.498 239.713 351.021 241.221 351.076 242.909H347.155ZM357.671 277.409V242.909H361.395V246.895H361.853C362.136 246.459 362.528 245.904 363.029 245.229C363.541 244.543 364.27 243.933 365.218 243.399C366.176 242.855 367.472 242.582 369.106 242.582C371.218 242.582 373.081 243.111 374.692 244.167C376.304 245.223 377.562 246.721 378.466 248.659C379.37 250.598 379.822 252.884 379.822 255.52C379.822 258.177 379.37 260.48 378.466 262.43C377.562 264.368 376.309 265.871 374.709 266.938C373.108 267.995 371.262 268.523 369.171 268.523C367.559 268.523 366.269 268.256 365.3 267.722C364.33 267.178 363.584 266.562 363.062 265.876C362.539 265.179 362.136 264.602 361.853 264.145H361.526V277.409H357.671ZM361.461 255.455C361.461 257.349 361.738 259.021 362.294 260.469C362.849 261.907 363.661 263.034 364.728 263.851C365.795 264.657 367.102 265.06 368.648 265.06C370.26 265.06 371.605 264.635 372.683 263.786C373.772 262.925 374.589 261.771 375.133 260.322C375.689 258.863 375.966 257.241 375.966 255.455C375.966 253.69 375.694 252.1 375.15 250.685C374.616 249.258 373.805 248.131 372.716 247.303C371.638 246.465 370.282 246.045 368.648 246.045C367.08 246.045 365.762 246.443 364.695 247.238C363.628 248.022 362.822 249.122 362.278 250.538C361.733 251.942 361.461 253.581 361.461 255.455ZM385.702 268V242.909H389.557V268H385.702ZM387.662 238.727C386.911 238.727 386.263 238.471 385.719 237.96C385.185 237.448 384.918 236.832 384.918 236.114C384.918 235.395 385.185 234.78 385.719 234.268C386.263 233.756 386.911 233.5 387.662 233.5C388.414 233.5 389.056 233.756 389.59 234.268C390.135 234.78 390.407 235.395 390.407 236.114C390.407 236.832 390.135 237.448 389.59 237.96C389.056 238.471 388.414 238.727 387.662 238.727ZM407.138 268.523C404.721 268.523 402.635 267.989 400.882 266.922C399.139 265.844 397.794 264.341 396.847 262.413C395.91 260.475 395.442 258.221 395.442 255.651C395.442 253.08 395.91 250.815 396.847 248.855C397.794 246.884 399.112 245.348 400.8 244.249C402.499 243.138 404.481 242.582 406.746 242.582C408.053 242.582 409.343 242.8 410.618 243.236C411.892 243.671 413.051 244.379 414.097 245.359C415.142 246.329 415.975 247.614 416.596 249.214C417.217 250.815 417.527 252.786 417.527 255.128V256.761H398.186V253.429H413.607C413.607 252.013 413.324 250.75 412.757 249.639C412.202 248.528 411.407 247.652 410.373 247.009C409.349 246.367 408.14 246.045 406.746 246.045C405.211 246.045 403.882 246.427 402.76 247.189C401.65 247.94 400.795 248.92 400.196 250.129C399.597 251.338 399.297 252.634 399.297 254.017V256.239C399.297 258.134 399.624 259.74 400.277 261.058C400.942 262.364 401.862 263.361 403.038 264.047C404.214 264.722 405.581 265.06 407.138 265.06C408.151 265.06 409.066 264.918 409.882 264.635C410.71 264.341 411.423 263.905 412.022 263.328C412.621 262.74 413.084 262.01 413.411 261.139L417.135 262.185C416.743 263.448 416.084 264.559 415.159 265.517C414.233 266.464 413.09 267.205 411.728 267.739C410.367 268.261 408.837 268.523 407.138 268.523ZM427.247 234.545V268H423.392V234.545H427.247ZM444.828 268.523C442.41 268.523 440.325 267.989 438.571 266.922C436.829 265.844 435.484 264.341 434.536 262.413C433.6 260.475 433.132 258.221 433.132 255.651C433.132 253.08 433.6 250.815 434.536 248.855C435.484 246.884 436.802 245.348 438.49 244.249C440.188 243.138 442.17 242.582 444.436 242.582C445.742 242.582 447.033 242.8 448.307 243.236C449.581 243.671 450.741 244.379 451.786 245.359C452.832 246.329 453.665 247.614 454.286 249.214C454.906 250.815 455.217 252.786 455.217 255.128V256.761H435.876V253.429H451.296C451.296 252.013 451.013 250.75 450.447 249.639C449.892 248.528 449.097 247.652 448.062 247.009C447.038 246.367 445.829 246.045 444.436 246.045C442.9 246.045 441.571 246.427 440.45 247.189C439.339 247.94 438.484 248.92 437.885 250.129C437.286 251.338 436.987 252.634 436.987 254.017V256.239C436.987 258.134 437.313 259.74 437.967 261.058C438.631 262.364 439.551 263.361 440.727 264.047C441.904 264.722 443.27 265.06 444.828 265.06C445.84 265.06 446.755 264.918 447.572 264.635C448.4 264.341 449.113 263.905 449.712 263.328C450.311 262.74 450.774 262.01 451.1 261.139L454.825 262.185C454.433 263.448 453.774 264.559 452.848 265.517C451.923 266.464 450.779 267.205 449.418 267.739C448.057 268.261 446.526 268.523 444.828 268.523ZM464.936 252.906V268H461.081V242.909H464.806V246.83H465.132C465.72 245.555 466.613 244.532 467.811 243.759C469.009 242.974 470.556 242.582 472.45 242.582C474.149 242.582 475.636 242.931 476.91 243.628C478.184 244.314 479.175 245.359 479.883 246.764C480.591 248.158 480.945 249.922 480.945 252.057V268H477.09V252.318C477.09 250.347 476.578 248.812 475.554 247.712C474.53 246.601 473.126 246.045 471.34 246.045C470.109 246.045 469.009 246.312 468.04 246.846C467.082 247.379 466.325 248.158 465.769 249.182C465.214 250.205 464.936 251.447 464.936 252.906ZM516.739 257.741V242.909H520.594V268H516.739V263.753H516.478C515.89 265.027 514.975 266.111 513.734 267.004C512.492 267.886 510.924 268.327 509.029 268.327C507.461 268.327 506.067 267.984 504.847 267.298C503.628 266.601 502.669 265.555 501.972 264.161C501.275 262.756 500.927 260.987 500.927 258.852V242.909H504.782V258.591C504.782 260.42 505.294 261.88 506.317 262.969C507.352 264.058 508.67 264.602 510.271 264.602C511.229 264.602 512.204 264.357 513.195 263.867C514.196 263.377 515.035 262.626 515.71 261.613C516.396 260.6 516.739 259.31 516.739 257.741ZM531.51 252.906V268H527.655V242.909H531.38V246.83H531.706C532.295 245.555 533.188 244.532 534.385 243.759C535.583 242.974 537.13 242.582 539.025 242.582C540.724 242.582 542.21 242.931 543.484 243.628C544.758 244.314 545.749 245.359 546.457 246.764C547.165 248.158 547.519 249.922 547.519 252.057V268H543.664V252.318C543.664 250.347 543.152 248.812 542.128 247.712C541.105 246.601 539.7 246.045 537.914 246.045C536.683 246.045 535.583 246.312 534.614 246.846C533.656 247.379 532.899 248.158 532.344 249.182C531.788 250.205 531.51 251.447 531.51 252.906ZM565.475 242.909V246.176H552.473V242.909H565.475ZM556.262 236.898H560.118V260.812C560.118 261.902 560.275 262.718 560.591 263.263C560.918 263.796 561.332 264.156 561.833 264.341C562.345 264.515 562.884 264.602 563.45 264.602C563.875 264.602 564.223 264.58 564.495 264.537C564.768 264.482 564.985 264.439 565.149 264.406L565.933 267.869C565.672 267.967 565.307 268.065 564.838 268.163C564.37 268.272 563.777 268.327 563.058 268.327C561.969 268.327 560.902 268.093 559.856 267.624C558.822 267.156 557.961 266.443 557.275 265.484C556.6 264.526 556.262 263.317 556.262 261.858V236.898ZM581.525 268.523C579.107 268.523 577.022 267.989 575.268 266.922C573.526 265.844 572.181 264.341 571.234 262.413C570.297 260.475 569.829 258.221 569.829 255.651C569.829 253.08 570.297 250.815 571.234 248.855C572.181 246.884 573.499 245.348 575.187 244.249C576.886 243.138 578.868 242.582 581.133 242.582C582.44 242.582 583.73 242.8 585.004 243.236C586.278 243.671 587.438 244.379 588.484 245.359C589.529 246.329 590.362 247.614 590.983 249.214C591.604 250.815 591.914 252.786 591.914 255.128V256.761H572.573V253.429H587.994C587.994 252.013 587.71 250.75 587.144 249.639C586.589 248.528 585.794 247.652 584.759 247.009C583.736 246.367 582.527 246.045 581.133 246.045C579.597 246.045 578.269 246.427 577.147 247.189C576.036 247.94 575.181 248.92 574.582 250.129C573.983 251.338 573.684 252.634 573.684 254.017V256.239C573.684 258.134 574.011 259.74 574.664 261.058C575.328 262.364 576.249 263.361 577.425 264.047C578.601 264.722 579.968 265.06 581.525 265.06C582.538 265.06 583.452 264.918 584.269 264.635C585.097 264.341 585.81 263.905 586.409 263.328C587.008 262.74 587.471 262.01 587.798 261.139L591.522 262.185C591.13 263.448 590.471 264.559 589.545 265.517C588.62 266.464 587.476 267.205 586.115 267.739C584.754 268.261 583.224 268.523 581.525 268.523ZM597.778 268V242.909H601.503V246.699H601.764C602.222 245.457 603.049 244.45 604.247 243.677C605.445 242.904 606.795 242.517 608.298 242.517C608.581 242.517 608.935 242.522 609.36 242.533C609.785 242.544 610.106 242.561 610.324 242.582V246.503C610.193 246.47 609.894 246.421 609.425 246.356C608.968 246.28 608.483 246.241 607.972 246.241C606.752 246.241 605.663 246.497 604.705 247.009C603.757 247.51 603.006 248.207 602.45 249.1C601.906 249.982 601.634 250.99 601.634 252.122V268H597.778ZM632.666 248.528L629.203 249.509C628.986 248.931 628.664 248.371 628.24 247.826C627.826 247.271 627.259 246.813 626.541 246.454C625.822 246.094 624.902 245.915 623.78 245.915C622.244 245.915 620.965 246.269 619.941 246.977C618.928 247.674 618.422 248.561 618.422 249.639C618.422 250.598 618.771 251.354 619.468 251.91C620.164 252.465 621.253 252.928 622.735 253.298L626.459 254.213C628.702 254.758 630.374 255.591 631.474 256.712C632.574 257.823 633.124 259.255 633.124 261.009C633.124 262.446 632.71 263.731 631.882 264.864C631.066 265.996 629.922 266.889 628.452 267.543C626.982 268.196 625.272 268.523 623.323 268.523C620.763 268.523 618.645 267.967 616.968 266.857C615.291 265.746 614.229 264.123 613.783 261.989L617.442 261.074C617.79 262.424 618.449 263.437 619.419 264.112C620.399 264.787 621.678 265.125 623.257 265.125C625.054 265.125 626.481 264.744 627.537 263.982C628.604 263.208 629.138 262.283 629.138 261.205C629.138 260.333 628.833 259.604 628.223 259.016C627.613 258.417 626.677 257.97 625.414 257.676L621.232 256.696C618.934 256.152 617.246 255.308 616.168 254.164C615.101 253.01 614.567 251.567 614.567 249.835C614.567 248.42 614.964 247.167 615.759 246.078C616.565 244.989 617.66 244.134 619.043 243.513C620.437 242.893 622.016 242.582 623.78 242.582C626.263 242.582 628.212 243.127 629.628 244.216C631.055 245.305 632.067 246.742 632.666 248.528ZM649.839 242.909V246.176H636.836V242.909H649.839ZM640.626 236.898H644.481V260.812C644.481 261.902 644.639 262.718 644.955 263.263C645.281 263.796 645.695 264.156 646.196 264.341C646.708 264.515 647.247 264.602 647.813 264.602C648.238 264.602 648.586 264.58 648.859 264.537C649.131 264.482 649.349 264.439 649.512 264.406L650.296 267.869C650.035 267.967 649.67 268.065 649.202 268.163C648.733 268.272 648.14 268.327 647.421 268.327C646.332 268.327 645.265 268.093 644.219 267.624C643.185 267.156 642.325 266.443 641.638 265.484C640.963 264.526 640.626 263.317 640.626 261.858V236.898ZM671.45 257.741V242.909H675.305V268H671.45V263.753H671.189C670.601 265.027 669.686 266.111 668.445 267.004C667.203 267.886 665.635 268.327 663.74 268.327C662.172 268.327 660.778 267.984 659.558 267.298C658.339 266.601 657.38 265.555 656.683 264.161C655.986 262.756 655.638 260.987 655.638 258.852V242.909H659.493V258.591C659.493 260.42 660.005 261.88 661.028 262.969C662.063 264.058 663.381 264.602 664.982 264.602C665.94 264.602 666.915 264.357 667.906 263.867C668.907 263.377 669.746 262.626 670.421 261.613C671.107 260.6 671.45 259.31 671.45 257.741ZM660.8 238.727C660.114 238.727 659.504 238.466 658.97 237.943C658.447 237.41 658.186 236.8 658.186 236.114C658.186 235.362 658.447 234.741 658.97 234.251C659.504 233.75 660.114 233.5 660.8 233.5C661.551 233.5 662.172 233.75 662.662 234.251C663.163 234.741 663.413 235.362 663.413 236.114C663.413 236.8 663.163 237.41 662.662 237.943C662.172 238.466 661.551 238.727 660.8 238.727ZM670.209 238.727C669.523 238.727 668.913 238.466 668.379 237.943C667.857 237.41 667.595 236.8 667.595 236.114C667.595 235.362 667.857 234.741 668.379 234.251C668.913 233.75 669.523 233.5 670.209 233.5C670.96 233.5 671.581 233.75 672.071 234.251C672.572 234.741 672.822 235.362 672.822 236.114C672.822 236.8 672.572 237.41 672.071 237.943C671.581 238.466 670.96 238.727 670.209 238.727ZM693.278 242.909V246.176H680.275V242.909H693.278ZM684.065 236.898H687.92V260.812C687.92 261.902 688.078 262.718 688.394 263.263C688.721 263.796 689.135 264.156 689.635 264.341C690.147 264.515 690.686 264.602 691.253 264.602C691.677 264.602 692.026 264.58 692.298 264.537C692.57 264.482 692.788 264.439 692.952 264.406L693.736 267.869C693.474 267.967 693.109 268.065 692.641 268.163C692.173 268.272 691.579 268.327 690.861 268.327C689.772 268.327 688.704 268.093 687.659 267.624C686.624 267.156 685.764 266.443 685.078 265.484C684.403 264.526 684.065 263.317 684.065 261.858V236.898ZM698.358 268V265.06L712.603 246.764V246.503H698.816V242.909H717.569V245.98L703.716 264.145V264.406H718.026V268H698.358ZM733.765 268.523C731.347 268.523 729.262 267.989 727.509 266.922C725.766 265.844 724.421 264.341 723.474 262.413C722.537 260.475 722.069 258.221 722.069 255.651C722.069 253.08 722.537 250.815 723.474 248.855C724.421 246.884 725.739 245.348 727.427 244.249C729.126 243.138 731.108 242.582 733.373 242.582C734.68 242.582 735.97 242.8 737.244 243.236C738.519 243.671 739.678 244.379 740.724 245.359C741.769 246.329 742.602 247.614 743.223 249.214C743.844 250.815 744.154 252.786 744.154 255.128V256.761H724.813V253.429H740.234C740.234 252.013 739.951 250.75 739.384 249.639C738.829 248.528 738.034 247.652 736.999 247.009C735.976 246.367 734.767 246.045 733.373 246.045C731.838 246.045 730.509 246.427 729.387 247.189C728.276 247.94 727.422 248.92 726.823 250.129C726.224 251.338 725.924 252.634 725.924 254.017V256.239C725.924 258.134 726.251 259.74 726.904 261.058C727.569 262.364 728.489 263.361 729.665 264.047C730.841 264.722 732.208 265.06 733.765 265.06C734.778 265.06 735.693 264.918 736.509 264.635C737.337 264.341 738.05 263.905 738.649 263.328C739.248 262.74 739.711 262.01 740.038 261.139L743.762 262.185C743.37 263.448 742.711 264.559 741.786 265.517C740.86 266.464 739.717 267.205 738.355 267.739C736.994 268.261 735.464 268.523 733.765 268.523ZM753.874 252.906V268H750.019V242.909H753.743V246.83H754.07C754.658 245.555 755.551 244.532 756.749 243.759C757.947 242.974 759.493 242.582 761.388 242.582C763.087 242.582 764.573 242.931 765.847 243.628C767.122 244.314 768.113 245.359 768.82 246.764C769.528 248.158 769.882 249.922 769.882 252.057V268H766.027V252.318C766.027 250.347 765.515 248.812 764.492 247.712C763.468 246.601 762.063 246.045 760.277 246.045C759.047 246.045 757.947 246.312 756.977 246.846C756.019 247.379 755.262 248.158 754.707 249.182C754.151 250.205 753.874 251.447 753.874 252.906ZM779.737 268.261C778.931 268.261 778.239 267.973 777.662 267.396C777.085 266.818 776.796 266.127 776.796 265.321C776.796 264.515 777.085 263.824 777.662 263.246C778.239 262.669 778.931 262.381 779.737 262.381C780.542 262.381 781.234 262.669 781.811 263.246C782.388 263.824 782.677 264.515 782.677 265.321C782.677 265.855 782.541 266.345 782.268 266.791C782.007 267.238 781.653 267.597 781.207 267.869C780.771 268.131 780.281 268.261 779.737 268.261Z" fill="black"/>
<path d="M866.887 745.424C862.854 746.264 858.03 748.113 857.556 752.482C857.002 757.356 862.617 760.213 867.125 761.222C884.127 765.171 901.682 765.675 919.158 766.18C1011.52 768.532 1103.89 768.953 1196.25 767.356C1194.91 755.34 1181.46 750.129 1170.31 747.86C1122.39 738.113 1072.81 743.659 1025.76 733.323C976.174 722.315 915.837 734.752 866.887 745.424Z" fill="url(#paint0_linear_805_2542)"/>
<path d="M866.887 745.424C862.854 746.264 858.03 748.113 857.556 752.482C857.002 757.356 862.617 760.213 867.125 761.222C884.127 765.171 901.682 765.675 919.158 766.18C1011.52 768.532 1103.89 768.953 1196.25 767.356C1194.91 755.34 1181.46 750.129 1170.31 747.86C1122.39 738.113 1072.81 743.659 1025.76 733.323C976.174 722.315 915.837 734.752 866.887 745.424Z" fill="url(#paint1_linear_805_2542)"/>
<path d="M1118.43 666.265C1119.46 665.929 1120.56 666.265 1121.59 666.602C1126.1 668.198 1130.53 670.299 1134.48 673.072C1136.46 674.417 1138.44 675.929 1139.38 678.198C1140.25 680.299 1140.18 682.652 1140.02 684.837C1138.59 711.895 1137.25 739.037 1135.83 766.096C1135.75 767.86 1135.51 769.793 1134.24 770.886C1132.66 772.146 1130.45 771.306 1128.71 770.465C1111.71 762.566 1094.78 754.583 1077.78 746.684C1069.64 742.903 1061.26 738.869 1055.25 731.894C1059.83 721.138 1069.48 713.996 1078.34 706.769C1092.1 695.508 1104.75 682.568 1115.9 668.45C1116.53 667.61 1117.32 666.601 1118.43 666.265Z" fill="#DDC199"/>
<path d="M1198.54 526.855C1194.35 525.847 1190.07 524.838 1185.88 523.83C1161.21 571.98 1139.39 621.812 1120.56 672.904C1124.91 675.845 1130.69 678.87 1134.88 675.677C1136.62 674.332 1137.65 672.147 1138.59 670.047C1159.95 622.988 1179.95 575.258 1198.54 526.855Z" fill="#BDB39B"/>
<g opacity="0.26">
<path opacity="0.26" d="M1120.79 761.137C1120.71 762.062 1122.05 762.398 1122.21 761.474C1125.61 734.163 1130.44 707.357 1136.68 680.634C1137.08 678.954 1134.63 678.449 1134.23 680.13C1127.75 706.6 1123.24 733.827 1120.79 761.137Z" fill="#272525"/>
<path opacity="0.26" d="M1094 749.121C1104.43 725.76 1115.5 702.735 1127.21 680.046C1127.92 678.701 1125.86 677.609 1125.15 678.954C1112.97 701.811 1101.98 725.34 1091.94 749.289C1092.1 749.457 1092.18 749.625 1092.26 749.793C1092.81 749.373 1093.36 749.205 1094 749.121Z" fill="#272525"/>
<path opacity="0.26" d="M1076.98 733.742C1094.46 716.263 1110.04 696.852 1123.64 675.843C1124.51 674.415 1122.29 673.238 1121.42 674.667C1108.06 695.591 1092.72 714.919 1075.56 732.397C1074.69 733.321 1076.11 734.666 1076.98 733.742Z" fill="#272525"/>
</g>
<path d="M955.765 690.214C955.844 688.954 956.002 687.609 956.081 686.348C945.643 678.785 927.297 681.222 916.226 685.088C904.364 689.205 904.363 696.936 904.522 710.045C904.601 717.44 905.233 725.76 910.611 730.549C914.723 734.247 920.496 734.751 925.873 735.087C930.697 735.423 935.442 735.675 940.265 736.011C943.587 736.179 947.303 736.263 949.913 733.994C952.522 731.642 952.918 727.692 953.234 724.078C954.104 712.734 954.974 701.474 955.765 690.214Z" fill="#2F3F47"/>
<path d="M968.506 690.214C968.427 688.954 968.269 687.609 968.189 686.348C978.628 678.785 996.974 681.222 1008.05 685.088C1019.91 689.205 1019.91 696.936 1019.75 710.045C1019.67 717.44 1019.04 725.76 1013.66 730.549C1009.55 734.247 1003.77 734.751 998.397 735.087C993.574 735.423 988.829 735.675 984.005 736.011C980.684 736.179 976.967 736.263 974.358 733.994C971.748 731.642 971.353 727.692 971.037 724.078C970.246 712.734 969.376 701.474 968.506 690.214Z" fill="#2F3F47"/>
<path d="M879.448 662.148C876.838 662.735 874.307 663.576 871.856 664.668C870.037 665.424 868.219 666.433 866.953 667.945C865.213 670.13 864.739 673.156 864.422 676.097C864.027 679.963 863.869 683.828 863.948 687.693C863.948 690.97 864.186 694.332 865.767 697.105C867.981 700.971 872.331 702.735 876.443 703.827C884.271 705.929 892.416 706.432 900.482 706.853C949.274 709.374 998.223 707.692 1046.78 701.895C1048.75 701.643 1050.97 701.307 1052.31 699.71C1053.1 698.786 1053.5 697.525 1053.89 696.348C1056.42 687.777 1058.09 676.097 1052.63 668.114C1047.96 661.307 1039.34 665.172 1032.86 665.088C1026.22 665.004 1019.5 664.416 1012.85 664.164C999.884 663.576 986.915 662.987 973.947 662.567C955.679 661.895 937.333 661.307 919.066 660.803C906.73 660.551 892.179 659.122 879.448 662.148Z" fill="#516770"/>
<path d="M984.309 477.695C1017.44 477.863 1050.5 478.62 1083.63 479.376C1082.84 460.637 1081.58 441.897 1077.78 423.578C1071.22 391.478 1056.19 360.134 1030.81 341.395C991.9 312.656 930.14 316.437 888.228 344.84C870.594 356.772 856.439 373.159 849.006 393.242C840.465 416.183 838.171 441.225 836.827 465.847C836.669 469.124 836.511 472.317 836.353 475.594C885.54 473.577 935.043 477.527 984.309 477.695Z" fill="#EAF1F2"/>
<path d="M981.657 487.108C933.103 487.024 884.39 483.327 835.836 485.175C833.463 541.141 835.678 597.359 842.479 652.989C843.428 660.636 844.614 668.618 849.359 674.668C856.713 683.996 869.444 679.878 879.329 679.878C896.015 679.878 913.175 680.635 930.018 681.055C961.808 681.811 993.361 681.895 1024.99 678.114C1040.02 676.35 1070.38 681.223 1077.58 666.853C1083.51 655.173 1081.06 631.476 1081.93 618.451C1082.96 602.989 1083.75 587.611 1084.22 572.149C1085.09 544.334 1084.93 516.519 1083.91 488.62C1049.9 487.948 1015.74 487.108 981.657 487.108Z" fill="#E2ECED"/>
<path d="M1096.33 577.696C1096.96 577.107 1097.04 576.099 1097.12 575.259C1098.78 551.982 1100.2 528.704 1101.23 505.427C1101.31 503.41 1101.31 501.058 1099.81 499.713C1098.7 498.789 1097.28 498.705 1095.85 498.705C1090.95 498.621 1086.13 498.537 1081.23 498.537C1078.14 525.007 1076.88 551.645 1077.51 578.284C1082.97 578.284 1088.34 578.368 1093.8 578.368C1094.67 578.368 1095.62 578.368 1096.33 577.696Z" fill="#2F3F47"/>
<path d="M1121.54 631.309C1122.17 629.377 1122.88 627.36 1124.3 625.931C1125.41 624.839 1126.91 624.167 1128.34 623.662C1134.5 621.309 1140.83 619.545 1147.24 618.368C1152.22 621.982 1156.73 626.268 1160.6 631.225C1161.31 632.15 1162.02 633.158 1162.18 634.335C1162.34 635.259 1162.1 636.183 1161.87 637.108C1159.34 647.444 1156.88 657.78 1154.35 668.116C1150.64 668.62 1146.92 668.704 1143.28 668.2C1144.71 661.897 1146.13 655.595 1147.47 649.376C1148.82 643.41 1149.85 636.099 1145.58 631.898C1141.23 633.074 1136.96 634.335 1132.61 635.511C1131.9 635.679 1131.1 635.931 1130.47 636.435C1129.76 637.108 1129.44 638.116 1129.13 639.04C1127.31 644.923 1125.96 650.973 1125.02 657.108C1122.25 656.267 1119.48 655.51 1116.71 654.67C1116.47 646.687 1119.01 638.873 1121.54 631.309Z" fill="#2F3F47"/>
<path d="M1155.14 622.234C1155.38 621.982 1155.46 621.647 1155.54 621.394C1156.33 617.613 1157.12 613.831 1157.99 610.133C1152.45 608.789 1146.76 607.864 1141.15 607.36C1140.28 610.47 1139.72 613.747 1139.49 617.024C1139.41 617.697 1139.41 618.537 1139.88 619.041C1140.2 619.377 1140.59 619.461 1140.99 619.63C1145.18 620.974 1149.53 621.982 1153.96 622.57C1154.27 622.486 1154.75 622.571 1155.14 622.234Z" fill="#516770"/>
<path d="M1160.69 607.53C1164.01 601.563 1161.32 585.849 1161.32 579.547C1161.24 570.891 1161.24 562.152 1159.34 553.749C1157.44 545.345 1153.57 537.11 1147.16 531.816C1143.53 528.791 1139.26 526.859 1134.83 525.262C1121.62 520.472 1107.47 518.876 1093.63 520.64C1092.52 520.808 1091.33 520.976 1090.54 521.817C1089.67 522.657 1089.52 524.001 1089.36 525.262C1088.72 530.052 1087.86 535.346 1088.09 540.219C1088.49 548.791 1086.83 546.438 1092.68 548.875C1097.19 550.724 1105.65 549.211 1110.79 550.472C1116.8 551.9 1122.65 554.085 1128.5 556.27C1132.22 557.614 1136.17 559.295 1138.07 562.908C1139.1 564.841 1139.41 567.194 1139.65 569.463C1141.07 582.909 1141.71 596.437 1141.63 609.967C1141.63 612.319 1157.92 611.143 1160.05 608.538C1160.29 608.202 1160.45 607.866 1160.69 607.53Z" fill="#E2ECED"/>
<g opacity="0.15">
<path opacity="0.15" d="M1133 529.128C1132.53 537.195 1130.55 544.506 1127.55 551.901C1126.99 553.329 1128.65 554.422 1129.52 553.162C1134.27 546.103 1136.72 537.699 1137.59 529.128C1137.91 526.103 1133.24 526.018 1133 529.128Z" fill="#272525"/>
<path opacity="0.15" d="M1145.11 534.925C1143.76 542.741 1140.44 547.867 1135.22 553.413C1134.51 554.169 1135.46 555.429 1136.25 554.841C1139.81 552.488 1143.13 550.976 1145.66 547.195C1148.03 543.665 1149.61 539.883 1150.09 535.598C1150.4 532.657 1145.66 531.984 1145.11 534.925Z" fill="#272525"/>
</g>
<path d="M828.074 499.209C827.442 499.797 827.363 500.806 827.284 501.646C825.623 524.923 824.2 548.2 823.172 571.477C823.093 573.494 823.093 575.847 824.595 577.191C825.702 578.116 827.125 578.2 828.549 578.2C833.452 578.284 838.275 578.368 843.178 578.368C846.262 551.898 847.528 525.259 846.895 498.621C841.439 498.621 836.061 498.537 830.605 498.537C829.735 498.537 828.707 498.537 828.074 499.209Z" fill="#2F3F47"/>
<path d="M766.779 470.554C767.017 472.571 767.253 474.755 766.542 476.604C765.988 478.116 764.96 479.377 763.853 480.554C759.346 485.511 754.443 490.134 749.145 494.251C743.135 493.411 737.283 491.646 731.827 489.041C730.799 488.537 729.691 488.033 729.059 487.024C728.584 486.268 728.347 485.343 728.189 484.419C726.133 473.999 723.998 463.495 721.942 453.075C725.026 450.89 728.347 449.041 731.827 447.696C733.171 453.999 734.594 460.301 735.938 466.604C737.283 472.57 739.418 479.629 744.954 481.31C748.354 478.201 751.675 475.091 755.076 471.982C755.629 471.478 756.262 470.89 756.578 470.134C756.974 469.209 756.815 468.116 756.657 467.108C755.787 460.974 754.522 454.924 752.782 448.957C755.629 448.369 758.397 447.781 761.244 447.192C764.881 454.335 765.83 462.57 766.779 470.554Z" fill="#2F3F47"/>
<path d="M740.508 494.503C740.429 494.839 740.508 495.176 740.508 495.428C741.378 499.209 742.248 502.906 743.039 506.688C748.574 505.259 754.031 503.411 759.329 501.226C758.855 498.032 757.985 494.839 756.798 491.814C756.561 491.142 756.245 490.469 755.613 490.217C755.217 490.049 754.821 490.133 754.347 490.217C749.998 490.974 745.728 492.15 741.536 493.663C741.141 493.831 740.666 494.083 740.508 494.503Z" fill="#516770"/>
<path d="M741.713 510.303C741.16 517.193 750.175 529.966 752.863 535.68C756.501 543.412 760.218 551.227 765.437 557.865C770.656 564.504 777.536 570.05 785.522 571.73C790.03 572.739 794.695 572.487 799.282 571.815C813.121 569.882 826.485 564.672 838.11 556.521C839.059 555.848 840.008 555.176 840.403 554C840.798 552.823 840.403 551.563 840.087 550.302C838.584 545.681 837.24 540.555 834.947 536.269C830.993 528.79 833.523 530.134 827.197 530.638C822.373 531.059 815.414 536.437 810.274 537.782C804.264 539.378 798.096 540.134 792.007 540.975C788.132 541.479 783.862 541.899 780.62 539.546C778.88 538.286 777.615 536.353 776.508 534.42C769.628 523.075 763.381 511.227 757.766 499.043C756.817 496.942 742.741 505.681 741.871 509.042C741.792 509.546 741.713 509.883 741.713 510.303Z" fill="#E2ECED"/>
<g opacity="0.15">
<path opacity="0.15" d="M799.187 567.442C796.261 559.963 794.996 552.484 794.522 544.417C794.443 542.821 792.465 542.653 792.228 544.25C790.963 552.821 792.229 561.476 795.075 569.543C796.103 572.484 800.373 570.299 799.187 567.442Z" fill="#272525"/>
<path opacity="0.15" d="M785.996 568.031C783.94 560.384 784.731 554.25 787.103 546.771C787.419 545.763 786.075 545.09 785.521 545.93C783.386 549.712 781.014 552.653 780.302 557.191C779.67 561.476 779.828 565.594 781.251 569.627C782.2 572.568 786.708 570.888 785.996 568.031Z" fill="#272525"/>
</g>
<path d="M858.436 422.739C858.514 425.932 858.672 429.209 859.938 432.151C863.18 439.461 871.72 441.814 879.233 443.159C922.172 450.805 966.061 453.411 1009.24 447.612C1014.93 446.856 1020.63 445.932 1025.84 443.411C1031.06 440.89 1035.73 436.604 1037.63 430.974C1038.81 427.36 1038.89 423.495 1038.97 419.63C1039.05 415.764 1039.05 411.815 1039.13 407.949C1039.13 406.185 1039.13 404.42 1038.5 402.739C1037.78 400.974 1036.36 399.546 1034.86 398.453C1029.17 394.336 1021.97 393.411 1015.09 392.655C969.383 387.781 923.122 383.496 877.652 390.05C875.754 390.302 873.776 390.638 872.432 392.067C871.72 392.739 871.246 393.664 870.534 394.336C869.19 395.428 867.371 395.344 865.79 395.932C861.361 397.445 859.78 403.244 859.226 408.202C858.594 412.991 858.356 417.865 858.436 422.739Z" fill="#2F3F47"/>
<path opacity="0.2" d="M915.679 429.796C917.182 426.855 917.419 423.41 917.103 420.049C916.945 418.032 916.47 415.932 915.284 414.419C912.753 411.226 908.088 411.562 904.213 410.806C900.813 412.318 897.965 415.259 896.542 418.873C895.672 421.057 895.277 423.41 895.514 425.763C896.068 430.553 899.785 434.671 904.213 435.511C908.72 436.52 913.544 434.082 915.679 429.796Z" fill="#EAF1F2"/>
<path opacity="0.2" d="M990.982 429.796C992.485 426.855 992.722 423.41 992.406 420.049C992.248 418.032 991.773 415.932 990.587 414.419C988.056 411.226 983.391 411.562 979.516 410.806C976.116 412.318 973.269 415.259 971.845 418.873C970.976 421.057 970.58 423.41 970.817 425.763C971.371 430.553 975.088 434.671 979.516 435.511C983.945 436.52 988.768 434.082 990.982 429.796Z" fill="#EAF1F2"/>
<defs>
<linearGradient id="paint0_linear_805_2542" x1="857.57" y1="748.658" x2="1196.34" y2="748.658" gradientUnits="userSpaceOnUse">
<stop stop-color="#4D4D4D"/>
<stop offset="1"/>
</linearGradient>
<linearGradient id="paint1_linear_805_2542" x1="857.57" y1="748.658" x2="1196.34" y2="748.658" gradientUnits="userSpaceOnUse">
<stop/>
<stop offset="1"/>
</linearGradient>
</defs>
</svg>
