<svg width="1590" height="572" viewBox="0 0 1590 572" fill="none" xmlns="http://www.w3.org/2000/svg">
<path d="M404.785 532.373C398.206 532.372 391.84 530.395 386.819 526.792C381.798 523.189 378.448 518.194 377.364 512.696L377.355 512.65L377.39 512.615C379.169 510.811 380.606 508.783 381.652 506.606C380.407 507.957 378.905 509.122 377.205 510.051L377.031 510.15L377.021 509.973C376.999 509.582 376.987 509.195 376.987 508.82C376.972 504.815 378.169 500.874 380.464 497.373C382.759 493.872 386.076 490.928 390.097 488.822C386.018 485.217 382.949 480.88 381.117 476.132C379.285 471.385 378.737 466.349 379.514 461.399C380.291 456.448 382.373 451.708 385.605 447.532C388.837 443.355 393.137 439.848 398.187 437.27C403.236 434.693 408.905 433.111 414.774 432.642C420.642 432.173 426.561 432.829 432.089 434.561C437.618 436.293 442.617 439.057 446.714 442.648C450.811 446.239 453.902 450.565 455.757 455.306L455.792 455.395L455.689 455.43C453.322 456.295 450.775 456.75 448.197 456.768C450.881 457.411 453.667 457.697 456.454 457.613L456.55 457.611L456.574 457.69C457.353 460.336 457.746 463.054 457.745 465.781C457.745 465.88 457.745 465.978 457.744 466.076C457.736 468.197 458.256 470.295 459.27 472.235C460.284 474.174 461.768 475.91 463.627 477.331C466.597 479.62 468.946 482.427 470.513 485.559C472.08 488.69 472.827 492.073 472.704 495.473C472.581 498.873 471.59 502.209 469.799 505.254C468.008 508.298 465.46 510.978 462.33 513.108L462.273 513.147L462.207 513.122C458.097 511.542 455.235 509.778 453.286 507.613C454.604 510.339 456.525 512.827 458.947 514.941L459.053 515.033L458.922 515.098C454.768 517.148 450.057 518.251 445.25 518.3C440.443 518.348 435.702 517.34 431.492 515.374C429.801 520.27 426.286 524.571 421.473 527.634C416.659 530.698 410.805 532.36 404.785 532.373V532.373Z" fill="#F2F2F2"/>
<path d="M394.882 569.888C394.76 569.888 394.643 569.851 394.551 569.784C394.459 569.716 394.4 569.623 394.382 569.521C393.062 559.542 392.983 549.474 394.147 539.481C395.89 523.718 401.488 501.013 418.258 482.365C418.298 482.32 418.348 482.283 418.406 482.254C418.463 482.226 418.527 482.207 418.592 482.199C418.658 482.192 418.725 482.195 418.79 482.209C418.854 482.224 418.914 482.249 418.967 482.283C419.02 482.317 419.065 482.36 419.098 482.408C419.131 482.457 419.153 482.511 419.162 482.567C419.171 482.623 419.166 482.68 419.149 482.734C419.132 482.788 419.102 482.839 419.062 482.884C402.437 501.37 396.883 523.909 395.153 539.561C393.995 549.487 394.072 559.488 395.382 569.4C395.393 569.461 395.387 569.523 395.367 569.582C395.346 569.64 395.311 569.695 395.264 569.741C395.216 569.787 395.157 569.824 395.092 569.85C395.026 569.875 394.954 569.888 394.882 569.888V569.888Z" fill="#3F3D56"/>
<path d="M403.265 507.022C403.159 507.022 403.055 506.994 402.968 506.94C402.882 506.887 402.818 506.812 402.785 506.727C402.752 506.641 402.751 506.548 402.784 506.462C402.817 506.376 402.882 506.301 402.968 506.248C407.746 503.507 412.908 501.281 418.335 499.62C426.814 496.99 439.706 494.606 452.979 498.185C453.107 498.219 453.213 498.295 453.275 498.396C453.336 498.497 453.348 498.614 453.307 498.722C453.267 498.831 453.177 498.921 453.058 498.973C452.939 499.025 452.8 499.035 452.673 499C439.672 495.495 427.013 497.84 418.682 500.424C413.343 502.056 408.264 504.245 403.562 506.94C403.476 506.993 403.372 507.022 403.265 507.022V507.022Z" fill="#3F3D56"/>
<path d="M145.01 96.6254H138.729V63.855C138.729 59.4264 136.652 55.1792 132.957 52.0477C129.261 48.9162 124.248 47.1569 119.021 47.1569H91.8024V0H87.4371V47.1569H50.3325V96.6254H13.7734V570.968H218.94V159.265C218.94 142.652 211.151 126.719 197.287 114.972C183.422 103.225 164.618 96.6254 145.01 96.6254V96.6254Z" fill="#3F3D56"/>
<path d="M332.944 385.577H327.526V379.159C327.524 374.903 325.602 370.808 322.153 367.713C318.704 364.618 313.989 362.757 308.974 362.511V319.003H304.609V362.461H284.965V385.577H215.121V571.431H370.088V417.048C370.088 412.915 369.127 408.823 367.26 405.005C365.394 401.186 362.658 397.717 359.209 394.795C355.76 391.873 351.665 389.554 347.159 387.973C342.652 386.391 337.822 385.577 332.944 385.577V385.577Z" fill="#3F3D56"/>
<path d="M632.004 252.528V241.387C632.001 237.13 630.079 233.036 626.63 229.941C623.181 226.846 618.467 224.985 613.451 224.738V181.23H609.086V224.689H589.442V252.428H496.681V571.431H701.848V315.067C701.847 299.054 694.608 283.65 681.618 272.018C668.628 260.387 650.874 253.413 632.004 252.528Z" fill="#3F3D56"/>
<path d="M557.794 297.736H530.511V316.229H557.794V297.736Z" fill="white"/>
<path d="M602.538 297.736H575.255V316.229H602.538V297.736Z" fill="white"/>
<path d="M647.282 297.736H619.999V316.229H647.282V297.736Z" fill="white"/>
<path d="M557.794 344.893H530.511V363.385H557.794V344.893Z" fill="white"/>
<path d="M602.538 344.893H575.255V363.385H602.538V344.893Z" fill="white"/>
<path d="M647.282 344.893H619.999V363.385H647.282V344.893Z" fill="white"/>
<path d="M557.794 392.05H530.511V410.543H557.794V392.05Z" fill="white"/>
<path d="M602.538 392.05H575.255V410.543H602.538V392.05Z" fill="white"/>
<path d="M647.282 392.05H619.999V410.543H647.282V392.05Z" fill="white"/>
<path d="M557.794 439.206H530.511V457.699H557.794V439.206Z" fill="white"/>
<path d="M602.538 439.206H575.255V457.699H602.538V439.206Z" fill="white"/>
<path d="M647.282 439.206H619.999V457.699H647.282V439.206Z" fill="white"/>
<path d="M557.794 486.363H530.511V504.856H557.794V486.363Z" fill="white"/>
<path d="M602.538 486.363H575.255V504.856H602.538V486.363Z" fill="white"/>
<path d="M647.282 486.363H619.999V504.856H647.282V486.363Z" fill="white"/>
<path d="M557.794 533.521H530.511V552.013H557.794V533.521Z" fill="white"/>
<path d="M602.538 533.521H575.255V552.013H602.538V533.521Z" fill="white"/>
<path d="M647.282 533.521H619.999V552.013H647.282V533.521Z" fill="white"/>
<path d="M160.556 134.074H72.1592V139.622H160.556V134.074Z" fill="white"/>
<path d="M160.556 168.285H72.1592V173.833H160.556V168.285Z" fill="white"/>
<path d="M160.556 202.498H72.1592V208.046H160.556V202.498Z" fill="white"/>
<path d="M160.556 236.709H72.1592V242.257H160.556V236.709Z" fill="white"/>
<path d="M160.556 270.922H72.1592V276.47H160.556V270.922Z" fill="white"/>
<path d="M160.556 305.133H72.1592V310.681H160.556V305.133Z" fill="white"/>
<path d="M160.556 339.345H72.1592V344.893H160.556V339.345Z" fill="white"/>
<path d="M160.556 373.557H72.1592V379.105H160.556V373.557Z" fill="white"/>
<path d="M160.556 407.769H72.1592V413.316H160.556V407.769Z" fill="white"/>
<path d="M160.556 441.98H72.1592V447.528H160.556V441.98Z" fill="white"/>
<path d="M160.556 476.192H72.1592V481.74H160.556V476.192Z" fill="white"/>
<path d="M160.556 510.404H72.1592V515.952H160.556V510.404Z" fill="white"/>
<path d="M261.502 410.542H234.219V429.035H261.502V410.542Z" fill="white"/>
<path d="M306.246 410.542H278.963V429.035H306.246V410.542Z" fill="white"/>
<path d="M350.99 410.542H323.707V429.035H350.99V410.542Z" fill="white"/>
<path d="M262.048 457.699H234.765V476.192H262.048V457.699Z" fill="white"/>
<path d="M306.792 457.699H279.509V476.192H306.792V457.699Z" fill="white"/>
<path d="M351.536 457.699H324.253V476.192H351.536V457.699Z" fill="white"/>
<path d="M262.593 504.856H235.311V523.349H262.593V504.856Z" fill="white"/>
<path d="M307.338 504.856H280.055V523.349H307.338V504.856Z" fill="white"/>
<path d="M352.081 504.856H324.798V523.349H352.081V504.856Z" fill="white"/>
<path d="M108.173 57.3281H80.8896V75.821H108.173V57.3281Z" fill="white"/>
<path d="M21.2663 525.382C23.4349 510.608 34.2419 496.05 50.8723 491.242C44.3137 506.449 44.3151 523.132 50.8763 538.339C53.4317 544.195 56.9938 550.484 54.59 556.387C53.0945 560.059 49.4358 562.869 45.346 564.626C41.256 566.384 36.717 567.221 32.2348 568.042L31.3526 568.66C24.2372 555.047 19.0977 540.157 21.2663 525.382Z" fill="#CACACA"/>
<path d="M51.0371 491.521C41.3524 500.716 35.333 512.262 33.8341 524.519C33.4561 527.153 33.5705 529.821 34.173 532.425C34.8567 534.945 36.3245 537.265 38.4239 539.142C40.3399 540.925 42.5435 542.562 43.9144 544.709C44.5969 545.817 44.9953 547.035 45.0834 548.282C45.1715 549.53 44.9474 550.779 44.4257 551.948C43.2154 554.889 40.8298 557.286 38.4008 559.562C35.7038 562.089 32.8552 564.678 31.7088 568.028C31.5699 568.433 30.8347 568.227 30.9734 567.822C32.968 561.993 39.6456 558.683 42.8301 553.433C44.3161 550.984 44.9397 548.14 43.5467 545.554C42.3285 543.293 40.0579 541.604 38.0995 539.812C36.0198 538.007 34.4936 535.797 33.6542 533.376C32.8971 530.807 32.6616 528.147 32.9577 525.511C33.5127 519.566 35.1673 513.733 37.861 508.224C40.8941 501.923 45.1771 496.107 50.5248 491.029C50.8559 490.715 51.3662 491.209 51.0372 491.521H51.0371Z" fill="white"/>
<path d="M34.0422 520.549C31.6491 520.057 29.5404 518.86 28.0927 517.172C26.645 515.484 25.9526 513.415 26.1392 511.334C26.1787 510.913 26.9525 510.945 26.913 511.367C26.735 513.304 27.3802 515.231 28.732 516.801C30.0839 518.37 32.0534 519.479 34.2851 519.926C34.7699 520.024 34.5243 520.646 34.0422 520.549H34.0422Z" fill="white"/>
<path d="M37.3114 538.346C41.6337 536.159 44.8244 532.673 46.2474 528.581C46.388 528.176 47.1233 528.382 46.9829 528.787C45.4927 533.042 42.1635 536.665 37.6597 538.932C37.2302 539.148 36.8842 538.561 37.3114 538.346V538.346Z" fill="white"/>
<path d="M41.613 502.544C42.4921 502.898 43.4612 503.061 44.4333 503.02C45.4053 502.978 46.3499 502.732 47.1822 502.304C47.6082 502.084 47.9538 502.672 47.5306 502.891C46.6084 503.359 45.5648 503.63 44.4909 503.678C43.417 503.726 42.3456 503.551 41.3701 503.167C41.2746 503.137 41.1959 503.078 41.1502 503.001C41.1044 502.924 41.095 502.835 41.1238 502.753C41.1564 502.67 41.2261 502.602 41.3177 502.563C41.4093 502.524 41.5154 502.517 41.6129 502.544H41.613Z" fill="white"/>
<path d="M101.564 517.631C101.302 517.775 101.041 517.919 100.779 518.069C97.2766 520.02 93.9672 522.21 90.8832 524.615C90.6413 524.798 90.3994 524.986 90.1641 525.174C82.8071 531.037 76.7986 538.005 72.4441 545.726C70.7147 548.8 69.2638 551.981 68.1039 555.241C66.5024 559.743 65.1887 564.733 62.0185 568.416C61.6928 568.803 61.3392 569.173 60.9595 569.524H32.3105C32.2454 569.496 32.18 569.474 32.1146 569.446L30.9707 569.49C31.0167 569.319 31.0687 569.141 31.1146 568.97C31.1408 568.87 31.1734 568.77 31.1995 568.671C31.219 568.604 31.2388 568.538 31.2519 568.477C31.2583 568.455 31.265 568.433 31.2714 568.416C31.2845 568.355 31.3043 568.3 31.3174 568.244C31.6049 567.253 31.9012 566.262 32.2062 565.27C32.2062 565.265 32.2062 565.265 32.2126 565.259C34.4514 557.687 37.7426 550.366 42.0172 543.45C42.148 543.245 42.2785 543.035 42.4225 542.83C44.4018 539.769 46.6732 536.85 49.2138 534.102C50.6107 532.601 52.0964 531.161 53.6652 529.788C57.7266 526.245 62.4204 523.266 67.5744 520.96C77.8497 516.363 89.7458 514.602 100.727 517.41C101.008 517.482 101.283 517.554 101.564 517.631Z" fill="#CACACA"/>
<path d="M101.5 517.94C87.2337 520.34 74.2231 526.489 64.3159 535.511C62.1424 537.421 60.3379 539.61 58.9688 541.996C57.7237 544.358 57.2477 546.958 57.59 549.528C57.8524 551.929 58.449 554.36 58.0179 556.774C57.7755 558.007 57.2283 559.182 56.4122 560.223C55.5961 561.264 54.5295 562.147 53.2824 562.814C50.2259 564.545 46.6175 565.243 43.0609 565.821C39.1119 566.462 34.9983 567.076 31.7024 569.166C31.3031 569.419 30.8627 568.879 31.2614 568.627C36.9955 564.99 44.6797 565.753 50.9526 563.186C53.8797 561.989 56.3984 560.036 57.1235 557.261C57.7576 554.834 57.1449 552.327 56.8544 549.898C56.4771 547.395 56.8288 544.852 57.8787 542.491C59.1 540.053 60.802 537.809 62.9119 535.856C67.5789 531.393 73.0452 527.579 79.1104 524.555C86.01 521.07 93.5622 518.612 101.44 517.285C101.928 517.203 101.984 517.858 101.5 517.94H101.5Z" fill="white"/>
<path d="M67.3043 532.446C65.7433 530.832 64.9102 528.801 64.9538 526.715C64.9974 524.629 65.9148 522.623 67.5422 521.057C67.8727 520.741 68.4677 521.162 68.1367 521.478C66.618 522.934 65.7637 524.802 65.7278 526.745C65.6919 528.688 66.4768 530.577 67.9409 532.073C68.2586 532.398 67.6202 532.77 67.3043 532.446V532.446Z" fill="white"/>
<path d="M57.267 548.325C62.272 548.784 67.2972 547.628 71.3407 545.087C71.7411 544.835 72.1816 545.375 71.7817 545.626C67.5681 548.264 62.3357 549.458 57.1286 548.971C56.6324 548.924 56.7734 548.279 57.267 548.325V548.325Z" fill="white"/>
<path d="M86.1421 521.934C86.5926 522.665 87.2502 523.289 88.0561 523.752C88.862 524.214 89.7908 524.5 90.7591 524.583C91.2559 524.625 91.1143 525.27 90.6208 525.229C89.5514 525.133 88.5261 524.816 87.6344 524.307C86.7427 523.798 86.0118 523.111 85.5055 522.307C85.4503 522.235 85.4297 522.147 85.4478 522.063C85.466 521.978 85.5216 521.902 85.6033 521.851C85.6879 521.802 85.792 521.783 85.8929 521.798C85.9938 521.814 86.0833 521.862 86.1421 521.934Z" fill="white"/>
<path d="M541.823 525.382C543.991 510.608 554.799 496.05 571.429 491.242C564.87 506.449 564.872 523.132 571.433 538.339C573.988 544.195 577.551 550.484 575.147 556.387C573.651 560.059 569.992 562.869 565.903 564.626C561.813 566.384 557.274 567.221 552.791 568.042L551.909 568.66C544.794 555.047 539.654 540.157 541.823 525.382Z" fill="#CACACA"/>
<path d="M571.594 491.521C561.909 500.716 555.89 512.262 554.391 524.519C554.013 527.153 554.127 529.821 554.73 532.425C555.413 534.945 556.881 537.265 558.981 539.142C560.896 540.925 563.1 542.562 564.471 544.709C565.153 545.817 565.552 547.035 565.64 548.282C565.728 549.53 565.504 550.779 564.982 551.948C563.772 554.889 561.386 557.286 558.957 559.562C556.26 562.089 553.412 564.678 552.265 568.028C552.127 568.433 551.391 568.227 551.53 567.822C553.525 561.993 560.202 558.683 563.387 553.433C564.873 550.984 565.496 548.14 564.103 545.554C562.885 543.293 560.614 541.604 558.656 539.812C556.576 538.007 555.05 535.797 554.211 533.376C553.454 530.807 553.218 528.147 553.514 525.511C554.069 519.566 555.724 513.733 558.418 508.224C561.451 501.923 565.734 496.107 571.081 491.029C571.412 490.715 571.923 491.209 571.594 491.521V491.521Z" fill="white"/>
<path d="M554.6 520.549C552.207 520.057 550.098 518.86 548.65 517.172C547.203 515.484 546.51 513.415 546.697 511.334C546.736 510.913 547.51 510.945 547.471 511.367C547.293 513.304 547.938 515.231 549.29 516.801C550.642 518.37 552.611 519.479 554.843 519.926C555.328 520.024 555.082 520.646 554.6 520.549V520.549Z" fill="white"/>
<path d="M557.869 538.346C562.191 536.159 565.382 532.673 566.805 528.581C566.946 528.176 567.681 528.382 567.54 528.787C566.05 533.042 562.721 536.665 558.217 538.932C557.788 539.148 557.442 538.561 557.869 538.346V538.346Z" fill="white"/>
<path d="M562.17 502.544C563.049 502.898 564.018 503.061 564.99 503.02C565.962 502.978 566.907 502.732 567.739 502.304C568.165 502.084 568.51 502.672 568.087 502.891C567.165 503.359 566.121 503.63 565.047 503.678C563.974 503.726 562.902 503.551 561.927 503.167C561.831 503.137 561.753 503.078 561.707 503.001C561.661 502.924 561.652 502.835 561.68 502.753C561.713 502.67 561.783 502.602 561.874 502.563C561.966 502.524 562.072 502.517 562.17 502.544H562.17Z" fill="white"/>
<path d="M622.121 517.631C621.86 517.775 621.598 517.919 621.337 518.069C617.834 520.02 614.525 522.21 611.441 524.615C611.199 524.798 610.957 524.986 610.722 525.174C603.365 531.037 597.356 538.005 593.002 545.726C591.272 548.8 589.821 551.981 588.662 555.241C587.06 559.743 585.746 564.733 582.576 568.416C582.25 568.803 581.897 569.173 581.517 569.524H552.868C552.803 569.496 552.738 569.474 552.672 569.446L551.528 569.49C551.574 569.319 551.626 569.141 551.672 568.97C551.698 568.87 551.731 568.77 551.757 568.671C551.777 568.604 551.796 568.538 551.81 568.477C551.816 568.455 551.823 568.433 551.829 568.416C551.842 568.355 551.862 568.3 551.875 568.244C552.163 567.253 552.459 566.262 552.764 565.27C552.764 565.265 552.764 565.265 552.77 565.259C555.009 557.687 558.3 550.366 562.575 543.45C562.706 543.245 562.836 543.035 562.98 542.83C564.959 539.769 567.231 536.85 569.771 534.102C571.168 532.601 572.654 531.161 574.223 529.788C578.284 526.245 582.978 523.266 588.132 520.96C598.407 516.363 610.303 514.602 621.285 517.41C621.565 517.482 621.84 517.554 622.121 517.631Z" fill="#CACACA"/>
<path d="M622.056 517.94C607.79 520.34 594.78 526.489 584.873 535.511C582.699 537.421 580.895 539.61 579.525 541.996C578.28 544.358 577.804 546.958 578.147 549.528C578.409 551.929 579.006 554.36 578.574 556.774C578.332 558.007 577.785 559.182 576.969 560.223C576.153 561.264 575.086 562.147 573.839 562.814C570.782 564.545 567.174 565.243 563.618 565.821C559.669 566.462 555.555 567.076 552.259 569.166C551.86 569.419 551.419 568.879 551.818 568.627C557.552 564.99 565.236 565.753 571.509 563.186C574.436 561.989 576.955 560.036 577.68 557.261C578.314 554.834 577.701 552.327 577.411 549.898C577.034 547.395 577.385 544.852 578.435 542.491C579.657 540.053 581.359 537.809 583.468 535.856C588.136 531.393 593.602 527.579 599.667 524.555C606.567 521.07 614.119 518.612 621.997 517.285C622.485 517.203 622.541 517.858 622.056 517.94H622.056Z" fill="white"/>
<path d="M587.861 532.446C586.3 530.832 585.467 528.801 585.51 526.715C585.554 524.629 586.471 522.623 588.099 521.057C588.429 520.741 589.024 521.162 588.693 521.478C587.175 522.934 586.32 524.802 586.284 526.745C586.249 528.688 587.033 530.577 588.498 532.073C588.815 532.398 588.177 532.77 587.861 532.446V532.446Z" fill="white"/>
<path d="M577.825 548.325C582.83 548.784 587.855 547.628 591.898 545.087C592.299 544.835 592.739 545.375 592.339 545.626C588.126 548.264 582.893 549.458 577.686 548.971C577.19 548.924 577.331 548.279 577.825 548.325V548.325Z" fill="white"/>
<path d="M606.699 521.934C607.149 522.665 607.807 523.289 608.613 523.752C609.419 524.214 610.347 524.5 611.316 524.583C611.813 524.625 611.671 525.27 611.177 525.229C610.108 525.133 609.083 524.816 608.191 524.307C607.299 523.798 606.568 523.111 606.062 522.307C606.007 522.235 605.986 522.147 606.004 522.063C606.023 521.978 606.078 521.902 606.16 521.851C606.245 521.802 606.349 521.783 606.449 521.798C606.55 521.814 606.64 521.862 606.699 521.934V521.934Z" fill="white"/>
<path d="M296.323 39.7463C291.777 34.3696 286.804 28.7628 281.242 28.987C267.78 29.5294 260.521 62.6003 247.073 61.4373C238.496 60.6956 232.803 46.0957 224.818 40.8019C214.421 33.9103 201.191 47.3888 200.057 66.0272L201.392 63.9794C241.805 80.4888 283.743 83.7355 324.892 73.5402C315.369 62.2756 305.846 51.0109 296.323 39.7463Z" fill="#F0F0F0"/>
<path d="M522.42 8.84863C517.816 4.42941 512.779 -0.178878 507.146 0.00534717C493.511 0.451211 486.16 27.6327 472.539 26.6768C463.853 26.0672 458.086 14.0673 449.998 9.71628C439.469 4.05195 426.069 15.1301 424.92 30.4494L426.272 28.7663C467.203 42.3356 509.679 45.0041 551.356 36.6244C541.711 27.3658 532.065 18.1072 522.42 8.84863Z" fill="#F0F0F0"/>
<path d="M477.648 437.863C477.706 437.831 477.755 437.789 477.789 437.738C477.823 437.688 477.842 437.631 477.845 437.573C477.788 437.616 477.732 437.66 477.674 437.702C477.666 437.756 477.663 437.807 477.648 437.863Z" fill="#2F2E41"/>
<path d="M707.701 572H1.29954C0.955569 571.999 0.626016 571.883 0.383142 571.676C0.140268 571.47 0.00390625 571.19 0.00390625 570.899C0.00390625 570.607 0.140268 570.328 0.383142 570.121C0.626016 569.915 0.955569 569.799 1.29954 569.798H707.701C708.045 569.799 708.374 569.915 708.617 570.121C708.86 570.328 708.996 570.607 708.996 570.899C708.996 571.19 708.86 571.47 708.617 571.676C708.374 571.883 708.045 571.999 707.701 572Z" fill="#CACACA"/>
<path d="M379.217 312.651L374.351 314.763C374.305 314.783 374.251 314.787 374.202 314.773C374.152 314.76 374.111 314.73 374.088 314.691C374.064 314.652 374.06 314.607 374.076 314.565C374.092 314.523 374.127 314.488 374.173 314.468L379.039 312.357C379.061 312.347 379.086 312.34 379.112 312.338C379.138 312.337 379.164 312.339 379.188 312.346C379.213 312.352 379.235 312.363 379.255 312.377C379.275 312.391 379.291 312.408 379.303 312.428C379.314 312.447 379.321 312.469 379.323 312.49C379.325 312.512 379.322 312.534 379.314 312.555C379.306 312.575 379.294 312.595 379.277 312.611C379.26 312.628 379.24 312.641 379.217 312.651V312.651Z" fill="white"/>
<path d="M379.892 312.304C379.978 312.304 380.048 312.244 380.048 312.171C380.048 312.098 379.978 312.039 379.892 312.039C379.805 312.039 379.735 312.098 379.735 312.171C379.735 312.244 379.805 312.304 379.892 312.304Z" fill="white"/>
<path d="M370.486 326.478C370.403 326.514 370.306 326.521 370.218 326.496C370.129 326.472 370.055 326.419 370.013 326.349L369.3 325.171C369.258 325.101 369.25 325.019 369.279 324.944C369.307 324.869 369.37 324.806 369.453 324.77C369.536 324.734 369.632 324.727 369.721 324.752C369.81 324.776 369.884 324.829 369.926 324.899L370.638 326.077C370.681 326.148 370.688 326.229 370.66 326.304C370.631 326.38 370.568 326.442 370.486 326.478V326.478Z" fill="#3F3D56"/>
<path d="M371.804 328.658C371.721 328.694 371.624 328.7 371.535 328.676C371.447 328.652 371.373 328.599 371.33 328.528L370.618 327.35C370.597 327.316 370.584 327.278 370.58 327.239C370.576 327.199 370.582 327.16 370.596 327.123C370.61 327.086 370.633 327.051 370.663 327.021C370.693 326.991 370.729 326.967 370.77 326.949C370.812 326.931 370.856 326.92 370.903 326.917C370.949 326.914 370.995 326.918 371.039 326.931C371.083 326.943 371.124 326.962 371.159 326.987C371.194 327.013 371.223 327.044 371.244 327.079L371.956 328.257C371.999 328.327 372.006 328.409 371.978 328.484C371.949 328.559 371.886 328.622 371.804 328.658V328.658Z" fill="#3F3D56"/>
<g clip-path="url(#clip0_436_2546)">
<path d="M1418.95 570.939H1083.21V346.36L1081.66 345.229L1136.16 284.721C1163.71 254.029 1200.62 236.701 1239.14 236.378L1339.32 235.334L1339.47 235.529L1419.18 343.635L1418.95 346.628L1418.95 570.939Z" fill="#3F3D56"/>
<path d="M1347.24 277.711H1146.44V279.876H1347.24V277.711Z" fill="white"/>
<path d="M1327.3 300.441H1126.5V302.606H1327.3V300.441Z" fill="white"/>
<path d="M1444.02 449.258H1407.52V486.034H1444.02V449.258Z" fill="white"/>
<path d="M1444.02 385.604H1407.52V421.796H1444.02V385.604Z" fill="white"/>
<path d="M1397.08 238.977H1364.35V368.105H1397.08V238.977Z" fill="#3F3D56"/>
<path d="M1418.95 570.938H1239.28V422.112C1239.29 387.697 1250.05 354.411 1269.63 328.22L1339.19 235.27L1418.95 343.514V570.938Z" fill="#3F3D56"/>
<path d="M1360.13 459.017H1323.63V495.793H1360.13V459.017Z" fill="white"/>
<path d="M1360.13 395.361H1323.63V431.554H1360.13V395.361Z" fill="white"/>
<path d="M1185.78 449.258H1149.28V486.034H1185.78V449.258Z" fill="white"/>
<path d="M1185.78 385.604H1149.28V421.796H1185.78V385.604Z" fill="white"/>
<path d="M1135.3 168.133H1095.59V324.862H1135.3V168.133Z" fill="#3F3D56"/>
<path d="M1161.25 298.787L1161.25 570.438H754.945V298.416V298.163L754.741 298.013L753.375 297.01L753.433 296.947L753.433 296.947L827.828 214.345L827.828 214.344C855.539 183.468 892.654 166.05 931.372 165.725L931.373 165.725L1064.9 164.335L1161.51 295.349L1161.25 298.749L1161.25 298.768V298.787Z" fill="#3F3D56"/>
<path d="M1161.25 298.787L1161.25 570.438H754.945V298.416V298.163L754.741 298.013L753.375 297.01L753.433 296.947L753.433 296.947L827.828 214.345L827.828 214.344C855.539 183.468 892.654 166.05 931.372 165.725L931.373 165.725L1064.9 164.335L1161.51 295.349L1161.25 298.749L1161.25 298.768V298.787Z" stroke="black"/>
<path d="M1161.25 298.787L1161.25 570.438H754.945V298.416V298.163L754.741 298.013L753.375 297.01L753.433 296.947L753.433 296.947L827.828 214.345L827.828 214.344C855.539 183.468 892.654 166.05 931.372 165.725L931.373 165.725L1064.9 164.335L1161.51 295.349L1161.25 298.749L1161.25 298.768V298.787Z" stroke="black" stroke-opacity="0.2"/>
<path d="M1161.75 570.937H943.873V370.829C943.881 341.727 952.982 313.58 969.543 291.433L1065.04 163.814L1161.75 295.057V570.937Z" fill="#3F3D56"/>
<path d="M1089.83 435.208H1054.6V470.707H1089.83V435.208Z" fill="white"/>
<path d="M1089.83 373.513H1054.6V409.012H1089.83V373.513Z" fill="white"/>
<path d="M878.846 423.362H834.544V467.999H878.846V423.362Z" fill="white"/>
<path d="M878.846 346.103H834.544V390.031H878.846V346.103Z" fill="white"/>
<path d="M1590 569.293H709V571.766H1590V569.293Z" fill="#3F3D56"/>
<path d="M805.312 376.78L764.107 401.904L764.976 403.755L806.181 378.631L805.312 376.78Z" fill="#3F3D56"/>
<path d="M1337.42 185.373L1347.41 176.266C1339.65 175.292 1336.46 180.114 1335.16 183.932C1329.1 181.063 1322.5 184.823 1322.5 184.823L1342.48 193.094C1341.47 190.024 1339.72 187.345 1337.42 185.372L1337.42 185.373Z" fill="#3F3D56"/>
<path d="M1156.92 115.234L1166.91 106.127C1159.15 105.153 1155.96 109.975 1154.66 113.794C1148.6 110.924 1142 114.684 1142 114.684L1161.98 122.955C1160.97 119.885 1159.22 117.207 1156.92 115.234V115.234Z" fill="#3F3D56"/>
<path d="M1408.32 132.191L1418.31 123.084C1410.55 122.11 1407.36 126.932 1406.06 130.751C1400 127.881 1393.4 131.642 1393.4 131.642L1413.38 139.912C1412.37 136.842 1410.62 134.164 1408.32 132.19L1408.32 132.191Z" fill="#3F3D56"/>
<path d="M983.723 554.985C981.067 554.985 978.458 555.783 976.159 557.299C973.824 554.894 970.927 553.313 967.82 552.747C964.713 552.182 961.528 552.657 958.653 554.114C955.778 555.572 953.335 557.949 951.622 560.958C949.909 563.967 948.999 567.478 949.002 571.065H998.859C998.587 566.7 996.875 562.614 994.066 559.631C991.258 556.648 987.562 554.988 983.724 554.986L983.723 554.985Z" fill="#3F3D56"/>
<path d="M1243.05 554.985C1240.39 554.985 1237.78 555.783 1235.48 557.299C1233.15 554.894 1230.25 553.313 1227.14 552.747C1224.04 552.182 1220.85 552.657 1217.98 554.114C1215.1 555.572 1212.66 557.949 1210.95 560.958C1209.23 563.967 1208.32 567.478 1208.33 571.065H1258.18C1257.91 566.7 1256.2 562.614 1253.39 559.63C1250.58 556.646 1246.89 554.987 1243.05 554.985V554.985Z" fill="#3F3D56"/>
<path d="M1538.72 531.147C1553.99 531.147 1566.37 502.355 1566.37 466.839C1566.37 431.323 1553.99 402.531 1538.72 402.531C1523.45 402.531 1511.07 431.323 1511.07 466.839C1511.07 502.355 1523.45 531.147 1538.72 531.147Z" fill="#3F3D56"/>
<path d="M1535.64 572C1546.7 496.365 1535.75 421.008 1535.64 420.25L1534.54 420.466C1534.65 421.217 1545.56 496.374 1534.54 571.792L1535.64 572Z" fill="#3F3D56"/>
<path d="M1514.12 453.534L1513.59 454.657L1538.6 469.913L1539.13 468.789L1514.12 453.534Z" fill="#3F3D56"/>
<path d="M1565 461.182L1539.99 476.438L1540.52 477.561L1565.52 462.306L1565 461.182Z" fill="#3F3D56"/>
<path d="M1104.15 513.572C1106.94 513.572 1109.2 510.995 1109.2 507.816C1109.2 504.637 1106.94 502.06 1104.15 502.06C1101.36 502.06 1099.1 504.637 1099.1 507.816C1099.1 510.995 1101.36 513.572 1104.15 513.572Z" fill="#A0616A"/>
<path d="M1090.2 250.764L1081.69 228.244L1064.59 228.591L1054.22 251.043L1054.43 251.342H1054.36V298.04H1090.18V251.342L1090.2 250.764Z" fill="#3F3D56"/>
<path d="M1356.42 307.131L1349.54 290.67L1335.72 290.924L1327.34 307.334L1327.51 307.553H1327.45V341.687H1356.4V307.553L1356.42 307.131Z" fill="#3F3D56"/>
<path d="M1024 218.41H823.198V220.575H1024V218.41Z" fill="white"/>
<path d="M1004.06 241.141H803.259V243.305H1004.06V241.141Z" fill="white"/>
<path d="M1397.08 245.242H1364.35V247.407H1397.08V245.242Z" fill="white"/>
<path d="M1397.08 267.973H1364.35V270.137H1397.08V267.973Z" fill="white"/>
<path d="M1135.3 175.971H1095.59V178.135H1135.3V175.971Z" fill="white"/>
<path d="M1135.3 198.701H1095.59V200.866H1135.3V198.701Z" fill="white"/>
</g>
<defs>
<clipPath id="clip0_436_2546">
<rect width="881" height="466" fill="white" transform="translate(709 106)"/>
</clipPath>
</defs>
</svg>
