<svg width="1199" height="772" viewBox="0 0 1199 772" fill="none" xmlns="http://www.w3.org/2000/svg">
<path d="M697.596 387C697.845 387 698.094 386.994 698.346 386.983C701.281 386.864 704.147 385.952 706.7 384.325C709.254 382.698 711.418 380.404 713.01 377.638C724.934 357.669 739.566 339.908 756.379 324.997C766.558 315.881 777.194 307.405 787.478 299.207C814.013 278.066 839.001 258.155 852.872 230.643C883.116 170.652 847.5 87.0923 796.619 49.6186C739.549 7.58992 664.483 0.997367 591.865 0.133407C584.318 0.0439794 576.767 -0.000465902 569.211 3.68211e-06C438.368 0.05622 307.801 13.4339 179.119 39.968C136.33 48.814 91.5399 59.6506 55.5471 85.9492C19.7678 112.092 -1.97925 153.261 0.142334 190.835C3.23993 245.687 55.1323 286.673 102.385 297.389C147.424 307.594 194.212 300.697 243.746 293.393C254.682 291.783 265.988 290.115 277.169 288.666C398.685 272.928 626.961 321.438 636.618 323.511L646.2 325.566L683.376 379.173C685.048 381.617 687.202 383.595 689.668 384.952C692.135 386.31 694.848 387.011 697.596 387Z" fill="white"/>
<path d="M85.0511 156V122.545H105.111V126.139H89.1023V137.443H103.608V141.037H89.1023V156H85.0511ZM118.91 156.588C117.32 156.588 115.877 156.289 114.581 155.69C113.285 155.08 112.256 154.203 111.494 153.06C110.731 151.905 110.35 150.511 110.35 148.878C110.35 147.44 110.633 146.275 111.2 145.382C111.766 144.478 112.523 143.77 113.47 143.259C114.418 142.747 115.463 142.366 116.607 142.115C117.761 141.854 118.921 141.647 120.086 141.494C121.611 141.298 122.847 141.151 123.794 141.053C124.753 140.944 125.45 140.765 125.885 140.514C126.332 140.264 126.555 139.828 126.555 139.207V139.077C126.555 137.465 126.114 136.213 125.232 135.32C124.361 134.427 123.037 133.98 121.262 133.98C119.422 133.98 117.979 134.383 116.933 135.189C115.888 135.995 115.153 136.855 114.728 137.77L111.069 136.463C111.722 134.938 112.594 133.751 113.683 132.902C114.783 132.042 115.981 131.443 117.276 131.105C118.583 130.757 119.868 130.582 121.132 130.582C121.937 130.582 122.863 130.68 123.909 130.876C124.965 131.062 125.983 131.448 126.963 132.036C127.954 132.624 128.776 133.512 129.43 134.699C130.083 135.886 130.41 137.476 130.41 139.469V156H126.555V152.602H126.359C126.097 153.147 125.662 153.729 125.052 154.35C124.442 154.971 123.631 155.499 122.618 155.935C121.605 156.37 120.369 156.588 118.91 156.588ZM119.498 153.125C121.023 153.125 122.308 152.826 123.353 152.227C124.41 151.628 125.204 150.854 125.738 149.907C126.283 148.96 126.555 147.963 126.555 146.918V143.389C126.392 143.585 126.032 143.765 125.477 143.928C124.932 144.081 124.301 144.217 123.582 144.337C122.874 144.446 122.182 144.544 121.507 144.631C120.843 144.707 120.304 144.772 119.89 144.827C118.888 144.957 117.952 145.17 117.08 145.464C116.22 145.747 115.523 146.177 114.99 146.754C114.467 147.321 114.205 148.094 114.205 149.074C114.205 150.413 114.701 151.426 115.692 152.112C116.694 152.787 117.963 153.125 119.498 153.125ZM141.301 122.545V156H137.446V122.545H141.301ZM152.218 122.545V156H148.362V122.545H152.218ZM177.051 136.528L173.588 137.509C173.37 136.931 173.049 136.371 172.624 135.826C172.21 135.271 171.644 134.813 170.925 134.454C170.207 134.094 169.286 133.915 168.165 133.915C166.629 133.915 165.35 134.269 164.326 134.977C163.313 135.674 162.807 136.561 162.807 137.639C162.807 138.598 163.155 139.354 163.852 139.91C164.549 140.465 165.638 140.928 167.119 141.298L170.844 142.213C173.087 142.758 174.759 143.591 175.859 144.712C176.959 145.823 177.509 147.255 177.509 149.009C177.509 150.446 177.095 151.731 176.267 152.864C175.45 153.996 174.307 154.889 172.837 155.543C171.366 156.196 169.657 156.523 167.707 156.523C165.148 156.523 163.03 155.967 161.353 154.857C159.676 153.746 158.614 152.123 158.168 149.989L161.827 149.074C162.175 150.424 162.834 151.437 163.803 152.112C164.783 152.787 166.063 153.125 167.642 153.125C169.439 153.125 170.866 152.744 171.922 151.982C172.989 151.208 173.523 150.283 173.523 149.205C173.523 148.333 173.218 147.604 172.608 147.016C171.998 146.417 171.062 145.97 169.798 145.676L165.616 144.696C163.319 144.152 161.631 143.308 160.553 142.164C159.485 141.01 158.952 139.567 158.952 137.835C158.952 136.42 159.349 135.167 160.144 134.078C160.95 132.989 162.045 132.134 163.428 131.513C164.821 130.893 166.401 130.582 168.165 130.582C170.648 130.582 172.597 131.127 174.013 132.216C175.439 133.305 176.452 134.742 177.051 136.528ZM206.769 156.523C204.351 156.523 202.266 155.989 200.513 154.922C198.77 153.844 197.425 152.341 196.478 150.413C195.541 148.475 195.073 146.221 195.073 143.651C195.073 141.08 195.541 138.815 196.478 136.855C197.425 134.884 198.743 133.348 200.431 132.249C202.13 131.138 204.112 130.582 206.377 130.582C207.684 130.582 208.974 130.8 210.248 131.236C211.523 131.671 212.682 132.379 213.728 133.359C214.773 134.329 215.606 135.614 216.227 137.214C216.848 138.815 217.158 140.786 217.158 143.128V144.761H197.817V141.429H213.238C213.238 140.013 212.955 138.75 212.388 137.639C211.833 136.528 211.038 135.652 210.003 135.009C208.98 134.367 207.771 134.045 206.377 134.045C204.841 134.045 203.513 134.427 202.391 135.189C201.28 135.94 200.425 136.92 199.827 138.129C199.228 139.338 198.928 140.634 198.928 142.017V144.239C198.928 146.134 199.255 147.74 199.908 149.058C200.573 150.364 201.493 151.361 202.669 152.047C203.845 152.722 205.212 153.06 206.769 153.06C207.782 153.06 208.697 152.918 209.513 152.635C210.341 152.341 211.054 151.905 211.653 151.328C212.252 150.74 212.715 150.01 213.042 149.139L216.766 150.185C216.374 151.448 215.715 152.559 214.79 153.517C213.864 154.464 212.72 155.205 211.359 155.739C209.998 156.261 208.468 156.523 206.769 156.523ZM233.934 130.909V134.176H220.932V130.909H233.934ZM224.721 124.898H228.577V148.812C228.577 149.902 228.734 150.718 229.05 151.263C229.377 151.796 229.791 152.156 230.292 152.341C230.804 152.515 231.343 152.602 231.909 152.602C232.334 152.602 232.682 152.58 232.954 152.537C233.227 152.482 233.444 152.439 233.608 152.406L234.392 155.869C234.131 155.967 233.766 156.065 233.297 156.163C232.829 156.272 232.236 156.327 231.517 156.327C230.428 156.327 229.361 156.093 228.315 155.624C227.281 155.156 226.42 154.443 225.734 153.484C225.059 152.526 224.721 151.317 224.721 149.858V124.898ZM245.418 156L237.773 130.909H241.824L247.248 150.119H247.509L252.867 130.909H256.983L262.276 150.054H262.537L267.961 130.909H272.012L264.367 156H260.577L255.089 136.724H254.697L249.208 156H245.418ZM284.492 156.588C282.902 156.588 281.459 156.289 280.163 155.69C278.867 155.08 277.838 154.203 277.076 153.06C276.314 151.905 275.932 150.511 275.932 148.878C275.932 147.44 276.215 146.275 276.782 145.382C277.348 144.478 278.105 143.77 279.052 143.259C280 142.747 281.045 142.366 282.189 142.115C283.343 141.854 284.503 141.647 285.668 141.494C287.193 141.298 288.429 141.151 289.376 141.053C290.335 140.944 291.032 140.765 291.467 140.514C291.914 140.264 292.137 139.828 292.137 139.207V139.077C292.137 137.465 291.696 136.213 290.814 135.32C289.943 134.427 288.619 133.98 286.844 133.98C285.004 133.98 283.561 134.383 282.515 135.189C281.47 135.995 280.735 136.855 280.31 137.77L276.651 136.463C277.305 134.938 278.176 133.751 279.265 132.902C280.365 132.042 281.563 131.443 282.858 131.105C284.165 130.757 285.45 130.582 286.714 130.582C287.519 130.582 288.445 130.68 289.491 130.876C290.547 131.062 291.565 131.448 292.545 132.036C293.536 132.624 294.358 133.512 295.012 134.699C295.665 135.886 295.992 137.476 295.992 139.469V156H292.137V152.602H291.941C291.68 153.147 291.244 153.729 290.634 154.35C290.024 154.971 289.213 155.499 288.2 155.935C287.187 156.37 285.951 156.588 284.492 156.588ZM285.08 153.125C286.605 153.125 287.89 152.826 288.935 152.227C289.992 151.628 290.787 150.854 291.32 149.907C291.865 148.96 292.137 147.963 292.137 146.918V143.389C291.974 143.585 291.614 143.765 291.059 143.928C290.514 144.081 289.883 144.217 289.164 144.337C288.456 144.446 287.765 144.544 287.089 144.631C286.425 144.707 285.886 144.772 285.472 144.827C284.47 144.957 283.534 145.17 282.662 145.464C281.802 145.747 281.105 146.177 280.572 146.754C280.049 147.321 279.787 148.094 279.787 149.074C279.787 150.413 280.283 151.426 281.274 152.112C282.276 152.787 283.545 153.125 285.08 153.125ZM320.801 136.528L317.338 137.509C317.12 136.931 316.799 136.371 316.374 135.826C315.96 135.271 315.394 134.813 314.675 134.454C313.957 134.094 313.036 133.915 311.915 133.915C310.379 133.915 309.1 134.269 308.076 134.977C307.063 135.674 306.557 136.561 306.557 137.639C306.557 138.598 306.905 139.354 307.602 139.91C308.299 140.465 309.388 140.928 310.869 141.298L314.594 142.213C316.837 142.758 318.509 143.591 319.609 144.712C320.709 145.823 321.259 147.255 321.259 149.009C321.259 150.446 320.845 151.731 320.017 152.864C319.2 153.996 318.057 154.889 316.587 155.543C315.116 156.196 313.407 156.523 311.457 156.523C308.898 156.523 306.78 155.967 305.103 154.857C303.426 153.746 302.364 152.123 301.918 149.989L305.577 149.074C305.925 150.424 306.584 151.437 307.553 152.112C308.533 152.787 309.813 153.125 311.392 153.125C313.189 153.125 314.616 152.744 315.672 151.982C316.739 151.208 317.273 150.283 317.273 149.205C317.273 148.333 316.968 147.604 316.358 147.016C315.748 146.417 314.812 145.97 313.548 145.676L309.366 144.696C307.069 144.152 305.381 143.308 304.303 142.164C303.235 141.01 302.702 139.567 302.702 137.835C302.702 136.42 303.099 135.167 303.894 134.078C304.7 132.989 305.795 132.134 307.178 131.513C308.571 130.893 310.151 130.582 311.915 130.582C314.398 130.582 316.347 131.127 317.763 132.216C319.189 133.305 320.202 134.742 320.801 136.528ZM339.999 165.409V130.909H343.724V134.895H344.181C344.464 134.459 344.856 133.904 345.357 133.229C345.869 132.543 346.599 131.933 347.546 131.399C348.504 130.855 349.8 130.582 351.434 130.582C353.546 130.582 355.409 131.111 357.02 132.167C358.632 133.223 359.89 134.721 360.794 136.659C361.698 138.598 362.15 140.884 362.15 143.52C362.15 146.177 361.698 148.48 360.794 150.43C359.89 152.368 358.638 153.871 357.037 154.938C355.436 155.995 353.59 156.523 351.499 156.523C349.887 156.523 348.597 156.256 347.628 155.722C346.658 155.178 345.912 154.562 345.39 153.876C344.867 153.179 344.464 152.602 344.181 152.145H343.854V165.409H339.999ZM343.789 143.455C343.789 145.349 344.067 147.021 344.622 148.469C345.177 149.907 345.989 151.034 347.056 151.851C348.123 152.657 349.43 153.06 350.976 153.06C352.588 153.06 353.933 152.635 355.011 151.786C356.1 150.925 356.917 149.771 357.461 148.322C358.017 146.863 358.295 145.241 358.295 143.455C358.295 141.69 358.022 140.1 357.478 138.685C356.944 137.258 356.133 136.131 355.044 135.303C353.966 134.465 352.61 134.045 350.976 134.045C349.408 134.045 348.09 134.443 347.023 135.238C345.956 136.022 345.15 137.122 344.606 138.538C344.061 139.942 343.789 141.581 343.789 143.455ZM375.414 156.588C373.824 156.588 372.381 156.289 371.085 155.69C369.789 155.08 368.76 154.203 367.998 153.06C367.235 151.905 366.854 150.511 366.854 148.878C366.854 147.44 367.137 146.275 367.704 145.382C368.27 144.478 369.027 143.77 369.974 143.259C370.922 142.747 371.967 142.366 373.111 142.115C374.265 141.854 375.425 141.647 376.59 141.494C378.115 141.298 379.351 141.151 380.298 141.053C381.256 140.944 381.953 140.765 382.389 140.514C382.836 140.264 383.059 139.828 383.059 139.207V139.077C383.059 137.465 382.618 136.213 381.736 135.32C380.864 134.427 379.541 133.98 377.766 133.98C375.926 133.98 374.483 134.383 373.437 135.189C372.392 135.995 371.657 136.855 371.232 137.77L367.573 136.463C368.226 134.938 369.098 133.751 370.187 132.902C371.287 132.042 372.484 131.443 373.78 131.105C375.087 130.757 376.372 130.582 377.635 130.582C378.441 130.582 379.367 130.68 380.412 130.876C381.469 131.062 382.487 131.448 383.467 132.036C384.458 132.624 385.28 133.512 385.934 134.699C386.587 135.886 386.914 137.476 386.914 139.469V156H383.059V152.602H382.863C382.601 153.147 382.166 153.729 381.556 154.35C380.946 154.971 380.135 155.499 379.122 155.935C378.109 156.37 376.873 156.588 375.414 156.588ZM376.002 153.125C377.527 153.125 378.812 152.826 379.857 152.227C380.913 151.628 381.708 150.854 382.242 149.907C382.787 148.96 383.059 147.963 383.059 146.918V143.389C382.895 143.585 382.536 143.765 381.981 143.928C381.436 144.081 380.805 144.217 380.086 144.337C379.378 144.446 378.686 144.544 378.011 144.631C377.347 144.707 376.808 144.772 376.394 144.827C375.392 144.957 374.456 145.17 373.584 145.464C372.724 145.747 372.027 146.177 371.493 146.754C370.971 147.321 370.709 148.094 370.709 149.074C370.709 150.413 371.205 151.426 372.196 152.112C373.198 152.787 374.466 153.125 376.002 153.125ZM411.723 136.528L408.26 137.509C408.042 136.931 407.721 136.371 407.296 135.826C406.882 135.271 406.316 134.813 405.597 134.454C404.879 134.094 403.958 133.915 402.837 133.915C401.301 133.915 400.022 134.269 398.998 134.977C397.985 135.674 397.479 136.561 397.479 137.639C397.479 138.598 397.827 139.354 398.524 139.91C399.221 140.465 400.31 140.928 401.791 141.298L405.516 142.213C407.759 142.758 409.431 143.591 410.531 144.712C411.63 145.823 412.18 147.255 412.18 149.009C412.18 150.446 411.767 151.731 410.939 152.864C410.122 153.996 408.979 154.889 407.509 155.543C406.038 156.196 404.329 156.523 402.379 156.523C399.82 156.523 397.702 155.967 396.025 154.857C394.348 153.746 393.286 152.123 392.839 149.989L396.499 149.074C396.847 150.424 397.506 151.437 398.475 152.112C399.455 152.787 400.735 153.125 402.314 153.125C404.111 153.125 405.537 152.744 406.594 151.982C407.661 151.208 408.195 150.283 408.195 149.205C408.195 148.333 407.89 147.604 407.28 147.016C406.67 146.417 405.733 145.97 404.47 145.676L400.288 144.696C397.991 144.152 396.303 143.308 395.224 142.164C394.157 141.01 393.624 139.567 393.624 137.835C393.624 136.42 394.021 135.167 394.816 134.078C395.622 132.989 396.716 132.134 398.099 131.513C399.493 130.893 401.072 130.582 402.837 130.582C405.32 130.582 407.269 131.127 408.685 132.216C410.111 133.305 411.124 134.742 411.723 136.528ZM435.756 136.528L432.293 137.509C432.075 136.931 431.754 136.371 431.329 135.826C430.916 135.271 430.349 134.813 429.631 134.454C428.912 134.094 427.992 133.915 426.87 133.915C425.334 133.915 424.055 134.269 423.031 134.977C422.018 135.674 421.512 136.561 421.512 137.639C421.512 138.598 421.86 139.354 422.557 139.91C423.254 140.465 424.343 140.928 425.824 141.298L429.549 142.213C431.792 142.758 433.464 143.591 434.564 144.712C435.664 145.823 436.214 147.255 436.214 149.009C436.214 150.446 435.8 151.731 434.972 152.864C434.155 153.996 433.012 154.889 431.542 155.543C430.072 156.196 428.362 156.523 426.412 156.523C423.853 156.523 421.735 155.967 420.058 154.857C418.381 153.746 417.319 152.123 416.873 149.989L420.532 149.074C420.88 150.424 421.539 151.437 422.508 152.112C423.488 152.787 424.768 153.125 426.347 153.125C428.144 153.125 429.571 152.744 430.627 151.982C431.694 151.208 432.228 150.283 432.228 149.205C432.228 148.333 431.923 147.604 431.313 147.016C430.703 146.417 429.767 145.97 428.503 145.676L424.322 144.696C422.024 144.152 420.336 143.308 419.258 142.164C418.19 141.01 417.657 139.567 417.657 137.835C417.657 136.42 418.054 135.167 418.849 134.078C419.655 132.989 420.75 132.134 422.133 131.513C423.527 130.893 425.106 130.582 426.87 130.582C429.353 130.582 431.302 131.127 432.718 132.216C434.144 133.305 435.157 134.742 435.756 136.528ZM442.017 156V130.909H445.872V156H442.017ZM443.977 126.727C443.225 126.727 442.578 126.471 442.033 125.96C441.499 125.448 441.233 124.832 441.233 124.114C441.233 123.395 441.499 122.78 442.033 122.268C442.578 121.756 443.225 121.5 443.977 121.5C444.728 121.5 445.371 121.756 445.904 122.268C446.449 122.78 446.721 123.395 446.721 124.114C446.721 124.832 446.449 125.448 445.904 125.96C445.371 126.471 444.728 126.727 443.977 126.727ZM463.453 156.523C461.035 156.523 458.95 155.989 457.196 154.922C455.454 153.844 454.109 152.341 453.161 150.413C452.225 148.475 451.757 146.221 451.757 143.651C451.757 141.08 452.225 138.815 453.161 136.855C454.109 134.884 455.427 133.348 457.115 132.249C458.813 131.138 460.795 130.582 463.061 130.582C464.367 130.582 465.658 130.8 466.932 131.236C468.206 131.671 469.366 132.379 470.411 133.359C471.457 134.329 472.29 135.614 472.911 137.214C473.531 138.815 473.842 140.786 473.842 143.128V144.761H454.501V141.429H469.921C469.921 140.013 469.638 138.75 469.072 137.639C468.517 136.528 467.722 135.652 466.687 135.009C465.663 134.367 464.454 134.045 463.061 134.045C461.525 134.045 460.196 134.427 459.075 135.189C457.964 135.94 457.109 136.92 456.51 138.129C455.911 139.338 455.612 140.634 455.612 142.017V144.239C455.612 146.134 455.938 147.74 456.592 149.058C457.256 150.364 458.176 151.361 459.352 152.047C460.529 152.722 461.895 153.06 463.453 153.06C464.465 153.06 465.38 152.918 466.197 152.635C467.025 152.341 467.738 151.905 468.337 151.328C468.936 150.74 469.399 150.01 469.725 149.139L473.45 150.185C473.058 151.448 472.399 152.559 471.473 153.517C470.548 154.464 469.404 155.205 468.043 155.739C466.682 156.261 465.151 156.523 463.453 156.523ZM479.706 156V130.909H483.431V134.699H483.692C484.149 133.457 484.977 132.45 486.175 131.677C487.373 130.904 488.723 130.517 490.226 130.517C490.509 130.517 490.863 130.522 491.288 130.533C491.713 130.544 492.034 130.561 492.252 130.582V134.503C492.121 134.47 491.821 134.421 491.353 134.356C490.896 134.28 490.411 134.241 489.899 134.241C488.68 134.241 487.591 134.497 486.632 135.009C485.685 135.51 484.933 136.207 484.378 137.1C483.834 137.982 483.561 138.99 483.561 140.122V156H479.706ZM506.578 156.523C504.16 156.523 502.075 155.989 500.321 154.922C498.579 153.844 497.234 152.341 496.286 150.413C495.35 148.475 494.882 146.221 494.882 143.651C494.882 141.08 495.35 138.815 496.286 136.855C497.234 134.884 498.552 133.348 500.24 132.249C501.938 131.138 503.92 130.582 506.186 130.582C507.492 130.582 508.783 130.8 510.057 131.236C511.331 131.671 512.491 132.379 513.536 133.359C514.582 134.329 515.415 135.614 516.036 137.214C516.656 138.815 516.967 140.786 516.967 143.128V144.761H497.626V141.429H513.046C513.046 140.013 512.763 138.75 512.197 137.639C511.642 136.528 510.847 135.652 509.812 135.009C508.788 134.367 507.579 134.045 506.186 134.045C504.65 134.045 503.321 134.427 502.2 135.189C501.089 135.94 500.234 136.92 499.635 138.129C499.036 139.338 498.737 140.634 498.737 142.017V144.239C498.737 146.134 499.063 147.74 499.717 149.058C500.381 150.364 501.301 151.361 502.477 152.047C503.654 152.722 505.02 153.06 506.578 153.06C507.59 153.06 508.505 152.918 509.322 152.635C510.15 152.341 510.863 151.905 511.462 151.328C512.061 150.74 512.524 150.01 512.85 149.139L516.575 150.185C516.183 151.448 515.524 152.559 514.598 153.517C513.673 154.464 512.529 155.205 511.168 155.739C509.807 156.261 508.276 156.523 506.578 156.523ZM526.686 140.906V156H522.831V130.909H526.556V134.83H526.882C527.47 133.555 528.363 132.532 529.561 131.759C530.759 130.974 532.306 130.582 534.2 130.582C535.899 130.582 537.386 130.931 538.66 131.628C539.934 132.314 540.925 133.359 541.633 134.764C542.341 136.158 542.695 137.922 542.695 140.057V156H538.84V140.318C538.84 138.347 538.328 136.812 537.304 135.712C536.28 134.601 534.876 134.045 533.09 134.045C531.859 134.045 530.759 134.312 529.79 134.846C528.832 135.379 528.075 136.158 527.519 137.182C526.964 138.205 526.686 139.447 526.686 140.906ZM580.45 136.528L576.987 137.509C576.769 136.931 576.447 136.371 576.023 135.826C575.609 135.271 575.043 134.813 574.324 134.454C573.605 134.094 572.685 133.915 571.563 133.915C570.028 133.915 568.748 134.269 567.724 134.977C566.712 135.674 566.205 136.561 566.205 137.639C566.205 138.598 566.554 139.354 567.251 139.91C567.948 140.465 569.037 140.928 570.518 141.298L574.242 142.213C576.486 142.758 578.157 143.591 579.257 144.712C580.357 145.823 580.907 147.255 580.907 149.009C580.907 150.446 580.493 151.731 579.665 152.864C578.849 153.996 577.705 154.889 576.235 155.543C574.765 156.196 573.055 156.523 571.106 156.523C568.547 156.523 566.429 155.967 564.751 154.857C563.074 153.746 562.013 152.123 561.566 149.989L565.225 149.074C565.574 150.424 566.232 151.437 567.202 152.112C568.182 152.787 569.461 153.125 571.04 153.125C572.837 153.125 574.264 152.744 575.32 151.982C576.388 151.208 576.921 150.283 576.921 149.205C576.921 148.333 576.616 147.604 576.006 147.016C575.397 146.417 574.46 145.97 573.197 145.676L569.015 144.696C566.717 144.152 565.029 143.308 563.951 142.164C562.884 141.01 562.35 139.567 562.35 137.835C562.35 136.42 562.748 135.167 563.543 134.078C564.348 132.989 565.443 132.134 566.826 131.513C568.22 130.893 569.799 130.582 571.563 130.582C574.046 130.582 575.996 131.127 577.411 132.216C578.838 133.305 579.851 134.742 580.45 136.528ZM596.903 156.523C594.638 156.523 592.651 155.984 590.941 154.906C589.242 153.827 587.913 152.319 586.955 150.381C586.008 148.442 585.534 146.177 585.534 143.585C585.534 140.972 586.008 138.69 586.955 136.741C587.913 134.791 589.242 133.278 590.941 132.2C592.651 131.121 594.638 130.582 596.903 130.582C599.168 130.582 601.15 131.121 602.849 132.2C604.559 133.278 605.888 134.791 606.835 136.741C607.793 138.69 608.273 140.972 608.273 143.585C608.273 146.177 607.793 148.442 606.835 150.381C605.888 152.319 604.559 153.827 602.849 154.906C601.15 155.984 599.168 156.523 596.903 156.523ZM596.903 153.06C598.624 153.06 600.04 152.619 601.15 151.737C602.261 150.854 603.083 149.695 603.617 148.257C604.151 146.82 604.417 145.262 604.417 143.585C604.417 141.908 604.151 140.345 603.617 138.897C603.083 137.449 602.261 136.278 601.15 135.385C600.04 134.492 598.624 134.045 596.903 134.045C595.183 134.045 593.767 134.492 592.656 135.385C591.545 136.278 590.723 137.449 590.189 138.897C589.656 140.345 589.389 141.908 589.389 143.585C589.389 145.262 589.656 146.82 590.189 148.257C590.723 149.695 591.545 150.854 592.656 151.737C593.767 152.619 595.183 153.06 596.903 153.06ZM618.012 122.545V156H614.157V122.545H618.012ZM628.928 122.545V156H625.073V122.545H628.928ZM646.901 130.909V134.176H633.898V130.909H646.901ZM637.688 124.898H641.543V148.812C641.543 149.902 641.701 150.718 642.017 151.263C642.344 151.796 642.758 152.156 643.259 152.341C643.77 152.515 644.309 152.602 644.876 152.602C645.3 152.602 645.649 152.58 645.921 152.537C646.193 152.482 646.411 152.439 646.575 152.406L647.359 155.869C647.097 155.967 646.732 156.065 646.264 156.163C645.796 156.272 645.202 156.327 644.484 156.327C643.395 156.327 642.327 156.093 641.282 155.624C640.247 155.156 639.387 154.443 638.701 153.484C638.026 152.526 637.688 151.317 637.688 149.858V124.898ZM662.951 156.523C660.533 156.523 658.448 155.989 656.694 154.922C654.952 153.844 653.607 152.341 652.659 150.413C651.723 148.475 651.255 146.221 651.255 143.651C651.255 141.08 651.723 138.815 652.659 136.855C653.607 134.884 654.925 133.348 656.613 132.249C658.311 131.138 660.293 130.582 662.559 130.582C663.865 130.582 665.156 130.8 666.43 131.236C667.704 131.671 668.864 132.379 669.909 133.359C670.955 134.329 671.788 135.614 672.409 137.214C673.029 138.815 673.34 140.786 673.34 143.128V144.761H653.999V141.429H669.419C669.419 140.013 669.136 138.75 668.57 137.639C668.015 136.528 667.22 135.652 666.185 135.009C665.161 134.367 663.953 134.045 662.559 134.045C661.023 134.045 659.694 134.427 658.573 135.189C657.462 135.94 656.607 136.92 656.008 138.129C655.409 139.338 655.11 140.634 655.11 142.017V144.239C655.11 146.134 655.436 147.74 656.09 149.058C656.754 150.364 657.674 151.361 658.85 152.047C660.027 152.722 661.393 153.06 662.951 153.06C663.963 153.06 664.878 152.918 665.695 152.635C666.523 152.341 667.236 151.905 667.835 151.328C668.434 150.74 668.897 150.01 669.223 149.139L672.948 150.185C672.556 151.448 671.897 152.559 670.971 153.517C670.046 154.464 668.902 155.205 667.541 155.739C666.18 156.261 664.65 156.523 662.951 156.523ZM684.954 151.426L684.693 153.19C684.508 154.432 684.225 155.76 683.843 157.176C683.473 158.592 683.087 159.926 682.684 161.178C682.281 162.431 681.949 163.427 681.687 164.168H678.747C678.888 163.471 679.074 162.55 679.302 161.407C679.531 160.263 679.76 158.984 679.988 157.568C680.228 156.163 680.424 154.726 680.576 153.256L680.772 151.426H684.954ZM722.807 136.528L719.344 137.509C719.126 136.931 718.805 136.371 718.38 135.826C717.966 135.271 717.4 134.813 716.681 134.454C715.963 134.094 715.042 133.915 713.921 133.915C712.385 133.915 711.106 134.269 710.082 134.977C709.069 135.674 708.563 136.561 708.563 137.639C708.563 138.598 708.911 139.354 709.608 139.91C710.305 140.465 711.394 140.928 712.875 141.298L716.6 142.213C718.843 142.758 720.515 143.591 721.615 144.712C722.714 145.823 723.264 147.255 723.264 149.009C723.264 150.446 722.851 151.731 722.023 152.864C721.206 153.996 720.063 154.889 718.593 155.543C717.122 156.196 715.413 156.523 713.463 156.523C710.904 156.523 708.786 155.967 707.109 154.857C705.432 153.746 704.37 152.123 703.923 149.989L707.583 149.074C707.931 150.424 708.59 151.437 709.559 152.112C710.539 152.787 711.819 153.125 713.398 153.125C715.195 153.125 716.621 152.744 717.678 151.982C718.745 151.208 719.279 150.283 719.279 149.205C719.279 148.333 718.974 147.604 718.364 147.016C717.754 146.417 716.817 145.97 715.554 145.676L711.372 144.696C709.075 144.152 707.387 143.308 706.308 142.164C705.241 141.01 704.708 139.567 704.708 137.835C704.708 136.42 705.105 135.167 705.9 134.078C706.706 132.989 707.8 132.134 709.183 131.513C710.577 130.893 712.156 130.582 713.921 130.582C716.404 130.582 718.353 131.127 719.769 132.216C721.195 133.305 722.208 134.742 722.807 136.528ZM739.979 130.909V134.176H726.977V130.909H739.979ZM730.766 124.898H734.621V148.812C734.621 149.902 734.779 150.718 735.095 151.263C735.422 151.796 735.836 152.156 736.337 152.341C736.848 152.515 737.388 152.602 737.954 152.602C738.379 152.602 738.727 152.58 738.999 152.537C739.272 152.482 739.489 152.439 739.653 152.406L740.437 155.869C740.175 155.967 739.811 156.065 739.342 156.163C738.874 156.272 738.281 156.327 737.562 156.327C736.473 156.327 735.406 156.093 734.36 155.624C733.326 155.156 732.465 154.443 731.779 153.484C731.104 152.526 730.766 151.317 730.766 149.858V124.898ZM756.029 156.523C753.611 156.523 751.526 155.989 749.772 154.922C748.03 153.844 746.685 152.341 745.738 150.413C744.801 148.475 744.333 146.221 744.333 143.651C744.333 141.08 744.801 138.815 745.738 136.855C746.685 134.884 748.003 133.348 749.691 132.249C751.39 131.138 753.372 130.582 755.637 130.582C756.944 130.582 758.234 130.8 759.508 131.236C760.782 131.671 761.942 132.379 762.988 133.359C764.033 134.329 764.866 135.614 765.487 137.214C766.108 138.815 766.418 140.786 766.418 143.128V144.761H747.077V141.429H762.498C762.498 140.013 762.214 138.75 761.648 137.639C761.093 136.528 760.298 135.652 759.263 135.009C758.239 134.367 757.031 134.045 755.637 134.045C754.101 134.045 752.773 134.427 751.651 135.189C750.54 135.94 749.685 136.92 749.086 138.129C748.487 139.338 748.188 140.634 748.188 142.017V144.239C748.188 146.134 748.515 147.74 749.168 149.058C749.832 150.364 750.752 151.361 751.929 152.047C753.105 152.722 754.471 153.06 756.029 153.06C757.042 153.06 757.956 152.918 758.773 152.635C759.601 152.341 760.314 151.905 760.913 151.328C761.512 150.74 761.975 150.01 762.301 149.139L766.026 150.185C765.634 151.448 764.975 152.559 764.049 153.517C763.124 154.464 761.98 155.205 760.619 155.739C759.258 156.261 757.728 156.523 756.029 156.523ZM776.137 140.906V156H772.282V122.545H776.137V134.83H776.464C777.052 133.534 777.934 132.504 779.11 131.742C780.297 130.969 781.877 130.582 783.848 130.582C785.557 130.582 787.055 130.925 788.34 131.612C789.625 132.287 790.621 133.327 791.329 134.732C792.048 136.125 792.407 137.901 792.407 140.057V156H788.552V140.318C788.552 138.325 788.035 136.784 787 135.695C785.977 134.595 784.556 134.045 782.737 134.045C781.474 134.045 780.341 134.312 779.339 134.846C778.348 135.379 777.564 136.158 776.987 137.182C776.421 138.205 776.137 139.447 776.137 140.906ZM809.98 156.523C807.562 156.523 805.477 155.989 803.724 154.922C801.981 153.844 800.636 152.341 799.689 150.413C798.752 148.475 798.284 146.221 798.284 143.651C798.284 141.08 798.752 138.815 799.689 136.855C800.636 134.884 801.954 133.348 803.642 132.249C805.341 131.138 807.323 130.582 809.588 130.582C810.895 130.582 812.185 130.8 813.459 131.236C814.733 131.671 815.893 132.379 816.939 133.359C817.984 134.329 818.817 135.614 819.438 137.214C820.059 138.815 820.369 140.786 820.369 143.128V144.761H801.028V141.429H816.449C816.449 140.013 816.166 138.75 815.599 137.639C815.044 136.528 814.249 135.652 813.214 135.009C812.191 134.367 810.982 134.045 809.588 134.045C808.052 134.045 806.724 134.427 805.602 135.189C804.491 135.94 803.636 136.92 803.037 138.129C802.439 139.338 802.139 140.634 802.139 142.017V144.239C802.139 146.134 802.466 147.74 803.119 149.058C803.783 150.364 804.704 151.361 805.88 152.047C807.056 152.722 808.423 153.06 809.98 153.06C810.993 153.06 811.907 152.918 812.724 152.635C813.552 152.341 814.265 151.905 814.864 151.328C815.463 150.74 815.926 150.01 816.253 149.139L819.977 150.185C819.585 151.448 818.926 152.559 818.001 153.517C817.075 154.464 815.931 155.205 814.57 155.739C813.209 156.261 811.679 156.523 809.98 156.523ZM84.5284 212V186.909H88.3835V212H84.5284ZM86.4886 182.727C85.7372 182.727 85.0893 182.471 84.5447 181.96C84.0111 181.448 83.7443 180.832 83.7443 180.114C83.7443 179.395 84.0111 178.78 84.5447 178.268C85.0893 177.756 85.7372 177.5 86.4886 177.5C87.2401 177.5 87.8826 177.756 88.4162 178.268C88.9607 178.78 89.233 179.395 89.233 180.114C89.233 180.832 88.9607 181.448 88.4162 181.96C87.8826 182.471 87.2401 182.727 86.4886 182.727ZM105.638 212.523C103.285 212.523 101.26 211.967 99.5609 210.857C97.862 209.746 96.5552 208.216 95.6404 206.266C94.7257 204.317 94.2683 202.09 94.2683 199.585C94.2683 197.037 94.7366 194.788 95.6731 192.839C96.6206 190.879 97.9383 189.348 99.6262 188.249C101.325 187.138 103.307 186.582 105.572 186.582C107.336 186.582 108.926 186.909 110.342 187.562C111.758 188.216 112.918 189.131 113.822 190.307C114.725 191.483 115.286 192.855 115.504 194.423H111.649C111.355 193.28 110.702 192.267 109.689 191.385C108.687 190.492 107.336 190.045 105.638 190.045C104.135 190.045 102.817 190.437 101.684 191.222C100.563 191.995 99.6861 193.089 99.0545 194.505C98.4338 195.91 98.1234 197.56 98.1234 199.455C98.1234 201.393 98.4283 203.081 99.0382 204.518C99.6589 205.956 100.53 207.072 101.652 207.867C102.784 208.662 104.113 209.06 105.638 209.06C106.64 209.06 107.549 208.885 108.366 208.537C109.182 208.188 109.874 207.688 110.44 207.034C111.006 206.381 111.409 205.597 111.649 204.682H115.504C115.286 206.163 114.747 207.497 113.887 208.684C113.037 209.86 111.91 210.797 110.506 211.494C109.112 212.18 107.489 212.523 105.638 212.523ZM124.995 196.906V212H121.14V178.545H124.995V190.83H125.322C125.91 189.534 126.792 188.504 127.968 187.742C129.155 186.969 130.734 186.582 132.705 186.582C134.415 186.582 135.912 186.925 137.197 187.612C138.482 188.287 139.479 189.327 140.187 190.732C140.905 192.125 141.265 193.901 141.265 196.057V212H137.41V196.318C137.41 194.325 136.892 192.784 135.858 191.695C134.834 190.595 133.413 190.045 131.594 190.045C130.331 190.045 129.198 190.312 128.197 190.846C127.206 191.379 126.421 192.158 125.844 193.182C125.278 194.205 124.995 195.447 124.995 196.906ZM170.729 212.523C168.638 212.523 166.793 211.995 165.192 210.938C163.591 209.871 162.339 208.368 161.435 206.43C160.531 204.48 160.079 202.177 160.079 199.52C160.079 196.884 160.531 194.598 161.435 192.659C162.339 190.721 163.596 189.223 165.208 188.167C166.82 187.111 168.682 186.582 170.795 186.582C172.428 186.582 173.719 186.855 174.666 187.399C175.625 187.933 176.354 188.543 176.855 189.229C177.367 189.904 177.764 190.459 178.048 190.895H178.374V178.545H182.229V212H178.505V208.145H178.048C177.764 208.602 177.362 209.179 176.839 209.876C176.316 210.562 175.57 211.178 174.601 211.722C173.632 212.256 172.341 212.523 170.729 212.523ZM171.252 209.06C172.799 209.06 174.105 208.657 175.173 207.851C176.24 207.034 177.051 205.907 177.607 204.469C178.162 203.021 178.44 201.349 178.44 199.455C178.44 197.581 178.167 195.942 177.623 194.538C177.078 193.122 176.272 192.022 175.205 191.238C174.138 190.443 172.82 190.045 171.252 190.045C169.619 190.045 168.257 190.465 167.168 191.303C166.09 192.131 165.279 193.258 164.734 194.685C164.201 196.1 163.934 197.69 163.934 199.455C163.934 201.241 164.206 202.863 164.751 204.322C165.306 205.771 166.123 206.925 167.201 207.786C168.29 208.635 169.64 209.06 171.252 209.06ZM189.825 212V186.909H193.68V212H189.825ZM191.786 182.727C191.034 182.727 190.386 182.471 189.842 181.96C189.308 181.448 189.041 180.832 189.041 180.114C189.041 179.395 189.308 178.78 189.842 178.268C190.386 177.756 191.034 177.5 191.786 177.5C192.537 177.5 193.179 177.756 193.713 178.268C194.258 178.78 194.53 179.395 194.53 180.114C194.53 180.832 194.258 181.448 193.713 181.96C193.179 182.471 192.537 182.727 191.786 182.727ZM200.741 212V186.909H204.466V190.699H204.727C205.184 189.457 206.012 188.45 207.21 187.677C208.408 186.904 209.758 186.517 211.261 186.517C211.544 186.517 211.898 186.522 212.323 186.533C212.748 186.544 213.069 186.561 213.287 186.582V190.503C213.156 190.47 212.857 190.421 212.388 190.356C211.931 190.28 211.446 190.241 210.934 190.241C209.715 190.241 208.626 190.497 207.667 191.009C206.72 191.51 205.969 192.207 205.413 193.1C204.869 193.982 204.596 194.99 204.596 196.122V212H200.741ZM230.075 212V209.06L244.32 190.764V190.503H230.533V186.909H249.286V189.98L235.433 208.145V208.406H249.743V212H230.075ZM271.493 201.741V186.909H275.348V212H271.493V207.753H271.232C270.644 209.027 269.729 210.111 268.488 211.004C267.246 211.886 265.678 212.327 263.783 212.327C262.215 212.327 260.821 211.984 259.601 211.298C258.382 210.601 257.423 209.555 256.726 208.161C256.029 206.756 255.681 204.987 255.681 202.852V186.909H259.536V202.591C259.536 204.42 260.048 205.88 261.071 206.969C262.106 208.058 263.424 208.602 265.025 208.602C265.983 208.602 266.958 208.357 267.949 207.867C268.95 207.377 269.789 206.626 270.464 205.613C271.15 204.6 271.493 203.31 271.493 201.741ZM282.409 212V186.909H286.134V190.699H286.395C286.852 189.457 287.68 188.45 288.878 187.677C290.076 186.904 291.426 186.517 292.929 186.517C293.212 186.517 293.566 186.522 293.991 186.533C294.416 186.544 294.737 186.561 294.955 186.582V190.503C294.824 190.47 294.525 190.421 294.056 190.356C293.599 190.28 293.114 190.241 292.602 190.241C291.383 190.241 290.294 190.497 289.335 191.009C288.388 191.51 287.637 192.207 287.081 193.1C286.537 193.982 286.264 194.99 286.264 196.122V212H282.409ZM331.28 186.909C331.084 185.254 330.289 183.969 328.895 183.054C327.501 182.139 325.792 181.682 323.766 181.682C322.285 181.682 320.989 181.921 319.878 182.401C318.778 182.88 317.918 183.539 317.297 184.377C316.687 185.216 316.382 186.169 316.382 187.236C316.382 188.129 316.595 188.897 317.02 189.539C317.455 190.171 318.011 190.699 318.686 191.124C319.361 191.537 320.069 191.88 320.809 192.153C321.55 192.414 322.23 192.626 322.851 192.79L326.249 193.705C327.12 193.933 328.089 194.249 329.157 194.652C330.235 195.055 331.264 195.605 332.244 196.302C333.235 196.988 334.052 197.87 334.694 198.948C335.337 200.026 335.658 201.349 335.658 202.918C335.658 204.725 335.184 206.359 334.237 207.818C333.3 209.277 331.928 210.437 330.12 211.298C328.324 212.158 326.14 212.588 323.57 212.588C321.174 212.588 319.1 212.201 317.346 211.428C315.604 210.655 314.232 209.577 313.23 208.194C312.239 206.811 311.678 205.205 311.547 203.375H315.729C315.838 204.638 316.263 205.684 317.003 206.511C317.755 207.328 318.702 207.938 319.846 208.341C321 208.733 322.241 208.929 323.57 208.929C325.116 208.929 326.505 208.679 327.735 208.178C328.966 207.666 329.941 206.958 330.659 206.054C331.378 205.139 331.738 204.072 331.738 202.852C331.738 201.741 331.427 200.838 330.806 200.141C330.186 199.444 329.369 198.877 328.356 198.442C327.343 198.006 326.249 197.625 325.073 197.298L320.956 196.122C318.343 195.371 316.274 194.298 314.749 192.904C313.224 191.51 312.462 189.686 312.462 187.432C312.462 185.559 312.968 183.925 313.981 182.531C315.005 181.126 316.377 180.037 318.098 179.264C319.829 178.48 321.762 178.088 323.897 178.088C326.053 178.088 327.97 178.475 329.647 179.248C331.324 180.01 332.652 181.056 333.632 182.384C334.623 183.713 335.146 185.221 335.201 186.909H331.28ZM352.316 212.523C349.898 212.523 347.813 211.989 346.059 210.922C344.317 209.844 342.972 208.341 342.025 206.413C341.088 204.475 340.62 202.221 340.62 199.651C340.62 197.08 341.088 194.815 342.025 192.855C342.972 190.884 344.29 189.348 345.978 188.249C347.677 187.138 349.659 186.582 351.924 186.582C353.231 186.582 354.521 186.8 355.795 187.236C357.069 187.671 358.229 188.379 359.275 189.359C360.32 190.329 361.153 191.614 361.774 193.214C362.395 194.815 362.705 196.786 362.705 199.128V200.761H343.364V197.429H358.785C358.785 196.013 358.501 194.75 357.935 193.639C357.38 192.528 356.585 191.652 355.55 191.009C354.527 190.367 353.318 190.045 351.924 190.045C350.388 190.045 349.06 190.427 347.938 191.189C346.827 191.94 345.972 192.92 345.373 194.129C344.774 195.338 344.475 196.634 344.475 198.017V200.239C344.475 202.134 344.802 203.74 345.455 205.058C346.119 206.364 347.04 207.361 348.216 208.047C349.392 208.722 350.759 209.06 352.316 209.06C353.329 209.06 354.243 208.918 355.06 208.635C355.888 208.341 356.601 207.905 357.2 207.328C357.799 206.74 358.262 206.01 358.589 205.139L362.313 206.185C361.921 207.448 361.262 208.559 360.336 209.517C359.411 210.464 358.267 211.205 356.906 211.739C355.545 212.261 354.015 212.523 352.316 212.523ZM368.569 212V186.909H372.425V212H368.569ZM370.53 182.727C369.778 182.727 369.13 182.471 368.586 181.96C368.052 181.448 367.785 180.832 367.785 180.114C367.785 179.395 368.052 178.78 368.586 178.268C369.13 177.756 369.778 177.5 370.53 177.5C371.281 177.5 371.924 177.756 372.457 178.268C373.002 178.78 373.274 179.395 373.274 180.114C373.274 180.832 373.002 181.448 372.457 181.96C371.924 182.471 371.281 182.727 370.53 182.727ZM390.397 186.909V190.176H377.395V186.909H390.397ZM381.184 180.898H385.039V204.812C385.039 205.902 385.197 206.718 385.513 207.263C385.84 207.796 386.254 208.156 386.755 208.341C387.266 208.515 387.806 208.602 388.372 208.602C388.797 208.602 389.145 208.58 389.417 208.537C389.69 208.482 389.907 208.439 390.071 208.406L390.855 211.869C390.593 211.967 390.229 212.065 389.76 212.163C389.292 212.272 388.699 212.327 387.98 212.327C386.891 212.327 385.824 212.093 384.778 211.624C383.743 211.156 382.883 210.443 382.197 209.484C381.522 208.526 381.184 207.317 381.184 205.858V180.898ZM406.447 212.523C404.029 212.523 401.944 211.989 400.19 210.922C398.448 209.844 397.103 208.341 396.156 206.413C395.219 204.475 394.751 202.221 394.751 199.651C394.751 197.08 395.219 194.815 396.156 192.855C397.103 190.884 398.421 189.348 400.109 188.249C401.808 187.138 403.79 186.582 406.055 186.582C407.362 186.582 408.652 186.8 409.926 187.236C411.2 187.671 412.36 188.379 413.406 189.359C414.451 190.329 415.284 191.614 415.905 193.214C416.526 194.815 416.836 196.786 416.836 199.128V200.761H397.495V197.429H412.915C412.915 196.013 412.632 194.75 412.066 193.639C411.511 192.528 410.716 191.652 409.681 191.009C408.657 190.367 407.449 190.045 406.055 190.045C404.519 190.045 403.191 190.427 402.069 191.189C400.958 191.94 400.103 192.92 399.504 194.129C398.905 195.338 398.606 196.634 398.606 198.017V200.239C398.606 202.134 398.933 203.74 399.586 205.058C400.25 206.364 401.17 207.361 402.347 208.047C403.523 208.722 404.889 209.06 406.447 209.06C407.46 209.06 408.374 208.918 409.191 208.635C410.019 208.341 410.732 207.905 411.331 207.328C411.93 206.74 412.393 206.01 412.719 205.139L416.444 206.185C416.052 207.448 415.393 208.559 414.467 209.517C413.542 210.464 412.398 211.205 411.037 211.739C409.676 212.261 408.146 212.523 406.447 212.523ZM427.797 178.545L427.47 202.591H423.68L423.354 178.545H427.797ZM425.575 212.261C424.769 212.261 424.078 211.973 423.501 211.396C422.924 210.818 422.635 210.127 422.635 209.321C422.635 208.515 422.924 207.824 423.501 207.246C424.078 206.669 424.769 206.381 425.575 206.381C426.381 206.381 427.073 206.669 427.65 207.246C428.227 207.824 428.516 208.515 428.516 209.321C428.516 209.855 428.379 210.345 428.107 210.791C427.846 211.238 427.492 211.597 427.045 211.869C426.61 212.131 426.12 212.261 425.575 212.261Z" fill="black"/>
<path d="M866.887 745.425C862.854 746.265 858.03 748.113 857.556 752.483C857.002 757.357 862.617 760.214 867.125 761.223C884.127 765.172 901.682 765.676 919.158 766.181C1011.52 768.533 1103.89 768.954 1196.25 767.357C1194.91 755.341 1181.46 750.13 1170.31 747.861C1122.39 738.114 1072.81 743.66 1025.76 733.324C976.174 722.316 915.837 734.753 866.887 745.425Z" fill="url(#paint0_linear_805_2582)"/>
<path d="M866.887 745.425C862.854 746.265 858.03 748.113 857.556 752.483C857.002 757.357 862.617 760.214 867.125 761.223C884.127 765.172 901.682 765.676 919.158 766.181C1011.52 768.533 1103.89 768.954 1196.25 767.357C1194.91 755.341 1181.46 750.13 1170.31 747.861C1122.39 738.114 1072.81 743.66 1025.76 733.324C976.174 722.316 915.837 734.753 866.887 745.425Z" fill="url(#paint1_linear_805_2582)"/>
<path d="M1118.43 666.264C1119.46 665.928 1120.56 666.264 1121.59 666.601C1126.1 668.197 1130.53 670.298 1134.48 673.071C1136.46 674.416 1138.44 675.928 1139.38 678.197C1140.25 680.298 1140.18 682.651 1140.02 684.836C1138.59 711.894 1137.25 739.036 1135.83 766.095C1135.75 767.859 1135.51 769.793 1134.24 770.885C1132.66 772.145 1130.45 771.305 1128.71 770.465C1111.71 762.565 1094.78 754.582 1077.78 746.683C1069.64 742.902 1061.26 738.868 1055.25 731.893C1059.83 721.137 1069.48 713.995 1078.34 706.768C1092.1 695.507 1104.75 682.567 1115.9 668.449C1116.53 667.609 1117.32 666.6 1118.43 666.264Z" fill="#DDC199"/>
<path d="M1198.54 526.855C1194.35 525.847 1190.07 524.838 1185.88 523.83C1161.21 571.98 1139.39 621.812 1120.56 672.904C1124.91 675.845 1130.69 678.87 1134.88 675.677C1136.62 674.332 1137.65 672.147 1138.59 670.047C1159.95 622.988 1179.95 575.258 1198.54 526.855Z" fill="#BDB39B"/>
<g opacity="0.26">
<path opacity="0.26" d="M1120.79 761.137C1120.71 762.062 1122.05 762.398 1122.21 761.474C1125.61 734.163 1130.44 707.357 1136.68 680.634C1137.08 678.954 1134.63 678.449 1134.23 680.13C1127.75 706.6 1123.24 733.827 1120.79 761.137Z" fill="#272525"/>
<path opacity="0.26" d="M1094 749.121C1104.43 725.76 1115.5 702.735 1127.21 680.046C1127.92 678.701 1125.86 677.609 1125.15 678.954C1112.97 701.811 1101.98 725.34 1091.94 749.289C1092.1 749.457 1092.18 749.625 1092.26 749.793C1092.81 749.373 1093.36 749.205 1094 749.121Z" fill="#272525"/>
<path opacity="0.26" d="M1076.98 733.743C1094.46 716.264 1110.04 696.853 1123.64 675.844C1124.51 674.416 1122.29 673.239 1121.42 674.668C1108.06 695.592 1092.72 714.92 1075.56 732.398C1074.69 733.322 1076.11 734.667 1076.98 733.743Z" fill="#272525"/>
</g>
<path d="M955.765 690.213C955.844 688.953 956.002 687.608 956.081 686.347C945.643 678.784 927.297 681.221 916.226 685.087C904.364 689.204 904.363 696.935 904.522 710.044C904.601 717.439 905.233 725.759 910.611 730.548C914.723 734.246 920.496 734.75 925.873 735.086C930.697 735.422 935.442 735.674 940.265 736.01C943.587 736.178 947.303 736.263 949.913 733.993C952.522 731.641 952.918 727.691 953.234 724.077C954.104 712.733 954.974 701.473 955.765 690.213Z" fill="#2F3F47"/>
<path d="M968.506 690.213C968.427 688.953 968.269 687.608 968.189 686.347C978.628 678.784 996.974 681.221 1008.05 685.087C1019.91 689.204 1019.91 696.935 1019.75 710.044C1019.67 717.439 1019.04 725.759 1013.66 730.548C1009.55 734.246 1003.77 734.75 998.397 735.086C993.574 735.422 988.829 735.674 984.005 736.01C980.684 736.178 976.967 736.263 974.358 733.993C971.748 731.641 971.353 727.691 971.037 724.077C970.246 712.733 969.376 701.473 968.506 690.213Z" fill="#2F3F47"/>
<path d="M879.448 662.148C876.838 662.735 874.307 663.576 871.856 664.668C870.037 665.424 868.219 666.433 866.953 667.945C865.213 670.13 864.739 673.156 864.422 676.097C864.027 679.963 863.869 683.828 863.948 687.693C863.948 690.97 864.186 694.332 865.767 697.105C867.981 700.971 872.331 702.735 876.443 703.827C884.271 705.929 892.416 706.432 900.482 706.853C949.274 709.374 998.223 707.692 1046.78 701.895C1048.75 701.643 1050.97 701.307 1052.31 699.71C1053.1 698.786 1053.5 697.525 1053.89 696.348C1056.42 687.777 1058.09 676.097 1052.63 668.114C1047.96 661.307 1039.34 665.172 1032.86 665.088C1026.22 665.004 1019.5 664.416 1012.85 664.164C999.884 663.576 986.915 662.987 973.947 662.567C955.679 661.895 937.333 661.307 919.066 660.803C906.73 660.551 892.179 659.122 879.448 662.148Z" fill="#516770"/>
<path d="M984.309 477.695C1017.44 477.863 1050.5 478.62 1083.63 479.376C1082.84 460.637 1081.58 441.897 1077.78 423.578C1071.22 391.478 1056.19 360.134 1030.81 341.395C991.9 312.656 930.14 316.437 888.228 344.84C870.594 356.772 856.439 373.159 849.006 393.242C840.465 416.183 838.171 441.225 836.827 465.847C836.669 469.124 836.511 472.317 836.353 475.594C885.54 473.577 935.043 477.527 984.309 477.695Z" fill="#EAF1F2"/>
<path d="M981.657 487.108C933.103 487.024 884.39 483.327 835.836 485.175C833.463 541.141 835.678 597.359 842.479 652.989C843.428 660.636 844.614 668.618 849.359 674.668C856.713 683.996 869.444 679.878 879.329 679.878C896.015 679.878 913.175 680.635 930.018 681.055C961.808 681.811 993.361 681.895 1024.99 678.114C1040.02 676.35 1070.38 681.223 1077.58 666.854C1083.51 655.173 1081.06 631.476 1081.93 618.451C1082.96 602.989 1083.75 587.611 1084.22 572.149C1085.09 544.334 1084.93 516.519 1083.9 488.62C1049.9 487.948 1015.74 487.108 981.657 487.108Z" fill="#E2ECED"/>
<path d="M1096.33 577.696C1096.96 577.107 1097.04 576.099 1097.12 575.259C1098.78 551.982 1100.2 528.704 1101.23 505.427C1101.31 503.41 1101.31 501.058 1099.81 499.713C1098.7 498.789 1097.28 498.705 1095.85 498.705C1090.95 498.621 1086.13 498.537 1081.23 498.537C1078.14 525.007 1076.88 551.645 1077.51 578.284C1082.97 578.284 1088.34 578.368 1093.8 578.368C1094.67 578.368 1095.62 578.368 1096.33 577.696Z" fill="#2F3F47"/>
<path d="M1121.54 631.31C1122.17 629.378 1122.88 627.361 1124.3 625.932C1125.41 624.84 1126.91 624.167 1128.34 623.663C1134.5 621.31 1140.83 619.546 1147.24 618.369C1152.22 621.983 1156.73 626.269 1160.6 631.226C1161.31 632.151 1162.02 633.159 1162.18 634.336C1162.34 635.26 1162.1 636.184 1161.87 637.109C1159.34 647.445 1156.88 657.781 1154.35 668.117C1150.64 668.621 1146.92 668.705 1143.28 668.201C1144.71 661.898 1146.13 655.596 1147.47 649.377C1148.82 643.411 1149.85 636.1 1145.58 631.899C1141.23 633.075 1136.96 634.336 1132.61 635.512C1131.9 635.68 1131.1 635.932 1130.47 636.436C1129.76 637.109 1129.44 638.117 1129.13 639.041C1127.31 644.924 1125.96 650.974 1125.02 657.109C1122.25 656.268 1119.48 655.511 1116.71 654.671C1116.47 646.688 1119.01 638.874 1121.54 631.31Z" fill="#2F3F47"/>
<path d="M1155.14 622.233C1155.38 621.981 1155.46 621.646 1155.54 621.393C1156.33 617.612 1157.12 613.83 1157.99 610.133C1152.45 608.788 1146.76 607.863 1141.15 607.359C1140.28 610.469 1139.72 613.746 1139.49 617.023C1139.41 617.696 1139.41 618.536 1139.88 619.04C1140.2 619.376 1140.59 619.46 1140.99 619.629C1145.18 620.973 1149.53 621.981 1153.96 622.569C1154.27 622.485 1154.75 622.57 1155.14 622.233Z" fill="#516770"/>
<path d="M1160.69 607.529C1164.01 601.562 1161.32 585.848 1161.32 579.546C1161.24 570.89 1161.24 562.151 1159.34 553.748C1157.44 545.344 1153.57 537.109 1147.16 531.815C1143.53 528.79 1139.26 526.858 1134.83 525.261C1121.62 520.471 1107.47 518.875 1093.63 520.639C1092.52 520.807 1091.33 520.975 1090.54 521.816C1089.67 522.656 1089.52 524 1089.36 525.261C1088.72 530.051 1087.86 535.345 1088.09 540.218C1088.49 548.79 1086.83 546.437 1092.68 548.874C1097.19 550.723 1105.65 549.21 1110.79 550.471C1116.8 551.899 1122.65 554.084 1128.5 556.269C1132.22 557.613 1136.17 559.294 1138.07 562.907C1139.1 564.84 1139.41 567.193 1139.65 569.462C1141.07 582.908 1141.71 596.436 1141.63 609.966C1141.63 612.318 1157.92 611.142 1160.05 608.537C1160.29 608.201 1160.45 607.865 1160.69 607.529Z" fill="#E2ECED"/>
<g opacity="0.15">
<path opacity="0.15" d="M1133 529.129C1132.53 537.196 1130.55 544.507 1127.55 551.902C1126.99 553.33 1128.65 554.423 1129.52 553.163C1134.27 546.104 1136.72 537.7 1137.59 529.129C1137.91 526.104 1133.24 526.019 1133 529.129Z" fill="#272525"/>
<path opacity="0.15" d="M1145.11 534.927C1143.76 542.743 1140.44 547.869 1135.22 553.415C1134.51 554.171 1135.46 555.431 1136.25 554.843C1139.81 552.49 1143.13 550.978 1145.66 547.197C1148.03 543.667 1149.61 539.885 1150.09 535.6C1150.4 532.659 1145.66 531.986 1145.11 534.927Z" fill="#272525"/>
</g>
<path d="M828.074 499.209C827.442 499.797 827.363 500.806 827.284 501.646C825.623 524.923 824.2 548.2 823.172 571.477C823.093 573.494 823.093 575.847 824.595 577.191C825.702 578.116 827.125 578.2 828.549 578.2C833.452 578.284 838.275 578.368 843.178 578.368C846.262 551.898 847.528 525.259 846.895 498.621C841.439 498.621 836.061 498.537 830.605 498.537C829.735 498.537 828.707 498.537 828.074 499.209Z" fill="#2F3F47"/>
<path d="M766.779 470.555C767.017 472.572 767.253 474.756 766.542 476.605C765.988 478.117 764.96 479.378 763.853 480.555C759.346 485.512 754.443 490.135 749.145 494.252C743.135 493.412 737.283 491.647 731.827 489.042C730.799 488.538 729.691 488.034 729.059 487.025C728.584 486.269 728.347 485.344 728.189 484.42C726.133 474 723.998 463.496 721.942 453.076C725.026 450.891 728.347 449.042 731.827 447.697C733.171 454 734.594 460.302 735.938 466.605C737.283 472.571 739.418 479.63 744.954 481.311C748.354 478.202 751.675 475.092 755.076 471.983C755.629 471.479 756.262 470.891 756.578 470.135C756.974 469.21 756.815 468.117 756.657 467.109C755.787 460.975 754.522 454.924 752.782 448.958C755.629 448.37 758.397 447.782 761.244 447.193C764.881 454.336 765.83 462.571 766.779 470.555Z" fill="#2F3F47"/>
<path d="M740.508 494.502C740.429 494.838 740.508 495.175 740.508 495.427C741.378 499.208 742.248 502.906 743.039 506.687C748.574 505.258 754.031 503.41 759.329 501.225C758.855 498.031 757.985 494.838 756.798 491.813C756.561 491.141 756.245 490.468 755.613 490.216C755.217 490.048 754.821 490.132 754.347 490.216C749.998 490.973 745.728 492.149 741.536 493.662C741.141 493.83 740.666 494.082 740.508 494.502Z" fill="#516770"/>
<path d="M741.713 510.303C741.16 517.193 750.175 529.966 752.863 535.68C756.501 543.412 760.218 551.227 765.437 557.865C770.656 564.504 777.536 570.05 785.522 571.73C790.03 572.739 794.695 572.487 799.282 571.815C813.121 569.882 826.485 564.672 838.11 556.521C839.059 555.848 840.008 555.176 840.403 554C840.798 552.823 840.403 551.563 840.087 550.302C838.584 545.681 837.24 540.555 834.947 536.269C830.993 528.79 833.523 530.134 827.197 530.638C822.373 531.059 815.414 536.437 810.274 537.782C804.264 539.378 798.096 540.134 792.007 540.975C788.132 541.479 783.862 541.899 780.62 539.546C778.88 538.286 777.615 536.353 776.508 534.42C769.628 523.075 763.381 511.227 757.766 499.043C756.817 496.942 742.741 505.681 741.871 509.042C741.792 509.546 741.713 509.883 741.713 510.303Z" fill="#E2ECED"/>
<g opacity="0.15">
<path opacity="0.15" d="M799.187 567.442C796.261 559.963 794.996 552.484 794.522 544.417C794.443 542.821 792.465 542.653 792.228 544.25C790.963 552.821 792.229 561.476 795.075 569.543C796.103 572.484 800.373 570.299 799.187 567.442Z" fill="#272525"/>
<path opacity="0.15" d="M785.996 568.032C783.94 560.385 784.731 554.251 787.103 546.772C787.419 545.764 786.075 545.091 785.521 545.931C783.386 549.713 781.014 552.654 780.302 557.192C779.67 561.477 779.828 565.595 781.251 569.628C782.2 572.569 786.708 570.889 785.996 568.032Z" fill="#272525"/>
</g>
<path d="M858.436 422.739C858.514 425.932 858.672 429.209 859.938 432.151C863.18 439.461 871.72 441.814 879.233 443.159C922.172 450.805 966.061 453.411 1009.24 447.612C1014.93 446.856 1020.63 445.932 1025.84 443.411C1031.06 440.89 1035.73 436.604 1037.63 430.974C1038.81 427.36 1038.89 423.495 1038.97 419.63C1039.05 415.764 1039.05 411.815 1039.13 407.949C1039.13 406.185 1039.13 404.42 1038.5 402.739C1037.78 400.974 1036.36 399.546 1034.86 398.453C1029.17 394.336 1021.97 393.411 1015.09 392.655C969.383 387.781 923.122 383.496 877.652 390.05C875.754 390.302 873.776 390.638 872.432 392.067C871.72 392.739 871.246 393.664 870.534 394.336C869.19 395.428 867.371 395.344 865.79 395.932C861.361 397.445 859.78 403.244 859.226 408.202C858.594 412.991 858.356 417.865 858.436 422.739Z" fill="#2F3F47"/>
<path opacity="0.2" d="M915.679 429.797C917.182 426.856 917.419 423.411 917.103 420.05C916.945 418.033 916.47 415.933 915.284 414.42C912.753 411.227 908.088 411.563 904.213 410.807C900.813 412.319 897.965 415.26 896.542 418.874C895.672 421.058 895.277 423.411 895.514 425.764C896.068 430.554 899.785 434.672 904.213 435.512C908.72 436.521 913.544 434.083 915.679 429.797Z" fill="#EAF1F2"/>
<path opacity="0.2" d="M990.982 429.797C992.485 426.856 992.722 423.411 992.406 420.05C992.248 418.033 991.773 415.933 990.587 414.42C988.056 411.227 983.391 411.563 979.516 410.807C976.116 412.319 973.269 415.26 971.845 418.874C970.976 421.058 970.58 423.411 970.817 425.764C971.371 430.554 975.088 434.672 979.516 435.512C983.945 436.521 988.768 434.083 990.982 429.797Z" fill="#EAF1F2"/>
<defs>
<linearGradient id="paint0_linear_805_2582" x1="857.57" y1="748.659" x2="1196.34" y2="748.659" gradientUnits="userSpaceOnUse">
<stop stop-color="#4D4D4D"/>
<stop offset="1"/>
</linearGradient>
<linearGradient id="paint1_linear_805_2582" x1="857.57" y1="748.659" x2="1196.34" y2="748.659" gradientUnits="userSpaceOnUse">
<stop/>
<stop offset="1"/>
</linearGradient>
</defs>
</svg>
