<svg width="1199" height="772" viewBox="0 0 1199 772" fill="none" xmlns="http://www.w3.org/2000/svg">
<path d="M697.596 387C697.845 387 698.094 386.994 698.346 386.983C701.281 386.864 704.147 385.952 706.7 384.325C709.254 382.698 711.418 380.404 713.01 377.638C724.934 357.669 739.566 339.908 756.379 324.997C766.558 315.881 777.194 307.405 787.478 299.207C814.013 278.066 839.001 258.155 852.872 230.643C883.116 170.652 847.5 87.0923 796.619 49.6186C739.549 7.58992 664.483 0.997367 591.865 0.133407C584.318 0.0439794 576.767 -0.000465902 569.211 3.68211e-06C438.368 0.05622 307.801 13.4339 179.119 39.968C136.33 48.814 91.5399 59.6506 55.547 85.9492C19.7678 112.092 -1.97922 153.261 0.142339 190.835C3.23996 245.687 55.1323 286.673 102.385 297.389C147.424 307.594 194.212 300.697 243.746 293.393C254.682 291.782 265.988 290.115 277.169 288.666C398.685 272.928 626.961 321.438 636.618 323.511L646.2 325.566L683.376 379.173C685.048 381.617 687.202 383.595 689.668 384.952C692.135 386.31 694.848 387.011 697.596 387Z" fill="white"/>
<path d="M114.102 66.5455V100H110.051V66.5455H114.102ZM131.895 100.523C129.543 100.523 127.518 99.9673 125.819 98.8565C124.12 97.7457 122.813 96.2157 121.898 94.2663C120.983 92.317 120.526 90.09 120.526 87.5852C120.526 85.0369 120.994 82.7881 121.931 80.8388C122.878 78.8786 124.196 77.3485 125.884 76.2486C127.583 75.1378 129.565 74.5824 131.83 74.5824C133.594 74.5824 135.184 74.9091 136.6 75.5625C138.016 76.2159 139.175 77.1307 140.079 78.3068C140.983 79.483 141.544 80.8551 141.762 82.4233H137.907C137.613 81.2798 136.959 80.267 135.947 79.3849C134.945 78.4919 133.594 78.0455 131.895 78.0455C130.393 78.0455 129.075 78.4375 127.942 79.2216C126.821 79.9948 125.944 81.0893 125.312 82.505C124.692 83.9098 124.381 85.5597 124.381 87.4545C124.381 89.393 124.686 91.081 125.296 92.5185C125.917 93.956 126.788 95.0722 127.91 95.8672C129.042 96.6622 130.371 97.0597 131.895 97.0597C132.897 97.0597 133.807 96.8854 134.623 96.5369C135.44 96.1884 136.132 95.6875 136.698 95.0341C137.264 94.3807 137.667 93.5966 137.907 92.6818H141.762C141.544 94.1629 141.005 95.4969 140.145 96.6839C139.295 97.8601 138.168 98.7966 136.763 99.4936C135.369 100.18 133.747 100.523 131.895 100.523ZM151.253 84.9062V100H147.398V66.5455H151.253V78.8295H151.579C152.167 77.5336 153.05 76.5045 154.226 75.7422C155.413 74.969 156.992 74.5824 158.963 74.5824C160.673 74.5824 162.17 74.9254 163.455 75.6115C164.74 76.2867 165.737 77.3267 166.444 78.7315C167.163 80.1255 167.523 81.9006 167.523 84.0568V100H163.667V84.3182C163.667 82.3253 163.15 80.7843 162.116 79.6953C161.092 78.5954 159.671 78.0455 157.852 78.0455C156.589 78.0455 155.456 78.3123 154.454 78.8459C153.463 79.3795 152.679 80.1581 152.102 81.1818C151.536 82.2055 151.253 83.447 151.253 84.9062ZM196.987 100.523C194.896 100.523 193.05 99.9946 191.45 98.9382C189.849 97.871 188.596 96.3681 187.692 94.4297C186.789 92.4804 186.337 90.1771 186.337 87.5199C186.337 84.8845 186.789 82.5975 187.692 80.6591C188.596 78.7206 189.854 77.2232 191.466 76.1669C193.078 75.1106 194.94 74.5824 197.053 74.5824C198.686 74.5824 199.977 74.8546 200.924 75.3991C201.882 75.9328 202.612 76.5426 203.113 77.2287C203.625 77.9039 204.022 78.4593 204.305 78.8949H204.632V66.5455H208.487V100H204.763V96.1449H204.305C204.022 96.6023 203.619 97.1795 203.097 97.8764C202.574 98.5625 201.828 99.1778 200.859 99.7223C199.889 100.256 198.599 100.523 196.987 100.523ZM197.51 97.0597C199.056 97.0597 200.363 96.6567 201.43 95.8509C202.498 95.0341 203.309 93.907 203.864 92.4695C204.42 91.0211 204.697 89.3494 204.697 87.4545C204.697 85.5814 204.425 83.9425 203.881 82.5376C203.336 81.1219 202.53 80.022 201.463 79.2379C200.396 78.4429 199.078 78.0455 197.51 78.0455C195.876 78.0455 194.515 78.4647 193.426 79.3033C192.348 80.1309 191.537 81.258 190.992 82.6847C190.459 84.1004 190.192 85.6903 190.192 87.4545C190.192 89.2405 190.464 90.8632 191.009 92.3224C191.564 93.7708 192.381 94.9252 193.459 95.7855C194.548 96.6349 195.898 97.0597 197.51 97.0597ZM223.467 100.588C221.877 100.588 220.434 100.289 219.138 99.6896C217.842 99.0798 216.813 98.2031 216.05 97.0597C215.288 95.9053 214.907 94.5114 214.907 92.8778C214.907 91.4403 215.19 90.2751 215.756 89.3821C216.323 88.4782 217.08 87.7704 218.027 87.2585C218.974 86.7467 220.02 86.3655 221.163 86.1151C222.318 85.8537 223.478 85.6468 224.643 85.4943C226.167 85.2983 227.403 85.1513 228.351 85.0533C229.309 84.9444 230.006 84.7647 230.442 84.5142C230.888 84.2637 231.112 83.8281 231.112 83.2074V83.0767C231.112 81.465 230.67 80.2126 229.788 79.3196C228.917 78.4266 227.594 77.9801 225.819 77.9801C223.978 77.9801 222.536 78.383 221.49 79.1889C220.445 79.9948 219.71 80.8551 219.285 81.7699L215.626 80.4631C216.279 78.9384 217.15 77.7514 218.239 76.902C219.339 76.0417 220.537 75.4427 221.833 75.1051C223.14 74.7566 224.425 74.5824 225.688 74.5824C226.494 74.5824 227.42 74.6804 228.465 74.8764C229.522 75.0616 230.54 75.4482 231.52 76.0362C232.511 76.6243 233.333 77.5118 233.987 78.6989C234.64 79.8859 234.967 81.4759 234.967 83.4688V100H231.112V96.6023H230.915C230.654 97.1468 230.219 97.7294 229.609 98.3501C228.999 98.9709 228.188 99.4991 227.175 99.9347C226.162 100.37 224.926 100.588 223.467 100.588ZM224.055 97.125C225.579 97.125 226.864 96.8255 227.91 96.2266C228.966 95.6276 229.761 94.8544 230.295 93.907C230.839 92.9595 231.112 91.9631 231.112 90.9176V87.3892C230.948 87.5852 230.589 87.7649 230.033 87.9283C229.489 88.0807 228.857 88.2169 228.138 88.3366C227.431 88.4455 226.739 88.5436 226.064 88.6307C225.4 88.7069 224.861 88.7723 224.447 88.8267C223.445 88.9574 222.508 89.1697 221.637 89.4638C220.777 89.7469 220.08 90.1771 219.546 90.7543C219.023 91.3205 218.762 92.0937 218.762 93.0739C218.762 94.4134 219.258 95.4261 220.249 96.1122C221.25 96.7874 222.519 97.125 224.055 97.125ZM242.003 100V74.9091H245.727V78.6989H245.989C246.446 77.4574 247.274 76.45 248.472 75.6768C249.67 74.9036 251.02 74.517 252.523 74.517C252.806 74.517 253.16 74.5225 253.585 74.5334C254.009 74.5443 254.331 74.5606 254.548 74.5824V78.5028C254.418 78.4702 254.118 78.4212 253.65 78.3558C253.193 78.2796 252.708 78.2415 252.196 78.2415C250.977 78.2415 249.887 78.4974 248.929 79.0092C247.982 79.5102 247.23 80.2071 246.675 81.1001C246.13 81.9822 245.858 82.9896 245.858 84.1222V100H242.003ZM271.864 74.9091V78.1761H258.338V74.9091H271.864ZM262.389 100V71.446C262.389 70.0085 262.727 68.8106 263.402 67.8523C264.077 66.8939 264.954 66.1752 266.032 65.696C267.11 65.2169 268.248 64.9773 269.446 64.9773C270.394 64.9773 271.167 65.0535 271.766 65.206C272.365 65.3584 272.811 65.5 273.105 65.6307L271.994 68.9631C271.798 68.8977 271.526 68.816 271.178 68.718C270.84 68.62 270.394 68.571 269.838 68.571C268.564 68.571 267.644 68.8923 267.078 69.5348C266.522 70.1773 266.244 71.1193 266.244 72.3608V100H262.389ZM299.679 100.523C297.588 100.523 295.742 99.9946 294.141 98.9382C292.54 97.871 291.288 96.3681 290.384 94.4297C289.48 92.4804 289.028 90.1771 289.028 87.5199C289.028 84.8845 289.48 82.5975 290.384 80.6591C291.288 78.7206 292.546 77.2232 294.157 76.1669C295.769 75.1106 297.631 74.5824 299.744 74.5824C301.377 74.5824 302.668 74.8546 303.615 75.3991C304.574 75.9328 305.303 76.5426 305.804 77.2287C306.316 77.9039 306.714 78.4593 306.997 78.8949H307.324V66.5455H311.179V100H307.454V96.1449H306.997C306.714 96.6023 306.311 97.1795 305.788 97.8764C305.265 98.5625 304.519 99.1778 303.55 99.7223C302.581 100.256 301.29 100.523 299.679 100.523ZM300.201 97.0597C301.748 97.0597 303.055 96.6567 304.122 95.8509C305.189 95.0341 306 93.907 306.556 92.4695C307.111 91.0211 307.389 89.3494 307.389 87.4545C307.389 85.5814 307.117 83.9425 306.572 82.5376C306.028 81.1219 305.222 80.022 304.154 79.2379C303.087 78.4429 301.77 78.0455 300.201 78.0455C298.568 78.0455 297.207 78.4647 296.118 79.3033C295.039 80.1309 294.228 81.258 293.684 82.6847C293.15 84.1004 292.883 85.6903 292.883 87.4545C292.883 89.2405 293.155 90.8632 293.7 92.3224C294.255 93.7708 295.072 94.9252 296.15 95.7855C297.239 96.6349 298.59 97.0597 300.201 97.0597ZM318.775 100V74.9091H322.63V100H318.775ZM320.735 70.7273C319.983 70.7273 319.335 70.4714 318.791 69.9595C318.257 69.4477 317.99 68.8324 317.99 68.1136C317.99 67.3949 318.257 66.7796 318.791 66.2678C319.335 65.7559 319.983 65.5 320.735 65.5C321.486 65.5 322.129 65.7559 322.662 66.2678C323.207 66.7796 323.479 67.3949 323.479 68.1136C323.479 68.8324 323.207 69.4477 322.662 69.9595C322.129 70.4714 321.486 70.7273 320.735 70.7273ZM339.884 100.523C337.531 100.523 335.506 99.9673 333.807 98.8565C332.108 97.7457 330.801 96.2157 329.887 94.2663C328.972 92.317 328.514 90.09 328.514 87.5852C328.514 85.0369 328.983 82.7881 329.919 80.8388C330.867 78.8786 332.184 77.3485 333.872 76.2486C335.571 75.1378 337.553 74.5824 339.818 74.5824C341.583 74.5824 343.173 74.9091 344.588 75.5625C346.004 76.2159 347.164 77.1307 348.068 78.3068C348.972 79.483 349.532 80.8551 349.75 82.4233H345.895C345.601 81.2798 344.948 80.267 343.935 79.3849C342.933 78.4919 341.583 78.0455 339.884 78.0455C338.381 78.0455 337.063 78.4375 335.931 79.2216C334.809 79.9948 333.932 81.0893 333.301 82.505C332.68 83.9098 332.369 85.5597 332.369 87.4545C332.369 89.393 332.674 91.081 333.284 92.5185C333.905 93.956 334.776 95.0722 335.898 95.8672C337.03 96.6622 338.359 97.0597 339.884 97.0597C340.886 97.0597 341.795 96.8854 342.612 96.5369C343.428 96.1884 344.12 95.6875 344.686 95.0341C345.253 94.3807 345.655 93.5966 345.895 92.6818H349.75C349.532 94.1629 348.993 95.4969 348.133 96.6839C347.284 97.8601 346.156 98.7966 344.752 99.4936C343.358 100.18 341.735 100.523 339.884 100.523ZM359.241 84.9062V100H355.386V66.5455H359.241V78.8295H359.568C360.156 77.5336 361.038 76.5045 362.214 75.7422C363.401 74.969 364.98 74.5824 366.951 74.5824C368.661 74.5824 370.158 74.9254 371.443 75.6115C372.728 76.2867 373.725 77.3267 374.433 78.7315C375.151 80.1255 375.511 81.9006 375.511 84.0568V100H371.656V84.3182C371.656 82.3253 371.138 80.7843 370.104 79.6953C369.08 78.5954 367.659 78.0455 365.84 78.0455C364.577 78.0455 363.445 78.3123 362.443 78.8459C361.452 79.3795 360.668 80.1581 360.09 81.1818C359.524 82.2055 359.241 83.447 359.241 84.9062ZM399.356 84.9062V100H395.501V66.5455H399.356V78.8295H399.683C400.271 77.5336 401.153 76.5045 402.329 75.7422C403.516 74.969 405.095 74.5824 407.066 74.5824C408.776 74.5824 410.274 74.9254 411.559 75.6115C412.844 76.2867 413.84 77.3267 414.548 78.7315C415.267 80.1255 415.626 81.9006 415.626 84.0568V100H411.771V84.3182C411.771 82.3253 411.254 80.7843 410.219 79.6953C409.195 78.5954 407.774 78.0455 405.956 78.0455C404.692 78.0455 403.56 78.3123 402.558 78.8459C401.567 79.3795 400.783 80.1581 400.206 81.1818C399.639 82.2055 399.356 83.447 399.356 84.9062ZM422.679 100V74.9091H426.534V100H422.679ZM424.639 70.7273C423.888 70.7273 423.24 70.4714 422.695 69.9595C422.162 69.4477 421.895 68.8324 421.895 68.1136C421.895 67.3949 422.162 66.7796 422.695 66.2678C423.24 65.7559 423.888 65.5 424.639 65.5C425.39 65.5 426.033 65.7559 426.567 66.2678C427.111 66.7796 427.383 67.3949 427.383 68.1136C427.383 68.8324 427.111 69.4477 426.567 69.9595C426.033 70.4714 425.39 70.7273 424.639 70.7273ZM444.115 100.523C441.697 100.523 439.612 99.9891 437.858 98.9219C436.116 97.8438 434.771 96.3409 433.824 94.4134C432.887 92.4749 432.419 90.2206 432.419 87.6506C432.419 85.0805 432.887 82.8153 433.824 80.8551C434.771 78.884 436.089 77.3485 437.777 76.2486C439.475 75.1378 441.458 74.5824 443.723 74.5824C445.029 74.5824 446.32 74.8002 447.594 75.2358C448.868 75.6714 450.028 76.3793 451.074 77.3594C452.119 78.3286 452.952 79.6136 453.573 81.2145C454.194 82.8153 454.504 84.7865 454.504 87.1278V88.7614H435.163V85.429H450.583C450.583 84.0133 450.3 82.75 449.734 81.6392C449.179 80.5284 448.384 79.6518 447.349 79.0092C446.325 78.3667 445.117 78.0455 443.723 78.0455C442.187 78.0455 440.859 78.4266 439.737 79.1889C438.626 79.9403 437.771 80.9205 437.172 82.1293C436.573 83.3381 436.274 84.634 436.274 86.017V88.2386C436.274 90.1335 436.6 91.7398 437.254 93.0575C437.918 94.3643 438.838 95.3608 440.015 96.0469C441.191 96.7221 442.557 97.0597 444.115 97.0597C445.127 97.0597 446.042 96.9181 446.859 96.6349C447.687 96.3409 448.4 95.9053 448.999 95.3281C449.598 94.7401 450.061 94.0104 450.387 93.1392L454.112 94.1847C453.72 95.4479 453.061 96.5587 452.135 97.517C451.21 98.4645 450.066 99.205 448.705 99.7386C447.344 100.261 445.814 100.523 444.115 100.523ZM460.368 100V74.9091H464.093V78.6989H464.354C464.811 77.4574 465.639 76.45 466.837 75.6768C468.035 74.9036 469.385 74.517 470.888 74.517C471.171 74.517 471.525 74.5225 471.95 74.5334C472.375 74.5443 472.696 74.5606 472.914 74.5824V78.5028C472.783 78.4702 472.484 78.4212 472.015 78.3558C471.558 78.2796 471.073 78.2415 470.561 78.2415C469.342 78.2415 468.253 78.4974 467.294 79.0092C466.347 79.5102 465.596 80.2071 465.04 81.1001C464.496 81.9822 464.223 82.9896 464.223 84.1222V100H460.368ZM490.944 100V66.5455H494.799V78.8949H495.126C495.409 78.4593 495.801 77.9039 496.302 77.2287C496.814 76.5426 497.543 75.9328 498.491 75.3991C499.449 74.8546 500.745 74.5824 502.378 74.5824C504.491 74.5824 506.353 75.1106 507.965 76.1669C509.577 77.2232 510.835 78.7206 511.738 80.6591C512.642 82.5975 513.094 84.8845 513.094 87.5199C513.094 90.1771 512.642 92.4804 511.738 94.4297C510.835 96.3681 509.582 97.871 507.981 98.9382C506.381 99.9946 504.535 100.523 502.444 100.523C500.832 100.523 499.541 100.256 498.572 99.7223C497.603 99.1778 496.857 98.5625 496.334 97.8764C495.812 97.1795 495.409 96.6023 495.126 96.1449H494.668V100H490.944ZM494.733 87.4545C494.733 89.3494 495.011 91.0211 495.567 92.4695C496.122 93.907 496.933 95.0341 498.001 95.8509C499.068 96.6567 500.375 97.0597 501.921 97.0597C503.533 97.0597 504.878 96.6349 505.956 95.7855C507.045 94.9252 507.862 93.7708 508.406 92.3224C508.961 90.8632 509.239 89.2405 509.239 87.4545C509.239 85.6903 508.967 84.1004 508.422 82.6847C507.889 81.258 507.077 80.1309 505.988 79.3033C504.91 78.4647 503.555 78.0455 501.921 78.0455C500.353 78.0455 499.035 78.4429 497.968 79.2379C496.901 80.022 496.095 81.1219 495.55 82.5376C495.006 83.9425 494.733 85.5814 494.733 87.4545ZM529.511 100.523C527.094 100.523 525.008 99.9891 523.255 98.9219C521.512 97.8438 520.167 96.3409 519.22 94.4134C518.283 92.4749 517.815 90.2206 517.815 87.6506C517.815 85.0805 518.283 82.8153 519.22 80.8551C520.167 78.884 521.485 77.3485 523.173 76.2486C524.872 75.1378 526.854 74.5824 529.119 74.5824C530.426 74.5824 531.716 74.8002 532.991 75.2358C534.265 75.6714 535.425 76.3793 536.47 77.3594C537.515 78.3286 538.349 79.6136 538.969 81.2145C539.59 82.8153 539.9 84.7865 539.9 87.1278V88.7614H520.559V85.429H535.98C535.98 84.0133 535.697 82.75 535.131 81.6392C534.575 80.5284 533.78 79.6518 532.746 79.0092C531.722 78.3667 530.513 78.0455 529.119 78.0455C527.584 78.0455 526.255 78.4266 525.133 79.1889C524.023 79.9403 523.168 80.9205 522.569 82.1293C521.97 83.3381 521.67 84.634 521.67 86.017V88.2386C521.67 90.1335 521.997 91.7398 522.65 93.0575C523.315 94.3643 524.235 95.3608 525.411 96.0469C526.587 96.7221 527.954 97.0597 529.511 97.0597C530.524 97.0597 531.439 96.9181 532.256 96.6349C533.083 96.3409 533.796 95.9053 534.395 95.3281C534.994 94.7401 535.457 94.0104 535.784 93.1392L539.508 94.1847C539.116 95.4479 538.457 96.5587 537.532 97.517C536.606 98.4645 535.463 99.205 534.101 99.7386C532.74 100.261 531.21 100.523 529.511 100.523ZM555.893 109.932C554.03 109.932 552.43 109.692 551.09 109.213C549.751 108.745 548.634 108.124 547.741 107.351C546.859 106.589 546.157 105.772 545.634 104.901L548.705 102.744C549.054 103.202 549.495 103.724 550.028 104.312C550.562 104.911 551.291 105.429 552.217 105.864C553.154 106.311 554.379 106.534 555.893 106.534C557.918 106.534 559.59 106.044 560.907 105.064C562.225 104.084 562.884 102.548 562.884 100.457V95.3608H562.557C562.274 95.8182 561.871 96.3845 561.349 97.0597C560.837 97.724 560.096 98.3175 559.127 98.8402C558.169 99.352 556.873 99.608 555.239 99.608C553.214 99.608 551.395 99.1288 549.783 98.1705C548.182 97.2121 546.914 95.8182 545.977 93.9886C545.051 92.1591 544.589 89.9375 544.589 87.3239C544.589 84.7538 545.041 82.5159 545.944 80.6101C546.848 78.6934 548.106 77.2124 549.718 76.1669C551.33 75.1106 553.192 74.5824 555.305 74.5824C556.938 74.5824 558.234 74.8546 559.192 75.3991C560.162 75.9328 560.902 76.5426 561.414 77.2287C561.937 77.9039 562.34 78.4593 562.623 78.8949H563.015V74.9091H566.739V100.719C566.739 102.875 566.249 104.628 565.269 105.979C564.3 107.34 562.993 108.336 561.349 108.968C559.715 109.611 557.896 109.932 555.893 109.932ZM555.762 96.1449C557.308 96.1449 558.615 95.791 559.682 95.0831C560.75 94.3752 561.561 93.357 562.116 92.0284C562.672 90.6998 562.949 89.1098 562.949 87.2585C562.949 85.4508 562.677 83.8554 562.133 82.4723C561.588 81.0893 560.782 80.0057 559.715 79.2216C558.648 78.4375 557.33 78.0455 555.762 78.0455C554.128 78.0455 552.767 78.4593 551.678 79.2869C550.6 80.1146 549.789 81.2254 549.244 82.6193C548.711 84.0133 548.444 85.5597 548.444 87.2585C548.444 89.0009 548.716 90.5419 549.26 91.8814C549.816 93.21 550.633 94.2554 551.711 95.0178C552.8 95.7692 554.15 96.1449 555.762 96.1449ZM573.796 100V74.9091H577.52V78.6989H577.782C578.239 77.4574 579.067 76.45 580.265 75.6768C581.463 74.9036 582.813 74.517 584.316 74.517C584.599 74.517 584.953 74.5225 585.378 74.5334C585.802 74.5443 586.124 74.5606 586.341 74.5824V78.5028C586.211 78.4702 585.911 78.4212 585.443 78.3558C584.986 78.2796 584.501 78.2415 583.989 78.2415C582.769 78.2415 581.68 78.4974 580.722 79.0092C579.775 79.5102 579.023 80.2071 578.468 81.1001C577.923 81.9822 577.651 82.9896 577.651 84.1222V100H573.796ZM606.724 89.7415V74.9091H610.579V100H606.724V95.7528H606.462C605.874 97.027 604.96 98.1106 603.718 99.0036C602.477 99.8857 600.908 100.327 599.013 100.327C597.445 100.327 596.051 99.9837 594.832 99.2976C593.612 98.6006 592.654 97.5552 591.957 96.1612C591.26 94.7564 590.911 92.9867 590.911 90.8523V74.9091H594.766V90.5909C594.766 92.4205 595.278 93.8797 596.302 94.9688C597.336 96.0578 598.654 96.6023 600.255 96.6023C601.213 96.6023 602.188 96.3572 603.179 95.8672C604.181 95.3771 605.019 94.6257 605.695 93.6129C606.381 92.6001 606.724 91.3097 606.724 89.7415ZM596.073 70.7273C595.387 70.7273 594.777 70.4659 594.244 69.9432C593.721 69.4096 593.46 68.7997 593.46 68.1136C593.46 67.3622 593.721 66.7415 594.244 66.2514C594.777 65.7505 595.387 65.5 596.073 65.5C596.825 65.5 597.445 65.7505 597.935 66.2514C598.436 66.7415 598.687 67.3622 598.687 68.1136C598.687 68.7997 598.436 69.4096 597.935 69.9432C597.445 70.4659 596.825 70.7273 596.073 70.7273ZM605.482 70.7273C604.796 70.7273 604.186 70.4659 603.653 69.9432C603.13 69.4096 602.869 68.7997 602.869 68.1136C602.869 67.3622 603.13 66.7415 603.653 66.2514C604.186 65.7505 604.796 65.5 605.482 65.5C606.234 65.5 606.854 65.7505 607.344 66.2514C607.845 66.7415 608.096 67.3622 608.096 68.1136C608.096 68.7997 607.845 69.4096 607.344 69.9432C606.854 70.4659 606.234 70.7273 605.482 70.7273ZM618.162 100V75.1051C618.162 73.2429 618.571 71.6366 619.388 70.2862C620.215 68.9358 621.353 67.9013 622.802 67.1825C624.261 66.4529 625.938 66.0881 627.833 66.0881C629.684 66.0881 631.345 66.4366 632.815 67.1335C634.285 67.8305 635.445 68.8215 636.295 70.1065C637.144 71.3916 637.569 72.9271 637.569 74.7131C637.569 76.6188 637.079 78.2251 636.099 79.532C635.118 80.8279 633.844 81.7481 632.276 82.2926V82.6193C634.4 82.8262 636.137 83.6593 637.487 85.1186C638.848 86.567 639.529 88.4564 639.529 90.7869C639.529 92.5511 639.126 94.1302 638.32 95.5241C637.514 96.9072 636.382 98.0017 634.922 98.8075C633.463 99.6025 631.753 100 629.793 100H626.134V96.4062H629.858C631.046 96.4062 632.069 96.1667 632.93 95.6875C633.801 95.2083 634.476 94.544 634.955 93.6946C635.434 92.8452 635.674 91.8759 635.674 90.7869C635.674 89.0663 635.091 87.6451 633.926 86.5234C632.761 85.4018 631.187 84.8409 629.205 84.8409H626.265V81.1818H628.356C629.456 81.1818 630.403 80.9041 631.198 80.3487C632.004 79.7824 632.625 79.0528 633.06 78.1598C633.496 77.2559 633.714 76.303 633.714 75.3011C633.714 73.733 633.191 72.4044 632.145 71.3153C631.111 70.2263 629.695 69.6818 627.898 69.6818C626.21 69.6818 624.805 70.1882 623.684 71.201C622.573 72.2029 622.018 73.5043 622.018 75.1051V100H618.162ZM656.191 100.523C653.773 100.523 651.688 99.9891 649.934 98.9219C648.192 97.8438 646.847 96.3409 645.9 94.4134C644.963 92.4749 644.495 90.2206 644.495 87.6506C644.495 85.0805 644.963 82.8153 645.9 80.8551C646.847 78.884 648.165 77.3485 649.853 76.2486C651.552 75.1378 653.534 74.5824 655.799 74.5824C657.106 74.5824 658.396 74.8002 659.67 75.2358C660.944 75.6714 662.104 76.3793 663.15 77.3594C664.195 78.3286 665.028 79.6136 665.649 81.2145C666.27 82.8153 666.58 84.7865 666.58 87.1278V88.7614H647.239V85.429H662.66C662.66 84.0133 662.376 82.75 661.81 81.6392C661.255 80.5284 660.46 79.6518 659.425 79.0092C658.402 78.3667 657.193 78.0455 655.799 78.0455C654.263 78.0455 652.935 78.4266 651.813 79.1889C650.702 79.9403 649.847 80.9205 649.248 82.1293C648.649 83.3381 648.35 84.634 648.35 86.017V88.2386C648.35 90.1335 648.677 91.7398 649.33 93.0575C649.994 94.3643 650.915 95.3608 652.091 96.0469C653.267 96.7221 654.634 97.0597 656.191 97.0597C657.204 97.0597 658.118 96.9181 658.935 96.6349C659.763 96.3409 660.476 95.9053 661.075 95.3281C661.674 94.7401 662.137 94.0104 662.464 93.1392L666.188 94.1847C665.796 95.4479 665.137 96.5587 664.211 97.517C663.286 98.4645 662.142 99.205 660.781 99.7386C659.42 100.261 657.89 100.523 656.191 100.523ZM676.3 84.9062V100H672.444V74.9091H676.169V78.8295H676.496C677.084 77.5554 677.977 76.5317 679.175 75.7585C680.372 74.9744 681.919 74.5824 683.814 74.5824C685.513 74.5824 686.999 74.9309 688.273 75.6278C689.547 76.3139 690.538 77.3594 691.246 78.7642C691.954 80.1581 692.308 81.9223 692.308 84.0568V100H688.453V84.3182C688.453 82.3471 687.941 80.8116 686.917 79.7116C685.894 78.6009 684.489 78.0455 682.703 78.0455C681.472 78.0455 680.372 78.3123 679.403 78.8459C678.445 79.3795 677.688 80.1581 677.133 81.1818C676.577 82.2055 676.3 83.447 676.3 84.9062ZM702.162 100.261C701.356 100.261 700.665 99.9728 700.088 99.3956C699.511 98.8184 699.222 98.1269 699.222 97.321C699.222 96.5152 699.511 95.8236 700.088 95.2464C700.665 94.6693 701.356 94.3807 702.162 94.3807C702.968 94.3807 703.66 94.6693 704.237 95.2464C704.814 95.8236 705.103 96.5152 705.103 97.321C705.103 97.8546 704.967 98.3447 704.694 98.7912C704.433 99.2377 704.079 99.5971 703.632 99.8693C703.197 100.131 702.707 100.261 702.162 100.261ZM120.375 156H110.051V122.545H120.832C124.078 122.545 126.855 123.215 129.163 124.555C131.472 125.883 133.242 127.795 134.472 130.288C135.703 132.771 136.318 135.744 136.318 139.207C136.318 142.692 135.697 145.692 134.456 148.208C133.214 150.713 131.407 152.64 129.033 153.991C126.659 155.33 123.773 156 120.375 156ZM114.102 152.406H120.114C122.88 152.406 125.172 151.873 126.991 150.805C128.809 149.738 130.165 148.219 131.058 146.248C131.951 144.277 132.398 141.93 132.398 139.207C132.398 136.507 131.957 134.182 131.075 132.232C130.192 130.272 128.875 128.769 127.121 127.724C125.368 126.667 123.185 126.139 120.571 126.139H114.102V152.406ZM158.403 145.741V130.909H162.259V156H158.403V151.753H158.142C157.554 153.027 156.639 154.111 155.398 155.004C154.156 155.886 152.588 156.327 150.693 156.327C149.125 156.327 147.731 155.984 146.511 155.298C145.292 154.601 144.333 153.555 143.636 152.161C142.939 150.756 142.591 148.987 142.591 146.852V130.909H146.446V146.591C146.446 148.42 146.958 149.88 147.982 150.969C149.016 152.058 150.334 152.602 151.935 152.602C152.893 152.602 153.868 152.357 154.859 151.867C155.861 151.377 156.699 150.626 157.374 149.613C158.06 148.6 158.403 147.31 158.403 145.741ZM182.78 156V122.545H186.635V134.895H186.961C187.245 134.459 187.637 133.904 188.138 133.229C188.649 132.543 189.379 131.933 190.327 131.399C191.285 130.855 192.581 130.582 194.214 130.582C196.327 130.582 198.189 131.111 199.801 132.167C201.413 133.223 202.671 134.721 203.574 136.659C204.478 138.598 204.93 140.884 204.93 143.52C204.93 146.177 204.478 148.48 203.574 150.43C202.671 152.368 201.418 153.871 199.817 154.938C198.216 155.995 196.371 156.523 194.28 156.523C192.668 156.523 191.377 156.256 190.408 155.722C189.439 155.178 188.693 154.562 188.17 153.876C187.648 153.179 187.245 152.602 186.961 152.145H186.504V156H182.78ZM186.569 143.455C186.569 145.349 186.847 147.021 187.403 148.469C187.958 149.907 188.769 151.034 189.836 151.851C190.904 152.657 192.211 153.06 193.757 153.06C195.369 153.06 196.714 152.635 197.792 151.786C198.881 150.925 199.698 149.771 200.242 148.322C200.797 146.863 201.075 145.241 201.075 143.455C201.075 141.69 200.803 140.1 200.258 138.685C199.725 137.258 198.913 136.131 197.824 135.303C196.746 134.465 195.39 134.045 193.757 134.045C192.189 134.045 190.871 134.443 189.804 135.238C188.737 136.022 187.931 137.122 187.386 138.538C186.842 139.942 186.569 141.581 186.569 143.455ZM210.827 156V130.909H214.682V156H210.827ZM212.787 126.727C212.036 126.727 211.388 126.471 210.844 125.96C210.31 125.448 210.043 124.832 210.043 124.114C210.043 123.395 210.31 122.78 210.844 122.268C211.388 121.756 212.036 121.5 212.787 121.5C213.539 121.5 214.181 121.756 214.715 122.268C215.26 122.78 215.532 123.395 215.532 124.114C215.532 124.832 215.26 125.448 214.715 125.96C214.181 126.471 213.539 126.727 212.787 126.727ZM239.516 136.528L236.053 137.509C235.835 136.931 235.514 136.371 235.089 135.826C234.675 135.271 234.109 134.813 233.39 134.454C232.672 134.094 231.751 133.915 230.63 133.915C229.094 133.915 227.815 134.269 226.791 134.977C225.778 135.674 225.272 136.561 225.272 137.639C225.272 138.598 225.62 139.354 226.317 139.91C227.014 140.465 228.103 140.928 229.584 141.298L233.309 142.213C235.552 142.758 237.224 143.591 238.324 144.712C239.423 145.823 239.973 147.255 239.973 149.009C239.973 150.446 239.56 151.731 238.732 152.864C237.915 153.996 236.772 154.889 235.301 155.543C233.831 156.196 232.122 156.523 230.172 156.523C227.613 156.523 225.495 155.967 223.818 154.857C222.141 153.746 221.079 152.123 220.632 149.989L224.292 149.074C224.64 150.424 225.299 151.437 226.268 152.112C227.248 152.787 228.528 153.125 230.107 153.125C231.904 153.125 233.33 152.744 234.387 151.982C235.454 151.208 235.988 150.283 235.988 149.205C235.988 148.333 235.683 147.604 235.073 147.016C234.463 146.417 233.526 145.97 232.263 145.676L228.081 144.696C225.783 144.152 224.096 143.308 223.017 142.164C221.95 141.01 221.417 139.567 221.417 137.835C221.417 136.42 221.814 135.167 222.609 134.078C223.415 132.989 224.509 132.134 225.892 131.513C227.286 130.893 228.865 130.582 230.63 130.582C233.113 130.582 235.062 131.127 236.478 132.216C237.904 133.305 238.917 134.742 239.516 136.528ZM256.688 130.909V134.176H243.686V130.909H256.688ZM247.475 124.898H251.33V148.812C251.33 149.902 251.488 150.718 251.804 151.263C252.131 151.796 252.545 152.156 253.046 152.341C253.557 152.515 254.097 152.602 254.663 152.602C255.088 152.602 255.436 152.58 255.708 152.537C255.981 152.482 256.198 152.439 256.362 152.406L257.146 155.869C256.884 155.967 256.52 156.065 256.051 156.163C255.583 156.272 254.99 156.327 254.271 156.327C253.182 156.327 252.115 156.093 251.069 155.624C250.035 155.156 249.174 154.443 248.488 153.484C247.813 152.526 247.475 151.317 247.475 149.858V124.898ZM285.945 156.523C283.527 156.523 281.442 155.989 279.688 154.922C277.946 153.844 276.601 152.341 275.654 150.413C274.717 148.475 274.249 146.221 274.249 143.651C274.249 141.08 274.717 138.815 275.654 136.855C276.601 134.884 277.919 133.348 279.607 132.249C281.306 131.138 283.288 130.582 285.553 130.582C286.86 130.582 288.15 130.8 289.424 131.236C290.698 131.671 291.858 132.379 292.904 133.359C293.949 134.329 294.782 135.614 295.403 137.214C296.024 138.815 296.334 140.786 296.334 143.128V144.761H276.993V141.429H292.414C292.414 140.013 292.13 138.75 291.564 137.639C291.009 136.528 290.214 135.652 289.179 135.009C288.155 134.367 286.947 134.045 285.553 134.045C284.017 134.045 282.689 134.427 281.567 135.189C280.456 135.94 279.601 136.92 279.002 138.129C278.403 139.338 278.104 140.634 278.104 142.017V144.239C278.104 146.134 278.431 147.74 279.084 149.058C279.748 150.364 280.669 151.361 281.845 152.047C283.021 152.722 284.387 153.06 285.945 153.06C286.958 153.06 287.872 152.918 288.689 152.635C289.517 152.341 290.23 151.905 290.829 151.328C291.428 150.74 291.891 150.01 292.218 149.139L295.942 150.185C295.55 151.448 294.891 152.559 293.965 153.517C293.04 154.464 291.896 155.205 290.535 155.739C289.174 156.261 287.644 156.523 285.945 156.523ZM302.198 156V130.909H306.053V156H302.198ZM304.159 126.727C303.407 126.727 302.759 126.471 302.215 125.96C301.681 125.448 301.414 124.832 301.414 124.114C301.414 123.395 301.681 122.78 302.215 122.268C302.759 121.756 303.407 121.5 304.159 121.5C304.91 121.5 305.552 121.756 306.086 122.268C306.631 122.78 306.903 123.395 306.903 124.114C306.903 124.832 306.631 125.448 306.086 125.96C305.552 126.471 304.91 126.727 304.159 126.727ZM316.969 140.906V156H313.114V130.909H316.839V134.83H317.165C317.754 133.555 318.647 132.532 319.844 131.759C321.042 130.974 322.589 130.582 324.484 130.582C326.183 130.582 327.669 130.931 328.943 131.628C330.217 132.314 331.208 133.359 331.916 134.764C332.624 136.158 332.978 137.922 332.978 140.057V156H329.123V140.318C329.123 138.347 328.611 136.812 327.587 135.712C326.564 134.601 325.159 134.045 323.373 134.045C322.142 134.045 321.042 134.312 320.073 134.846C319.115 135.379 318.358 136.158 317.803 137.182C317.247 138.205 316.969 139.447 316.969 140.906ZM357.534 122.545V156H353.483V122.545H357.534ZM368.989 140.906V156H365.134V130.909H368.858V134.83H369.185C369.773 133.555 370.666 132.532 371.864 131.759C373.062 130.974 374.608 130.582 376.503 130.582C378.202 130.582 379.689 130.931 380.963 131.628C382.237 132.314 383.228 133.359 383.936 134.764C384.644 136.158 384.998 137.922 384.998 140.057V156H381.142V140.318C381.142 138.347 380.631 136.812 379.607 135.712C378.583 134.601 377.178 134.045 375.392 134.045C374.162 134.045 373.062 134.312 372.093 134.846C371.134 135.379 370.377 136.158 369.822 137.182C369.267 138.205 368.989 139.447 368.989 140.906ZM402.17 165.932C400.308 165.932 398.707 165.692 397.367 165.213C396.028 164.745 394.912 164.124 394.019 163.351C393.137 162.589 392.434 161.772 391.911 160.901L394.982 158.744C395.331 159.202 395.772 159.724 396.306 160.312C396.839 160.911 397.569 161.429 398.494 161.864C399.431 162.311 400.656 162.534 402.17 162.534C404.195 162.534 405.867 162.044 407.185 161.064C408.503 160.084 409.161 158.548 409.161 156.457V151.361H408.835C408.552 151.818 408.149 152.384 407.626 153.06C407.114 153.724 406.374 154.317 405.404 154.84C404.446 155.352 403.15 155.608 401.517 155.608C399.491 155.608 397.672 155.129 396.061 154.17C394.46 153.212 393.191 151.818 392.254 149.989C391.329 148.159 390.866 145.937 390.866 143.324C390.866 140.754 391.318 138.516 392.222 136.61C393.126 134.693 394.383 133.212 395.995 132.167C397.607 131.111 399.469 130.582 401.582 130.582C403.215 130.582 404.511 130.855 405.47 131.399C406.439 131.933 407.179 132.543 407.691 133.229C408.214 133.904 408.617 134.459 408.9 134.895H409.292V130.909H413.017V156.719C413.017 158.875 412.526 160.628 411.546 161.979C410.577 163.34 409.27 164.336 407.626 164.968C405.992 165.611 404.174 165.932 402.17 165.932ZM402.039 152.145C403.586 152.145 404.892 151.791 405.96 151.083C407.027 150.375 407.838 149.357 408.394 148.028C408.949 146.7 409.227 145.11 409.227 143.259C409.227 141.451 408.954 139.855 408.41 138.472C407.865 137.089 407.06 136.006 405.992 135.222C404.925 134.437 403.607 134.045 402.039 134.045C400.406 134.045 399.044 134.459 397.955 135.287C396.877 136.115 396.066 137.225 395.521 138.619C394.988 140.013 394.721 141.56 394.721 143.259C394.721 145.001 394.993 146.542 395.538 147.881C396.093 149.21 396.91 150.255 397.988 151.018C399.077 151.769 400.427 152.145 402.039 152.145ZM430.593 156.523C428.176 156.523 426.09 155.989 424.337 154.922C422.594 153.844 421.249 152.341 420.302 150.413C419.365 148.475 418.897 146.221 418.897 143.651C418.897 141.08 419.365 138.815 420.302 136.855C421.249 134.884 422.567 133.348 424.255 132.249C425.954 131.138 427.936 130.582 430.201 130.582C431.508 130.582 432.798 130.8 434.073 131.236C435.347 131.671 436.507 132.379 437.552 133.359C438.597 134.329 439.431 135.614 440.051 137.214C440.672 138.815 440.982 140.786 440.982 143.128V144.761H421.642V141.429H437.062C437.062 140.013 436.779 138.75 436.213 137.639C435.657 136.528 434.862 135.652 433.828 135.009C432.804 134.367 431.595 134.045 430.201 134.045C428.666 134.045 427.337 134.427 426.215 135.189C425.105 135.94 424.25 136.92 423.651 138.129C423.052 139.338 422.752 140.634 422.752 142.017V144.239C422.752 146.134 423.079 147.74 423.732 149.058C424.397 150.364 425.317 151.361 426.493 152.047C427.669 152.722 429.036 153.06 430.593 153.06C431.606 153.06 432.521 152.918 433.338 152.635C434.165 152.341 434.878 151.905 435.477 151.328C436.076 150.74 436.539 150.01 436.866 149.139L440.59 150.185C440.198 151.448 439.539 152.559 438.614 153.517C437.688 154.464 436.545 155.205 435.183 155.739C433.822 156.261 432.292 156.523 430.593 156.523ZM450.702 140.906V156H446.847V130.909H450.571V134.83H450.898C451.486 133.555 452.379 132.532 453.577 131.759C454.775 130.974 456.321 130.582 458.216 130.582C459.915 130.582 461.401 130.931 462.676 131.628C463.95 132.314 464.941 133.359 465.649 134.764C466.356 136.158 466.71 137.922 466.71 140.057V156H462.855V140.318C462.855 138.347 462.343 136.812 461.32 135.712C460.296 134.601 458.891 134.045 457.105 134.045C455.875 134.045 454.775 134.312 453.806 134.846C452.847 135.379 452.09 136.158 451.535 137.182C450.98 138.205 450.702 139.447 450.702 140.906ZM473.755 156V130.909H477.61V156H473.755ZM475.715 126.727C474.964 126.727 474.316 126.471 473.771 125.96C473.238 125.448 472.971 124.832 472.971 124.114C472.971 123.395 473.238 122.78 473.771 122.268C474.316 121.756 474.964 121.5 475.715 121.5C476.467 121.5 477.109 121.756 477.643 122.268C478.187 122.78 478.46 123.395 478.46 124.114C478.46 124.832 478.187 125.448 477.643 125.96C477.109 126.471 476.467 126.727 475.715 126.727ZM495.191 156.523C492.773 156.523 490.688 155.989 488.934 154.922C487.192 153.844 485.847 152.341 484.9 150.413C483.963 148.475 483.495 146.221 483.495 143.651C483.495 141.08 483.963 138.815 484.9 136.855C485.847 134.884 487.165 133.348 488.853 132.249C490.552 131.138 492.534 130.582 494.799 130.582C496.106 130.582 497.396 130.8 498.67 131.236C499.944 131.671 501.104 132.379 502.15 133.359C503.195 134.329 504.028 135.614 504.649 137.214C505.27 138.815 505.58 140.786 505.58 143.128V144.761H486.239V141.429H501.66C501.66 140.013 501.376 138.75 500.81 137.639C500.255 136.528 499.46 135.652 498.425 135.009C497.402 134.367 496.193 134.045 494.799 134.045C493.263 134.045 491.935 134.427 490.813 135.189C489.702 135.94 488.847 136.92 488.248 138.129C487.649 139.338 487.35 140.634 487.35 142.017V144.239C487.35 146.134 487.677 147.74 488.33 149.058C488.994 150.364 489.915 151.361 491.091 152.047C492.267 152.722 493.634 153.06 495.191 153.06C496.204 153.06 497.118 152.918 497.935 152.635C498.763 152.341 499.476 151.905 500.075 151.328C500.674 150.74 501.137 150.01 501.464 149.139L505.188 150.185C504.796 151.448 504.137 152.559 503.211 153.517C502.286 154.464 501.142 155.205 499.781 155.739C498.42 156.261 496.89 156.523 495.191 156.523ZM527.257 145.741V130.909H531.112V156H527.257V151.753H526.996C526.407 153.027 525.493 154.111 524.251 155.004C523.01 155.886 521.442 156.327 519.547 156.327C517.979 156.327 516.585 155.984 515.365 155.298C514.145 154.601 513.187 153.555 512.49 152.161C511.793 150.756 511.444 148.987 511.444 146.852V130.909H515.3V146.591C515.3 148.42 515.811 149.88 516.835 150.969C517.87 152.058 519.187 152.602 520.788 152.602C521.747 152.602 522.721 152.357 523.712 151.867C524.714 151.377 525.553 150.626 526.228 149.613C526.914 148.6 527.257 147.31 527.257 145.741ZM538.173 156V130.909H541.897V134.699H542.159C542.616 133.457 543.444 132.45 544.642 131.677C545.84 130.904 547.19 130.517 548.693 130.517C548.976 130.517 549.33 130.522 549.755 130.533C550.179 130.544 550.501 130.561 550.718 130.582V134.503C550.588 134.47 550.288 134.421 549.82 134.356C549.363 134.28 548.878 134.241 548.366 134.241C547.146 134.241 546.057 134.497 545.099 135.009C544.152 135.51 543.4 136.207 542.845 137.1C542.3 137.982 542.028 138.99 542.028 140.122V156H538.173ZM584.038 145.741V130.909H587.893V156H584.038V151.753H583.777C583.189 153.027 582.274 154.111 581.032 155.004C579.791 155.886 578.223 156.327 576.328 156.327C574.76 156.327 573.366 155.984 572.146 155.298C570.926 154.601 569.968 153.555 569.271 152.161C568.574 150.756 568.226 148.987 568.226 146.852V130.909H572.081V146.591C572.081 148.42 572.593 149.88 573.616 150.969C574.651 152.058 575.969 152.602 577.569 152.602C578.528 152.602 579.502 152.357 580.493 151.867C581.495 151.377 582.334 150.626 583.009 149.613C583.695 148.6 584.038 147.31 584.038 145.741ZM598.809 140.906V156H594.954V130.909H598.679V134.83H599.005C599.593 133.555 600.486 132.532 601.684 131.759C602.882 130.974 604.429 130.582 606.324 130.582C608.022 130.582 609.509 130.931 610.783 131.628C612.057 132.314 613.048 133.359 613.756 134.764C614.464 136.158 614.818 137.922 614.818 140.057V156H610.963V140.318C610.963 138.347 610.451 136.812 609.427 135.712C608.404 134.601 606.999 134.045 605.213 134.045C603.982 134.045 602.882 134.312 601.913 134.846C600.955 135.379 600.198 136.158 599.642 137.182C599.087 138.205 598.809 139.447 598.809 140.906ZM631.337 156.523C629.246 156.523 627.4 155.995 625.799 154.938C624.198 153.871 622.946 152.368 622.042 150.43C621.138 148.48 620.686 146.177 620.686 143.52C620.686 140.884 621.138 138.598 622.042 136.659C622.946 134.721 624.204 133.223 625.816 132.167C627.427 131.111 629.289 130.582 631.402 130.582C633.036 130.582 634.326 130.855 635.274 131.399C636.232 131.933 636.962 132.543 637.463 133.229C637.974 133.904 638.372 134.459 638.655 134.895H638.982V122.545H642.837V156H639.112V152.145H638.655C638.372 152.602 637.969 153.179 637.446 153.876C636.923 154.562 636.177 155.178 635.208 155.722C634.239 156.256 632.949 156.523 631.337 156.523ZM631.86 153.06C633.406 153.06 634.713 152.657 635.78 151.851C636.847 151.034 637.659 149.907 638.214 148.469C638.769 147.021 639.047 145.349 639.047 143.455C639.047 141.581 638.775 139.942 638.23 138.538C637.686 137.122 636.88 136.022 635.813 135.238C634.745 134.443 633.428 134.045 631.86 134.045C630.226 134.045 628.865 134.465 627.776 135.303C626.698 136.131 625.886 137.258 625.342 138.685C624.808 140.1 624.541 141.69 624.541 143.455C624.541 145.241 624.814 146.863 625.358 148.322C625.914 149.771 626.73 150.925 627.808 151.786C628.897 152.635 630.248 153.06 631.86 153.06ZM116.912 212.588C115.322 212.588 113.879 212.289 112.583 211.69C111.287 211.08 110.258 210.203 109.496 209.06C108.733 207.905 108.352 206.511 108.352 204.878C108.352 203.44 108.635 202.275 109.202 201.382C109.768 200.478 110.525 199.77 111.472 199.259C112.42 198.747 113.465 198.366 114.609 198.115C115.763 197.854 116.923 197.647 118.088 197.494C119.613 197.298 120.849 197.151 121.796 197.053C122.754 196.944 123.451 196.765 123.887 196.514C124.334 196.264 124.557 195.828 124.557 195.207V195.077C124.557 193.465 124.116 192.213 123.234 191.32C122.362 190.427 121.039 189.98 119.264 189.98C117.424 189.98 115.981 190.383 114.935 191.189C113.89 191.995 113.155 192.855 112.73 193.77L109.071 192.463C109.724 190.938 110.596 189.751 111.685 188.902C112.785 188.042 113.982 187.443 115.278 187.105C116.585 186.757 117.87 186.582 119.134 186.582C119.939 186.582 120.865 186.68 121.911 186.876C122.967 187.062 123.985 187.448 124.965 188.036C125.956 188.624 126.778 189.512 127.432 190.699C128.085 191.886 128.412 193.476 128.412 195.469V212H124.557V208.602H124.361C124.099 209.147 123.664 209.729 123.054 210.35C122.444 210.971 121.633 211.499 120.62 211.935C119.607 212.37 118.371 212.588 116.912 212.588ZM117.5 209.125C119.025 209.125 120.31 208.826 121.355 208.227C122.411 207.628 123.206 206.854 123.74 205.907C124.285 204.96 124.557 203.963 124.557 202.918V199.389C124.393 199.585 124.034 199.765 123.479 199.928C122.934 200.081 122.303 200.217 121.584 200.337C120.876 200.446 120.184 200.544 119.509 200.631C118.845 200.707 118.306 200.772 117.892 200.827C116.89 200.957 115.954 201.17 115.082 201.464C114.222 201.747 113.525 202.177 112.991 202.754C112.469 203.321 112.207 204.094 112.207 205.074C112.207 206.413 112.703 207.426 113.694 208.112C114.696 208.787 115.964 209.125 117.5 209.125ZM135.448 212V186.909H139.173V190.699H139.434C139.892 189.457 140.719 188.45 141.917 187.677C143.115 186.904 144.465 186.517 145.968 186.517C146.251 186.517 146.605 186.522 147.03 186.533C147.455 186.544 147.776 186.561 147.994 186.582V190.503C147.863 190.47 147.564 190.421 147.095 190.356C146.638 190.28 146.153 190.241 145.642 190.241C144.422 190.241 143.333 190.497 142.374 191.009C141.427 191.51 140.676 192.207 140.12 193.1C139.576 193.982 139.303 194.99 139.303 196.122V212H135.448ZM153.086 212V178.545H156.941V190.895H157.268C157.551 190.459 157.943 189.904 158.444 189.229C158.956 188.543 159.686 187.933 160.633 187.399C161.592 186.855 162.887 186.582 164.521 186.582C166.634 186.582 168.496 187.111 170.108 188.167C171.719 189.223 172.977 190.721 173.881 192.659C174.785 194.598 175.237 196.884 175.237 199.52C175.237 202.177 174.785 204.48 173.881 206.43C172.977 208.368 171.725 209.871 170.124 210.938C168.523 211.995 166.677 212.523 164.586 212.523C162.975 212.523 161.684 212.256 160.715 211.722C159.746 211.178 159 210.562 158.477 209.876C157.954 209.179 157.551 208.602 157.268 208.145H156.811V212H153.086ZM156.876 199.455C156.876 201.349 157.154 203.021 157.709 204.469C158.265 205.907 159.076 207.034 160.143 207.851C161.21 208.657 162.517 209.06 164.064 209.06C165.675 209.06 167.02 208.635 168.098 207.786C169.187 206.925 170.004 205.771 170.549 204.322C171.104 202.863 171.382 201.241 171.382 199.455C171.382 197.69 171.109 196.1 170.565 194.685C170.031 193.258 169.22 192.131 168.131 191.303C167.053 190.465 165.697 190.045 164.064 190.045C162.495 190.045 161.178 190.443 160.11 191.238C159.043 192.022 158.237 193.122 157.693 194.538C157.148 195.942 156.876 197.581 156.876 199.455ZM191.654 212.523C189.236 212.523 187.151 211.989 185.397 210.922C183.655 209.844 182.31 208.341 181.363 206.413C180.426 204.475 179.958 202.221 179.958 199.651C179.958 197.08 180.426 194.815 181.363 192.855C182.31 190.884 183.628 189.348 185.316 188.249C187.015 187.138 188.997 186.582 191.262 186.582C192.569 186.582 193.859 186.8 195.133 187.236C196.407 187.671 197.567 188.379 198.613 189.359C199.658 190.329 200.491 191.614 201.112 193.214C201.733 194.815 202.043 196.786 202.043 199.128V200.761H182.702V197.429H198.123C198.123 196.013 197.839 194.75 197.273 193.639C196.718 192.528 195.923 191.652 194.888 191.009C193.864 190.367 192.656 190.045 191.262 190.045C189.726 190.045 188.398 190.427 187.276 191.189C186.165 191.94 185.31 192.92 184.711 194.129C184.112 195.338 183.813 196.634 183.813 198.017V200.239C183.813 202.134 184.14 203.74 184.793 205.058C185.457 206.364 186.377 207.361 187.554 208.047C188.73 208.722 190.096 209.06 191.654 209.06C192.667 209.06 193.581 208.918 194.398 208.635C195.226 208.341 195.939 207.905 196.538 207.328C197.137 206.74 197.6 206.01 197.926 205.139L201.651 206.185C201.259 207.448 200.6 208.559 199.674 209.517C198.749 210.464 197.605 211.205 196.244 211.739C194.883 212.261 193.353 212.523 191.654 212.523ZM207.907 212V186.909H211.762V212H207.907ZM209.868 182.727C209.116 182.727 208.468 182.471 207.924 181.96C207.39 181.448 207.123 180.832 207.123 180.114C207.123 179.395 207.39 178.78 207.924 178.268C208.468 177.756 209.116 177.5 209.868 177.5C210.619 177.5 211.261 177.756 211.795 178.268C212.34 178.78 212.612 179.395 212.612 180.114C212.612 180.832 212.34 181.448 211.795 181.96C211.261 182.471 210.619 182.727 209.868 182.727ZM229.735 186.909V190.176H216.732V186.909H229.735ZM220.522 180.898H224.377V204.812C224.377 205.902 224.535 206.718 224.851 207.263C225.178 207.796 225.592 208.156 226.093 208.341C226.604 208.515 227.143 208.602 227.71 208.602C228.134 208.602 228.483 208.58 228.755 208.537C229.027 208.482 229.245 208.439 229.409 208.406L230.193 211.869C229.931 211.967 229.566 212.065 229.098 212.163C228.63 212.272 228.036 212.327 227.318 212.327C226.229 212.327 225.161 212.093 224.116 211.624C223.081 211.156 222.221 210.443 221.535 209.484C220.86 208.526 220.522 207.317 220.522 205.858V180.898ZM245.785 212.523C243.367 212.523 241.282 211.989 239.528 210.922C237.786 209.844 236.441 208.341 235.493 206.413C234.557 204.475 234.089 202.221 234.089 199.651C234.089 197.08 234.557 194.815 235.493 192.855C236.441 190.884 237.759 189.348 239.447 188.249C241.145 187.138 243.127 186.582 245.393 186.582C246.699 186.582 247.99 186.8 249.264 187.236C250.538 187.671 251.698 188.379 252.743 189.359C253.789 190.329 254.622 191.614 255.243 193.214C255.863 194.815 256.174 196.786 256.174 199.128V200.761H236.833V197.429H252.253C252.253 196.013 251.97 194.75 251.404 193.639C250.849 192.528 250.054 191.652 249.019 191.009C247.995 190.367 246.787 190.045 245.393 190.045C243.857 190.045 242.528 190.427 241.407 191.189C240.296 191.94 239.441 192.92 238.842 194.129C238.243 195.338 237.944 196.634 237.944 198.017V200.239C237.944 202.134 238.27 203.74 238.924 205.058C239.588 206.364 240.508 207.361 241.684 208.047C242.861 208.722 244.227 209.06 245.785 209.06C246.797 209.06 247.712 208.918 248.529 208.635C249.357 208.341 250.07 207.905 250.669 207.328C251.268 206.74 251.731 206.01 252.057 205.139L255.782 206.185C255.39 207.448 254.731 208.559 253.805 209.517C252.88 210.464 251.736 211.205 250.375 211.739C249.014 212.261 247.483 212.523 245.785 212.523ZM279.811 192.528L276.348 193.509C276.13 192.931 275.809 192.371 275.384 191.826C274.97 191.271 274.404 190.813 273.685 190.454C272.966 190.094 272.046 189.915 270.925 189.915C269.389 189.915 268.109 190.269 267.086 190.977C266.073 191.674 265.567 192.561 265.567 193.639C265.567 194.598 265.915 195.354 266.612 195.91C267.309 196.465 268.398 196.928 269.879 197.298L273.604 198.213C275.847 198.758 277.519 199.591 278.618 200.712C279.718 201.823 280.268 203.255 280.268 205.009C280.268 206.446 279.854 207.731 279.027 208.864C278.21 209.996 277.067 210.889 275.596 211.543C274.126 212.196 272.416 212.523 270.467 212.523C267.908 212.523 265.79 211.967 264.113 210.857C262.436 209.746 261.374 208.123 260.927 205.989L264.586 205.074C264.935 206.424 265.594 207.437 266.563 208.112C267.543 208.787 268.823 209.125 270.402 209.125C272.199 209.125 273.625 208.744 274.682 207.982C275.749 207.208 276.282 206.283 276.282 205.205C276.282 204.333 275.978 203.604 275.368 203.016C274.758 202.417 273.821 201.97 272.558 201.676L268.376 200.696C266.078 200.152 264.39 199.308 263.312 198.164C262.245 197.01 261.711 195.567 261.711 193.835C261.711 192.42 262.109 191.167 262.904 190.078C263.71 188.989 264.804 188.134 266.187 187.513C267.581 186.893 269.16 186.582 270.925 186.582C273.407 186.582 275.357 187.127 276.773 188.216C278.199 189.305 279.212 190.742 279.811 192.528ZM296.983 186.909V190.176H283.98V186.909H296.983ZM287.77 180.898H291.625V204.812C291.625 205.902 291.783 206.718 292.099 207.263C292.426 207.796 292.84 208.156 293.341 208.341C293.852 208.515 294.391 208.602 294.958 208.602C295.382 208.602 295.731 208.58 296.003 208.537C296.275 208.482 296.493 208.439 296.657 208.406L297.441 211.869C297.179 211.967 296.815 212.065 296.346 212.163C295.878 212.272 295.284 212.327 294.566 212.327C293.477 212.327 292.409 212.093 291.364 211.624C290.329 211.156 289.469 210.443 288.783 209.484C288.108 208.526 287.77 207.317 287.77 205.858V180.898ZM315.72 212V186.909H319.575V212H315.72ZM317.68 182.727C316.929 182.727 316.281 182.471 315.736 181.96C315.203 181.448 314.936 180.832 314.936 180.114C314.936 179.395 315.203 178.78 315.736 178.268C316.281 177.756 316.929 177.5 317.68 177.5C318.431 177.5 319.074 177.756 319.608 178.268C320.152 178.78 320.424 179.395 320.424 180.114C320.424 180.832 320.152 181.448 319.608 181.96C319.074 182.471 318.431 182.727 317.68 182.727ZM326.636 212V186.909H330.36V190.83H330.687C331.21 189.49 332.054 188.45 333.219 187.71C334.384 186.958 335.784 186.582 337.417 186.582C339.072 186.582 340.45 186.958 341.55 187.71C342.661 188.45 343.526 189.49 344.147 190.83H344.409C345.051 189.534 346.015 188.504 347.3 187.742C348.585 186.969 350.126 186.582 351.923 186.582C354.166 186.582 356.001 187.285 357.428 188.69C358.854 190.084 359.568 192.256 359.568 195.207V212H355.713V195.207C355.713 193.356 355.206 192.033 354.193 191.238C353.181 190.443 351.988 190.045 350.616 190.045C348.852 190.045 347.485 190.579 346.516 191.646C345.547 192.703 345.062 194.042 345.062 195.665V212H341.142V194.815C341.142 193.389 340.679 192.24 339.753 191.369C338.827 190.487 337.635 190.045 336.176 190.045C335.174 190.045 334.237 190.312 333.366 190.846C332.506 191.379 331.809 192.12 331.275 193.067C330.752 194.004 330.491 195.088 330.491 196.318V212H326.636ZM380.077 212V178.545H400.267V182.139H384.128V193.443H399.221V197.037H384.128V208.406H400.528V212H380.077ZM421.421 193.476V197.07H406.785V193.476H421.421ZM432.468 212L423.32 178.545H427.436L434.428 205.793H434.755L441.877 178.545H446.451L453.573 205.793H453.9L460.891 178.545H465.007L455.86 212H451.678L444.294 185.341H444.033L436.65 212H432.468ZM477.716 212.523C475.299 212.523 473.213 211.989 471.46 210.922C469.717 209.844 468.373 208.341 467.425 206.413C466.489 204.475 466.02 202.221 466.02 199.651C466.02 197.08 466.489 194.815 467.425 192.855C468.373 190.884 469.69 189.348 471.378 188.249C473.077 187.138 475.059 186.582 477.324 186.582C478.631 186.582 479.922 186.8 481.196 187.236C482.47 187.671 483.63 188.379 484.675 189.359C485.721 190.329 486.554 191.614 487.174 193.214C487.795 194.815 488.105 196.786 488.105 199.128V200.761H468.765V197.429H484.185C484.185 196.013 483.902 194.75 483.336 193.639C482.78 192.528 481.985 191.652 480.951 191.009C479.927 190.367 478.718 190.045 477.324 190.045C475.789 190.045 474.46 190.427 473.338 191.189C472.228 191.94 471.373 192.92 470.774 194.129C470.175 195.338 469.875 196.634 469.875 198.017V200.239C469.875 202.134 470.202 203.74 470.855 205.058C471.52 206.364 472.44 207.361 473.616 208.047C474.792 208.722 476.159 209.06 477.716 209.06C478.729 209.06 479.644 208.918 480.461 208.635C481.288 208.341 482.002 207.905 482.6 207.328C483.199 206.74 483.662 206.01 483.989 205.139L487.713 206.185C487.321 207.448 486.663 208.559 485.737 209.517C484.811 210.464 483.668 211.205 482.306 211.739C480.945 212.261 479.415 212.523 477.716 212.523ZM493.97 212V186.909H497.694V190.699H497.956C498.413 189.457 499.241 188.45 500.439 187.677C501.636 186.904 502.987 186.517 504.49 186.517C504.773 186.517 505.127 186.522 505.551 186.533C505.976 186.544 506.297 186.561 506.515 186.582V190.503C506.385 190.47 506.085 190.421 505.617 190.356C505.159 190.28 504.675 190.241 504.163 190.241C502.943 190.241 501.854 190.497 500.896 191.009C499.949 191.51 499.197 192.207 498.642 193.1C498.097 193.982 497.825 194.99 497.825 196.122V212H493.97ZM514.679 202.852L514.613 198.082H515.398L526.375 186.909H531.145L519.449 198.736H519.122L514.679 202.852ZM511.085 212V178.545H514.94V212H511.085ZM527.028 212L517.227 199.585L519.971 196.906L531.929 212H527.028ZM541.857 207.426L541.595 209.19C541.41 210.432 541.127 211.76 540.746 213.176C540.375 214.592 539.989 215.926 539.586 217.178C539.183 218.431 538.851 219.427 538.589 220.168H535.649C535.791 219.471 535.976 218.55 536.205 217.407C536.433 216.263 536.662 214.984 536.891 213.568C537.13 212.163 537.326 210.726 537.479 209.256L537.675 207.426H541.857ZM561.937 212V186.909H565.792V212H561.937ZM563.897 182.727C563.145 182.727 562.497 182.471 561.953 181.96C561.419 181.448 561.153 180.832 561.153 180.114C561.153 179.395 561.419 178.78 561.953 178.268C562.497 177.756 563.145 177.5 563.897 177.5C564.648 177.5 565.291 177.756 565.824 178.268C566.369 178.78 566.641 179.395 566.641 180.114C566.641 180.832 566.369 181.448 565.824 181.96C565.291 182.471 564.648 182.727 563.897 182.727ZM576.708 196.906V212H572.853V186.909H576.577V190.83H576.904C577.492 189.555 578.385 188.532 579.583 187.759C580.781 186.974 582.327 186.582 584.222 186.582C585.921 186.582 587.407 186.931 588.681 187.628C589.956 188.314 590.947 189.359 591.654 190.764C592.362 192.158 592.716 193.922 592.716 196.057V212H588.861V196.318C588.861 194.347 588.349 192.812 587.326 191.712C586.302 190.601 584.897 190.045 583.111 190.045C581.881 190.045 580.781 190.312 579.811 190.846C578.853 191.379 578.096 192.158 577.541 193.182C576.985 194.205 576.708 195.447 576.708 196.906ZM622.173 212.523C620.082 212.523 618.236 211.995 616.635 210.938C615.034 209.871 613.782 208.368 612.878 206.43C611.974 204.48 611.522 202.177 611.522 199.52C611.522 196.884 611.974 194.598 612.878 192.659C613.782 190.721 615.04 189.223 616.651 188.167C618.263 187.111 620.125 186.582 622.238 186.582C623.872 186.582 625.162 186.855 626.11 187.399C627.068 187.933 627.798 188.543 628.298 189.229C628.81 189.904 629.208 190.459 629.491 190.895H629.818V178.545H633.673V212H629.948V208.145H629.491C629.208 208.602 628.805 209.179 628.282 209.876C627.759 210.562 627.013 211.178 626.044 211.722C625.075 212.256 623.785 212.523 622.173 212.523ZM622.695 209.06C624.242 209.06 625.549 208.657 626.616 207.851C627.683 207.034 628.494 205.907 629.05 204.469C629.605 203.021 629.883 201.349 629.883 199.455C629.883 197.581 629.611 195.942 629.066 194.538C628.522 193.122 627.716 192.022 626.649 191.238C625.581 190.443 624.264 190.045 622.695 190.045C621.062 190.045 619.701 190.465 618.612 191.303C617.534 192.131 616.722 193.258 616.178 194.685C615.644 196.1 615.377 197.69 615.377 199.455C615.377 201.241 615.65 202.863 616.194 204.322C616.749 205.771 617.566 206.925 618.644 207.786C619.733 208.635 621.084 209.06 622.695 209.06ZM651.789 212.523C649.371 212.523 647.285 211.989 645.532 210.922C643.79 209.844 642.445 208.341 641.497 206.413C640.561 204.475 640.093 202.221 640.093 199.651C640.093 197.08 640.561 194.815 641.497 192.855C642.445 190.884 643.762 189.348 645.45 188.249C647.149 187.138 649.131 186.582 651.396 186.582C652.703 186.582 653.994 186.8 655.268 187.236C656.542 187.671 657.702 188.379 658.747 189.359C659.793 190.329 660.626 191.614 661.247 193.214C661.867 194.815 662.178 196.786 662.178 199.128V200.761H642.837V197.429H658.257C658.257 196.013 657.974 194.75 657.408 193.639C656.852 192.528 656.057 191.652 655.023 191.009C653.999 190.367 652.79 190.045 651.396 190.045C649.861 190.045 648.532 190.427 647.411 191.189C646.3 191.94 645.445 192.92 644.846 194.129C644.247 195.338 643.948 196.634 643.948 198.017V200.239C643.948 202.134 644.274 203.74 644.928 205.058C645.592 206.364 646.512 207.361 647.688 208.047C648.865 208.722 650.231 209.06 651.789 209.06C652.801 209.06 653.716 208.918 654.533 208.635C655.361 208.341 656.074 207.905 656.673 207.328C657.272 206.74 657.735 206.01 658.061 205.139L661.786 206.185C661.394 207.448 660.735 208.559 659.809 209.517C658.883 210.464 657.74 211.205 656.379 211.739C655.017 212.261 653.487 212.523 651.789 212.523ZM668.042 212V186.909H671.767V190.699H672.028C672.485 189.457 673.313 188.45 674.511 187.677C675.709 186.904 677.059 186.517 678.562 186.517C678.845 186.517 679.199 186.522 679.624 186.533C680.048 186.544 680.37 186.561 680.588 186.582V190.503C680.457 190.47 680.157 190.421 679.689 190.356C679.232 190.28 678.747 190.241 678.235 190.241C677.016 190.241 675.927 190.497 674.968 191.009C674.021 191.51 673.269 192.207 672.714 193.1C672.169 193.982 671.897 194.99 671.897 196.122V212H668.042ZM716.913 186.909C716.717 185.254 715.922 183.969 714.528 183.054C713.134 182.139 711.424 181.682 709.399 181.682C707.918 181.682 706.622 181.921 705.511 182.401C704.411 182.88 703.551 183.539 702.93 184.377C702.32 185.216 702.015 186.169 702.015 187.236C702.015 188.129 702.228 188.897 702.652 189.539C703.088 190.171 703.643 190.699 704.319 191.124C704.994 191.537 705.702 191.88 706.442 192.153C707.183 192.414 707.863 192.626 708.484 192.79L711.882 193.705C712.753 193.933 713.722 194.249 714.789 194.652C715.868 195.055 716.897 195.605 717.877 196.302C718.868 196.988 719.685 197.87 720.327 198.948C720.97 200.026 721.291 201.349 721.291 202.918C721.291 204.725 720.817 206.359 719.87 207.818C718.933 209.277 717.561 210.437 715.753 211.298C713.956 212.158 711.773 212.588 709.203 212.588C706.807 212.588 704.732 212.201 702.979 211.428C701.237 210.655 699.864 209.577 698.863 208.194C697.872 206.811 697.311 205.205 697.18 203.375H701.362C701.471 204.638 701.895 205.684 702.636 206.511C703.387 207.328 704.335 207.938 705.478 208.341C706.633 208.733 707.874 208.929 709.203 208.929C710.749 208.929 712.138 208.679 713.368 208.178C714.599 207.666 715.574 206.958 716.292 206.054C717.011 205.139 717.37 204.072 717.37 202.852C717.37 201.741 717.06 200.838 716.439 200.141C715.819 199.444 715.002 198.877 713.989 198.442C712.976 198.006 711.882 197.625 710.706 197.298L706.589 196.122C703.975 195.371 701.906 194.298 700.382 192.904C698.857 191.51 698.095 189.686 698.095 187.432C698.095 185.559 698.601 183.925 699.614 182.531C700.638 181.126 702.01 180.037 703.73 179.264C705.462 178.48 707.395 178.088 709.529 178.088C711.686 178.088 713.602 178.475 715.279 179.248C716.957 180.01 718.285 181.056 719.265 182.384C720.256 183.713 720.779 185.221 720.833 186.909H716.913ZM738.341 186.909V190.176H725.338V186.909H738.341ZM729.128 180.898H732.983V204.812C732.983 205.902 733.141 206.718 733.456 207.263C733.783 207.796 734.197 208.156 734.698 208.341C735.21 208.515 735.749 208.602 736.315 208.602C736.74 208.602 737.088 208.58 737.361 208.537C737.633 208.482 737.851 208.439 738.014 208.406L738.798 211.869C738.537 211.967 738.172 212.065 737.704 212.163C737.235 212.272 736.642 212.327 735.923 212.327C734.834 212.327 733.767 212.093 732.721 211.624C731.687 211.156 730.827 210.443 730.14 209.484C729.465 208.526 729.128 207.317 729.128 205.858V180.898ZM751.523 212.588C749.933 212.588 748.49 212.289 747.194 211.69C745.898 211.08 744.869 210.203 744.107 209.06C743.345 207.905 742.964 206.511 742.964 204.878C742.964 203.44 743.247 202.275 743.813 201.382C744.379 200.478 745.136 199.77 746.084 199.259C747.031 198.747 748.077 198.366 749.22 198.115C750.374 197.854 751.534 197.647 752.699 197.494C754.224 197.298 755.46 197.151 756.407 197.053C757.366 196.944 758.063 196.765 758.498 196.514C758.945 196.264 759.168 195.828 759.168 195.207V195.077C759.168 193.465 758.727 192.213 757.845 191.32C756.974 190.427 755.651 189.98 753.876 189.98C752.035 189.98 750.592 190.383 749.547 191.189C748.501 191.995 747.766 192.855 747.341 193.77L743.682 192.463C744.336 190.938 745.207 189.751 746.296 188.902C747.396 188.042 748.594 187.443 749.89 187.105C751.197 186.757 752.482 186.582 753.745 186.582C754.551 186.582 755.476 186.68 756.522 186.876C757.578 187.062 758.596 187.448 759.577 188.036C760.568 188.624 761.39 189.512 762.043 190.699C762.697 191.886 763.023 193.476 763.023 195.469V212H759.168V208.602H758.972C758.711 209.147 758.275 209.729 757.665 210.35C757.055 210.971 756.244 211.499 755.231 211.935C754.219 212.37 752.983 212.588 751.523 212.588ZM752.111 209.125C753.636 209.125 754.921 208.826 755.966 208.227C757.023 207.628 757.818 206.854 758.351 205.907C758.896 204.96 759.168 203.963 759.168 202.918V199.389C759.005 199.585 758.645 199.765 758.09 199.928C757.546 200.081 756.914 200.217 756.195 200.337C755.487 200.446 754.796 200.544 754.121 200.631C753.456 200.707 752.917 200.772 752.503 200.827C751.501 200.957 750.565 201.17 749.694 201.464C748.833 201.747 748.136 202.177 747.603 202.754C747.08 203.321 746.819 204.094 746.819 205.074C746.819 206.413 747.314 207.426 748.305 208.112C749.307 208.787 750.576 209.125 752.111 209.125ZM779.534 212.523C777.443 212.523 775.597 211.995 773.996 210.938C772.396 209.871 771.143 208.368 770.239 206.43C769.335 204.48 768.884 202.177 768.884 199.52C768.884 196.884 769.335 194.598 770.239 192.659C771.143 190.721 772.401 189.223 774.013 188.167C775.625 187.111 777.487 186.582 779.599 186.582C781.233 186.582 782.523 186.855 783.471 187.399C784.429 187.933 785.159 188.543 785.66 189.229C786.172 189.904 786.569 190.459 786.852 190.895H787.179V178.545H791.034V212H787.31V208.145H786.852C786.569 208.602 786.166 209.179 785.643 209.876C785.121 210.562 784.375 211.178 783.406 211.722C782.436 212.256 781.146 212.523 779.534 212.523ZM780.057 209.06C781.603 209.06 782.91 208.657 783.977 207.851C785.045 207.034 785.856 205.907 786.411 204.469C786.967 203.021 787.244 201.349 787.244 199.455C787.244 197.581 786.972 195.942 786.428 194.538C785.883 193.122 785.077 192.022 784.01 191.238C782.943 190.443 781.625 190.045 780.057 190.045C778.423 190.045 777.062 190.465 775.973 191.303C774.895 192.131 774.084 193.258 773.539 194.685C773.005 196.1 772.739 197.69 772.739 199.455C772.739 201.241 773.011 202.863 773.555 204.322C774.111 205.771 774.928 206.925 776.006 207.786C777.095 208.635 778.445 209.06 780.057 209.06ZM809.542 186.909V190.176H796.539V186.909H809.542ZM800.329 180.898H804.184V204.812C804.184 205.902 804.342 206.718 804.658 207.263C804.984 207.796 805.398 208.156 805.899 208.341C806.411 208.515 806.95 208.602 807.516 208.602C807.941 208.602 808.29 208.58 808.562 208.537C808.834 208.482 809.052 208.439 809.215 208.406L809.999 211.869C809.738 211.967 809.373 212.065 808.905 212.163C808.437 212.272 807.843 212.327 807.124 212.327C806.035 212.327 804.968 212.093 803.923 211.624C802.888 211.156 802.028 210.443 801.342 209.484C800.666 208.526 800.329 207.317 800.329 205.858V180.898ZM110.051 268V234.545H130.241V238.139H114.102V249.443H129.196V253.037H114.102V264.406H130.503V268H110.051ZM151.396 249.476V253.07H136.759V249.476H151.396ZM185.622 245H181.571C181.331 243.835 180.912 242.811 180.313 241.929C179.725 241.047 179.006 240.306 178.157 239.707C177.318 239.098 176.387 238.64 175.363 238.335C174.34 238.03 173.273 237.878 172.162 237.878C170.136 237.878 168.301 238.39 166.657 239.413C165.023 240.437 163.722 241.945 162.753 243.938C161.794 245.931 161.315 248.376 161.315 251.273C161.315 254.17 161.794 256.614 162.753 258.607C163.722 260.6 165.023 262.108 166.657 263.132C168.301 264.156 170.136 264.668 172.162 264.668C173.273 264.668 174.34 264.515 175.363 264.21C176.387 263.905 177.318 263.453 178.157 262.854C179.006 262.245 179.725 261.499 180.313 260.616C180.912 259.723 181.331 258.7 181.571 257.545H185.622C185.317 259.255 184.762 260.785 183.956 262.136C183.15 263.486 182.148 264.635 180.95 265.582C179.752 266.519 178.407 267.232 176.915 267.722C175.434 268.212 173.85 268.457 172.162 268.457C169.309 268.457 166.771 267.76 164.55 266.366C162.328 264.973 160.58 262.991 159.306 260.42C158.032 257.85 157.395 254.801 157.395 251.273C157.395 247.744 158.032 244.695 159.306 242.125C160.58 239.555 162.328 237.573 164.55 236.179C166.771 234.785 169.309 234.088 172.162 234.088C173.85 234.088 175.434 234.333 176.915 234.823C178.407 235.313 179.752 236.032 180.95 236.979C182.148 237.916 183.15 239.059 183.956 240.41C184.762 241.749 185.317 243.279 185.622 245ZM191.646 268V242.909H195.501V268H191.646ZM193.606 238.727C192.854 238.727 192.206 238.471 191.662 237.96C191.128 237.448 190.862 236.832 190.862 236.114C190.862 235.395 191.128 234.78 191.662 234.268C192.206 233.756 192.854 233.5 193.606 233.5C194.357 233.5 195 233.756 195.533 234.268C196.078 234.78 196.35 235.395 196.35 236.114C196.35 236.832 196.078 237.448 195.533 237.96C195 238.471 194.357 238.727 193.606 238.727ZM213.474 242.909V246.176H200.471V242.909H213.474ZM204.26 236.898H208.116V260.812C208.116 261.902 208.273 262.718 208.589 263.263C208.916 263.796 209.33 264.156 209.831 264.341C210.343 264.515 210.882 264.602 211.448 264.602C211.873 264.602 212.221 264.58 212.493 264.537C212.766 264.482 212.983 264.439 213.147 264.406L213.931 267.869C213.67 267.967 213.305 268.065 212.836 268.163C212.368 268.272 211.775 268.327 211.056 268.327C209.967 268.327 208.9 268.093 207.854 267.624C206.82 267.156 205.959 266.443 205.273 265.484C204.598 264.526 204.26 263.317 204.26 261.858V236.898ZM221.756 277.409C221.102 277.409 220.519 277.355 220.008 277.246C219.496 277.148 219.142 277.05 218.946 276.952L219.926 273.554C220.863 273.794 221.69 273.881 222.409 273.815C223.128 273.75 223.765 273.429 224.32 272.852C224.886 272.285 225.404 271.365 225.872 270.091L226.591 268.131L217.312 242.909H221.494L228.42 262.903H228.682L235.608 242.909H239.79L229.139 271.659C228.66 272.955 228.066 274.028 227.358 274.877C226.651 275.737 225.828 276.375 224.892 276.788C223.966 277.202 222.921 277.409 221.756 277.409ZM246.115 268.261C245.31 268.261 244.618 267.973 244.041 267.396C243.464 266.818 243.175 266.127 243.175 265.321C243.175 264.515 243.464 263.824 244.041 263.246C244.618 262.669 245.31 262.381 246.115 262.381C246.921 262.381 247.613 262.669 248.19 263.246C248.767 263.824 249.056 264.515 249.056 265.321C249.056 265.855 248.92 266.345 248.647 266.791C248.386 267.238 248.032 267.597 247.586 267.869C247.15 268.131 246.66 268.261 246.115 268.261Z" fill="black"/>
<path d="M866.887 745.425C862.855 746.265 858.031 748.113 857.557 752.483C857.003 757.357 862.618 760.214 867.125 761.223C884.127 765.172 901.683 765.676 919.159 766.181C1011.52 768.533 1103.89 768.954 1196.25 767.357C1194.91 755.341 1181.46 750.13 1170.31 747.861C1122.39 738.114 1072.81 743.66 1025.76 733.324C976.174 722.316 915.837 734.753 866.887 745.425Z" fill="url(#paint0_linear_805_2622)"/>
<path d="M866.887 745.425C862.855 746.265 858.031 748.113 857.557 752.483C857.003 757.357 862.618 760.214 867.125 761.223C884.127 765.172 901.683 765.676 919.159 766.181C1011.52 768.533 1103.89 768.954 1196.25 767.357C1194.91 755.341 1181.46 750.13 1170.31 747.861C1122.39 738.114 1072.81 743.66 1025.76 733.324C976.174 722.316 915.837 734.753 866.887 745.425Z" fill="url(#paint1_linear_805_2622)"/>
<path d="M1118.43 666.264C1119.46 665.928 1120.56 666.264 1121.59 666.601C1126.1 668.197 1130.53 670.298 1134.48 673.071C1136.46 674.416 1138.44 675.928 1139.38 678.197C1140.25 680.298 1140.18 682.651 1140.02 684.836C1138.59 711.894 1137.25 739.036 1135.83 766.095C1135.75 767.859 1135.51 769.793 1134.24 770.885C1132.66 772.145 1130.45 771.305 1128.71 770.465C1111.71 762.565 1094.78 754.582 1077.78 746.683C1069.64 742.902 1061.26 738.868 1055.25 731.893C1059.83 721.137 1069.48 713.995 1078.34 706.768C1092.1 695.507 1104.75 682.567 1115.9 668.449C1116.53 667.609 1117.32 666.6 1118.43 666.264Z" fill="#DDC199"/>
<path d="M1198.54 526.855C1194.35 525.847 1190.07 524.838 1185.88 523.83C1161.21 571.98 1139.39 621.812 1120.56 672.904C1124.91 675.845 1130.69 678.87 1134.88 675.677C1136.62 674.332 1137.65 672.147 1138.59 670.047C1159.95 622.988 1179.95 575.258 1198.54 526.855Z" fill="#BDB39B"/>
<g opacity="0.26">
<path opacity="0.26" d="M1120.79 761.137C1120.71 762.062 1122.05 762.398 1122.21 761.474C1125.61 734.163 1130.44 707.357 1136.68 680.634C1137.08 678.954 1134.63 678.449 1134.23 680.13C1127.75 706.6 1123.24 733.827 1120.79 761.137Z" fill="#272525"/>
<path opacity="0.26" d="M1094 749.121C1104.43 725.76 1115.5 702.735 1127.21 680.046C1127.92 678.701 1125.86 677.609 1125.15 678.954C1112.97 701.811 1101.98 725.34 1091.94 749.289C1092.1 749.457 1092.18 749.625 1092.26 749.793C1092.81 749.373 1093.36 749.205 1094 749.121Z" fill="#272525"/>
<path opacity="0.26" d="M1076.98 733.743C1094.46 716.264 1110.04 696.853 1123.64 675.844C1124.51 674.416 1122.29 673.239 1121.42 674.668C1108.06 695.592 1092.72 714.92 1075.56 732.398C1074.69 733.322 1076.11 734.667 1076.98 733.743Z" fill="#272525"/>
</g>
<path d="M955.765 690.213C955.845 688.953 956.003 687.608 956.081 686.347C945.643 678.784 927.297 681.221 916.226 685.087C904.364 689.204 904.364 696.935 904.522 710.044C904.601 717.439 905.234 725.759 910.611 730.548C914.723 734.246 920.496 734.75 925.874 735.086C930.697 735.422 935.442 735.674 940.266 736.01C943.587 736.178 947.303 736.263 949.913 733.993C952.523 731.641 952.918 727.691 953.235 724.077C954.104 712.733 954.974 701.473 955.765 690.213Z" fill="#2F3F47"/>
<path d="M968.506 690.213C968.427 688.953 968.269 687.608 968.189 686.347C978.628 678.784 996.974 681.221 1008.05 685.087C1019.91 689.204 1019.91 696.935 1019.75 710.044C1019.67 717.439 1019.04 725.759 1013.66 730.548C1009.55 734.246 1003.77 734.75 998.397 735.086C993.574 735.422 988.829 735.674 984.005 736.01C980.684 736.178 976.967 736.263 974.358 733.993C971.748 731.641 971.353 727.691 971.037 724.077C970.246 712.733 969.376 701.473 968.506 690.213Z" fill="#2F3F47"/>
<path d="M879.448 662.148C876.838 662.735 874.308 663.576 871.856 664.668C870.037 665.424 868.219 666.433 866.953 667.945C865.214 670.13 864.739 673.156 864.423 676.097C864.028 679.963 863.869 683.828 863.949 687.693C863.949 690.97 864.186 694.332 865.768 697.105C867.982 700.971 872.331 702.735 876.443 703.827C884.272 705.929 892.417 706.432 900.483 706.853C949.274 709.374 998.224 707.692 1046.78 701.895C1048.75 701.643 1050.97 701.307 1052.31 699.71C1053.1 698.786 1053.5 697.525 1053.89 696.348C1056.43 687.777 1058.09 676.097 1052.63 668.114C1047.96 661.307 1039.34 665.172 1032.86 665.088C1026.22 665.004 1019.5 664.416 1012.85 664.164C999.884 663.576 986.916 662.987 973.947 662.567C955.68 661.895 937.334 661.307 919.066 660.803C906.73 660.551 892.18 659.122 879.448 662.148Z" fill="#516770"/>
<path d="M984.308 477.695C1017.44 477.863 1050.5 478.62 1083.63 479.376C1082.84 460.637 1081.57 441.897 1077.78 423.578C1071.22 391.478 1056.19 360.134 1030.81 341.395C991.9 312.656 930.14 316.437 888.228 344.84C870.593 356.772 856.439 373.159 849.005 393.242C840.465 416.183 838.171 441.225 836.827 465.847C836.668 469.124 836.511 472.317 836.353 475.594C885.539 473.577 935.042 477.527 984.308 477.695Z" fill="#EAF1F2"/>
<path d="M981.657 487.108C933.103 487.024 884.39 483.327 835.836 485.175C833.464 541.141 835.678 597.359 842.479 652.989C843.428 660.636 844.614 668.618 849.359 674.668C856.713 683.996 869.445 679.878 879.33 679.878C896.015 679.878 913.175 680.635 930.019 681.055C961.809 681.811 993.361 681.895 1024.99 678.114C1040.02 676.35 1070.38 681.223 1077.58 666.853C1083.51 655.173 1081.06 631.476 1081.93 618.451C1082.96 602.989 1083.75 587.611 1084.22 572.149C1085.09 544.334 1084.93 516.519 1083.91 488.62C1049.9 487.948 1015.74 487.108 981.657 487.108Z" fill="#E2ECED"/>
<path d="M1096.33 577.696C1096.96 577.107 1097.04 576.099 1097.12 575.259C1098.78 551.982 1100.2 528.704 1101.23 505.427C1101.31 503.41 1101.31 501.058 1099.81 499.713C1098.7 498.789 1097.28 498.705 1095.85 498.705C1090.95 498.621 1086.13 498.537 1081.22 498.537C1078.14 525.007 1076.88 551.645 1077.51 578.284C1082.96 578.284 1088.34 578.368 1093.8 578.368C1094.67 578.368 1095.62 578.368 1096.33 577.696Z" fill="#2F3F47"/>
<path d="M1121.54 631.31C1122.17 629.378 1122.88 627.361 1124.3 625.932C1125.41 624.84 1126.91 624.167 1128.34 623.663C1134.5 621.31 1140.83 619.546 1147.24 618.369C1152.22 621.983 1156.73 626.269 1160.6 631.226C1161.31 632.151 1162.02 633.159 1162.18 634.336C1162.34 635.26 1162.1 636.184 1161.87 637.109C1159.33 647.445 1156.88 657.781 1154.35 668.117C1150.64 668.621 1146.92 668.705 1143.28 668.201C1144.71 661.898 1146.13 655.596 1147.47 649.377C1148.82 643.411 1149.85 636.1 1145.58 631.899C1141.23 633.075 1136.96 634.336 1132.61 635.512C1131.89 635.68 1131.1 635.932 1130.47 636.436C1129.76 637.109 1129.44 638.117 1129.13 639.041C1127.31 644.924 1125.96 650.974 1125.01 657.109C1122.25 656.268 1119.48 655.511 1116.71 654.671C1116.47 646.688 1119 638.874 1121.54 631.31Z" fill="#2F3F47"/>
<path d="M1155.14 622.233C1155.38 621.981 1155.46 621.646 1155.54 621.393C1156.33 617.612 1157.12 613.83 1157.99 610.133C1152.45 608.788 1146.76 607.863 1141.15 607.359C1140.28 610.469 1139.72 613.746 1139.49 617.023C1139.41 617.696 1139.41 618.536 1139.88 619.04C1140.2 619.376 1140.59 619.46 1140.99 619.629C1145.18 620.973 1149.53 621.981 1153.96 622.569C1154.27 622.485 1154.75 622.57 1155.14 622.233Z" fill="#516770"/>
<path d="M1160.69 607.529C1164.01 601.562 1161.32 585.848 1161.32 579.546C1161.24 570.89 1161.24 562.151 1159.34 553.748C1157.44 545.344 1153.57 537.109 1147.16 531.815C1143.53 528.79 1139.26 526.858 1134.83 525.261C1121.62 520.471 1107.47 518.875 1093.63 520.639C1092.52 520.807 1091.34 520.975 1090.54 521.816C1089.67 522.656 1089.52 524 1089.36 525.261C1088.73 530.051 1087.86 535.345 1088.09 540.218C1088.49 548.79 1086.83 546.437 1092.68 548.874C1097.19 550.723 1105.65 549.21 1110.79 550.471C1116.8 551.899 1122.65 554.084 1128.5 556.269C1132.22 557.613 1136.17 559.294 1138.07 562.907C1139.1 564.84 1139.41 567.193 1139.65 569.462C1141.08 582.908 1141.71 596.436 1141.63 609.966C1141.63 612.318 1157.92 611.142 1160.05 608.537C1160.29 608.201 1160.45 607.865 1160.69 607.529Z" fill="#E2ECED"/>
<g opacity="0.15">
<path opacity="0.15" d="M1133 529.129C1132.53 537.196 1130.55 544.507 1127.55 551.902C1126.99 553.33 1128.65 554.423 1129.52 553.162C1134.27 546.104 1136.72 537.7 1137.59 529.129C1137.91 526.104 1133.24 526.019 1133 529.129Z" fill="#272525"/>
<path opacity="0.15" d="M1145.11 534.927C1143.76 542.743 1140.44 547.869 1135.22 553.415C1134.51 554.171 1135.46 555.431 1136.25 554.843C1139.81 552.49 1143.13 550.978 1145.66 547.197C1148.03 543.667 1149.61 539.885 1150.09 535.6C1150.4 532.659 1145.66 531.986 1145.11 534.927Z" fill="#272525"/>
</g>
<path d="M828.075 499.209C827.442 499.797 827.364 500.806 827.284 501.646C825.624 524.923 824.2 548.2 823.172 571.477C823.093 573.494 823.093 575.847 824.596 577.191C825.703 578.116 827.126 578.2 828.549 578.2C833.452 578.284 838.276 578.368 843.179 578.368C846.263 551.898 847.528 525.259 846.896 498.621C841.439 498.621 836.062 498.537 830.606 498.537C829.736 498.537 828.708 498.537 828.075 499.209Z" fill="#2F3F47"/>
<path d="M766.78 470.555C767.017 472.572 767.254 474.756 766.542 476.605C765.989 478.117 764.961 479.378 763.854 480.555C759.346 485.512 754.444 490.135 749.145 494.252C743.135 493.412 737.284 491.647 731.827 489.042C730.799 488.538 729.692 488.034 729.059 487.025C728.585 486.269 728.348 485.344 728.189 484.42C726.133 474 723.998 463.496 721.942 453.076C725.026 450.891 728.348 449.042 731.827 447.697C733.172 454 734.595 460.302 735.939 466.605C737.283 472.571 739.418 479.63 744.954 481.311C748.354 478.202 751.676 475.092 755.076 471.983C755.63 471.479 756.262 470.891 756.579 470.135C756.974 469.21 756.816 468.117 756.657 467.109C755.788 460.975 754.522 454.924 752.783 448.958C755.63 448.37 758.397 447.782 761.244 447.193C764.882 454.336 765.831 462.571 766.78 470.555Z" fill="#2F3F47"/>
<path d="M740.509 494.502C740.43 494.838 740.509 495.175 740.509 495.427C741.379 499.208 742.249 502.906 743.039 506.687C748.575 505.258 754.031 503.41 759.329 501.225C758.855 498.031 757.985 494.838 756.799 491.813C756.562 491.141 756.246 490.468 755.613 490.216C755.218 490.048 754.822 490.132 754.347 490.216C749.998 490.973 745.728 492.149 741.537 493.662C741.141 493.83 740.667 494.082 740.509 494.502Z" fill="#516770"/>
<path d="M741.714 510.303C741.16 517.193 750.175 529.966 752.864 535.68C756.501 543.412 760.218 551.227 765.437 557.865C770.657 564.504 777.536 570.05 785.523 571.73C790.031 572.739 794.696 572.487 799.283 571.815C813.122 569.882 826.486 564.672 838.11 556.521C839.059 555.848 840.008 555.176 840.404 554C840.799 552.823 840.404 551.563 840.087 550.302C838.585 545.681 837.24 540.555 834.947 536.269C830.993 528.79 833.524 530.134 827.197 530.638C822.374 531.059 815.415 536.437 810.275 537.782C804.265 539.378 798.097 540.134 792.008 540.975C788.133 541.479 783.863 541.899 780.62 539.546C778.88 538.286 777.615 536.353 776.508 534.42C769.628 523.075 763.381 511.227 757.767 499.043C756.818 496.942 742.742 505.681 741.872 509.042C741.793 509.546 741.714 509.883 741.714 510.303Z" fill="#E2ECED"/>
<g opacity="0.15">
<path opacity="0.15" d="M799.187 567.442C796.261 559.963 794.996 552.484 794.521 544.417C794.442 542.821 792.465 542.653 792.228 544.25C790.962 552.821 792.228 561.476 795.075 569.543C796.103 572.484 800.373 570.299 799.187 567.442Z" fill="#272525"/>
<path opacity="0.15" d="M785.995 568.032C783.939 560.385 784.73 554.251 787.102 546.772C787.419 545.764 786.074 545.091 785.521 545.931C783.386 549.713 781.013 552.654 780.302 557.192C779.669 561.477 779.827 565.595 781.251 569.628C782.2 572.569 786.707 570.889 785.995 568.032Z" fill="#272525"/>
</g>
<path d="M858.436 422.739C858.514 425.932 858.672 429.209 859.938 432.151C863.18 439.461 871.72 441.814 879.233 443.159C922.172 450.805 966.061 453.411 1009.24 447.612C1014.93 446.856 1020.63 445.932 1025.84 443.411C1031.06 440.89 1035.73 436.604 1037.63 430.974C1038.81 427.36 1038.89 423.495 1038.97 419.63C1039.05 415.764 1039.05 411.815 1039.13 407.949C1039.13 406.185 1039.13 404.42 1038.5 402.739C1037.78 400.974 1036.36 399.546 1034.86 398.453C1029.17 394.336 1021.97 393.411 1015.09 392.655C969.383 387.781 923.122 383.496 877.652 390.05C875.754 390.302 873.776 390.638 872.432 392.067C871.72 392.739 871.246 393.664 870.534 394.336C869.19 395.428 867.371 395.344 865.79 395.932C861.361 397.445 859.78 403.244 859.226 408.202C858.594 412.991 858.356 417.865 858.436 422.739Z" fill="#2F3F47"/>
<path opacity="0.2" d="M915.679 429.797C917.182 426.856 917.419 423.411 917.103 420.05C916.945 418.033 916.47 415.933 915.284 414.42C912.753 411.227 908.088 411.563 904.213 410.807C900.813 412.319 897.965 415.26 896.542 418.874C895.672 421.058 895.277 423.411 895.514 425.764C896.068 430.554 899.785 434.672 904.213 435.512C908.72 436.521 913.544 434.083 915.679 429.797Z" fill="#EAF1F2"/>
<path opacity="0.2" d="M990.983 429.797C992.485 426.856 992.723 423.411 992.406 420.05C992.248 418.033 991.774 415.933 990.587 414.42C988.057 411.227 983.392 411.563 979.517 410.807C976.116 412.319 973.269 415.26 971.846 418.874C970.976 421.058 970.581 423.411 970.818 425.764C971.371 430.554 975.088 434.672 979.517 435.512C983.945 436.521 988.768 434.083 990.983 429.797Z" fill="#EAF1F2"/>
<defs>
<linearGradient id="paint0_linear_805_2622" x1="857.571" y1="748.659" x2="1196.34" y2="748.659" gradientUnits="userSpaceOnUse">
<stop stop-color="#4D4D4D"/>
<stop offset="1"/>
</linearGradient>
<linearGradient id="paint1_linear_805_2622" x1="857.571" y1="748.659" x2="1196.34" y2="748.659" gradientUnits="userSpaceOnUse">
<stop/>
<stop offset="1"/>
</linearGradient>
</defs>
</svg>
