<svg width="1199" height="772" viewBox="0 0 1199 772" fill="none" xmlns="http://www.w3.org/2000/svg">
<path d="M697.596 387C697.845 387 698.094 386.994 698.346 386.983C701.281 386.864 704.147 385.952 706.7 384.325C709.254 382.698 711.418 380.404 713.01 377.638C724.934 357.669 739.566 339.908 756.379 324.997C766.558 315.881 777.194 307.405 787.478 299.207C814.013 278.066 839.001 258.155 852.872 230.643C883.116 170.652 847.5 87.0923 796.619 49.6186C739.549 7.58992 664.483 0.997367 591.865 0.133407C584.318 0.0439794 576.767 -0.000465902 569.211 3.68211e-06C438.368 0.05622 307.801 13.4339 179.119 39.968C136.33 48.814 91.5399 59.6506 55.547 85.9492C19.7678 112.092 -1.97922 153.261 0.142339 190.835C3.23996 245.687 55.1323 286.673 102.385 297.389C147.424 307.594 194.212 300.697 243.746 293.393C254.682 291.782 265.988 290.115 277.169 288.666C398.685 272.928 626.961 321.438 636.618 323.511L646.2 325.566L683.376 379.173C685.048 381.617 687.202 383.595 689.668 384.952C692.135 386.31 694.848 387.011 697.596 387Z" fill="white"/>
<path d="M99.375 137H89.0511V103.545H99.8324C103.078 103.545 105.855 104.215 108.163 105.555C110.472 106.883 112.242 108.795 113.472 111.288C114.703 113.771 115.318 116.744 115.318 120.207C115.318 123.692 114.697 126.692 113.456 129.208C112.214 131.713 110.407 133.64 108.033 134.991C105.659 136.33 102.773 137 99.375 137ZM93.1023 133.406H99.1136C101.88 133.406 104.172 132.873 105.991 131.805C107.809 130.738 109.165 129.219 110.058 127.248C110.951 125.277 111.398 122.93 111.398 120.207C111.398 117.507 110.957 115.182 110.075 113.232C109.192 111.272 107.875 109.769 106.121 108.724C104.368 107.667 102.185 107.139 99.571 107.139H93.1023V133.406ZM128.974 137.588C127.384 137.588 125.942 137.289 124.646 136.69C123.35 136.08 122.321 135.203 121.558 134.06C120.796 132.905 120.415 131.511 120.415 129.878C120.415 128.44 120.698 127.275 121.264 126.382C121.83 125.478 122.587 124.77 123.535 124.259C124.482 123.747 125.528 123.366 126.671 123.115C127.826 122.854 128.985 122.647 130.151 122.494C131.675 122.298 132.911 122.151 133.859 122.053C134.817 121.944 135.514 121.765 135.95 121.514C136.396 121.264 136.619 120.828 136.619 120.207V120.077C136.619 118.465 136.178 117.213 135.296 116.32C134.425 115.427 133.102 114.98 131.327 114.98C129.486 114.98 128.043 115.383 126.998 116.189C125.952 116.995 125.217 117.855 124.793 118.77L121.134 117.463C121.787 115.938 122.658 114.751 123.747 113.902C124.847 113.042 126.045 112.443 127.341 112.105C128.648 111.757 129.933 111.582 131.196 111.582C132.002 111.582 132.928 111.68 133.973 111.876C135.029 112.062 136.048 112.448 137.028 113.036C138.019 113.624 138.841 114.512 139.494 115.699C140.148 116.886 140.474 118.476 140.474 120.469V137H136.619V133.602H136.423C136.162 134.147 135.726 134.729 135.116 135.35C134.507 135.971 133.695 136.499 132.683 136.935C131.67 137.37 130.434 137.588 128.974 137.588ZM129.562 134.125C131.087 134.125 132.372 133.826 133.418 133.227C134.474 132.628 135.269 131.854 135.803 130.907C136.347 129.96 136.619 128.963 136.619 127.918V124.389C136.456 124.585 136.097 124.765 135.541 124.928C134.997 125.081 134.365 125.217 133.646 125.337C132.938 125.446 132.247 125.544 131.572 125.631C130.907 125.707 130.368 125.772 129.955 125.827C128.953 125.957 128.016 126.17 127.145 126.464C126.285 126.747 125.588 127.177 125.054 127.754C124.531 128.321 124.27 129.094 124.27 130.074C124.27 131.413 124.765 132.426 125.756 133.112C126.758 133.787 128.027 134.125 129.562 134.125ZM165.284 117.528L161.82 118.509C161.603 117.931 161.281 117.371 160.857 116.826C160.443 116.271 159.877 115.813 159.158 115.454C158.439 115.094 157.519 114.915 156.397 114.915C154.862 114.915 153.582 115.269 152.558 115.977C151.546 116.674 151.039 117.561 151.039 118.639C151.039 119.598 151.388 120.354 152.085 120.91C152.782 121.465 153.871 121.928 155.352 122.298L159.076 123.213C161.32 123.758 162.991 124.591 164.091 125.712C165.191 126.823 165.741 128.255 165.741 130.009C165.741 131.446 165.327 132.731 164.499 133.864C163.683 134.996 162.539 135.889 161.069 136.543C159.599 137.196 157.889 137.523 155.94 137.523C153.381 137.523 151.262 136.967 149.585 135.857C147.908 134.746 146.847 133.123 146.4 130.989L150.059 130.074C150.408 131.424 151.066 132.437 152.036 133.112C153.016 133.787 154.295 134.125 155.874 134.125C157.671 134.125 159.098 133.744 160.154 132.982C161.222 132.208 161.755 131.283 161.755 130.205C161.755 129.333 161.45 128.604 160.84 128.016C160.231 127.417 159.294 126.97 158.031 126.676L153.849 125.696C151.551 125.152 149.863 124.308 148.785 123.164C147.718 122.01 147.184 120.567 147.184 118.835C147.184 117.42 147.582 116.167 148.377 115.078C149.182 113.989 150.277 113.134 151.66 112.513C153.054 111.893 154.633 111.582 156.397 111.582C158.88 111.582 160.829 112.127 162.245 113.216C163.672 114.305 164.685 115.742 165.284 117.528ZM191.081 137L181.933 103.545H186.05L193.041 130.793H193.368L200.49 103.545H205.064L212.186 130.793H212.513L219.504 103.545H223.621L214.473 137H210.291L202.908 110.341H202.646L195.263 137H191.081ZM236.33 137.523C233.912 137.523 231.826 136.989 230.073 135.922C228.331 134.844 226.986 133.341 226.038 131.413C225.102 129.475 224.634 127.221 224.634 124.651C224.634 122.08 225.102 119.815 226.038 117.855C226.986 115.884 228.304 114.348 229.991 113.249C231.69 112.138 233.672 111.582 235.938 111.582C237.244 111.582 238.535 111.8 239.809 112.236C241.083 112.671 242.243 113.379 243.288 114.359C244.334 115.329 245.167 116.614 245.788 118.214C246.408 119.815 246.719 121.786 246.719 124.128V125.761H227.378V122.429H242.798C242.798 121.013 242.515 119.75 241.949 118.639C241.393 117.528 240.598 116.652 239.564 116.009C238.54 115.367 237.331 115.045 235.938 115.045C234.402 115.045 233.073 115.427 231.952 116.189C230.841 116.94 229.986 117.92 229.387 119.129C228.788 120.338 228.489 121.634 228.489 123.017V125.239C228.489 127.134 228.815 128.74 229.469 130.058C230.133 131.364 231.053 132.361 232.229 133.047C233.406 133.722 234.772 134.06 236.33 134.06C237.342 134.06 238.257 133.918 239.074 133.635C239.902 133.341 240.615 132.905 241.214 132.328C241.813 131.74 242.276 131.01 242.602 130.139L246.327 131.185C245.935 132.448 245.276 133.559 244.35 134.517C243.424 135.464 242.281 136.205 240.92 136.739C239.558 137.261 238.028 137.523 236.33 137.523ZM252.583 137V111.909H256.308V115.699H256.569C257.026 114.457 257.854 113.45 259.052 112.677C260.25 111.904 261.6 111.517 263.103 111.517C263.386 111.517 263.74 111.522 264.165 111.533C264.589 111.544 264.911 111.561 265.129 111.582V115.503C264.998 115.47 264.698 115.421 264.23 115.356C263.773 115.28 263.288 115.241 262.776 115.241C261.557 115.241 260.468 115.497 259.509 116.009C258.562 116.51 257.81 117.207 257.255 118.1C256.71 118.982 256.438 119.99 256.438 121.122V137H252.583ZM273.292 127.852L273.227 123.082H274.011L284.988 111.909H289.758L278.062 123.736H277.735L273.292 127.852ZM269.698 137V103.545H273.553V137H269.698ZM285.642 137L275.84 124.585L278.585 121.906L290.542 137H285.642ZM308.18 137V103.545H328.37V107.139H312.231V118.443H327.325V122.037H312.231V133.406H328.632V137H308.18ZM349.525 118.476V122.07H334.888V118.476H349.525ZM360.571 137L351.423 103.545H355.54L362.531 130.793H362.858L369.98 103.545H374.554L381.676 130.793H382.003L388.994 103.545H393.111L383.963 137H379.781L372.398 110.341H372.137L364.753 137H360.571ZM405.82 137.523C403.402 137.523 401.317 136.989 399.563 135.922C397.821 134.844 396.476 133.341 395.529 131.413C394.592 129.475 394.124 127.221 394.124 124.651C394.124 122.08 394.592 119.815 395.529 117.855C396.476 115.884 397.794 114.348 399.482 113.249C401.181 112.138 403.163 111.582 405.428 111.582C406.735 111.582 408.025 111.8 409.299 112.236C410.573 112.671 411.733 113.379 412.779 114.359C413.824 115.329 414.657 116.614 415.278 118.214C415.899 119.815 416.209 121.786 416.209 124.128V125.761H396.868V122.429H412.289C412.289 121.013 412.005 119.75 411.439 118.639C410.884 117.528 410.089 116.652 409.054 116.009C408.03 115.367 406.822 115.045 405.428 115.045C403.892 115.045 402.564 115.427 401.442 116.189C400.331 116.94 399.476 117.92 398.877 119.129C398.278 120.338 397.979 121.634 397.979 123.017V125.239C397.979 127.134 398.306 128.74 398.959 130.058C399.623 131.364 400.544 132.361 401.72 133.047C402.896 133.722 404.262 134.06 405.82 134.06C406.833 134.06 407.747 133.918 408.564 133.635C409.392 133.341 410.105 132.905 410.704 132.328C411.303 131.74 411.766 131.01 412.093 130.139L415.817 131.185C415.425 132.448 414.766 133.559 413.84 134.517C412.915 135.464 411.771 136.205 410.41 136.739C409.049 137.261 407.519 137.523 405.82 137.523ZM422.073 137V111.909H425.798V115.699H426.059C426.517 114.457 427.344 113.45 428.542 112.677C429.74 111.904 431.09 111.517 432.593 111.517C432.876 111.517 433.23 111.522 433.655 111.533C434.08 111.544 434.401 111.561 434.619 111.582V115.503C434.488 115.47 434.189 115.421 433.72 115.356C433.263 115.28 432.778 115.241 432.267 115.241C431.047 115.241 429.958 115.497 428.999 116.009C428.052 116.51 427.301 117.207 426.745 118.1C426.201 118.982 425.928 119.99 425.928 121.122V137H422.073ZM442.782 127.852L442.717 123.082H443.501L454.478 111.909H459.248L447.552 123.736H447.225L442.782 127.852ZM439.189 137V103.545H443.044V137H439.189ZM455.132 137L445.331 124.585L448.075 121.906L460.032 137H455.132ZM477.148 146.409V111.909H480.872V115.895H481.329C481.613 115.459 482.005 114.904 482.506 114.229C483.017 113.543 483.747 112.933 484.694 112.399C485.653 111.855 486.949 111.582 488.582 111.582C490.695 111.582 492.557 112.111 494.169 113.167C495.781 114.223 497.038 115.721 497.942 117.659C498.846 119.598 499.298 121.884 499.298 124.52C499.298 127.177 498.846 129.48 497.942 131.43C497.038 133.368 495.786 134.871 494.185 135.938C492.584 136.995 490.738 137.523 488.648 137.523C487.036 137.523 485.745 137.256 484.776 136.722C483.807 136.178 483.061 135.562 482.538 134.876C482.015 134.179 481.613 133.602 481.329 133.145H481.003V146.409H477.148ZM480.937 124.455C480.937 126.349 481.215 128.021 481.77 129.469C482.326 130.907 483.137 132.034 484.204 132.851C485.272 133.657 486.578 134.06 488.125 134.06C489.737 134.06 491.081 133.635 492.16 132.786C493.249 131.925 494.065 130.771 494.61 129.322C495.165 127.863 495.443 126.241 495.443 124.455C495.443 122.69 495.171 121.1 494.626 119.685C494.093 118.258 493.281 117.131 492.192 116.303C491.114 115.465 489.758 115.045 488.125 115.045C486.557 115.045 485.239 115.443 484.172 116.238C483.104 117.022 482.299 118.122 481.754 119.538C481.21 120.942 480.937 122.581 480.937 124.455ZM505.179 137V111.909H508.903V115.699H509.165C509.622 114.457 510.45 113.45 511.648 112.677C512.845 111.904 514.196 111.517 515.699 111.517C515.982 111.517 516.336 111.522 516.76 111.533C517.185 111.544 517.506 111.561 517.724 111.582V115.503C517.594 115.47 517.294 115.421 516.826 115.356C516.368 115.28 515.884 115.241 515.372 115.241C514.152 115.241 513.063 115.497 512.105 116.009C511.157 116.51 510.406 117.207 509.851 118.1C509.306 118.982 509.034 119.99 509.034 121.122V137H505.179ZM531.724 137.523C529.458 137.523 527.471 136.984 525.761 135.906C524.062 134.827 522.734 133.319 521.775 131.381C520.828 129.442 520.354 127.177 520.354 124.585C520.354 121.972 520.828 119.69 521.775 117.741C522.734 115.791 524.062 114.278 525.761 113.2C527.471 112.121 529.458 111.582 531.724 111.582C533.989 111.582 535.971 112.121 537.67 113.2C539.379 114.278 540.708 115.791 541.655 117.741C542.614 119.69 543.093 121.972 543.093 124.585C543.093 127.177 542.614 129.442 541.655 131.381C540.708 133.319 539.379 134.827 537.67 135.906C535.971 136.984 533.989 137.523 531.724 137.523ZM531.724 134.06C533.444 134.06 534.86 133.619 535.971 132.737C537.081 131.854 537.904 130.695 538.437 129.257C538.971 127.82 539.238 126.262 539.238 124.585C539.238 122.908 538.971 121.345 538.437 119.897C537.904 118.449 537.081 117.278 535.971 116.385C534.86 115.492 533.444 115.045 531.724 115.045C530.003 115.045 528.587 115.492 527.476 116.385C526.366 117.278 525.543 118.449 525.01 119.897C524.476 121.345 524.209 122.908 524.209 124.585C524.209 126.262 524.476 127.82 525.01 129.257C525.543 130.695 526.366 131.854 527.476 132.737C528.587 133.619 530.003 134.06 531.724 134.06ZM558.452 137.523C556.361 137.523 554.515 136.995 552.914 135.938C551.314 134.871 550.061 133.368 549.157 131.43C548.253 129.48 547.801 127.177 547.801 124.52C547.801 121.884 548.253 119.598 549.157 117.659C550.061 115.721 551.319 114.223 552.931 113.167C554.542 112.111 556.405 111.582 558.517 111.582C560.151 111.582 561.441 111.855 562.389 112.399C563.347 112.933 564.077 113.543 564.578 114.229C565.09 114.904 565.487 115.459 565.77 115.895H566.097V103.545H569.952V137H566.228V133.145H565.77C565.487 133.602 565.084 134.179 564.561 134.876C564.039 135.562 563.293 136.178 562.324 136.722C561.354 137.256 560.064 137.523 558.452 137.523ZM558.975 134.06C560.521 134.06 561.828 133.657 562.895 132.851C563.962 132.034 564.774 130.907 565.329 129.469C565.885 128.021 566.162 126.349 566.162 124.455C566.162 122.581 565.89 120.942 565.346 119.538C564.801 118.122 563.995 117.022 562.928 116.238C561.861 115.443 560.543 115.045 558.975 115.045C557.341 115.045 555.98 115.465 554.891 116.303C553.813 117.131 553.002 118.258 552.457 119.685C551.923 121.1 551.657 122.69 551.657 124.455C551.657 126.241 551.929 127.863 552.473 129.322C553.029 130.771 553.846 131.925 554.924 132.786C556.013 133.635 557.363 134.06 558.975 134.06ZM593.36 126.741V111.909H597.216V137H593.36V132.753H593.099C592.511 134.027 591.596 135.111 590.355 136.004C589.113 136.886 587.545 137.327 585.65 137.327C584.082 137.327 582.688 136.984 581.468 136.298C580.249 135.601 579.29 134.555 578.593 133.161C577.896 131.756 577.548 129.987 577.548 127.852V111.909H581.403V127.591C581.403 129.42 581.915 130.88 582.939 131.969C583.973 133.058 585.291 133.602 586.892 133.602C587.85 133.602 588.825 133.357 589.816 132.867C590.818 132.377 591.656 131.626 592.331 130.613C593.017 129.6 593.36 128.31 593.36 126.741ZM603.558 137V134.06L617.802 115.764V115.503H604.015V111.909H622.768V114.98L608.916 133.145V133.406H623.225V137H603.558ZM629.163 137V111.909H633.018V137H629.163ZM631.123 107.727C630.372 107.727 629.724 107.471 629.18 106.96C628.646 106.448 628.379 105.832 628.379 105.114C628.379 104.395 628.646 103.78 629.18 103.268C629.724 102.756 630.372 102.5 631.123 102.5C631.875 102.5 632.517 102.756 633.051 103.268C633.595 103.78 633.868 104.395 633.868 105.114C633.868 105.832 633.595 106.448 633.051 106.96C632.517 107.471 631.875 107.727 631.123 107.727ZM650.599 137.523C648.181 137.523 646.096 136.989 644.343 135.922C642.6 134.844 641.255 133.341 640.308 131.413C639.371 129.475 638.903 127.221 638.903 124.651C638.903 122.08 639.371 119.815 640.308 117.855C641.255 115.884 642.573 114.348 644.261 113.249C645.96 112.138 647.942 111.582 650.207 111.582C651.514 111.582 652.804 111.8 654.078 112.236C655.353 112.671 656.512 113.379 657.558 114.359C658.603 115.329 659.436 116.614 660.057 118.214C660.678 119.815 660.988 121.786 660.988 124.128V125.761H641.647V122.429H657.068C657.068 121.013 656.785 119.75 656.218 118.639C655.663 117.528 654.868 116.652 653.833 116.009C652.81 115.367 651.601 115.045 650.207 115.045C648.672 115.045 647.343 115.427 646.221 116.189C645.11 116.94 644.256 117.92 643.657 119.129C643.058 120.338 642.758 121.634 642.758 123.017V125.239C642.758 127.134 643.085 128.74 643.738 130.058C644.403 131.364 645.323 132.361 646.499 133.047C647.675 133.722 649.042 134.06 650.599 134.06C651.612 134.06 652.527 133.918 653.343 133.635C654.171 133.341 654.884 132.905 655.483 132.328C656.082 131.74 656.545 131.01 656.872 130.139L660.596 131.185C660.204 132.448 659.545 133.559 658.62 134.517C657.694 135.464 656.551 136.205 655.189 136.739C653.828 137.261 652.298 137.523 650.599 137.523ZM666.853 137V111.909H670.577V115.699H670.838C671.296 114.457 672.123 113.45 673.321 112.677C674.519 111.904 675.87 111.517 677.373 111.517C677.656 111.517 678.01 111.522 678.434 111.533C678.859 111.544 679.18 111.561 679.398 111.582V115.503C679.267 115.47 678.968 115.421 678.5 115.356C678.042 115.28 677.558 115.241 677.046 115.241C675.826 115.241 674.737 115.497 673.779 116.009C672.831 116.51 672.08 117.207 671.525 118.1C670.98 118.982 670.708 119.99 670.708 121.122V137H666.853ZM696.452 111.909V115.176H683.449V111.909H696.452ZM687.239 105.898H691.094V129.812C691.094 130.902 691.252 131.718 691.568 132.263C691.895 132.796 692.308 133.156 692.809 133.341C693.321 133.515 693.86 133.602 694.426 133.602C694.851 133.602 695.2 133.58 695.472 133.537C695.744 133.482 695.962 133.439 696.125 133.406L696.909 136.869C696.648 136.967 696.283 137.065 695.815 137.163C695.347 137.272 694.753 137.327 694.034 137.327C692.945 137.327 691.878 137.093 690.833 136.624C689.798 136.156 688.938 135.443 688.252 134.484C687.577 133.526 687.239 132.317 687.239 130.858V105.898ZM89.0511 193V159.545H109.241V163.139H93.1023V174.443H108.196V178.037H93.1023V189.406H109.503V193H89.0511ZM119.876 177.906V193H116.021V167.909H119.745V171.83H120.072C120.66 170.555 121.553 169.532 122.751 168.759C123.949 167.974 125.495 167.582 127.39 167.582C129.089 167.582 130.575 167.931 131.849 168.628C133.124 169.314 134.115 170.359 134.822 171.764C135.53 173.158 135.884 174.922 135.884 177.057V193H132.029V177.318C132.029 175.347 131.517 173.812 130.494 172.712C129.47 171.601 128.065 171.045 126.279 171.045C125.049 171.045 123.949 171.312 122.979 171.846C122.021 172.379 121.264 173.158 120.709 174.182C120.153 175.205 119.876 176.447 119.876 177.906ZM153.449 193.523C151.031 193.523 148.946 192.989 147.192 191.922C145.45 190.844 144.105 189.341 143.157 187.413C142.221 185.475 141.753 183.221 141.753 180.651C141.753 178.08 142.221 175.815 143.157 173.855C144.105 171.884 145.423 170.348 147.111 169.249C148.809 168.138 150.791 167.582 153.057 167.582C154.363 167.582 155.654 167.8 156.928 168.236C158.202 168.671 159.362 169.379 160.407 170.359C161.453 171.329 162.286 172.614 162.907 174.214C163.528 175.815 163.838 177.786 163.838 180.128V181.761H144.497V178.429H159.917C159.917 177.013 159.634 175.75 159.068 174.639C158.513 173.528 157.718 172.652 156.683 172.009C155.659 171.367 154.451 171.045 153.057 171.045C151.521 171.045 150.193 171.427 149.071 172.189C147.96 172.94 147.105 173.92 146.506 175.129C145.907 176.338 145.608 177.634 145.608 179.017V181.239C145.608 183.134 145.934 184.74 146.588 186.058C147.252 187.364 148.172 188.361 149.349 189.047C150.525 189.722 151.891 190.06 153.449 190.06C154.461 190.06 155.376 189.918 156.193 189.635C157.021 189.341 157.734 188.905 158.333 188.328C158.932 187.74 159.395 187.01 159.721 186.139L163.446 187.185C163.054 188.448 162.395 189.559 161.469 190.517C160.544 191.464 159.4 192.205 158.039 192.739C156.678 193.261 155.148 193.523 153.449 193.523ZM169.702 193V167.909H173.427V171.699H173.688C174.145 170.457 174.973 169.45 176.171 168.677C177.369 167.904 178.719 167.517 180.222 167.517C180.505 167.517 180.859 167.522 181.284 167.533C181.709 167.544 182.03 167.561 182.248 167.582V171.503C182.117 171.47 181.818 171.421 181.349 171.356C180.892 171.28 180.407 171.241 179.895 171.241C178.676 171.241 177.587 171.497 176.628 172.009C175.681 172.51 174.93 173.207 174.374 174.1C173.83 174.982 173.557 175.99 173.557 177.122V193H169.702ZM196.182 202.932C194.319 202.932 192.719 202.692 191.379 202.213C190.04 201.745 188.923 201.124 188.03 200.351C187.148 199.589 186.446 198.772 185.923 197.901L188.994 195.744C189.343 196.202 189.784 196.724 190.317 197.312C190.851 197.911 191.581 198.429 192.506 198.864C193.443 199.311 194.668 199.534 196.182 199.534C198.207 199.534 199.879 199.044 201.197 198.064C202.514 197.084 203.173 195.548 203.173 193.457V188.361H202.846C202.563 188.818 202.16 189.384 201.638 190.06C201.126 190.724 200.385 191.317 199.416 191.84C198.458 192.352 197.162 192.608 195.528 192.608C193.503 192.608 191.684 192.129 190.072 191.17C188.471 190.212 187.203 188.818 186.266 186.989C185.34 185.159 184.878 182.937 184.878 180.324C184.878 177.754 185.33 175.516 186.233 173.61C187.137 171.693 188.395 170.212 190.007 169.167C191.619 168.111 193.481 167.582 195.594 167.582C197.227 167.582 198.523 167.855 199.481 168.399C200.451 168.933 201.191 169.543 201.703 170.229C202.226 170.904 202.629 171.459 202.912 171.895H203.304V167.909H207.028V193.719C207.028 195.875 206.538 197.628 205.558 198.979C204.589 200.34 203.282 201.336 201.638 201.968C200.004 202.611 198.185 202.932 196.182 202.932ZM196.051 189.145C197.597 189.145 198.904 188.791 199.971 188.083C201.039 187.375 201.85 186.357 202.405 185.028C202.961 183.7 203.238 182.11 203.238 180.259C203.238 178.451 202.966 176.855 202.422 175.472C201.877 174.089 201.071 173.006 200.004 172.222C198.937 171.437 197.619 171.045 196.051 171.045C194.417 171.045 193.056 171.459 191.967 172.287C190.889 173.115 190.078 174.225 189.533 175.619C189 177.013 188.733 178.56 188.733 180.259C188.733 182.001 189.005 183.542 189.55 184.881C190.105 186.21 190.922 187.255 192 188.018C193.089 188.769 194.439 189.145 196.051 189.145ZM214.085 193V167.909H217.94V193H214.085ZM216.045 163.727C215.294 163.727 214.646 163.471 214.101 162.96C213.568 162.448 213.301 161.832 213.301 161.114C213.301 160.395 213.568 159.78 214.101 159.268C214.646 158.756 215.294 158.5 216.045 158.5C216.797 158.5 217.439 158.756 217.973 159.268C218.517 159.78 218.79 160.395 218.79 161.114C218.79 161.832 218.517 162.448 217.973 162.96C217.439 163.471 216.797 163.727 216.045 163.727ZM235.521 193.523C233.103 193.523 231.018 192.989 229.265 191.922C227.522 190.844 226.177 189.341 225.23 187.413C224.293 185.475 223.825 183.221 223.825 180.651C223.825 178.08 224.293 175.815 225.23 173.855C226.177 171.884 227.495 170.348 229.183 169.249C230.882 168.138 232.864 167.582 235.129 167.582C236.436 167.582 237.726 167.8 239 168.236C240.275 168.671 241.434 169.379 242.48 170.359C243.525 171.329 244.358 172.614 244.979 174.214C245.6 175.815 245.91 177.786 245.91 180.128V181.761H226.569V178.429H241.99C241.99 177.013 241.707 175.75 241.14 174.639C240.585 173.528 239.79 172.652 238.755 172.009C237.732 171.367 236.523 171.045 235.129 171.045C233.593 171.045 232.265 171.427 231.143 172.189C230.032 172.94 229.177 173.92 228.578 175.129C227.98 176.338 227.68 177.634 227.68 179.017V181.239C227.68 183.134 228.007 184.74 228.66 186.058C229.324 187.364 230.245 188.361 231.421 189.047C232.597 189.722 233.964 190.06 235.521 190.06C236.534 190.06 237.449 189.918 238.265 189.635C239.093 189.341 239.806 188.905 240.405 188.328C241.004 187.74 241.467 187.01 241.794 186.139L245.518 187.185C245.126 188.448 244.467 189.559 243.542 190.517C242.616 191.464 241.472 192.205 240.111 192.739C238.75 193.261 237.22 193.523 235.521 193.523ZM257.525 188.426L257.263 190.19C257.078 191.432 256.795 192.76 256.414 194.176C256.043 195.592 255.657 196.926 255.254 198.178C254.851 199.431 254.519 200.427 254.257 201.168H251.317C251.459 200.471 251.644 199.55 251.873 198.407C252.101 197.263 252.33 195.984 252.559 194.568C252.798 193.163 252.994 191.726 253.147 190.256L253.343 188.426H257.525ZM288.778 167.909V171.176H275.252V167.909H288.778ZM279.303 193V164.446C279.303 163.009 279.641 161.811 280.316 160.852C280.991 159.894 281.868 159.175 282.946 158.696C284.024 158.217 285.162 157.977 286.36 157.977C287.308 157.977 288.081 158.054 288.68 158.206C289.279 158.358 289.725 158.5 290.019 158.631L288.909 161.963C288.713 161.898 288.44 161.816 288.092 161.718C287.754 161.62 287.308 161.571 286.752 161.571C285.478 161.571 284.558 161.892 283.992 162.535C283.436 163.177 283.159 164.119 283.159 165.361V193H279.303ZM309.993 182.741V167.909H313.848V193H309.993V188.753H309.732C309.144 190.027 308.229 191.111 306.988 192.004C305.746 192.886 304.178 193.327 302.283 193.327C300.715 193.327 299.321 192.984 298.101 192.298C296.882 191.601 295.923 190.555 295.226 189.161C294.529 187.756 294.181 185.987 294.181 183.852V167.909H298.036V183.591C298.036 185.42 298.548 186.88 299.571 187.969C300.606 189.058 301.924 189.602 303.525 189.602C304.483 189.602 305.458 189.357 306.449 188.867C307.45 188.377 308.289 187.626 308.964 186.613C309.65 185.6 309.993 184.31 309.993 182.741ZM299.343 163.727C298.657 163.727 298.047 163.466 297.513 162.943C296.99 162.41 296.729 161.8 296.729 161.114C296.729 160.362 296.99 159.741 297.513 159.251C298.047 158.75 298.657 158.5 299.343 158.5C300.094 158.5 300.715 158.75 301.205 159.251C301.706 159.741 301.956 160.362 301.956 161.114C301.956 161.8 301.706 162.41 301.205 162.943C300.715 163.466 300.094 163.727 299.343 163.727ZM308.752 163.727C308.066 163.727 307.456 163.466 306.922 162.943C306.4 162.41 306.138 161.8 306.138 161.114C306.138 160.362 306.4 159.741 306.922 159.251C307.456 158.75 308.066 158.5 308.752 158.5C309.503 158.5 310.124 158.75 310.614 159.251C311.115 159.741 311.365 160.362 311.365 161.114C311.365 161.8 311.115 162.41 310.614 162.943C310.124 163.466 309.503 163.727 308.752 163.727ZM320.909 193V167.909H324.634V171.699H324.895C325.352 170.457 326.18 169.45 327.378 168.677C328.576 167.904 329.926 167.517 331.429 167.517C331.712 167.517 332.066 167.522 332.491 167.533C332.916 167.544 333.237 167.561 333.455 167.582V171.503C333.324 171.47 333.025 171.421 332.556 171.356C332.099 171.28 331.614 171.241 331.102 171.241C329.883 171.241 328.794 171.497 327.835 172.009C326.888 172.51 326.137 173.207 325.581 174.1C325.037 174.982 324.764 175.99 324.764 177.122V193H320.909ZM351.485 193V159.545H371.675V163.139H355.536V174.443H370.63V178.037H355.536V189.406H371.936V193H351.485ZM392.829 174.476V178.07H378.193V174.476H392.829ZM427.056 170H423.004C422.765 168.835 422.346 167.811 421.747 166.929C421.159 166.047 420.44 165.306 419.59 164.707C418.752 164.098 417.821 163.64 416.797 163.335C415.773 163.03 414.706 162.878 413.595 162.878C411.57 162.878 409.735 163.39 408.09 164.413C406.457 165.437 405.155 166.945 404.186 168.938C403.228 170.931 402.749 173.376 402.749 176.273C402.749 179.17 403.228 181.614 404.186 183.607C405.155 185.6 406.457 187.108 408.09 188.132C409.735 189.156 411.57 189.668 413.595 189.668C414.706 189.668 415.773 189.515 416.797 189.21C417.821 188.905 418.752 188.453 419.59 187.854C420.44 187.245 421.159 186.499 421.747 185.616C422.346 184.723 422.765 183.7 423.004 182.545H427.056C426.751 184.255 426.195 185.785 425.389 187.136C424.584 188.486 423.582 189.635 422.384 190.582C421.186 191.519 419.841 192.232 418.349 192.722C416.868 193.212 415.283 193.457 413.595 193.457C410.742 193.457 408.205 192.76 405.983 191.366C403.762 189.973 402.014 187.991 400.74 185.42C399.465 182.85 398.828 179.801 398.828 176.273C398.828 172.744 399.465 169.695 400.74 167.125C402.014 164.555 403.762 162.573 405.983 161.179C408.205 159.785 410.742 159.088 413.595 159.088C415.283 159.088 416.868 159.333 418.349 159.823C419.841 160.313 421.186 161.032 422.384 161.979C423.582 162.916 424.584 164.059 425.389 165.41C426.195 166.749 426.751 168.279 427.056 170ZM433.079 193V167.909H436.934V193H433.079ZM435.039 163.727C434.288 163.727 433.64 163.471 433.096 162.96C432.562 162.448 432.295 161.832 432.295 161.114C432.295 160.395 432.562 159.78 433.096 159.268C433.64 158.756 434.288 158.5 435.039 158.5C435.791 158.5 436.433 158.756 436.967 159.268C437.511 159.78 437.784 160.395 437.784 161.114C437.784 161.832 437.511 162.448 436.967 162.96C436.433 163.471 435.791 163.727 435.039 163.727ZM454.907 167.909V171.176H441.904V167.909H454.907ZM445.694 161.898H449.549V185.812C449.549 186.902 449.707 187.718 450.023 188.263C450.35 188.796 450.763 189.156 451.264 189.341C451.776 189.515 452.315 189.602 452.882 189.602C453.306 189.602 453.655 189.58 453.927 189.537C454.199 189.482 454.417 189.439 454.58 189.406L455.365 192.869C455.103 192.967 454.738 193.065 454.27 193.163C453.802 193.272 453.208 193.327 452.49 193.327C451.401 193.327 450.333 193.093 449.288 192.624C448.253 192.156 447.393 191.443 446.707 190.484C446.032 189.526 445.694 188.317 445.694 186.858V161.898ZM463.189 202.409C462.536 202.409 461.953 202.355 461.441 202.246C460.929 202.148 460.575 202.05 460.379 201.952L461.36 198.554C462.296 198.794 463.124 198.881 463.843 198.815C464.561 198.75 465.198 198.429 465.754 197.852C466.32 197.285 466.837 196.365 467.306 195.091L468.024 193.131L458.746 167.909H462.928L469.854 187.903H470.115L477.041 167.909H481.223L470.573 196.659C470.093 197.955 469.5 199.028 468.792 199.877C468.084 200.737 467.262 201.375 466.325 201.788C465.4 202.202 464.354 202.409 463.189 202.409ZM487.549 193.261C486.743 193.261 486.052 192.973 485.474 192.396C484.897 191.818 484.609 191.127 484.609 190.321C484.609 189.515 484.897 188.824 485.474 188.246C486.052 187.669 486.743 187.381 487.549 187.381C488.355 187.381 489.046 187.669 489.624 188.246C490.201 188.824 490.489 189.515 490.489 190.321C490.489 190.855 490.353 191.345 490.081 191.791C489.82 192.238 489.466 192.597 489.019 192.869C488.584 193.131 488.094 193.261 487.549 193.261Z" fill="black"/>
<path d="M866.887 745.425C862.855 746.265 858.031 748.113 857.557 752.483C857.003 757.357 862.618 760.214 867.125 761.223C884.127 765.172 901.683 765.676 919.159 766.181C1011.52 768.533 1103.89 768.954 1196.25 767.357C1194.91 755.341 1181.46 750.13 1170.31 747.861C1122.39 738.114 1072.81 743.66 1025.76 733.324C976.174 722.316 915.837 734.753 866.887 745.425Z" fill="url(#paint0_linear_805_2662)"/>
<path d="M866.887 745.425C862.855 746.265 858.031 748.113 857.557 752.483C857.003 757.357 862.618 760.214 867.125 761.223C884.127 765.172 901.683 765.676 919.159 766.181C1011.52 768.533 1103.89 768.954 1196.25 767.357C1194.91 755.341 1181.46 750.13 1170.31 747.861C1122.39 738.114 1072.81 743.66 1025.76 733.324C976.174 722.316 915.837 734.753 866.887 745.425Z" fill="url(#paint1_linear_805_2662)"/>
<path d="M1118.43 666.264C1119.46 665.928 1120.56 666.264 1121.59 666.601C1126.1 668.197 1130.53 670.298 1134.48 673.071C1136.46 674.416 1138.44 675.928 1139.38 678.197C1140.25 680.298 1140.18 682.651 1140.02 684.836C1138.59 711.894 1137.25 739.036 1135.83 766.095C1135.75 767.859 1135.51 769.793 1134.24 770.885C1132.66 772.145 1130.45 771.305 1128.71 770.465C1111.71 762.565 1094.78 754.582 1077.78 746.683C1069.64 742.902 1061.26 738.868 1055.25 731.893C1059.83 721.137 1069.48 713.995 1078.34 706.768C1092.1 695.507 1104.75 682.567 1115.9 668.449C1116.53 667.609 1117.32 666.6 1118.43 666.264Z" fill="#DDC199"/>
<path d="M1198.54 526.855C1194.35 525.847 1190.07 524.838 1185.88 523.83C1161.21 571.98 1139.39 621.812 1120.56 672.904C1124.91 675.845 1130.69 678.87 1134.88 675.677C1136.62 674.332 1137.65 672.147 1138.59 670.047C1159.95 622.988 1179.95 575.258 1198.54 526.855Z" fill="#BDB39B"/>
<g opacity="0.26">
<path opacity="0.26" d="M1120.79 761.137C1120.71 762.062 1122.05 762.398 1122.21 761.474C1125.61 734.163 1130.44 707.357 1136.68 680.634C1137.08 678.954 1134.63 678.449 1134.23 680.13C1127.75 706.6 1123.24 733.827 1120.79 761.137Z" fill="#272525"/>
<path opacity="0.26" d="M1094 749.121C1104.43 725.76 1115.5 702.735 1127.21 680.046C1127.92 678.701 1125.86 677.609 1125.15 678.954C1112.97 701.811 1101.98 725.34 1091.94 749.289C1092.1 749.457 1092.18 749.625 1092.26 749.793C1092.81 749.373 1093.36 749.205 1094 749.121Z" fill="#272525"/>
<path opacity="0.26" d="M1076.98 733.743C1094.46 716.264 1110.04 696.853 1123.64 675.844C1124.51 674.416 1122.29 673.239 1121.42 674.668C1108.06 695.592 1092.72 714.92 1075.56 732.398C1074.69 733.322 1076.11 734.667 1076.98 733.743Z" fill="#272525"/>
</g>
<path d="M955.765 690.213C955.845 688.953 956.003 687.608 956.081 686.347C945.643 678.784 927.297 681.221 916.226 685.087C904.364 689.204 904.364 696.935 904.522 710.044C904.601 717.439 905.234 725.759 910.611 730.548C914.723 734.246 920.496 734.75 925.874 735.086C930.697 735.422 935.442 735.674 940.266 736.01C943.587 736.178 947.303 736.263 949.913 733.993C952.523 731.641 952.918 727.691 953.235 724.077C954.104 712.733 954.974 701.473 955.765 690.213Z" fill="#2F3F47"/>
<path d="M968.506 690.213C968.427 688.953 968.269 687.608 968.189 686.347C978.628 678.784 996.974 681.221 1008.05 685.087C1019.91 689.204 1019.91 696.935 1019.75 710.044C1019.67 717.439 1019.04 725.759 1013.66 730.548C1009.55 734.246 1003.77 734.75 998.397 735.086C993.574 735.422 988.829 735.674 984.005 736.01C980.684 736.178 976.967 736.263 974.358 733.993C971.748 731.641 971.353 727.691 971.037 724.077C970.246 712.733 969.376 701.473 968.506 690.213Z" fill="#2F3F47"/>
<path d="M879.448 662.148C876.838 662.735 874.308 663.576 871.856 664.668C870.037 665.424 868.219 666.433 866.953 667.945C865.214 670.13 864.739 673.156 864.423 676.097C864.028 679.963 863.869 683.828 863.949 687.693C863.949 690.97 864.186 694.332 865.768 697.105C867.982 700.971 872.331 702.735 876.443 703.827C884.272 705.929 892.417 706.432 900.483 706.853C949.274 709.374 998.224 707.692 1046.78 701.895C1048.75 701.643 1050.97 701.307 1052.31 699.71C1053.1 698.786 1053.5 697.525 1053.89 696.348C1056.43 687.777 1058.09 676.097 1052.63 668.114C1047.96 661.307 1039.34 665.172 1032.86 665.088C1026.22 665.004 1019.5 664.416 1012.85 664.164C999.884 663.576 986.916 662.987 973.947 662.567C955.68 661.895 937.334 661.307 919.066 660.803C906.73 660.551 892.18 659.122 879.448 662.148Z" fill="#516770"/>
<path d="M984.308 477.695C1017.44 477.863 1050.5 478.62 1083.63 479.376C1082.84 460.637 1081.57 441.897 1077.78 423.578C1071.22 391.478 1056.19 360.134 1030.81 341.395C991.9 312.656 930.14 316.437 888.228 344.84C870.593 356.772 856.439 373.159 849.005 393.242C840.465 416.183 838.171 441.225 836.827 465.847C836.668 469.124 836.511 472.317 836.353 475.594C885.539 473.577 935.042 477.527 984.308 477.695Z" fill="#EAF1F2"/>
<path d="M981.657 487.108C933.103 487.024 884.39 483.327 835.836 485.175C833.464 541.141 835.678 597.359 842.479 652.989C843.428 660.636 844.614 668.618 849.359 674.668C856.713 683.996 869.445 679.878 879.33 679.878C896.015 679.878 913.175 680.635 930.019 681.055C961.809 681.811 993.361 681.895 1024.99 678.114C1040.02 676.35 1070.38 681.223 1077.58 666.853C1083.51 655.173 1081.06 631.476 1081.93 618.451C1082.96 602.989 1083.75 587.611 1084.22 572.149C1085.09 544.334 1084.93 516.519 1083.91 488.62C1049.9 487.948 1015.74 487.108 981.657 487.108Z" fill="#E2ECED"/>
<path d="M1096.33 577.696C1096.96 577.107 1097.04 576.099 1097.12 575.259C1098.78 551.982 1100.2 528.704 1101.23 505.427C1101.31 503.41 1101.31 501.058 1099.81 499.713C1098.7 498.789 1097.28 498.705 1095.85 498.705C1090.95 498.621 1086.13 498.537 1081.22 498.537C1078.14 525.007 1076.88 551.645 1077.51 578.284C1082.96 578.284 1088.34 578.368 1093.8 578.368C1094.67 578.368 1095.62 578.368 1096.33 577.696Z" fill="#2F3F47"/>
<path d="M1121.54 631.31C1122.17 629.378 1122.88 627.361 1124.3 625.932C1125.41 624.84 1126.91 624.167 1128.34 623.663C1134.5 621.31 1140.83 619.546 1147.24 618.369C1152.22 621.983 1156.73 626.269 1160.6 631.226C1161.31 632.151 1162.02 633.159 1162.18 634.336C1162.34 635.26 1162.1 636.184 1161.87 637.109C1159.33 647.445 1156.88 657.781 1154.35 668.117C1150.64 668.621 1146.92 668.705 1143.28 668.201C1144.71 661.898 1146.13 655.596 1147.47 649.377C1148.82 643.411 1149.85 636.1 1145.58 631.899C1141.23 633.075 1136.96 634.336 1132.61 635.512C1131.89 635.68 1131.1 635.932 1130.47 636.436C1129.76 637.109 1129.44 638.117 1129.13 639.041C1127.31 644.924 1125.96 650.974 1125.01 657.109C1122.25 656.268 1119.48 655.511 1116.71 654.671C1116.47 646.688 1119 638.874 1121.54 631.31Z" fill="#2F3F47"/>
<path d="M1155.14 622.233C1155.38 621.981 1155.46 621.646 1155.54 621.393C1156.33 617.612 1157.12 613.83 1157.99 610.133C1152.45 608.788 1146.76 607.863 1141.15 607.359C1140.28 610.469 1139.72 613.746 1139.49 617.023C1139.41 617.696 1139.41 618.536 1139.88 619.04C1140.2 619.376 1140.59 619.46 1140.99 619.629C1145.18 620.973 1149.53 621.981 1153.96 622.569C1154.27 622.485 1154.75 622.57 1155.14 622.233Z" fill="#516770"/>
<path d="M1160.69 607.529C1164.01 601.562 1161.32 585.848 1161.32 579.546C1161.24 570.89 1161.24 562.151 1159.34 553.748C1157.44 545.344 1153.57 537.109 1147.16 531.815C1143.53 528.79 1139.26 526.858 1134.83 525.261C1121.62 520.471 1107.47 518.875 1093.63 520.639C1092.52 520.807 1091.34 520.975 1090.54 521.816C1089.67 522.656 1089.52 524 1089.36 525.261C1088.73 530.051 1087.86 535.345 1088.09 540.218C1088.49 548.79 1086.83 546.437 1092.68 548.874C1097.19 550.723 1105.65 549.21 1110.79 550.471C1116.8 551.899 1122.65 554.084 1128.5 556.269C1132.22 557.613 1136.17 559.294 1138.07 562.907C1139.1 564.84 1139.41 567.193 1139.65 569.462C1141.08 582.908 1141.71 596.436 1141.63 609.966C1141.63 612.318 1157.92 611.142 1160.05 608.537C1160.29 608.201 1160.45 607.865 1160.69 607.529Z" fill="#E2ECED"/>
<g opacity="0.15">
<path opacity="0.15" d="M1133 529.129C1132.53 537.196 1130.55 544.507 1127.55 551.902C1126.99 553.33 1128.65 554.423 1129.52 553.162C1134.27 546.104 1136.72 537.7 1137.59 529.129C1137.91 526.104 1133.24 526.019 1133 529.129Z" fill="#272525"/>
<path opacity="0.15" d="M1145.11 534.927C1143.76 542.743 1140.44 547.869 1135.22 553.415C1134.51 554.171 1135.46 555.431 1136.25 554.843C1139.81 552.49 1143.13 550.978 1145.66 547.197C1148.03 543.667 1149.61 539.885 1150.09 535.6C1150.4 532.659 1145.66 531.986 1145.11 534.927Z" fill="#272525"/>
</g>
<path d="M828.075 499.209C827.442 499.797 827.364 500.806 827.284 501.646C825.624 524.923 824.2 548.2 823.172 571.477C823.093 573.494 823.093 575.847 824.596 577.191C825.703 578.116 827.126 578.2 828.549 578.2C833.452 578.284 838.276 578.368 843.179 578.368C846.263 551.898 847.528 525.259 846.896 498.621C841.439 498.621 836.062 498.537 830.606 498.537C829.736 498.537 828.708 498.537 828.075 499.209Z" fill="#2F3F47"/>
<path d="M766.78 470.555C767.017 472.572 767.254 474.756 766.542 476.605C765.989 478.117 764.961 479.378 763.854 480.555C759.346 485.512 754.444 490.135 749.145 494.252C743.135 493.412 737.284 491.647 731.827 489.042C730.799 488.538 729.692 488.034 729.059 487.025C728.585 486.269 728.348 485.344 728.189 484.42C726.133 474 723.998 463.496 721.942 453.076C725.026 450.891 728.348 449.042 731.827 447.697C733.172 454 734.595 460.302 735.939 466.605C737.283 472.571 739.418 479.63 744.954 481.311C748.354 478.202 751.676 475.092 755.076 471.983C755.63 471.479 756.262 470.891 756.579 470.135C756.974 469.21 756.816 468.117 756.657 467.109C755.788 460.975 754.522 454.924 752.783 448.958C755.63 448.37 758.397 447.782 761.244 447.193C764.882 454.336 765.831 462.571 766.78 470.555Z" fill="#2F3F47"/>
<path d="M740.509 494.502C740.43 494.838 740.509 495.175 740.509 495.427C741.379 499.208 742.249 502.906 743.039 506.687C748.575 505.258 754.031 503.41 759.329 501.225C758.855 498.031 757.985 494.838 756.799 491.813C756.562 491.141 756.246 490.468 755.613 490.216C755.218 490.048 754.822 490.132 754.347 490.216C749.998 490.973 745.728 492.149 741.537 493.662C741.141 493.83 740.667 494.082 740.509 494.502Z" fill="#516770"/>
<path d="M741.714 510.303C741.16 517.193 750.175 529.966 752.864 535.68C756.501 543.412 760.218 551.227 765.437 557.865C770.657 564.504 777.536 570.05 785.523 571.73C790.031 572.739 794.696 572.487 799.283 571.815C813.122 569.882 826.486 564.672 838.11 556.521C839.059 555.848 840.008 555.176 840.404 554C840.799 552.823 840.404 551.563 840.087 550.302C838.585 545.681 837.24 540.555 834.947 536.269C830.993 528.79 833.524 530.134 827.197 530.638C822.374 531.059 815.415 536.437 810.275 537.782C804.265 539.378 798.097 540.134 792.008 540.975C788.133 541.479 783.863 541.899 780.62 539.546C778.88 538.286 777.615 536.353 776.508 534.42C769.628 523.075 763.381 511.227 757.767 499.043C756.818 496.942 742.742 505.681 741.872 509.042C741.793 509.546 741.714 509.883 741.714 510.303Z" fill="#E2ECED"/>
<g opacity="0.15">
<path opacity="0.15" d="M799.187 567.442C796.261 559.963 794.996 552.484 794.521 544.417C794.442 542.821 792.465 542.653 792.228 544.25C790.962 552.821 792.228 561.476 795.075 569.543C796.103 572.484 800.373 570.299 799.187 567.442Z" fill="#272525"/>
<path opacity="0.15" d="M785.995 568.032C783.939 560.385 784.73 554.251 787.102 546.772C787.419 545.764 786.074 545.091 785.521 545.931C783.386 549.713 781.013 552.654 780.302 557.192C779.669 561.477 779.827 565.595 781.251 569.628C782.2 572.569 786.707 570.889 785.995 568.032Z" fill="#272525"/>
</g>
<path d="M858.436 422.739C858.514 425.932 858.672 429.209 859.938 432.151C863.18 439.461 871.72 441.814 879.233 443.159C922.172 450.805 966.061 453.411 1009.24 447.612C1014.93 446.856 1020.63 445.932 1025.84 443.411C1031.06 440.89 1035.73 436.604 1037.63 430.974C1038.81 427.36 1038.89 423.495 1038.97 419.63C1039.05 415.764 1039.05 411.815 1039.13 407.949C1039.13 406.185 1039.13 404.42 1038.5 402.739C1037.78 400.974 1036.36 399.546 1034.86 398.453C1029.17 394.336 1021.97 393.411 1015.09 392.655C969.383 387.781 923.122 383.496 877.652 390.05C875.754 390.302 873.776 390.638 872.432 392.067C871.72 392.739 871.246 393.664 870.534 394.336C869.19 395.428 867.371 395.344 865.79 395.932C861.361 397.445 859.78 403.244 859.226 408.202C858.594 412.991 858.356 417.865 858.436 422.739Z" fill="#2F3F47"/>
<path opacity="0.2" d="M915.679 429.797C917.182 426.856 917.419 423.411 917.103 420.05C916.945 418.033 916.47 415.933 915.284 414.42C912.753 411.227 908.088 411.563 904.213 410.807C900.813 412.319 897.965 415.26 896.542 418.874C895.672 421.058 895.277 423.411 895.514 425.764C896.068 430.554 899.785 434.672 904.213 435.512C908.72 436.521 913.544 434.083 915.679 429.797Z" fill="#EAF1F2"/>
<path opacity="0.2" d="M990.983 429.797C992.485 426.856 992.723 423.411 992.406 420.05C992.248 418.033 991.774 415.933 990.587 414.42C988.057 411.227 983.392 411.563 979.517 410.807C976.116 412.319 973.269 415.26 971.846 418.874C970.976 421.058 970.581 423.411 970.818 425.764C971.371 430.554 975.088 434.672 979.517 435.512C983.945 436.521 988.768 434.083 990.983 429.797Z" fill="#EAF1F2"/>
<defs>
<linearGradient id="paint0_linear_805_2662" x1="857.571" y1="748.659" x2="1196.34" y2="748.659" gradientUnits="userSpaceOnUse">
<stop stop-color="#4D4D4D"/>
<stop offset="1"/>
</linearGradient>
<linearGradient id="paint1_linear_805_2662" x1="857.571" y1="748.659" x2="1196.34" y2="748.659" gradientUnits="userSpaceOnUse">
<stop/>
<stop offset="1"/>
</linearGradient>
</defs>
</svg>
