<svg width="1199" height="772" viewBox="0 0 1199 772" fill="none" xmlns="http://www.w3.org/2000/svg">
<path d="M697.596 387C697.845 387 698.094 386.994 698.346 386.983C701.281 386.864 704.147 385.952 706.7 384.325C709.254 382.698 711.418 380.404 713.01 377.638C724.934 357.669 739.566 339.908 756.379 324.997C766.558 315.881 777.194 307.405 787.478 299.207C814.013 278.066 839.001 258.155 852.872 230.643C883.116 170.652 847.5 87.0923 796.619 49.6186C739.549 7.58992 664.483 0.997367 591.865 0.133407C584.318 0.0439794 576.767 -0.000465902 569.211 3.68211e-06C438.368 0.05622 307.801 13.4339 179.119 39.968C136.33 48.814 91.5399 59.6506 55.547 85.9492C19.7678 112.092 -1.97922 153.261 0.142339 190.835C3.23996 245.687 55.1323 286.673 102.385 297.389C147.424 307.594 194.212 300.697 243.746 293.393C254.682 291.782 265.988 290.115 277.169 288.666C398.685 272.928 626.961 321.438 636.618 323.511L646.2 325.566L683.376 379.173C685.048 381.617 687.202 383.595 689.668 384.952C692.135 386.31 694.848 387.011 697.596 387Z" fill="white"/>
<path d="M97.1278 153L87.9801 119.545H92.0966L99.0881 146.793H99.4148L106.537 119.545H111.111L118.233 146.793H118.56L125.551 119.545H129.668L120.52 153H116.338L108.955 126.341H108.693L101.31 153H97.1278ZM134.192 153V127.909H138.048V153H134.192ZM136.153 123.727C135.401 123.727 134.753 123.471 134.209 122.96C133.675 122.448 133.408 121.832 133.408 121.114C133.408 120.395 133.675 119.78 134.209 119.268C134.753 118.756 135.401 118.5 136.153 118.5C136.904 118.5 137.547 118.756 138.08 119.268C138.625 119.78 138.897 120.395 138.897 121.114C138.897 121.832 138.625 122.448 138.08 122.96C137.547 123.471 136.904 123.727 136.153 123.727ZM145.108 153V127.909H148.833V131.699H149.094C149.552 130.457 150.379 129.45 151.577 128.677C152.775 127.904 154.126 127.517 155.628 127.517C155.912 127.517 156.265 127.522 156.69 127.533C157.115 127.544 157.436 127.561 157.654 127.582V131.503C157.523 131.47 157.224 131.421 156.756 131.356C156.298 131.28 155.814 131.241 155.302 131.241C154.082 131.241 152.993 131.497 152.035 132.009C151.087 132.51 150.336 133.207 149.78 134.1C149.236 134.982 148.964 135.99 148.964 137.122V153H145.108ZM192.934 133.528L189.471 134.509C189.253 133.931 188.932 133.371 188.507 132.826C188.093 132.271 187.527 131.813 186.808 131.454C186.089 131.094 185.169 130.915 184.048 130.915C182.512 130.915 181.232 131.269 180.209 131.977C179.196 132.674 178.69 133.561 178.69 134.639C178.69 135.598 179.038 136.354 179.735 136.91C180.432 137.465 181.521 137.928 183.002 138.298L186.727 139.213C188.97 139.758 190.642 140.591 191.741 141.712C192.841 142.823 193.391 144.255 193.391 146.009C193.391 147.446 192.978 148.731 192.15 149.864C191.333 150.996 190.19 151.889 188.719 152.543C187.249 153.196 185.54 153.523 183.59 153.523C181.031 153.523 178.913 152.967 177.236 151.857C175.559 150.746 174.497 149.123 174.05 146.989L177.71 146.074C178.058 147.424 178.717 148.437 179.686 149.112C180.666 149.787 181.946 150.125 183.525 150.125C185.322 150.125 186.748 149.744 187.805 148.982C188.872 148.208 189.406 147.283 189.406 146.205C189.406 145.333 189.101 144.604 188.491 144.016C187.881 143.417 186.944 142.97 185.681 142.676L181.499 141.696C179.201 141.152 177.513 140.308 176.435 139.164C175.368 138.01 174.835 136.567 174.835 134.835C174.835 133.42 175.232 132.167 176.027 131.078C176.833 129.989 177.927 129.134 179.31 128.513C180.704 127.893 182.283 127.582 184.048 127.582C186.531 127.582 188.48 128.127 189.896 129.216C191.322 130.305 192.335 131.742 192.934 133.528ZM199.194 153V127.909H203.05V153H199.194ZM201.155 123.727C200.403 123.727 199.755 123.471 199.211 122.96C198.677 122.448 198.41 121.832 198.41 121.114C198.41 120.395 198.677 119.78 199.211 119.268C199.755 118.756 200.403 118.5 201.155 118.5C201.906 118.5 202.549 118.756 203.082 119.268C203.627 119.78 203.899 120.395 203.899 121.114C203.899 121.832 203.627 122.448 203.082 122.96C202.549 123.471 201.906 123.727 201.155 123.727ZM213.966 137.906V153H210.11V127.909H213.835V131.83H214.162C214.75 130.555 215.643 129.532 216.841 128.759C218.038 127.974 219.585 127.582 221.48 127.582C223.179 127.582 224.665 127.931 225.939 128.628C227.213 129.314 228.204 130.359 228.912 131.764C229.62 133.158 229.974 134.922 229.974 137.057V153H226.119V137.318C226.119 135.347 225.607 133.812 224.583 132.712C223.56 131.601 222.155 131.045 220.369 131.045C219.138 131.045 218.038 131.312 217.069 131.846C216.111 132.379 215.354 133.158 214.799 134.182C214.243 135.205 213.966 136.447 213.966 137.906ZM246.493 153.523C244.402 153.523 242.556 152.995 240.955 151.938C239.355 150.871 238.102 149.368 237.198 147.43C236.294 145.48 235.843 143.177 235.843 140.52C235.843 137.884 236.294 135.598 237.198 133.659C238.102 131.721 239.36 130.223 240.972 129.167C242.584 128.111 244.446 127.582 246.558 127.582C248.192 127.582 249.482 127.855 250.43 128.399C251.388 128.933 252.118 129.543 252.619 130.229C253.131 130.904 253.528 131.459 253.811 131.895H254.138V119.545H257.993V153H254.269V149.145H253.811C253.528 149.602 253.125 150.179 252.602 150.876C252.08 151.562 251.334 152.178 250.365 152.722C249.395 153.256 248.105 153.523 246.493 153.523ZM247.016 150.06C248.562 150.06 249.869 149.657 250.936 148.851C252.003 148.034 252.815 146.907 253.37 145.469C253.926 144.021 254.203 142.349 254.203 140.455C254.203 138.581 253.931 136.942 253.387 135.538C252.842 134.122 252.036 133.022 250.969 132.238C249.902 131.443 248.584 131.045 247.016 131.045C245.382 131.045 244.021 131.465 242.932 132.303C241.854 133.131 241.043 134.258 240.498 135.685C239.964 137.1 239.698 138.69 239.698 140.455C239.698 142.241 239.97 143.863 240.514 145.322C241.07 146.771 241.887 147.925 242.965 148.786C244.054 149.635 245.404 150.06 247.016 150.06ZM299.044 127.909L289.765 153H285.845L276.566 127.909H280.748L287.674 147.903H287.936L294.862 127.909H299.044ZM313.427 153.523C311.162 153.523 309.174 152.984 307.464 151.906C305.765 150.827 304.437 149.319 303.479 147.381C302.531 145.442 302.057 143.177 302.057 140.585C302.057 137.972 302.531 135.69 303.479 133.741C304.437 131.791 305.765 130.278 307.464 129.2C309.174 128.121 311.162 127.582 313.427 127.582C315.692 127.582 317.674 128.121 319.373 129.2C321.082 130.278 322.411 131.791 323.358 133.741C324.317 135.69 324.796 137.972 324.796 140.585C324.796 143.177 324.317 145.442 323.358 147.381C322.411 149.319 321.082 150.827 319.373 151.906C317.674 152.984 315.692 153.523 313.427 153.523ZM313.427 150.06C315.147 150.06 316.563 149.619 317.674 148.737C318.785 147.854 319.607 146.695 320.14 145.257C320.674 143.82 320.941 142.262 320.941 140.585C320.941 138.908 320.674 137.345 320.14 135.897C319.607 134.449 318.785 133.278 317.674 132.385C316.563 131.492 315.147 131.045 313.427 131.045C311.706 131.045 310.29 131.492 309.18 132.385C308.069 133.278 307.247 134.449 306.713 135.897C306.179 137.345 305.912 138.908 305.912 140.585C305.912 142.262 306.179 143.82 306.713 145.257C307.247 146.695 308.069 147.854 309.18 148.737C310.29 149.619 311.706 150.06 313.427 150.06ZM330.681 153V127.909H334.405V131.699H334.667C335.124 130.457 335.952 129.45 337.15 128.677C338.347 127.904 339.698 127.517 341.201 127.517C341.484 127.517 341.838 127.522 342.262 127.533C342.687 127.544 343.008 127.561 343.226 127.582V131.503C343.096 131.47 342.796 131.421 342.328 131.356C341.87 131.28 341.386 131.241 340.874 131.241C339.654 131.241 338.565 131.497 337.607 132.009C336.659 132.51 335.908 133.207 335.353 134.1C334.808 134.982 334.536 135.99 334.536 137.122V153H330.681ZM364.327 143.852L364.262 139.082H365.046L376.023 127.909H380.793L369.097 139.736H368.77L364.327 143.852ZM360.733 153V119.545H364.589V153H360.733ZM376.677 153L366.876 140.585L369.62 137.906L381.577 153H376.677ZM401.567 142.741V127.909H405.423V153H401.567V148.753H401.306C400.718 150.027 399.803 151.111 398.562 152.004C397.32 152.886 395.752 153.327 393.857 153.327C392.289 153.327 390.895 152.984 389.675 152.298C388.456 151.601 387.497 150.555 386.8 149.161C386.103 147.756 385.755 145.987 385.755 143.852V127.909H389.61V143.591C389.61 145.42 390.122 146.88 391.146 147.969C392.18 149.058 393.498 149.602 395.099 149.602C396.057 149.602 397.032 149.357 398.023 148.867C399.025 148.377 399.863 147.626 400.538 146.613C401.224 145.6 401.567 144.31 401.567 142.741ZM412.483 153V127.909H416.208V131.699H416.469C416.927 130.457 417.754 129.45 418.952 128.677C420.15 127.904 421.501 127.517 423.003 127.517C423.287 127.517 423.64 127.522 424.065 127.533C424.49 127.544 424.811 127.561 425.029 127.582V131.503C424.898 131.47 424.599 131.421 424.131 131.356C423.673 131.28 423.189 131.241 422.677 131.241C421.457 131.241 420.368 131.497 419.41 132.009C418.462 132.51 417.711 133.207 417.155 134.1C416.611 134.982 416.339 135.99 416.339 137.122V153H412.483ZM428.88 153V150.06L443.124 131.764V131.503H429.337V127.909H448.09V130.98L434.238 149.145V149.406H448.548V153H428.88ZM464.287 153.523C461.869 153.523 459.783 152.989 458.03 151.922C456.288 150.844 454.943 149.341 453.995 147.413C453.059 145.475 452.591 143.221 452.591 140.651C452.591 138.08 453.059 135.815 453.995 133.855C454.943 131.884 456.261 130.348 457.949 129.249C459.647 128.138 461.629 127.582 463.895 127.582C465.201 127.582 466.492 127.8 467.766 128.236C469.04 128.671 470.2 129.379 471.245 130.359C472.291 131.329 473.124 132.614 473.745 134.214C474.365 135.815 474.676 137.786 474.676 140.128V141.761H455.335V138.429H470.755C470.755 137.013 470.472 135.75 469.906 134.639C469.35 133.528 468.556 132.652 467.521 132.009C466.497 131.367 465.288 131.045 463.895 131.045C462.359 131.045 461.03 131.427 459.909 132.189C458.798 132.94 457.943 133.92 457.344 135.129C456.745 136.338 456.446 137.634 456.446 139.017V141.239C456.446 143.134 456.772 144.74 457.426 146.058C458.09 147.364 459.01 148.361 460.186 149.047C461.363 149.722 462.729 150.06 464.287 150.06C465.299 150.06 466.214 149.918 467.031 149.635C467.859 149.341 468.572 148.905 469.171 148.328C469.77 147.74 470.233 147.01 470.559 146.139L474.284 147.185C473.892 148.448 473.233 149.559 472.307 150.517C471.382 151.464 470.238 152.205 468.877 152.739C467.516 153.261 465.985 153.523 464.287 153.523ZM480.54 153V127.909H484.265V131.83H484.591C485.114 130.49 485.958 129.45 487.123 128.71C488.288 127.958 489.688 127.582 491.321 127.582C492.977 127.582 494.354 127.958 495.454 128.71C496.565 129.45 497.431 130.49 498.051 131.83H498.313C498.955 130.534 499.919 129.504 501.204 128.742C502.489 127.969 504.03 127.582 505.827 127.582C508.07 127.582 509.905 128.285 511.332 129.69C512.759 131.084 513.472 133.256 513.472 136.207V153H509.617V136.207C509.617 134.356 509.11 133.033 508.098 132.238C507.085 131.443 505.892 131.045 504.52 131.045C502.756 131.045 501.389 131.579 500.42 132.646C499.451 133.703 498.966 135.042 498.966 136.665V153H495.046V135.815C495.046 134.389 494.583 133.24 493.657 132.369C492.732 131.487 491.539 131.045 490.08 131.045C489.078 131.045 488.141 131.312 487.27 131.846C486.41 132.379 485.713 133.12 485.179 134.067C484.657 135.004 484.395 136.088 484.395 137.318V153H480.54ZM532.739 153V150.06L546.984 131.764V131.503H533.197V127.909H551.95V130.98L538.097 149.145V149.406H552.407V153H532.739ZM574.157 142.741V127.909H578.012V153H574.157V148.753H573.896C573.308 150.027 572.393 151.111 571.152 152.004C569.91 152.886 568.342 153.327 566.447 153.327C564.879 153.327 563.485 152.984 562.265 152.298C561.046 151.601 560.087 150.555 559.39 149.161C558.693 147.756 558.345 145.987 558.345 143.852V127.909H562.2V143.591C562.2 145.42 562.712 146.88 563.735 147.969C564.77 149.058 566.088 149.602 567.689 149.602C568.647 149.602 569.622 149.357 570.613 148.867C571.614 148.377 572.453 147.626 573.128 146.613C573.814 145.6 574.157 144.31 574.157 142.741ZM585.073 153V127.909H588.798V131.83H589.124C589.647 130.49 590.491 129.45 591.656 128.71C592.822 127.958 594.221 127.582 595.855 127.582C597.51 127.582 598.887 127.958 599.987 128.71C601.098 129.45 601.964 130.49 602.585 131.83H602.846C603.489 130.534 604.452 129.504 605.737 128.742C607.022 127.969 608.563 127.582 610.36 127.582C612.604 127.582 614.439 128.285 615.865 129.69C617.292 131.084 618.005 133.256 618.005 136.207V153H614.15V136.207C614.15 134.356 613.644 133.033 612.631 132.238C611.618 131.443 610.426 131.045 609.053 131.045C607.289 131.045 605.923 131.579 604.953 132.646C603.984 133.703 603.499 135.042 603.499 136.665V153H599.579V135.815C599.579 134.389 599.116 133.24 598.191 132.369C597.265 131.487 596.072 131.045 594.613 131.045C593.611 131.045 592.675 131.312 591.803 131.846C590.943 132.379 590.246 133.12 589.713 134.067C589.19 135.004 588.928 136.088 588.928 137.318V153H585.073ZM666.741 136.273C666.741 139.801 666.104 142.85 664.83 145.42C663.556 147.991 661.808 149.973 659.586 151.366C657.365 152.76 654.827 153.457 651.974 153.457C649.121 153.457 646.584 152.76 644.362 151.366C642.14 149.973 640.393 147.991 639.118 145.42C637.844 142.85 637.207 139.801 637.207 136.273C637.207 132.744 637.844 129.695 639.118 127.125C640.393 124.555 642.14 122.573 644.362 121.179C646.584 119.785 649.121 119.088 651.974 119.088C654.827 119.088 657.365 119.785 659.586 121.179C661.808 122.573 663.556 124.555 664.83 127.125C666.104 129.695 666.741 132.744 666.741 136.273ZM662.821 136.273C662.821 133.376 662.336 130.931 661.367 128.938C660.409 126.945 659.107 125.437 657.463 124.413C655.829 123.39 654 122.878 651.974 122.878C649.949 122.878 648.114 123.39 646.469 124.413C644.836 125.437 643.534 126.945 642.565 128.938C641.607 130.931 641.128 133.376 641.128 136.273C641.128 139.17 641.607 141.614 642.565 143.607C643.534 145.6 644.836 147.108 646.469 148.132C648.114 149.156 649.949 149.668 651.974 149.668C654 149.668 655.829 149.156 657.463 148.132C659.107 147.108 660.409 145.6 661.367 143.607C662.336 141.614 662.821 139.17 662.821 136.273ZM673.03 162.409V127.909H676.755V131.895H677.212C677.495 131.459 677.887 130.904 678.388 130.229C678.9 129.543 679.63 128.933 680.577 128.399C681.536 127.855 682.831 127.582 684.465 127.582C686.578 127.582 688.44 128.111 690.052 129.167C691.663 130.223 692.921 131.721 693.825 133.659C694.729 135.598 695.181 137.884 695.181 140.52C695.181 143.177 694.729 145.48 693.825 147.43C692.921 149.368 691.669 150.871 690.068 151.938C688.467 152.995 686.621 153.523 684.53 153.523C682.919 153.523 681.628 153.256 680.659 152.722C679.69 152.178 678.944 151.562 678.421 150.876C677.898 150.179 677.495 149.602 677.212 149.145H676.885V162.409H673.03ZM676.82 140.455C676.82 142.349 677.098 144.021 677.653 145.469C678.209 146.907 679.02 148.034 680.087 148.851C681.154 149.657 682.461 150.06 684.008 150.06C685.619 150.06 686.964 149.635 688.042 148.786C689.131 147.925 689.948 146.771 690.493 145.322C691.048 143.863 691.326 142.241 691.326 140.455C691.326 138.69 691.054 137.1 690.509 135.685C689.975 134.258 689.164 133.131 688.075 132.303C686.997 131.465 685.641 131.045 684.008 131.045C682.439 131.045 681.122 131.443 680.055 132.238C678.987 133.022 678.181 134.122 677.637 135.538C677.092 136.942 676.82 138.581 676.82 140.455ZM712.235 127.909V131.176H698.709V127.909H712.235ZM702.76 153V124.446C702.76 123.009 703.098 121.811 703.773 120.852C704.448 119.894 705.325 119.175 706.403 118.696C707.481 118.217 708.619 117.977 709.817 117.977C710.765 117.977 711.538 118.054 712.137 118.206C712.736 118.358 713.182 118.5 713.476 118.631L712.366 121.963C712.17 121.898 711.897 121.816 711.549 121.718C711.211 121.62 710.765 121.571 710.209 121.571C708.935 121.571 708.015 121.892 707.449 122.535C706.893 123.177 706.616 124.119 706.616 125.361V153H702.76ZM727.124 153.523C724.707 153.523 722.621 152.989 720.868 151.922C719.126 150.844 717.781 149.341 716.833 147.413C715.897 145.475 715.428 143.221 715.428 140.651C715.428 138.08 715.897 135.815 716.833 133.855C717.781 131.884 719.098 130.348 720.786 129.249C722.485 128.138 724.467 127.582 726.732 127.582C728.039 127.582 729.33 127.8 730.604 128.236C731.878 128.671 733.038 129.379 734.083 130.359C735.129 131.329 735.962 132.614 736.583 134.214C737.203 135.815 737.514 137.786 737.514 140.128V141.761H718.173V138.429H733.593C733.593 137.013 733.31 135.75 732.744 134.639C732.188 133.528 731.393 132.652 730.359 132.009C729.335 131.367 728.126 131.045 726.732 131.045C725.197 131.045 723.868 131.427 722.747 132.189C721.636 132.94 720.781 133.92 720.182 135.129C719.583 136.338 719.284 137.634 719.284 139.017V141.239C719.284 143.134 719.61 144.74 720.264 146.058C720.928 147.364 721.848 148.361 723.024 149.047C724.2 149.722 725.567 150.06 727.124 150.06C728.137 150.06 729.052 149.918 729.869 149.635C730.696 149.341 731.41 148.905 732.009 148.328C732.608 147.74 733.07 147.01 733.397 146.139L737.122 147.185C736.73 148.448 736.071 149.559 735.145 150.517C734.219 151.464 733.076 152.205 731.715 152.739C730.353 153.261 728.823 153.523 727.124 153.523ZM743.378 153V127.909H747.102V131.699H747.364C747.821 130.457 748.649 129.45 749.847 128.677C751.045 127.904 752.395 127.517 753.898 127.517C754.181 127.517 754.535 127.522 754.96 127.533C755.384 127.544 755.706 127.561 755.923 127.582V131.503C755.793 131.47 755.493 131.421 755.025 131.356C754.568 131.28 754.083 131.241 753.571 131.241C752.352 131.241 751.262 131.497 750.304 132.009C749.357 132.51 748.605 133.207 748.05 134.1C747.505 134.982 747.233 135.99 747.233 137.122V153H743.378ZM101.048 209.523C98.6307 209.523 96.5452 208.989 94.7919 207.922C93.0495 206.844 91.7045 205.341 90.7571 203.413C89.8205 201.475 89.3523 199.221 89.3523 196.651C89.3523 194.08 89.8205 191.815 90.7571 189.855C91.7045 187.884 93.0223 186.348 94.7102 185.249C96.4091 184.138 98.3911 183.582 100.656 183.582C101.963 183.582 103.254 183.8 104.528 184.236C105.802 184.671 106.962 185.379 108.007 186.359C109.053 187.329 109.886 188.614 110.506 190.214C111.127 191.815 111.438 193.786 111.438 196.128V197.761H92.0966V194.429H107.517C107.517 193.013 107.234 191.75 106.668 190.639C106.112 189.528 105.317 188.652 104.283 188.009C103.259 187.367 102.05 187.045 100.656 187.045C99.1207 187.045 97.7921 187.427 96.6705 188.189C95.5597 188.94 94.7048 189.92 94.1058 191.129C93.5069 192.338 93.2074 193.634 93.2074 195.017V197.239C93.2074 199.134 93.5341 200.74 94.1875 202.058C94.8518 203.364 95.772 204.361 96.9482 205.047C98.1243 205.722 99.491 206.06 101.048 206.06C102.061 206.06 102.976 205.918 103.793 205.635C104.62 205.341 105.334 204.905 105.933 204.328C106.531 203.74 106.994 203.01 107.321 202.139L111.045 203.185C110.653 204.448 109.995 205.559 109.069 206.517C108.143 207.464 107 208.205 105.638 208.739C104.277 209.261 102.747 209.523 101.048 209.523ZM117.302 209V183.909H121.157V209H117.302ZM119.262 179.727C118.511 179.727 117.863 179.471 117.318 178.96C116.785 178.448 116.518 177.832 116.518 177.114C116.518 176.395 116.785 175.78 117.318 175.268C117.863 174.756 118.511 174.5 119.262 174.5C120.013 174.5 120.656 174.756 121.19 175.268C121.734 175.78 122.006 176.395 122.006 177.114C122.006 177.832 121.734 178.448 121.19 178.96C120.656 179.471 120.013 179.727 119.262 179.727ZM132.073 193.906V209H128.218V183.909H131.942V187.83H132.269C132.857 186.555 133.75 185.532 134.948 184.759C136.146 183.974 137.692 183.582 139.587 183.582C141.286 183.582 142.773 183.931 144.047 184.628C145.321 185.314 146.312 186.359 147.02 187.764C147.728 189.158 148.081 190.922 148.081 193.057V209H144.226V193.318C144.226 191.347 143.715 189.812 142.691 188.712C141.667 187.601 140.262 187.045 138.476 187.045C137.246 187.045 136.146 187.312 135.177 187.846C134.218 188.379 133.461 189.158 132.906 190.182C132.351 191.205 132.073 192.447 132.073 193.906ZM165.646 209.523C163.228 209.523 161.143 208.989 159.39 207.922C157.647 206.844 156.302 205.341 155.355 203.413C154.418 201.475 153.95 199.221 153.95 196.651C153.95 194.08 154.418 191.815 155.355 189.855C156.302 187.884 157.62 186.348 159.308 185.249C161.007 184.138 162.989 183.582 165.254 183.582C166.561 183.582 167.851 183.8 169.125 184.236C170.4 184.671 171.559 185.379 172.605 186.359C173.65 187.329 174.483 188.614 175.104 190.214C175.725 191.815 176.035 193.786 176.035 196.128V197.761H156.694V194.429H172.115C172.115 193.013 171.832 191.75 171.265 190.639C170.71 189.528 169.915 188.652 168.88 188.009C167.857 187.367 166.648 187.045 165.254 187.045C163.718 187.045 162.39 187.427 161.268 188.189C160.157 188.94 159.302 189.92 158.703 191.129C158.105 192.338 157.805 193.634 157.805 195.017V197.239C157.805 199.134 158.132 200.74 158.785 202.058C159.449 203.364 160.37 204.361 161.546 205.047C162.722 205.722 164.089 206.06 165.646 206.06C166.659 206.06 167.574 205.918 168.39 205.635C169.218 205.341 169.931 204.905 170.53 204.328C171.129 203.74 171.592 203.01 171.919 202.139L175.643 203.185C175.251 204.448 174.592 205.559 173.667 206.517C172.741 207.464 171.597 208.205 170.236 208.739C168.875 209.261 167.345 209.523 165.646 209.523ZM199.672 189.528L196.209 190.509C195.991 189.931 195.67 189.371 195.245 188.826C194.832 188.271 194.265 187.813 193.547 187.454C192.828 187.094 191.908 186.915 190.786 186.915C189.25 186.915 187.971 187.269 186.947 187.977C185.934 188.674 185.428 189.561 185.428 190.639C185.428 191.598 185.776 192.354 186.473 192.91C187.17 193.465 188.259 193.928 189.74 194.298L193.465 195.213C195.708 195.758 197.38 196.591 198.48 197.712C199.58 198.823 200.13 200.255 200.13 202.009C200.13 203.446 199.716 204.731 198.888 205.864C198.071 206.996 196.928 207.889 195.458 208.543C193.988 209.196 192.278 209.523 190.328 209.523C187.769 209.523 185.651 208.967 183.974 207.857C182.297 206.746 181.235 205.123 180.789 202.989L184.448 202.074C184.796 203.424 185.455 204.437 186.424 205.112C187.404 205.787 188.684 206.125 190.263 206.125C192.06 206.125 193.487 205.744 194.543 204.982C195.61 204.208 196.144 203.283 196.144 202.205C196.144 201.333 195.839 200.604 195.229 200.016C194.619 199.417 193.683 198.97 192.419 198.676L188.238 197.696C185.94 197.152 184.252 196.308 183.174 195.164C182.106 194.01 181.573 192.567 181.573 190.835C181.573 189.42 181.97 188.167 182.765 187.078C183.571 185.989 184.666 185.134 186.049 184.513C187.443 183.893 189.022 183.582 190.786 183.582C193.269 183.582 195.218 184.127 196.634 185.216C198.06 186.305 199.073 187.742 199.672 189.528ZM219.393 209V175.545H223.444V190.443H241.282V175.545H245.333V209H241.282V194.037H223.444V209H219.393ZM260.305 209.588C258.715 209.588 257.272 209.289 255.976 208.69C254.68 208.08 253.651 207.203 252.888 206.06C252.126 204.905 251.745 203.511 251.745 201.878C251.745 200.44 252.028 199.275 252.594 198.382C253.161 197.478 253.917 196.77 254.865 196.259C255.812 195.747 256.858 195.366 258.001 195.115C259.156 194.854 260.315 194.647 261.481 194.494C263.005 194.298 264.241 194.151 265.189 194.053C266.147 193.944 266.844 193.765 267.28 193.514C267.726 193.264 267.949 192.828 267.949 192.207V192.077C267.949 190.465 267.508 189.213 266.626 188.32C265.755 187.427 264.432 186.98 262.657 186.98C260.816 186.98 259.373 187.383 258.328 188.189C257.282 188.995 256.547 189.855 256.123 190.77L252.464 189.463C253.117 187.938 253.988 186.751 255.077 185.902C256.177 185.042 257.375 184.443 258.671 184.105C259.978 183.757 261.263 183.582 262.526 183.582C263.332 183.582 264.258 183.68 265.303 183.876C266.359 184.062 267.378 184.448 268.358 185.036C269.349 185.624 270.171 186.512 270.824 187.699C271.478 188.886 271.805 190.476 271.805 192.469V209H267.949V205.602H267.753C267.492 206.147 267.056 206.729 266.447 207.35C265.837 207.971 265.025 208.499 264.013 208.935C263 209.37 261.764 209.588 260.305 209.588ZM260.893 206.125C262.417 206.125 263.702 205.826 264.748 205.227C265.804 204.628 266.599 203.854 267.133 202.907C267.677 201.96 267.949 200.963 267.949 199.918V196.389C267.786 196.585 267.427 196.765 266.871 196.928C266.327 197.081 265.695 197.217 264.976 197.337C264.269 197.446 263.577 197.544 262.902 197.631C262.238 197.707 261.698 197.772 261.285 197.827C260.283 197.957 259.346 198.17 258.475 198.464C257.615 198.747 256.918 199.177 256.384 199.754C255.861 200.321 255.6 201.094 255.6 202.074C255.6 203.413 256.095 204.426 257.086 205.112C258.088 205.787 259.357 206.125 260.893 206.125ZM289.034 209.523C286.682 209.523 284.656 208.967 282.957 207.857C281.259 206.746 279.952 205.216 279.037 203.266C278.122 201.317 277.665 199.09 277.665 196.585C277.665 194.037 278.133 191.788 279.07 189.839C280.017 187.879 281.335 186.348 283.023 185.249C284.722 184.138 286.704 183.582 288.969 183.582C290.733 183.582 292.323 183.909 293.739 184.562C295.154 185.216 296.314 186.131 297.218 187.307C298.122 188.483 298.683 189.855 298.901 191.423H295.045C294.751 190.28 294.098 189.267 293.085 188.385C292.083 187.492 290.733 187.045 289.034 187.045C287.531 187.045 286.214 187.437 285.081 188.222C283.959 188.995 283.083 190.089 282.451 191.505C281.83 192.91 281.52 194.56 281.52 196.455C281.52 198.393 281.825 200.081 282.435 201.518C283.055 202.956 283.927 204.072 285.048 204.867C286.181 205.662 287.509 206.06 289.034 206.06C290.036 206.06 290.945 205.885 291.762 205.537C292.579 205.188 293.27 204.688 293.837 204.034C294.403 203.381 294.806 202.597 295.045 201.682H298.901C298.683 203.163 298.144 204.497 297.283 205.684C296.434 206.86 295.307 207.797 293.902 208.494C292.508 209.18 290.885 209.523 289.034 209.523ZM308.13 199.852L308.065 195.082H308.849L319.826 183.909H324.596L312.9 195.736H312.573L308.13 199.852ZM304.536 209V175.545H308.391V209H304.536ZM320.479 209L310.678 196.585L313.423 193.906L325.38 209H320.479ZM339.044 209.523C336.627 209.523 334.541 208.989 332.788 207.922C331.046 206.844 329.701 205.341 328.753 203.413C327.817 201.475 327.348 199.221 327.348 196.651C327.348 194.08 327.817 191.815 328.753 189.855C329.701 187.884 331.018 186.348 332.706 185.249C334.405 184.138 336.387 183.582 338.652 183.582C339.959 183.582 341.25 183.8 342.524 184.236C343.798 184.671 344.958 185.379 346.003 186.359C347.049 187.329 347.882 188.614 348.502 190.214C349.123 191.815 349.434 193.786 349.434 196.128V197.761H330.093V194.429H345.513C345.513 193.013 345.23 191.75 344.664 190.639C344.108 189.528 343.313 188.652 342.279 188.009C341.255 187.367 340.046 187.045 338.652 187.045C337.117 187.045 335.788 187.427 334.667 188.189C333.556 188.94 332.701 189.92 332.102 191.129C331.503 192.338 331.203 193.634 331.203 195.017V197.239C331.203 199.134 331.53 200.74 332.184 202.058C332.848 203.364 333.768 204.361 334.944 205.047C336.12 205.722 337.487 206.06 339.044 206.06C340.057 206.06 340.972 205.918 341.789 205.635C342.616 205.341 343.33 204.905 343.929 204.328C344.528 203.74 344.99 203.01 345.317 202.139L349.042 203.185C348.65 204.448 347.991 205.559 347.065 206.517C346.139 207.464 344.996 208.205 343.635 208.739C342.273 209.261 340.743 209.523 339.044 209.523ZM355.298 209V183.909H359.022V187.699H359.284C359.741 186.457 360.569 185.45 361.767 184.677C362.965 183.904 364.315 183.517 365.818 183.517C366.101 183.517 366.455 183.522 366.88 183.533C367.304 183.544 367.626 183.561 367.843 183.582V187.503C367.713 187.47 367.413 187.421 366.945 187.356C366.488 187.28 366.003 187.241 365.491 187.241C364.271 187.241 363.182 187.497 362.224 188.009C361.277 188.51 360.525 189.207 359.97 190.1C359.425 190.982 359.153 191.99 359.153 193.122V209H355.298ZM379.797 209.588C378.207 209.588 376.764 209.289 375.468 208.69C374.172 208.08 373.143 207.203 372.381 206.06C371.618 204.905 371.237 203.511 371.237 201.878C371.237 200.44 371.52 199.275 372.086 198.382C372.653 197.478 373.41 196.77 374.357 196.259C375.305 195.747 376.35 195.366 377.493 195.115C378.648 194.854 379.808 194.647 380.973 194.494C382.497 194.298 383.733 194.151 384.681 194.053C385.639 193.944 386.336 193.765 386.772 193.514C387.218 193.264 387.442 192.828 387.442 192.207V192.077C387.442 190.465 387.001 189.213 386.118 188.32C385.247 187.427 383.924 186.98 382.149 186.98C380.309 186.98 378.866 187.383 377.82 188.189C376.775 188.995 376.04 189.855 375.615 190.77L371.956 189.463C372.609 187.938 373.48 186.751 374.569 185.902C375.669 185.042 376.867 184.443 378.163 184.105C379.47 183.757 380.755 183.582 382.018 183.582C382.824 183.582 383.75 183.68 384.795 183.876C385.852 184.062 386.87 184.448 387.85 185.036C388.841 185.624 389.663 186.512 390.317 187.699C390.97 188.886 391.297 190.476 391.297 192.469V209H387.442V205.602H387.246C386.984 206.147 386.549 206.729 385.939 207.35C385.329 207.971 384.518 208.499 383.505 208.935C382.492 209.37 381.256 209.588 379.797 209.588ZM380.385 206.125C381.909 206.125 383.194 205.826 384.24 205.227C385.296 204.628 386.091 203.854 386.625 202.907C387.169 201.96 387.442 200.963 387.442 199.918V196.389C387.278 196.585 386.919 196.765 386.363 196.928C385.819 197.081 385.187 197.217 384.469 197.337C383.761 197.446 383.069 197.544 382.394 197.631C381.73 197.707 381.191 197.772 380.777 197.827C379.775 197.957 378.838 198.17 377.967 198.464C377.107 198.747 376.41 199.177 375.876 199.754C375.354 200.321 375.092 201.094 375.092 202.074C375.092 203.413 375.588 204.426 376.579 205.112C377.581 205.787 378.849 206.125 380.385 206.125ZM402.188 193.906V209H398.333V183.909H402.058V187.83H402.384C402.972 186.555 403.865 185.532 405.063 184.759C406.261 183.974 407.808 183.582 409.702 183.582C411.401 183.582 412.888 183.931 414.162 184.628C415.436 185.314 416.427 186.359 417.135 187.764C417.843 189.158 418.197 190.922 418.197 193.057V209H414.342V193.318C414.342 191.347 413.83 189.812 412.806 188.712C411.782 187.601 410.378 187.045 408.592 187.045C407.361 187.045 406.261 187.312 405.292 187.846C404.334 188.379 403.577 189.158 403.021 190.182C402.466 191.205 402.188 192.447 402.188 193.906ZM435.369 218.932C433.507 218.932 431.906 218.692 430.567 218.213C429.227 217.745 428.111 217.124 427.218 216.351C426.336 215.589 425.633 214.772 425.111 213.901L428.182 211.744C428.53 212.202 428.971 212.724 429.505 213.312C430.038 213.911 430.768 214.429 431.694 214.864C432.63 215.311 433.855 215.534 435.369 215.534C437.395 215.534 439.066 215.044 440.384 214.064C441.702 213.084 442.361 211.548 442.361 209.457V204.361H442.034C441.751 204.818 441.348 205.384 440.825 206.06C440.313 206.724 439.573 207.317 438.604 207.84C437.645 208.352 436.349 208.608 434.716 208.608C432.69 208.608 430.872 208.129 429.26 207.17C427.659 206.212 426.39 204.818 425.454 202.989C424.528 201.159 424.065 198.937 424.065 196.324C424.065 193.754 424.517 191.516 425.421 189.61C426.325 187.693 427.583 186.212 429.194 185.167C430.806 184.111 432.668 183.582 434.781 183.582C436.415 183.582 437.711 183.855 438.669 184.399C439.638 184.933 440.379 185.543 440.89 186.229C441.413 186.904 441.816 187.459 442.099 187.895H442.491V183.909H446.216V209.719C446.216 211.875 445.726 213.628 444.746 214.979C443.776 216.34 442.47 217.336 440.825 217.968C439.192 218.611 437.373 218.932 435.369 218.932ZM435.238 205.145C436.785 205.145 438.092 204.791 439.159 204.083C440.226 203.375 441.037 202.357 441.593 201.028C442.148 199.7 442.426 198.11 442.426 196.259C442.426 194.451 442.154 192.855 441.609 191.472C441.065 190.089 440.259 189.006 439.192 188.222C438.124 187.437 436.807 187.045 435.238 187.045C433.605 187.045 432.244 187.459 431.155 188.287C430.077 189.115 429.265 190.225 428.721 191.619C428.187 193.013 427.92 194.56 427.92 196.259C427.92 198.001 428.193 199.542 428.737 200.881C429.292 202.21 430.109 203.255 431.187 204.018C432.276 204.769 433.627 205.145 435.238 205.145ZM453.273 209V183.909H456.997V187.699H457.258C457.716 186.457 458.543 185.45 459.741 184.677C460.939 183.904 462.29 183.517 463.792 183.517C464.076 183.517 464.43 183.522 464.854 183.533C465.279 183.544 465.6 183.561 465.818 183.582V187.503C465.687 187.47 465.388 187.421 464.92 187.356C464.462 187.28 463.978 187.241 463.466 187.241C462.246 187.241 461.157 187.497 460.199 188.009C459.251 188.51 458.5 189.207 457.944 190.1C457.4 190.982 457.128 191.99 457.128 193.122V209H453.273ZM470.388 209V183.909H474.243V209H470.388ZM472.348 179.727C471.597 179.727 470.949 179.471 470.404 178.96C469.871 178.448 469.604 177.832 469.604 177.114C469.604 176.395 469.871 175.78 470.404 175.268C470.949 174.756 471.597 174.5 472.348 174.5C473.099 174.5 473.742 174.756 474.276 175.268C474.82 175.78 475.092 176.395 475.092 177.114C475.092 177.832 474.82 178.448 474.276 178.96C473.742 179.471 473.099 179.727 472.348 179.727ZM492.477 183.909V187.176H478.952V183.909H492.477ZM483.003 209V180.446C483.003 179.009 483.34 177.811 484.015 176.852C484.691 175.894 485.567 175.175 486.645 174.696C487.724 174.217 488.862 173.977 490.059 173.977C491.007 173.977 491.78 174.054 492.379 174.206C492.978 174.358 493.425 174.5 493.719 174.631L492.608 177.963C492.412 177.898 492.14 177.816 491.791 177.718C491.453 177.62 491.007 177.571 490.452 177.571C489.177 177.571 488.257 177.892 487.691 178.535C487.135 179.177 486.858 180.119 486.858 181.361V209H483.003ZM509.053 183.909V187.176H495.528V183.909H509.053ZM499.579 209V180.446C499.579 179.009 499.916 177.811 500.592 176.852C501.267 175.894 502.143 175.175 503.222 174.696C504.3 174.217 505.438 173.977 506.636 173.977C507.583 173.977 508.356 174.054 508.955 174.206C509.554 174.358 510.001 174.5 510.295 174.631L509.184 177.963C508.988 177.898 508.716 177.816 508.367 177.718C508.03 177.62 507.583 177.571 507.028 177.571C505.754 177.571 504.833 177.892 504.267 178.535C503.712 179.177 503.434 180.119 503.434 181.361V209H499.579ZM531.196 189.528L527.733 190.509C527.515 189.931 527.194 189.371 526.769 188.826C526.355 188.271 525.789 187.813 525.07 187.454C524.351 187.094 523.431 186.915 522.309 186.915C520.774 186.915 519.494 187.269 518.471 187.977C517.458 188.674 516.951 189.561 516.951 190.639C516.951 191.598 517.3 192.354 517.997 192.91C518.694 193.465 519.783 193.928 521.264 194.298L524.988 195.213C527.232 195.758 528.903 196.591 530.003 197.712C531.103 198.823 531.653 200.255 531.653 202.009C531.653 203.446 531.239 204.731 530.412 205.864C529.595 206.996 528.451 207.889 526.981 208.543C525.511 209.196 523.801 209.523 521.852 209.523C519.293 209.523 517.175 208.967 515.498 207.857C513.82 206.746 512.759 205.123 512.312 202.989L515.971 202.074C516.32 203.424 516.979 204.437 517.948 205.112C518.928 205.787 520.208 206.125 521.787 206.125C523.583 206.125 525.01 205.744 526.066 204.982C527.134 204.208 527.667 203.283 527.667 202.205C527.667 201.333 527.362 200.604 526.752 200.016C526.143 199.417 525.206 198.97 523.943 198.676L519.761 197.696C517.463 197.152 515.775 196.308 514.697 195.164C513.63 194.01 513.096 192.567 513.096 190.835C513.096 189.42 513.494 188.167 514.289 187.078C515.095 185.989 516.189 185.134 517.572 184.513C518.966 183.893 520.545 183.582 522.309 183.582C524.792 183.582 526.742 184.127 528.157 185.216C529.584 186.305 530.597 187.742 531.196 189.528ZM560.521 218.932C558.659 218.932 557.058 218.692 555.719 218.213C554.379 217.745 553.263 217.124 552.37 216.351C551.488 215.589 550.786 214.772 550.263 213.901L553.334 211.744C553.682 212.202 554.124 212.724 554.657 213.312C555.191 213.911 555.92 214.429 556.846 214.864C557.783 215.311 559.008 215.534 560.521 215.534C562.547 215.534 564.219 215.044 565.536 214.064C566.854 213.084 567.513 211.548 567.513 209.457V204.361H567.186C566.903 204.818 566.5 205.384 565.977 206.06C565.466 206.724 564.725 207.317 563.756 207.84C562.798 208.352 561.502 208.608 559.868 208.608C557.843 208.608 556.024 208.129 554.412 207.17C552.811 206.212 551.543 204.818 550.606 202.989C549.68 201.159 549.218 198.937 549.218 196.324C549.218 193.754 549.669 191.516 550.573 189.61C551.477 187.693 552.735 186.212 554.347 185.167C555.959 184.111 557.821 183.582 559.933 183.582C561.567 183.582 562.863 183.855 563.821 184.399C564.79 184.933 565.531 185.543 566.043 186.229C566.566 186.904 566.968 187.459 567.252 187.895H567.644V183.909H571.368V209.719C571.368 211.875 570.878 213.628 569.898 214.979C568.929 216.34 567.622 217.336 565.977 217.968C564.344 218.611 562.525 218.932 560.521 218.932ZM560.391 205.145C561.937 205.145 563.244 204.791 564.311 204.083C565.378 203.375 566.19 202.357 566.745 201.028C567.301 199.7 567.578 198.11 567.578 196.259C567.578 194.451 567.306 192.855 566.762 191.472C566.217 190.089 565.411 189.006 564.344 188.222C563.277 187.437 561.959 187.045 560.391 187.045C558.757 187.045 557.396 187.459 556.307 188.287C555.229 189.115 554.418 190.225 553.873 191.619C553.339 193.013 553.073 194.56 553.073 196.259C553.073 198.001 553.345 199.542 553.889 200.881C554.445 202.21 555.262 203.255 556.34 204.018C557.429 204.769 558.779 205.145 560.391 205.145ZM588.945 209.523C586.527 209.523 584.442 208.989 582.688 207.922C580.946 206.844 579.601 205.341 578.654 203.413C577.717 201.475 577.249 199.221 577.249 196.651C577.249 194.08 577.717 191.815 578.654 189.855C579.601 187.884 580.919 186.348 582.607 185.249C584.306 184.138 586.288 183.582 588.553 183.582C589.86 183.582 591.15 183.8 592.424 184.236C593.698 184.671 594.858 185.379 595.904 186.359C596.949 187.329 597.782 188.614 598.403 190.214C599.024 191.815 599.334 193.786 599.334 196.128V197.761H579.993V194.429H595.414C595.414 193.013 595.13 191.75 594.564 190.639C594.009 189.528 593.214 188.652 592.179 188.009C591.155 187.367 589.947 187.045 588.553 187.045C587.017 187.045 585.689 187.427 584.567 188.189C583.456 188.94 582.601 189.92 582.002 191.129C581.403 192.338 581.104 193.634 581.104 195.017V197.239C581.104 199.134 581.431 200.74 582.084 202.058C582.748 203.364 583.669 204.361 584.845 205.047C586.021 205.722 587.387 206.06 588.945 206.06C589.958 206.06 590.872 205.918 591.689 205.635C592.517 205.341 593.23 204.905 593.829 204.328C594.428 203.74 594.891 203.01 595.218 202.139L598.942 203.185C598.55 204.448 597.891 205.559 596.965 206.517C596.04 207.464 594.896 208.205 593.535 208.739C592.174 209.261 590.644 209.523 588.945 209.523ZM610.883 209L603.238 183.909H607.289L612.713 203.119H612.974L618.332 183.909H622.448L627.741 203.054H628.002L633.426 183.909H637.477L629.832 209H626.042L620.553 189.724H620.161L614.673 209H610.883ZM651.913 209.523C649.648 209.523 647.66 208.984 645.951 207.906C644.252 206.827 642.923 205.319 641.965 203.381C641.017 201.442 640.544 199.177 640.544 196.585C640.544 193.972 641.017 191.69 641.965 189.741C642.923 187.791 644.252 186.278 645.951 185.2C647.66 184.121 649.648 183.582 651.913 183.582C654.178 183.582 656.16 184.121 657.859 185.2C659.569 186.278 660.897 187.791 661.845 189.741C662.803 191.69 663.282 193.972 663.282 196.585C663.282 199.177 662.803 201.442 661.845 203.381C660.897 205.319 659.569 206.827 657.859 207.906C656.16 208.984 654.178 209.523 651.913 209.523ZM651.913 206.06C653.634 206.06 655.049 205.619 656.16 204.737C657.271 203.854 658.093 202.695 658.627 201.257C659.16 199.82 659.427 198.262 659.427 196.585C659.427 194.908 659.16 193.345 658.627 191.897C658.093 190.449 657.271 189.278 656.16 188.385C655.049 187.492 653.634 187.045 651.913 187.045C650.192 187.045 648.777 187.492 647.666 188.385C646.555 189.278 645.733 190.449 645.199 191.897C644.666 193.345 644.399 194.908 644.399 196.585C644.399 198.262 644.666 199.82 645.199 201.257C645.733 202.695 646.555 203.854 647.666 204.737C648.777 205.619 650.192 206.06 651.913 206.06ZM669.167 209V183.909H672.892V187.699H673.153C673.61 186.457 674.438 185.45 675.636 184.677C676.834 183.904 678.184 183.517 679.687 183.517C679.97 183.517 680.324 183.522 680.749 183.533C681.173 183.544 681.495 183.561 681.713 183.582V187.503C681.582 187.47 681.282 187.421 680.814 187.356C680.357 187.28 679.872 187.241 679.36 187.241C678.141 187.241 677.052 187.497 676.093 188.009C675.146 188.51 674.394 189.207 673.839 190.1C673.294 190.982 673.022 191.99 673.022 193.122V209H669.167ZM694.993 209.523C692.902 209.523 691.056 208.995 689.455 207.938C687.855 206.871 686.602 205.368 685.698 203.43C684.794 201.48 684.343 199.177 684.343 196.52C684.343 193.884 684.794 191.598 685.698 189.659C686.602 187.721 687.86 186.223 689.472 185.167C691.084 184.111 692.946 183.582 695.058 183.582C696.692 183.582 697.982 183.855 698.93 184.399C699.888 184.933 700.618 185.543 701.119 186.229C701.631 186.904 702.028 187.459 702.311 187.895H702.638V175.545H706.493V209H702.769V205.145H702.311C702.028 205.602 701.625 206.179 701.102 206.876C700.58 207.562 699.834 208.178 698.865 208.722C697.895 209.256 696.605 209.523 694.993 209.523ZM695.516 206.06C697.062 206.06 698.369 205.657 699.436 204.851C700.503 204.034 701.315 202.907 701.87 201.469C702.426 200.021 702.703 198.349 702.703 196.455C702.703 194.581 702.431 192.942 701.887 191.538C701.342 190.122 700.536 189.022 699.469 188.238C698.402 187.443 697.084 187.045 695.516 187.045C693.882 187.045 692.521 187.465 691.432 188.303C690.354 189.131 689.543 190.258 688.998 191.685C688.464 193.1 688.198 194.69 688.198 196.455C688.198 198.241 688.47 199.863 689.014 201.322C689.57 202.771 690.387 203.925 691.465 204.786C692.554 205.635 693.904 206.06 695.516 206.06ZM724.609 209.523C722.191 209.523 720.106 208.989 718.352 207.922C716.61 206.844 715.265 205.341 714.318 203.413C713.381 201.475 712.913 199.221 712.913 196.651C712.913 194.08 713.381 191.815 714.318 189.855C715.265 187.884 716.583 186.348 718.271 185.249C719.97 184.138 721.952 183.582 724.217 183.582C725.524 183.582 726.814 183.8 728.088 184.236C729.362 184.671 730.522 185.379 731.568 186.359C732.613 187.329 733.446 188.614 734.067 190.214C734.688 191.815 734.998 193.786 734.998 196.128V197.761H715.657V194.429H731.078C731.078 193.013 730.794 191.75 730.228 190.639C729.673 189.528 728.878 188.652 727.843 188.009C726.82 187.367 725.611 187.045 724.217 187.045C722.681 187.045 721.353 187.427 720.231 188.189C719.12 188.94 718.265 189.92 717.666 191.129C717.067 192.338 716.768 193.634 716.768 195.017V197.239C716.768 199.134 717.095 200.74 717.748 202.058C718.412 203.364 719.333 204.361 720.509 205.047C721.685 205.722 723.052 206.06 724.609 206.06C725.622 206.06 726.536 205.918 727.353 205.635C728.181 205.341 728.894 204.905 729.493 204.328C730.092 203.74 730.555 203.01 730.882 202.139L734.606 203.185C734.214 204.448 733.555 205.559 732.629 206.517C731.704 207.464 730.56 208.205 729.199 208.739C727.838 209.261 726.308 209.523 724.609 209.523ZM744.718 193.906V209H740.862V183.909H744.587V187.83H744.914C745.502 186.555 746.395 185.532 747.593 184.759C748.79 183.974 750.337 183.582 752.232 183.582C753.931 183.582 755.417 183.931 756.691 184.628C757.965 185.314 758.956 186.359 759.664 187.764C760.372 189.158 760.726 190.922 760.726 193.057V209H756.871V193.318C756.871 191.347 756.359 189.812 755.335 188.712C754.312 187.601 752.907 187.045 751.121 187.045C749.89 187.045 748.79 187.312 747.821 187.846C746.863 188.379 746.106 189.158 745.551 190.182C744.995 191.205 744.718 192.447 744.718 193.906ZM770.58 209.261C769.774 209.261 769.083 208.973 768.506 208.396C767.929 207.818 767.64 207.127 767.64 206.321C767.64 205.515 767.929 204.824 768.506 204.246C769.083 203.669 769.774 203.381 770.58 203.381C771.386 203.381 772.078 203.669 772.655 204.246C773.232 204.824 773.521 205.515 773.521 206.321C773.521 206.855 773.384 207.345 773.112 207.791C772.851 208.238 772.497 208.597 772.05 208.869C771.615 209.131 771.125 209.261 770.58 209.261Z" fill="black"/>
<path d="M866.887 745.425C862.855 746.265 858.031 748.113 857.557 752.483C857.003 757.357 862.618 760.214 867.125 761.223C884.127 765.172 901.683 765.676 919.159 766.181C1011.52 768.533 1103.89 768.954 1196.25 767.357C1194.91 755.341 1181.46 750.13 1170.31 747.861C1122.39 738.114 1072.81 743.66 1025.76 733.324C976.174 722.316 915.837 734.753 866.887 745.425Z" fill="url(#paint0_linear_805_2702)"/>
<path d="M866.887 745.425C862.855 746.265 858.031 748.113 857.557 752.483C857.003 757.357 862.618 760.214 867.125 761.223C884.127 765.172 901.683 765.676 919.159 766.181C1011.52 768.533 1103.89 768.954 1196.25 767.357C1194.91 755.341 1181.46 750.13 1170.31 747.861C1122.39 738.114 1072.81 743.66 1025.76 733.324C976.174 722.316 915.837 734.753 866.887 745.425Z" fill="url(#paint1_linear_805_2702)"/>
<path d="M1118.43 666.264C1119.46 665.928 1120.56 666.264 1121.59 666.601C1126.1 668.197 1130.53 670.298 1134.48 673.071C1136.46 674.416 1138.44 675.928 1139.38 678.197C1140.25 680.298 1140.18 682.651 1140.02 684.836C1138.59 711.894 1137.25 739.036 1135.83 766.095C1135.75 767.859 1135.51 769.793 1134.24 770.885C1132.66 772.145 1130.45 771.305 1128.71 770.465C1111.71 762.565 1094.78 754.582 1077.78 746.683C1069.64 742.902 1061.26 738.868 1055.25 731.893C1059.83 721.137 1069.48 713.995 1078.34 706.768C1092.1 695.507 1104.75 682.567 1115.9 668.449C1116.53 667.609 1117.32 666.6 1118.43 666.264Z" fill="#DDC199"/>
<path d="M1198.54 526.855C1194.35 525.847 1190.07 524.838 1185.88 523.83C1161.21 571.98 1139.39 621.812 1120.56 672.904C1124.91 675.845 1130.69 678.87 1134.88 675.677C1136.62 674.332 1137.65 672.147 1138.59 670.047C1159.95 622.988 1179.95 575.258 1198.54 526.855Z" fill="#BDB39B"/>
<g opacity="0.26">
<path opacity="0.26" d="M1120.79 761.137C1120.71 762.062 1122.05 762.398 1122.21 761.474C1125.61 734.163 1130.44 707.357 1136.68 680.634C1137.08 678.954 1134.63 678.449 1134.23 680.13C1127.75 706.6 1123.24 733.827 1120.79 761.137Z" fill="#272525"/>
<path opacity="0.26" d="M1094 749.121C1104.43 725.76 1115.5 702.735 1127.21 680.046C1127.92 678.701 1125.86 677.609 1125.15 678.954C1112.97 701.811 1101.98 725.34 1091.94 749.289C1092.1 749.457 1092.18 749.625 1092.26 749.793C1092.81 749.373 1093.36 749.205 1094 749.121Z" fill="#272525"/>
<path opacity="0.26" d="M1076.98 733.743C1094.46 716.264 1110.04 696.853 1123.64 675.844C1124.51 674.416 1122.29 673.239 1121.42 674.668C1108.06 695.592 1092.72 714.92 1075.56 732.398C1074.69 733.322 1076.11 734.667 1076.98 733.743Z" fill="#272525"/>
</g>
<path d="M955.765 690.213C955.845 688.953 956.003 687.608 956.081 686.347C945.643 678.784 927.297 681.221 916.226 685.087C904.364 689.204 904.364 696.935 904.522 710.044C904.601 717.439 905.234 725.759 910.611 730.548C914.723 734.246 920.496 734.75 925.874 735.086C930.697 735.422 935.442 735.674 940.266 736.01C943.587 736.178 947.303 736.263 949.913 733.993C952.523 731.641 952.918 727.691 953.235 724.077C954.104 712.733 954.974 701.473 955.765 690.213Z" fill="#2F3F47"/>
<path d="M968.506 690.213C968.427 688.953 968.269 687.608 968.189 686.347C978.628 678.784 996.974 681.221 1008.05 685.087C1019.91 689.204 1019.91 696.935 1019.75 710.044C1019.67 717.439 1019.04 725.759 1013.66 730.548C1009.55 734.246 1003.77 734.75 998.397 735.086C993.574 735.422 988.829 735.674 984.005 736.01C980.684 736.178 976.967 736.263 974.358 733.993C971.748 731.641 971.353 727.691 971.037 724.077C970.246 712.733 969.376 701.473 968.506 690.213Z" fill="#2F3F47"/>
<path d="M879.448 662.148C876.838 662.735 874.308 663.576 871.856 664.668C870.037 665.424 868.219 666.433 866.953 667.945C865.214 670.13 864.739 673.156 864.423 676.097C864.028 679.963 863.869 683.828 863.949 687.693C863.949 690.97 864.186 694.332 865.768 697.105C867.982 700.971 872.331 702.735 876.443 703.827C884.272 705.929 892.417 706.432 900.483 706.853C949.274 709.374 998.224 707.692 1046.78 701.895C1048.75 701.643 1050.97 701.307 1052.31 699.71C1053.1 698.786 1053.5 697.525 1053.89 696.348C1056.43 687.777 1058.09 676.097 1052.63 668.114C1047.96 661.307 1039.34 665.172 1032.86 665.088C1026.22 665.004 1019.5 664.416 1012.85 664.164C999.884 663.576 986.916 662.987 973.947 662.567C955.68 661.895 937.334 661.307 919.066 660.803C906.73 660.551 892.18 659.122 879.448 662.148Z" fill="#516770"/>
<path d="M984.308 477.695C1017.44 477.863 1050.5 478.62 1083.63 479.376C1082.84 460.637 1081.57 441.897 1077.78 423.578C1071.22 391.478 1056.19 360.134 1030.81 341.395C991.9 312.656 930.14 316.437 888.228 344.84C870.593 356.772 856.439 373.159 849.005 393.242C840.465 416.183 838.171 441.225 836.827 465.847C836.668 469.124 836.511 472.317 836.353 475.594C885.539 473.577 935.042 477.527 984.308 477.695Z" fill="#EAF1F2"/>
<path d="M981.657 487.108C933.103 487.024 884.39 483.327 835.836 485.175C833.464 541.141 835.678 597.359 842.479 652.989C843.428 660.636 844.614 668.618 849.359 674.668C856.713 683.996 869.445 679.878 879.33 679.878C896.015 679.878 913.175 680.635 930.019 681.055C961.809 681.811 993.361 681.895 1024.99 678.114C1040.02 676.35 1070.38 681.223 1077.58 666.853C1083.51 655.173 1081.06 631.476 1081.93 618.451C1082.96 602.989 1083.75 587.611 1084.22 572.149C1085.09 544.334 1084.93 516.519 1083.91 488.62C1049.9 487.948 1015.74 487.108 981.657 487.108Z" fill="#E2ECED"/>
<path d="M1096.33 577.696C1096.96 577.107 1097.04 576.099 1097.12 575.259C1098.78 551.982 1100.2 528.704 1101.23 505.427C1101.31 503.41 1101.31 501.058 1099.81 499.713C1098.7 498.789 1097.28 498.705 1095.85 498.705C1090.95 498.621 1086.13 498.537 1081.22 498.537C1078.14 525.007 1076.88 551.645 1077.51 578.284C1082.96 578.284 1088.34 578.368 1093.8 578.368C1094.67 578.368 1095.62 578.368 1096.33 577.696Z" fill="#2F3F47"/>
<path d="M1121.54 631.31C1122.17 629.378 1122.88 627.361 1124.3 625.932C1125.41 624.84 1126.91 624.167 1128.34 623.663C1134.5 621.31 1140.83 619.546 1147.24 618.369C1152.22 621.983 1156.73 626.269 1160.6 631.226C1161.31 632.151 1162.02 633.159 1162.18 634.336C1162.34 635.26 1162.1 636.184 1161.87 637.109C1159.33 647.445 1156.88 657.781 1154.35 668.117C1150.64 668.621 1146.92 668.705 1143.28 668.201C1144.71 661.898 1146.13 655.596 1147.47 649.377C1148.82 643.411 1149.85 636.1 1145.58 631.899C1141.23 633.075 1136.96 634.336 1132.61 635.512C1131.89 635.68 1131.1 635.932 1130.47 636.436C1129.76 637.109 1129.44 638.117 1129.13 639.041C1127.31 644.924 1125.96 650.974 1125.01 657.109C1122.25 656.268 1119.48 655.511 1116.71 654.671C1116.47 646.688 1119 638.874 1121.54 631.31Z" fill="#2F3F47"/>
<path d="M1155.14 622.233C1155.38 621.981 1155.46 621.646 1155.54 621.393C1156.33 617.612 1157.12 613.83 1157.99 610.133C1152.45 608.788 1146.76 607.863 1141.15 607.359C1140.28 610.469 1139.72 613.746 1139.49 617.023C1139.41 617.696 1139.41 618.536 1139.88 619.04C1140.2 619.376 1140.59 619.46 1140.99 619.629C1145.18 620.973 1149.53 621.981 1153.96 622.569C1154.27 622.485 1154.75 622.57 1155.14 622.233Z" fill="#516770"/>
<path d="M1160.69 607.529C1164.01 601.562 1161.32 585.848 1161.32 579.546C1161.24 570.89 1161.24 562.151 1159.34 553.748C1157.44 545.344 1153.57 537.109 1147.16 531.815C1143.53 528.79 1139.26 526.858 1134.83 525.261C1121.62 520.471 1107.47 518.875 1093.63 520.639C1092.52 520.807 1091.34 520.975 1090.54 521.816C1089.67 522.656 1089.52 524 1089.36 525.261C1088.73 530.051 1087.86 535.345 1088.09 540.218C1088.49 548.79 1086.83 546.437 1092.68 548.874C1097.19 550.723 1105.65 549.21 1110.79 550.471C1116.8 551.899 1122.65 554.084 1128.5 556.269C1132.22 557.613 1136.17 559.294 1138.07 562.907C1139.1 564.84 1139.41 567.193 1139.65 569.462C1141.08 582.908 1141.71 596.436 1141.63 609.966C1141.63 612.318 1157.92 611.142 1160.05 608.537C1160.29 608.201 1160.45 607.865 1160.69 607.529Z" fill="#E2ECED"/>
<g opacity="0.15">
<path opacity="0.15" d="M1133 529.129C1132.53 537.196 1130.55 544.507 1127.55 551.902C1126.99 553.33 1128.65 554.423 1129.52 553.162C1134.27 546.104 1136.72 537.7 1137.59 529.129C1137.91 526.104 1133.24 526.019 1133 529.129Z" fill="#272525"/>
<path opacity="0.15" d="M1145.11 534.927C1143.76 542.743 1140.44 547.869 1135.22 553.415C1134.51 554.171 1135.46 555.431 1136.25 554.843C1139.81 552.49 1143.13 550.978 1145.66 547.197C1148.03 543.667 1149.61 539.885 1150.09 535.6C1150.4 532.659 1145.66 531.986 1145.11 534.927Z" fill="#272525"/>
</g>
<path d="M828.075 499.209C827.442 499.797 827.364 500.806 827.284 501.646C825.624 524.923 824.2 548.2 823.172 571.477C823.093 573.494 823.093 575.847 824.596 577.191C825.703 578.116 827.126 578.2 828.549 578.2C833.452 578.284 838.276 578.368 843.179 578.368C846.263 551.898 847.528 525.259 846.896 498.621C841.439 498.621 836.062 498.537 830.606 498.537C829.736 498.537 828.708 498.537 828.075 499.209Z" fill="#2F3F47"/>
<path d="M766.78 470.555C767.017 472.572 767.254 474.756 766.542 476.605C765.989 478.117 764.961 479.378 763.854 480.555C759.346 485.512 754.444 490.135 749.145 494.252C743.135 493.412 737.284 491.647 731.827 489.042C730.799 488.538 729.692 488.034 729.059 487.025C728.585 486.269 728.348 485.344 728.189 484.42C726.133 474 723.998 463.496 721.942 453.076C725.026 450.891 728.348 449.042 731.827 447.697C733.172 454 734.595 460.302 735.939 466.605C737.283 472.571 739.418 479.63 744.954 481.311C748.354 478.202 751.676 475.092 755.076 471.983C755.63 471.479 756.262 470.891 756.579 470.135C756.974 469.21 756.816 468.117 756.657 467.109C755.788 460.975 754.522 454.924 752.783 448.958C755.63 448.37 758.397 447.782 761.244 447.193C764.882 454.336 765.831 462.571 766.78 470.555Z" fill="#2F3F47"/>
<path d="M740.509 494.502C740.43 494.838 740.509 495.175 740.509 495.427C741.379 499.208 742.249 502.906 743.039 506.687C748.575 505.258 754.031 503.41 759.329 501.225C758.855 498.031 757.985 494.838 756.799 491.813C756.562 491.141 756.246 490.468 755.613 490.216C755.218 490.048 754.822 490.132 754.347 490.216C749.998 490.973 745.728 492.149 741.537 493.662C741.141 493.83 740.667 494.082 740.509 494.502Z" fill="#516770"/>
<path d="M741.714 510.303C741.16 517.193 750.175 529.966 752.864 535.68C756.501 543.412 760.218 551.227 765.437 557.865C770.657 564.504 777.536 570.05 785.523 571.73C790.031 572.739 794.696 572.487 799.283 571.815C813.122 569.882 826.486 564.672 838.11 556.521C839.059 555.848 840.008 555.176 840.404 554C840.799 552.823 840.404 551.563 840.087 550.302C838.585 545.681 837.24 540.555 834.947 536.269C830.993 528.79 833.524 530.134 827.197 530.638C822.374 531.059 815.415 536.437 810.275 537.782C804.265 539.378 798.097 540.134 792.008 540.975C788.133 541.479 783.863 541.899 780.62 539.546C778.88 538.286 777.615 536.353 776.508 534.42C769.628 523.075 763.381 511.227 757.767 499.043C756.818 496.942 742.742 505.681 741.872 509.042C741.793 509.546 741.714 509.883 741.714 510.303Z" fill="#E2ECED"/>
<g opacity="0.15">
<path opacity="0.15" d="M799.187 567.442C796.261 559.963 794.996 552.484 794.521 544.417C794.442 542.821 792.465 542.653 792.228 544.25C790.962 552.821 792.228 561.476 795.075 569.543C796.103 572.484 800.373 570.299 799.187 567.442Z" fill="#272525"/>
<path opacity="0.15" d="M785.995 568.032C783.939 560.385 784.73 554.251 787.102 546.772C787.419 545.764 786.074 545.091 785.521 545.931C783.386 549.713 781.013 552.654 780.302 557.192C779.669 561.477 779.827 565.595 781.251 569.628C782.2 572.569 786.707 570.889 785.995 568.032Z" fill="#272525"/>
</g>
<path d="M858.436 422.739C858.514 425.932 858.672 429.209 859.938 432.151C863.18 439.461 871.72 441.814 879.233 443.159C922.172 450.805 966.061 453.411 1009.24 447.612C1014.93 446.856 1020.63 445.932 1025.84 443.411C1031.06 440.89 1035.73 436.604 1037.63 430.974C1038.81 427.36 1038.89 423.495 1038.97 419.63C1039.05 415.764 1039.05 411.815 1039.13 407.949C1039.13 406.185 1039.13 404.42 1038.5 402.739C1037.78 400.974 1036.36 399.546 1034.86 398.453C1029.17 394.336 1021.97 393.411 1015.09 392.655C969.383 387.781 923.122 383.496 877.652 390.05C875.754 390.302 873.776 390.638 872.432 392.067C871.72 392.739 871.246 393.664 870.534 394.336C869.19 395.428 867.371 395.344 865.79 395.932C861.361 397.445 859.78 403.244 859.226 408.202C858.594 412.991 858.356 417.865 858.436 422.739Z" fill="#2F3F47"/>
<path opacity="0.2" d="M915.679 429.797C917.182 426.856 917.419 423.411 917.103 420.05C916.945 418.033 916.47 415.933 915.284 414.42C912.753 411.227 908.088 411.563 904.213 410.807C900.813 412.319 897.965 415.26 896.542 418.874C895.672 421.058 895.277 423.411 895.514 425.764C896.068 430.554 899.785 434.672 904.213 435.512C908.72 436.521 913.544 434.083 915.679 429.797Z" fill="#EAF1F2"/>
<path opacity="0.2" d="M990.983 429.797C992.485 426.856 992.723 423.411 992.406 420.05C992.248 418.033 991.774 415.933 990.587 414.42C988.057 411.227 983.392 411.563 979.517 410.807C976.116 412.319 973.269 415.26 971.846 418.874C970.976 421.058 970.581 423.411 970.818 425.764C971.371 430.554 975.088 434.672 979.517 435.512C983.945 436.521 988.768 434.083 990.983 429.797Z" fill="#EAF1F2"/>
<defs>
<linearGradient id="paint0_linear_805_2702" x1="857.571" y1="748.659" x2="1196.34" y2="748.659" gradientUnits="userSpaceOnUse">
<stop stop-color="#4D4D4D"/>
<stop offset="1"/>
</linearGradient>
<linearGradient id="paint1_linear_805_2702" x1="857.571" y1="748.659" x2="1196.34" y2="748.659" gradientUnits="userSpaceOnUse">
<stop/>
<stop offset="1"/>
</linearGradient>
</defs>
</svg>
