<svg width="1199" height="772" viewBox="0 0 1199 772" fill="none" xmlns="http://www.w3.org/2000/svg">
<path d="M697.596 387C697.845 387 698.094 386.994 698.346 386.983C701.281 386.864 704.147 385.952 706.7 384.325C709.254 382.698 711.418 380.404 713.01 377.638C724.934 357.669 739.566 339.908 756.379 324.997C766.558 315.881 777.194 307.405 787.478 299.207C814.013 278.066 839.001 258.155 852.872 230.643C883.116 170.652 847.5 87.0923 796.619 49.6186C739.549 7.58992 664.483 0.997367 591.865 0.133407C584.318 0.0439794 576.767 -0.000465902 569.211 3.68211e-06C438.368 0.05622 307.801 13.4339 179.119 39.968C136.33 48.814 91.5399 59.6506 55.547 85.9492C19.7678 112.092 -1.97922 153.261 0.142339 190.835C3.23996 245.687 55.1323 286.673 102.385 297.389C147.424 307.594 194.212 300.697 243.746 293.393C254.682 291.782 265.988 290.115 277.169 288.666C398.685 272.928 626.961 321.438 636.618 323.511L646.2 325.566L683.376 379.173C685.048 381.617 687.202 383.595 689.668 384.952C692.135 386.31 694.848 387.011 697.596 387Z" fill="white"/>
<path d="M97.858 103.545H101.909V127.46C101.909 129.595 101.517 131.408 100.733 132.9C99.9489 134.392 98.8435 135.524 97.4169 136.298C95.9903 137.071 94.3078 137.457 92.3693 137.457C90.5398 137.457 88.9117 137.125 87.4851 136.461C86.0585 135.786 84.9368 134.827 84.12 133.586C83.3033 132.344 82.8949 130.869 82.8949 129.159H86.8807C86.8807 130.107 87.1148 130.934 87.5831 131.642C88.0623 132.339 88.7157 132.884 89.5433 133.276C90.371 133.668 91.313 133.864 92.3693 133.864C93.5346 133.864 94.5256 133.619 95.3423 133.129C96.1591 132.638 96.7798 131.92 97.2045 130.972C97.6402 130.014 97.858 128.843 97.858 127.46V103.545ZM120.025 137.523C117.607 137.523 115.522 136.989 113.768 135.922C112.026 134.844 110.681 133.341 109.734 131.413C108.797 129.475 108.329 127.221 108.329 124.651C108.329 122.08 108.797 119.815 109.734 117.855C110.681 115.884 111.999 114.348 113.687 113.249C115.386 112.138 117.368 111.582 119.633 111.582C120.94 111.582 122.23 111.8 123.504 112.236C124.778 112.671 125.938 113.379 126.984 114.359C128.029 115.329 128.862 116.614 129.483 118.214C130.104 119.815 130.414 121.786 130.414 124.128V125.761H111.073V122.429H126.494C126.494 121.013 126.21 119.75 125.644 118.639C125.089 117.528 124.294 116.652 123.259 116.009C122.236 115.367 121.027 115.045 119.633 115.045C118.097 115.045 116.769 115.427 115.647 116.189C114.536 116.94 113.681 117.92 113.082 119.129C112.483 120.338 112.184 121.634 112.184 123.017V125.239C112.184 127.134 112.511 128.74 113.164 130.058C113.828 131.364 114.749 132.361 115.925 133.047C117.101 133.722 118.468 134.06 120.025 134.06C121.038 134.06 121.952 133.918 122.769 133.635C123.597 133.341 124.31 132.905 124.909 132.328C125.508 131.74 125.971 131.01 126.298 130.139L130.022 131.185C129.63 132.448 128.971 133.559 128.045 134.517C127.12 135.464 125.976 136.205 124.615 136.739C123.254 137.261 121.724 137.523 120.025 137.523ZM147.19 111.909V115.176H134.188V111.909H147.19ZM137.977 105.898H141.832V129.812C141.832 130.902 141.99 131.718 142.306 132.263C142.633 132.796 143.047 133.156 143.548 133.341C144.059 133.515 144.598 133.602 145.165 133.602C145.589 133.602 145.938 133.58 146.21 133.537C146.482 133.482 146.7 133.439 146.864 133.406L147.648 136.869C147.386 136.967 147.022 137.065 146.553 137.163C146.085 137.272 145.491 137.327 144.773 137.327C143.684 137.327 142.616 137.093 141.571 136.624C140.536 136.156 139.676 135.443 138.99 134.484C138.315 133.526 137.977 132.317 137.977 130.858V105.898ZM152.271 137V134.06L166.515 115.764V115.503H152.728V111.909H171.481V114.98L157.629 133.145V133.406H171.938V137H152.271ZM188.788 111.909V115.176H175.785V111.909H188.788ZM179.575 105.898H183.43V129.812C183.43 130.902 183.588 131.718 183.904 132.263C184.23 132.796 184.644 133.156 185.145 133.341C185.657 133.515 186.196 133.602 186.762 133.602C187.187 133.602 187.536 133.58 187.808 133.537C188.08 133.482 188.298 133.439 188.461 133.406L189.245 136.869C188.984 136.967 188.619 137.065 188.151 137.163C187.683 137.272 187.089 137.327 186.37 137.327C185.281 137.327 184.214 137.093 183.169 136.624C182.134 136.156 181.274 135.443 180.588 134.484C179.913 133.526 179.575 132.317 179.575 130.858V105.898ZM211.38 103.545V137H207.525V103.545H211.38ZM218.441 137V111.909H222.296V137H218.441ZM220.401 107.727C219.649 107.727 219.001 107.471 218.457 106.96C217.923 106.448 217.656 105.832 217.656 105.114C217.656 104.395 217.923 103.78 218.457 103.268C219.001 102.756 219.649 102.5 220.401 102.5C221.152 102.5 221.795 102.756 222.328 103.268C222.873 103.78 223.145 104.395 223.145 105.114C223.145 105.832 222.873 106.448 222.328 106.96C221.795 107.471 221.152 107.727 220.401 107.727ZM239.876 137.523C237.459 137.523 235.373 136.989 233.62 135.922C231.878 134.844 230.533 133.341 229.585 131.413C228.649 129.475 228.18 127.221 228.18 124.651C228.18 122.08 228.649 119.815 229.585 117.855C230.533 115.884 231.85 114.348 233.538 113.249C235.237 112.138 237.219 111.582 239.484 111.582C240.791 111.582 242.082 111.8 243.356 112.236C244.63 112.671 245.79 113.379 246.835 114.359C247.881 115.329 248.714 116.614 249.335 118.214C249.955 119.815 250.266 121.786 250.266 124.128V125.761H230.925V122.429H246.345C246.345 121.013 246.062 119.75 245.496 118.639C244.94 117.528 244.145 116.652 243.111 116.009C242.087 115.367 240.878 115.045 239.484 115.045C237.949 115.045 236.62 115.427 235.499 116.189C234.388 116.94 233.533 117.92 232.934 119.129C232.335 120.338 232.036 121.634 232.036 123.017V125.239C232.036 127.134 232.362 128.74 233.016 130.058C233.68 131.364 234.6 132.361 235.776 133.047C236.952 133.722 238.319 134.06 239.876 134.06C240.889 134.06 241.804 133.918 242.621 133.635C243.448 133.341 244.162 132.905 244.761 132.328C245.36 131.74 245.822 131.01 246.149 130.139L249.874 131.185C249.482 132.448 248.823 133.559 247.897 134.517C246.971 135.464 245.828 136.205 244.467 136.739C243.105 137.261 241.575 137.523 239.876 137.523ZM266.258 146.932C264.396 146.932 262.795 146.692 261.455 146.213C260.116 145.745 259 145.124 258.107 144.351C257.224 143.589 256.522 142.772 255.999 141.901L259.07 139.744C259.419 140.202 259.86 140.724 260.393 141.312C260.927 141.911 261.657 142.429 262.582 142.864C263.519 143.311 264.744 143.534 266.258 143.534C268.283 143.534 269.955 143.044 271.273 142.064C272.59 141.084 273.249 139.548 273.249 137.457V132.361H272.923C272.639 132.818 272.237 133.384 271.714 134.06C271.202 134.724 270.461 135.317 269.492 135.84C268.534 136.352 267.238 136.608 265.604 136.608C263.579 136.608 261.76 136.129 260.148 135.17C258.548 134.212 257.279 132.818 256.342 130.989C255.417 129.159 254.954 126.937 254.954 124.324C254.954 121.754 255.406 119.516 256.31 117.61C257.214 115.693 258.471 114.212 260.083 113.167C261.695 112.111 263.557 111.582 265.67 111.582C267.303 111.582 268.599 111.855 269.558 112.399C270.527 112.933 271.267 113.543 271.779 114.229C272.302 114.904 272.705 115.459 272.988 115.895H273.38V111.909H277.104V137.719C277.104 139.875 276.614 141.628 275.634 142.979C274.665 144.34 273.358 145.336 271.714 145.968C270.08 146.611 268.262 146.932 266.258 146.932ZM266.127 133.145C267.674 133.145 268.98 132.791 270.048 132.083C271.115 131.375 271.926 130.357 272.482 129.028C273.037 127.7 273.315 126.11 273.315 124.259C273.315 122.451 273.042 120.855 272.498 119.472C271.953 118.089 271.147 117.006 270.08 116.222C269.013 115.437 267.695 115.045 266.127 115.045C264.494 115.045 263.132 115.459 262.043 116.287C260.965 117.115 260.154 118.225 259.609 119.619C259.076 121.013 258.809 122.56 258.809 124.259C258.809 126.001 259.081 127.542 259.626 128.881C260.181 130.21 260.998 131.255 262.076 132.018C263.165 132.769 264.515 133.145 266.127 133.145ZM295.073 111.909V115.176H282.07V111.909H295.073ZM285.86 105.898H289.715V129.812C289.715 130.902 289.873 131.718 290.189 132.263C290.516 132.796 290.929 133.156 291.43 133.341C291.942 133.515 292.481 133.602 293.048 133.602C293.472 133.602 293.821 133.58 294.093 133.537C294.365 133.482 294.583 133.439 294.746 133.406L295.531 136.869C295.269 136.967 294.904 137.065 294.436 137.163C293.968 137.272 293.374 137.327 292.656 137.327C291.567 137.327 290.499 137.093 289.454 136.624C288.419 136.156 287.559 135.443 286.873 134.484C286.198 133.526 285.86 132.317 285.86 130.858V105.898ZM323.284 137.523C321.193 137.523 319.347 136.995 317.746 135.938C316.146 134.871 314.893 133.368 313.989 131.43C313.085 129.48 312.634 127.177 312.634 124.52C312.634 121.884 313.085 119.598 313.989 117.659C314.893 115.721 316.151 114.223 317.763 113.167C319.375 112.111 321.237 111.582 323.349 111.582C324.983 111.582 326.273 111.855 327.221 112.399C328.179 112.933 328.909 113.543 329.41 114.229C329.922 114.904 330.319 115.459 330.602 115.895H330.929V103.545H334.784V137H331.06V133.145H330.602C330.319 133.602 329.916 134.179 329.393 134.876C328.871 135.562 328.125 136.178 327.156 136.722C326.186 137.256 324.896 137.523 323.284 137.523ZM323.807 134.06C325.353 134.06 326.66 133.657 327.727 132.851C328.795 132.034 329.606 130.907 330.161 129.469C330.717 128.021 330.994 126.349 330.994 124.455C330.994 122.581 330.722 120.942 330.178 119.538C329.633 118.122 328.827 117.022 327.76 116.238C326.693 115.443 325.375 115.045 323.807 115.045C322.173 115.045 320.812 115.465 319.723 116.303C318.645 117.131 317.834 118.258 317.289 119.685C316.755 121.1 316.489 122.69 316.489 124.455C316.489 126.241 316.761 127.863 317.305 129.322C317.861 130.771 318.678 131.925 319.756 132.786C320.845 133.635 322.195 134.06 323.807 134.06ZM349.763 137.588C348.174 137.588 346.731 137.289 345.435 136.69C344.139 136.08 343.11 135.203 342.347 134.06C341.585 132.905 341.204 131.511 341.204 129.878C341.204 128.44 341.487 127.275 342.053 126.382C342.62 125.478 343.376 124.77 344.324 124.259C345.271 123.747 346.317 123.366 347.46 123.115C348.615 122.854 349.774 122.647 350.94 122.494C352.464 122.298 353.7 122.151 354.648 122.053C355.606 121.944 356.303 121.765 356.739 121.514C357.185 121.264 357.408 120.828 357.408 120.207V120.077C357.408 118.465 356.967 117.213 356.085 116.32C355.214 115.427 353.891 114.98 352.116 114.98C350.275 114.98 348.832 115.383 347.787 116.189C346.741 116.995 346.006 117.855 345.582 118.77L341.923 117.463C342.576 115.938 343.447 114.751 344.536 113.902C345.636 113.042 346.834 112.443 348.13 112.105C349.437 111.757 350.722 111.582 351.985 111.582C352.791 111.582 353.717 111.68 354.762 111.876C355.818 112.062 356.837 112.448 357.817 113.036C358.808 113.624 359.63 114.512 360.283 115.699C360.937 116.886 361.263 118.476 361.263 120.469V137H357.408V133.602H357.212C356.951 134.147 356.515 134.729 355.906 135.35C355.296 135.971 354.484 136.499 353.472 136.935C352.459 137.37 351.223 137.588 349.763 137.588ZM350.352 134.125C351.876 134.125 353.161 133.826 354.207 133.227C355.263 132.628 356.058 131.854 356.592 130.907C357.136 129.96 357.408 128.963 357.408 127.918V124.389C357.245 124.585 356.886 124.765 356.33 124.928C355.786 125.081 355.154 125.217 354.435 125.337C353.728 125.446 353.036 125.544 352.361 125.631C351.696 125.707 351.157 125.772 350.744 125.827C349.742 125.957 348.805 126.17 347.934 126.464C347.074 126.747 346.377 127.177 345.843 127.754C345.32 128.321 345.059 129.094 345.059 130.074C345.059 131.413 345.554 132.426 346.545 133.112C347.547 133.787 348.816 134.125 350.352 134.125ZM386.073 117.528L382.61 118.509C382.392 117.931 382.07 117.371 381.646 116.826C381.232 116.271 380.666 115.813 379.947 115.454C379.228 115.094 378.308 114.915 377.186 114.915C375.651 114.915 374.371 115.269 373.347 115.977C372.335 116.674 371.828 117.561 371.828 118.639C371.828 119.598 372.177 120.354 372.874 120.91C373.571 121.465 374.66 121.928 376.141 122.298L379.865 123.213C382.109 123.758 383.78 124.591 384.88 125.712C385.98 126.823 386.53 128.255 386.53 130.009C386.53 131.446 386.116 132.731 385.289 133.864C384.472 134.996 383.328 135.889 381.858 136.543C380.388 137.196 378.678 137.523 376.729 137.523C374.17 137.523 372.052 136.967 370.374 135.857C368.697 134.746 367.636 133.123 367.189 130.989L370.848 130.074C371.197 131.424 371.856 132.437 372.825 133.112C373.805 133.787 375.084 134.125 376.664 134.125C378.46 134.125 379.887 133.744 380.943 132.982C382.011 132.208 382.544 131.283 382.544 130.205C382.544 129.333 382.239 128.604 381.629 128.016C381.02 127.417 380.083 126.97 378.82 126.676L374.638 125.696C372.34 125.152 370.652 124.308 369.574 123.164C368.507 122.01 367.973 120.567 367.973 118.835C367.973 117.42 368.371 116.167 369.166 115.078C369.972 113.989 371.066 113.134 372.449 112.513C373.843 111.893 375.422 111.582 377.186 111.582C379.669 111.582 381.619 112.127 383.034 113.216C384.461 114.305 385.474 115.742 386.073 117.528ZM405.793 137V103.545H425.984V107.139H409.844V118.443H424.938V122.037H409.844V133.406H426.245V137H405.793ZM447.138 120.861V124.455H432.501V120.861H447.138ZM459.606 137L451.961 111.909H456.012L461.435 131.119H461.697L467.055 111.909H471.171L476.464 131.054H476.725L482.148 111.909H486.199L478.555 137H474.765L469.276 117.724H468.884L463.395 137H459.606ZM500.962 137.523C498.545 137.523 496.459 136.989 494.706 135.922C492.964 134.844 491.619 133.341 490.671 131.413C489.735 129.475 489.266 127.221 489.266 124.651C489.266 122.08 489.735 119.815 490.671 117.855C491.619 115.884 492.936 114.348 494.624 113.249C496.323 112.138 498.305 111.582 500.57 111.582C501.877 111.582 503.168 111.8 504.442 112.236C505.716 112.671 506.876 113.379 507.921 114.359C508.967 115.329 509.8 116.614 510.42 118.214C511.041 119.815 511.352 121.786 511.352 124.128V125.761H492.011V122.429H507.431C507.431 121.013 507.148 119.75 506.582 118.639C506.026 117.528 505.231 116.652 504.197 116.009C503.173 115.367 501.964 115.045 500.57 115.045C499.035 115.045 497.706 115.427 496.585 116.189C495.474 116.94 494.619 117.92 494.02 119.129C493.421 120.338 493.121 121.634 493.121 123.017V125.239C493.121 127.134 493.448 128.74 494.102 130.058C494.766 131.364 495.686 132.361 496.862 133.047C498.038 133.722 499.405 134.06 500.962 134.06C501.975 134.06 502.89 133.918 503.707 133.635C504.534 133.341 505.248 132.905 505.847 132.328C506.446 131.74 506.908 131.01 507.235 130.139L510.96 131.185C510.567 132.448 509.909 133.559 508.983 134.517C508.057 135.464 506.914 136.205 505.553 136.739C504.191 137.261 502.661 137.523 500.962 137.523ZM517.216 137V111.909H520.94V115.699H521.202C521.659 114.457 522.487 113.45 523.685 112.677C524.883 111.904 526.233 111.517 527.736 111.517C528.019 111.517 528.373 111.522 528.798 111.533C529.222 111.544 529.544 111.561 529.761 111.582V115.503C529.631 115.47 529.331 115.421 528.863 115.356C528.406 115.28 527.921 115.241 527.409 115.241C526.189 115.241 525.1 115.497 524.142 116.009C523.195 116.51 522.443 117.207 521.888 118.1C521.343 118.982 521.071 119.99 521.071 121.122V137H517.216ZM537.925 127.852L537.86 123.082H538.644L549.621 111.909H554.391L542.695 123.736H542.368L537.925 127.852ZM534.331 137V103.545H538.186V137H534.331ZM550.274 137L540.473 124.585L543.218 121.906L555.175 137H550.274ZM572.29 137V111.909H576.145V137H572.29ZM574.25 107.727C573.499 107.727 572.851 107.471 572.306 106.96C571.773 106.448 571.506 105.832 571.506 105.114C571.506 104.395 571.773 103.78 572.306 103.268C572.851 102.756 573.499 102.5 574.25 102.5C575.002 102.5 575.644 102.756 576.178 103.268C576.722 103.78 576.995 104.395 576.995 105.114C576.995 105.832 576.722 106.448 576.178 106.96C575.644 107.471 575.002 107.727 574.25 107.727ZM587.061 121.906V137H583.206V111.909H586.931V115.83H587.257C587.845 114.555 588.738 113.532 589.936 112.759C591.134 111.974 592.681 111.582 594.575 111.582C596.274 111.582 597.761 111.931 599.035 112.628C600.309 113.314 601.3 114.359 602.008 115.764C602.716 117.158 603.07 118.922 603.07 121.057V137H599.215V121.318C599.215 119.347 598.703 117.812 597.679 116.712C596.655 115.601 595.251 115.045 593.465 115.045C592.234 115.045 591.134 115.312 590.165 115.846C589.207 116.379 588.45 117.158 587.894 118.182C587.339 119.205 587.061 120.447 587.061 121.906ZM632.526 137.523C630.435 137.523 628.589 136.995 626.989 135.938C625.388 134.871 624.135 133.368 623.232 131.43C622.328 129.48 621.876 127.177 621.876 124.52C621.876 121.884 622.328 119.598 623.232 117.659C624.135 115.721 625.393 114.223 627.005 113.167C628.617 112.111 630.479 111.582 632.592 111.582C634.225 111.582 635.516 111.855 636.463 112.399C637.421 112.933 638.151 113.543 638.652 114.229C639.164 114.904 639.561 115.459 639.844 115.895H640.171V103.545H644.026V137H640.302V133.145H639.844C639.561 133.602 639.158 134.179 638.636 134.876C638.113 135.562 637.367 136.178 636.398 136.722C635.429 137.256 634.138 137.523 632.526 137.523ZM633.049 134.06C634.595 134.06 635.902 133.657 636.969 132.851C638.037 132.034 638.848 130.907 639.403 129.469C639.959 128.021 640.237 126.349 640.237 124.455C640.237 122.581 639.964 120.942 639.42 119.538C638.875 118.122 638.069 117.022 637.002 116.238C635.935 115.443 634.617 115.045 633.049 115.045C631.415 115.045 630.054 115.465 628.965 116.303C627.887 117.131 627.076 118.258 626.531 119.685C625.998 121.1 625.731 122.69 625.731 124.455C625.731 126.241 626.003 127.863 626.548 129.322C627.103 130.771 627.92 131.925 628.998 132.786C630.087 133.635 631.437 134.06 633.049 134.06ZM662.142 137.523C659.724 137.523 657.639 136.989 655.886 135.922C654.143 134.844 652.798 133.341 651.851 131.413C650.914 129.475 650.446 127.221 650.446 124.651C650.446 122.08 650.914 119.815 651.851 117.855C652.798 115.884 654.116 114.348 655.804 113.249C657.503 112.138 659.485 111.582 661.75 111.582C663.057 111.582 664.347 111.8 665.621 112.236C666.896 112.671 668.055 113.379 669.101 114.359C670.146 115.329 670.979 116.614 671.6 118.214C672.221 119.815 672.531 121.786 672.531 124.128V125.761H653.19V122.429H668.611C668.611 121.013 668.328 119.75 667.761 118.639C667.206 117.528 666.411 116.652 665.376 116.009C664.353 115.367 663.144 115.045 661.75 115.045C660.214 115.045 658.886 115.427 657.764 116.189C656.653 116.94 655.799 117.92 655.2 119.129C654.601 120.338 654.301 121.634 654.301 123.017V125.239C654.301 127.134 654.628 128.74 655.281 130.058C655.946 131.364 656.866 132.361 658.042 133.047C659.218 133.722 660.585 134.06 662.142 134.06C663.155 134.06 664.07 133.918 664.886 133.635C665.714 133.341 666.427 132.905 667.026 132.328C667.625 131.74 668.088 131.01 668.415 130.139L672.139 131.185C671.747 132.448 671.088 133.559 670.163 134.517C669.237 135.464 668.094 136.205 666.732 136.739C665.371 137.261 663.841 137.523 662.142 137.523ZM682.251 121.906V137H678.396V111.909H682.12V115.83H682.447C683.035 114.555 683.928 113.532 685.126 112.759C686.324 111.974 687.87 111.582 689.765 111.582C691.464 111.582 692.95 111.931 694.224 112.628C695.499 113.314 696.49 114.359 697.197 115.764C697.905 117.158 698.259 118.922 698.259 121.057V137H694.404V121.318C694.404 119.347 693.892 117.812 692.869 116.712C691.845 115.601 690.44 115.045 688.654 115.045C687.424 115.045 686.324 115.312 685.354 115.846C684.396 116.379 683.639 117.158 683.084 118.182C682.528 119.205 682.251 120.447 682.251 121.906ZM85.0511 193V159.545H89.1023V174.443H106.94V159.545H110.991V193H106.94V178.037H89.1023V193H85.0511ZM125.963 193.588C124.373 193.588 122.93 193.289 121.634 192.69C120.338 192.08 119.309 191.203 118.547 190.06C117.784 188.905 117.403 187.511 117.403 185.878C117.403 184.44 117.686 183.275 118.252 182.382C118.819 181.478 119.576 180.77 120.523 180.259C121.471 179.747 122.516 179.366 123.659 179.115C124.814 178.854 125.974 178.647 127.139 178.494C128.663 178.298 129.9 178.151 130.847 178.053C131.805 177.944 132.502 177.765 132.938 177.514C133.384 177.264 133.608 176.828 133.608 176.207V176.077C133.608 174.465 133.167 173.213 132.284 172.32C131.413 171.427 130.09 170.98 128.315 170.98C126.475 170.98 125.032 171.383 123.986 172.189C122.941 172.995 122.206 173.855 121.781 174.77L118.122 173.463C118.775 171.938 119.646 170.751 120.735 169.902C121.835 169.042 123.033 168.443 124.329 168.105C125.636 167.757 126.921 167.582 128.184 167.582C128.99 167.582 129.916 167.68 130.961 167.876C132.018 168.062 133.036 168.448 134.016 169.036C135.007 169.624 135.829 170.512 136.483 171.699C137.136 172.886 137.463 174.476 137.463 176.469V193H133.608V189.602H133.412C133.15 190.147 132.715 190.729 132.105 191.35C131.495 191.971 130.684 192.499 129.671 192.935C128.658 193.37 127.422 193.588 125.963 193.588ZM126.551 190.125C128.075 190.125 129.36 189.826 130.406 189.227C131.462 188.628 132.257 187.854 132.791 186.907C133.335 185.96 133.608 184.963 133.608 183.918V180.389C133.444 180.585 133.085 180.765 132.529 180.928C131.985 181.081 131.353 181.217 130.635 181.337C129.927 181.446 129.235 181.544 128.56 181.631C127.896 181.707 127.357 181.772 126.943 181.827C125.941 181.957 125.004 182.17 124.133 182.464C123.273 182.747 122.576 183.177 122.042 183.754C121.52 184.321 121.258 185.094 121.258 186.074C121.258 187.413 121.754 188.426 122.745 189.112C123.747 189.787 125.015 190.125 126.551 190.125ZM123.741 163.727C123.055 163.727 122.445 163.466 121.912 162.943C121.389 162.41 121.127 161.8 121.127 161.114C121.127 160.362 121.389 159.741 121.912 159.251C122.445 158.75 123.055 158.5 123.741 158.5C124.493 158.5 125.113 158.75 125.603 159.251C126.104 159.741 126.355 160.362 126.355 161.114C126.355 161.8 126.104 162.41 125.603 162.943C125.113 163.466 124.493 163.727 123.741 163.727ZM133.15 163.727C132.464 163.727 131.854 163.466 131.321 162.943C130.798 162.41 130.537 161.8 130.537 161.114C130.537 160.362 130.798 159.741 131.321 159.251C131.854 158.75 132.464 158.5 133.15 158.5C133.902 158.5 134.522 158.75 135.012 159.251C135.513 159.741 135.764 160.362 135.764 161.114C135.764 161.8 135.513 162.41 135.012 162.943C134.522 163.466 133.902 163.727 133.15 163.727ZM148.354 177.906V193H144.499V167.909H148.224V171.83H148.55C149.138 170.555 150.031 169.532 151.229 168.759C152.427 167.974 153.974 167.582 155.868 167.582C157.567 167.582 159.054 167.931 160.328 168.628C161.602 169.314 162.593 170.359 163.301 171.764C164.009 173.158 164.363 174.922 164.363 177.057V193H160.508V177.318C160.508 175.347 159.996 173.812 158.972 172.712C157.948 171.601 156.544 171.045 154.758 171.045C153.527 171.045 152.427 171.312 151.458 171.846C150.5 172.379 149.743 173.158 149.187 174.182C148.632 175.205 148.354 176.447 148.354 177.906ZM180.882 193.523C178.791 193.523 176.945 192.995 175.344 191.938C173.743 190.871 172.491 189.368 171.587 187.43C170.683 185.48 170.231 183.177 170.231 180.52C170.231 177.884 170.683 175.598 171.587 173.659C172.491 171.721 173.749 170.223 175.36 169.167C176.972 168.111 178.834 167.582 180.947 167.582C182.581 167.582 183.871 167.855 184.819 168.399C185.777 168.933 186.507 169.543 187.007 170.229C187.519 170.904 187.917 171.459 188.2 171.895H188.527V159.545H192.382V193H188.657V189.145H188.2C187.917 189.602 187.514 190.179 186.991 190.876C186.468 191.562 185.722 192.178 184.753 192.722C183.784 193.256 182.493 193.523 180.882 193.523ZM181.404 190.06C182.951 190.06 184.258 189.657 185.325 188.851C186.392 188.034 187.203 186.907 187.759 185.469C188.314 184.021 188.592 182.349 188.592 180.455C188.592 178.581 188.32 176.942 187.775 175.538C187.231 174.122 186.425 173.022 185.358 172.238C184.29 171.443 182.973 171.045 181.404 171.045C179.771 171.045 178.41 171.465 177.321 172.303C176.243 173.131 175.431 174.258 174.887 175.685C174.353 177.1 174.086 178.69 174.086 180.455C174.086 182.241 174.359 183.863 174.903 185.322C175.458 186.771 176.275 187.925 177.353 188.786C178.442 189.635 179.793 190.06 181.404 190.06ZM210.498 193.523C208.08 193.523 205.994 192.989 204.241 191.922C202.499 190.844 201.154 189.341 200.206 187.413C199.27 185.475 198.801 183.221 198.801 180.651C198.801 178.08 199.27 175.815 200.206 173.855C201.154 171.884 202.471 170.348 204.159 169.249C205.858 168.138 207.84 167.582 210.105 167.582C211.412 167.582 212.703 167.8 213.977 168.236C215.251 168.671 216.411 169.379 217.456 170.359C218.502 171.329 219.335 172.614 219.956 174.214C220.576 175.815 220.887 177.786 220.887 180.128V181.761H201.546V178.429H216.966C216.966 177.013 216.683 175.75 216.117 174.639C215.561 173.528 214.766 172.652 213.732 172.009C212.708 171.367 211.499 171.045 210.105 171.045C208.57 171.045 207.241 171.427 206.12 172.189C205.009 172.94 204.154 173.92 203.555 175.129C202.956 176.338 202.657 177.634 202.657 179.017V181.239C202.657 183.134 202.983 184.74 203.637 186.058C204.301 187.364 205.221 188.361 206.397 189.047C207.574 189.722 208.94 190.06 210.498 190.06C211.51 190.06 212.425 189.918 213.242 189.635C214.069 189.341 214.783 188.905 215.382 188.328C215.981 187.74 216.444 187.01 216.77 186.139L220.495 187.185C220.103 188.448 219.444 189.559 218.518 190.517C217.592 191.464 216.449 192.205 215.088 192.739C213.726 193.261 212.196 193.523 210.498 193.523ZM230.606 177.906V193H226.751V167.909H230.475V171.83H230.802C231.39 170.555 232.283 169.532 233.481 168.759C234.679 167.974 236.225 167.582 238.12 167.582C239.819 167.582 241.306 167.931 242.58 168.628C243.854 169.314 244.845 170.359 245.553 171.764C246.261 173.158 246.615 174.922 246.615 177.057V193H242.76V177.318C242.76 175.347 242.248 173.812 241.224 172.712C240.2 171.601 238.796 171.045 237.01 171.045C235.779 171.045 234.679 171.312 233.71 171.846C232.752 172.379 231.995 173.158 231.439 174.182C230.884 175.205 230.606 176.447 230.606 177.906ZM276.071 193.523C273.98 193.523 272.134 192.995 270.534 191.938C268.933 190.871 267.68 189.368 266.776 187.43C265.873 185.48 265.421 183.177 265.421 180.52C265.421 177.884 265.873 175.598 266.776 173.659C267.68 171.721 268.938 170.223 270.55 169.167C272.162 168.111 274.024 167.582 276.137 167.582C277.77 167.582 279.061 167.855 280.008 168.399C280.966 168.933 281.696 169.543 282.197 170.229C282.709 170.904 283.106 171.459 283.389 171.895H283.716V159.545H287.571V193H283.847V189.145H283.389C283.106 189.602 282.703 190.179 282.181 190.876C281.658 191.562 280.912 192.178 279.943 192.722C278.973 193.256 277.683 193.523 276.071 193.523ZM276.594 190.06C278.14 190.06 279.447 189.657 280.514 188.851C281.582 188.034 282.393 186.907 282.948 185.469C283.504 184.021 283.781 182.349 283.781 180.455C283.781 178.581 283.509 176.942 282.965 175.538C282.42 174.122 281.614 173.022 280.547 172.238C279.48 171.443 278.162 171.045 276.594 171.045C274.96 171.045 273.599 171.465 272.51 172.303C271.432 173.131 270.621 174.258 270.076 175.685C269.543 177.1 269.276 178.69 269.276 180.455C269.276 182.241 269.548 183.863 270.093 185.322C270.648 186.771 271.465 187.925 272.543 188.786C273.632 189.635 274.982 190.06 276.594 190.06ZM305.687 193.523C303.269 193.523 301.184 192.989 299.431 191.922C297.688 190.844 296.343 189.341 295.396 187.413C294.459 185.475 293.991 183.221 293.991 180.651C293.991 178.08 294.459 175.815 295.396 173.855C296.343 171.884 297.661 170.348 299.349 169.249C301.048 168.138 303.03 167.582 305.295 167.582C306.602 167.582 307.892 167.8 309.166 168.236C310.441 168.671 311.6 169.379 312.646 170.359C313.691 171.329 314.524 172.614 315.145 174.214C315.766 175.815 316.076 177.786 316.076 180.128V181.761H296.735V178.429H312.156C312.156 177.013 311.873 175.75 311.306 174.639C310.751 173.528 309.956 172.652 308.921 172.009C307.898 171.367 306.689 171.045 305.295 171.045C303.759 171.045 302.431 171.427 301.309 172.189C300.198 172.94 299.343 173.92 298.744 175.129C298.146 176.338 297.846 177.634 297.846 179.017V181.239C297.846 183.134 298.173 184.74 298.826 186.058C299.49 187.364 300.411 188.361 301.587 189.047C302.763 189.722 304.13 190.06 305.687 190.06C306.7 190.06 307.615 189.918 308.431 189.635C309.259 189.341 309.972 188.905 310.571 188.328C311.17 187.74 311.633 187.01 311.96 186.139L315.684 187.185C315.292 188.448 314.633 189.559 313.708 190.517C312.782 191.464 311.638 192.205 310.277 192.739C308.916 193.261 307.386 193.523 305.687 193.523ZM321.941 193V167.909H325.665V171.699H325.926C326.384 170.457 327.211 169.45 328.409 168.677C329.607 167.904 330.958 167.517 332.46 167.517C332.744 167.517 333.097 167.522 333.522 167.533C333.947 167.544 334.268 167.561 334.486 167.582V171.503C334.355 171.47 334.056 171.421 333.588 171.356C333.13 171.28 332.646 171.241 332.134 171.241C330.914 171.241 329.825 171.497 328.867 172.009C327.919 172.51 327.168 173.207 326.612 174.1C326.068 174.982 325.796 175.99 325.796 177.122V193H321.941ZM352.516 193V159.545H356.567V174.443H374.405V159.545H378.456V193H374.405V178.037H356.567V193H352.516ZM393.428 193.588C391.838 193.588 390.395 193.289 389.099 192.69C387.803 192.08 386.774 191.203 386.011 190.06C385.249 188.905 384.868 187.511 384.868 185.878C384.868 184.44 385.151 183.275 385.717 182.382C386.284 181.478 387.04 180.77 387.988 180.259C388.935 179.747 389.981 179.366 391.124 179.115C392.279 178.854 393.438 178.647 394.604 178.494C396.128 178.298 397.364 178.151 398.312 178.053C399.27 177.944 399.967 177.765 400.403 177.514C400.849 177.264 401.072 176.828 401.072 176.207V176.077C401.072 174.465 400.631 173.213 399.749 172.32C398.878 171.427 397.555 170.98 395.78 170.98C393.939 170.98 392.496 171.383 391.451 172.189C390.406 172.995 389.67 173.855 389.246 174.77L385.587 173.463C386.24 171.938 387.111 170.751 388.2 169.902C389.3 169.042 390.498 168.443 391.794 168.105C393.101 167.757 394.386 167.582 395.649 167.582C396.455 167.582 397.381 167.68 398.426 167.876C399.482 168.062 400.501 168.448 401.481 169.036C402.472 169.624 403.294 170.512 403.947 171.699C404.601 172.886 404.928 174.476 404.928 176.469V193H401.072V189.602H400.876C400.615 190.147 400.179 190.729 399.57 191.35C398.96 191.971 398.148 192.499 397.136 192.935C396.123 193.37 394.887 193.588 393.428 193.588ZM394.016 190.125C395.54 190.125 396.825 189.826 397.871 189.227C398.927 188.628 399.722 187.854 400.256 186.907C400.8 185.96 401.072 184.963 401.072 183.918V180.389C400.909 180.585 400.55 180.765 399.994 180.928C399.45 181.081 398.818 181.217 398.099 181.337C397.392 181.446 396.7 181.544 396.025 181.631C395.361 181.707 394.821 181.772 394.408 181.827C393.406 181.957 392.469 182.17 391.598 182.464C390.738 182.747 390.041 183.177 389.507 183.754C388.984 184.321 388.723 185.094 388.723 186.074C388.723 187.413 389.219 188.426 390.21 189.112C391.211 189.787 392.48 190.125 394.016 190.125ZM422.157 193.523C419.805 193.523 417.779 192.967 416.08 191.857C414.382 190.746 413.075 189.216 412.16 187.266C411.245 185.317 410.788 183.09 410.788 180.585C410.788 178.037 411.256 175.788 412.193 173.839C413.14 171.879 414.458 170.348 416.146 169.249C417.845 168.138 419.827 167.582 422.092 167.582C423.856 167.582 425.446 167.909 426.862 168.562C428.277 169.216 429.437 170.131 430.341 171.307C431.245 172.483 431.806 173.855 432.024 175.423H428.169C427.874 174.28 427.221 173.267 426.208 172.385C425.206 171.492 423.856 171.045 422.157 171.045C420.654 171.045 419.337 171.437 418.204 172.222C417.082 172.995 416.206 174.089 415.574 175.505C414.953 176.91 414.643 178.56 414.643 180.455C414.643 182.393 414.948 184.081 415.558 185.518C416.178 186.956 417.05 188.072 418.171 188.867C419.304 189.662 420.633 190.06 422.157 190.06C423.159 190.06 424.068 189.885 424.885 189.537C425.702 189.188 426.393 188.688 426.96 188.034C427.526 187.381 427.929 186.597 428.169 185.682H432.024C431.806 187.163 431.267 188.497 430.406 189.684C429.557 190.86 428.43 191.797 427.025 192.494C425.631 193.18 424.008 193.523 422.157 193.523ZM441.253 183.852L441.188 179.082H441.972L452.949 167.909H457.719L446.023 179.736H445.696L441.253 183.852ZM437.659 193V159.545H441.514V193H437.659ZM453.602 193L443.801 180.585L446.546 177.906L458.503 193H453.602ZM472.167 193.523C469.75 193.523 467.664 192.989 465.911 191.922C464.169 190.844 462.824 189.341 461.876 187.413C460.94 185.475 460.471 183.221 460.471 180.651C460.471 178.08 460.94 175.815 461.876 173.855C462.824 171.884 464.141 170.348 465.829 169.249C467.528 168.138 469.51 167.582 471.775 167.582C473.082 167.582 474.373 167.8 475.647 168.236C476.921 168.671 478.081 169.379 479.126 170.359C480.172 171.329 481.005 172.614 481.626 174.214C482.246 175.815 482.557 177.786 482.557 180.128V181.761H463.216V178.429H478.636C478.636 177.013 478.353 175.75 477.787 174.639C477.231 173.528 476.436 172.652 475.402 172.009C474.378 171.367 473.169 171.045 471.775 171.045C470.24 171.045 468.911 171.427 467.79 172.189C466.679 172.94 465.824 173.92 465.225 175.129C464.626 176.338 464.327 177.634 464.327 179.017V181.239C464.327 183.134 464.653 184.74 465.307 186.058C465.971 187.364 466.891 188.361 468.067 189.047C469.243 189.722 470.61 190.06 472.167 190.06C473.18 190.06 474.095 189.918 474.912 189.635C475.739 189.341 476.453 188.905 477.052 188.328C477.651 187.74 478.113 187.01 478.44 186.139L482.165 187.185C481.773 188.448 481.114 189.559 480.188 190.517C479.262 191.464 478.119 192.205 476.758 192.739C475.396 193.261 473.866 193.523 472.167 193.523ZM488.421 193V167.909H492.145V171.699H492.407C492.864 170.457 493.692 169.45 494.89 168.677C496.088 167.904 497.438 167.517 498.941 167.517C499.224 167.517 499.578 167.522 500.003 167.533C500.427 167.544 500.749 167.561 500.966 167.582V171.503C500.836 171.47 500.536 171.421 500.068 171.356C499.611 171.28 499.126 171.241 498.614 171.241C497.394 171.241 496.305 171.497 495.347 172.009C494.4 172.51 493.648 173.207 493.093 174.1C492.548 174.982 492.276 175.99 492.276 177.122V193H488.421ZM534.286 182.741V167.909H538.141V193H534.286V188.753H534.025C533.437 190.027 532.522 191.111 531.281 192.004C530.039 192.886 528.471 193.327 526.576 193.327C525.008 193.327 523.614 192.984 522.394 192.298C521.174 191.601 520.216 190.555 519.519 189.161C518.822 187.756 518.474 185.987 518.474 183.852V167.909H522.329V183.591C522.329 185.42 522.841 186.88 523.864 187.969C524.899 189.058 526.217 189.602 527.817 189.602C528.776 189.602 529.75 189.357 530.741 188.867C531.743 188.377 532.582 187.626 533.257 186.613C533.943 185.6 534.286 184.31 534.286 182.741ZM549.057 177.906V193H545.202V167.909H548.927V171.83H549.253C549.841 170.555 550.734 169.532 551.932 168.759C553.13 167.974 554.677 167.582 556.572 167.582C558.27 167.582 559.757 167.931 561.031 168.628C562.305 169.314 563.296 170.359 564.004 171.764C564.712 173.158 565.066 174.922 565.066 177.057V193H561.211V177.318C561.211 175.347 560.699 173.812 559.675 172.712C558.652 171.601 557.247 171.045 555.461 171.045C554.23 171.045 553.13 171.312 552.161 171.846C551.203 172.379 550.446 173.158 549.89 174.182C549.335 175.205 549.057 176.447 549.057 177.906ZM581.585 193.523C579.494 193.523 577.648 192.995 576.047 191.938C574.446 190.871 573.194 189.368 572.29 187.43C571.386 185.48 570.934 183.177 570.934 180.52C570.934 177.884 571.386 175.598 572.29 173.659C573.194 171.721 574.452 170.223 576.064 169.167C577.675 168.111 579.538 167.582 581.65 167.582C583.284 167.582 584.574 167.855 585.522 168.399C586.48 168.933 587.21 169.543 587.711 170.229C588.222 170.904 588.62 171.459 588.903 171.895H589.23V159.545H593.085V193H589.36V189.145H588.903C588.62 189.602 588.217 190.179 587.694 190.876C587.172 191.562 586.426 192.178 585.456 192.722C584.487 193.256 583.197 193.523 581.585 193.523ZM582.108 190.06C583.654 190.06 584.961 189.657 586.028 188.851C587.095 188.034 587.907 186.907 588.462 185.469C589.017 184.021 589.295 182.349 589.295 180.455C589.295 178.581 589.023 176.942 588.478 175.538C587.934 174.122 587.128 173.022 586.061 172.238C584.993 171.443 583.676 171.045 582.108 171.045C580.474 171.045 579.113 171.465 578.024 172.303C576.946 173.131 576.134 174.258 575.59 175.685C575.056 177.1 574.789 178.69 574.789 180.455C574.789 182.241 575.062 183.863 575.606 185.322C576.162 186.771 576.978 187.925 578.056 188.786C579.145 189.635 580.496 190.06 582.108 190.06ZM614.141 193V159.545H634.331V163.139H618.192V174.443H633.286V178.037H618.192V189.406H634.593V193H614.141ZM655.485 174.476V178.07H640.849V174.476H655.485ZM689.712 170H685.661C685.421 168.835 685.002 167.811 684.403 166.929C683.815 166.047 683.096 165.306 682.247 164.707C681.408 164.098 680.477 163.64 679.453 163.335C678.43 163.03 677.362 162.878 676.252 162.878C674.226 162.878 672.391 163.39 670.747 164.413C669.113 165.437 667.812 166.945 666.843 168.938C665.884 170.931 665.405 173.376 665.405 176.273C665.405 179.17 665.884 181.614 666.843 183.607C667.812 185.6 669.113 187.108 670.747 188.132C672.391 189.156 674.226 189.668 676.252 189.668C677.362 189.668 678.43 189.515 679.453 189.21C680.477 188.905 681.408 188.453 682.247 187.854C683.096 187.245 683.815 186.499 684.403 185.616C685.002 184.723 685.421 183.7 685.661 182.545H689.712C689.407 184.255 688.852 185.785 688.046 187.136C687.24 188.486 686.238 189.635 685.04 190.582C683.842 191.519 682.497 192.232 681.005 192.722C679.524 193.212 677.94 193.457 676.252 193.457C673.398 193.457 670.861 192.76 668.639 191.366C666.418 189.973 664.67 187.991 663.396 185.42C662.122 182.85 661.485 179.801 661.485 176.273C661.485 172.744 662.122 169.695 663.396 167.125C664.67 164.555 666.418 162.573 668.639 161.179C670.861 159.785 673.398 159.088 676.252 159.088C677.94 159.088 679.524 159.333 681.005 159.823C682.497 160.313 683.842 161.032 685.04 161.979C686.238 162.916 687.24 164.059 688.046 165.41C688.852 166.749 689.407 168.279 689.712 170ZM695.735 193V167.909H699.591V193H695.735ZM697.696 163.727C696.944 163.727 696.296 163.471 695.752 162.96C695.218 162.448 694.951 161.832 694.951 161.114C694.951 160.395 695.218 159.78 695.752 159.268C696.296 158.756 696.944 158.5 697.696 158.5C698.447 158.5 699.09 158.756 699.623 159.268C700.168 159.78 700.44 160.395 700.44 161.114C700.44 161.832 700.168 162.448 699.623 162.96C699.09 163.471 698.447 163.727 697.696 163.727ZM717.563 167.909V171.176H704.561V167.909H717.563ZM708.35 161.898H712.205V185.812C712.205 186.902 712.363 187.718 712.679 188.263C713.006 188.796 713.42 189.156 713.921 189.341C714.432 189.515 714.972 189.602 715.538 189.602C715.963 189.602 716.311 189.58 716.583 189.537C716.856 189.482 717.073 189.439 717.237 189.406L718.021 192.869C717.759 192.967 717.395 193.065 716.926 193.163C716.458 193.272 715.865 193.327 715.146 193.327C714.057 193.327 712.99 193.093 711.944 192.624C710.91 192.156 710.049 191.443 709.363 190.484C708.688 189.526 708.35 188.317 708.35 186.858V161.898ZM725.845 202.409C725.192 202.409 724.609 202.355 724.097 202.246C723.586 202.148 723.232 202.05 723.036 201.952L724.016 198.554C724.952 198.794 725.78 198.881 726.499 198.815C727.218 198.75 727.855 198.429 728.41 197.852C728.976 197.285 729.494 196.365 729.962 195.091L730.681 193.131L721.402 167.909H725.584L732.51 187.903H732.771L739.698 167.909H743.879L733.229 196.659C732.75 197.955 732.156 199.028 731.448 199.877C730.74 200.737 729.918 201.375 728.982 201.788C728.056 202.202 727.011 202.409 725.845 202.409ZM761.905 193V167.909H765.76V193H761.905ZM763.866 163.727C763.114 163.727 762.466 163.471 761.922 162.96C761.388 162.448 761.121 161.832 761.121 161.114C761.121 160.395 761.388 159.78 761.922 159.268C762.466 158.756 763.114 158.5 763.866 158.5C764.617 158.5 765.26 158.756 765.793 159.268C766.338 159.78 766.61 160.395 766.61 161.114C766.61 161.832 766.338 162.448 765.793 162.96C765.26 163.471 764.617 163.727 763.866 163.727ZM772.821 193V167.909H776.546V171.83H776.873C777.395 170.49 778.239 169.45 779.404 168.71C780.57 167.958 781.969 167.582 783.603 167.582C785.258 167.582 786.636 167.958 787.735 168.71C788.846 169.45 789.712 170.49 790.333 171.83H790.594C791.237 170.534 792.2 169.504 793.485 168.742C794.77 167.969 796.311 167.582 798.108 167.582C800.352 167.582 802.187 168.285 803.613 169.69C805.04 171.084 805.753 173.256 805.753 176.207V193H801.898V176.207C801.898 174.356 801.392 173.033 800.379 172.238C799.366 171.443 798.174 171.045 796.801 171.045C795.037 171.045 793.671 171.579 792.701 172.646C791.732 173.703 791.248 175.042 791.248 176.665V193H787.327V175.815C787.327 174.389 786.864 173.24 785.939 172.369C785.013 171.487 783.82 171.045 782.361 171.045C781.359 171.045 780.423 171.312 779.551 171.846C778.691 172.379 777.994 173.12 777.461 174.067C776.938 175.004 776.676 176.088 776.676 177.318V193H772.821ZM95.375 249H85.0511V215.545H95.8324C99.0777 215.545 101.855 216.215 104.163 217.555C106.472 218.883 108.242 220.795 109.472 223.288C110.703 225.771 111.318 228.744 111.318 232.207C111.318 235.692 110.697 238.692 109.456 241.208C108.214 243.713 106.407 245.64 104.033 246.991C101.659 248.33 98.7727 249 95.375 249ZM89.1023 245.406H95.1136C97.8797 245.406 100.172 244.873 101.991 243.805C103.809 242.738 105.165 241.219 106.058 239.248C106.951 237.277 107.398 234.93 107.398 232.207C107.398 229.507 106.957 227.182 106.075 225.232C105.192 223.272 103.875 221.769 102.121 220.724C100.368 219.667 98.1847 219.139 95.571 219.139H89.1023V245.406ZM133.403 238.741V223.909H137.259V249H133.403V244.753H133.142C132.554 246.027 131.639 247.111 130.398 248.004C129.156 248.886 127.588 249.327 125.693 249.327C124.125 249.327 122.731 248.984 121.511 248.298C120.292 247.601 119.333 246.555 118.636 245.161C117.939 243.756 117.591 241.987 117.591 239.852V223.909H121.446V239.591C121.446 241.42 121.958 242.88 122.982 243.969C124.016 245.058 125.334 245.602 126.935 245.602C127.893 245.602 128.868 245.357 129.859 244.867C130.861 244.377 131.699 243.626 132.374 242.613C133.06 241.6 133.403 240.31 133.403 238.741ZM148.175 233.906V249H144.319V223.909H148.044V227.83H148.371C148.959 226.555 149.852 225.532 151.05 224.759C152.247 223.974 153.794 223.582 155.689 223.582C157.388 223.582 158.874 223.931 160.148 224.628C161.422 225.314 162.413 226.359 163.121 227.764C163.829 229.158 164.183 230.922 164.183 233.057V249H160.328V233.318C160.328 231.347 159.816 229.812 158.792 228.712C157.769 227.601 156.364 227.045 154.578 227.045C153.347 227.045 152.247 227.312 151.278 227.846C150.32 228.379 149.563 229.158 149.008 230.182C148.452 231.205 148.175 232.447 148.175 233.906ZM174.821 239.852L174.756 235.082H175.54L186.517 223.909H191.287L179.591 235.736H179.265L174.821 239.852ZM171.228 249V215.545H175.083V249H171.228ZM187.171 249L177.37 236.585L180.114 233.906L192.071 249H187.171ZM205.736 249.523C203.318 249.523 201.233 248.989 199.479 247.922C197.737 246.844 196.392 245.341 195.445 243.413C194.508 241.475 194.04 239.221 194.04 236.651C194.04 234.08 194.508 231.815 195.445 229.855C196.392 227.884 197.71 226.348 199.398 225.249C201.097 224.138 203.079 223.582 205.344 223.582C206.651 223.582 207.941 223.8 209.215 224.236C210.489 224.671 211.649 225.379 212.695 226.359C213.74 227.329 214.573 228.614 215.194 230.214C215.815 231.815 216.125 233.786 216.125 236.128V237.761H196.784V234.429H212.205C212.205 233.013 211.921 231.75 211.355 230.639C210.8 229.528 210.005 228.652 208.97 228.009C207.946 227.367 206.738 227.045 205.344 227.045C203.808 227.045 202.48 227.427 201.358 228.189C200.247 228.94 199.392 229.92 198.793 231.129C198.194 232.338 197.895 233.634 197.895 235.017V237.239C197.895 239.134 198.222 240.74 198.875 242.058C199.539 243.364 200.46 244.361 201.636 245.047C202.812 245.722 204.179 246.06 205.736 246.06C206.749 246.06 207.663 245.918 208.48 245.635C209.308 245.341 210.021 244.905 210.62 244.328C211.219 243.74 211.682 243.01 212.009 242.139L215.733 243.185C215.341 244.448 214.682 245.559 213.756 246.517C212.831 247.464 211.687 248.205 210.326 248.739C208.965 249.261 207.435 249.523 205.736 249.523ZM225.844 215.545V249H221.989V215.545H225.844ZM236.76 233.906V249H232.905V223.909H236.63V227.83H236.956C237.545 226.555 238.438 225.532 239.635 224.759C240.833 223.974 242.38 223.582 244.275 223.582C245.974 223.582 247.46 223.931 248.734 224.628C250.008 225.314 250.999 226.359 251.707 227.764C252.415 229.158 252.769 230.922 252.769 233.057V249H248.914V233.318C248.914 231.347 248.402 229.812 247.378 228.712C246.355 227.601 244.95 227.045 243.164 227.045C241.933 227.045 240.833 227.312 239.864 227.846C238.906 228.379 238.149 229.158 237.594 230.182C237.038 231.205 236.76 232.447 236.76 233.906ZM262.623 249.261C261.817 249.261 261.126 248.973 260.549 248.396C259.971 247.818 259.683 247.127 259.683 246.321C259.683 245.515 259.971 244.824 260.549 244.246C261.126 243.669 261.817 243.381 262.623 243.381C263.429 243.381 264.121 243.669 264.698 244.246C265.275 244.824 265.564 245.515 265.564 246.321C265.564 246.855 265.427 247.345 265.155 247.791C264.894 248.238 264.54 248.597 264.093 248.869C263.658 249.131 263.168 249.261 262.623 249.261Z" fill="black"/>
<path d="M866.887 745.425C862.855 746.265 858.031 748.113 857.557 752.483C857.003 757.357 862.618 760.214 867.125 761.223C884.127 765.172 901.683 765.676 919.159 766.181C1011.52 768.533 1103.89 768.954 1196.25 767.357C1194.91 755.341 1181.46 750.13 1170.31 747.861C1122.39 738.114 1072.81 743.66 1025.76 733.324C976.174 722.316 915.837 734.753 866.887 745.425Z" fill="url(#paint0_linear_805_2742)"/>
<path d="M866.887 745.425C862.855 746.265 858.031 748.113 857.557 752.483C857.003 757.357 862.618 760.214 867.125 761.223C884.127 765.172 901.683 765.676 919.159 766.181C1011.52 768.533 1103.89 768.954 1196.25 767.357C1194.91 755.341 1181.46 750.13 1170.31 747.861C1122.39 738.114 1072.81 743.66 1025.76 733.324C976.174 722.316 915.837 734.753 866.887 745.425Z" fill="url(#paint1_linear_805_2742)"/>
<path d="M1118.43 666.264C1119.46 665.928 1120.56 666.264 1121.59 666.601C1126.1 668.197 1130.53 670.298 1134.48 673.071C1136.46 674.416 1138.44 675.928 1139.38 678.197C1140.25 680.298 1140.18 682.651 1140.02 684.836C1138.59 711.894 1137.25 739.036 1135.83 766.095C1135.75 767.859 1135.51 769.793 1134.24 770.885C1132.66 772.145 1130.45 771.305 1128.71 770.465C1111.71 762.565 1094.78 754.582 1077.78 746.683C1069.64 742.902 1061.26 738.868 1055.25 731.893C1059.83 721.137 1069.48 713.995 1078.34 706.768C1092.1 695.507 1104.75 682.567 1115.9 668.449C1116.53 667.609 1117.32 666.6 1118.43 666.264Z" fill="#DDC199"/>
<path d="M1198.54 526.855C1194.35 525.847 1190.07 524.838 1185.88 523.83C1161.21 571.98 1139.39 621.812 1120.56 672.904C1124.91 675.845 1130.69 678.87 1134.88 675.677C1136.62 674.332 1137.65 672.147 1138.59 670.047C1159.95 622.988 1179.95 575.258 1198.54 526.855Z" fill="#BDB39B"/>
<g opacity="0.26">
<path opacity="0.26" d="M1120.79 761.137C1120.71 762.062 1122.05 762.398 1122.21 761.474C1125.61 734.163 1130.44 707.357 1136.68 680.634C1137.08 678.954 1134.63 678.449 1134.23 680.13C1127.75 706.6 1123.24 733.827 1120.79 761.137Z" fill="#272525"/>
<path opacity="0.26" d="M1094 749.121C1104.43 725.76 1115.5 702.735 1127.21 680.046C1127.92 678.701 1125.86 677.609 1125.15 678.954C1112.97 701.811 1101.98 725.34 1091.94 749.289C1092.1 749.457 1092.18 749.625 1092.26 749.793C1092.81 749.373 1093.36 749.205 1094 749.121Z" fill="#272525"/>
<path opacity="0.26" d="M1076.98 733.743C1094.46 716.264 1110.04 696.853 1123.64 675.844C1124.51 674.416 1122.29 673.239 1121.42 674.668C1108.06 695.592 1092.72 714.92 1075.56 732.398C1074.69 733.322 1076.11 734.667 1076.98 733.743Z" fill="#272525"/>
</g>
<path d="M955.765 690.213C955.845 688.953 956.003 687.608 956.081 686.347C945.643 678.784 927.297 681.221 916.226 685.087C904.364 689.204 904.364 696.935 904.522 710.044C904.601 717.439 905.234 725.759 910.611 730.548C914.723 734.246 920.496 734.75 925.874 735.086C930.697 735.422 935.442 735.674 940.266 736.01C943.587 736.178 947.303 736.263 949.913 733.993C952.523 731.641 952.918 727.691 953.235 724.077C954.104 712.733 954.974 701.473 955.765 690.213Z" fill="#2F3F47"/>
<path d="M968.506 690.213C968.427 688.953 968.269 687.608 968.189 686.347C978.628 678.784 996.974 681.221 1008.05 685.087C1019.91 689.204 1019.91 696.935 1019.75 710.044C1019.67 717.439 1019.04 725.759 1013.66 730.548C1009.55 734.246 1003.77 734.75 998.397 735.086C993.574 735.422 988.829 735.674 984.005 736.01C980.684 736.178 976.967 736.263 974.358 733.993C971.748 731.641 971.353 727.691 971.037 724.077C970.246 712.733 969.376 701.473 968.506 690.213Z" fill="#2F3F47"/>
<path d="M879.448 662.148C876.838 662.735 874.308 663.576 871.856 664.668C870.037 665.424 868.219 666.433 866.953 667.945C865.214 670.13 864.739 673.156 864.423 676.097C864.028 679.963 863.869 683.828 863.949 687.693C863.949 690.97 864.186 694.332 865.768 697.105C867.982 700.971 872.331 702.735 876.443 703.827C884.272 705.929 892.417 706.432 900.483 706.853C949.274 709.374 998.224 707.692 1046.78 701.895C1048.75 701.643 1050.97 701.307 1052.31 699.71C1053.1 698.786 1053.5 697.525 1053.89 696.348C1056.43 687.777 1058.09 676.097 1052.63 668.114C1047.96 661.307 1039.34 665.172 1032.86 665.088C1026.22 665.004 1019.5 664.416 1012.85 664.164C999.884 663.576 986.916 662.987 973.947 662.567C955.68 661.895 937.334 661.307 919.066 660.803C906.73 660.551 892.18 659.122 879.448 662.148Z" fill="#516770"/>
<path d="M984.308 477.695C1017.44 477.863 1050.5 478.62 1083.63 479.376C1082.84 460.637 1081.57 441.897 1077.78 423.578C1071.22 391.478 1056.19 360.134 1030.81 341.395C991.9 312.656 930.14 316.437 888.228 344.84C870.593 356.772 856.439 373.159 849.005 393.242C840.465 416.183 838.171 441.225 836.827 465.847C836.668 469.124 836.511 472.317 836.353 475.594C885.539 473.577 935.042 477.527 984.308 477.695Z" fill="#EAF1F2"/>
<path d="M981.657 487.108C933.103 487.024 884.39 483.327 835.836 485.175C833.464 541.141 835.678 597.359 842.479 652.989C843.428 660.636 844.614 668.618 849.359 674.668C856.713 683.996 869.445 679.878 879.33 679.878C896.015 679.878 913.175 680.635 930.019 681.055C961.809 681.811 993.361 681.895 1024.99 678.114C1040.02 676.35 1070.38 681.223 1077.58 666.853C1083.51 655.173 1081.06 631.476 1081.93 618.451C1082.96 602.989 1083.75 587.611 1084.22 572.149C1085.09 544.334 1084.93 516.519 1083.91 488.62C1049.9 487.948 1015.74 487.108 981.657 487.108Z" fill="#E2ECED"/>
<path d="M1096.33 577.696C1096.96 577.107 1097.04 576.099 1097.12 575.259C1098.78 551.982 1100.2 528.704 1101.23 505.427C1101.31 503.41 1101.31 501.058 1099.81 499.713C1098.7 498.789 1097.28 498.705 1095.85 498.705C1090.95 498.621 1086.13 498.537 1081.22 498.537C1078.14 525.007 1076.88 551.645 1077.51 578.284C1082.96 578.284 1088.34 578.368 1093.8 578.368C1094.67 578.368 1095.62 578.368 1096.33 577.696Z" fill="#2F3F47"/>
<path d="M1121.54 631.31C1122.17 629.378 1122.88 627.361 1124.3 625.932C1125.41 624.84 1126.91 624.167 1128.34 623.663C1134.5 621.31 1140.83 619.546 1147.24 618.369C1152.22 621.983 1156.73 626.269 1160.6 631.226C1161.31 632.151 1162.02 633.159 1162.18 634.336C1162.34 635.26 1162.1 636.184 1161.87 637.109C1159.33 647.445 1156.88 657.781 1154.35 668.117C1150.64 668.621 1146.92 668.705 1143.28 668.201C1144.71 661.898 1146.13 655.596 1147.47 649.377C1148.82 643.411 1149.85 636.1 1145.58 631.899C1141.23 633.075 1136.96 634.336 1132.61 635.512C1131.89 635.68 1131.1 635.932 1130.47 636.436C1129.76 637.109 1129.44 638.117 1129.13 639.041C1127.31 644.924 1125.96 650.974 1125.01 657.109C1122.25 656.268 1119.48 655.511 1116.71 654.671C1116.47 646.688 1119 638.874 1121.54 631.31Z" fill="#2F3F47"/>
<path d="M1155.14 622.233C1155.38 621.981 1155.46 621.646 1155.54 621.393C1156.33 617.612 1157.12 613.83 1157.99 610.133C1152.45 608.788 1146.76 607.863 1141.15 607.359C1140.28 610.469 1139.72 613.746 1139.49 617.023C1139.41 617.696 1139.41 618.536 1139.88 619.04C1140.2 619.376 1140.59 619.46 1140.99 619.629C1145.18 620.973 1149.53 621.981 1153.96 622.569C1154.27 622.485 1154.75 622.57 1155.14 622.233Z" fill="#516770"/>
<path d="M1160.69 607.529C1164.01 601.562 1161.32 585.848 1161.32 579.546C1161.24 570.89 1161.24 562.151 1159.34 553.748C1157.44 545.344 1153.57 537.109 1147.16 531.815C1143.53 528.79 1139.26 526.858 1134.83 525.261C1121.62 520.471 1107.47 518.875 1093.63 520.639C1092.52 520.807 1091.34 520.975 1090.54 521.816C1089.67 522.656 1089.52 524 1089.36 525.261C1088.73 530.051 1087.86 535.345 1088.09 540.218C1088.49 548.79 1086.83 546.437 1092.68 548.874C1097.19 550.723 1105.65 549.21 1110.79 550.471C1116.8 551.899 1122.65 554.084 1128.5 556.269C1132.22 557.613 1136.17 559.294 1138.07 562.907C1139.1 564.84 1139.41 567.193 1139.65 569.462C1141.08 582.908 1141.71 596.436 1141.63 609.966C1141.63 612.318 1157.92 611.142 1160.05 608.537C1160.29 608.201 1160.45 607.865 1160.69 607.529Z" fill="#E2ECED"/>
<g opacity="0.15">
<path opacity="0.15" d="M1133 529.129C1132.53 537.196 1130.55 544.507 1127.55 551.902C1126.99 553.33 1128.65 554.423 1129.52 553.162C1134.27 546.104 1136.72 537.7 1137.59 529.129C1137.91 526.104 1133.24 526.019 1133 529.129Z" fill="#272525"/>
<path opacity="0.15" d="M1145.11 534.927C1143.76 542.743 1140.44 547.869 1135.22 553.415C1134.51 554.171 1135.46 555.431 1136.25 554.843C1139.81 552.49 1143.13 550.978 1145.66 547.197C1148.03 543.667 1149.61 539.885 1150.09 535.6C1150.4 532.659 1145.66 531.986 1145.11 534.927Z" fill="#272525"/>
</g>
<path d="M828.075 499.209C827.442 499.797 827.364 500.806 827.284 501.646C825.624 524.923 824.2 548.2 823.172 571.477C823.093 573.494 823.093 575.847 824.596 577.191C825.703 578.116 827.126 578.2 828.549 578.2C833.452 578.284 838.276 578.368 843.179 578.368C846.263 551.898 847.528 525.259 846.896 498.621C841.439 498.621 836.062 498.537 830.606 498.537C829.736 498.537 828.708 498.537 828.075 499.209Z" fill="#2F3F47"/>
<path d="M766.78 470.555C767.017 472.572 767.254 474.756 766.542 476.605C765.989 478.117 764.961 479.378 763.854 480.555C759.346 485.512 754.444 490.135 749.145 494.252C743.135 493.412 737.284 491.647 731.827 489.042C730.799 488.538 729.692 488.034 729.059 487.025C728.585 486.269 728.348 485.344 728.189 484.42C726.133 474 723.998 463.496 721.942 453.076C725.026 450.891 728.348 449.042 731.827 447.697C733.172 454 734.595 460.302 735.939 466.605C737.283 472.571 739.418 479.63 744.954 481.311C748.354 478.202 751.676 475.092 755.076 471.983C755.63 471.479 756.262 470.891 756.579 470.135C756.974 469.21 756.816 468.117 756.657 467.109C755.788 460.975 754.522 454.924 752.783 448.958C755.63 448.37 758.397 447.782 761.244 447.193C764.882 454.336 765.831 462.571 766.78 470.555Z" fill="#2F3F47"/>
<path d="M740.509 494.502C740.43 494.838 740.509 495.175 740.509 495.427C741.379 499.208 742.249 502.906 743.039 506.687C748.575 505.258 754.031 503.41 759.329 501.225C758.855 498.031 757.985 494.838 756.799 491.813C756.562 491.141 756.246 490.468 755.613 490.216C755.218 490.048 754.822 490.132 754.347 490.216C749.998 490.973 745.728 492.149 741.537 493.662C741.141 493.83 740.667 494.082 740.509 494.502Z" fill="#516770"/>
<path d="M741.714 510.303C741.16 517.193 750.175 529.966 752.864 535.68C756.501 543.412 760.218 551.227 765.437 557.865C770.657 564.504 777.536 570.05 785.523 571.73C790.031 572.739 794.696 572.487 799.283 571.815C813.122 569.882 826.486 564.672 838.11 556.521C839.059 555.848 840.008 555.176 840.404 554C840.799 552.823 840.404 551.563 840.087 550.302C838.585 545.681 837.24 540.555 834.947 536.269C830.993 528.79 833.524 530.134 827.197 530.638C822.374 531.059 815.415 536.437 810.275 537.782C804.265 539.378 798.097 540.134 792.008 540.975C788.133 541.479 783.863 541.899 780.62 539.546C778.88 538.286 777.615 536.353 776.508 534.42C769.628 523.075 763.381 511.227 757.767 499.043C756.818 496.942 742.742 505.681 741.872 509.042C741.793 509.546 741.714 509.883 741.714 510.303Z" fill="#E2ECED"/>
<g opacity="0.15">
<path opacity="0.15" d="M799.187 567.442C796.261 559.963 794.996 552.484 794.521 544.417C794.442 542.821 792.465 542.653 792.228 544.25C790.962 552.821 792.228 561.476 795.075 569.543C796.103 572.484 800.373 570.299 799.187 567.442Z" fill="#272525"/>
<path opacity="0.15" d="M785.995 568.032C783.939 560.385 784.73 554.251 787.102 546.772C787.419 545.764 786.074 545.091 785.521 545.931C783.386 549.713 781.013 552.654 780.302 557.192C779.669 561.477 779.827 565.595 781.251 569.628C782.2 572.569 786.707 570.889 785.995 568.032Z" fill="#272525"/>
</g>
<path d="M858.436 422.739C858.514 425.932 858.672 429.209 859.938 432.151C863.18 439.461 871.72 441.814 879.233 443.159C922.172 450.805 966.061 453.411 1009.24 447.612C1014.93 446.856 1020.63 445.932 1025.84 443.411C1031.06 440.89 1035.73 436.604 1037.63 430.974C1038.81 427.36 1038.89 423.495 1038.97 419.63C1039.05 415.764 1039.05 411.815 1039.13 407.949C1039.13 406.185 1039.13 404.42 1038.5 402.739C1037.78 400.974 1036.36 399.546 1034.86 398.453C1029.17 394.336 1021.97 393.411 1015.09 392.655C969.383 387.781 923.122 383.496 877.652 390.05C875.754 390.302 873.776 390.638 872.432 392.067C871.72 392.739 871.246 393.664 870.534 394.336C869.19 395.428 867.371 395.344 865.79 395.932C861.361 397.445 859.78 403.244 859.226 408.202C858.594 412.991 858.356 417.865 858.436 422.739Z" fill="#2F3F47"/>
<path opacity="0.2" d="M915.679 429.797C917.182 426.856 917.419 423.411 917.103 420.05C916.945 418.033 916.47 415.933 915.284 414.42C912.753 411.227 908.088 411.563 904.213 410.807C900.813 412.319 897.965 415.26 896.542 418.874C895.672 421.058 895.277 423.411 895.514 425.764C896.068 430.554 899.785 434.672 904.213 435.512C908.72 436.521 913.544 434.083 915.679 429.797Z" fill="#EAF1F2"/>
<path opacity="0.2" d="M990.983 429.797C992.485 426.856 992.723 423.411 992.406 420.05C992.248 418.033 991.774 415.933 990.587 414.42C988.057 411.227 983.392 411.563 979.517 410.807C976.116 412.319 973.269 415.26 971.846 418.874C970.976 421.058 970.581 423.411 970.818 425.764C971.371 430.554 975.088 434.672 979.517 435.512C983.945 436.521 988.768 434.083 990.983 429.797Z" fill="#EAF1F2"/>
<defs>
<linearGradient id="paint0_linear_805_2742" x1="857.571" y1="748.659" x2="1196.34" y2="748.659" gradientUnits="userSpaceOnUse">
<stop stop-color="#4D4D4D"/>
<stop offset="1"/>
</linearGradient>
<linearGradient id="paint1_linear_805_2742" x1="857.571" y1="748.659" x2="1196.34" y2="748.659" gradientUnits="userSpaceOnUse">
<stop/>
<stop offset="1"/>
</linearGradient>
</defs>
</svg>
