<svg width="1199" height="772" viewBox="0 0 1199 772" fill="none" xmlns="http://www.w3.org/2000/svg">
<path d="M697.596 387C697.845 387 698.094 386.994 698.346 386.983C701.281 386.864 704.147 385.952 706.7 384.325C709.254 382.698 711.418 380.404 713.01 377.638C724.934 357.669 739.566 339.908 756.379 324.997C766.558 315.881 777.194 307.405 787.478 299.207C814.013 278.066 839.001 258.155 852.872 230.643C883.116 170.652 847.5 87.0923 796.619 49.6186C739.549 7.58992 664.483 0.997367 591.865 0.133407C584.318 0.0439794 576.767 -0.000465902 569.211 3.68211e-06C438.368 0.05622 307.801 13.4339 179.119 39.968C136.33 48.814 91.5399 59.6506 55.547 85.9492C19.7678 112.092 -1.97922 153.261 0.142339 190.835C3.23996 245.687 55.1323 286.673 102.385 297.389C147.424 307.594 194.212 300.697 243.746 293.393C254.682 291.782 265.988 290.115 277.169 288.666C398.685 272.928 626.961 321.438 636.618 323.511L646.2 325.566L683.376 379.173C685.048 381.617 687.202 383.595 689.668 384.952C692.135 386.31 694.848 387.011 697.596 387Z" fill="white"/>
<path d="M123.006 76.5455H127.057V98.696C127.057 100.983 126.518 103.025 125.44 104.822C124.372 106.608 122.864 108.018 120.915 109.053C118.965 110.076 116.679 110.588 114.054 110.588C111.429 110.588 109.143 110.076 107.193 109.053C105.244 108.018 103.73 106.608 102.652 104.822C101.585 103.025 101.051 100.983 101.051 98.696V76.5455H105.102V98.3693C105.102 100.003 105.462 101.457 106.18 102.731C106.899 103.994 107.923 104.991 109.251 105.72C110.591 106.439 112.192 106.798 114.054 106.798C115.916 106.798 117.517 106.439 118.857 105.72C120.196 104.991 121.22 103.994 121.928 102.731C122.646 101.457 123.006 100.003 123.006 98.3693V76.5455ZM109.349 72.3636C108.663 72.3636 108.054 72.1023 107.52 71.5795C106.997 71.0459 106.736 70.4361 106.736 69.75C106.736 68.9986 106.997 68.3778 107.52 67.8878C108.054 67.3868 108.663 67.1364 109.349 67.1364C110.101 67.1364 110.722 67.3868 111.212 67.8878C111.713 68.3778 111.963 68.9986 111.963 69.75C111.963 70.4361 111.713 71.0459 111.212 71.5795C110.722 72.1023 110.101 72.3636 109.349 72.3636ZM118.759 72.3636C118.072 72.3636 117.463 72.1023 116.929 71.5795C116.406 71.0459 116.145 70.4361 116.145 69.75C116.145 68.9986 116.406 68.3778 116.929 67.8878C117.463 67.3868 118.072 67.1364 118.759 67.1364C119.51 67.1364 120.131 67.3868 120.621 67.8878C121.122 68.3778 121.372 68.9986 121.372 69.75C121.372 70.4361 121.122 71.0459 120.621 71.5795C120.131 72.1023 119.51 72.3636 118.759 72.3636ZM135.147 110V76.5455H139.002V88.8949H139.329C139.612 88.4593 140.004 87.9039 140.505 87.2287C141.017 86.5426 141.746 85.9328 142.694 85.3991C143.652 84.8546 144.948 84.5824 146.581 84.5824C148.694 84.5824 150.556 85.1106 152.168 86.1669C153.78 87.2232 155.038 88.7206 155.942 90.6591C156.845 92.5975 157.297 94.8845 157.297 97.5199C157.297 100.177 156.845 102.48 155.942 104.43C155.038 106.368 153.785 107.871 152.184 108.938C150.584 109.995 148.738 110.523 146.647 110.523C145.035 110.523 143.745 110.256 142.775 109.722C141.806 109.178 141.06 108.562 140.537 107.876C140.015 107.179 139.612 106.602 139.329 106.145H138.871V110H135.147ZM138.937 97.4545C138.937 99.3494 139.214 101.021 139.77 102.469C140.325 103.907 141.136 105.034 142.204 105.851C143.271 106.657 144.578 107.06 146.124 107.06C147.736 107.06 149.081 106.635 150.159 105.786C151.248 104.925 152.065 103.771 152.609 102.322C153.165 100.863 153.442 99.2405 153.442 97.4545C153.442 95.6903 153.17 94.1004 152.626 92.6847C152.092 91.258 151.281 90.1309 150.192 89.3033C149.113 88.4647 147.758 88.0455 146.124 88.0455C144.556 88.0455 143.238 88.4429 142.171 89.2379C141.104 90.022 140.298 91.1219 139.753 92.5376C139.209 93.9425 138.937 95.5814 138.937 97.4545ZM173.714 110.523C171.297 110.523 169.211 109.989 167.458 108.922C165.715 107.844 164.371 106.341 163.423 104.413C162.487 102.475 162.018 100.221 162.018 97.6506C162.018 95.0805 162.487 92.8153 163.423 90.8551C164.371 88.884 165.688 87.3485 167.376 86.2486C169.075 85.1378 171.057 84.5824 173.322 84.5824C174.629 84.5824 175.92 84.8002 177.194 85.2358C178.468 85.6714 179.628 86.3793 180.673 87.3594C181.719 88.3286 182.552 89.6136 183.172 91.2145C183.793 92.8153 184.104 94.7865 184.104 97.1278V98.7614H164.763V95.429H180.183C180.183 94.0133 179.9 92.75 179.334 91.6392C178.778 90.5284 177.983 89.6518 176.949 89.0092C175.925 88.3667 174.716 88.0455 173.322 88.0455C171.787 88.0455 170.458 88.4266 169.336 89.1889C168.226 89.9403 167.371 90.9205 166.772 92.1293C166.173 93.3381 165.873 94.634 165.873 96.017V98.2386C165.873 100.134 166.2 101.74 166.854 103.058C167.518 104.364 168.438 105.361 169.614 106.047C170.79 106.722 172.157 107.06 173.714 107.06C174.727 107.06 175.642 106.918 176.459 106.635C177.286 106.341 178 105.905 178.599 105.328C179.198 104.74 179.66 104.01 179.987 103.139L183.711 104.185C183.319 105.448 182.661 106.559 181.735 107.517C180.809 108.464 179.666 109.205 178.305 109.739C176.943 110.261 175.413 110.523 173.714 110.523ZM189.968 110V84.9091H193.692V88.6989H193.954C194.411 87.4574 195.239 86.45 196.437 85.6768C197.635 84.9036 198.985 84.517 200.488 84.517C200.771 84.517 201.125 84.5225 201.55 84.5334C201.974 84.5443 202.296 84.5606 202.513 84.5824V88.5028C202.383 88.4702 202.083 88.4212 201.615 88.3558C201.157 88.2796 200.673 88.2415 200.161 88.2415C198.941 88.2415 197.852 88.4974 196.894 89.0092C195.947 89.5102 195.195 90.2071 194.64 91.1001C194.095 91.9822 193.823 92.9896 193.823 94.1222V110H189.968ZM220.543 110V76.5455H240.734V80.1392H224.594V91.4432H239.688V95.0369H224.594V106.406H240.995V110H220.543ZM261.888 91.4759V95.0696H247.251V91.4759H261.888ZM296.114 87H292.063C291.823 85.8348 291.404 84.8111 290.805 83.929C290.217 83.0469 289.498 82.3063 288.649 81.7074C287.81 81.0975 286.879 80.6402 285.856 80.3352C284.832 80.0303 283.765 79.8778 282.654 79.8778C280.628 79.8778 278.793 80.3897 277.149 81.4134C275.515 82.437 274.214 83.9453 273.245 85.9382C272.287 87.9311 271.807 90.3759 271.807 93.2727C271.807 96.1695 272.287 98.6143 273.245 100.607C274.214 102.6 275.515 104.108 277.149 105.132C278.793 106.156 280.628 106.668 282.654 106.668C283.765 106.668 284.832 106.515 285.856 106.21C286.879 105.905 287.81 105.453 288.649 104.854C289.498 104.245 290.217 103.499 290.805 102.616C291.404 101.723 291.823 100.7 292.063 99.5455H296.114C295.809 101.255 295.254 102.785 294.448 104.136C293.642 105.486 292.64 106.635 291.442 107.582C290.244 108.519 288.899 109.232 287.407 109.722C285.926 110.212 284.342 110.457 282.654 110.457C279.801 110.457 277.263 109.76 275.042 108.366C272.82 106.973 271.072 104.991 269.798 102.42C268.524 99.8504 267.887 96.8011 267.887 93.2727C267.887 89.7443 268.524 86.6951 269.798 84.125C271.072 81.5549 272.82 79.5729 275.042 78.179C277.263 76.785 279.801 76.0881 282.654 76.0881C284.342 76.0881 285.926 76.3331 287.407 76.8232C288.899 77.3132 290.244 78.032 291.442 78.9794C292.64 79.916 293.642 81.0594 294.448 82.4098C295.254 83.7493 295.809 85.2794 296.114 87ZM302.138 110V84.9091H305.993V110H302.138ZM304.098 80.7273C303.347 80.7273 302.699 80.4714 302.154 79.9595C301.621 79.4477 301.354 78.8324 301.354 78.1136C301.354 77.3949 301.621 76.7796 302.154 76.2678C302.699 75.7559 303.347 75.5 304.098 75.5C304.849 75.5 305.492 75.7559 306.026 76.2678C306.57 76.7796 306.842 77.3949 306.842 78.1136C306.842 78.8324 306.57 79.4477 306.026 79.9595C305.492 80.4714 304.849 80.7273 304.098 80.7273ZM323.966 84.9091V88.1761H310.963V84.9091H323.966ZM314.753 78.8977H318.608V102.812C318.608 103.902 318.766 104.718 319.081 105.263C319.408 105.796 319.822 106.156 320.323 106.341C320.835 106.515 321.374 106.602 321.94 106.602C322.365 106.602 322.713 106.58 322.986 106.537C323.258 106.482 323.476 106.439 323.639 106.406L324.423 109.869C324.162 109.967 323.797 110.065 323.329 110.163C322.86 110.272 322.267 110.327 321.548 110.327C320.459 110.327 319.392 110.093 318.346 109.624C317.312 109.156 316.452 108.443 315.765 107.484C315.09 106.526 314.753 105.317 314.753 103.858V78.8977ZM332.248 119.409C331.594 119.409 331.012 119.355 330.5 119.246C329.988 119.148 329.634 119.05 329.438 118.952L330.418 115.554C331.355 115.794 332.182 115.881 332.901 115.815C333.62 115.75 334.257 115.429 334.812 114.852C335.379 114.285 335.896 113.365 336.364 112.091L337.083 110.131L327.805 84.9091H331.986L338.912 104.903H339.174L346.1 84.9091H350.282L339.631 113.659C339.152 114.955 338.559 116.028 337.851 116.877C337.143 117.737 336.321 118.375 335.384 118.788C334.458 119.202 333.413 119.409 332.248 119.409ZM386.08 90.5284L382.617 91.5085C382.4 90.9313 382.078 90.3705 381.654 89.826C381.24 89.2706 380.673 88.8132 379.955 88.4538C379.236 88.0945 378.316 87.9148 377.194 87.9148C375.659 87.9148 374.379 88.2687 373.355 88.9766C372.343 89.6735 371.836 90.5611 371.836 91.6392C371.836 92.5975 372.185 93.3544 372.882 93.9098C373.579 94.4652 374.668 94.928 376.149 95.2983L379.873 96.2131C382.116 96.7576 383.788 97.5907 384.888 98.7124C385.988 99.8232 386.538 101.255 386.538 103.009C386.538 104.446 386.124 105.731 385.296 106.864C384.48 107.996 383.336 108.889 381.866 109.543C380.396 110.196 378.686 110.523 376.737 110.523C374.177 110.523 372.059 109.967 370.382 108.857C368.705 107.746 367.643 106.123 367.197 103.989L370.856 103.074C371.204 104.424 371.863 105.437 372.833 106.112C373.813 106.787 375.092 107.125 376.671 107.125C378.468 107.125 379.895 106.744 380.951 105.982C382.018 105.208 382.552 104.283 382.552 103.205C382.552 102.333 382.247 101.604 381.637 101.016C381.027 100.417 380.091 99.9702 378.828 99.6761L374.646 98.696C372.348 98.1515 370.66 97.3075 369.582 96.1641C368.515 95.0097 367.981 93.5668 367.981 91.8352C367.981 90.4195 368.378 89.1671 369.173 88.0781C369.979 86.9891 371.074 86.1342 372.457 85.5135C373.851 84.8928 375.43 84.5824 377.194 84.5824C379.677 84.5824 381.626 85.1269 383.042 86.2159C384.469 87.3049 385.481 88.7424 386.08 90.5284ZM392.341 110V84.9091H396.196V110H392.341ZM394.301 80.7273C393.55 80.7273 392.902 80.4714 392.357 79.9595C391.824 79.4477 391.557 78.8324 391.557 78.1136C391.557 77.3949 391.824 76.7796 392.357 76.2678C392.902 75.7559 393.55 75.5 394.301 75.5C395.053 75.5 395.695 75.7559 396.229 76.2678C396.773 76.7796 397.045 77.3949 397.045 78.1136C397.045 78.8324 396.773 79.4477 396.229 79.9595C395.695 80.4714 395.053 80.7273 394.301 80.7273ZM407.112 94.9062V110H403.257V84.9091H406.981V88.8295H407.308C407.896 87.5554 408.789 86.5317 409.987 85.7585C411.185 84.9744 412.731 84.5824 414.626 84.5824C416.325 84.5824 417.812 84.9309 419.086 85.6278C420.36 86.3139 421.351 87.3594 422.059 88.7642C422.767 90.1581 423.121 91.9223 423.121 94.0568V110H419.265V94.3182C419.265 92.3471 418.754 90.8116 417.73 89.7116C416.706 88.6009 415.301 88.0455 413.515 88.0455C412.285 88.0455 411.185 88.3123 410.216 88.8459C409.257 89.3795 408.501 90.1581 407.945 91.1818C407.39 92.2055 407.112 93.447 407.112 94.9062ZM439.64 110.523C437.549 110.523 435.703 109.995 434.102 108.938C432.501 107.871 431.249 106.368 430.345 104.43C429.441 102.48 428.989 100.177 428.989 97.5199C428.989 94.8845 429.441 92.5975 430.345 90.6591C431.249 88.7206 432.507 87.2232 434.118 86.1669C435.73 85.1106 437.592 84.5824 439.705 84.5824C441.338 84.5824 442.629 84.8546 443.576 85.3991C444.535 85.9328 445.264 86.5426 445.765 87.2287C446.277 87.9039 446.675 88.4593 446.958 88.8949H447.284V76.5455H451.14V110H447.415V106.145H446.958C446.675 106.602 446.272 107.179 445.749 107.876C445.226 108.562 444.48 109.178 443.511 109.722C442.542 110.256 441.251 110.523 439.64 110.523ZM440.162 107.06C441.709 107.06 443.016 106.657 444.083 105.851C445.15 105.034 445.961 103.907 446.517 102.469C447.072 101.021 447.35 99.3494 447.35 97.4545C447.35 95.5814 447.078 93.9425 446.533 92.5376C445.989 91.1219 445.183 90.022 444.115 89.2379C443.048 88.4429 441.73 88.0455 440.162 88.0455C438.529 88.0455 437.167 88.4647 436.078 89.3033C435 90.1309 434.189 91.258 433.645 92.6847C433.111 94.1004 432.844 95.6903 432.844 97.4545C432.844 99.2405 433.116 100.863 433.661 102.322C434.216 103.771 435.033 104.925 436.111 105.786C437.2 106.635 438.551 107.06 440.162 107.06ZM481.801 119.932C479.939 119.932 478.338 119.692 476.998 119.213C475.659 118.745 474.542 118.124 473.65 117.351C472.767 116.589 472.065 115.772 471.542 114.901L474.613 112.744C474.962 113.202 475.403 113.724 475.936 114.312C476.47 114.911 477.2 115.429 478.125 115.864C479.062 116.311 480.287 116.534 481.801 116.534C483.826 116.534 485.498 116.044 486.816 115.064C488.133 114.084 488.792 112.548 488.792 110.457V105.361H488.466C488.182 105.818 487.779 106.384 487.257 107.06C486.745 107.724 486.004 108.317 485.035 108.84C484.077 109.352 482.781 109.608 481.147 109.608C479.122 109.608 477.303 109.129 475.691 108.17C474.091 107.212 472.822 105.818 471.885 103.989C470.96 102.159 470.497 99.9375 470.497 97.3239C470.497 94.7538 470.949 92.5159 471.853 90.6101C472.757 88.6934 474.014 87.2124 475.626 86.1669C477.238 85.1106 479.1 84.5824 481.213 84.5824C482.846 84.5824 484.142 84.8546 485.1 85.3991C486.07 85.9328 486.81 86.5426 487.322 87.2287C487.845 87.9039 488.248 88.4593 488.531 88.8949H488.923V84.9091H492.647V110.719C492.647 112.875 492.157 114.628 491.177 115.979C490.208 117.34 488.901 118.336 487.257 118.968C485.623 119.611 483.805 119.932 481.801 119.932ZM481.67 106.145C483.217 106.145 484.523 105.791 485.591 105.083C486.658 104.375 487.469 103.357 488.025 102.028C488.58 100.7 488.858 99.1098 488.858 97.2585C488.858 95.4508 488.585 93.8554 488.041 92.4723C487.496 91.0893 486.69 90.0057 485.623 89.2216C484.556 88.4375 483.238 88.0455 481.67 88.0455C480.037 88.0455 478.675 88.4593 477.586 89.2869C476.508 90.1146 475.697 91.2254 475.152 92.6193C474.619 94.0133 474.352 95.5597 474.352 97.2585C474.352 99.0009 474.624 100.542 475.169 101.881C475.724 103.21 476.541 104.255 477.619 105.018C478.708 105.769 480.058 106.145 481.67 106.145ZM499.704 110V84.9091H503.429V88.6989H503.69C504.147 87.4574 504.975 86.45 506.173 85.6768C507.371 84.9036 508.721 84.517 510.224 84.517C510.507 84.517 510.861 84.5225 511.286 84.5334C511.711 84.5443 512.032 84.5606 512.25 84.5824V88.5028C512.119 88.4702 511.819 88.4212 511.351 88.3558C510.894 88.2796 510.409 88.2415 509.897 88.2415C508.678 88.2415 507.589 88.4974 506.63 89.0092C505.683 89.5102 504.931 90.2071 504.376 91.1001C503.832 91.9822 503.559 92.9896 503.559 94.1222V110H499.704ZM526.249 110.523C523.984 110.523 521.996 109.984 520.287 108.906C518.588 107.827 517.259 106.319 516.301 104.381C515.353 102.442 514.88 100.177 514.88 97.5852C514.88 94.9716 515.353 92.6901 516.301 90.7408C517.259 88.7914 518.588 87.2777 520.287 86.1996C521.996 85.1214 523.984 84.5824 526.249 84.5824C528.514 84.5824 530.496 85.1214 532.195 86.1996C533.905 87.2777 535.233 88.7914 536.181 90.7408C537.139 92.6901 537.618 94.9716 537.618 97.5852C537.618 100.177 537.139 102.442 536.181 104.381C535.233 106.319 533.905 107.827 532.195 108.906C530.496 109.984 528.514 110.523 526.249 110.523ZM526.249 107.06C527.97 107.06 529.385 106.619 530.496 105.737C531.607 104.854 532.429 103.695 532.963 102.257C533.496 100.82 533.763 99.2623 533.763 97.5852C533.763 95.9081 533.496 94.3454 532.963 92.897C532.429 91.4486 531.607 90.2779 530.496 89.3849C529.385 88.4919 527.97 88.0455 526.249 88.0455C524.528 88.0455 523.113 88.4919 522.002 89.3849C520.891 90.2779 520.069 91.4486 519.535 92.897C519.002 94.3454 518.735 95.9081 518.735 97.5852C518.735 99.2623 519.002 100.82 519.535 102.257C520.069 103.695 520.891 104.854 522.002 105.737C523.113 106.619 524.528 107.06 526.249 107.06ZM544.026 110V85.1051C544.026 83.2429 544.434 81.6366 545.251 80.2862C546.079 78.9358 547.217 77.9013 548.665 77.1825C550.124 76.4529 551.801 76.0881 553.696 76.0881C555.548 76.0881 557.208 76.4366 558.678 77.1335C560.149 77.8305 561.308 78.8215 562.158 80.1065C563.007 81.3916 563.432 82.9271 563.432 84.7131C563.432 86.6188 562.942 88.2251 561.962 89.532C560.982 90.8279 559.708 91.7481 558.139 92.2926V92.6193C560.263 92.8262 562 93.6593 563.35 95.1186C564.712 96.567 565.392 98.4564 565.392 100.787C565.392 102.551 564.989 104.13 564.183 105.524C563.378 106.907 562.245 108.002 560.786 108.808C559.326 109.603 557.617 110 555.656 110H551.997V106.406H555.722C556.909 106.406 557.932 106.167 558.793 105.688C559.664 105.208 560.339 104.544 560.818 103.695C561.298 102.845 561.537 101.876 561.537 100.787C561.537 99.0663 560.954 97.6451 559.789 96.5234C558.624 95.4018 557.05 94.8409 555.068 94.8409H552.128V91.1818H554.219C555.319 91.1818 556.266 90.9041 557.061 90.3487C557.867 89.7824 558.488 89.0528 558.923 88.1598C559.359 87.2559 559.577 86.303 559.577 85.3011C559.577 83.733 559.054 82.4044 558.009 81.3153C556.974 80.2263 555.558 79.6818 553.762 79.6818C552.074 79.6818 550.669 80.1882 549.547 81.201C548.436 82.2029 547.881 83.5043 547.881 85.1051V110H544.026ZM582.054 110.523C579.637 110.523 577.551 109.989 575.798 108.922C574.055 107.844 572.71 106.341 571.763 104.413C570.826 102.475 570.358 100.221 570.358 97.6506C570.358 95.0805 570.826 92.8153 571.763 90.8551C572.71 88.884 574.028 87.3485 575.716 86.2486C577.415 85.1378 579.397 84.5824 581.662 84.5824C582.969 84.5824 584.259 84.8002 585.534 85.2358C586.808 85.6714 587.968 86.3793 589.013 87.3594C590.058 88.3286 590.892 89.6136 591.512 91.2145C592.133 92.8153 592.443 94.7865 592.443 97.1278V98.7614H573.102V95.429H588.523C588.523 94.0133 588.24 92.75 587.673 91.6392C587.118 90.5284 586.323 89.6518 585.289 89.0092C584.265 88.3667 583.056 88.0455 581.662 88.0455C580.127 88.0455 578.798 88.4266 577.676 89.1889C576.566 89.9403 575.711 90.9205 575.112 92.1293C574.513 93.3381 574.213 94.634 574.213 96.017V98.2386C574.213 100.134 574.54 101.74 575.193 103.058C575.858 104.364 576.778 105.361 577.954 106.047C579.13 106.722 580.497 107.06 582.054 107.06C583.067 107.06 583.982 106.918 584.798 106.635C585.626 106.341 586.339 105.905 586.938 105.328C587.537 104.74 588 104.01 588.327 103.139L592.051 104.185C591.659 105.448 591 106.559 590.075 107.517C589.149 108.464 588.006 109.205 586.644 109.739C585.283 110.261 583.753 110.523 582.054 110.523ZM617.845 110L608.697 76.5455H612.813L619.805 103.793H620.132L627.254 76.5455H631.828L638.95 103.793H639.276L646.268 76.5455H650.384L641.237 110H637.055L629.671 83.3409H629.41L622.026 110H617.845ZM662.767 110.523C660.501 110.523 658.514 109.984 656.804 108.906C655.105 107.827 653.777 106.319 652.818 104.381C651.871 102.442 651.397 100.177 651.397 97.5852C651.397 94.9716 651.871 92.6901 652.818 90.7408C653.777 88.7914 655.105 87.2777 656.804 86.1996C658.514 85.1214 660.501 84.5824 662.767 84.5824C665.032 84.5824 667.014 85.1214 668.713 86.1996C670.422 87.2777 671.751 88.7914 672.698 90.7408C673.657 92.6901 674.136 94.9716 674.136 97.5852C674.136 100.177 673.657 102.442 672.698 104.381C671.751 106.319 670.422 107.827 668.713 108.906C667.014 109.984 665.032 110.523 662.767 110.523ZM662.767 107.06C664.487 107.06 665.903 106.619 667.014 105.737C668.124 104.854 668.947 103.695 669.48 102.257C670.014 100.82 670.281 99.2623 670.281 97.5852C670.281 95.9081 670.014 94.3454 669.48 92.897C668.947 91.4486 668.124 90.2779 667.014 89.3849C665.903 88.4919 664.487 88.0455 662.767 88.0455C661.046 88.0455 659.63 88.4919 658.519 89.3849C657.409 90.2779 656.586 91.4486 656.053 92.897C655.519 94.3454 655.252 95.9081 655.252 97.5852C655.252 99.2623 655.519 100.82 656.053 102.257C656.586 103.695 657.409 104.854 658.519 105.737C659.63 106.619 661.046 107.06 662.767 107.06ZM683.876 76.5455V110H680.021V76.5455H683.876ZM694.53 100.852L694.465 96.0824H695.249L706.226 84.9091H710.996L699.3 96.7358H698.974L694.53 100.852ZM690.937 110V76.5455H694.792V110H690.937ZM706.88 110L697.079 97.5852L699.823 94.9062L711.78 110H706.88ZM725.445 110.523C723.027 110.523 720.942 109.989 719.188 108.922C717.446 107.844 716.101 106.341 715.154 104.413C714.217 102.475 713.749 100.221 713.749 97.6506C713.749 95.0805 714.217 92.8153 715.154 90.8551C716.101 88.884 717.419 87.3485 719.107 86.2486C720.806 85.1378 722.788 84.5824 725.053 84.5824C726.36 84.5824 727.65 84.8002 728.924 85.2358C730.198 85.6714 731.358 86.3793 732.404 87.3594C733.449 88.3286 734.282 89.6136 734.903 91.2145C735.524 92.8153 735.834 94.7865 735.834 97.1278V98.7614H716.493V95.429H731.914C731.914 94.0133 731.63 92.75 731.064 91.6392C730.509 90.5284 729.714 89.6518 728.679 89.0092C727.655 88.3667 726.447 88.0455 725.053 88.0455C723.517 88.0455 722.189 88.4266 721.067 89.1889C719.956 89.9403 719.101 90.9205 718.502 92.1293C717.903 93.3381 717.604 94.634 717.604 96.017V98.2386C717.604 100.134 717.931 101.74 718.584 103.058C719.248 104.364 720.169 105.361 721.345 106.047C722.521 106.722 723.887 107.06 725.445 107.06C726.458 107.06 727.372 106.918 728.189 106.635C729.017 106.341 729.73 105.905 730.329 105.328C730.928 104.74 731.391 104.01 731.718 103.139L735.442 104.185C735.05 105.448 734.391 106.559 733.465 107.517C732.54 108.464 731.396 109.205 730.035 109.739C728.674 110.261 727.144 110.523 725.445 110.523ZM745.553 94.9062V110H741.698V84.9091H745.423V88.8295H745.749C746.338 87.5554 747.231 86.5317 748.428 85.7585C749.626 84.9744 751.173 84.5824 753.068 84.5824C754.767 84.5824 756.253 84.9309 757.527 85.6278C758.801 86.3139 759.792 87.3594 760.5 88.7642C761.208 90.1581 761.562 91.9223 761.562 94.0568V110H757.707V94.3182C757.707 92.3471 757.195 90.8116 756.171 89.7116C755.148 88.6009 753.743 88.0455 751.957 88.0455C750.726 88.0455 749.626 88.3123 748.657 88.8459C747.699 89.3795 746.942 90.1581 746.387 91.1818C745.831 92.2055 745.553 93.447 745.553 94.9062ZM107.912 166.588C106.322 166.588 104.879 166.289 103.583 165.69C102.287 165.08 101.258 164.203 100.496 163.06C99.7334 161.905 99.3523 160.511 99.3523 158.878C99.3523 157.44 99.6354 156.275 100.202 155.382C100.768 154.478 101.525 153.77 102.472 153.259C103.42 152.747 104.465 152.366 105.609 152.115C106.763 151.854 107.923 151.647 109.088 151.494C110.613 151.298 111.849 151.151 112.796 151.053C113.754 150.944 114.451 150.765 114.887 150.514C115.334 150.264 115.557 149.828 115.557 149.207V149.077C115.557 147.465 115.116 146.213 114.234 145.32C113.362 144.427 112.039 143.98 110.264 143.98C108.424 143.98 106.981 144.383 105.935 145.189C104.89 145.995 104.155 146.855 103.73 147.77L100.071 146.463C100.724 144.938 101.596 143.751 102.685 142.902C103.785 142.042 104.982 141.443 106.278 141.105C107.585 140.757 108.87 140.582 110.134 140.582C110.939 140.582 111.865 140.68 112.911 140.876C113.967 141.062 114.985 141.448 115.965 142.036C116.956 142.624 117.778 143.512 118.432 144.699C119.085 145.886 119.412 147.476 119.412 149.469V166H115.557V162.602H115.361C115.099 163.147 114.664 163.729 114.054 164.35C113.444 164.971 112.633 165.499 111.62 165.935C110.607 166.37 109.371 166.588 107.912 166.588ZM108.5 163.125C110.025 163.125 111.31 162.826 112.355 162.227C113.411 161.628 114.206 160.854 114.74 159.907C115.285 158.96 115.557 157.963 115.557 156.918V153.389C115.393 153.585 115.034 153.765 114.479 153.928C113.934 154.081 113.303 154.217 112.584 154.337C111.876 154.446 111.184 154.544 110.509 154.631C109.845 154.707 109.306 154.772 108.892 154.827C107.89 154.957 106.954 155.17 106.082 155.464C105.222 155.747 104.525 156.177 103.991 156.754C103.469 157.321 103.207 158.094 103.207 159.074C103.207 160.413 103.703 161.426 104.694 162.112C105.696 162.787 106.964 163.125 108.5 163.125ZM142.261 155.741V140.909H146.116V166H142.261V161.753H141.999C141.411 163.027 140.497 164.111 139.255 165.004C138.014 165.886 136.445 166.327 134.551 166.327C132.982 166.327 131.588 165.984 130.369 165.298C129.149 164.601 128.191 163.555 127.494 162.161C126.797 160.756 126.448 158.987 126.448 156.852V140.909H130.303V156.591C130.303 158.42 130.815 159.88 131.839 160.969C132.874 162.058 134.191 162.602 135.792 162.602C136.75 162.602 137.725 162.357 138.716 161.867C139.718 161.377 140.557 160.626 141.232 159.613C141.918 158.6 142.261 157.31 142.261 155.741ZM164.35 140.909V144.176H150.825V140.909H164.35ZM154.876 166V137.446C154.876 136.009 155.213 134.811 155.888 133.852C156.564 132.894 157.44 132.175 158.518 131.696C159.597 131.217 160.735 130.977 161.933 130.977C162.88 130.977 163.653 131.054 164.252 131.206C164.851 131.358 165.298 131.5 165.592 131.631L164.481 134.963C164.285 134.898 164.013 134.816 163.664 134.718C163.326 134.62 162.88 134.571 162.325 134.571C161.05 134.571 160.13 134.892 159.564 135.535C159.009 136.177 158.731 137.119 158.731 138.361V166H154.876ZM178.848 175.932C176.985 175.932 175.385 175.692 174.045 175.213C172.706 174.745 171.589 174.124 170.696 173.351C169.814 172.589 169.112 171.772 168.589 170.901L171.66 168.744C172.009 169.202 172.45 169.724 172.983 170.312C173.517 170.911 174.247 171.429 175.172 171.864C176.109 172.311 177.334 172.534 178.848 172.534C180.873 172.534 182.545 172.044 183.863 171.064C185.18 170.084 185.839 168.548 185.839 166.457V161.361H185.512C185.229 161.818 184.826 162.384 184.304 163.06C183.792 163.724 183.051 164.317 182.082 164.84C181.124 165.352 179.828 165.608 178.194 165.608C176.169 165.608 174.35 165.129 172.738 164.17C171.137 163.212 169.869 161.818 168.932 159.989C168.007 158.159 167.544 155.937 167.544 153.324C167.544 150.754 167.996 148.516 168.9 146.61C169.803 144.693 171.061 143.212 172.673 142.167C174.285 141.111 176.147 140.582 178.26 140.582C179.893 140.582 181.189 140.855 182.147 141.399C183.117 141.933 183.857 142.543 184.369 143.229C184.892 143.904 185.295 144.459 185.578 144.895H185.97V140.909H189.694V166.719C189.694 168.875 189.204 170.628 188.224 171.979C187.255 173.34 185.948 174.336 184.304 174.968C182.67 175.611 180.851 175.932 178.848 175.932ZM178.717 162.145C180.263 162.145 181.57 161.791 182.637 161.083C183.705 160.375 184.516 159.357 185.071 158.028C185.627 156.7 185.904 155.11 185.904 153.259C185.904 151.451 185.632 149.855 185.088 148.472C184.543 147.089 183.737 146.006 182.67 145.222C181.603 144.437 180.285 144.045 178.717 144.045C177.083 144.045 175.722 144.459 174.633 145.287C173.555 146.115 172.744 147.225 172.199 148.619C171.666 150.013 171.399 151.56 171.399 153.259C171.399 155.001 171.671 156.542 172.216 157.881C172.771 159.21 173.588 160.255 174.666 161.018C175.755 161.769 177.105 162.145 178.717 162.145ZM207.271 166.523C204.853 166.523 202.768 165.989 201.015 164.922C199.272 163.844 197.927 162.341 196.98 160.413C196.043 158.475 195.575 156.221 195.575 153.651C195.575 151.08 196.043 148.815 196.98 146.855C197.927 144.884 199.245 143.348 200.933 142.249C202.632 141.138 204.614 140.582 206.879 140.582C208.186 140.582 209.476 140.8 210.75 141.236C212.025 141.671 213.184 142.379 214.23 143.359C215.275 144.329 216.108 145.614 216.729 147.214C217.35 148.815 217.66 150.786 217.66 153.128V154.761H198.319V151.429H213.74C213.74 150.013 213.457 148.75 212.89 147.639C212.335 146.528 211.54 145.652 210.505 145.009C209.482 144.367 208.273 144.045 206.879 144.045C205.343 144.045 204.015 144.427 202.893 145.189C201.782 145.94 200.927 146.92 200.328 148.129C199.73 149.338 199.43 150.634 199.43 152.017V154.239C199.43 156.134 199.757 157.74 200.41 159.058C201.074 160.364 201.995 161.361 203.171 162.047C204.347 162.722 205.714 163.06 207.271 163.06C208.284 163.06 209.199 162.918 210.015 162.635C210.843 162.341 211.556 161.905 212.155 161.328C212.754 160.74 213.217 160.01 213.544 159.139L217.268 160.185C216.876 161.448 216.217 162.559 215.292 163.517C214.366 164.464 213.222 165.205 211.861 165.739C210.5 166.261 208.97 166.523 207.271 166.523ZM234.436 140.909V144.176H221.434V140.909H234.436ZM225.223 134.898H229.078V158.812C229.078 159.902 229.236 160.718 229.552 161.263C229.879 161.796 230.293 162.156 230.794 162.341C231.306 162.515 231.845 162.602 232.411 162.602C232.836 162.602 233.184 162.58 233.456 162.537C233.729 162.482 233.946 162.439 234.11 162.406L234.894 165.869C234.632 165.967 234.268 166.065 233.799 166.163C233.331 166.272 232.738 166.327 232.019 166.327C230.93 166.327 229.863 166.093 228.817 165.624C227.783 165.156 226.922 164.443 226.236 163.484C225.561 162.526 225.223 161.317 225.223 159.858V134.898ZM247.619 166.588C246.029 166.588 244.586 166.289 243.29 165.69C241.994 165.08 240.965 164.203 240.203 163.06C239.44 161.905 239.059 160.511 239.059 158.878C239.059 157.44 239.342 156.275 239.909 155.382C240.475 154.478 241.232 153.77 242.179 153.259C243.127 152.747 244.172 152.366 245.316 152.115C246.47 151.854 247.63 151.647 248.795 151.494C250.32 151.298 251.556 151.151 252.503 151.053C253.462 150.944 254.158 150.765 254.594 150.514C255.041 150.264 255.264 149.828 255.264 149.207V149.077C255.264 147.465 254.823 146.213 253.941 145.32C253.069 144.427 251.746 143.98 249.971 143.98C248.131 143.98 246.688 144.383 245.642 145.189C244.597 145.995 243.862 146.855 243.437 147.77L239.778 146.463C240.431 144.938 241.303 143.751 242.392 142.902C243.492 142.042 244.69 141.443 245.985 141.105C247.292 140.757 248.577 140.582 249.841 140.582C250.646 140.582 251.572 140.68 252.618 140.876C253.674 141.062 254.692 141.448 255.672 142.036C256.663 142.624 257.485 143.512 258.139 144.699C258.792 145.886 259.119 147.476 259.119 149.469V166H255.264V162.602H255.068C254.806 163.147 254.371 163.729 253.761 164.35C253.151 164.971 252.34 165.499 251.327 165.935C250.314 166.37 249.078 166.588 247.619 166.588ZM248.207 163.125C249.732 163.125 251.017 162.826 252.062 162.227C253.118 161.628 253.913 160.854 254.447 159.907C254.992 158.96 255.264 157.963 255.264 156.918V153.389C255.1 153.585 254.741 153.765 254.186 153.928C253.641 154.081 253.01 154.217 252.291 154.337C251.583 154.446 250.891 154.544 250.216 154.631C249.552 154.707 249.013 154.772 248.599 154.827C247.597 154.957 246.661 155.17 245.789 155.464C244.929 155.747 244.232 156.177 243.699 156.754C243.176 157.321 242.914 158.094 242.914 159.074C242.914 160.413 243.41 161.426 244.401 162.112C245.403 162.787 246.672 163.125 248.207 163.125ZM281.968 155.741V140.909H285.823V166H281.968V161.753H281.706C281.118 163.027 280.204 164.111 278.962 165.004C277.721 165.886 276.153 166.327 274.258 166.327C272.689 166.327 271.296 165.984 270.076 165.298C268.856 164.601 267.898 163.555 267.201 162.161C266.504 160.756 266.155 158.987 266.155 156.852V140.909H270.01V156.591C270.01 158.42 270.522 159.88 271.546 160.969C272.581 162.058 273.898 162.602 275.499 162.602C276.457 162.602 277.432 162.357 278.423 161.867C279.425 161.377 280.264 160.626 280.939 159.613C281.625 158.6 281.968 157.31 281.968 155.741ZM303.077 166.523C300.725 166.523 298.699 165.967 297 164.857C295.301 163.746 293.995 162.216 293.08 160.266C292.165 158.317 291.708 156.09 291.708 153.585C291.708 151.037 292.176 148.788 293.113 146.839C294.06 144.879 295.378 143.348 297.066 142.249C298.765 141.138 300.747 140.582 303.012 140.582C304.776 140.582 306.366 140.909 307.782 141.562C309.197 142.216 310.357 143.131 311.261 144.307C312.165 145.483 312.726 146.855 312.944 148.423H309.088C308.794 147.28 308.141 146.267 307.128 145.385C306.126 144.492 304.776 144.045 303.077 144.045C301.574 144.045 300.257 144.437 299.124 145.222C298.002 145.995 297.126 147.089 296.494 148.505C295.873 149.91 295.563 151.56 295.563 153.455C295.563 155.393 295.868 157.081 296.478 158.518C297.098 159.956 297.97 161.072 299.091 161.867C300.224 162.662 301.552 163.06 303.077 163.06C304.079 163.06 304.988 162.885 305.805 162.537C306.622 162.188 307.313 161.688 307.88 161.034C308.446 160.381 308.849 159.597 309.088 158.682H312.944C312.726 160.163 312.187 161.497 311.326 162.684C310.477 163.86 309.35 164.797 307.945 165.494C306.551 166.18 304.928 166.523 303.077 166.523ZM322.434 150.906V166H318.579V132.545H322.434V144.83H322.761C323.349 143.534 324.231 142.504 325.407 141.742C326.594 140.969 328.173 140.582 330.145 140.582C331.854 140.582 333.352 140.925 334.637 141.612C335.922 142.287 336.918 143.327 337.626 144.732C338.345 146.125 338.704 147.901 338.704 150.057V166H334.849V150.318C334.849 148.325 334.332 146.784 333.297 145.695C332.274 144.595 330.852 144.045 329.034 144.045C327.77 144.045 326.638 144.312 325.636 144.846C324.645 145.379 323.861 146.158 323.284 147.182C322.717 148.205 322.434 149.447 322.434 150.906ZM356.669 140.909V144.176H343.666V140.909H356.669ZM347.456 134.898H351.311V158.812C351.311 159.902 351.469 160.718 351.785 161.263C352.111 161.796 352.525 162.156 353.026 162.341C353.538 162.515 354.077 162.602 354.643 162.602C355.068 162.602 355.416 162.58 355.689 162.537C355.961 162.482 356.179 162.439 356.342 162.406L357.126 165.869C356.865 165.967 356.5 166.065 356.032 166.163C355.564 166.272 354.97 166.327 354.251 166.327C353.162 166.327 352.095 166.093 351.05 165.624C350.015 165.156 349.155 164.443 348.469 163.484C347.793 162.526 347.456 161.317 347.456 159.858V134.898ZM368.218 161.426L367.956 163.19C367.771 164.432 367.488 165.76 367.107 167.176C366.737 168.592 366.35 169.926 365.947 171.178C365.544 172.431 365.212 173.427 364.951 174.168H362.01C362.152 173.471 362.337 172.55 362.566 171.407C362.795 170.263 363.023 168.984 363.252 167.568C363.492 166.163 363.688 164.726 363.84 163.256L364.036 161.426H368.218ZM388.298 166V140.909H392.022V144.83H392.349C392.872 143.49 393.716 142.45 394.881 141.71C396.046 140.958 397.446 140.582 399.079 140.582C400.734 140.582 402.112 140.958 403.212 141.71C404.323 142.45 405.189 143.49 405.809 144.83H406.071C406.713 143.534 407.677 142.504 408.962 141.742C410.247 140.969 411.788 140.582 413.585 140.582C415.828 140.582 417.663 141.285 419.09 142.69C420.516 144.084 421.23 146.256 421.23 149.207V166H417.375V149.207C417.375 147.356 416.868 146.033 415.855 145.238C414.843 144.443 413.65 144.045 412.278 144.045C410.514 144.045 409.147 144.579 408.178 145.646C407.209 146.703 406.724 148.042 406.724 149.665V166H402.804V148.815C402.804 147.389 402.341 146.24 401.415 145.369C400.489 144.487 399.297 144.045 397.838 144.045C396.836 144.045 395.899 144.312 395.028 144.846C394.168 145.379 393.471 146.12 392.937 147.067C392.414 148.004 392.153 149.088 392.153 150.318V166H388.298ZM428.278 166V140.909H432.134V166H428.278ZM430.239 136.727C429.487 136.727 428.839 136.471 428.295 135.96C427.761 135.448 427.494 134.832 427.494 134.114C427.494 133.395 427.761 132.78 428.295 132.268C428.839 131.756 429.487 131.5 430.239 131.5C430.99 131.5 431.633 131.756 432.166 132.268C432.711 132.78 432.983 133.395 432.983 134.114C432.983 134.832 432.711 135.448 432.166 135.96C431.633 136.471 430.99 136.727 430.239 136.727ZM450.106 140.909V144.176H437.104V140.909H450.106ZM440.893 134.898H444.748V158.812C444.748 159.902 444.906 160.718 445.222 161.263C445.549 161.796 445.963 162.156 446.464 162.341C446.975 162.515 447.515 162.602 448.081 162.602C448.506 162.602 448.854 162.58 449.126 162.537C449.398 162.482 449.616 162.439 449.78 162.406L450.564 165.869C450.302 165.967 449.938 166.065 449.469 166.163C449.001 166.272 448.407 166.327 447.689 166.327C446.6 166.327 445.532 166.093 444.487 165.624C443.452 165.156 442.592 164.443 441.906 163.484C441.231 162.526 440.893 161.317 440.893 159.858V134.898ZM478.317 166.523C476.226 166.523 474.381 165.995 472.78 164.938C471.179 163.871 469.926 162.368 469.023 160.43C468.119 158.48 467.667 156.177 467.667 153.52C467.667 150.884 468.119 148.598 469.023 146.659C469.926 144.721 471.184 143.223 472.796 142.167C474.408 141.111 476.27 140.582 478.383 140.582C480.016 140.582 481.307 140.855 482.254 141.399C483.212 141.933 483.942 142.543 484.443 143.229C484.955 143.904 485.352 144.459 485.635 144.895H485.962V132.545H489.817V166H486.093V162.145H485.635C485.352 162.602 484.949 163.179 484.427 163.876C483.904 164.562 483.158 165.178 482.189 165.722C481.22 166.256 479.929 166.523 478.317 166.523ZM478.84 163.06C480.386 163.06 481.693 162.657 482.76 161.851C483.828 161.034 484.639 159.907 485.194 158.469C485.75 157.021 486.028 155.349 486.028 153.455C486.028 151.581 485.755 149.942 485.211 148.538C484.666 147.122 483.86 146.022 482.793 145.238C481.726 144.443 480.408 144.045 478.84 144.045C477.206 144.045 475.845 144.465 474.756 145.303C473.678 146.131 472.867 147.258 472.322 148.685C471.789 150.1 471.522 151.69 471.522 153.455C471.522 155.241 471.794 156.863 472.339 158.322C472.894 159.771 473.711 160.925 474.789 161.786C475.878 162.635 477.228 163.06 478.84 163.06ZM507.933 166.523C505.515 166.523 503.43 165.989 501.677 164.922C499.934 163.844 498.589 162.341 497.642 160.413C496.705 158.475 496.237 156.221 496.237 153.651C496.237 151.08 496.705 148.815 497.642 146.855C498.589 144.884 499.907 143.348 501.595 142.249C503.294 141.138 505.276 140.582 507.541 140.582C508.848 140.582 510.138 140.8 511.412 141.236C512.687 141.671 513.846 142.379 514.892 143.359C515.937 144.329 516.77 145.614 517.391 147.214C518.012 148.815 518.322 150.786 518.322 153.128V154.761H498.981V151.429H514.402C514.402 150.013 514.119 148.75 513.552 147.639C512.997 146.528 512.202 145.652 511.167 145.009C510.144 144.367 508.935 144.045 507.541 144.045C506.006 144.045 504.677 144.427 503.555 145.189C502.444 145.94 501.59 146.92 500.991 148.129C500.392 149.338 500.092 150.634 500.092 152.017V154.239C500.092 156.134 500.419 157.74 501.072 159.058C501.737 160.364 502.657 161.361 503.833 162.047C505.009 162.722 506.376 163.06 507.933 163.06C508.946 163.06 509.861 162.918 510.677 162.635C511.505 162.341 512.218 161.905 512.817 161.328C513.416 160.74 513.879 160.01 514.206 159.139L517.93 160.185C517.538 161.448 516.879 162.559 515.954 163.517C515.028 164.464 513.885 165.205 512.523 165.739C511.162 166.261 509.632 166.523 507.933 166.523ZM528.042 150.906V166H524.187V140.909H527.911V144.83H528.238C528.826 143.555 529.719 142.532 530.917 141.759C532.115 140.974 533.661 140.582 535.556 140.582C537.255 140.582 538.741 140.931 540.015 141.628C541.29 142.314 542.281 143.359 542.988 144.764C543.696 146.158 544.05 147.922 544.05 150.057V166H540.195V150.318C540.195 148.347 539.683 146.812 538.66 145.712C537.636 144.601 536.231 144.045 534.445 144.045C533.215 144.045 532.115 144.312 531.145 144.846C530.187 145.379 529.43 146.158 528.875 147.182C528.319 148.205 528.042 149.447 528.042 150.906ZM561.615 166.523C559.197 166.523 557.112 165.989 555.358 164.922C553.616 163.844 552.271 162.341 551.324 160.413C550.387 158.475 549.919 156.221 549.919 153.651C549.919 151.08 550.387 148.815 551.324 146.855C552.271 144.884 553.589 143.348 555.277 142.249C556.975 141.138 558.958 140.582 561.223 140.582C562.529 140.582 563.82 140.8 565.094 141.236C566.368 141.671 567.528 142.379 568.574 143.359C569.619 144.329 570.452 145.614 571.073 147.214C571.694 148.815 572.004 150.786 572.004 153.128V154.761H552.663V151.429H568.083C568.083 150.013 567.8 148.75 567.234 147.639C566.679 146.528 565.884 145.652 564.849 145.009C563.825 144.367 562.617 144.045 561.223 144.045C559.687 144.045 558.359 144.427 557.237 145.189C556.126 145.94 555.271 146.92 554.672 148.129C554.073 149.338 553.774 150.634 553.774 152.017V154.239C553.774 156.134 554.1 157.74 554.754 159.058C555.418 160.364 556.338 161.361 557.515 162.047C558.691 162.722 560.057 163.06 561.615 163.06C562.627 163.06 563.542 162.918 564.359 162.635C565.187 162.341 565.9 161.905 566.499 161.328C567.098 160.74 567.561 160.01 567.887 159.139L571.612 160.185C571.22 161.448 570.561 162.559 569.635 163.517C568.71 164.464 567.566 165.205 566.205 165.739C564.844 166.261 563.314 166.523 561.615 166.523ZM581.723 150.906V166H577.868V140.909H581.593V144.83H581.919C582.507 143.555 583.4 142.532 584.598 141.759C585.796 140.974 587.343 140.582 589.238 140.582C590.936 140.582 592.423 140.931 593.697 141.628C594.971 142.314 595.962 143.359 596.67 144.764C597.378 146.158 597.732 147.922 597.732 150.057V166H593.877V150.318C593.877 148.347 593.365 146.812 592.341 145.712C591.318 144.601 589.913 144.045 588.127 144.045C586.896 144.045 585.796 144.312 584.827 144.846C583.869 145.379 583.112 146.158 582.556 147.182C582.001 148.205 581.723 149.447 581.723 150.906ZM627.188 166.523C625.097 166.523 623.252 165.995 621.651 164.938C620.05 163.871 618.798 162.368 617.894 160.43C616.99 158.48 616.538 156.177 616.538 153.52C616.538 150.884 616.99 148.598 617.894 146.659C618.798 144.721 620.055 143.223 621.667 142.167C623.279 141.111 625.141 140.582 627.254 140.582C628.887 140.582 630.178 140.855 631.125 141.399C632.084 141.933 632.813 142.543 633.314 143.229C633.826 143.904 634.223 144.459 634.507 144.895H634.833V132.545H638.688V166H634.964V162.145H634.507C634.223 162.602 633.82 163.179 633.298 163.876C632.775 164.562 632.029 165.178 631.06 165.722C630.091 166.256 628.8 166.523 627.188 166.523ZM627.711 163.06C629.258 163.06 630.564 162.657 631.632 161.851C632.699 161.034 633.51 159.907 634.066 158.469C634.621 157.021 634.899 155.349 634.899 153.455C634.899 151.581 634.626 149.942 634.082 148.538C633.537 147.122 632.731 146.022 631.664 145.238C630.597 144.443 629.279 144.045 627.711 144.045C626.078 144.045 624.716 144.465 623.627 145.303C622.549 146.131 621.738 147.258 621.193 148.685C620.66 150.1 620.393 151.69 620.393 153.455C620.393 155.241 620.665 156.863 621.21 158.322C621.765 159.771 622.582 160.925 623.66 161.786C624.749 162.635 626.099 163.06 627.711 163.06ZM646.284 166V140.909H650.139V166H646.284ZM648.244 136.727C647.493 136.727 646.845 136.471 646.301 135.96C645.767 135.448 645.5 134.832 645.5 134.114C645.5 133.395 645.767 132.78 646.301 132.268C646.845 131.756 647.493 131.5 648.244 131.5C648.996 131.5 649.638 131.756 650.172 132.268C650.717 132.78 650.989 133.395 650.989 134.114C650.989 134.832 650.717 135.448 650.172 135.96C649.638 136.471 648.996 136.727 648.244 136.727ZM667.72 166.523C665.303 166.523 663.217 165.989 661.464 164.922C659.721 163.844 658.376 162.341 657.429 160.413C656.492 158.475 656.024 156.221 656.024 153.651C656.024 151.08 656.492 148.815 657.429 146.855C658.376 144.884 659.694 143.348 661.382 142.249C663.081 141.138 665.063 140.582 667.328 140.582C668.635 140.582 669.925 140.8 671.2 141.236C672.474 141.671 673.634 142.379 674.679 143.359C675.724 144.329 676.558 145.614 677.178 147.214C677.799 148.815 678.109 150.786 678.109 153.128V154.761H658.768V151.429H674.189C674.189 150.013 673.906 148.75 673.339 147.639C672.784 146.528 671.989 145.652 670.955 145.009C669.931 144.367 668.722 144.045 667.328 144.045C665.793 144.045 664.464 144.427 663.342 145.189C662.232 145.94 661.377 146.92 660.778 148.129C660.179 149.338 659.879 150.634 659.879 152.017V154.239C659.879 156.134 660.206 157.74 660.859 159.058C661.524 160.364 662.444 161.361 663.62 162.047C664.796 162.722 666.163 163.06 667.72 163.06C668.733 163.06 669.648 162.918 670.464 162.635C671.292 162.341 672.005 161.905 672.604 161.328C673.203 160.74 673.666 160.01 673.993 159.139L677.717 160.185C677.325 161.448 676.666 162.559 675.741 163.517C674.815 164.464 673.672 165.205 672.31 165.739C670.949 166.261 669.419 166.523 667.72 166.523ZM101.051 222V188.545H105.102V203.443H122.94V188.545H126.991V222H122.94V207.037H105.102V222H101.051ZM141.963 222.588C140.373 222.588 138.93 222.289 137.634 221.69C136.338 221.08 135.309 220.203 134.547 219.06C133.784 217.905 133.403 216.511 133.403 214.878C133.403 213.44 133.686 212.275 134.252 211.382C134.819 210.478 135.576 209.77 136.523 209.259C137.471 208.747 138.516 208.366 139.659 208.115C140.814 207.854 141.974 207.647 143.139 207.494C144.663 207.298 145.9 207.151 146.847 207.053C147.805 206.944 148.502 206.765 148.938 206.514C149.384 206.264 149.608 205.828 149.608 205.207V205.077C149.608 203.465 149.167 202.213 148.284 201.32C147.413 200.427 146.09 199.98 144.315 199.98C142.475 199.98 141.032 200.383 139.986 201.189C138.941 201.995 138.206 202.855 137.781 203.77L134.122 202.463C134.775 200.938 135.646 199.751 136.735 198.902C137.835 198.042 139.033 197.443 140.329 197.105C141.636 196.757 142.921 196.582 144.184 196.582C144.99 196.582 145.916 196.68 146.961 196.876C148.018 197.062 149.036 197.448 150.016 198.036C151.007 198.624 151.829 199.512 152.483 200.699C153.136 201.886 153.463 203.476 153.463 205.469V222H149.608V218.602H149.412C149.15 219.147 148.715 219.729 148.105 220.35C147.495 220.971 146.684 221.499 145.671 221.935C144.658 222.37 143.422 222.588 141.963 222.588ZM142.551 219.125C144.075 219.125 145.36 218.826 146.406 218.227C147.462 217.628 148.257 216.854 148.791 215.907C149.335 214.96 149.608 213.963 149.608 212.918V209.389C149.444 209.585 149.085 209.765 148.529 209.928C147.985 210.081 147.353 210.217 146.635 210.337C145.927 210.446 145.235 210.544 144.56 210.631C143.896 210.707 143.357 210.772 142.943 210.827C141.941 210.957 141.004 211.17 140.133 211.464C139.273 211.747 138.576 212.177 138.042 212.754C137.52 213.321 137.258 214.094 137.258 215.074C137.258 216.413 137.754 217.426 138.745 218.112C139.747 218.787 141.015 219.125 142.551 219.125ZM170.692 222.523C168.34 222.523 166.314 221.967 164.616 220.857C162.917 219.746 161.61 218.216 160.695 216.266C159.78 214.317 159.323 212.09 159.323 209.585C159.323 207.037 159.791 204.788 160.728 202.839C161.675 200.879 162.993 199.348 164.681 198.249C166.38 197.138 168.362 196.582 170.627 196.582C172.391 196.582 173.981 196.909 175.397 197.562C176.813 198.216 177.972 199.131 178.876 200.307C179.78 201.483 180.341 202.855 180.559 204.423H176.704C176.41 203.28 175.756 202.267 174.743 201.385C173.742 200.492 172.391 200.045 170.692 200.045C169.189 200.045 167.872 200.437 166.739 201.222C165.617 201.995 164.741 203.089 164.109 204.505C163.488 205.91 163.178 207.56 163.178 209.455C163.178 211.393 163.483 213.081 164.093 214.518C164.714 215.956 165.585 217.072 166.706 217.867C167.839 218.662 169.168 219.06 170.692 219.06C171.694 219.06 172.604 218.885 173.42 218.537C174.237 218.188 174.929 217.688 175.495 217.034C176.061 216.381 176.464 215.597 176.704 214.682H180.559C180.341 216.163 179.802 217.497 178.942 218.684C178.092 219.86 176.965 220.797 175.56 221.494C174.166 222.18 172.544 222.523 170.692 222.523ZM189.788 212.852L189.723 208.082H190.507L201.484 196.909H206.254L194.558 208.736H194.231L189.788 212.852ZM186.194 222V188.545H190.05V222H186.194ZM202.138 222L192.336 209.585L195.081 206.906L207.038 222H202.138ZM220.703 222.523C218.285 222.523 216.2 221.989 214.446 220.922C212.704 219.844 211.359 218.341 210.411 216.413C209.475 214.475 209.007 212.221 209.007 209.651C209.007 207.08 209.475 204.815 210.411 202.855C211.359 200.884 212.677 199.348 214.365 198.249C216.063 197.138 218.045 196.582 220.311 196.582C221.617 196.582 222.908 196.8 224.182 197.236C225.456 197.671 226.616 198.379 227.661 199.359C228.707 200.329 229.54 201.614 230.161 203.214C230.781 204.815 231.092 206.786 231.092 209.128V210.761H211.751V207.429H227.171C227.171 206.013 226.888 204.75 226.322 203.639C225.767 202.528 224.972 201.652 223.937 201.009C222.913 200.367 221.704 200.045 220.311 200.045C218.775 200.045 217.446 200.427 216.325 201.189C215.214 201.94 214.359 202.92 213.76 204.129C213.161 205.338 212.862 206.634 212.862 208.017V210.239C212.862 212.134 213.188 213.74 213.842 215.058C214.506 216.364 215.426 217.361 216.602 218.047C217.779 218.722 219.145 219.06 220.703 219.06C221.715 219.06 222.63 218.918 223.447 218.635C224.275 218.341 224.988 217.905 225.587 217.328C226.186 216.74 226.649 216.01 226.975 215.139L230.7 216.185C230.308 217.448 229.649 218.559 228.723 219.517C227.798 220.464 226.654 221.205 225.293 221.739C223.932 222.261 222.401 222.523 220.703 222.523ZM236.956 222V196.909H240.681V200.699H240.942C241.399 199.457 242.227 198.45 243.425 197.677C244.623 196.904 245.973 196.517 247.476 196.517C247.759 196.517 248.113 196.522 248.538 196.533C248.963 196.544 249.284 196.561 249.502 196.582V200.503C249.371 200.47 249.071 200.421 248.603 200.356C248.146 200.28 247.661 200.241 247.149 200.241C245.93 200.241 244.841 200.497 243.882 201.009C242.935 201.51 242.183 202.207 241.628 203.1C241.084 203.982 240.811 204.99 240.811 206.122V222H236.956ZM272.694 222L265.049 196.909H269.1L274.523 216.119H274.784L280.142 196.909H284.259L289.551 216.054H289.813L295.236 196.909H299.287L291.642 222H287.853L282.364 202.724H281.972L276.483 222H272.694ZM314.05 222.523C311.633 222.523 309.547 221.989 307.794 220.922C306.051 219.844 304.706 218.341 303.759 216.413C302.823 214.475 302.354 212.221 302.354 209.651C302.354 207.08 302.823 204.815 303.759 202.855C304.706 200.884 306.024 199.348 307.712 198.249C309.411 197.138 311.393 196.582 313.658 196.582C314.965 196.582 316.256 196.8 317.53 197.236C318.804 197.671 319.964 198.379 321.009 199.359C322.055 200.329 322.888 201.614 323.508 203.214C324.129 204.815 324.439 206.786 324.439 209.128V210.761H305.099V207.429H320.519C320.519 206.013 320.236 204.75 319.67 203.639C319.114 202.528 318.319 201.652 317.285 201.009C316.261 200.367 315.052 200.045 313.658 200.045C312.123 200.045 310.794 200.427 309.672 201.189C308.562 201.94 307.707 202.92 307.108 204.129C306.509 205.338 306.209 206.634 306.209 208.017V210.239C306.209 212.134 306.536 213.74 307.189 215.058C307.854 216.364 308.774 217.361 309.95 218.047C311.126 218.722 312.493 219.06 314.05 219.06C315.063 219.06 315.978 218.918 316.795 218.635C317.622 218.341 318.336 217.905 318.934 217.328C319.533 216.74 319.996 216.01 320.323 215.139L324.047 216.185C323.655 217.448 322.997 218.559 322.071 219.517C321.145 220.464 320.002 221.205 318.64 221.739C317.279 222.261 315.749 222.523 314.05 222.523ZM330.304 222V196.909H334.159V222H330.304ZM332.264 192.727C331.513 192.727 330.865 192.471 330.32 191.96C329.787 191.448 329.52 190.832 329.52 190.114C329.52 189.395 329.787 188.78 330.32 188.268C330.865 187.756 331.513 187.5 332.264 187.5C333.015 187.5 333.658 187.756 334.192 188.268C334.736 188.78 335.008 189.395 335.008 190.114C335.008 190.832 334.736 191.448 334.192 191.96C333.658 192.471 333.015 192.727 332.264 192.727ZM352.132 196.909V200.176H339.129V196.909H352.132ZM342.919 190.898H346.774V214.812C346.774 215.902 346.932 216.718 347.248 217.263C347.574 217.796 347.988 218.156 348.489 218.341C349.001 218.515 349.54 218.602 350.106 218.602C350.531 218.602 350.879 218.58 351.152 218.537C351.424 218.482 351.642 218.439 351.805 218.406L352.589 221.869C352.328 221.967 351.963 222.065 351.495 222.163C351.026 222.272 350.433 222.327 349.714 222.327C348.625 222.327 347.558 222.093 346.512 221.624C345.478 221.156 344.618 220.443 343.931 219.484C343.256 218.526 342.919 217.317 342.919 215.858V190.898ZM368.181 222.523C365.763 222.523 363.678 221.989 361.925 220.922C360.182 219.844 358.837 218.341 357.89 216.413C356.953 214.475 356.485 212.221 356.485 209.651C356.485 207.08 356.953 204.815 357.89 202.855C358.837 200.884 360.155 199.348 361.843 198.249C363.542 197.138 365.524 196.582 367.789 196.582C369.096 196.582 370.386 196.8 371.661 197.236C372.935 197.671 374.094 198.379 375.14 199.359C376.185 200.329 377.018 201.614 377.639 203.214C378.26 204.815 378.57 206.786 378.57 209.128V210.761H359.229V207.429H374.65C374.65 206.013 374.367 204.75 373.8 203.639C373.245 202.528 372.45 201.652 371.415 201.009C370.392 200.367 369.183 200.045 367.789 200.045C366.254 200.045 364.925 200.427 363.803 201.189C362.692 201.94 361.838 202.92 361.239 204.129C360.64 205.338 360.34 206.634 360.34 208.017V210.239C360.34 212.134 360.667 213.74 361.32 215.058C361.985 216.364 362.905 217.361 364.081 218.047C365.257 218.722 366.624 219.06 368.181 219.06C369.194 219.06 370.109 218.918 370.925 218.635C371.753 218.341 372.466 217.905 373.065 217.328C373.664 216.74 374.127 216.01 374.454 215.139L378.178 216.185C377.786 217.448 377.127 218.559 376.202 219.517C375.276 220.464 374.133 221.205 372.771 221.739C371.41 222.261 369.88 222.523 368.181 222.523ZM384.435 222V196.909H388.159V200.699H388.42C388.878 199.457 389.705 198.45 390.903 197.677C392.101 196.904 393.452 196.517 394.955 196.517C395.238 196.517 395.592 196.522 396.016 196.533C396.441 196.544 396.762 196.561 396.98 196.582V200.503C396.849 200.47 396.55 200.421 396.082 200.356C395.624 200.28 395.14 200.241 394.628 200.241C393.408 200.241 392.319 200.497 391.361 201.009C390.413 201.51 389.662 202.207 389.107 203.1C388.562 203.982 388.29 204.99 388.29 206.122V222H384.435ZM405.405 206.906V222H401.55V188.545H405.405V200.83H405.732C406.32 199.534 407.202 198.504 408.378 197.742C409.565 196.969 411.144 196.582 413.115 196.582C414.825 196.582 416.322 196.925 417.607 197.612C418.892 198.287 419.889 199.327 420.597 200.732C421.316 202.125 421.675 203.901 421.675 206.057V222H417.82V206.318C417.82 204.325 417.302 202.784 416.268 201.695C415.244 200.595 413.823 200.045 412.004 200.045C410.741 200.045 409.609 200.312 408.607 200.846C407.616 201.379 406.832 202.158 406.254 203.182C405.688 204.205 405.405 205.447 405.405 206.906ZM428.728 222V196.909H432.583V222H428.728ZM430.688 192.727C429.936 192.727 429.288 192.471 428.744 191.96C428.21 191.448 427.944 190.832 427.944 190.114C427.944 189.395 428.21 188.78 428.744 188.268C429.288 187.756 429.936 187.5 430.688 187.5C431.439 187.5 432.082 187.756 432.615 188.268C433.16 188.78 433.432 189.395 433.432 190.114C433.432 190.832 433.16 191.448 432.615 191.96C432.082 192.471 431.439 192.727 430.688 192.727ZM443.499 206.906V222H439.644V196.909H443.368V200.83H443.695C444.283 199.555 445.176 198.532 446.374 197.759C447.572 196.974 449.118 196.582 451.013 196.582C452.712 196.582 454.198 196.931 455.472 197.628C456.747 198.314 457.738 199.359 458.445 200.764C459.153 202.158 459.507 203.922 459.507 206.057V222H455.652V206.318C455.652 204.347 455.14 202.812 454.117 201.712C453.093 200.601 451.688 200.045 449.902 200.045C448.672 200.045 447.572 200.312 446.602 200.846C445.644 201.379 444.887 202.158 444.332 203.182C443.776 204.205 443.499 205.447 443.499 206.906ZM488.964 222.523C486.873 222.523 485.027 221.995 483.426 220.938C481.825 219.871 480.573 218.368 479.669 216.43C478.765 214.48 478.313 212.177 478.313 209.52C478.313 206.884 478.765 204.598 479.669 202.659C480.573 200.721 481.831 199.223 483.442 198.167C485.054 197.111 486.916 196.582 489.029 196.582C490.663 196.582 491.953 196.855 492.901 197.399C493.859 197.933 494.589 198.543 495.089 199.229C495.601 199.904 495.999 200.459 496.282 200.895H496.609V188.545H500.464V222H496.739V218.145H496.282C495.999 218.602 495.596 219.179 495.073 219.876C494.55 220.562 493.804 221.178 492.835 221.722C491.866 222.256 490.576 222.523 488.964 222.523ZM489.487 219.06C491.033 219.06 492.34 218.657 493.407 217.851C494.474 217.034 495.286 215.907 495.841 214.469C496.396 213.021 496.674 211.349 496.674 209.455C496.674 207.581 496.402 205.942 495.857 204.538C495.313 203.122 494.507 202.022 493.44 201.238C492.372 200.443 491.055 200.045 489.487 200.045C487.853 200.045 486.492 200.465 485.403 201.303C484.325 202.131 483.513 203.258 482.969 204.685C482.435 206.1 482.168 207.69 482.168 209.455C482.168 211.241 482.441 212.863 482.985 214.322C483.54 215.771 484.357 216.925 485.435 217.786C486.524 218.635 487.875 219.06 489.487 219.06ZM508.06 222V196.909H511.915V222H508.06ZM510.02 192.727C509.268 192.727 508.621 192.471 508.076 191.96C507.542 191.448 507.276 190.832 507.276 190.114C507.276 189.395 507.542 188.78 508.076 188.268C508.621 187.756 509.268 187.5 510.02 187.5C510.771 187.5 511.414 187.756 511.947 188.268C512.492 188.78 512.764 189.395 512.764 190.114C512.764 190.832 512.492 191.448 511.947 191.96C511.414 192.471 510.771 192.727 510.02 192.727ZM529.496 222.523C527.078 222.523 524.992 221.989 523.239 220.922C521.497 219.844 520.152 218.341 519.204 216.413C518.268 214.475 517.8 212.221 517.8 209.651C517.8 207.08 518.268 204.815 519.204 202.855C520.152 200.884 521.47 199.348 523.157 198.249C524.856 197.138 526.838 196.582 529.104 196.582C530.41 196.582 531.701 196.8 532.975 197.236C534.249 197.671 535.409 198.379 536.454 199.359C537.5 200.329 538.333 201.614 538.954 203.214C539.574 204.815 539.885 206.786 539.885 209.128V210.761H520.544V207.429H535.964C535.964 206.013 535.681 204.75 535.115 203.639C534.559 202.528 533.765 201.652 532.73 201.009C531.706 200.367 530.497 200.045 529.104 200.045C527.568 200.045 526.239 200.427 525.118 201.189C524.007 201.94 523.152 202.92 522.553 204.129C521.954 205.338 521.655 206.634 521.655 208.017V210.239C521.655 212.134 521.981 213.74 522.635 215.058C523.299 216.364 524.219 217.361 525.395 218.047C526.572 218.722 527.938 219.06 529.496 219.06C530.508 219.06 531.423 218.918 532.24 218.635C533.068 218.341 533.781 217.905 534.38 217.328C534.979 216.74 535.442 216.01 535.768 215.139L539.493 216.185C539.101 217.448 538.442 218.559 537.516 219.517C536.59 220.464 535.447 221.205 534.086 221.739C532.724 222.261 531.194 222.523 529.496 222.523ZM559.209 222V188.545H563.26V205.142H563.653L578.681 188.545H583.974L569.925 203.639L583.974 222H579.073L567.442 206.449L563.26 211.153V222H559.209ZM597.046 222.523C594.781 222.523 592.793 221.984 591.083 220.906C589.385 219.827 588.056 218.319 587.098 216.381C586.15 214.442 585.676 212.177 585.676 209.585C585.676 206.972 586.15 204.69 587.098 202.741C588.056 200.791 589.385 199.278 591.083 198.2C592.793 197.121 594.781 196.582 597.046 196.582C599.311 196.582 601.293 197.121 602.992 198.2C604.702 199.278 606.03 200.791 606.978 202.741C607.936 204.69 608.415 206.972 608.415 209.585C608.415 212.177 607.936 214.442 606.978 216.381C606.03 218.319 604.702 219.827 602.992 220.906C601.293 221.984 599.311 222.523 597.046 222.523ZM597.046 219.06C598.766 219.06 600.182 218.619 601.293 217.737C602.404 216.854 603.226 215.695 603.76 214.257C604.293 212.82 604.56 211.262 604.56 209.585C604.56 207.908 604.293 206.345 603.76 204.897C603.226 203.449 602.404 202.278 601.293 201.385C600.182 200.492 598.766 200.045 597.046 200.045C595.325 200.045 593.909 200.492 592.799 201.385C591.688 202.278 590.866 203.449 590.332 204.897C589.798 206.345 589.532 207.908 589.532 209.585C589.532 211.262 589.798 212.82 590.332 214.257C590.866 215.695 591.688 216.854 592.799 217.737C593.909 218.619 595.325 219.06 597.046 219.06ZM618.155 206.906V222H614.3V196.909H618.024V200.83H618.351C618.939 199.555 619.832 198.532 621.03 197.759C622.228 196.974 623.774 196.582 625.669 196.582C627.368 196.582 628.855 196.931 630.129 197.628C631.403 198.314 632.394 199.359 633.102 200.764C633.81 202.158 634.164 203.922 634.164 206.057V222H630.308V206.318C630.308 204.347 629.797 202.812 628.773 201.712C627.749 200.601 626.344 200.045 624.558 200.045C623.328 200.045 622.228 200.312 621.259 200.846C620.3 201.379 619.544 202.158 618.988 203.182C618.433 204.205 618.155 205.447 618.155 206.906ZM652.12 196.909V200.176H639.117V196.909H652.12ZM642.907 190.898H646.762V214.812C646.762 215.902 646.92 216.718 647.236 217.263C647.563 217.796 647.976 218.156 648.477 218.341C648.989 218.515 649.528 218.602 650.094 218.602C650.519 218.602 650.868 218.58 651.14 218.537C651.412 218.482 651.63 218.439 651.793 218.406L652.577 221.869C652.316 221.967 651.951 222.065 651.483 222.163C651.015 222.272 650.421 222.327 649.702 222.327C648.613 222.327 647.546 222.093 646.501 221.624C645.466 221.156 644.606 220.443 643.92 219.484C643.245 218.526 642.907 217.317 642.907 215.858V190.898ZM657.919 222V196.909H661.643V200.699H661.905C662.362 199.457 663.19 198.45 664.388 197.677C665.586 196.904 666.936 196.517 668.439 196.517C668.722 196.517 669.076 196.522 669.501 196.533C669.925 196.544 670.247 196.561 670.464 196.582V200.503C670.334 200.47 670.034 200.421 669.566 200.356C669.109 200.28 668.624 200.241 668.112 200.241C666.893 200.241 665.804 200.497 664.845 201.009C663.898 201.51 663.146 202.207 662.591 203.1C662.046 203.982 661.774 204.99 661.774 206.122V222H657.919ZM684.464 222.523C682.199 222.523 680.211 221.984 678.501 220.906C676.803 219.827 675.474 218.319 674.516 216.381C673.568 214.442 673.094 212.177 673.094 209.585C673.094 206.972 673.568 204.69 674.516 202.741C675.474 200.791 676.803 199.278 678.501 198.2C680.211 197.121 682.199 196.582 684.464 196.582C686.729 196.582 688.711 197.121 690.41 198.2C692.12 199.278 693.448 200.791 694.396 202.741C695.354 204.69 695.833 206.972 695.833 209.585C695.833 212.177 695.354 214.442 694.396 216.381C693.448 218.319 692.12 219.827 690.41 220.906C688.711 221.984 686.729 222.523 684.464 222.523ZM684.464 219.06C686.184 219.06 687.6 218.619 688.711 217.737C689.822 216.854 690.644 215.695 691.178 214.257C691.711 212.82 691.978 211.262 691.978 209.585C691.978 207.908 691.711 206.345 691.178 204.897C690.644 203.449 689.822 202.278 688.711 201.385C687.6 200.492 686.184 200.045 684.464 200.045C682.743 200.045 681.327 200.492 680.217 201.385C679.106 202.278 678.284 203.449 677.75 204.897C677.216 206.345 676.95 207.908 676.95 209.585C676.95 211.262 677.216 212.82 677.75 214.257C678.284 215.695 679.106 216.854 680.217 217.737C681.327 218.619 682.743 219.06 684.464 219.06ZM705.573 188.545V222H701.718V188.545H705.573ZM716.489 188.545V222H712.634V188.545H716.489ZM734.07 222.523C731.652 222.523 729.567 221.989 727.813 220.922C726.071 219.844 724.726 218.341 723.779 216.413C722.842 214.475 722.374 212.221 722.374 209.651C722.374 207.08 722.842 204.815 723.779 202.855C724.726 200.884 726.044 199.348 727.732 198.249C729.431 197.138 731.413 196.582 733.678 196.582C734.985 196.582 736.275 196.8 737.549 197.236C738.823 197.671 739.983 198.379 741.029 199.359C742.074 200.329 742.907 201.614 743.528 203.214C744.149 204.815 744.459 206.786 744.459 209.128V210.761H725.118V207.429H740.539C740.539 206.013 740.255 204.75 739.689 203.639C739.134 202.528 738.339 201.652 737.304 201.009C736.28 200.367 735.072 200.045 733.678 200.045C732.142 200.045 730.814 200.427 729.692 201.189C728.581 201.94 727.726 202.92 727.127 204.129C726.528 205.338 726.229 206.634 726.229 208.017V210.239C726.229 212.134 726.556 213.74 727.209 215.058C727.873 216.364 728.794 217.361 729.97 218.047C731.146 218.722 732.512 219.06 734.07 219.06C735.083 219.06 735.997 218.918 736.814 218.635C737.642 218.341 738.355 217.905 738.954 217.328C739.553 216.74 740.016 216.01 740.343 215.139L744.067 216.185C743.675 217.448 743.016 218.559 742.09 219.517C741.165 220.464 740.021 221.205 738.66 221.739C737.299 222.261 735.769 222.523 734.07 222.523ZM116.341 267.741V252.909H120.196V278H116.341V273.753H116.08C115.491 275.027 114.577 276.111 113.335 277.004C112.094 277.886 110.526 278.327 108.631 278.327C107.062 278.327 105.669 277.984 104.449 277.298C103.229 276.601 102.271 275.555 101.574 274.161C100.877 272.756 100.528 270.987 100.528 268.852V252.909H104.384V268.591C104.384 270.42 104.895 271.88 105.919 272.969C106.954 274.058 108.271 274.602 109.872 274.602C110.83 274.602 111.805 274.357 112.796 273.867C113.798 273.377 114.637 272.626 115.312 271.613C115.998 270.6 116.341 269.31 116.341 267.741ZM105.69 248.727C105.004 248.727 104.394 248.466 103.861 247.943C103.338 247.41 103.077 246.8 103.077 246.114C103.077 245.362 103.338 244.741 103.861 244.251C104.394 243.75 105.004 243.5 105.69 243.5C106.442 243.5 107.063 243.75 107.553 244.251C108.054 244.741 108.304 245.362 108.304 246.114C108.304 246.8 108.054 247.41 107.553 247.943C107.063 248.466 106.442 248.727 105.69 248.727ZM115.099 248.727C114.413 248.727 113.804 248.466 113.27 247.943C112.747 247.41 112.486 246.8 112.486 246.114C112.486 245.362 112.747 244.741 113.27 244.251C113.804 243.75 114.413 243.5 115.099 243.5C115.851 243.5 116.472 243.75 116.962 244.251C117.463 244.741 117.713 245.362 117.713 246.114C117.713 246.8 117.463 247.41 116.962 247.943C116.472 248.466 115.851 248.727 115.099 248.727ZM127.78 278V244.545H131.635V256.895H131.961C132.245 256.459 132.637 255.904 133.138 255.229C133.649 254.543 134.379 253.933 135.327 253.399C136.285 252.855 137.581 252.582 139.214 252.582C141.327 252.582 143.189 253.111 144.801 254.167C146.413 255.223 147.671 256.721 148.574 258.659C149.478 260.598 149.93 262.884 149.93 265.52C149.93 268.177 149.478 270.48 148.574 272.43C147.671 274.368 146.418 275.871 144.817 276.938C143.216 277.995 141.371 278.523 139.28 278.523C137.668 278.523 136.377 278.256 135.408 277.722C134.439 277.178 133.693 276.562 133.17 275.876C132.648 275.179 132.245 274.602 131.961 274.145H131.504V278H127.78ZM131.569 265.455C131.569 267.349 131.847 269.021 132.403 270.469C132.958 271.907 133.769 273.034 134.836 273.851C135.904 274.657 137.211 275.06 138.757 275.06C140.369 275.06 141.714 274.635 142.792 273.786C143.881 272.925 144.698 271.771 145.242 270.322C145.797 268.863 146.075 267.241 146.075 265.455C146.075 263.69 145.803 262.1 145.258 260.685C144.725 259.258 143.913 258.131 142.824 257.303C141.746 256.465 140.39 256.045 138.757 256.045C137.189 256.045 135.871 256.443 134.804 257.238C133.737 258.022 132.931 259.122 132.386 260.538C131.842 261.942 131.569 263.581 131.569 265.455ZM166.347 278.523C163.93 278.523 161.844 277.989 160.091 276.922C158.348 275.844 157.003 274.341 156.056 272.413C155.119 270.475 154.651 268.221 154.651 265.651C154.651 263.08 155.119 260.815 156.056 258.855C157.003 256.884 158.321 255.348 160.009 254.249C161.708 253.138 163.69 252.582 165.955 252.582C167.262 252.582 168.552 252.8 169.827 253.236C171.101 253.671 172.26 254.379 173.306 255.359C174.351 256.329 175.184 257.614 175.805 259.214C176.426 260.815 176.736 262.786 176.736 265.128V266.761H157.395V263.429H172.816C172.816 262.013 172.533 260.75 171.966 259.639C171.411 258.528 170.616 257.652 169.581 257.009C168.558 256.367 167.349 256.045 165.955 256.045C164.42 256.045 163.091 256.427 161.969 257.189C160.858 257.94 160.004 258.92 159.405 260.129C158.806 261.338 158.506 262.634 158.506 264.017V266.239C158.506 268.134 158.833 269.74 159.486 271.058C160.151 272.364 161.071 273.361 162.247 274.047C163.423 274.722 164.79 275.06 166.347 275.06C167.36 275.06 168.275 274.918 169.091 274.635C169.919 274.341 170.632 273.905 171.231 273.328C171.83 272.74 172.293 272.01 172.62 271.139L176.344 272.185C175.952 273.448 175.293 274.559 174.368 275.517C173.442 276.464 172.299 277.205 170.937 277.739C169.576 278.261 168.046 278.523 166.347 278.523ZM182.601 278V252.909H186.325V256.699H186.586C187.044 255.457 187.872 254.45 189.069 253.677C190.267 252.904 191.618 252.517 193.121 252.517C193.404 252.517 193.758 252.522 194.182 252.533C194.607 252.544 194.928 252.561 195.146 252.582V256.503C195.015 256.47 194.716 256.421 194.248 256.356C193.79 256.28 193.306 256.241 192.794 256.241C191.574 256.241 190.485 256.497 189.527 257.009C188.579 257.51 187.828 258.207 187.273 259.1C186.728 259.982 186.456 260.99 186.456 262.122V278H182.601ZM222.128 278.523C220.037 278.523 218.191 277.995 216.59 276.938C214.989 275.871 213.737 274.368 212.833 272.43C211.929 270.48 211.477 268.177 211.477 265.52C211.477 262.884 211.929 260.598 212.833 258.659C213.737 256.721 214.995 255.223 216.607 254.167C218.218 253.111 220.08 252.582 222.193 252.582C223.827 252.582 225.117 252.855 226.065 253.399C227.023 253.933 227.753 254.543 228.254 255.229C228.765 255.904 229.163 256.459 229.446 256.895H229.773V244.545H233.628V278H229.903V274.145H229.446C229.163 274.602 228.76 275.179 228.237 275.876C227.714 276.562 226.969 277.178 225.999 277.722C225.03 278.256 223.74 278.523 222.128 278.523ZM222.651 275.06C224.197 275.06 225.504 274.657 226.571 273.851C227.638 273.034 228.45 271.907 229.005 270.469C229.56 269.021 229.838 267.349 229.838 265.455C229.838 263.581 229.566 261.942 229.021 260.538C228.477 259.122 227.671 258.022 226.604 257.238C225.536 256.443 224.219 256.045 222.651 256.045C221.017 256.045 219.656 256.465 218.567 257.303C217.489 258.131 216.677 259.258 216.133 260.685C215.599 262.1 215.332 263.69 215.332 265.455C215.332 267.241 215.605 268.863 216.149 270.322C216.705 271.771 217.521 272.925 218.599 273.786C219.688 274.635 221.039 275.06 222.651 275.06ZM248.607 278.588C247.017 278.588 245.574 278.289 244.278 277.69C242.982 277.08 241.953 276.203 241.191 275.06C240.429 273.905 240.048 272.511 240.048 270.878C240.048 269.44 240.331 268.275 240.897 267.382C241.463 266.478 242.22 265.77 243.168 265.259C244.115 264.747 245.161 264.366 246.304 264.115C247.458 263.854 248.618 263.647 249.783 263.494C251.308 263.298 252.544 263.151 253.491 263.053C254.45 262.944 255.147 262.765 255.582 262.514C256.029 262.264 256.252 261.828 256.252 261.207V261.077C256.252 259.465 255.811 258.213 254.929 257.32C254.058 256.427 252.735 255.98 250.96 255.98C249.119 255.98 247.676 256.383 246.631 257.189C245.585 257.995 244.85 258.855 244.425 259.77L240.766 258.463C241.42 256.938 242.291 255.751 243.38 254.902C244.48 254.042 245.678 253.443 246.974 253.105C248.281 252.757 249.566 252.582 250.829 252.582C251.635 252.582 252.56 252.68 253.606 252.876C254.662 253.062 255.68 253.448 256.661 254.036C257.652 254.624 258.474 255.512 259.127 256.699C259.781 257.886 260.107 259.476 260.107 261.469V278H256.252V274.602H256.056C255.795 275.147 255.359 275.729 254.749 276.35C254.139 276.971 253.328 277.499 252.315 277.935C251.303 278.37 250.067 278.588 248.607 278.588ZM249.195 275.125C250.72 275.125 252.005 274.826 253.05 274.227C254.107 273.628 254.902 272.854 255.435 271.907C255.98 270.96 256.252 269.963 256.252 268.918V265.389C256.089 265.585 255.729 265.765 255.174 265.928C254.629 266.081 253.998 266.217 253.279 266.337C252.571 266.446 251.88 266.544 251.205 266.631C250.54 266.707 250.001 266.772 249.587 266.827C248.585 266.957 247.649 267.17 246.778 267.464C245.917 267.747 245.22 268.177 244.687 268.754C244.164 269.321 243.903 270.094 243.903 271.074C243.903 272.413 244.398 273.426 245.389 274.112C246.391 274.787 247.66 275.125 249.195 275.125ZM284.916 258.528L281.453 259.509C281.236 258.931 280.914 258.371 280.49 257.826C280.076 257.271 279.509 256.813 278.791 256.454C278.072 256.094 277.152 255.915 276.03 255.915C274.494 255.915 273.215 256.269 272.191 256.977C271.178 257.674 270.672 258.561 270.672 259.639C270.672 260.598 271.021 261.354 271.718 261.91C272.414 262.465 273.503 262.928 274.985 263.298L278.709 264.213C280.952 264.758 282.624 265.591 283.724 266.712C284.824 267.823 285.374 269.255 285.374 271.009C285.374 272.446 284.96 273.731 284.132 274.864C283.316 275.996 282.172 276.889 280.702 277.543C279.232 278.196 277.522 278.523 275.573 278.523C273.013 278.523 270.895 277.967 269.218 276.857C267.541 275.746 266.479 274.123 266.033 271.989L269.692 271.074C270.04 272.424 270.699 273.437 271.669 274.112C272.649 274.787 273.928 275.125 275.507 275.125C277.304 275.125 278.731 274.744 279.787 273.982C280.854 273.208 281.388 272.283 281.388 271.205C281.388 270.333 281.083 269.604 280.473 269.016C279.863 268.417 278.927 267.97 277.664 267.676L273.482 266.696C271.184 266.152 269.496 265.308 268.418 264.164C267.351 263.01 266.817 261.567 266.817 259.835C266.817 258.42 267.214 257.167 268.009 256.078C268.815 254.989 269.91 254.134 271.293 253.513C272.687 252.893 274.266 252.582 276.03 252.582C278.513 252.582 280.462 253.127 281.878 254.216C283.305 255.305 284.317 256.742 284.916 258.528ZM304.637 278V244.545H324.827V248.139H308.688V259.443H323.782V263.037H308.688V274.406H325.089V278H304.637ZM345.982 259.476V263.07H331.345V259.476H345.982ZM357.028 278L347.881 244.545H351.997L358.988 271.793H359.315L366.437 244.545H371.011L378.133 271.793H378.46L385.452 244.545H389.568L380.42 278H376.238L368.855 251.341H368.594L361.21 278H357.028ZM402.277 278.523C399.859 278.523 397.774 277.989 396.02 276.922C394.278 275.844 392.933 274.341 391.986 272.413C391.049 270.475 390.581 268.221 390.581 265.651C390.581 263.08 391.049 260.815 391.986 258.855C392.933 256.884 394.251 255.348 395.939 254.249C397.638 253.138 399.62 252.582 401.885 252.582C403.192 252.582 404.482 252.8 405.756 253.236C407.03 253.671 408.19 254.379 409.236 255.359C410.281 256.329 411.114 257.614 411.735 259.214C412.356 260.815 412.666 262.786 412.666 265.128V266.761H393.325V263.429H408.746C408.746 262.013 408.462 260.75 407.896 259.639C407.341 258.528 406.546 257.652 405.511 257.009C404.488 256.367 403.279 256.045 401.885 256.045C400.349 256.045 399.021 256.427 397.899 257.189C396.788 257.94 395.933 258.92 395.334 260.129C394.735 261.338 394.436 262.634 394.436 264.017V266.239C394.436 268.134 394.763 269.74 395.416 271.058C396.08 272.364 397.001 273.361 398.177 274.047C399.353 274.722 400.72 275.06 402.277 275.06C403.29 275.06 404.204 274.918 405.021 274.635C405.849 274.341 406.562 273.905 407.161 273.328C407.76 272.74 408.223 272.01 408.55 271.139L412.274 272.185C411.882 273.448 411.223 274.559 410.297 275.517C409.372 276.464 408.228 277.205 406.867 277.739C405.506 278.261 403.976 278.523 402.277 278.523ZM418.53 278V252.909H422.255V256.699H422.516C422.974 255.457 423.801 254.45 424.999 253.677C426.197 252.904 427.547 252.517 429.05 252.517C429.333 252.517 429.687 252.522 430.112 252.533C430.537 252.544 430.858 252.561 431.076 252.582V256.503C430.945 256.47 430.646 256.421 430.177 256.356C429.72 256.28 429.235 256.241 428.724 256.241C427.504 256.241 426.415 256.497 425.456 257.009C424.509 257.51 423.758 258.207 423.202 259.1C422.658 259.982 422.385 260.99 422.385 262.122V278H418.53ZM439.239 268.852L439.174 264.082H439.958L450.935 252.909H455.705L444.009 264.736H443.683L439.239 268.852ZM435.646 278V244.545H439.501V278H435.646ZM451.589 278L441.788 265.585L444.532 262.906L456.489 278H451.589ZM477.46 262.906V278H473.605V244.545H477.46V256.83H477.786C478.374 255.534 479.257 254.504 480.433 253.742C481.62 252.969 483.199 252.582 485.17 252.582C486.88 252.582 488.377 252.925 489.662 253.612C490.947 254.287 491.944 255.327 492.651 256.732C493.37 258.125 493.73 259.901 493.73 262.057V278H489.874V262.318C489.874 260.325 489.357 258.784 488.323 257.695C487.299 256.595 485.878 256.045 484.059 256.045C482.796 256.045 481.663 256.312 480.661 256.846C479.67 257.379 478.886 258.158 478.309 259.182C477.743 260.205 477.46 261.447 477.46 262.906ZM508.166 278.588C506.576 278.588 505.133 278.289 503.837 277.69C502.541 277.08 501.512 276.203 500.75 275.06C499.987 273.905 499.606 272.511 499.606 270.878C499.606 269.44 499.889 268.275 500.456 267.382C501.022 266.478 501.779 265.77 502.726 265.259C503.674 264.747 504.719 264.366 505.863 264.115C507.017 263.854 508.177 263.647 509.342 263.494C510.867 263.298 512.103 263.151 513.05 263.053C514.008 262.944 514.705 262.765 515.141 262.514C515.587 262.264 515.811 261.828 515.811 261.207V261.077C515.811 259.465 515.37 258.213 514.488 257.32C513.616 256.427 512.293 255.98 510.518 255.98C508.678 255.98 507.235 256.383 506.189 257.189C505.144 257.995 504.409 258.855 503.984 259.77L500.325 258.463C500.978 256.938 501.85 255.751 502.939 254.902C504.038 254.042 505.236 253.443 506.532 253.105C507.839 252.757 509.124 252.582 510.387 252.582C511.193 252.582 512.119 252.68 513.164 252.876C514.221 253.062 515.239 253.448 516.219 254.036C517.21 254.624 518.032 255.512 518.686 256.699C519.339 257.886 519.666 259.476 519.666 261.469V278H515.811V274.602H515.615C515.353 275.147 514.918 275.729 514.308 276.35C513.698 276.971 512.887 277.499 511.874 277.935C510.861 278.37 509.625 278.588 508.166 278.588ZM508.754 275.125C510.279 275.125 511.564 274.826 512.609 274.227C513.665 273.628 514.46 272.854 514.994 271.907C515.538 270.96 515.811 269.963 515.811 268.918V265.389C515.647 265.585 515.288 265.765 514.733 265.928C514.188 266.081 513.556 266.217 512.838 266.337C512.13 266.446 511.438 266.544 510.763 266.631C510.099 266.707 509.56 266.772 509.146 266.827C508.144 266.957 507.208 267.17 506.336 267.464C505.476 267.747 504.779 268.177 504.245 268.754C503.723 269.321 503.461 270.094 503.461 271.074C503.461 272.413 503.957 273.426 504.948 274.112C505.95 274.787 507.218 275.125 508.754 275.125ZM527.225 278V244.545H531.08V256.895H531.407C531.69 256.459 532.082 255.904 532.583 255.229C533.095 254.543 533.824 253.933 534.772 253.399C535.73 252.855 537.026 252.582 538.66 252.582C540.772 252.582 542.635 253.111 544.246 254.167C545.858 255.223 547.116 256.721 548.02 258.659C548.924 260.598 549.376 262.884 549.376 265.52C549.376 268.177 548.924 270.48 548.02 272.43C547.116 274.368 545.863 275.871 544.263 276.938C542.662 277.995 540.816 278.523 538.725 278.523C537.113 278.523 535.823 278.256 534.854 277.722C533.884 277.178 533.138 276.562 532.616 275.876C532.093 275.179 531.69 274.602 531.407 274.145H530.949V278H527.225ZM531.015 265.455C531.015 267.349 531.292 269.021 531.848 270.469C532.403 271.907 533.215 273.034 534.282 273.851C535.349 274.657 536.656 275.06 538.202 275.06C539.814 275.06 541.159 274.635 542.237 273.786C543.326 272.925 544.143 271.771 544.687 270.322C545.243 268.863 545.52 267.241 545.52 265.455C545.52 263.69 545.248 262.1 544.704 260.685C544.17 259.258 543.359 258.131 542.27 257.303C541.192 256.465 539.836 256.045 538.202 256.045C536.634 256.045 535.316 256.443 534.249 257.238C533.182 258.022 532.376 259.122 531.831 260.538C531.287 261.942 531.015 263.581 531.015 265.455ZM565.792 278.523C563.375 278.523 561.289 277.989 559.536 276.922C557.794 275.844 556.449 274.341 555.501 272.413C554.565 270.475 554.096 268.221 554.096 265.651C554.096 263.08 554.565 260.815 555.501 258.855C556.449 256.884 557.766 255.348 559.454 254.249C561.153 253.138 563.135 252.582 565.4 252.582C566.707 252.582 567.998 252.8 569.272 253.236C570.546 253.671 571.706 254.379 572.751 255.359C573.797 256.329 574.63 257.614 575.251 259.214C575.871 260.815 576.182 262.786 576.182 265.128V266.761H556.841V263.429H572.261C572.261 262.013 571.978 260.75 571.412 259.639C570.856 258.528 570.061 257.652 569.027 257.009C568.003 256.367 566.794 256.045 565.4 256.045C563.865 256.045 562.536 256.427 561.415 257.189C560.304 257.94 559.449 258.92 558.85 260.129C558.251 261.338 557.952 262.634 557.952 264.017V266.239C557.952 268.134 558.278 269.74 558.932 271.058C559.596 272.364 560.516 273.361 561.692 274.047C562.868 274.722 564.235 275.06 565.792 275.06C566.805 275.06 567.72 274.918 568.537 274.635C569.364 274.341 570.078 273.905 570.677 273.328C571.276 272.74 571.738 272.01 572.065 271.139L575.79 272.185C575.398 273.448 574.739 274.559 573.813 275.517C572.887 276.464 571.744 277.205 570.383 277.739C569.021 278.261 567.491 278.523 565.792 278.523ZM585.901 262.906V278H582.046V252.909H585.77V256.83H586.097C586.685 255.555 587.578 254.532 588.776 253.759C589.974 252.974 591.52 252.582 593.415 252.582C595.114 252.582 596.601 252.931 597.875 253.628C599.149 254.314 600.14 255.359 600.848 256.764C601.556 258.158 601.91 259.922 601.91 262.057V278H598.055V262.318C598.055 260.347 597.543 258.812 596.519 257.712C595.495 256.601 594.09 256.045 592.305 256.045C591.074 256.045 589.974 256.312 589.005 256.846C588.046 257.379 587.29 258.158 586.734 259.182C586.179 260.205 585.901 261.447 585.901 262.906ZM611.764 278.261C610.958 278.261 610.266 277.973 609.689 277.396C609.112 276.818 608.824 276.127 608.824 275.321C608.824 274.515 609.112 273.824 609.689 273.246C610.266 272.669 610.958 272.381 611.764 272.381C612.57 272.381 613.261 272.669 613.838 273.246C614.416 273.824 614.704 274.515 614.704 275.321C614.704 275.855 614.568 276.345 614.296 276.791C614.034 277.238 613.681 277.597 613.234 277.869C612.798 278.131 612.308 278.261 611.764 278.261Z" fill="black"/>
<path d="M866.886 745.425C862.854 746.265 858.03 748.113 857.556 752.483C857.002 757.357 862.617 760.214 867.124 761.223C884.126 765.172 901.682 765.676 919.158 766.181C1011.52 768.533 1103.89 768.954 1196.25 767.357C1194.91 755.341 1181.46 750.13 1170.31 747.861C1122.39 738.114 1072.81 743.66 1025.76 733.324C976.173 722.316 915.836 734.753 866.886 745.425Z" fill="url(#paint0_linear_807_2543)"/>
<path d="M866.886 745.425C862.854 746.265 858.03 748.113 857.556 752.483C857.002 757.357 862.617 760.214 867.124 761.223C884.126 765.172 901.682 765.676 919.158 766.181C1011.52 768.533 1103.89 768.954 1196.25 767.357C1194.91 755.341 1181.46 750.13 1170.31 747.861C1122.39 738.114 1072.81 743.66 1025.76 733.324C976.173 722.316 915.836 734.753 866.886 745.425Z" fill="url(#paint1_linear_807_2543)"/>
<path d="M1118.43 666.264C1119.46 665.928 1120.56 666.264 1121.59 666.601C1126.1 668.197 1130.53 670.298 1134.48 673.071C1136.46 674.416 1138.44 675.928 1139.39 678.197C1140.26 680.298 1140.18 682.651 1140.02 684.836C1138.59 711.894 1137.25 739.036 1135.83 766.095C1135.75 767.859 1135.51 769.793 1134.25 770.885C1132.66 772.145 1130.45 771.305 1128.71 770.465C1111.71 762.565 1094.79 754.582 1077.78 746.683C1069.64 742.902 1061.26 738.868 1055.25 731.893C1059.83 721.137 1069.48 713.995 1078.34 706.768C1092.1 695.507 1104.75 682.567 1115.9 668.449C1116.53 667.609 1117.32 666.6 1118.43 666.264Z" fill="#DDC199"/>
<path d="M1198.54 526.855C1194.35 525.847 1190.07 524.838 1185.88 523.83C1161.21 571.98 1139.39 621.812 1120.56 672.904C1124.91 675.845 1130.69 678.87 1134.88 675.677C1136.62 674.332 1137.65 672.147 1138.59 670.047C1159.95 622.988 1179.95 575.258 1198.54 526.855Z" fill="#BDB39B"/>
<g opacity="0.26">
<path opacity="0.26" d="M1120.79 761.137C1120.71 762.062 1122.06 762.398 1122.21 761.474C1125.61 734.163 1130.44 707.357 1136.68 680.634C1137.08 678.954 1134.63 678.449 1134.23 680.13C1127.75 706.6 1123.24 733.827 1120.79 761.137Z" fill="#272525"/>
<path opacity="0.26" d="M1094 749.121C1104.43 725.76 1115.5 702.735 1127.21 680.046C1127.92 678.701 1125.86 677.609 1125.15 678.954C1112.97 701.811 1101.98 725.34 1091.94 749.289C1092.1 749.457 1092.18 749.625 1092.26 749.793C1092.81 749.373 1093.36 749.205 1094 749.121Z" fill="#272525"/>
<path opacity="0.26" d="M1076.98 733.743C1094.46 716.264 1110.04 696.853 1123.64 675.844C1124.51 674.416 1122.29 673.239 1121.42 674.668C1108.06 695.592 1092.72 714.92 1075.56 732.398C1074.69 733.322 1076.11 734.667 1076.98 733.743Z" fill="#272525"/>
</g>
<path d="M955.764 690.213C955.844 688.953 956.002 687.608 956.08 686.347C945.642 678.784 927.296 681.221 916.225 685.087C904.363 689.204 904.363 696.935 904.521 710.044C904.6 717.439 905.233 725.759 910.61 730.548C914.722 734.246 920.495 734.75 925.873 735.086C930.696 735.422 935.441 735.674 940.265 736.01C943.586 736.178 947.303 736.263 949.912 733.993C952.522 731.641 952.917 727.691 953.234 724.077C954.103 712.733 954.974 701.473 955.764 690.213Z" fill="#2F3F47"/>
<path d="M968.506 690.213C968.427 688.953 968.269 687.608 968.189 686.347C978.628 678.784 996.974 681.221 1008.05 685.087C1019.91 689.204 1019.91 696.935 1019.75 710.044C1019.67 717.439 1019.04 725.759 1013.66 730.548C1009.55 734.246 1003.77 734.75 998.397 735.086C993.574 735.422 988.829 735.674 984.005 736.01C980.684 736.178 976.967 736.263 974.358 733.993C971.748 731.641 971.353 727.691 971.037 724.077C970.246 712.733 969.376 701.473 968.506 690.213Z" fill="#2F3F47"/>
<path d="M879.447 662.148C876.837 662.735 874.307 663.576 871.855 664.668C870.036 665.424 868.218 666.433 866.952 667.945C865.213 670.13 864.738 673.156 864.422 676.097C864.027 679.963 863.868 683.828 863.948 687.693C863.948 690.97 864.185 694.332 865.767 697.105C867.981 700.971 872.33 702.735 876.442 703.827C884.271 705.929 892.416 706.432 900.482 706.853C949.273 709.374 998.223 707.692 1046.78 701.895C1048.75 701.643 1050.97 701.307 1052.31 699.71C1053.1 698.786 1053.5 697.525 1053.89 696.348C1056.42 687.777 1058.09 676.097 1052.63 668.114C1047.96 661.307 1039.34 665.172 1032.86 665.088C1026.22 665.004 1019.49 664.416 1012.85 664.164C999.883 663.576 986.915 662.987 973.946 662.567C955.679 661.895 937.333 661.307 919.065 660.803C906.729 660.551 892.179 659.122 879.447 662.148Z" fill="#516770"/>
<path d="M984.309 477.695C1017.44 477.863 1050.5 478.62 1083.63 479.376C1082.84 460.637 1081.58 441.897 1077.78 423.578C1071.22 391.478 1056.19 360.134 1030.81 341.395C991.901 312.656 930.141 316.437 888.229 344.84C870.594 356.772 856.44 373.159 849.006 393.242C840.466 416.183 838.172 441.225 836.828 465.847C836.669 469.124 836.511 472.317 836.354 475.594C885.54 473.577 935.043 477.527 984.309 477.695Z" fill="#EAF1F2"/>
<path d="M981.657 487.108C933.103 487.024 884.39 483.327 835.836 485.175C833.464 541.141 835.678 597.359 842.479 652.989C843.428 660.636 844.614 668.618 849.359 674.668C856.713 683.996 869.445 679.878 879.33 679.878C896.015 679.878 913.175 680.635 930.019 681.055C961.809 681.811 993.361 681.895 1024.99 678.114C1040.02 676.35 1070.38 681.223 1077.58 666.853C1083.51 655.173 1081.06 631.476 1081.93 618.451C1082.96 602.989 1083.75 587.611 1084.22 572.149C1085.09 544.334 1084.93 516.519 1083.91 488.62C1049.9 487.948 1015.74 487.108 981.657 487.108Z" fill="#E2ECED"/>
<path d="M1096.33 577.696C1096.96 577.107 1097.04 576.099 1097.12 575.259C1098.78 551.982 1100.2 528.704 1101.23 505.427C1101.31 503.41 1101.31 501.058 1099.81 499.713C1098.7 498.789 1097.28 498.705 1095.85 498.705C1090.95 498.621 1086.13 498.537 1081.22 498.537C1078.14 525.007 1076.88 551.645 1077.51 578.284C1082.96 578.284 1088.34 578.368 1093.8 578.368C1094.67 578.368 1095.62 578.368 1096.33 577.696Z" fill="#2F3F47"/>
<path d="M1121.54 631.31C1122.17 629.378 1122.88 627.361 1124.3 625.932C1125.41 624.84 1126.91 624.167 1128.34 623.663C1134.51 621.31 1140.83 619.546 1147.24 618.369C1152.22 621.983 1156.73 626.269 1160.6 631.226C1161.31 632.151 1162.02 633.159 1162.18 634.336C1162.34 635.26 1162.1 636.184 1161.87 637.109C1159.34 647.445 1156.88 657.781 1154.35 668.117C1150.64 668.621 1146.92 668.705 1143.28 668.201C1144.71 661.898 1146.13 655.596 1147.47 649.377C1148.82 643.411 1149.85 636.1 1145.58 631.899C1141.23 633.075 1136.96 634.336 1132.61 635.512C1131.9 635.68 1131.1 635.932 1130.47 636.436C1129.76 637.109 1129.44 638.117 1129.13 639.041C1127.31 644.924 1125.96 650.974 1125.02 657.109C1122.25 656.268 1119.48 655.511 1116.71 654.671C1116.48 646.688 1119.01 638.874 1121.54 631.31Z" fill="#2F3F47"/>
<path d="M1155.14 622.233C1155.38 621.981 1155.46 621.646 1155.54 621.393C1156.33 617.612 1157.12 613.83 1157.99 610.133C1152.45 608.788 1146.76 607.863 1141.15 607.359C1140.28 610.469 1139.72 613.746 1139.48 617.023C1139.41 617.696 1139.41 618.536 1139.88 619.04C1140.2 619.376 1140.59 619.46 1140.99 619.629C1145.18 620.973 1149.53 621.981 1153.96 622.569C1154.27 622.485 1154.75 622.57 1155.14 622.233Z" fill="#516770"/>
<path d="M1160.69 607.529C1164.01 601.562 1161.32 585.848 1161.32 579.546C1161.24 570.89 1161.24 562.151 1159.34 553.748C1157.44 545.344 1153.57 537.109 1147.16 531.815C1143.53 528.79 1139.26 526.858 1134.83 525.261C1121.62 520.471 1107.47 518.875 1093.63 520.639C1092.52 520.807 1091.34 520.975 1090.54 521.816C1089.67 522.656 1089.52 524 1089.36 525.261C1088.73 530.051 1087.86 535.345 1088.09 540.218C1088.49 548.79 1086.83 546.437 1092.68 548.874C1097.19 550.723 1105.65 549.21 1110.79 550.471C1116.8 551.899 1122.65 554.084 1128.5 556.269C1132.22 557.613 1136.17 559.294 1138.07 562.907C1139.1 564.84 1139.41 567.193 1139.65 569.462C1141.08 582.908 1141.71 596.436 1141.63 609.966C1141.63 612.318 1157.92 611.142 1160.05 608.537C1160.29 608.201 1160.45 607.865 1160.69 607.529Z" fill="#E2ECED"/>
<g opacity="0.15">
<path opacity="0.15" d="M1133 529.129C1132.53 537.196 1130.55 544.507 1127.55 551.902C1126.99 553.33 1128.65 554.423 1129.52 553.162C1134.27 546.104 1136.72 537.7 1137.59 529.129C1137.91 526.104 1133.24 526.019 1133 529.129Z" fill="#272525"/>
<path opacity="0.15" d="M1145.1 534.927C1143.76 542.743 1140.44 547.869 1135.22 553.415C1134.51 554.171 1135.46 555.431 1136.25 554.843C1139.81 552.49 1143.13 550.978 1145.66 547.197C1148.03 543.667 1149.61 539.885 1150.09 535.6C1150.4 532.659 1145.66 531.986 1145.1 534.927Z" fill="#272525"/>
</g>
<path d="M828.074 499.209C827.441 499.797 827.363 500.806 827.283 501.646C825.623 524.923 824.199 548.2 823.171 571.477C823.092 573.494 823.092 575.847 824.595 577.191C825.702 578.116 827.125 578.2 828.548 578.2C833.451 578.284 838.275 578.368 843.178 578.368C846.262 551.898 847.527 525.259 846.895 498.621C841.438 498.621 836.061 498.537 830.605 498.537C829.735 498.537 828.707 498.537 828.074 499.209Z" fill="#2F3F47"/>
<path d="M766.779 470.555C767.016 472.572 767.253 474.756 766.541 476.605C765.988 478.117 764.96 479.378 763.853 480.555C759.345 485.512 754.443 490.135 749.144 494.252C743.134 493.412 737.283 491.647 731.826 489.042C730.798 488.538 729.691 488.034 729.058 487.025C728.584 486.269 728.347 485.344 728.188 484.42C726.132 474 723.997 463.496 721.941 453.076C725.025 450.891 728.347 449.042 731.826 447.697C733.171 454 734.594 460.302 735.938 466.605C737.282 472.571 739.418 479.63 744.953 481.311C748.353 478.202 751.675 475.092 755.075 471.983C755.629 471.479 756.261 470.891 756.578 470.135C756.973 469.21 756.815 468.117 756.656 467.109C755.787 460.975 754.521 454.924 752.782 448.958C755.629 448.37 758.396 447.782 761.243 447.193C764.881 454.336 765.83 462.571 766.779 470.555Z" fill="#2F3F47"/>
<path d="M740.508 494.502C740.429 494.838 740.508 495.175 740.508 495.427C741.378 499.208 742.248 502.906 743.038 506.687C748.574 505.258 754.03 503.41 759.328 501.225C758.854 498.031 757.984 494.838 756.798 491.813C756.561 491.141 756.245 490.468 755.612 490.216C755.217 490.048 754.821 490.132 754.347 490.216C749.997 490.973 745.727 492.149 741.536 493.662C741.14 493.83 740.666 494.082 740.508 494.502Z" fill="#516770"/>
<path d="M741.714 510.303C741.16 517.193 750.175 529.966 752.864 535.68C756.501 543.412 760.218 551.227 765.437 557.865C770.657 564.504 777.536 570.05 785.523 571.73C790.031 572.739 794.696 572.487 799.283 571.815C813.122 569.882 826.486 564.672 838.11 556.521C839.059 555.848 840.008 555.176 840.404 554C840.799 552.823 840.404 551.563 840.087 550.302C838.585 545.681 837.24 540.555 834.947 536.269C830.993 528.79 833.524 530.134 827.197 530.638C822.374 531.059 815.415 536.437 810.275 537.782C804.265 539.378 798.097 540.134 792.008 540.975C788.133 541.479 783.863 541.899 780.62 539.546C778.88 538.286 777.615 536.353 776.508 534.42C769.628 523.075 763.381 511.227 757.767 499.043C756.818 496.942 742.742 505.681 741.872 509.042C741.793 509.546 741.714 509.883 741.714 510.303Z" fill="#E2ECED"/>
<g opacity="0.15">
<path opacity="0.15" d="M799.188 567.442C796.261 559.963 794.997 552.484 794.522 544.417C794.443 542.821 792.466 542.653 792.229 544.25C790.963 552.821 792.229 561.476 795.076 569.543C796.104 572.484 800.374 570.299 799.188 567.442Z" fill="#272525"/>
<path opacity="0.15" d="M785.996 568.032C783.94 560.385 784.731 554.251 787.103 546.772C787.42 545.764 786.075 545.091 785.522 545.931C783.387 549.713 781.014 552.654 780.303 557.192C779.67 561.477 779.828 565.595 781.252 569.628C782.201 572.569 786.708 570.889 785.996 568.032Z" fill="#272525"/>
</g>
<path d="M858.435 422.739C858.513 425.932 858.671 429.209 859.937 432.151C863.179 439.461 871.719 441.814 879.232 443.159C922.171 450.805 966.06 453.411 1009.24 447.612C1014.93 446.856 1020.62 445.932 1025.84 443.411C1031.06 440.89 1035.73 436.604 1037.63 430.974C1038.81 427.36 1038.89 423.495 1038.97 419.63C1039.05 415.764 1039.05 411.815 1039.13 407.949C1039.13 406.185 1039.13 404.42 1038.5 402.739C1037.78 400.974 1036.36 399.546 1034.86 398.453C1029.16 394.336 1021.97 393.411 1015.09 392.655C969.382 387.781 923.121 383.496 877.651 390.05C875.753 390.302 873.775 390.638 872.431 392.067C871.719 392.739 871.245 393.664 870.533 394.336C869.189 395.428 867.37 395.344 865.789 395.932C861.36 397.445 859.779 403.244 859.225 408.202C858.593 412.991 858.355 417.865 858.435 422.739Z" fill="#2F3F47"/>
<path opacity="0.2" d="M915.678 429.797C917.181 426.856 917.418 423.411 917.102 420.05C916.944 418.033 916.469 415.933 915.283 414.42C912.752 411.227 908.087 411.563 904.212 410.807C900.812 412.319 897.964 415.26 896.541 418.874C895.671 421.058 895.276 423.411 895.513 425.764C896.067 430.554 899.784 434.672 904.212 435.512C908.719 436.521 913.544 434.083 915.678 429.797Z" fill="#EAF1F2"/>
<path opacity="0.2" d="M990.983 429.797C992.485 426.856 992.723 423.411 992.406 420.05C992.248 418.033 991.774 415.933 990.587 414.42C988.057 411.227 983.392 411.563 979.517 410.807C976.116 412.319 973.269 415.26 971.846 418.874C970.976 421.058 970.581 423.411 970.818 425.764C971.371 430.554 975.088 434.672 979.517 435.512C983.945 436.521 988.768 434.083 990.983 429.797Z" fill="#EAF1F2"/>
<defs>
<linearGradient id="paint0_linear_807_2543" x1="857.57" y1="748.659" x2="1196.34" y2="748.659" gradientUnits="userSpaceOnUse">
<stop stop-color="#4D4D4D"/>
<stop offset="1"/>
</linearGradient>
<linearGradient id="paint1_linear_807_2543" x1="857.57" y1="748.659" x2="1196.34" y2="748.659" gradientUnits="userSpaceOnUse">
<stop/>
<stop offset="1"/>
</linearGradient>
</defs>
</svg>
