<svg width="1199" height="772" viewBox="0 0 1199 772" fill="none" xmlns="http://www.w3.org/2000/svg">
<path d="M697.596 387C697.845 387 698.094 386.994 698.346 386.983C701.281 386.864 704.147 385.952 706.7 384.325C709.254 382.698 711.418 380.404 713.01 377.638C724.934 357.669 739.566 339.908 756.379 324.997C766.558 315.881 777.194 307.405 787.478 299.207C814.013 278.066 839.001 258.155 852.872 230.643C883.116 170.652 847.5 87.0923 796.619 49.6186C739.549 7.58992 664.483 0.997367 591.865 0.133407C584.318 0.0439794 576.767 -0.000465902 569.211 3.68211e-06C438.368 0.05622 307.801 13.4339 179.119 39.968C136.33 48.814 91.5399 59.6506 55.547 85.9492C19.7678 112.092 -1.97922 153.261 0.142339 190.835C3.23996 245.687 55.1323 286.673 102.385 297.389C147.424 307.594 194.212 300.697 243.746 293.393C254.682 291.782 265.988 290.115 277.169 288.666C398.685 272.928 626.961 321.438 636.618 323.511L646.2 325.566L683.376 379.173C685.048 381.617 687.202 383.595 689.668 384.952C692.135 386.31 694.848 387.011 697.596 387Z" fill="white"/>
<path d="M100.051 121V87.5455H104.102V104.142H104.494L119.523 87.5455H124.815L110.767 102.639L124.815 121H119.915L108.284 105.449L104.102 110.153V121H100.051ZM133.391 87.5455V121H129.536V87.5455H133.391ZM140.452 121V95.9091H144.307V121H140.452ZM142.412 91.7273C141.661 91.7273 141.013 91.4714 140.469 90.9595C139.935 90.4477 139.668 89.8324 139.668 89.1136C139.668 88.3949 139.935 87.7796 140.469 87.2678C141.013 86.7559 141.661 86.5 142.412 86.5C143.164 86.5 143.806 86.7559 144.34 87.2678C144.885 87.7796 145.157 88.3949 145.157 89.1136C145.157 89.8324 144.885 90.4477 144.34 90.9595C143.806 91.4714 143.164 91.7273 142.412 91.7273ZM161.561 121.523C159.209 121.523 157.184 120.967 155.485 119.857C153.786 118.746 152.479 117.216 151.564 115.266C150.65 113.317 150.192 111.09 150.192 108.585C150.192 106.037 150.66 103.788 151.597 101.839C152.544 99.8786 153.862 98.3485 155.55 97.2486C157.249 96.1378 159.231 95.5824 161.496 95.5824C163.26 95.5824 164.85 95.9091 166.266 96.5625C167.682 97.2159 168.842 98.1307 169.745 99.3068C170.649 100.483 171.21 101.855 171.428 103.423H167.573C167.279 102.28 166.625 101.267 165.613 100.385C164.611 99.4919 163.26 99.0455 161.561 99.0455C160.059 99.0455 158.741 99.4375 157.608 100.222C156.487 100.995 155.61 102.089 154.978 103.505C154.358 104.91 154.047 106.56 154.047 108.455C154.047 110.393 154.352 112.081 154.962 113.518C155.583 114.956 156.454 116.072 157.576 116.867C158.708 117.662 160.037 118.06 161.561 118.06C162.563 118.06 163.473 117.885 164.289 117.537C165.106 117.188 165.798 116.688 166.364 116.034C166.93 115.381 167.333 114.597 167.573 113.682H171.428C171.21 115.163 170.671 116.497 169.811 117.684C168.961 118.86 167.834 119.797 166.429 120.494C165.035 121.18 163.413 121.523 161.561 121.523ZM180.657 111.852L180.592 107.082H181.376L192.353 95.9091H197.123L185.427 107.736H185.1L180.657 111.852ZM177.064 121V87.5455H180.919V121H177.064ZM193.007 121L183.206 108.585L185.95 105.906L197.907 121H193.007ZM211.572 121.523C209.154 121.523 207.069 120.989 205.315 119.922C203.573 118.844 202.228 117.341 201.281 115.413C200.344 113.475 199.876 111.221 199.876 108.651C199.876 106.08 200.344 103.815 201.281 101.855C202.228 99.884 203.546 98.3485 205.234 97.2486C206.933 96.1378 208.915 95.5824 211.18 95.5824C212.487 95.5824 213.777 95.8002 215.051 96.2358C216.325 96.6714 217.485 97.3793 218.531 98.3594C219.576 99.3286 220.409 100.614 221.03 102.214C221.651 103.815 221.961 105.786 221.961 108.128V109.761H202.62V106.429H218.04C218.04 105.013 217.757 103.75 217.191 102.639C216.636 101.528 215.841 100.652 214.806 100.009C213.782 99.3667 212.574 99.0455 211.18 99.0455C209.644 99.0455 208.316 99.4266 207.194 100.189C206.083 100.94 205.228 101.92 204.629 103.129C204.03 104.338 203.731 105.634 203.731 107.017V109.239C203.731 111.134 204.058 112.74 204.711 114.058C205.375 115.364 206.295 116.361 207.472 117.047C208.648 117.722 210.014 118.06 211.572 118.06C212.585 118.06 213.499 117.918 214.316 117.635C215.144 117.341 215.857 116.905 216.456 116.328C217.055 115.74 217.518 115.01 217.844 114.139L221.569 115.185C221.177 116.448 220.518 117.559 219.592 118.517C218.667 119.464 217.523 120.205 216.162 120.739C214.801 121.261 213.271 121.523 211.572 121.523ZM248.146 121.588C246.556 121.588 245.113 121.289 243.817 120.69C242.522 120.08 241.492 119.203 240.73 118.06C239.968 116.905 239.587 115.511 239.587 113.878C239.587 112.44 239.87 111.275 240.436 110.382C241.002 109.478 241.759 108.77 242.707 108.259C243.654 107.747 244.7 107.366 245.843 107.115C246.997 106.854 248.157 106.647 249.322 106.494C250.847 106.298 252.083 106.151 253.031 106.053C253.989 105.944 254.686 105.765 255.121 105.514C255.568 105.264 255.791 104.828 255.791 104.207V104.077C255.791 102.465 255.35 101.213 254.468 100.32C253.597 99.4266 252.274 98.9801 250.499 98.9801C248.658 98.9801 247.215 99.383 246.17 100.189C245.124 100.995 244.389 101.855 243.964 102.77L240.305 101.463C240.959 99.9384 241.83 98.7514 242.919 97.902C244.019 97.0417 245.217 96.4427 246.513 96.1051C247.82 95.7566 249.105 95.5824 250.368 95.5824C251.174 95.5824 252.099 95.6804 253.145 95.8764C254.201 96.0616 255.219 96.4482 256.2 97.0362C257.191 97.6243 258.013 98.5118 258.666 99.6989C259.32 100.886 259.646 102.476 259.646 104.469V121H255.791V117.602H255.595C255.334 118.147 254.898 118.729 254.288 119.35C253.679 119.971 252.867 120.499 251.854 120.935C250.842 121.37 249.606 121.588 248.146 121.588ZM248.734 118.125C250.259 118.125 251.544 117.826 252.589 117.227C253.646 116.628 254.441 115.854 254.974 114.907C255.519 113.96 255.791 112.963 255.791 111.918V108.389C255.628 108.585 255.268 108.765 254.713 108.928C254.169 109.081 253.537 109.217 252.818 109.337C252.11 109.446 251.419 109.544 250.744 109.631C250.079 109.707 249.54 109.772 249.126 109.827C248.125 109.957 247.188 110.17 246.317 110.464C245.456 110.747 244.759 111.177 244.226 111.754C243.703 112.321 243.442 113.094 243.442 114.074C243.442 115.413 243.937 116.426 244.928 117.112C245.93 117.787 247.199 118.125 248.734 118.125ZM282.495 110.741V95.9091H286.35V121H282.495V116.753H282.234C281.646 118.027 280.731 119.111 279.49 120.004C278.248 120.886 276.68 121.327 274.785 121.327C273.217 121.327 271.823 120.984 270.603 120.298C269.383 119.601 268.425 118.555 267.728 117.161C267.031 115.756 266.683 113.987 266.683 111.852V95.9091H270.538V111.591C270.538 113.42 271.05 114.88 272.073 115.969C273.108 117.058 274.426 117.602 276.026 117.602C276.985 117.602 277.959 117.357 278.95 116.867C279.952 116.377 280.791 115.626 281.466 114.613C282.152 113.6 282.495 112.31 282.495 110.741ZM304.585 95.9091V99.1761H291.059V95.9091H304.585ZM295.11 121V92.446C295.11 91.0085 295.448 89.8106 296.123 88.8523C296.798 87.8939 297.675 87.1752 298.753 86.696C299.831 86.2169 300.969 85.9773 302.167 85.9773C303.114 85.9773 303.888 86.0535 304.487 86.206C305.085 86.3584 305.532 86.5 305.826 86.6307L304.715 89.9631C304.519 89.8977 304.247 89.816 303.898 89.718C303.561 89.62 303.114 89.571 302.559 89.571C301.285 89.571 300.365 89.8923 299.798 90.5348C299.243 91.1773 298.965 92.1193 298.965 93.3608V121H295.11ZM333.445 121.523C331.027 121.523 328.942 120.989 327.188 119.922C325.446 118.844 324.101 117.341 323.154 115.413C322.217 113.475 321.749 111.221 321.749 108.651C321.749 106.08 322.217 103.815 323.154 101.855C324.101 99.884 325.419 98.3485 327.107 97.2486C328.806 96.1378 330.788 95.5824 333.053 95.5824C334.36 95.5824 335.65 95.8002 336.924 96.2358C338.198 96.6714 339.358 97.3793 340.404 98.3594C341.449 99.3286 342.282 100.614 342.903 102.214C343.524 103.815 343.834 105.786 343.834 108.128V109.761H324.493V106.429H339.914C339.914 105.013 339.63 103.75 339.064 102.639C338.509 101.528 337.714 100.652 336.679 100.009C335.655 99.3667 334.447 99.0455 333.053 99.0455C331.517 99.0455 330.189 99.4266 329.067 100.189C327.956 100.94 327.101 101.92 326.502 103.129C325.903 104.338 325.604 105.634 325.604 107.017V109.239C325.604 111.134 325.931 112.74 326.584 114.058C327.248 115.364 328.169 116.361 329.345 117.047C330.521 117.722 331.887 118.06 333.445 118.06C334.458 118.06 335.372 117.918 336.189 117.635C337.017 117.341 337.73 116.905 338.329 116.328C338.928 115.74 339.391 115.01 339.718 114.139L343.442 115.185C343.05 116.448 342.391 117.559 341.465 118.517C340.54 119.464 339.396 120.205 338.035 120.739C336.674 121.261 335.144 121.523 333.445 121.523ZM349.698 121V95.9091H353.553V121H349.698ZM351.659 91.7273C350.907 91.7273 350.259 91.4714 349.715 90.9595C349.181 90.4477 348.914 89.8324 348.914 89.1136C348.914 88.3949 349.181 87.7796 349.715 87.2678C350.259 86.7559 350.907 86.5 351.659 86.5C352.41 86.5 353.052 86.7559 353.586 87.2678C354.131 87.7796 354.403 88.3949 354.403 89.1136C354.403 89.8324 354.131 90.4477 353.586 90.9595C353.052 91.4714 352.41 91.7273 351.659 91.7273ZM364.469 105.906V121H360.614V95.9091H364.339V99.8295H364.665C365.254 98.5554 366.147 97.5317 367.344 96.7585C368.542 95.9744 370.089 95.5824 371.984 95.5824C373.683 95.5824 375.169 95.9309 376.443 96.6278C377.717 97.3139 378.708 98.3594 379.416 99.7642C380.124 101.158 380.478 102.922 380.478 105.057V121H376.623V105.318C376.623 103.347 376.111 101.812 375.087 100.712C374.064 99.6009 372.659 99.0455 370.873 99.0455C369.642 99.0455 368.542 99.3123 367.573 99.8459C366.615 100.379 365.858 101.158 365.303 102.182C364.747 103.205 364.469 104.447 364.469 105.906ZM398.042 121.523C395.625 121.523 393.539 120.989 391.786 119.922C390.044 118.844 388.699 117.341 387.751 115.413C386.815 113.475 386.346 111.221 386.346 108.651C386.346 106.08 386.815 103.815 387.751 101.855C388.699 99.884 390.016 98.3485 391.704 97.2486C393.403 96.1378 395.385 95.5824 397.65 95.5824C398.957 95.5824 400.248 95.8002 401.522 96.2358C402.796 96.6714 403.956 97.3793 405.001 98.3594C406.047 99.3286 406.88 100.614 407.501 102.214C408.121 103.815 408.432 105.786 408.432 108.128V109.761H389.091V106.429H404.511C404.511 105.013 404.228 103.75 403.662 102.639C403.106 101.528 402.311 100.652 401.277 100.009C400.253 99.3667 399.044 99.0455 397.65 99.0455C396.115 99.0455 394.786 99.4266 393.665 100.189C392.554 100.94 391.699 101.92 391.1 103.129C390.501 104.338 390.202 105.634 390.202 107.017V109.239C390.202 111.134 390.528 112.74 391.182 114.058C391.846 115.364 392.766 116.361 393.942 117.047C395.118 117.722 396.485 118.06 398.042 118.06C399.055 118.06 399.97 117.918 400.787 117.635C401.614 117.341 402.328 116.905 402.927 116.328C403.526 115.74 403.988 115.01 404.315 114.139L408.04 115.185C407.648 116.448 406.989 117.559 406.063 118.517C405.137 119.464 403.994 120.205 402.633 120.739C401.271 121.261 399.741 121.523 398.042 121.523ZM436.708 121.523C434.617 121.523 432.771 120.995 431.17 119.938C429.569 118.871 428.317 117.368 427.413 115.43C426.509 113.48 426.057 111.177 426.057 108.52C426.057 105.884 426.509 103.598 427.413 101.659C428.317 99.7206 429.575 98.2232 431.187 97.1669C432.798 96.1106 434.661 95.5824 436.773 95.5824C438.407 95.5824 439.697 95.8546 440.645 96.3991C441.603 96.9328 442.333 97.5426 442.834 98.2287C443.345 98.9039 443.743 99.4593 444.026 99.8949H444.353V87.5455H448.208V121H444.483V117.145H444.026C443.743 117.602 443.34 118.179 442.817 118.876C442.295 119.562 441.549 120.178 440.579 120.722C439.61 121.256 438.32 121.523 436.708 121.523ZM437.231 118.06C438.777 118.06 440.084 117.657 441.151 116.851C442.218 116.034 443.03 114.907 443.585 113.469C444.14 112.021 444.418 110.349 444.418 108.455C444.418 106.581 444.146 104.942 443.601 103.538C443.057 102.122 442.251 101.022 441.184 100.238C440.117 99.4429 438.799 99.0455 437.231 99.0455C435.597 99.0455 434.236 99.4647 433.147 100.303C432.069 101.131 431.257 102.258 430.713 103.685C430.179 105.1 429.912 106.69 429.912 108.455C429.912 110.241 430.185 111.863 430.729 113.322C431.285 114.771 432.101 115.925 433.18 116.786C434.269 117.635 435.619 118.06 437.231 118.06ZM466.324 121.523C463.906 121.523 461.821 120.989 460.067 119.922C458.325 118.844 456.98 117.341 456.032 115.413C455.096 113.475 454.628 111.221 454.628 108.651C454.628 106.08 455.096 103.815 456.032 101.855C456.98 99.884 458.298 98.3485 459.986 97.2486C461.684 96.1378 463.666 95.5824 465.932 95.5824C467.238 95.5824 468.529 95.8002 469.803 96.2358C471.077 96.6714 472.237 97.3793 473.282 98.3594C474.328 99.3286 475.161 100.614 475.782 102.214C476.403 103.815 476.713 105.786 476.713 108.128V109.761H457.372V106.429H472.792C472.792 105.013 472.509 103.75 471.943 102.639C471.388 101.528 470.593 100.652 469.558 100.009C468.534 99.3667 467.326 99.0455 465.932 99.0455C464.396 99.0455 463.068 99.4266 461.946 100.189C460.835 100.94 459.98 101.92 459.381 103.129C458.782 104.338 458.483 105.634 458.483 107.017V109.239C458.483 111.134 458.809 112.74 459.463 114.058C460.127 115.364 461.047 116.361 462.224 117.047C463.4 117.722 464.766 118.06 466.324 118.06C467.336 118.06 468.251 117.918 469.068 117.635C469.896 117.341 470.609 116.905 471.208 116.328C471.807 115.74 472.27 115.01 472.596 114.139L476.321 115.185C475.929 116.448 475.27 117.559 474.344 118.517C473.419 119.464 472.275 120.205 470.914 120.739C469.553 121.261 468.023 121.523 466.324 121.523ZM482.577 121V95.9091H486.302V99.6989H486.563C487.02 98.4574 487.848 97.45 489.046 96.6768C490.244 95.9036 491.594 95.517 493.097 95.517C493.38 95.517 493.734 95.5225 494.159 95.5334C494.584 95.5443 494.905 95.5606 495.123 95.5824V99.5028C494.992 99.4702 494.693 99.4212 494.224 99.3558C493.767 99.2796 493.282 99.2415 492.77 99.2415C491.551 99.2415 490.462 99.4974 489.503 100.009C488.556 100.51 487.805 101.207 487.249 102.1C486.705 102.982 486.432 103.99 486.432 105.122V121H482.577ZM519.229 121L510.082 87.5455H514.198L521.19 114.793H521.516L528.638 87.5455H533.212L540.335 114.793H540.661L547.653 87.5455H551.769L542.621 121H538.44L531.056 94.3409H530.795L523.411 121H519.229ZM564.151 121.523C561.886 121.523 559.899 120.984 558.189 119.906C556.49 118.827 555.161 117.319 554.203 115.381C553.256 113.442 552.782 111.177 552.782 108.585C552.782 105.972 553.256 103.69 554.203 101.741C555.161 99.7914 556.49 98.2777 558.189 97.1996C559.899 96.1214 561.886 95.5824 564.151 95.5824C566.416 95.5824 568.398 96.1214 570.097 97.1996C571.807 98.2777 573.136 99.7914 574.083 101.741C575.041 103.69 575.521 105.972 575.521 108.585C575.521 111.177 575.041 113.442 574.083 115.381C573.136 117.319 571.807 118.827 570.097 119.906C568.398 120.984 566.416 121.523 564.151 121.523ZM564.151 118.06C565.872 118.06 567.288 117.619 568.398 116.737C569.509 115.854 570.331 114.695 570.865 113.257C571.399 111.82 571.665 110.262 571.665 108.585C571.665 106.908 571.399 105.345 570.865 103.897C570.331 102.449 569.509 101.278 568.398 100.385C567.288 99.4919 565.872 99.0455 564.151 99.0455C562.431 99.0455 561.015 99.4919 559.904 100.385C558.793 101.278 557.971 102.449 557.438 103.897C556.904 105.345 556.637 106.908 556.637 108.585C556.637 110.262 556.904 111.82 557.438 113.257C557.971 114.695 558.793 115.854 559.904 116.737C561.015 117.619 562.431 118.06 564.151 118.06ZM585.26 87.5455V121H581.405V87.5455H585.26ZM595.915 111.852L595.85 107.082H596.634L607.611 95.9091H612.381L600.685 107.736H600.358L595.915 111.852ZM592.321 121V87.5455H596.176V121H592.321ZM608.265 121L598.463 108.585L601.208 105.906L613.165 121H608.265ZM626.83 121.523C624.412 121.523 622.326 120.989 620.573 119.922C618.831 118.844 617.486 117.341 616.538 115.413C615.602 113.475 615.134 111.221 615.134 108.651C615.134 106.08 615.602 103.815 616.538 101.855C617.486 99.884 618.804 98.3485 620.491 97.2486C622.19 96.1378 624.172 95.5824 626.438 95.5824C627.744 95.5824 629.035 95.8002 630.309 96.2358C631.583 96.6714 632.743 97.3793 633.788 98.3594C634.834 99.3286 635.667 100.614 636.288 102.214C636.908 103.815 637.219 105.786 637.219 108.128V109.761H617.878V106.429H633.298C633.298 105.013 633.015 103.75 632.449 102.639C631.893 101.528 631.098 100.652 630.064 100.009C629.04 99.3667 627.831 99.0455 626.438 99.0455C624.902 99.0455 623.573 99.4266 622.452 100.189C621.341 100.94 620.486 101.92 619.887 103.129C619.288 104.338 618.989 105.634 618.989 107.017V109.239C618.989 111.134 619.315 112.74 619.969 114.058C620.633 115.364 621.553 116.361 622.729 117.047C623.906 117.722 625.272 118.06 626.83 118.06C627.842 118.06 628.757 117.918 629.574 117.635C630.402 117.341 631.115 116.905 631.714 116.328C632.313 115.74 632.776 115.01 633.102 114.139L636.827 115.185C636.435 116.448 635.776 117.559 634.85 118.517C633.924 119.464 632.781 120.205 631.42 120.739C630.058 121.261 628.528 121.523 626.83 121.523ZM646.938 105.906V121H643.083V95.9091H646.808V99.8295H647.134C647.722 98.5554 648.615 97.5317 649.813 96.7585C651.011 95.9744 652.558 95.5824 654.452 95.5824C656.151 95.5824 657.638 95.9309 658.912 96.6278C660.186 97.3139 661.177 98.3594 661.885 99.7642C662.593 101.158 662.947 102.922 662.947 105.057V121H659.092V105.318C659.092 103.347 658.58 101.812 657.556 100.712C656.532 99.6009 655.128 99.0455 653.342 99.0455C652.111 99.0455 651.011 99.3123 650.042 99.8459C649.084 100.379 648.327 101.158 647.771 102.182C647.216 103.205 646.938 104.447 646.938 105.906ZM675.741 116.426L675.48 118.19C675.295 119.432 675.012 120.76 674.631 122.176C674.26 123.592 673.874 124.926 673.471 126.178C673.068 127.431 672.736 128.427 672.474 129.168H669.534C669.675 128.471 669.861 127.55 670.089 126.407C670.318 125.263 670.547 123.984 670.775 122.568C671.015 121.163 671.211 119.726 671.363 118.256L671.559 116.426H675.741ZM711.634 110.741V95.9091H715.489V121H711.634V116.753H711.373C710.784 118.027 709.87 119.111 708.628 120.004C707.387 120.886 705.819 121.327 703.924 121.327C702.355 121.327 700.962 120.984 699.742 120.298C698.522 119.601 697.564 118.555 696.867 117.161C696.17 115.756 695.821 113.987 695.821 111.852V95.9091H699.676V111.591C699.676 113.42 700.188 114.88 701.212 115.969C702.247 117.058 703.564 117.602 705.165 117.602C706.123 117.602 707.098 117.357 708.089 116.867C709.091 116.377 709.93 115.626 710.605 114.613C711.291 113.6 711.634 112.31 711.634 110.741ZM722.55 121V95.9091H726.274V99.8295H726.601C727.124 98.4901 727.968 97.45 729.133 96.7095C730.298 95.9581 731.698 95.5824 733.331 95.5824C734.986 95.5824 736.364 95.9581 737.464 96.7095C738.575 97.45 739.441 98.4901 740.061 99.8295H740.323C740.965 98.5336 741.929 97.5045 743.214 96.7422C744.499 95.969 746.04 95.5824 747.837 95.5824C750.08 95.5824 751.915 96.2848 753.342 97.6896C754.768 99.0836 755.482 101.256 755.482 104.207V121H751.627V104.207C751.627 102.356 751.12 101.033 750.107 100.238C749.095 99.4429 747.902 99.0455 746.53 99.0455C744.766 99.0455 743.399 99.5791 742.43 100.646C741.461 101.703 740.976 103.042 740.976 104.665V121H737.056V103.815C737.056 102.389 736.593 101.24 735.667 100.369C734.741 99.4865 733.549 99.0455 732.09 99.0455C731.088 99.0455 730.151 99.3123 729.28 99.8459C728.42 100.379 727.723 101.12 727.189 102.067C726.666 103.004 726.405 104.088 726.405 105.318V121H722.55ZM105.213 177L97.5682 151.909H101.619L107.043 171.119H107.304L112.662 151.909H116.778L122.071 171.054H122.332L127.756 151.909H131.807L124.162 177H120.372L114.884 157.724H114.491L109.003 177H105.213ZM146.57 177.523C144.152 177.523 142.067 176.989 140.313 175.922C138.571 174.844 137.226 173.341 136.279 171.413C135.342 169.475 134.874 167.221 134.874 164.651C134.874 162.08 135.342 159.815 136.279 157.855C137.226 155.884 138.544 154.348 140.232 153.249C141.931 152.138 143.913 151.582 146.178 151.582C147.485 151.582 148.775 151.8 150.049 152.236C151.323 152.671 152.483 153.379 153.529 154.359C154.574 155.329 155.407 156.614 156.028 158.214C156.649 159.815 156.959 161.786 156.959 164.128V165.761H137.618V162.429H153.039C153.039 161.013 152.755 159.75 152.189 158.639C151.634 157.528 150.839 156.652 149.804 156.009C148.78 155.367 147.572 155.045 146.178 155.045C144.642 155.045 143.314 155.427 142.192 156.189C141.081 156.94 140.226 157.92 139.627 159.129C139.028 160.338 138.729 161.634 138.729 163.017V165.239C138.729 167.134 139.056 168.74 139.709 170.058C140.373 171.364 141.294 172.361 142.47 173.047C143.646 173.722 145.012 174.06 146.57 174.06C147.583 174.06 148.497 173.918 149.314 173.635C150.142 173.341 150.855 172.905 151.454 172.328C152.053 171.74 152.516 171.01 152.843 170.139L156.567 171.185C156.175 172.448 155.516 173.559 154.59 174.517C153.665 175.464 152.521 176.205 151.16 176.739C149.799 177.261 148.269 177.523 146.57 177.523ZM162.823 177V151.909H166.678V177H162.823ZM164.784 147.727C164.032 147.727 163.384 147.471 162.84 146.96C162.306 146.448 162.039 145.832 162.039 145.114C162.039 144.395 162.306 143.78 162.84 143.268C163.384 142.756 164.032 142.5 164.784 142.5C165.535 142.5 166.177 142.756 166.711 143.268C167.256 143.78 167.528 144.395 167.528 145.114C167.528 145.832 167.256 146.448 166.711 146.96C166.177 147.471 165.535 147.727 164.784 147.727ZM184.651 151.909V155.176H171.648V151.909H184.651ZM175.438 145.898H179.293V169.812C179.293 170.902 179.451 171.718 179.767 172.263C180.094 172.796 180.508 173.156 181.009 173.341C181.52 173.515 182.059 173.602 182.626 173.602C183.05 173.602 183.399 173.58 183.671 173.537C183.943 173.482 184.161 173.439 184.325 173.406L185.109 176.869C184.847 176.967 184.482 177.065 184.014 177.163C183.546 177.272 182.952 177.327 182.234 177.327C181.145 177.327 180.077 177.093 179.032 176.624C177.997 176.156 177.137 175.443 176.451 174.484C175.776 173.526 175.438 172.317 175.438 170.858V145.898ZM200.701 177.523C198.283 177.523 196.198 176.989 194.444 175.922C192.702 174.844 191.357 173.341 190.409 171.413C189.473 169.475 189.005 167.221 189.005 164.651C189.005 162.08 189.473 159.815 190.409 157.855C191.357 155.884 192.675 154.348 194.363 153.249C196.061 152.138 198.043 151.582 200.309 151.582C201.615 151.582 202.906 151.8 204.18 152.236C205.454 152.671 206.614 153.379 207.659 154.359C208.705 155.329 209.538 156.614 210.159 158.214C210.779 159.815 211.09 161.786 211.09 164.128V165.761H191.749V162.429H207.169C207.169 161.013 206.886 159.75 206.32 158.639C205.765 157.528 204.97 156.652 203.935 156.009C202.911 155.367 201.703 155.045 200.309 155.045C198.773 155.045 197.444 155.427 196.323 156.189C195.212 156.94 194.357 157.92 193.758 159.129C193.159 160.338 192.86 161.634 192.86 163.017V165.239C192.86 167.134 193.186 168.74 193.84 170.058C194.504 171.364 195.424 172.361 196.6 173.047C197.777 173.722 199.143 174.06 200.701 174.06C201.713 174.06 202.628 173.918 203.445 173.635C204.273 173.341 204.986 172.905 205.585 172.328C206.184 171.74 206.647 171.01 206.973 170.139L210.698 171.185C210.306 172.448 209.647 173.559 208.721 174.517C207.796 175.464 206.652 176.205 205.291 176.739C203.93 177.261 202.4 177.523 200.701 177.523ZM216.954 177V151.909H220.679V155.699H220.94C221.397 154.457 222.225 153.45 223.423 152.677C224.621 151.904 225.971 151.517 227.474 151.517C227.757 151.517 228.111 151.522 228.536 151.533C228.961 151.544 229.282 151.561 229.5 151.582V155.503C229.369 155.47 229.069 155.421 228.601 155.356C228.144 155.28 227.659 155.241 227.147 155.241C225.928 155.241 224.839 155.497 223.88 156.009C222.933 156.51 222.181 157.207 221.626 158.1C221.082 158.982 220.809 159.99 220.809 161.122V177H216.954ZM243.826 177.523C241.408 177.523 239.323 176.989 237.569 175.922C235.827 174.844 234.482 173.341 233.534 171.413C232.598 169.475 232.13 167.221 232.13 164.651C232.13 162.08 232.598 159.815 233.534 157.855C234.482 155.884 235.8 154.348 237.488 153.249C239.186 152.138 241.168 151.582 243.434 151.582C244.74 151.582 246.031 151.8 247.305 152.236C248.579 152.671 249.739 153.379 250.784 154.359C251.83 155.329 252.663 156.614 253.284 158.214C253.904 159.815 254.215 161.786 254.215 164.128V165.761H234.874V162.429H250.294C250.294 161.013 250.011 159.75 249.445 158.639C248.89 157.528 248.095 156.652 247.06 156.009C246.036 155.367 244.828 155.045 243.434 155.045C241.898 155.045 240.569 155.427 239.448 156.189C238.337 156.94 237.482 157.92 236.883 159.129C236.284 160.338 235.985 161.634 235.985 163.017V165.239C235.985 167.134 236.311 168.74 236.965 170.058C237.629 171.364 238.549 172.361 239.725 173.047C240.902 173.722 242.268 174.06 243.826 174.06C244.838 174.06 245.753 173.918 246.57 173.635C247.398 173.341 248.111 172.905 248.71 172.328C249.309 171.74 249.772 171.01 250.098 170.139L253.823 171.185C253.431 172.448 252.772 173.559 251.846 174.517C250.921 175.464 249.777 176.205 248.416 176.739C247.055 177.261 245.525 177.523 243.826 177.523ZM277.591 143.545V177H273.539V143.545H277.591ZM289.046 161.906V177H285.191V151.909H288.915V155.83H289.242C289.83 154.555 290.723 153.532 291.921 152.759C293.119 151.974 294.665 151.582 296.56 151.582C298.259 151.582 299.745 151.931 301.019 152.628C302.294 153.314 303.285 154.359 303.992 155.764C304.7 157.158 305.054 158.922 305.054 161.057V177H301.199V161.318C301.199 159.347 300.687 157.812 299.664 156.712C298.64 155.601 297.235 155.045 295.449 155.045C294.218 155.045 293.119 155.312 292.149 155.846C291.191 156.379 290.434 157.158 289.879 158.182C289.323 159.205 289.046 160.447 289.046 161.906ZM323.272 151.909V155.176H309.746V151.909H323.272ZM313.798 177V148.446C313.798 147.009 314.135 145.811 314.81 144.852C315.486 143.894 316.362 143.175 317.44 142.696C318.518 142.217 319.656 141.977 320.854 141.977C321.802 141.977 322.575 142.054 323.174 142.206C323.773 142.358 324.219 142.5 324.513 142.631L323.403 145.963C323.207 145.898 322.934 145.816 322.586 145.718C322.248 145.62 321.802 145.571 321.246 145.571C319.972 145.571 319.052 145.892 318.486 146.535C317.93 147.177 317.653 148.119 317.653 149.361V177H313.798ZM337.835 177.523C335.57 177.523 333.582 176.984 331.873 175.906C330.174 174.827 328.845 173.319 327.887 171.381C326.939 169.442 326.466 167.177 326.466 164.585C326.466 161.972 326.939 159.69 327.887 157.741C328.845 155.791 330.174 154.278 331.873 153.2C333.582 152.121 335.57 151.582 337.835 151.582C340.1 151.582 342.082 152.121 343.781 153.2C345.491 154.278 346.819 155.791 347.767 157.741C348.725 159.69 349.204 161.972 349.204 164.585C349.204 167.177 348.725 169.442 347.767 171.381C346.819 173.319 345.491 174.827 343.781 175.906C342.082 176.984 340.1 177.523 337.835 177.523ZM337.835 174.06C339.556 174.06 340.971 173.619 342.082 172.737C343.193 171.854 344.015 170.695 344.549 169.257C345.082 167.82 345.349 166.262 345.349 164.585C345.349 162.908 345.082 161.345 344.549 159.897C344.015 158.449 343.193 157.278 342.082 156.385C340.971 155.492 339.556 155.045 337.835 155.045C336.114 155.045 334.699 155.492 333.588 156.385C332.477 157.278 331.655 158.449 331.121 159.897C330.587 161.345 330.321 162.908 330.321 164.585C330.321 166.262 330.587 167.82 331.121 169.257C331.655 170.695 332.477 171.854 333.588 172.737C334.699 173.619 336.114 174.06 337.835 174.06ZM355.089 177V151.909H358.813V155.699H359.075C359.532 154.457 360.36 153.45 361.558 152.677C362.756 151.904 364.106 151.517 365.609 151.517C365.892 151.517 366.246 151.522 366.671 151.533C367.095 151.544 367.417 151.561 367.634 151.582V155.503C367.504 155.47 367.204 155.421 366.736 155.356C366.279 155.28 365.794 155.241 365.282 155.241C364.062 155.241 362.973 155.497 362.015 156.009C361.068 156.51 360.316 157.207 359.761 158.1C359.216 158.982 358.944 159.99 358.944 161.122V177H355.089ZM372.204 177V151.909H375.929V155.83H376.255C376.778 154.49 377.622 153.45 378.787 152.71C379.953 151.958 381.352 151.582 382.985 151.582C384.641 151.582 386.018 151.958 387.118 152.71C388.229 153.45 389.095 154.49 389.716 155.83H389.977C390.619 154.534 391.583 153.504 392.868 152.742C394.153 151.969 395.694 151.582 397.491 151.582C399.734 151.582 401.569 152.285 402.996 153.69C404.423 155.084 405.136 157.256 405.136 160.207V177H401.281V160.207C401.281 158.356 400.775 157.033 399.762 156.238C398.749 155.443 397.556 155.045 396.184 155.045C394.42 155.045 393.053 155.579 392.084 156.646C391.115 157.703 390.63 159.042 390.63 160.665V177H386.71V159.815C386.71 158.389 386.247 157.24 385.321 156.369C384.396 155.487 383.203 155.045 381.744 155.045C380.742 155.045 379.806 155.312 378.934 155.846C378.074 156.379 377.377 157.12 376.843 158.067C376.321 159.004 376.059 160.088 376.059 161.318V177H372.204ZM419.568 177.588C417.978 177.588 416.535 177.289 415.239 176.69C413.943 176.08 412.914 175.203 412.152 174.06C411.39 172.905 411.009 171.511 411.009 169.878C411.009 168.44 411.292 167.275 411.858 166.382C412.424 165.478 413.181 164.77 414.129 164.259C415.076 163.747 416.121 163.366 417.265 163.115C418.419 162.854 419.579 162.647 420.744 162.494C422.269 162.298 423.505 162.151 424.452 162.053C425.411 161.944 426.108 161.765 426.543 161.514C426.99 161.264 427.213 160.828 427.213 160.207V160.077C427.213 158.465 426.772 157.213 425.89 156.32C425.019 155.427 423.696 154.98 421.92 154.98C420.08 154.98 418.637 155.383 417.592 156.189C416.546 156.995 415.811 157.855 415.386 158.77L411.727 157.463C412.381 155.938 413.252 154.751 414.341 153.902C415.441 153.042 416.639 152.443 417.935 152.105C419.241 151.757 420.527 151.582 421.79 151.582C422.596 151.582 423.521 151.68 424.567 151.876C425.623 152.062 426.641 152.448 427.621 153.036C428.612 153.624 429.435 154.512 430.088 155.699C430.741 156.886 431.068 158.476 431.068 160.469V177H427.213V173.602H427.017C426.756 174.147 426.32 174.729 425.71 175.35C425.1 175.971 424.289 176.499 423.276 176.935C422.263 177.37 421.027 177.588 419.568 177.588ZM420.156 174.125C421.681 174.125 422.966 173.826 424.011 173.227C425.068 172.628 425.863 171.854 426.396 170.907C426.941 169.96 427.213 168.963 427.213 167.918V164.389C427.05 164.585 426.69 164.765 426.135 164.928C425.59 165.081 424.959 165.217 424.24 165.337C423.532 165.446 422.841 165.544 422.165 165.631C421.501 165.707 420.962 165.772 420.548 165.827C419.546 165.957 418.61 166.17 417.739 166.464C416.878 166.747 416.181 167.177 415.648 167.754C415.125 168.321 414.864 169.094 414.864 170.074C414.864 171.413 415.359 172.426 416.35 173.112C417.352 173.787 418.621 174.125 420.156 174.125ZM449.017 151.909V155.176H436.014V151.909H449.017ZM439.803 145.898H443.659V169.812C443.659 170.902 443.816 171.718 444.132 172.263C444.459 172.796 444.873 173.156 445.374 173.341C445.886 173.515 446.425 173.602 446.991 173.602C447.416 173.602 447.764 173.58 448.036 173.537C448.309 173.482 448.526 173.439 448.69 173.406L449.474 176.869C449.213 176.967 448.848 177.065 448.379 177.163C447.911 177.272 447.318 177.327 446.599 177.327C445.51 177.327 444.443 177.093 443.397 176.624C442.363 176.156 441.502 175.443 440.816 174.484C440.141 173.526 439.803 172.317 439.803 170.858V145.898ZM454.816 177V151.909H458.671V177H454.816ZM456.776 147.727C456.024 147.727 455.376 147.471 454.832 146.96C454.298 146.448 454.031 145.832 454.031 145.114C454.031 144.395 454.298 143.78 454.832 143.268C455.376 142.756 456.024 142.5 456.776 142.5C457.527 142.5 458.17 142.756 458.703 143.268C459.248 143.78 459.52 144.395 459.52 145.114C459.52 145.832 459.248 146.448 458.703 146.96C458.17 147.471 457.527 147.727 456.776 147.727ZM475.925 177.523C473.66 177.523 471.672 176.984 469.962 175.906C468.263 174.827 466.935 173.319 465.977 171.381C465.029 169.442 464.555 167.177 464.555 164.585C464.555 161.972 465.029 159.69 465.977 157.741C466.935 155.791 468.263 154.278 469.962 153.2C471.672 152.121 473.66 151.582 475.925 151.582C478.19 151.582 480.172 152.121 481.871 153.2C483.58 154.278 484.909 155.791 485.857 157.741C486.815 159.69 487.294 161.972 487.294 164.585C487.294 167.177 486.815 169.442 485.857 171.381C484.909 173.319 483.58 174.827 481.871 175.906C480.172 176.984 478.19 177.523 475.925 177.523ZM475.925 174.06C477.645 174.06 479.061 173.619 480.172 172.737C481.283 171.854 482.105 170.695 482.638 169.257C483.172 167.82 483.439 166.262 483.439 164.585C483.439 162.908 483.172 161.345 482.638 159.897C482.105 158.449 481.283 157.278 480.172 156.385C479.061 155.492 477.645 155.045 475.925 155.045C474.204 155.045 472.788 155.492 471.678 156.385C470.567 157.278 469.745 158.449 469.211 159.897C468.677 161.345 468.411 162.908 468.411 164.585C468.411 166.262 468.677 167.82 469.211 169.257C469.745 170.695 470.567 171.854 471.678 172.737C472.788 173.619 474.204 174.06 475.925 174.06ZM497.034 161.906V177H493.179V151.909H496.903V155.83H497.23C497.818 154.555 498.711 153.532 499.909 152.759C501.107 151.974 502.653 151.582 504.548 151.582C506.247 151.582 507.733 151.931 509.008 152.628C510.282 153.314 511.273 154.359 511.981 155.764C512.689 157.158 513.042 158.922 513.042 161.057V177H509.187V161.318C509.187 159.347 508.675 157.812 507.652 156.712C506.628 155.601 505.223 155.045 503.437 155.045C502.207 155.045 501.107 155.312 500.138 155.846C499.179 156.379 498.422 157.158 497.867 158.182C497.312 159.205 497.034 160.447 497.034 161.906ZM530.607 177.523C528.189 177.523 526.104 176.989 524.35 175.922C522.608 174.844 521.263 173.341 520.316 171.413C519.379 169.475 518.911 167.221 518.911 164.651C518.911 162.08 519.379 159.815 520.316 157.855C521.263 155.884 522.581 154.348 524.269 153.249C525.968 152.138 527.95 151.582 530.215 151.582C531.522 151.582 532.812 151.8 534.086 152.236C535.36 152.671 536.52 153.379 537.566 154.359C538.611 155.329 539.444 156.614 540.065 158.214C540.686 159.815 540.996 161.786 540.996 164.128V165.761H521.655V162.429H537.076C537.076 161.013 536.792 159.75 536.226 158.639C535.671 157.528 534.876 156.652 533.841 156.009C532.818 155.367 531.609 155.045 530.215 155.045C528.679 155.045 527.351 155.427 526.229 156.189C525.118 156.94 524.263 157.92 523.664 159.129C523.065 160.338 522.766 161.634 522.766 163.017V165.239C522.766 167.134 523.093 168.74 523.746 170.058C524.41 171.364 525.331 172.361 526.507 173.047C527.683 173.722 529.05 174.06 530.607 174.06C531.62 174.06 532.534 173.918 533.351 173.635C534.179 173.341 534.892 172.905 535.491 172.328C536.09 171.74 536.553 171.01 536.88 170.139L540.604 171.185C540.212 172.448 539.553 173.559 538.627 174.517C537.702 175.464 536.558 176.205 535.197 176.739C533.836 177.261 532.306 177.523 530.607 177.523ZM550.716 161.906V177H546.86V151.909H550.585V155.83H550.912C551.5 154.555 552.393 153.532 553.591 152.759C554.788 151.974 556.335 151.582 558.23 151.582C559.929 151.582 561.415 151.931 562.689 152.628C563.963 153.314 564.954 154.359 565.662 155.764C566.37 157.158 566.724 158.922 566.724 161.057V177H562.869V161.318C562.869 159.347 562.357 157.812 561.333 156.712C560.31 155.601 558.905 155.045 557.119 155.045C555.888 155.045 554.788 155.312 553.819 155.846C552.861 156.379 552.104 157.158 551.549 158.182C550.993 159.205 550.716 160.447 550.716 161.906ZM602.519 166.741V151.909H606.374V177H602.519V172.753H602.257C601.669 174.027 600.754 175.111 599.513 176.004C598.271 176.886 596.703 177.327 594.808 177.327C593.24 177.327 591.846 176.984 590.627 176.298C589.407 175.601 588.449 174.555 587.752 173.161C587.055 171.756 586.706 169.987 586.706 167.852V151.909H590.561V167.591C590.561 169.42 591.073 170.88 592.097 171.969C593.131 173.058 594.449 173.602 596.05 173.602C597.008 173.602 597.983 173.357 598.974 172.867C599.976 172.377 600.814 171.626 601.49 170.613C602.176 169.6 602.519 168.31 602.519 166.741ZM591.868 147.727C591.182 147.727 590.572 147.466 590.039 146.943C589.516 146.41 589.254 145.8 589.254 145.114C589.254 144.362 589.516 143.741 590.039 143.251C590.572 142.75 591.182 142.5 591.868 142.5C592.619 142.5 593.24 142.75 593.73 143.251C594.231 143.741 594.482 144.362 594.482 145.114C594.482 145.8 594.231 146.41 593.73 146.943C593.24 147.466 592.619 147.727 591.868 147.727ZM601.277 147.727C600.591 147.727 599.981 147.466 599.448 146.943C598.925 146.41 598.664 145.8 598.664 145.114C598.664 144.362 598.925 143.741 599.448 143.251C599.981 142.75 600.591 142.5 601.277 142.5C602.029 142.5 602.649 142.75 603.139 143.251C603.64 143.741 603.891 144.362 603.891 145.114C603.891 145.8 603.64 146.41 603.139 146.943C602.649 147.466 602.029 147.727 601.277 147.727ZM613.957 177V143.545H617.812V155.895H618.139C618.422 155.459 618.814 154.904 619.315 154.229C619.827 153.543 620.557 152.933 621.504 152.399C622.463 151.855 623.759 151.582 625.392 151.582C627.505 151.582 629.367 152.111 630.979 153.167C632.59 154.223 633.848 155.721 634.752 157.659C635.656 159.598 636.108 161.884 636.108 164.52C636.108 167.177 635.656 169.48 634.752 171.43C633.848 173.368 632.596 174.871 630.995 175.938C629.394 176.995 627.548 177.523 625.457 177.523C623.846 177.523 622.555 177.256 621.586 176.722C620.617 176.178 619.871 175.562 619.348 174.876C618.825 174.179 618.422 173.602 618.139 173.145H617.682V177H613.957ZM617.747 164.455C617.747 166.349 618.025 168.021 618.58 169.469C619.136 170.907 619.947 172.034 621.014 172.851C622.081 173.657 623.388 174.06 624.935 174.06C626.546 174.06 627.891 173.635 628.969 172.786C630.058 171.925 630.875 170.771 631.42 169.322C631.975 167.863 632.253 166.241 632.253 164.455C632.253 162.69 631.981 161.1 631.436 159.685C630.902 158.258 630.091 157.131 629.002 156.303C627.924 155.465 626.568 155.045 624.935 155.045C623.366 155.045 622.049 155.443 620.982 156.238C619.914 157.022 619.108 158.122 618.564 159.538C618.019 160.942 617.747 162.581 617.747 164.455ZM652.525 177.523C650.107 177.523 648.022 176.989 646.268 175.922C644.526 174.844 643.181 173.341 642.234 171.413C641.297 169.475 640.829 167.221 640.829 164.651C640.829 162.08 641.297 159.815 642.234 157.855C643.181 155.884 644.499 154.348 646.187 153.249C647.886 152.138 649.868 151.582 652.133 151.582C653.44 151.582 654.73 151.8 656.004 152.236C657.278 152.671 658.438 153.379 659.484 154.359C660.529 155.329 661.362 156.614 661.983 158.214C662.604 159.815 662.914 161.786 662.914 164.128V165.761H643.573V162.429H658.994C658.994 161.013 658.71 159.75 658.144 158.639C657.589 157.528 656.794 156.652 655.759 156.009C654.736 155.367 653.527 155.045 652.133 155.045C650.597 155.045 649.269 155.427 648.147 156.189C647.036 156.94 646.181 157.92 645.582 159.129C644.983 160.338 644.684 161.634 644.684 163.017V165.239C644.684 167.134 645.011 168.74 645.664 170.058C646.328 171.364 647.249 172.361 648.425 173.047C649.601 173.722 650.968 174.06 652.525 174.06C653.538 174.06 654.452 173.918 655.269 173.635C656.097 173.341 656.81 172.905 657.409 172.328C658.008 171.74 658.471 171.01 658.798 170.139L662.522 171.185C662.13 172.448 661.471 173.559 660.545 174.517C659.62 175.464 658.476 176.205 657.115 176.739C655.754 177.261 654.224 177.523 652.525 177.523ZM668.778 177V151.909H672.503V155.699H672.764C673.222 154.457 674.049 153.45 675.247 152.677C676.445 151.904 677.795 151.517 679.298 151.517C679.581 151.517 679.935 151.522 680.36 151.533C680.785 151.544 681.106 151.561 681.324 151.582V155.503C681.193 155.47 680.894 155.421 680.425 155.356C679.968 155.28 679.483 155.241 678.972 155.241C677.752 155.241 676.663 155.497 675.705 156.009C674.757 156.51 674.006 157.207 673.45 158.1C672.906 158.982 672.634 159.99 672.634 161.122V177H668.778ZM708.306 177.523C706.215 177.523 704.369 176.995 702.768 175.938C701.167 174.871 699.915 173.368 699.011 171.43C698.107 169.48 697.655 167.177 697.655 164.52C697.655 161.884 698.107 159.598 699.011 157.659C699.915 155.721 701.173 154.223 702.784 153.167C704.396 152.111 706.258 151.582 708.371 151.582C710.004 151.582 711.295 151.855 712.242 152.399C713.201 152.933 713.93 153.543 714.431 154.229C714.943 154.904 715.341 155.459 715.624 155.895H715.95V143.545H719.806V177H716.081V173.145H715.624C715.341 173.602 714.938 174.179 714.415 174.876C713.892 175.562 713.146 176.178 712.177 176.722C711.208 177.256 709.917 177.523 708.306 177.523ZM708.828 174.06C710.375 174.06 711.682 173.657 712.749 172.851C713.816 172.034 714.627 170.907 715.183 169.469C715.738 168.021 716.016 166.349 716.016 164.455C716.016 162.581 715.744 160.942 715.199 159.538C714.655 158.122 713.849 157.022 712.781 156.238C711.714 155.443 710.396 155.045 708.828 155.045C707.195 155.045 705.834 155.465 704.744 156.303C703.666 157.131 702.855 158.258 702.311 159.685C701.777 161.1 701.51 162.69 701.51 164.455C701.51 166.241 701.782 167.863 702.327 169.322C702.882 170.771 703.699 171.925 704.777 172.786C705.866 173.635 707.217 174.06 708.828 174.06ZM727.401 177V151.909H731.257V177H727.401ZM729.362 147.727C728.61 147.727 727.962 147.471 727.418 146.96C726.884 146.448 726.617 145.832 726.617 145.114C726.617 144.395 726.884 143.78 727.418 143.268C727.962 142.756 728.61 142.5 729.362 142.5C730.113 142.5 730.756 142.756 731.289 143.268C731.834 143.78 732.106 144.395 732.106 145.114C732.106 145.832 731.834 146.448 731.289 146.96C730.756 147.471 730.113 147.727 729.362 147.727ZM748.837 177.523C746.42 177.523 744.334 176.989 742.581 175.922C740.839 174.844 739.494 173.341 738.546 171.413C737.61 169.475 737.141 167.221 737.141 164.651C737.141 162.08 737.61 159.815 738.546 157.855C739.494 155.884 740.811 154.348 742.499 153.249C744.198 152.138 746.18 151.582 748.445 151.582C749.752 151.582 751.043 151.8 752.317 152.236C753.591 152.671 754.751 153.379 755.796 154.359C756.842 155.329 757.675 156.614 758.295 158.214C758.916 159.815 759.227 161.786 759.227 164.128V165.761H739.886V162.429H755.306C755.306 161.013 755.023 159.75 754.457 158.639C753.901 157.528 753.106 156.652 752.072 156.009C751.048 155.367 749.839 155.045 748.445 155.045C746.91 155.045 745.581 155.427 744.46 156.189C743.349 156.94 742.494 157.92 741.895 159.129C741.296 160.338 740.996 161.634 740.996 163.017V165.239C740.996 167.134 741.323 168.74 741.977 170.058C742.641 171.364 743.561 172.361 744.737 173.047C745.913 173.722 747.28 174.06 748.837 174.06C749.85 174.06 750.765 173.918 751.582 173.635C752.409 173.341 753.123 172.905 753.722 172.328C754.321 171.74 754.783 171.01 755.11 170.139L758.835 171.185C758.442 172.448 757.784 173.559 756.858 174.517C755.932 175.464 754.789 176.205 753.428 176.739C752.066 177.261 750.536 177.523 748.837 177.523ZM101.423 233H97.1761L109.46 199.545H113.642L125.926 233H121.679L111.682 204.838H111.42L101.423 233ZM102.991 219.932H120.111V223.526H102.991V219.932ZM134.469 217.906V233H130.614V207.909H134.339V211.83H134.665C135.254 210.555 136.147 209.532 137.344 208.759C138.542 207.974 140.089 207.582 141.984 207.582C143.683 207.582 145.169 207.931 146.443 208.628C147.717 209.314 148.708 210.359 149.416 211.764C150.124 213.158 150.478 214.922 150.478 217.057V233H146.623V217.318C146.623 215.347 146.111 213.812 145.087 212.712C144.064 211.601 142.659 211.045 140.873 211.045C139.642 211.045 138.542 211.312 137.573 211.846C136.615 212.379 135.858 213.158 135.303 214.182C134.747 215.205 134.469 216.447 134.469 217.906ZM167.65 242.932C165.788 242.932 164.187 242.692 162.848 242.213C161.508 241.745 160.392 241.124 159.499 240.351C158.617 239.589 157.915 238.772 157.392 237.901L160.463 235.744C160.811 236.202 161.252 236.724 161.786 237.312C162.32 237.911 163.049 238.429 163.975 238.864C164.912 239.311 166.137 239.534 167.65 239.534C169.676 239.534 171.348 239.044 172.665 238.064C173.983 237.084 174.642 235.548 174.642 233.457V228.361H174.315C174.032 228.818 173.629 229.384 173.106 230.06C172.595 230.724 171.854 231.317 170.885 231.84C169.926 232.352 168.631 232.608 166.997 232.608C164.971 232.608 163.153 232.129 161.541 231.17C159.94 230.212 158.671 228.818 157.735 226.989C156.809 225.159 156.346 222.937 156.346 220.324C156.346 217.754 156.798 215.516 157.702 213.61C158.606 211.693 159.864 210.212 161.476 209.167C163.087 208.111 164.95 207.582 167.062 207.582C168.696 207.582 169.992 207.855 170.95 208.399C171.919 208.933 172.66 209.543 173.172 210.229C173.694 210.904 174.097 211.459 174.381 211.895H174.773V207.909H178.497V233.719C178.497 235.875 178.007 237.628 177.027 238.979C176.058 240.34 174.751 241.336 173.106 241.968C171.473 242.611 169.654 242.932 167.65 242.932ZM167.52 229.145C169.066 229.145 170.373 228.791 171.44 228.083C172.507 227.375 173.319 226.357 173.874 225.028C174.43 223.7 174.707 222.11 174.707 220.259C174.707 218.451 174.435 216.855 173.89 215.472C173.346 214.089 172.54 213.006 171.473 212.222C170.406 211.437 169.088 211.045 167.52 211.045C165.886 211.045 164.525 211.459 163.436 212.287C162.358 213.115 161.546 214.225 161.002 215.619C160.468 217.013 160.202 218.56 160.202 220.259C160.202 222.001 160.474 223.542 161.018 224.881C161.574 226.21 162.39 227.255 163.469 228.018C164.558 228.769 165.908 229.145 167.52 229.145ZM185.554 233V207.909H189.278V211.699H189.54C189.997 210.457 190.825 209.45 192.023 208.677C193.22 207.904 194.571 207.517 196.074 207.517C196.357 207.517 196.711 207.522 197.135 207.533C197.56 207.544 197.881 207.561 198.099 207.582V211.503C197.969 211.47 197.669 211.421 197.201 211.356C196.743 211.28 196.259 211.241 195.747 211.241C194.527 211.241 193.438 211.497 192.48 212.009C191.532 212.51 190.781 213.207 190.226 214.1C189.681 214.982 189.409 215.99 189.409 217.122V233H185.554ZM202.669 233V207.909H206.524V233H202.669ZM204.629 203.727C203.878 203.727 203.23 203.471 202.685 202.96C202.152 202.448 201.885 201.832 201.885 201.114C201.885 200.395 202.152 199.78 202.685 199.268C203.23 198.756 203.878 198.5 204.629 198.5C205.381 198.5 206.023 198.756 206.557 199.268C207.101 199.78 207.374 200.395 207.374 201.114C207.374 201.832 207.101 202.448 206.557 202.96C206.023 203.471 205.381 203.727 204.629 203.727ZM224.758 207.909V211.176H211.233V207.909H224.758ZM215.284 233V204.446C215.284 203.009 215.622 201.811 216.297 200.852C216.972 199.894 217.849 199.175 218.927 198.696C220.005 198.217 221.143 197.977 222.341 197.977C223.288 197.977 224.061 198.054 224.66 198.206C225.259 198.358 225.706 198.5 226 198.631L224.889 201.963C224.693 201.898 224.421 201.816 224.072 201.718C223.735 201.62 223.288 201.571 222.733 201.571C221.459 201.571 220.538 201.892 219.972 202.535C219.417 203.177 219.139 204.119 219.139 205.361V233H215.284ZM241.335 207.909V211.176H227.809V207.909H241.335ZM231.86 233V204.446C231.86 203.009 232.198 201.811 232.873 200.852C233.548 199.894 234.425 199.175 235.503 198.696C236.581 198.217 237.719 197.977 238.917 197.977C239.864 197.977 240.638 198.054 241.237 198.206C241.835 198.358 242.282 198.5 242.576 198.631L241.465 201.963C241.269 201.898 240.997 201.816 240.648 201.718C240.311 201.62 239.864 201.571 239.309 201.571C238.035 201.571 237.115 201.892 236.548 202.535C235.993 203.177 235.715 204.119 235.715 205.361V233H231.86ZM256.224 233.523C253.806 233.523 251.721 232.989 249.968 231.922C248.225 230.844 246.88 229.341 245.933 227.413C244.996 225.475 244.528 223.221 244.528 220.651C244.528 218.08 244.996 215.815 245.933 213.855C246.88 211.884 248.198 210.348 249.886 209.249C251.585 208.138 253.567 207.582 255.832 207.582C257.139 207.582 258.429 207.8 259.703 208.236C260.978 208.671 262.137 209.379 263.183 210.359C264.228 211.329 265.061 212.614 265.682 214.214C266.303 215.815 266.613 217.786 266.613 220.128V221.761H247.272V218.429H262.693C262.693 217.013 262.41 215.75 261.843 214.639C261.288 213.528 260.493 212.652 259.458 212.009C258.435 211.367 257.226 211.045 255.832 211.045C254.297 211.045 252.968 211.427 251.846 212.189C250.735 212.94 249.881 213.92 249.282 215.129C248.683 216.338 248.383 217.634 248.383 219.017V221.239C248.383 223.134 248.71 224.74 249.363 226.058C250.028 227.364 250.948 228.361 252.124 229.047C253.3 229.722 254.667 230.06 256.224 230.06C257.237 230.06 258.152 229.918 258.968 229.635C259.796 229.341 260.509 228.905 261.108 228.328C261.707 227.74 262.17 227.01 262.497 226.139L266.221 227.185C265.829 228.448 265.17 229.559 264.245 230.517C263.319 231.464 262.176 232.205 260.814 232.739C259.453 233.261 257.923 233.523 256.224 233.523ZM284.696 233V230.06L298.941 211.764V211.503H285.154V207.909H303.907V210.98L290.054 229.145V229.406H304.364V233H284.696ZM326.114 222.741V207.909H329.969V233H326.114V228.753H325.853C325.265 230.027 324.35 231.111 323.109 232.004C321.867 232.886 320.299 233.327 318.404 233.327C316.836 233.327 315.442 232.984 314.222 232.298C313.003 231.601 312.044 230.555 311.347 229.161C310.65 227.756 310.302 225.987 310.302 223.852V207.909H314.157V223.591C314.157 225.42 314.669 226.88 315.692 227.969C316.727 229.058 318.045 229.602 319.646 229.602C320.604 229.602 321.579 229.357 322.57 228.867C323.571 228.377 324.41 227.626 325.085 226.613C325.771 225.6 326.114 224.31 326.114 222.741ZM360.488 233.523C358.07 233.523 355.985 232.989 354.231 231.922C352.489 230.844 351.144 229.341 350.197 227.413C349.26 225.475 348.792 223.221 348.792 220.651C348.792 218.08 349.26 215.815 350.197 213.855C351.144 211.884 352.462 210.348 354.15 209.249C355.849 208.138 357.831 207.582 360.096 207.582C361.403 207.582 362.693 207.8 363.967 208.236C365.241 208.671 366.401 209.379 367.447 210.359C368.492 211.329 369.325 212.614 369.946 214.214C370.567 215.815 370.877 217.786 370.877 220.128V221.761H351.536V218.429H366.956C366.956 217.013 366.673 215.75 366.107 214.639C365.552 213.528 364.757 212.652 363.722 212.009C362.698 211.367 361.49 211.045 360.096 211.045C358.56 211.045 357.232 211.427 356.11 212.189C354.999 212.94 354.144 213.92 353.545 215.129C352.946 216.338 352.647 217.634 352.647 219.017V221.239C352.647 223.134 352.974 224.74 353.627 226.058C354.291 227.364 355.211 228.361 356.388 229.047C357.564 229.722 358.93 230.06 360.488 230.06C361.501 230.06 362.415 229.918 363.232 229.635C364.06 229.341 364.773 228.905 365.372 228.328C365.971 227.74 366.434 227.01 366.76 226.139L370.485 227.185C370.093 228.448 369.434 229.559 368.508 230.517C367.583 231.464 366.439 232.205 365.078 232.739C363.717 233.261 362.187 233.523 360.488 233.523ZM376.741 233V207.909H380.466V211.699H380.727C381.184 210.457 382.012 209.45 383.21 208.677C384.408 207.904 385.758 207.517 387.261 207.517C387.544 207.517 387.898 207.522 388.323 207.533C388.748 207.544 389.069 207.561 389.287 207.582V211.503C389.156 211.47 388.857 211.421 388.388 211.356C387.931 211.28 387.446 211.241 386.934 211.241C385.715 211.241 384.626 211.497 383.667 212.009C382.72 212.51 381.969 213.207 381.413 214.1C380.869 214.982 380.596 215.99 380.596 217.122V233H376.741ZM397.712 217.906V233H393.857V199.545H397.712V211.83H398.038C398.626 210.534 399.509 209.504 400.685 208.742C401.872 207.969 403.451 207.582 405.422 207.582C407.132 207.582 408.629 207.925 409.914 208.612C411.199 209.287 412.196 210.327 412.903 211.732C413.622 213.125 413.982 214.901 413.982 217.057V233H410.126V217.318C410.126 215.325 409.609 213.784 408.575 212.695C407.551 211.595 406.13 211.045 404.311 211.045C403.048 211.045 401.915 211.312 400.913 211.846C399.922 212.379 399.138 213.158 398.561 214.182C397.995 215.205 397.712 216.447 397.712 217.906ZM428.418 233.588C426.828 233.588 425.385 233.289 424.089 232.69C422.793 232.08 421.764 231.203 421.002 230.06C420.239 228.905 419.858 227.511 419.858 225.878C419.858 224.44 420.141 223.275 420.708 222.382C421.274 221.478 422.031 220.77 422.978 220.259C423.926 219.747 424.971 219.366 426.115 219.115C427.269 218.854 428.429 218.647 429.594 218.494C431.119 218.298 432.355 218.151 433.302 218.053C434.26 217.944 434.957 217.765 435.393 217.514C435.839 217.264 436.063 216.828 436.063 216.207V216.077C436.063 214.465 435.622 213.213 434.74 212.32C433.868 211.427 432.545 210.98 430.77 210.98C428.93 210.98 427.487 211.383 426.441 212.189C425.396 212.995 424.661 213.855 424.236 214.77L420.577 213.463C421.23 211.938 422.102 210.751 423.191 209.902C424.29 209.042 425.488 208.443 426.784 208.105C428.091 207.757 429.376 207.582 430.639 207.582C431.445 207.582 432.371 207.68 433.416 207.876C434.473 208.062 435.491 208.448 436.471 209.036C437.462 209.624 438.284 210.512 438.938 211.699C439.591 212.886 439.918 214.476 439.918 216.469V233H436.063V229.602H435.867C435.605 230.147 435.17 230.729 434.56 231.35C433.95 231.971 433.139 232.499 432.126 232.935C431.113 233.37 429.877 233.588 428.418 233.588ZM429.006 230.125C430.53 230.125 431.816 229.826 432.861 229.227C433.917 228.628 434.712 227.854 435.246 226.907C435.79 225.96 436.063 224.963 436.063 223.918V220.389C435.899 220.585 435.54 220.765 434.985 220.928C434.44 221.081 433.808 221.217 433.09 221.337C432.382 221.446 431.69 221.544 431.015 221.631C430.351 221.707 429.812 221.772 429.398 221.827C428.396 221.957 427.459 222.17 426.588 222.464C425.728 222.747 425.031 223.177 424.497 223.754C423.975 224.321 423.713 225.094 423.713 226.074C423.713 227.413 424.209 228.426 425.2 229.112C426.202 229.787 427.47 230.125 429.006 230.125ZM450.809 199.545V233H446.954V199.545H450.809ZM468.782 207.909V211.176H455.779V207.909H468.782ZM459.569 201.898H463.424V225.812C463.424 226.902 463.582 227.718 463.898 228.263C464.225 228.796 464.638 229.156 465.139 229.341C465.651 229.515 466.19 229.602 466.757 229.602C467.181 229.602 467.53 229.58 467.802 229.537C468.074 229.482 468.292 229.439 468.455 229.406L469.24 232.869C468.978 232.967 468.613 233.065 468.145 233.163C467.677 233.272 467.083 233.327 466.365 233.327C465.276 233.327 464.208 233.093 463.163 232.624C462.128 232.156 461.268 231.443 460.582 230.484C459.907 229.526 459.569 228.317 459.569 226.858V201.898ZM484.831 233.523C482.414 233.523 480.328 232.989 478.575 231.922C476.833 230.844 475.488 229.341 474.54 227.413C473.604 225.475 473.135 223.221 473.135 220.651C473.135 218.08 473.604 215.815 474.54 213.855C475.488 211.884 476.805 210.348 478.493 209.249C480.192 208.138 482.174 207.582 484.439 207.582C485.746 207.582 487.037 207.8 488.311 208.236C489.585 208.671 490.745 209.379 491.79 210.359C492.836 211.329 493.669 212.614 494.29 214.214C494.91 215.815 495.221 217.786 495.221 220.128V221.761H475.88V218.429H491.3C491.3 217.013 491.017 215.75 490.451 214.639C489.895 213.528 489.1 212.652 488.066 212.009C487.042 211.367 485.833 211.045 484.439 211.045C482.904 211.045 481.575 211.427 480.454 212.189C479.343 212.94 478.488 213.92 477.889 215.129C477.29 216.338 476.991 217.634 476.991 219.017V221.239C476.991 223.134 477.317 224.74 477.971 226.058C478.635 227.364 479.555 228.361 480.731 229.047C481.907 229.722 483.274 230.06 484.831 230.06C485.844 230.06 486.759 229.918 487.576 229.635C488.403 229.341 489.117 228.905 489.716 228.328C490.315 227.74 490.778 227.01 491.104 226.139L494.829 227.185C494.437 228.448 493.778 229.559 492.852 230.517C491.926 231.464 490.783 232.205 489.422 232.739C488.06 233.261 486.53 233.523 484.831 233.523ZM504.94 217.906V233H501.085V207.909H504.809V211.83H505.136C505.724 210.555 506.617 209.532 507.815 208.759C509.013 207.974 510.559 207.582 512.454 207.582C514.153 207.582 515.64 207.931 516.914 208.628C518.188 209.314 519.179 210.359 519.887 211.764C520.595 213.158 520.949 214.922 520.949 217.057V233H517.094V217.318C517.094 215.347 516.582 213.812 515.558 212.712C514.534 211.601 513.13 211.045 511.344 211.045C510.113 211.045 509.013 211.312 508.044 211.846C507.086 212.379 506.329 213.158 505.773 214.182C505.218 215.205 504.94 216.447 504.94 217.906ZM530.803 233.261C529.997 233.261 529.306 232.973 528.728 232.396C528.151 231.818 527.863 231.127 527.863 230.321C527.863 229.515 528.151 228.824 528.728 228.246C529.306 227.669 529.997 227.381 530.803 227.381C531.609 227.381 532.3 227.669 532.877 228.246C533.455 228.824 533.743 229.515 533.743 230.321C533.743 230.855 533.607 231.345 533.335 231.791C533.074 232.238 532.72 232.597 532.273 232.869C531.837 233.131 531.347 233.261 530.803 233.261Z" fill="black"/>
<path d="M866.886 745.425C862.854 746.265 858.03 748.113 857.556 752.483C857.002 757.357 862.617 760.214 867.124 761.223C884.126 765.172 901.682 765.676 919.158 766.181C1011.52 768.533 1103.89 768.954 1196.25 767.357C1194.91 755.341 1181.46 750.13 1170.31 747.861C1122.39 738.114 1072.81 743.66 1025.76 733.324C976.173 722.316 915.836 734.753 866.886 745.425Z" fill="url(#paint0_linear_807_2584)"/>
<path d="M866.886 745.425C862.854 746.265 858.03 748.113 857.556 752.483C857.002 757.357 862.617 760.214 867.124 761.223C884.126 765.172 901.682 765.676 919.158 766.181C1011.52 768.533 1103.89 768.954 1196.25 767.357C1194.91 755.341 1181.46 750.13 1170.31 747.861C1122.39 738.114 1072.81 743.66 1025.76 733.324C976.173 722.316 915.836 734.753 866.886 745.425Z" fill="url(#paint1_linear_807_2584)"/>
<path d="M1118.43 666.264C1119.46 665.928 1120.56 666.264 1121.59 666.601C1126.1 668.197 1130.53 670.298 1134.48 673.071C1136.46 674.416 1138.44 675.928 1139.39 678.197C1140.26 680.298 1140.18 682.651 1140.02 684.836C1138.59 711.894 1137.25 739.036 1135.83 766.095C1135.75 767.859 1135.51 769.793 1134.25 770.885C1132.66 772.145 1130.45 771.305 1128.71 770.465C1111.71 762.565 1094.79 754.582 1077.78 746.683C1069.64 742.902 1061.26 738.868 1055.25 731.893C1059.83 721.137 1069.48 713.995 1078.34 706.768C1092.1 695.507 1104.75 682.567 1115.9 668.449C1116.53 667.609 1117.32 666.6 1118.43 666.264Z" fill="#DDC199"/>
<path d="M1198.54 526.855C1194.35 525.847 1190.07 524.838 1185.88 523.83C1161.21 571.98 1139.39 621.812 1120.56 672.904C1124.91 675.845 1130.69 678.87 1134.88 675.677C1136.62 674.332 1137.65 672.147 1138.59 670.047C1159.95 622.988 1179.95 575.258 1198.54 526.855Z" fill="#BDB39B"/>
<g opacity="0.26">
<path opacity="0.26" d="M1120.79 761.137C1120.71 762.062 1122.06 762.398 1122.21 761.474C1125.61 734.163 1130.44 707.357 1136.68 680.634C1137.08 678.954 1134.63 678.449 1134.23 680.13C1127.75 706.6 1123.24 733.827 1120.79 761.137Z" fill="#272525"/>
<path opacity="0.26" d="M1094 749.121C1104.43 725.76 1115.5 702.735 1127.21 680.046C1127.92 678.701 1125.86 677.609 1125.15 678.954C1112.97 701.811 1101.98 725.34 1091.94 749.289C1092.1 749.457 1092.18 749.625 1092.26 749.793C1092.81 749.373 1093.36 749.205 1094 749.121Z" fill="#272525"/>
<path opacity="0.26" d="M1076.98 733.743C1094.46 716.264 1110.04 696.853 1123.64 675.844C1124.51 674.416 1122.29 673.239 1121.42 674.668C1108.06 695.592 1092.72 714.92 1075.56 732.398C1074.69 733.322 1076.11 734.667 1076.98 733.743Z" fill="#272525"/>
</g>
<path d="M955.764 690.213C955.844 688.953 956.002 687.608 956.08 686.347C945.642 678.784 927.296 681.221 916.225 685.087C904.363 689.204 904.363 696.935 904.521 710.044C904.6 717.439 905.233 725.759 910.61 730.548C914.722 734.246 920.495 734.75 925.873 735.086C930.696 735.422 935.441 735.674 940.265 736.01C943.586 736.178 947.303 736.263 949.912 733.993C952.522 731.641 952.917 727.691 953.234 724.077C954.103 712.733 954.974 701.473 955.764 690.213Z" fill="#2F3F47"/>
<path d="M968.506 690.213C968.427 688.953 968.269 687.608 968.189 686.347C978.628 678.784 996.974 681.221 1008.05 685.087C1019.91 689.204 1019.91 696.935 1019.75 710.044C1019.67 717.439 1019.04 725.759 1013.66 730.548C1009.55 734.246 1003.77 734.75 998.397 735.086C993.574 735.422 988.829 735.674 984.005 736.01C980.684 736.178 976.967 736.263 974.358 733.993C971.748 731.641 971.353 727.691 971.037 724.077C970.246 712.733 969.376 701.473 968.506 690.213Z" fill="#2F3F47"/>
<path d="M879.447 662.148C876.837 662.735 874.307 663.576 871.855 664.668C870.036 665.424 868.218 666.433 866.952 667.945C865.213 670.13 864.738 673.156 864.422 676.097C864.027 679.963 863.868 683.828 863.948 687.693C863.948 690.97 864.185 694.332 865.767 697.105C867.981 700.971 872.33 702.735 876.442 703.827C884.271 705.929 892.416 706.432 900.482 706.853C949.273 709.374 998.223 707.692 1046.78 701.895C1048.75 701.643 1050.97 701.307 1052.31 699.71C1053.1 698.786 1053.5 697.525 1053.89 696.348C1056.42 687.777 1058.09 676.097 1052.63 668.114C1047.96 661.307 1039.34 665.172 1032.86 665.088C1026.22 665.004 1019.49 664.416 1012.85 664.164C999.883 663.576 986.915 662.987 973.946 662.567C955.679 661.895 937.333 661.307 919.065 660.803C906.729 660.551 892.179 659.122 879.447 662.148Z" fill="#516770"/>
<path d="M984.309 477.695C1017.44 477.863 1050.5 478.62 1083.63 479.376C1082.84 460.637 1081.58 441.897 1077.78 423.578C1071.22 391.478 1056.19 360.134 1030.81 341.395C991.901 312.656 930.141 316.437 888.229 344.84C870.594 356.772 856.44 373.159 849.006 393.242C840.466 416.183 838.172 441.225 836.828 465.847C836.669 469.124 836.511 472.317 836.354 475.594C885.54 473.577 935.043 477.527 984.309 477.695Z" fill="#EAF1F2"/>
<path d="M981.657 487.108C933.103 487.024 884.39 483.327 835.836 485.175C833.464 541.141 835.678 597.359 842.479 652.989C843.428 660.636 844.614 668.618 849.359 674.668C856.713 683.996 869.445 679.878 879.33 679.878C896.015 679.878 913.175 680.635 930.019 681.055C961.809 681.811 993.361 681.895 1024.99 678.114C1040.02 676.35 1070.38 681.223 1077.58 666.853C1083.51 655.173 1081.06 631.476 1081.93 618.451C1082.96 602.989 1083.75 587.611 1084.22 572.149C1085.09 544.334 1084.93 516.519 1083.91 488.62C1049.9 487.948 1015.74 487.108 981.657 487.108Z" fill="#E2ECED"/>
<path d="M1096.33 577.696C1096.96 577.107 1097.04 576.099 1097.12 575.259C1098.78 551.982 1100.2 528.704 1101.23 505.427C1101.31 503.41 1101.31 501.058 1099.81 499.713C1098.7 498.789 1097.28 498.705 1095.85 498.705C1090.95 498.621 1086.13 498.537 1081.22 498.537C1078.14 525.007 1076.88 551.645 1077.51 578.284C1082.96 578.284 1088.34 578.368 1093.8 578.368C1094.67 578.368 1095.62 578.368 1096.33 577.696Z" fill="#2F3F47"/>
<path d="M1121.54 631.31C1122.17 629.378 1122.88 627.361 1124.3 625.932C1125.41 624.84 1126.91 624.167 1128.34 623.663C1134.51 621.31 1140.83 619.546 1147.24 618.369C1152.22 621.983 1156.73 626.269 1160.6 631.226C1161.31 632.151 1162.02 633.159 1162.18 634.336C1162.34 635.26 1162.1 636.184 1161.87 637.109C1159.34 647.445 1156.88 657.781 1154.35 668.117C1150.64 668.621 1146.92 668.705 1143.28 668.201C1144.71 661.898 1146.13 655.596 1147.47 649.377C1148.82 643.411 1149.85 636.1 1145.58 631.899C1141.23 633.075 1136.96 634.336 1132.61 635.512C1131.9 635.68 1131.1 635.932 1130.47 636.436C1129.76 637.109 1129.44 638.117 1129.13 639.041C1127.31 644.924 1125.96 650.974 1125.02 657.109C1122.25 656.268 1119.48 655.511 1116.71 654.671C1116.48 646.688 1119.01 638.874 1121.54 631.31Z" fill="#2F3F47"/>
<path d="M1155.14 622.233C1155.38 621.981 1155.46 621.646 1155.54 621.393C1156.33 617.612 1157.12 613.83 1157.99 610.133C1152.45 608.788 1146.76 607.863 1141.15 607.359C1140.28 610.469 1139.72 613.746 1139.48 617.023C1139.41 617.696 1139.41 618.536 1139.88 619.04C1140.2 619.376 1140.59 619.46 1140.99 619.629C1145.18 620.973 1149.53 621.981 1153.96 622.569C1154.27 622.485 1154.75 622.57 1155.14 622.233Z" fill="#516770"/>
<path d="M1160.69 607.529C1164.01 601.562 1161.32 585.848 1161.32 579.546C1161.24 570.89 1161.24 562.151 1159.34 553.748C1157.44 545.344 1153.57 537.109 1147.16 531.815C1143.53 528.79 1139.26 526.858 1134.83 525.261C1121.62 520.471 1107.47 518.875 1093.63 520.639C1092.52 520.807 1091.34 520.975 1090.54 521.816C1089.67 522.656 1089.52 524 1089.36 525.261C1088.73 530.051 1087.86 535.345 1088.09 540.218C1088.49 548.79 1086.83 546.437 1092.68 548.874C1097.19 550.723 1105.65 549.21 1110.79 550.471C1116.8 551.899 1122.65 554.084 1128.5 556.269C1132.22 557.613 1136.17 559.294 1138.07 562.907C1139.1 564.84 1139.41 567.193 1139.65 569.462C1141.08 582.908 1141.71 596.436 1141.63 609.966C1141.63 612.318 1157.92 611.142 1160.05 608.537C1160.29 608.201 1160.45 607.865 1160.69 607.529Z" fill="#E2ECED"/>
<g opacity="0.15">
<path opacity="0.15" d="M1133 529.129C1132.53 537.196 1130.55 544.507 1127.55 551.902C1126.99 553.33 1128.65 554.423 1129.52 553.162C1134.27 546.104 1136.72 537.7 1137.59 529.129C1137.91 526.104 1133.24 526.019 1133 529.129Z" fill="#272525"/>
<path opacity="0.15" d="M1145.1 534.927C1143.76 542.743 1140.44 547.869 1135.22 553.415C1134.51 554.171 1135.46 555.431 1136.25 554.843C1139.81 552.49 1143.13 550.978 1145.66 547.197C1148.03 543.667 1149.61 539.885 1150.09 535.6C1150.4 532.659 1145.66 531.986 1145.1 534.927Z" fill="#272525"/>
</g>
<path d="M828.074 499.209C827.441 499.797 827.363 500.806 827.283 501.646C825.623 524.923 824.199 548.2 823.171 571.477C823.092 573.494 823.092 575.847 824.595 577.191C825.702 578.116 827.125 578.2 828.548 578.2C833.451 578.284 838.275 578.368 843.178 578.368C846.262 551.898 847.527 525.259 846.895 498.621C841.438 498.621 836.061 498.537 830.605 498.537C829.735 498.537 828.707 498.537 828.074 499.209Z" fill="#2F3F47"/>
<path d="M766.779 470.555C767.016 472.572 767.253 474.756 766.541 476.605C765.988 478.117 764.96 479.378 763.853 480.555C759.345 485.512 754.443 490.135 749.144 494.252C743.134 493.412 737.283 491.647 731.826 489.042C730.798 488.538 729.691 488.034 729.058 487.025C728.584 486.269 728.347 485.344 728.188 484.42C726.132 474 723.997 463.496 721.941 453.076C725.025 450.891 728.347 449.042 731.826 447.697C733.171 454 734.594 460.302 735.938 466.605C737.282 472.571 739.418 479.63 744.953 481.311C748.353 478.202 751.675 475.092 755.075 471.983C755.629 471.479 756.261 470.891 756.578 470.135C756.973 469.21 756.815 468.117 756.656 467.109C755.787 460.975 754.521 454.924 752.782 448.958C755.629 448.37 758.396 447.782 761.243 447.193C764.881 454.336 765.83 462.571 766.779 470.555Z" fill="#2F3F47"/>
<path d="M740.508 494.502C740.429 494.838 740.508 495.175 740.508 495.427C741.378 499.208 742.248 502.906 743.038 506.687C748.574 505.258 754.03 503.41 759.328 501.225C758.854 498.031 757.984 494.838 756.798 491.813C756.561 491.141 756.245 490.468 755.612 490.216C755.217 490.048 754.821 490.132 754.347 490.216C749.997 490.973 745.727 492.149 741.536 493.662C741.14 493.83 740.666 494.082 740.508 494.502Z" fill="#516770"/>
<path d="M741.714 510.303C741.16 517.193 750.175 529.966 752.864 535.68C756.501 543.412 760.218 551.227 765.437 557.865C770.657 564.504 777.536 570.05 785.523 571.73C790.031 572.739 794.696 572.487 799.283 571.815C813.122 569.882 826.486 564.672 838.11 556.521C839.059 555.848 840.008 555.176 840.404 554C840.799 552.823 840.404 551.563 840.087 550.302C838.585 545.681 837.24 540.555 834.947 536.269C830.993 528.79 833.524 530.134 827.197 530.638C822.374 531.059 815.415 536.437 810.275 537.782C804.265 539.378 798.097 540.134 792.008 540.975C788.133 541.479 783.863 541.899 780.62 539.546C778.88 538.286 777.615 536.353 776.508 534.42C769.628 523.075 763.381 511.227 757.767 499.043C756.818 496.942 742.742 505.681 741.872 509.042C741.793 509.546 741.714 509.883 741.714 510.303Z" fill="#E2ECED"/>
<g opacity="0.15">
<path opacity="0.15" d="M799.188 567.442C796.261 559.963 794.997 552.484 794.522 544.417C794.443 542.821 792.466 542.653 792.229 544.25C790.963 552.821 792.229 561.476 795.076 569.543C796.104 572.484 800.374 570.299 799.188 567.442Z" fill="#272525"/>
<path opacity="0.15" d="M785.996 568.032C783.94 560.385 784.731 554.251 787.103 546.772C787.42 545.764 786.075 545.091 785.522 545.931C783.387 549.713 781.014 552.654 780.303 557.192C779.67 561.477 779.828 565.595 781.252 569.628C782.201 572.569 786.708 570.889 785.996 568.032Z" fill="#272525"/>
</g>
<path d="M858.435 422.739C858.513 425.932 858.671 429.209 859.937 432.151C863.179 439.461 871.719 441.814 879.232 443.159C922.171 450.805 966.06 453.411 1009.24 447.612C1014.93 446.856 1020.62 445.932 1025.84 443.411C1031.06 440.89 1035.73 436.604 1037.63 430.974C1038.81 427.36 1038.89 423.495 1038.97 419.63C1039.05 415.764 1039.05 411.815 1039.13 407.949C1039.13 406.185 1039.13 404.42 1038.5 402.739C1037.78 400.974 1036.36 399.546 1034.86 398.453C1029.16 394.336 1021.97 393.411 1015.09 392.655C969.382 387.781 923.121 383.496 877.651 390.05C875.753 390.302 873.775 390.638 872.431 392.067C871.719 392.739 871.245 393.664 870.533 394.336C869.189 395.428 867.37 395.344 865.789 395.932C861.36 397.445 859.779 403.244 859.225 408.202C858.593 412.991 858.355 417.865 858.435 422.739Z" fill="#2F3F47"/>
<path opacity="0.2" d="M915.678 429.797C917.181 426.856 917.418 423.411 917.102 420.05C916.944 418.033 916.469 415.933 915.283 414.42C912.752 411.227 908.087 411.563 904.212 410.807C900.812 412.319 897.964 415.26 896.541 418.874C895.671 421.058 895.276 423.411 895.513 425.764C896.067 430.554 899.784 434.672 904.212 435.512C908.719 436.521 913.544 434.083 915.678 429.797Z" fill="#EAF1F2"/>
<path opacity="0.2" d="M990.983 429.797C992.485 426.856 992.723 423.411 992.406 420.05C992.248 418.033 991.774 415.933 990.587 414.42C988.057 411.227 983.392 411.563 979.517 410.807C976.116 412.319 973.269 415.26 971.846 418.874C970.976 421.058 970.581 423.411 970.818 425.764C971.371 430.554 975.088 434.672 979.517 435.512C983.945 436.521 988.768 434.083 990.983 429.797Z" fill="#EAF1F2"/>
<defs>
<linearGradient id="paint0_linear_807_2584" x1="857.57" y1="748.659" x2="1196.34" y2="748.659" gradientUnits="userSpaceOnUse">
<stop stop-color="#4D4D4D"/>
<stop offset="1"/>
</linearGradient>
<linearGradient id="paint1_linear_807_2584" x1="857.57" y1="748.659" x2="1196.34" y2="748.659" gradientUnits="userSpaceOnUse">
<stop/>
<stop offset="1"/>
</linearGradient>
</defs>
</svg>
