<svg width="969" height="700" viewBox="0 0 969 700" fill="none" xmlns="http://www.w3.org/2000/svg">
<path d="M450.648 301C450.462 301 450.277 300.996 450.09 300.987C447.909 300.894 445.779 300.185 443.882 298.919C441.985 297.654 440.377 295.87 439.194 293.718C430.334 278.187 419.461 264.373 406.968 252.775C399.405 245.685 391.502 239.093 383.86 232.717C364.143 216.274 345.575 200.788 335.268 179.389C312.796 132.729 339.261 67.7384 377.068 38.5923C419.474 5.90327 475.252 0.77573 529.211 0.103761C534.819 0.0342062 540.43 -0.000362368 546.045 2.86387e-06C643.268 0.0437266 740.287 10.4486 835.904 31.0862C867.7 37.9664 900.981 46.3949 927.726 66.8494C954.311 87.1829 970.471 119.203 968.894 148.427C966.593 191.09 928.034 222.968 892.922 231.302C859.456 239.24 824.689 233.876 787.883 228.195C779.757 226.942 771.356 225.645 763.048 224.518C672.755 212.277 503.133 250.007 495.957 251.62L488.838 253.218L461.214 294.913C459.971 296.813 458.371 298.351 456.538 299.407C454.706 300.463 452.69 301.008 450.648 301Z" fill="white"/>
<path d="M405.128 150L395.98 116.545H400.097L407.088 143.793H407.415L414.537 116.545H419.111L426.233 143.793H426.56L433.551 116.545H437.668L428.52 150H424.338L416.955 123.341H416.693L409.31 150H405.128ZM447.24 150.588C445.65 150.588 444.207 150.289 442.911 149.69C441.615 149.08 440.586 148.203 439.824 147.06C439.062 145.905 438.68 144.511 438.68 142.878C438.68 141.44 438.964 140.275 439.53 139.382C440.096 138.478 440.853 137.77 441.8 137.259C442.748 136.747 443.793 136.366 444.937 136.115C446.091 135.854 447.251 135.647 448.416 135.494C449.941 135.298 451.177 135.151 452.124 135.053C453.083 134.944 453.78 134.765 454.215 134.514C454.662 134.264 454.885 133.828 454.885 133.207V133.077C454.885 131.465 454.444 130.213 453.562 129.32C452.691 128.427 451.367 127.98 449.592 127.98C447.752 127.98 446.309 128.383 445.263 129.189C444.218 129.995 443.483 130.855 443.058 131.77L439.399 130.463C440.053 128.938 440.924 127.751 442.013 126.902C443.113 126.042 444.311 125.443 445.607 125.105C446.913 124.757 448.198 124.582 449.462 124.582C450.268 124.582 451.193 124.68 452.239 124.876C453.295 125.062 454.313 125.448 455.293 126.036C456.284 126.624 457.107 127.512 457.76 128.699C458.413 129.886 458.74 131.476 458.74 133.469V150H454.885V146.602H454.689C454.428 147.147 453.992 147.729 453.382 148.35C452.772 148.971 451.961 149.499 450.948 149.935C449.935 150.37 448.699 150.588 447.24 150.588ZM447.828 147.125C449.353 147.125 450.638 146.826 451.683 146.227C452.74 145.628 453.535 144.854 454.068 143.907C454.613 142.96 454.885 141.963 454.885 140.918V137.389C454.722 137.585 454.362 137.765 453.807 137.928C453.262 138.081 452.631 138.217 451.912 138.337C451.204 138.446 450.513 138.544 449.837 138.631C449.173 138.707 448.634 138.772 448.22 138.827C447.218 138.957 446.282 139.17 445.411 139.464C444.55 139.747 443.853 140.177 443.32 140.754C442.797 141.321 442.536 142.094 442.536 143.074C442.536 144.413 443.031 145.426 444.022 146.112C445.024 146.787 446.293 147.125 447.828 147.125ZM483.549 130.528L480.086 131.509C479.868 130.931 479.547 130.371 479.122 129.826C478.709 129.271 478.142 128.813 477.423 128.454C476.705 128.094 475.785 127.915 474.663 127.915C473.127 127.915 471.848 128.269 470.824 128.977C469.811 129.674 469.305 130.561 469.305 131.639C469.305 132.598 469.653 133.354 470.35 133.91C471.047 134.465 472.136 134.928 473.617 135.298L477.342 136.213C479.585 136.758 481.257 137.591 482.357 138.712C483.457 139.823 484.007 141.255 484.007 143.009C484.007 144.446 483.593 145.731 482.765 146.864C481.948 147.996 480.805 148.889 479.335 149.543C477.865 150.196 476.155 150.523 474.205 150.523C471.646 150.523 469.528 149.967 467.851 148.857C466.174 147.746 465.112 146.123 464.666 143.989L468.325 143.074C468.673 144.424 469.332 145.437 470.301 146.112C471.281 146.787 472.561 147.125 474.14 147.125C475.937 147.125 477.364 146.744 478.42 145.982C479.487 145.208 480.021 144.283 480.021 143.205C480.021 142.333 479.716 141.604 479.106 141.016C478.496 140.417 477.56 139.97 476.296 139.676L472.115 138.696C469.817 138.152 468.129 137.308 467.051 136.164C465.983 135.01 465.45 133.567 465.45 131.835C465.45 130.42 465.847 129.167 466.642 128.078C467.448 126.989 468.543 126.134 469.926 125.513C471.32 124.893 472.899 124.582 474.663 124.582C477.146 124.582 479.095 125.127 480.511 126.216C481.937 127.305 482.95 128.742 483.549 130.528ZM508.432 150L500.787 124.909H504.838L510.261 144.119H510.523L515.881 124.909H519.997L525.29 144.054H525.551L530.974 124.909H535.026L527.381 150H523.591L518.102 130.724H517.71L512.222 150H508.432ZM540.122 150V124.909H543.977V150H540.122ZM542.082 120.727C541.331 120.727 540.683 120.471 540.138 119.96C539.605 119.448 539.338 118.832 539.338 118.114C539.338 117.395 539.605 116.78 540.138 116.268C540.683 115.756 541.331 115.5 542.082 115.5C542.834 115.5 543.476 115.756 544.01 116.268C544.554 116.78 544.827 117.395 544.827 118.114C544.827 118.832 544.554 119.448 544.01 119.96C543.476 120.471 542.834 120.727 542.082 120.727ZM554.893 116.545V150H551.038V116.545H554.893ZM565.809 116.545V150H561.954V116.545H565.809ZM590.643 130.528L587.18 131.509C586.962 130.931 586.641 130.371 586.216 129.826C585.802 129.271 585.236 128.813 584.517 128.454C583.798 128.094 582.878 127.915 581.757 127.915C580.221 127.915 578.941 128.269 577.918 128.977C576.905 129.674 576.399 130.561 576.399 131.639C576.399 132.598 576.747 133.354 577.444 133.91C578.141 134.465 579.23 134.928 580.711 135.298L584.436 136.213C586.679 136.758 588.351 137.591 589.45 138.712C590.55 139.823 591.1 141.255 591.1 143.009C591.1 144.446 590.686 145.731 589.859 146.864C589.042 147.996 587.899 148.889 586.428 149.543C584.958 150.196 583.249 150.523 581.299 150.523C578.74 150.523 576.622 149.967 574.945 148.857C573.268 147.746 572.206 146.123 571.759 143.989L575.419 143.074C575.767 144.424 576.426 145.437 577.395 146.112C578.375 146.787 579.655 147.125 581.234 147.125C583.031 147.125 584.457 146.744 585.514 145.982C586.581 145.208 587.115 144.283 587.115 143.205C587.115 142.333 586.81 141.604 586.2 141.016C585.59 140.417 584.653 139.97 583.39 139.676L579.208 138.696C576.91 138.152 575.222 137.308 574.144 136.164C573.077 135.01 572.544 133.567 572.544 131.835C572.544 130.42 572.941 129.167 573.736 128.078C574.542 126.989 575.636 126.134 577.019 125.513C578.413 124.893 579.992 124.582 581.757 124.582C584.24 124.582 586.189 125.127 587.605 126.216C589.031 127.305 590.044 128.742 590.643 130.528ZM607.815 124.909V128.176H594.812V124.909H607.815ZM598.602 118.898H602.457V142.812C602.457 143.902 602.615 144.718 602.931 145.263C603.258 145.796 603.672 146.156 604.173 146.341C604.684 146.515 605.223 146.602 605.79 146.602C606.214 146.602 606.563 146.58 606.835 146.537C607.107 146.482 607.325 146.439 607.489 146.406L608.273 149.869C608.011 149.967 607.647 150.065 607.178 150.163C606.71 150.272 606.116 150.327 605.398 150.327C604.309 150.327 603.241 150.093 602.196 149.624C601.161 149.156 600.301 148.443 599.615 147.484C598.94 146.526 598.602 145.317 598.602 143.858V118.898ZM636.026 150.523C633.935 150.523 632.089 149.995 630.489 148.938C628.888 147.871 627.635 146.368 626.732 144.43C625.828 142.48 625.376 140.177 625.376 137.52C625.376 134.884 625.828 132.598 626.732 130.659C627.635 128.721 628.893 127.223 630.505 126.167C632.117 125.111 633.979 124.582 636.092 124.582C637.725 124.582 639.016 124.855 639.963 125.399C640.921 125.933 641.651 126.543 642.152 127.229C642.664 127.904 643.061 128.459 643.344 128.895H643.671V116.545H647.526V150H643.802V146.145H643.344C643.061 146.602 642.658 147.179 642.136 147.876C641.613 148.562 640.867 149.178 639.898 149.722C638.929 150.256 637.638 150.523 636.026 150.523ZM636.549 147.06C638.095 147.06 639.402 146.657 640.469 145.851C641.537 145.034 642.348 143.907 642.903 142.469C643.459 141.021 643.737 139.349 643.737 137.455C643.737 135.581 643.464 133.942 642.92 132.538C642.375 131.122 641.569 130.022 640.502 129.238C639.435 128.443 638.117 128.045 636.549 128.045C634.915 128.045 633.554 128.465 632.465 129.303C631.387 130.131 630.576 131.258 630.031 132.685C629.498 134.1 629.231 135.69 629.231 137.455C629.231 139.241 629.503 140.863 630.048 142.322C630.603 143.771 631.42 144.925 632.498 145.786C633.587 146.635 634.937 147.06 636.549 147.06ZM670.935 139.741V124.909H674.79V150H670.935V145.753H670.673C670.085 147.027 669.17 148.111 667.929 149.004C666.688 149.886 665.119 150.327 663.224 150.327C661.656 150.327 660.262 149.984 659.043 149.298C657.823 148.601 656.865 147.555 656.168 146.161C655.471 144.756 655.122 142.987 655.122 140.852V124.909H658.977V140.591C658.977 142.42 659.489 143.88 660.513 144.969C661.547 146.058 662.865 146.602 664.466 146.602C665.424 146.602 666.399 146.357 667.39 145.867C668.392 145.377 669.23 144.626 669.906 143.613C670.592 142.6 670.935 141.31 670.935 139.741ZM694.788 150V124.909H698.513V128.83H698.839C699.362 127.49 700.206 126.45 701.371 125.71C702.537 124.958 703.936 124.582 705.569 124.582C707.225 124.582 708.602 124.958 709.702 125.71C710.813 126.45 711.679 127.49 712.3 128.83H712.561C713.203 127.534 714.167 126.504 715.452 125.742C716.737 124.969 718.278 124.582 720.075 124.582C722.318 124.582 724.153 125.285 725.58 126.69C727.007 128.084 727.72 130.256 727.72 133.207V150H723.865V133.207C723.865 131.356 723.358 130.033 722.346 129.238C721.333 128.443 720.14 128.045 718.768 128.045C717.004 128.045 715.637 128.579 714.668 129.646C713.699 130.703 713.214 132.042 713.214 133.665V150H709.294V132.815C709.294 131.389 708.831 130.24 707.905 129.369C706.98 128.487 705.787 128.045 704.328 128.045C703.326 128.045 702.39 128.312 701.518 128.846C700.658 129.379 699.961 130.12 699.427 131.067C698.905 132.004 698.643 133.088 698.643 134.318V150H694.788ZM742.152 150.588C740.562 150.588 739.119 150.289 737.823 149.69C736.527 149.08 735.498 148.203 734.736 147.06C733.974 145.905 733.593 144.511 733.593 142.878C733.593 141.44 733.876 140.275 734.442 139.382C735.008 138.478 735.765 137.77 736.713 137.259C737.66 136.747 738.705 136.366 739.849 136.115C741.003 135.854 742.163 135.647 743.328 135.494C744.853 135.298 746.089 135.151 747.036 135.053C747.995 134.944 748.692 134.765 749.127 134.514C749.574 134.264 749.797 133.828 749.797 133.207V133.077C749.797 131.465 749.356 130.213 748.474 129.32C747.603 128.427 746.28 127.98 744.504 127.98C742.664 127.98 741.221 128.383 740.176 129.189C739.13 129.995 738.395 130.855 737.97 131.77L734.311 130.463C734.965 128.938 735.836 127.751 736.925 126.902C738.025 126.042 739.223 125.443 740.519 125.105C741.825 124.757 743.11 124.582 744.374 124.582C745.18 124.582 746.105 124.68 747.151 124.876C748.207 125.062 749.225 125.448 750.205 126.036C751.196 126.624 752.019 127.512 752.672 128.699C753.325 129.886 753.652 131.476 753.652 133.469V150H749.797V146.602H749.601C749.34 147.147 748.904 147.729 748.294 148.35C747.684 148.971 746.873 149.499 745.86 149.935C744.847 150.37 743.611 150.588 742.152 150.588ZM742.74 147.125C744.265 147.125 745.55 146.826 746.595 146.227C747.652 145.628 748.447 144.854 748.98 143.907C749.525 142.96 749.797 141.963 749.797 140.918V137.389C749.634 137.585 749.274 137.765 748.719 137.928C748.174 138.081 747.543 138.217 746.824 138.337C746.116 138.446 745.425 138.544 744.749 138.631C744.085 138.707 743.546 138.772 743.132 138.827C742.13 138.957 741.194 139.17 740.323 139.464C739.462 139.747 738.765 140.177 738.232 140.754C737.709 141.321 737.448 142.094 737.448 143.074C737.448 144.413 737.943 145.426 738.934 146.112C739.936 146.787 741.205 147.125 742.74 147.125ZM770.882 150.523C768.529 150.523 766.504 149.967 764.805 148.857C763.106 147.746 761.799 146.216 760.885 144.266C759.97 142.317 759.512 140.09 759.512 137.585C759.512 135.037 759.981 132.788 760.917 130.839C761.865 128.879 763.182 127.348 764.87 126.249C766.569 125.138 768.551 124.582 770.816 124.582C772.581 124.582 774.171 124.909 775.586 125.562C777.002 126.216 778.162 127.131 779.066 128.307C779.97 129.483 780.53 130.855 780.748 132.423H776.893C776.599 131.28 775.946 130.267 774.933 129.385C773.931 128.492 772.581 128.045 770.882 128.045C769.379 128.045 768.061 128.437 766.929 129.222C765.807 129.995 764.93 131.089 764.299 132.505C763.678 133.91 763.368 135.56 763.368 137.455C763.368 139.393 763.672 141.081 764.282 142.518C764.903 143.956 765.774 145.072 766.896 145.867C768.029 146.662 769.357 147.06 770.882 147.06C771.884 147.06 772.793 146.885 773.61 146.537C774.426 146.188 775.118 145.688 775.684 145.034C776.251 144.381 776.654 143.597 776.893 142.682H780.748C780.53 144.163 779.991 145.497 779.131 146.684C778.282 147.86 777.154 148.797 775.75 149.494C774.356 150.18 772.733 150.523 770.882 150.523ZM790.239 134.906V150H786.384V116.545H790.239V128.83H790.566C791.154 127.534 792.036 126.504 793.212 125.742C794.399 124.969 795.978 124.582 797.949 124.582C799.659 124.582 801.156 124.925 802.441 125.612C803.726 126.287 804.723 127.327 805.431 128.732C806.15 130.125 806.509 131.901 806.509 134.057V150H802.654V134.318C802.654 132.325 802.136 130.784 801.102 129.695C800.078 128.595 798.657 128.045 796.838 128.045C795.575 128.045 794.443 128.312 793.441 128.846C792.45 129.379 791.666 130.158 791.088 131.182C790.522 132.205 790.239 133.447 790.239 134.906ZM824.081 150.523C821.664 150.523 819.578 149.989 817.825 148.922C816.083 147.844 814.738 146.341 813.79 144.413C812.854 142.475 812.385 140.221 812.385 137.651C812.385 135.08 812.854 132.815 813.79 130.855C814.738 128.884 816.055 127.348 817.743 126.249C819.442 125.138 821.424 124.582 823.689 124.582C824.996 124.582 826.287 124.8 827.561 125.236C828.835 125.671 829.995 126.379 831.04 127.359C832.086 128.329 832.919 129.614 833.54 131.214C834.16 132.815 834.471 134.786 834.471 137.128V138.761H815.13V135.429H830.55C830.55 134.013 830.267 132.75 829.701 131.639C829.145 130.528 828.35 129.652 827.316 129.009C826.292 128.367 825.083 128.045 823.689 128.045C822.154 128.045 820.825 128.427 819.704 129.189C818.593 129.94 817.738 130.92 817.139 132.129C816.54 133.338 816.241 134.634 816.241 136.017V138.239C816.241 140.134 816.567 141.74 817.221 143.058C817.885 144.364 818.805 145.361 819.981 146.047C821.157 146.722 822.524 147.06 824.081 147.06C825.094 147.06 826.009 146.918 826.826 146.635C827.653 146.341 828.367 145.905 828.966 145.328C829.565 144.74 830.028 144.01 830.354 143.139L834.079 144.185C833.687 145.448 833.028 146.559 832.102 147.517C831.176 148.464 830.033 149.205 828.672 149.739C827.31 150.261 825.78 150.523 824.081 150.523ZM844.19 134.906V150H840.335V124.909H844.059V128.83H844.386C844.974 127.555 845.867 126.532 847.065 125.759C848.263 124.974 849.809 124.582 851.704 124.582C853.403 124.582 854.89 124.931 856.164 125.628C857.438 126.314 858.429 127.359 859.137 128.764C859.845 130.158 860.199 131.922 860.199 134.057V150H856.344V134.318C856.344 132.347 855.832 130.812 854.808 129.712C853.784 128.601 852.38 128.045 850.594 128.045C849.363 128.045 848.263 128.312 847.294 128.846C846.336 129.379 845.579 130.158 845.023 131.182C844.468 132.205 844.19 133.447 844.19 134.906ZM872.275 140.591V140.395C872.296 138.315 872.514 136.66 872.928 135.429C873.342 134.198 873.93 133.202 874.692 132.44C875.454 131.677 876.369 130.975 877.436 130.332C878.079 129.94 878.656 129.478 879.168 128.944C879.68 128.399 880.083 127.773 880.377 127.065C880.682 126.357 880.834 125.573 880.834 124.713C880.834 123.646 880.584 122.72 880.083 121.936C879.582 121.152 878.912 120.548 878.074 120.123C877.235 119.698 876.304 119.486 875.28 119.486C874.387 119.486 873.527 119.671 872.699 120.041C871.872 120.411 871.18 120.994 870.625 121.789C870.069 122.584 869.748 123.624 869.661 124.909H865.544C865.632 123.058 866.111 121.473 866.982 120.156C867.864 118.838 869.024 117.83 870.461 117.134C871.91 116.437 873.516 116.088 875.28 116.088C877.197 116.088 878.863 116.469 880.279 117.232C881.705 117.994 882.805 119.039 883.578 120.368C884.363 121.696 884.755 123.21 884.755 124.909C884.755 126.107 884.569 127.191 884.199 128.16C883.84 129.129 883.317 129.995 882.631 130.757C881.956 131.519 881.139 132.195 880.181 132.783C879.222 133.382 878.455 134.013 877.877 134.678C877.3 135.331 876.881 136.11 876.62 137.013C876.358 137.917 876.217 139.045 876.195 140.395V140.591H872.275ZM874.365 150.261C873.56 150.261 872.868 149.973 872.291 149.396C871.714 148.818 871.425 148.127 871.425 147.321C871.425 146.515 871.714 145.824 872.291 145.246C872.868 144.669 873.56 144.381 874.365 144.381C875.171 144.381 875.863 144.669 876.44 145.246C877.017 145.824 877.306 146.515 877.306 147.321C877.306 147.855 877.17 148.345 876.897 148.791C876.636 149.238 876.282 149.597 875.836 149.869C875.4 150.131 874.91 150.261 874.365 150.261Z" fill="black"/>
<path d="M332.114 673.424C336.146 674.264 340.97 676.113 341.444 680.482C341.998 685.356 336.383 688.213 331.876 689.222C314.874 693.171 297.318 693.675 279.842 694.18C187.479 696.532 95.115 696.953 2.74976 695.356C4.09375 683.34 17.5396 678.129 28.6894 675.86C76.6111 666.113 126.193 671.659 173.244 661.323C222.827 650.315 283.164 662.752 332.114 673.424Z" fill="url(#paint0_linear_442_2548)"/>
<path d="M332.114 673.424C336.146 674.264 340.97 676.113 341.444 680.482C341.998 685.356 336.383 688.213 331.876 689.222C314.874 693.171 297.318 693.675 279.842 694.18C187.479 696.532 95.115 696.953 2.74976 695.356C4.09375 683.34 17.5396 678.129 28.6894 675.86C76.6111 666.113 126.193 671.659 173.244 661.323C222.827 650.315 283.164 662.752 332.114 673.424Z" fill="url(#paint1_linear_442_2548)"/>
<path d="M80.5703 594.265C79.5423 593.929 78.4351 594.265 77.407 594.602C72.8993 596.198 68.4708 598.299 64.5172 601.072C62.5399 602.417 60.5631 603.929 59.6143 606.198C58.7442 608.299 58.8234 610.652 58.9814 612.837C60.4051 639.895 61.7495 667.037 63.1727 694.096C63.2519 695.86 63.4892 697.793 64.7544 698.886C66.336 700.146 68.55 699.306 70.2896 698.465C87.2916 690.566 104.214 682.583 121.216 674.684C129.361 670.903 137.744 666.869 143.754 659.894C139.167 649.138 129.519 641.996 120.663 634.769C106.903 623.508 94.2505 610.568 83.1003 596.45C82.4674 595.61 81.6771 594.601 80.5703 594.265Z" fill="#DDC199"/>
<path d="M0.462624 454.855C4.65487 453.847 8.92729 452.838 13.1167 451.83C37.7892 499.98 59.6148 549.812 78.4355 600.904C74.0863 603.845 68.3138 606.87 64.1225 603.677C62.3829 602.332 61.3544 600.147 60.4056 598.047C39.0544 550.988 19.0476 503.258 0.462624 454.855Z" fill="#BDB39B"/>
<g opacity="0.26">
<path opacity="0.26" d="M78.2095 689.137C78.2887 690.062 76.9443 690.398 76.7864 689.474C73.3859 662.163 68.5627 635.357 62.3153 608.634C61.9202 606.954 64.3714 606.449 64.7665 608.13C71.2511 634.6 75.7583 661.827 78.2095 689.137Z" fill="#272525"/>
<path opacity="0.26" d="M105.004 677.121C94.5663 653.76 83.4953 630.735 71.7914 608.046C71.0798 606.701 73.1359 605.609 73.8475 606.954C86.0258 629.811 97.0175 653.34 107.061 677.289C106.903 677.457 106.824 677.625 106.745 677.793C106.191 677.373 105.637 677.205 105.004 677.121Z" fill="#272525"/>
<path opacity="0.26" d="M122.018 661.742C104.542 644.263 88.9631 624.852 75.3617 603.843C74.4916 602.415 76.7061 601.238 77.5762 602.667C90.9404 623.591 106.281 642.919 123.441 660.397C124.311 661.321 122.888 662.666 122.018 661.742Z" fill="#272525"/>
</g>
<path d="M243.236 618.214C243.156 616.954 242.998 615.609 242.92 614.348C253.358 606.785 271.704 609.222 282.775 613.088C294.637 617.205 294.637 624.936 294.479 638.045C294.4 645.44 293.767 653.76 288.39 658.549C284.278 662.247 278.505 662.751 273.127 663.087C268.304 663.423 263.559 663.675 258.735 664.011C255.414 664.179 251.697 664.263 249.088 661.994C246.478 659.642 246.083 655.692 245.766 652.078C244.897 640.734 244.026 629.474 243.236 618.214Z" fill="#2F3F47"/>
<path d="M230.494 618.214C230.573 616.954 230.731 615.609 230.811 614.348C220.372 606.785 202.026 609.222 190.955 613.088C179.093 617.205 179.093 624.936 179.251 638.045C179.33 645.44 179.963 653.76 185.341 658.549C189.453 662.247 195.225 662.751 200.603 663.087C205.426 663.423 210.171 663.675 214.995 664.011C218.316 664.179 222.033 664.263 224.642 661.994C227.252 659.642 227.647 655.692 227.963 652.078C228.754 640.734 229.624 629.474 230.494 618.214Z" fill="#2F3F47"/>
<path d="M319.553 590.148C322.163 590.735 324.693 591.576 327.145 592.668C328.964 593.424 330.782 594.433 332.048 595.945C333.787 598.13 334.262 601.156 334.578 604.097C334.973 607.963 335.132 611.828 335.052 615.693C335.052 618.97 334.815 622.332 333.233 625.105C331.019 628.971 326.67 630.735 322.558 631.827C314.729 633.929 306.584 634.432 298.518 634.853C249.727 637.374 200.777 635.692 152.223 629.895C150.246 629.643 148.032 629.307 146.688 627.71C145.897 626.786 145.501 625.525 145.106 624.348C142.576 615.777 140.915 604.097 146.371 596.114C151.036 589.307 159.656 593.172 166.14 593.088C172.783 593.004 179.505 592.416 186.148 592.164C199.117 591.576 212.085 590.987 225.054 590.567C243.321 589.895 261.667 589.307 279.935 588.803C292.271 588.551 306.821 587.122 319.553 590.148Z" fill="#516770"/>
<path d="M214.691 405.695C181.557 405.863 148.502 406.62 115.368 407.376C116.159 388.637 117.424 369.897 121.22 351.578C127.784 319.478 142.808 288.134 168.193 269.395C207.099 240.656 268.859 244.437 310.771 272.84C328.406 284.772 342.56 301.159 349.994 321.242C358.534 344.183 360.828 369.225 362.172 393.847C362.331 397.124 362.489 400.317 362.646 403.594C313.46 401.577 263.957 405.527 214.691 405.695Z" fill="#EAF1F2"/>
<path d="M217.343 415.108C265.897 415.024 314.61 411.327 363.164 413.175C365.536 469.141 363.322 525.359 356.521 580.989C355.572 588.636 354.386 596.618 349.641 602.668C342.287 611.996 329.555 607.878 319.67 607.878C302.985 607.878 285.825 608.635 268.981 609.055C237.191 609.811 205.639 609.895 174.008 606.114C158.983 604.35 128.617 609.223 121.421 594.854C115.49 583.173 117.941 559.476 117.071 546.451C116.043 530.989 115.252 515.611 114.778 500.149C113.908 472.334 114.066 444.519 115.095 416.62C149.098 415.948 183.26 415.108 217.343 415.108Z" fill="#E2ECED"/>
<path d="M102.671 505.696C102.038 505.107 101.959 504.099 101.88 503.259C100.22 479.982 98.7963 456.704 97.7683 433.427C97.6891 431.41 97.6891 429.058 99.1915 427.713C100.299 426.789 101.722 426.705 103.146 426.705C108.049 426.621 112.872 426.537 117.775 426.537C120.859 453.007 122.124 479.645 121.492 506.284C116.035 506.284 110.658 506.368 105.202 506.368C104.332 506.368 103.383 506.368 102.671 505.696Z" fill="#2F3F47"/>
<path d="M77.4635 559.309C76.8312 557.377 76.1191 555.36 74.6959 553.931C73.5886 552.839 72.0867 552.167 70.6631 551.662C64.4949 549.309 58.1688 547.545 51.763 546.368C46.7814 549.982 42.2737 554.268 38.3988 559.225C37.6872 560.15 36.9756 561.158 36.8172 562.335C36.6592 563.259 36.8964 564.183 37.1336 565.108C39.664 575.444 42.1157 585.78 44.6461 596.116C48.3626 596.62 52.0795 596.704 55.7171 596.2C54.294 589.897 52.8703 583.595 51.5258 577.376C50.1814 571.41 49.1534 564.099 53.4235 559.898C57.7727 561.074 62.0432 562.335 66.3925 563.511C67.1041 563.679 67.8954 563.931 68.5278 564.435C69.2394 565.108 69.5558 566.116 69.8722 567.04C71.6911 572.923 73.0355 578.973 73.9843 585.108C76.7519 584.267 79.5196 583.51 82.2872 582.67C82.5249 574.687 79.9945 566.873 77.4635 559.309Z" fill="#2F3F47"/>
<path d="M43.8579 550.234C43.6207 549.982 43.5419 549.647 43.4627 549.394C42.6719 545.613 41.8811 541.831 41.011 538.133C46.5468 536.789 52.24 535.864 57.8545 535.36C58.7246 538.47 59.2782 541.747 59.5154 545.024C59.5946 545.697 59.5946 546.537 59.1202 547.041C58.8038 547.377 58.4082 547.461 58.013 547.63C53.8217 548.974 49.4724 549.982 45.0439 550.57C44.7275 550.486 44.2535 550.571 43.8579 550.234Z" fill="#516770"/>
<path d="M38.3131 535.53C34.9919 529.563 37.6803 513.849 37.6803 507.547C37.7595 498.891 37.7595 490.152 39.6575 481.749C41.5551 473.345 45.4305 465.11 51.8358 459.816C55.4735 456.791 59.7435 454.859 64.172 453.262C77.3783 448.472 91.5329 446.876 105.372 448.64C106.479 448.808 107.665 448.976 108.456 449.817C109.326 450.657 109.484 452.001 109.642 453.262C110.275 458.052 111.144 463.346 110.907 468.219C110.512 476.791 112.172 474.438 106.32 476.875C101.813 478.724 93.3518 477.211 88.2117 478.472C82.2015 479.9 76.3498 482.085 70.4981 484.27C66.7817 485.614 62.8276 487.295 60.9295 490.908C59.9015 492.841 59.5851 495.194 59.3479 497.463C57.9247 510.909 57.2918 524.437 57.3711 537.967C57.3711 540.319 41.0812 539.143 38.946 536.538C38.7088 536.202 38.5503 535.866 38.3131 535.53Z" fill="#E2ECED"/>
<g opacity="0.15">
<path opacity="0.15" d="M65.9978 457.128C66.4722 465.195 68.449 472.506 71.4538 479.901C72.0075 481.329 70.3471 482.422 69.477 481.162C64.7326 474.103 62.2809 465.699 61.4109 457.128C61.0944 454.103 65.7601 454.018 65.9978 457.128Z" fill="#272525"/>
<path opacity="0.15" d="M53.8958 462.925C55.2398 470.741 58.5611 475.867 63.7804 481.413C64.492 482.169 63.5436 483.429 62.7528 482.841C59.1944 480.488 55.8731 478.976 53.3427 475.195C50.9702 471.665 49.3885 467.883 48.9142 463.598C48.5977 460.657 53.3422 459.984 53.8958 462.925Z" fill="#272525"/>
</g>
<path d="M370.926 427.209C371.559 427.797 371.637 428.806 371.717 429.646C373.377 452.923 374.801 476.2 375.829 499.477C375.908 501.494 375.908 503.847 374.405 505.191C373.298 506.116 371.875 506.2 370.452 506.2C365.549 506.284 360.725 506.368 355.822 506.368C352.738 479.898 351.473 453.259 352.105 426.621C357.562 426.621 362.939 426.537 368.395 426.537C369.265 426.537 370.293 426.537 370.926 427.209Z" fill="#2F3F47"/>
<path d="M432.221 398.554C431.984 400.571 431.747 402.755 432.459 404.604C433.012 406.116 434.04 407.377 435.147 408.554C439.655 413.511 444.557 418.134 449.856 422.251C455.866 421.411 461.717 419.646 467.174 417.041C468.202 416.537 469.309 416.033 469.942 415.024C470.416 414.268 470.653 413.343 470.812 412.419C472.868 401.999 475.003 391.495 477.059 381.075C473.975 378.89 470.653 377.041 467.174 375.696C465.829 381.999 464.406 388.301 463.062 394.604C461.718 400.57 459.582 407.629 454.047 409.31C450.647 406.201 447.325 403.091 443.925 399.982C443.371 399.478 442.739 398.89 442.422 398.134C442.027 397.209 442.185 396.116 442.344 395.108C443.213 388.974 444.479 382.924 446.218 376.957C443.371 376.369 440.604 375.781 437.757 375.192C434.119 382.335 433.17 390.57 432.221 398.554Z" fill="#2F3F47"/>
<path d="M458.492 422.503C458.571 422.839 458.492 423.176 458.492 423.428C457.622 427.209 456.752 430.906 455.962 434.688C450.426 433.259 444.97 431.411 439.672 429.226C440.146 426.032 441.016 422.839 442.202 419.814C442.439 419.142 442.755 418.469 443.388 418.217C443.783 418.049 444.179 418.133 444.653 418.217C449.003 418.974 453.273 420.15 457.464 421.663C457.86 421.831 458.334 422.083 458.492 422.503Z" fill="#516770"/>
<path d="M457.286 438.303C457.84 445.193 448.825 457.966 446.136 463.68C442.499 471.412 438.782 479.227 433.563 485.865C428.343 492.504 421.464 498.05 413.477 499.73C408.969 500.739 404.304 500.487 399.717 499.815C385.878 497.882 372.514 492.672 360.89 484.521C359.941 483.848 358.992 483.176 358.596 482C358.201 480.823 358.596 479.563 358.913 478.302C360.415 473.681 361.76 468.555 364.053 464.269C368.007 456.79 365.476 458.134 371.803 458.638C376.626 459.059 383.585 464.437 388.725 465.782C394.735 467.378 400.903 468.134 406.992 468.975C410.867 469.479 415.137 469.899 418.38 467.546C420.12 466.286 421.385 464.353 422.492 462.42C429.372 451.075 435.619 439.227 441.233 427.043C442.182 424.942 456.258 433.681 457.128 437.042C457.207 437.546 457.286 437.883 457.286 438.303Z" fill="#E2ECED"/>
<g opacity="0.15">
<path opacity="0.15" d="M399.812 495.442C402.739 487.963 404.003 480.484 404.478 472.417C404.557 470.821 406.534 470.653 406.771 472.25C408.037 480.821 406.771 489.476 403.924 497.543C402.896 500.484 398.626 498.299 399.812 495.442Z" fill="#272525"/>
<path opacity="0.15" d="M413.004 496.031C415.06 488.384 414.269 482.25 411.897 474.771C411.58 473.763 412.925 473.09 413.478 473.93C415.613 477.712 417.986 480.653 418.697 485.191C419.33 489.476 419.172 493.594 417.748 497.627C416.799 500.568 412.292 498.888 413.004 496.031Z" fill="#272525"/>
</g>
<path d="M340.565 350.739C340.487 353.932 340.329 357.209 339.063 360.151C335.821 367.461 327.281 369.814 319.768 371.159C276.829 378.805 232.94 381.411 189.763 375.612C184.07 374.856 178.376 373.932 173.157 371.411C167.937 368.89 163.272 364.604 161.374 358.974C160.188 355.36 160.109 351.495 160.03 347.63C159.951 343.764 159.951 339.815 159.872 335.949C159.872 334.185 159.872 332.42 160.504 330.739C161.216 328.974 162.639 327.546 164.142 326.453C169.835 322.336 177.031 321.411 183.911 320.655C229.618 315.781 275.879 311.496 321.349 318.05C323.247 318.302 325.225 318.638 326.569 320.067C327.281 320.739 327.755 321.664 328.467 322.336C329.811 323.428 331.63 323.344 333.211 323.932C337.64 325.445 339.221 331.244 339.775 336.202C340.407 340.991 340.645 345.865 340.565 350.739Z" fill="#2F3F47"/>
<path opacity="0.2" d="M283.322 357.796C281.819 354.855 281.582 351.41 281.898 348.049C282.056 346.032 282.531 343.932 283.717 342.419C286.248 339.226 290.913 339.562 294.788 338.806C298.188 340.318 301.036 343.259 302.459 346.873C303.329 349.057 303.724 351.41 303.487 353.763C302.933 358.553 299.216 362.671 294.788 363.511C290.281 364.52 285.456 362.082 283.322 357.796Z" fill="#EAF1F2"/>
<path opacity="0.2" d="M208.017 357.796C206.515 354.855 206.277 351.41 206.594 348.049C206.752 346.032 207.226 343.932 208.413 342.419C210.943 339.226 215.608 339.562 219.483 338.806C222.884 340.318 225.731 343.259 227.154 346.873C228.024 349.057 228.419 351.41 228.182 353.763C227.629 358.553 223.912 362.671 219.483 363.511C215.055 364.52 210.232 362.082 208.017 357.796Z" fill="#EAF1F2"/>
<defs>
<linearGradient id="paint0_linear_442_2548" x1="341.43" y1="676.658" x2="2.66016" y2="676.658" gradientUnits="userSpaceOnUse">
<stop stop-color="#4D4D4D"/>
<stop offset="1"/>
</linearGradient>
<linearGradient id="paint1_linear_442_2548" x1="341.43" y1="676.658" x2="2.66016" y2="676.658" gradientUnits="userSpaceOnUse">
<stop/>
<stop offset="1"/>
</linearGradient>
</defs>
</svg>
