<svg width="1037" height="744" viewBox="0 0 1037 744" fill="none" xmlns="http://www.w3.org/2000/svg">
<path d="M463.744 359C463.539 359 463.335 358.995 463.128 358.985C460.716 358.874 458.36 358.028 456.262 356.519C454.164 355.009 452.385 352.881 451.077 350.315C441.279 331.791 429.255 315.315 415.438 301.483C407.074 293.027 398.334 285.164 389.882 277.559C368.078 257.948 347.543 239.478 336.144 213.956C311.291 158.305 340.559 80.791 382.371 46.0287C429.268 7.04078 490.955 0.925206 550.629 0.123755C556.831 0.0407974 563.037 -0.000432193 569.246 3.41571e-06C676.767 0.0521524 784.062 12.4619 889.807 37.0762C924.97 45.2822 961.776 55.3348 991.354 79.7306C1020.76 103.982 1038.63 142.172 1036.88 177.028C1034.34 227.911 991.695 265.932 952.864 275.872C915.853 285.339 877.404 278.941 836.699 272.166C827.713 270.672 818.422 269.125 809.234 267.781C709.377 253.181 521.789 298.181 513.853 300.105L505.98 302.011L475.429 351.74C474.055 354.006 472.286 355.841 470.259 357.1C468.232 358.36 466.003 359.01 463.744 359Z" fill="white"/>
<path d="M395.25 105H387.17V78.8182H395.608C398.148 78.8182 400.321 79.3423 402.128 80.3906C403.935 81.4304 405.32 82.9261 406.283 84.8778C407.246 86.821 407.727 89.1477 407.727 91.858C407.727 94.5852 407.241 96.9332 406.27 98.902C405.298 100.862 403.884 102.371 402.026 103.428C400.168 104.476 397.909 105 395.25 105ZM390.341 102.188H395.045C397.21 102.188 399.004 101.77 400.428 100.935C401.851 100.099 402.912 98.9105 403.611 97.3679C404.31 95.8253 404.659 93.9886 404.659 91.858C404.659 89.7443 404.314 87.9247 403.624 86.3991C402.933 84.8651 401.902 83.6889 400.53 82.8707C399.158 82.044 397.449 81.6307 395.403 81.6307H390.341V102.188ZM412.636 105V85.3636H415.653V105H412.636ZM414.17 82.0909C413.582 82.0909 413.075 81.8906 412.649 81.4901C412.232 81.0895 412.023 80.608 412.023 80.0455C412.023 79.483 412.232 79.0014 412.649 78.6009C413.075 78.2003 413.582 78 414.17 78C414.759 78 415.261 78.2003 415.679 78.6009C416.105 79.0014 416.318 79.483 416.318 80.0455C416.318 80.608 416.105 81.0895 415.679 81.4901C415.261 81.8906 414.759 82.0909 414.17 82.0909ZM429.412 105.409C427.52 105.409 425.888 104.991 424.516 104.156C423.152 103.312 422.1 102.136 421.358 100.628C420.625 99.1108 420.259 97.3466 420.259 95.3352C420.259 93.3239 420.625 91.5511 421.358 90.017C422.1 88.4744 423.131 87.2727 424.452 86.4119C425.782 85.5426 427.333 85.108 429.105 85.108C430.128 85.108 431.138 85.2784 432.135 85.6193C433.132 85.9602 434.04 86.5142 434.858 87.2812C435.676 88.0398 436.328 89.0455 436.814 90.2983C437.3 91.5511 437.543 93.0937 437.543 94.9261V96.2045H422.407V93.5966H434.475C434.475 92.4886 434.253 91.5 433.81 90.6307C433.375 89.7614 432.753 89.0753 431.944 88.5724C431.142 88.0696 430.196 87.8182 429.105 87.8182C427.904 87.8182 426.864 88.1165 425.986 88.7131C425.117 89.3011 424.448 90.0682 423.979 91.0142C423.51 91.9602 423.276 92.9744 423.276 94.0568V95.7955C423.276 97.2784 423.532 98.5355 424.043 99.5668C424.563 100.589 425.283 101.369 426.203 101.906C427.124 102.435 428.194 102.699 429.412 102.699C430.205 102.699 430.921 102.588 431.56 102.366C432.208 102.136 432.766 101.795 433.235 101.344C433.703 100.884 434.066 100.312 434.321 99.6307L437.236 100.449C436.929 101.438 436.414 102.307 435.689 103.057C434.965 103.798 434.07 104.378 433.005 104.795C431.939 105.205 430.742 105.409 429.412 105.409ZM453.74 78.8182L461.513 100.858H461.82L469.593 78.8182H472.917L463.303 105H460.03L450.417 78.8182H453.74ZM482.99 105.409C481.098 105.409 479.466 104.991 478.094 104.156C476.73 103.312 475.678 102.136 474.936 100.628C474.203 99.1108 473.837 97.3466 473.837 95.3352C473.837 93.3239 474.203 91.5511 474.936 90.017C475.678 88.4744 476.709 87.2727 478.03 86.4119C479.36 85.5426 480.911 85.108 482.684 85.108C483.706 85.108 484.716 85.2784 485.713 85.6193C486.711 85.9602 487.618 86.5142 488.436 87.2812C489.255 88.0398 489.907 89.0455 490.392 90.2983C490.878 91.5511 491.121 93.0937 491.121 94.9261V96.2045H475.985V93.5966H488.053C488.053 92.4886 487.831 91.5 487.388 90.6307C486.953 89.7614 486.331 89.0753 485.522 88.5724C484.721 88.0696 483.775 87.8182 482.684 87.8182C481.482 87.8182 480.442 88.1165 479.564 88.7131C478.695 89.3011 478.026 90.0682 477.557 91.0142C477.088 91.9602 476.854 92.9744 476.854 94.0568V95.7955C476.854 97.2784 477.11 98.5355 477.621 99.5668C478.141 100.589 478.861 101.369 479.782 101.906C480.702 102.435 481.772 102.699 482.99 102.699C483.783 102.699 484.499 102.588 485.138 102.366C485.786 102.136 486.344 101.795 486.813 101.344C487.282 100.884 487.644 100.312 487.9 99.6307L490.814 100.449C490.507 101.438 489.992 102.307 489.267 103.057C488.543 103.798 487.648 104.378 486.583 104.795C485.517 105.205 484.32 105.409 482.99 105.409ZM495.711 105V85.3636H498.625V88.3295H498.83C499.188 87.358 499.836 86.5696 500.773 85.9645C501.711 85.3594 502.767 85.0568 503.944 85.0568C504.165 85.0568 504.442 85.0611 504.775 85.0696C505.107 85.0781 505.358 85.0909 505.529 85.108V88.1761C505.426 88.1506 505.192 88.1122 504.826 88.0611C504.468 88.0014 504.088 87.9716 503.688 87.9716C502.733 87.9716 501.881 88.1719 501.131 88.5724C500.39 88.9645 499.801 89.5099 499.367 90.2088C498.941 90.8991 498.728 91.6875 498.728 92.5739V105H495.711ZM519.08 85.3636V87.9205H508.495V85.3636H519.08ZM511.665 105V82.6534C511.665 81.5284 511.929 80.5909 512.458 79.8409C512.986 79.0909 513.672 78.5284 514.516 78.1534C515.36 77.7784 516.25 77.5909 517.188 77.5909C517.929 77.5909 518.534 77.6506 519.003 77.7699C519.472 77.8892 519.821 78 520.051 78.1023L519.182 80.7102C519.029 80.6591 518.816 80.5952 518.543 80.5185C518.279 80.4418 517.929 80.4034 517.495 80.4034C516.498 80.4034 515.777 80.6548 515.334 81.1577C514.9 81.6605 514.682 82.3977 514.682 83.3693V105H511.665ZM530.477 105.409C528.704 105.409 527.149 104.987 525.811 104.143C524.481 103.3 523.441 102.119 522.691 100.602C521.95 99.0852 521.579 97.3125 521.579 95.2841C521.579 93.2386 521.95 91.4531 522.691 89.9276C523.441 88.402 524.481 87.2173 525.811 86.3736C527.149 85.5298 528.704 85.108 530.477 85.108C532.25 85.108 533.801 85.5298 535.13 86.3736C536.468 87.2173 537.508 88.402 538.25 89.9276C539 91.4531 539.375 93.2386 539.375 95.2841C539.375 97.3125 539 99.0852 538.25 100.602C537.508 102.119 536.468 103.3 535.13 104.143C533.801 104.987 532.25 105.409 530.477 105.409ZM530.477 102.699C531.824 102.699 532.931 102.354 533.801 101.663C534.67 100.973 535.314 100.065 535.731 98.9403C536.149 97.8153 536.358 96.5966 536.358 95.2841C536.358 93.9716 536.149 92.7486 535.731 91.6151C535.314 90.4815 534.67 89.5653 533.801 88.8665C532.931 88.1676 531.824 87.8182 530.477 87.8182C529.13 87.8182 528.022 88.1676 527.153 88.8665C526.284 89.5653 525.64 90.4815 525.223 91.6151C524.805 92.7486 524.596 93.9716 524.596 95.2841C524.596 96.5966 524.805 97.8153 525.223 98.9403C525.64 100.065 526.284 100.973 527.153 101.663C528.022 102.354 529.13 102.699 530.477 102.699ZM546.997 78.8182V105H543.98V78.8182H546.997ZM560.449 112.773C558.992 112.773 557.739 112.585 556.691 112.21C555.642 111.844 554.769 111.358 554.07 110.753C553.38 110.156 552.83 109.517 552.421 108.835L554.824 107.148C555.097 107.506 555.442 107.915 555.86 108.375C556.277 108.844 556.848 109.249 557.573 109.589C558.306 109.939 559.265 110.114 560.449 110.114C562.034 110.114 563.343 109.73 564.374 108.963C565.405 108.196 565.921 106.994 565.921 105.358V101.369H565.665C565.444 101.727 565.128 102.17 564.719 102.699C564.319 103.219 563.739 103.683 562.98 104.092C562.23 104.493 561.216 104.693 559.938 104.693C558.353 104.693 556.929 104.318 555.668 103.568C554.415 102.818 553.422 101.727 552.689 100.295C551.965 98.8636 551.603 97.125 551.603 95.0795C551.603 93.0682 551.956 91.3168 552.664 89.8253C553.371 88.3253 554.355 87.1662 555.617 86.348C556.878 85.5213 558.336 85.108 559.989 85.108C561.267 85.108 562.282 85.321 563.032 85.7472C563.79 86.1648 564.37 86.642 564.77 87.179C565.179 87.7074 565.495 88.142 565.716 88.483H566.023V85.3636H568.938V105.562C568.938 107.25 568.554 108.622 567.787 109.679C567.029 110.744 566.006 111.524 564.719 112.018C563.441 112.521 562.017 112.773 560.449 112.773ZM560.347 101.983C561.557 101.983 562.58 101.706 563.415 101.152C564.25 100.598 564.885 99.8011 565.32 98.7614C565.755 97.7216 565.972 96.4773 565.972 95.0284C565.972 93.6136 565.759 92.3651 565.333 91.2827C564.907 90.2003 564.276 89.3523 563.441 88.7386C562.605 88.125 561.574 87.8182 560.347 87.8182C559.069 87.8182 558.003 88.142 557.151 88.7898C556.307 89.4375 555.672 90.3068 555.246 91.3977C554.828 92.4886 554.62 93.6989 554.62 95.0284C554.62 96.392 554.833 97.598 555.259 98.6463C555.694 99.6861 556.333 100.504 557.176 101.101C558.029 101.689 559.086 101.983 560.347 101.983ZM586.836 96.9716V85.3636H589.853V105H586.836V101.676H586.631C586.171 102.673 585.455 103.521 584.483 104.22C583.512 104.911 582.284 105.256 580.801 105.256C579.574 105.256 578.483 104.987 577.529 104.45C576.574 103.905 575.824 103.087 575.279 101.996C574.733 100.896 574.461 99.5114 574.461 97.8409V85.3636H577.478V97.6364C577.478 99.0682 577.878 100.21 578.679 101.062C579.489 101.915 580.52 102.341 581.773 102.341C582.523 102.341 583.286 102.149 584.061 101.766C584.846 101.382 585.502 100.794 586.03 100.001C586.567 99.2088 586.836 98.1989 586.836 96.9716ZM598.396 93.1875V105H595.379V85.3636H598.293V88.4318H598.549C599.009 87.4347 599.708 86.6335 600.646 86.0284C601.583 85.4148 602.793 85.108 604.276 85.108C605.606 85.108 606.769 85.3807 607.766 85.9261C608.763 86.4631 609.539 87.2812 610.093 88.3807C610.647 89.4716 610.924 90.8523 610.924 92.5227V105H607.907V92.7273C607.907 91.1847 607.506 89.983 606.705 89.1222C605.904 88.2528 604.805 87.8182 603.407 87.8182C602.444 87.8182 601.583 88.027 600.825 88.4446C600.075 88.8622 599.482 89.4716 599.048 90.2727C598.613 91.0739 598.396 92.0455 598.396 93.1875ZM624.363 112.773C622.906 112.773 621.653 112.585 620.605 112.21C619.556 111.844 618.683 111.358 617.984 110.753C617.294 110.156 616.744 109.517 616.335 108.835L618.738 107.148C619.011 107.506 619.356 107.915 619.774 108.375C620.191 108.844 620.762 109.249 621.487 109.589C622.22 109.939 623.179 110.114 624.363 110.114C625.949 110.114 627.257 109.73 628.288 108.963C629.319 108.196 629.835 106.994 629.835 105.358V101.369H629.579C629.358 101.727 629.042 102.17 628.633 102.699C628.233 103.219 627.653 103.683 626.895 104.092C626.145 104.493 625.13 104.693 623.852 104.693C622.267 104.693 620.843 104.318 619.582 103.568C618.329 102.818 617.336 101.727 616.603 100.295C615.879 98.8636 615.517 97.125 615.517 95.0795C615.517 93.0682 615.87 91.3168 616.578 89.8253C617.285 88.3253 618.27 87.1662 619.531 86.348C620.792 85.5213 622.25 85.108 623.903 85.108C625.181 85.108 626.196 85.321 626.946 85.7472C627.704 86.1648 628.284 86.642 628.684 87.179C629.093 87.7074 629.409 88.142 629.63 88.483H629.937V85.3636H632.852V105.562C632.852 107.25 632.468 108.622 631.701 109.679C630.943 110.744 629.92 111.524 628.633 112.018C627.355 112.521 625.931 112.773 624.363 112.773ZM624.261 101.983C625.471 101.983 626.494 101.706 627.329 101.152C628.164 100.598 628.799 99.8011 629.234 98.7614C629.669 97.7216 629.886 96.4773 629.886 95.0284C629.886 93.6136 629.673 92.3651 629.247 91.2827C628.821 90.2003 628.19 89.3523 627.355 88.7386C626.52 88.125 625.488 87.8182 624.261 87.8182C622.983 87.8182 621.917 88.142 621.065 88.7898C620.221 89.4375 619.586 90.3068 619.16 91.3977C618.743 92.4886 618.534 93.6989 618.534 95.0284C618.534 96.392 618.747 97.598 619.173 98.6463C619.608 99.6861 620.247 100.504 621.091 101.101C621.943 101.689 623 101.983 624.261 101.983ZM655.914 105.409C654.278 105.409 652.833 104.996 651.581 104.169C650.328 103.334 649.348 102.158 648.64 100.641C647.933 99.1151 647.579 97.3125 647.579 95.233C647.579 93.1705 647.933 91.3807 648.64 89.8636C649.348 88.3466 650.332 87.1747 651.593 86.348C652.855 85.5213 654.312 85.108 655.966 85.108C657.244 85.108 658.254 85.321 658.995 85.7472C659.745 86.1648 660.316 86.642 660.708 87.179C661.109 87.7074 661.42 88.142 661.642 88.483H661.897V78.8182H664.914V105H662V101.983H661.642C661.42 102.341 661.105 102.793 660.696 103.338C660.287 103.875 659.703 104.357 658.944 104.783C658.186 105.2 657.176 105.409 655.914 105.409ZM656.324 102.699C657.534 102.699 658.556 102.384 659.392 101.753C660.227 101.114 660.862 100.232 661.297 99.1065C661.731 97.973 661.949 96.6648 661.949 95.1818C661.949 93.7159 661.735 92.4332 661.309 91.3338C660.883 90.2259 660.252 89.3651 659.417 88.7514C658.582 88.1293 657.551 87.8182 656.324 87.8182C655.045 87.8182 653.98 88.1463 653.127 88.8026C652.284 89.4503 651.649 90.3324 651.223 91.4489C650.805 92.5568 650.596 93.8011 650.596 95.1818C650.596 96.5795 650.809 97.8494 651.235 98.9915C651.67 100.125 652.309 101.028 653.153 101.702C654.005 102.366 655.062 102.699 656.324 102.699ZM679.092 105.409C677.2 105.409 675.568 104.991 674.196 104.156C672.832 103.312 671.779 102.136 671.038 100.628C670.305 99.1108 669.939 97.3466 669.939 95.3352C669.939 93.3239 670.305 91.5511 671.038 90.017C671.779 88.4744 672.811 87.2727 674.132 86.4119C675.461 85.5426 677.012 85.108 678.785 85.108C679.808 85.108 680.818 85.2784 681.815 85.6193C682.812 85.9602 683.72 86.5142 684.538 87.2812C685.356 88.0398 686.008 89.0455 686.494 90.2983C686.98 91.5511 687.223 93.0937 687.223 94.9261V96.2045H672.086V93.5966H684.154C684.154 92.4886 683.933 91.5 683.49 90.6307C683.055 89.7614 682.433 89.0753 681.623 88.5724C680.822 88.0696 679.876 87.8182 678.785 87.8182C677.583 87.8182 676.544 88.1165 675.666 88.7131C674.797 89.3011 674.127 90.0682 673.659 91.0142C673.19 91.9602 672.956 92.9744 672.956 94.0568V95.7955C672.956 97.2784 673.211 98.5355 673.723 99.5668C674.243 100.589 674.963 101.369 675.883 101.906C676.804 102.435 677.873 102.699 679.092 102.699C679.885 102.699 680.6 102.588 681.24 102.366C681.887 102.136 682.446 101.795 682.914 101.344C683.383 100.884 683.745 100.312 684.001 99.6307L686.916 100.449C686.609 101.438 686.093 102.307 685.369 103.057C684.645 103.798 683.75 104.378 682.684 104.795C681.619 105.205 680.422 105.409 679.092 105.409ZM691.812 105V85.3636H694.727V88.3295H694.931C695.289 87.358 695.937 86.5696 696.875 85.9645C697.812 85.3594 698.869 85.0568 700.045 85.0568C700.267 85.0568 700.544 85.0611 700.876 85.0696C701.208 85.0781 701.46 85.0909 701.63 85.108V88.1761C701.528 88.1506 701.294 88.1122 700.927 88.0611C700.569 88.0014 700.19 87.9716 699.789 87.9716C698.835 87.9716 697.983 88.1719 697.233 88.5724C696.491 88.9645 695.903 89.5099 695.468 90.2088C695.042 90.8991 694.829 91.6875 694.829 92.5739V105H691.812ZM715.741 105V78.8182H718.911V90.4773H732.871V78.8182H736.042V105H732.871V93.2898H718.911V105H715.741ZM747.759 105.46C746.514 105.46 745.385 105.226 744.371 104.757C743.357 104.28 742.551 103.594 741.955 102.699C741.358 101.795 741.06 100.705 741.06 99.4261C741.06 98.3011 741.281 97.3892 741.724 96.6903C742.168 95.983 742.76 95.429 743.501 95.0284C744.243 94.6278 745.061 94.3295 745.956 94.1335C746.859 93.929 747.767 93.767 748.679 93.6477C749.872 93.4943 750.839 93.3793 751.581 93.3026C752.331 93.2173 752.876 93.0767 753.217 92.8807C753.567 92.6847 753.741 92.3437 753.741 91.858V91.7557C753.741 90.4943 753.396 89.5142 752.706 88.8153C752.024 88.1165 750.989 87.767 749.599 87.767C748.159 87.767 747.03 88.0824 746.212 88.7131C745.393 89.3437 744.818 90.017 744.486 90.733L741.622 89.7102C742.134 88.517 742.815 87.5881 743.668 86.9233C744.528 86.25 745.466 85.7812 746.48 85.517C747.503 85.2443 748.509 85.108 749.497 85.108C750.128 85.108 750.852 85.1847 751.67 85.3381C752.497 85.483 753.294 85.7855 754.061 86.2457C754.837 86.706 755.48 87.4006 755.991 88.3295C756.503 89.2585 756.759 90.5028 756.759 92.0625V105H753.741V102.341H753.588C753.384 102.767 753.043 103.223 752.565 103.709C752.088 104.195 751.453 104.608 750.661 104.949C749.868 105.29 748.901 105.46 747.759 105.46ZM748.219 102.75C749.412 102.75 750.418 102.516 751.236 102.047C752.063 101.578 752.685 100.973 753.102 100.232C753.528 99.4901 753.741 98.7102 753.741 97.892V95.1307C753.614 95.2841 753.332 95.4247 752.898 95.5526C752.472 95.6719 751.977 95.7784 751.415 95.8722C750.861 95.9574 750.32 96.0341 749.791 96.1023C749.271 96.1619 748.849 96.2131 748.526 96.2557C747.741 96.358 747.009 96.5241 746.327 96.7543C745.653 96.9759 745.108 97.3125 744.69 97.7642C744.281 98.2074 744.077 98.8125 744.077 99.5795C744.077 100.628 744.464 101.42 745.24 101.957C746.024 102.486 747.017 102.75 748.219 102.75ZM770.243 105.409C768.402 105.409 766.816 104.974 765.487 104.105C764.157 103.236 763.135 102.038 762.419 100.513C761.703 98.9872 761.345 97.2443 761.345 95.2841C761.345 93.2898 761.711 91.5298 762.444 90.0043C763.186 88.4702 764.217 87.2727 765.538 86.4119C766.868 85.5426 768.419 85.108 770.191 85.108C771.572 85.108 772.816 85.3636 773.924 85.875C775.032 86.3864 775.94 87.1023 776.647 88.0227C777.355 88.9432 777.794 90.017 777.964 91.2443H774.947C774.717 90.3494 774.206 89.5568 773.413 88.8665C772.629 88.1676 771.572 87.8182 770.243 87.8182C769.066 87.8182 768.035 88.125 767.149 88.7386C766.271 89.3437 765.585 90.2003 765.091 91.3082C764.605 92.4077 764.362 93.6989 764.362 95.1818C764.362 96.6989 764.6 98.0199 765.078 99.1449C765.564 100.27 766.245 101.143 767.123 101.766C768.01 102.388 769.049 102.699 770.243 102.699C771.027 102.699 771.738 102.562 772.377 102.29C773.017 102.017 773.558 101.625 774.001 101.114C774.444 100.602 774.76 99.9886 774.947 99.2727H777.964C777.794 100.432 777.372 101.476 776.699 102.405C776.034 103.325 775.152 104.058 774.052 104.604C772.961 105.141 771.691 105.409 770.243 105.409ZM785.187 97.8409L785.136 94.108H785.75L794.341 85.3636H798.074L788.92 94.6193H788.664L785.187 97.8409ZM782.375 105V78.8182H785.392V105H782.375ZM794.852 105L787.181 95.2841L789.329 93.1875L798.687 105H794.852ZM809.381 105.409C807.489 105.409 805.857 104.991 804.485 104.156C803.121 103.312 802.069 102.136 801.327 100.628C800.594 99.1108 800.228 97.3466 800.228 95.3352C800.228 93.3239 800.594 91.5511 801.327 90.017C802.069 88.4744 803.1 87.2727 804.421 86.4119C805.75 85.5426 807.301 85.108 809.074 85.108C810.097 85.108 811.107 85.2784 812.104 85.6193C813.101 85.9602 814.009 86.5142 814.827 87.2812C815.645 88.0398 816.297 89.0455 816.783 90.2983C817.269 91.5511 817.512 93.0937 817.512 94.9261V96.2045H802.375V93.5966H814.444C814.444 92.4886 814.222 91.5 813.779 90.6307C813.344 89.7614 812.722 89.0753 811.912 88.5724C811.111 88.0696 810.165 87.8182 809.074 87.8182C807.873 87.8182 806.833 88.1165 805.955 88.7131C805.086 89.3011 804.417 90.0682 803.948 91.0142C803.479 91.9602 803.245 92.9744 803.245 94.0568V95.7955C803.245 97.2784 803.5 98.5355 804.012 99.5668C804.532 100.589 805.252 101.369 806.172 101.906C807.093 102.435 808.162 102.699 809.381 102.699C810.174 102.699 810.89 102.588 811.529 102.366C812.176 102.136 812.735 101.795 813.203 101.344C813.672 100.884 814.034 100.312 814.29 99.6307L817.205 100.449C816.898 101.438 816.382 102.307 815.658 103.057C814.934 103.798 814.039 104.378 812.973 104.795C811.908 105.205 810.711 105.409 809.381 105.409ZM822.101 105V85.3636H825.016V88.3295H825.221C825.578 87.358 826.226 86.5696 827.164 85.9645C828.101 85.3594 829.158 85.0568 830.334 85.0568C830.556 85.0568 830.833 85.0611 831.165 85.0696C831.498 85.0781 831.749 85.0909 831.919 85.108V88.1761C831.817 88.1506 831.583 88.1122 831.216 88.0611C830.858 88.0014 830.479 87.9716 830.078 87.9716C829.124 87.9716 828.272 88.1719 827.522 88.5724C826.78 88.9645 826.192 89.5099 825.757 90.2088C825.331 90.8991 825.118 91.6875 825.118 92.5739V105H822.101ZM399.136 140.972V129.364H402.153V149H399.136V145.676H398.932C398.472 146.673 397.756 147.521 396.784 148.22C395.813 148.911 394.585 149.256 393.102 149.256C391.875 149.256 390.784 148.987 389.83 148.45C388.875 147.905 388.125 147.087 387.58 145.996C387.034 144.896 386.761 143.511 386.761 141.841V129.364H389.778V141.636C389.778 143.068 390.179 144.21 390.98 145.062C391.79 145.915 392.821 146.341 394.074 146.341C394.824 146.341 395.587 146.149 396.362 145.766C397.146 145.382 397.803 144.794 398.331 144.001C398.868 143.209 399.136 142.199 399.136 140.972ZM390.801 126.091C390.264 126.091 389.787 125.886 389.369 125.477C388.96 125.06 388.756 124.582 388.756 124.045C388.756 123.457 388.96 122.972 389.369 122.588C389.787 122.196 390.264 122 390.801 122C391.389 122 391.875 122.196 392.259 122.588C392.651 122.972 392.847 123.457 392.847 124.045C392.847 124.582 392.651 125.06 392.259 125.477C391.875 125.886 391.389 126.091 390.801 126.091ZM398.165 126.091C397.628 126.091 397.151 125.886 396.733 125.477C396.324 125.06 396.119 124.582 396.119 124.045C396.119 123.457 396.324 122.972 396.733 122.588C397.151 122.196 397.628 122 398.165 122C398.753 122 399.239 122.196 399.622 122.588C400.014 122.972 400.21 123.457 400.21 124.045C400.21 124.582 400.014 125.06 399.622 125.477C399.239 125.886 398.753 126.091 398.165 126.091ZM408.088 149V122.818H411.105V132.483H411.361C411.583 132.142 411.89 131.707 412.282 131.179C412.682 130.642 413.253 130.165 413.995 129.747C414.745 129.321 415.759 129.108 417.037 129.108C418.691 129.108 420.148 129.521 421.409 130.348C422.671 131.175 423.655 132.347 424.363 133.864C425.07 135.381 425.424 137.17 425.424 139.233C425.424 141.312 425.07 143.115 424.363 144.641C423.655 146.158 422.675 147.334 421.422 148.169C420.169 148.996 418.725 149.409 417.088 149.409C415.827 149.409 414.817 149.2 414.059 148.783C413.3 148.357 412.716 147.875 412.307 147.338C411.898 146.793 411.583 146.341 411.361 145.983H411.003V149H408.088ZM411.054 139.182C411.054 140.665 411.272 141.973 411.706 143.107C412.141 144.232 412.776 145.114 413.611 145.753C414.446 146.384 415.469 146.699 416.679 146.699C417.941 146.699 418.993 146.366 419.837 145.702C420.689 145.028 421.328 144.125 421.755 142.991C422.189 141.849 422.407 140.58 422.407 139.182C422.407 137.801 422.194 136.557 421.767 135.449C421.35 134.332 420.715 133.45 419.863 132.803C419.019 132.146 417.958 131.818 416.679 131.818C415.452 131.818 414.421 132.129 413.586 132.751C412.75 133.365 412.12 134.226 411.694 135.334C411.267 136.433 411.054 137.716 411.054 139.182ZM438.272 149.409C436.38 149.409 434.748 148.991 433.375 148.156C432.012 147.312 430.959 146.136 430.218 144.628C429.485 143.111 429.118 141.347 429.118 139.335C429.118 137.324 429.485 135.551 430.218 134.017C430.959 132.474 431.99 131.273 433.311 130.412C434.641 129.543 436.192 129.108 437.965 129.108C438.988 129.108 439.998 129.278 440.995 129.619C441.992 129.96 442.9 130.514 443.718 131.281C444.536 132.04 445.188 133.045 445.674 134.298C446.159 135.551 446.402 137.094 446.402 138.926V140.205H431.266V137.597H443.334C443.334 136.489 443.113 135.5 442.669 134.631C442.235 133.761 441.613 133.075 440.803 132.572C440.002 132.07 439.056 131.818 437.965 131.818C436.763 131.818 435.723 132.116 434.846 132.713C433.976 133.301 433.307 134.068 432.838 135.014C432.37 135.96 432.135 136.974 432.135 138.057V139.795C432.135 141.278 432.391 142.536 432.902 143.567C433.422 144.589 434.142 145.369 435.063 145.906C435.983 146.435 437.053 146.699 438.272 146.699C439.064 146.699 439.78 146.588 440.419 146.366C441.067 146.136 441.625 145.795 442.094 145.344C442.563 144.884 442.925 144.312 443.181 143.631L446.096 144.449C445.789 145.438 445.273 146.307 444.549 147.057C443.824 147.798 442.929 148.378 441.864 148.795C440.799 149.205 439.601 149.409 438.272 149.409ZM450.992 149V129.364H453.907V132.33H454.111C454.469 131.358 455.117 130.57 456.054 129.964C456.992 129.359 458.049 129.057 459.225 129.057C459.446 129.057 459.723 129.061 460.056 129.07C460.388 129.078 460.64 129.091 460.81 129.108V132.176C460.708 132.151 460.473 132.112 460.107 132.061C459.749 132.001 459.37 131.972 458.969 131.972C458.015 131.972 457.162 132.172 456.412 132.572C455.671 132.964 455.083 133.51 454.648 134.209C454.222 134.899 454.009 135.687 454.009 136.574V149H450.992ZM467.403 122.818V149H464.386V122.818H467.403ZM478.708 149.46C477.463 149.46 476.334 149.226 475.32 148.757C474.306 148.28 473.5 147.594 472.904 146.699C472.307 145.795 472.009 144.705 472.009 143.426C472.009 142.301 472.23 141.389 472.674 140.69C473.117 139.983 473.709 139.429 474.451 139.028C475.192 138.628 476.01 138.33 476.905 138.134C477.809 137.929 478.716 137.767 479.628 137.648C480.821 137.494 481.789 137.379 482.53 137.303C483.28 137.217 483.826 137.077 484.167 136.881C484.516 136.685 484.691 136.344 484.691 135.858V135.756C484.691 134.494 484.346 133.514 483.655 132.815C482.973 132.116 481.938 131.767 480.549 131.767C479.108 131.767 477.979 132.082 477.161 132.713C476.343 133.344 475.767 134.017 475.435 134.733L472.571 133.71C473.083 132.517 473.765 131.588 474.617 130.923C475.478 130.25 476.415 129.781 477.429 129.517C478.452 129.244 479.458 129.108 480.446 129.108C481.077 129.108 481.801 129.185 482.62 129.338C483.446 129.483 484.243 129.786 485.01 130.246C485.786 130.706 486.429 131.401 486.941 132.33C487.452 133.259 487.708 134.503 487.708 136.062V149H484.691V146.341H484.537C484.333 146.767 483.992 147.223 483.515 147.709C483.037 148.195 482.402 148.608 481.61 148.949C480.817 149.29 479.85 149.46 478.708 149.46ZM479.168 146.75C480.361 146.75 481.367 146.516 482.185 146.047C483.012 145.578 483.634 144.973 484.051 144.232C484.478 143.49 484.691 142.71 484.691 141.892V139.131C484.563 139.284 484.282 139.425 483.847 139.553C483.421 139.672 482.926 139.778 482.364 139.872C481.81 139.957 481.269 140.034 480.74 140.102C480.221 140.162 479.799 140.213 479.475 140.256C478.691 140.358 477.958 140.524 477.276 140.754C476.603 140.976 476.057 141.312 475.64 141.764C475.23 142.207 475.026 142.812 475.026 143.58C475.026 144.628 475.414 145.42 476.189 145.957C476.973 146.486 477.966 146.75 479.168 146.75ZM507.124 133.761L504.413 134.528C504.243 134.077 503.991 133.638 503.659 133.212C503.335 132.777 502.892 132.419 502.33 132.138C501.767 131.857 501.047 131.716 500.169 131.716C498.967 131.716 497.966 131.993 497.165 132.547C496.372 133.092 495.976 133.787 495.976 134.631C495.976 135.381 496.249 135.973 496.794 136.408C497.339 136.842 498.192 137.205 499.351 137.494L502.266 138.21C504.021 138.636 505.33 139.288 506.19 140.166C507.051 141.036 507.482 142.156 507.482 143.528C507.482 144.653 507.158 145.659 506.51 146.545C505.871 147.432 504.976 148.131 503.825 148.642C502.675 149.153 501.337 149.409 499.811 149.409C497.808 149.409 496.151 148.974 494.838 148.105C493.526 147.236 492.695 145.966 492.345 144.295L495.209 143.58C495.482 144.636 495.997 145.429 496.756 145.957C497.523 146.486 498.524 146.75 499.76 146.75C501.166 146.75 502.283 146.452 503.109 145.855C503.945 145.25 504.362 144.526 504.362 143.682C504.362 143 504.124 142.429 503.646 141.969C503.169 141.5 502.436 141.151 501.447 140.92L498.175 140.153C496.376 139.727 495.055 139.067 494.212 138.172C493.376 137.268 492.959 136.139 492.959 134.784C492.959 133.676 493.27 132.696 493.892 131.844C494.523 130.991 495.379 130.322 496.462 129.837C497.553 129.351 498.788 129.108 500.169 129.108C502.112 129.108 503.638 129.534 504.746 130.386C505.862 131.239 506.655 132.364 507.124 133.761ZM525.932 133.761L523.222 134.528C523.051 134.077 522.8 133.638 522.468 133.212C522.144 132.777 521.701 132.419 521.138 132.138C520.576 131.857 519.855 131.716 518.978 131.716C517.776 131.716 516.775 131.993 515.973 132.547C515.181 133.092 514.784 133.787 514.784 134.631C514.784 135.381 515.057 135.973 515.603 136.408C516.148 136.842 517 137.205 518.159 137.494L521.074 138.21C522.83 138.636 524.138 139.288 524.999 140.166C525.86 141.036 526.29 142.156 526.29 143.528C526.29 144.653 525.966 145.659 525.319 146.545C524.679 147.432 523.784 148.131 522.634 148.642C521.483 149.153 520.145 149.409 518.62 149.409C516.617 149.409 514.959 148.974 513.647 148.105C512.334 147.236 511.503 145.966 511.154 144.295L514.017 143.58C514.29 144.636 514.806 145.429 515.564 145.957C516.331 146.486 517.333 146.75 518.569 146.75C519.975 146.75 521.091 146.452 521.918 145.855C522.753 145.25 523.171 144.526 523.171 143.682C523.171 143 522.932 142.429 522.455 141.969C521.978 141.5 521.245 141.151 520.256 140.92L516.983 140.153C515.185 139.727 513.864 139.067 513.02 138.172C512.185 137.268 511.767 136.139 511.767 134.784C511.767 133.676 512.078 132.696 512.701 131.844C513.331 130.991 514.188 130.322 515.27 129.837C516.361 129.351 517.597 129.108 518.978 129.108C520.921 129.108 522.446 129.534 523.554 130.386C524.671 131.239 525.463 132.364 525.932 133.761ZM539.065 149.409C537.173 149.409 535.54 148.991 534.168 148.156C532.805 147.312 531.752 146.136 531.011 144.628C530.278 143.111 529.911 141.347 529.911 139.335C529.911 137.324 530.278 135.551 531.011 134.017C531.752 132.474 532.783 131.273 534.104 130.412C535.434 129.543 536.985 129.108 538.758 129.108C539.781 129.108 540.79 129.278 541.788 129.619C542.785 129.96 543.692 130.514 544.511 131.281C545.329 132.04 545.981 133.045 546.467 134.298C546.952 135.551 547.195 137.094 547.195 138.926V140.205H532.059V137.597H544.127C544.127 136.489 543.906 135.5 543.462 134.631C543.028 133.761 542.406 133.075 541.596 132.572C540.795 132.07 539.849 131.818 538.758 131.818C537.556 131.818 536.516 132.116 535.638 132.713C534.769 133.301 534.1 134.068 533.631 135.014C533.163 135.96 532.928 136.974 532.928 138.057V139.795C532.928 141.278 533.184 142.536 533.695 143.567C534.215 144.589 534.935 145.369 535.856 145.906C536.776 146.435 537.846 146.699 539.065 146.699C539.857 146.699 540.573 146.588 541.212 146.366C541.86 146.136 542.418 145.795 542.887 145.344C543.356 144.884 543.718 144.312 543.974 143.631L546.888 144.449C546.582 145.438 546.066 146.307 545.342 147.057C544.617 147.798 543.722 148.378 542.657 148.795C541.592 149.205 540.394 149.409 539.065 149.409ZM554.802 137.188V149H551.785V129.364H554.7V132.432H554.955C555.415 131.435 556.114 130.634 557.052 130.028C557.989 129.415 559.2 129.108 560.683 129.108C562.012 129.108 563.175 129.381 564.173 129.926C565.17 130.463 565.945 131.281 566.499 132.381C567.053 133.472 567.33 134.852 567.33 136.523V149H564.313V136.727C564.313 135.185 563.913 133.983 563.112 133.122C562.31 132.253 561.211 131.818 559.813 131.818C558.85 131.818 557.989 132.027 557.231 132.445C556.481 132.862 555.888 133.472 555.454 134.273C555.019 135.074 554.802 136.045 554.802 137.188ZM587.417 149L581.434 129.364H584.605L588.849 144.398H589.054L593.247 129.364H596.468L600.61 144.347H600.815L605.059 129.364H608.23L602.247 149H599.281L594.985 133.915H594.679L590.383 149H587.417ZM612.218 149V129.364H615.235V149H612.218ZM613.752 126.091C613.164 126.091 612.657 125.891 612.231 125.49C611.814 125.089 611.605 124.608 611.605 124.045C611.605 123.483 611.814 123.001 612.231 122.601C612.657 122.2 613.164 122 613.752 122C614.341 122 614.843 122.2 615.261 122.601C615.687 123.001 615.9 123.483 615.9 124.045C615.9 124.608 615.687 125.089 615.261 125.49C614.843 125.891 614.341 126.091 613.752 126.091ZM620.761 149V129.364H623.676V132.33H623.881C624.239 131.358 624.886 130.57 625.824 129.964C626.761 129.359 627.818 129.057 628.994 129.057C629.216 129.057 629.493 129.061 629.825 129.07C630.158 129.078 630.409 129.091 630.58 129.108V132.176C630.477 132.151 630.243 132.112 629.876 132.061C629.518 132.001 629.139 131.972 628.739 131.972C627.784 131.972 626.932 132.172 626.182 132.572C625.44 132.964 624.852 133.51 624.418 134.209C623.991 134.899 623.778 135.687 623.778 136.574V149H620.761ZM650.059 149.46C648.815 149.46 647.686 149.226 646.672 148.757C645.657 148.28 644.852 147.594 644.255 146.699C643.659 145.795 643.36 144.705 643.36 143.426C643.36 142.301 643.582 141.389 644.025 140.69C644.468 139.983 645.061 139.429 645.802 139.028C646.544 138.628 647.362 138.33 648.257 138.134C649.16 137.929 650.068 137.767 650.98 137.648C652.173 137.494 653.14 137.379 653.882 137.303C654.632 137.217 655.177 137.077 655.518 136.881C655.868 136.685 656.042 136.344 656.042 135.858V135.756C656.042 134.494 655.697 133.514 655.007 132.815C654.325 132.116 653.289 131.767 651.9 131.767C650.46 131.767 649.331 132.082 648.512 132.713C647.694 133.344 647.119 134.017 646.787 134.733L643.923 133.71C644.434 132.517 645.116 131.588 645.968 130.923C646.829 130.25 647.767 129.781 648.781 129.517C649.804 129.244 650.809 129.108 651.798 129.108C652.429 129.108 653.153 129.185 653.971 129.338C654.798 129.483 655.595 129.786 656.362 130.246C657.137 130.706 657.781 131.401 658.292 132.33C658.804 133.259 659.059 134.503 659.059 136.062V149H656.042V146.341H655.889C655.684 146.767 655.343 147.223 654.866 147.709C654.389 148.195 653.754 148.608 652.961 148.949C652.169 149.29 651.201 149.46 650.059 149.46ZM650.52 146.75C651.713 146.75 652.718 146.516 653.537 146.047C654.363 145.578 654.985 144.973 655.403 144.232C655.829 143.49 656.042 142.71 656.042 141.892V139.131C655.914 139.284 655.633 139.425 655.199 139.553C654.772 139.672 654.278 139.778 653.716 139.872C653.162 139.957 652.62 140.034 652.092 140.102C651.572 140.162 651.15 140.213 650.826 140.256C650.042 140.358 649.309 140.524 648.627 140.754C647.954 140.976 647.409 141.312 646.991 141.764C646.582 142.207 646.377 142.812 646.377 143.58C646.377 144.628 646.765 145.42 647.541 145.957C648.325 146.486 649.318 146.75 650.52 146.75ZM664.566 149V129.364H667.481V132.432H667.737C668.146 131.384 668.806 130.57 669.718 129.99C670.63 129.402 671.725 129.108 673.004 129.108C674.299 129.108 675.377 129.402 676.238 129.99C677.107 130.57 677.785 131.384 678.271 132.432H678.475C678.978 131.418 679.732 130.612 680.738 130.016C681.744 129.411 682.95 129.108 684.356 129.108C686.112 129.108 687.548 129.658 688.664 130.757C689.781 131.848 690.339 133.548 690.339 135.858V149H687.322V135.858C687.322 134.409 686.925 133.374 686.133 132.751C685.34 132.129 684.407 131.818 683.333 131.818C681.952 131.818 680.883 132.236 680.124 133.071C679.366 133.898 678.987 134.946 678.987 136.216V149H675.918V135.551C675.918 134.435 675.556 133.536 674.832 132.854C674.107 132.163 673.174 131.818 672.032 131.818C671.248 131.818 670.515 132.027 669.833 132.445C669.16 132.862 668.614 133.442 668.197 134.183C667.788 134.916 667.583 135.764 667.583 136.727V149H664.566ZM706.389 149V122.818H709.406V132.483H709.662C709.884 132.142 710.19 131.707 710.582 131.179C710.983 130.642 711.554 130.165 712.295 129.747C713.045 129.321 714.06 129.108 715.338 129.108C716.991 129.108 718.449 129.521 719.71 130.348C720.972 131.175 721.956 132.347 722.663 133.864C723.371 135.381 723.724 137.17 723.724 139.233C723.724 141.312 723.371 143.115 722.663 144.641C721.956 146.158 720.976 147.334 719.723 148.169C718.47 148.996 717.026 149.409 715.389 149.409C714.128 149.409 713.118 149.2 712.359 148.783C711.601 148.357 711.017 147.875 710.608 147.338C710.199 146.793 709.884 146.341 709.662 145.983H709.304V149H706.389ZM709.355 139.182C709.355 140.665 709.572 141.973 710.007 143.107C710.442 144.232 711.077 145.114 711.912 145.753C712.747 146.384 713.77 146.699 714.98 146.699C716.241 146.699 717.294 146.366 718.138 145.702C718.99 145.028 719.629 144.125 720.055 142.991C720.49 141.849 720.707 140.58 720.707 139.182C720.707 137.801 720.494 136.557 720.068 135.449C719.651 134.332 719.016 133.45 718.163 132.803C717.32 132.146 716.259 131.818 714.98 131.818C713.753 131.818 712.722 132.129 711.886 132.751C711.051 133.365 710.42 134.226 709.994 135.334C709.568 136.433 709.355 137.716 709.355 139.182ZM736.572 149.409C734.68 149.409 733.048 148.991 731.676 148.156C730.312 147.312 729.26 146.136 728.518 144.628C727.786 143.111 727.419 141.347 727.419 139.335C727.419 137.324 727.786 135.551 728.518 134.017C729.26 132.474 730.291 131.273 731.612 130.412C732.942 129.543 734.493 129.108 736.266 129.108C737.288 129.108 738.298 129.278 739.295 129.619C740.293 129.96 741.2 130.514 742.018 131.281C742.837 132.04 743.489 133.045 743.974 134.298C744.46 135.551 744.703 137.094 744.703 138.926V140.205H729.567V137.597H741.635C741.635 136.489 741.413 135.5 740.97 134.631C740.536 133.761 739.913 133.075 739.104 132.572C738.303 132.07 737.357 131.818 736.266 131.818C735.064 131.818 734.024 132.116 733.146 132.713C732.277 133.301 731.608 134.068 731.139 135.014C730.67 135.96 730.436 136.974 730.436 138.057V139.795C730.436 141.278 730.692 142.536 731.203 143.567C731.723 144.589 732.443 145.369 733.364 145.906C734.284 146.435 735.354 146.699 736.572 146.699C737.365 146.699 738.081 146.588 738.72 146.366C739.368 146.136 739.926 145.795 740.395 145.344C740.864 144.884 741.226 144.312 741.482 143.631L744.396 144.449C744.089 145.438 743.574 146.307 742.849 147.057C742.125 147.798 741.23 148.378 740.165 148.795C739.099 149.205 737.902 149.409 736.572 149.409ZM763.202 133.761L760.491 134.528C760.321 134.077 760.07 133.638 759.737 133.212C759.413 132.777 758.97 132.419 758.408 132.138C757.845 131.857 757.125 131.716 756.247 131.716C755.045 131.716 754.044 131.993 753.243 132.547C752.45 133.092 752.054 133.787 752.054 134.631C752.054 135.381 752.327 135.973 752.872 136.408C753.418 136.842 754.27 137.205 755.429 137.494L758.344 138.21C760.099 138.636 761.408 139.288 762.268 140.166C763.129 141.036 763.56 142.156 763.56 143.528C763.56 144.653 763.236 145.659 762.588 146.545C761.949 147.432 761.054 148.131 759.903 148.642C758.753 149.153 757.415 149.409 755.889 149.409C753.886 149.409 752.229 148.974 750.916 148.105C749.604 147.236 748.773 145.966 748.423 144.295L751.287 143.58C751.56 144.636 752.075 145.429 752.834 145.957C753.601 146.486 754.602 146.75 755.838 146.75C757.244 146.75 758.361 146.452 759.188 145.855C760.023 145.25 760.44 144.526 760.44 143.682C760.44 143 760.202 142.429 759.724 141.969C759.247 141.5 758.514 141.151 757.526 140.92L754.253 140.153C752.455 139.727 751.134 139.067 750.29 138.172C749.455 137.268 749.037 136.139 749.037 134.784C749.037 133.676 749.348 132.696 749.97 131.844C750.601 130.991 751.457 130.322 752.54 129.837C753.631 129.351 754.866 129.108 756.247 129.108C758.19 129.108 759.716 129.534 760.824 130.386C761.94 131.239 762.733 132.364 763.202 133.761ZM776.641 129.364V131.92H766.465V129.364H776.641ZM769.431 124.659H772.448V143.375C772.448 144.227 772.571 144.866 772.819 145.293C773.074 145.71 773.398 145.991 773.79 146.136C774.191 146.273 774.613 146.341 775.056 146.341C775.388 146.341 775.661 146.324 775.874 146.29C776.087 146.247 776.257 146.213 776.385 146.188L776.999 148.898C776.794 148.974 776.509 149.051 776.142 149.128C775.776 149.213 775.311 149.256 774.749 149.256C773.897 149.256 773.061 149.072 772.243 148.706C771.434 148.339 770.76 147.781 770.223 147.031C769.695 146.281 769.431 145.335 769.431 144.193V124.659ZM789.201 149.409C787.309 149.409 785.677 148.991 784.305 148.156C782.941 147.312 781.889 146.136 781.147 144.628C780.414 143.111 780.048 141.347 780.048 139.335C780.048 137.324 780.414 135.551 781.147 134.017C781.889 132.474 782.92 131.273 784.241 130.412C785.571 129.543 787.122 129.108 788.895 129.108C789.917 129.108 790.927 129.278 791.924 129.619C792.922 129.96 793.829 130.514 794.647 131.281C795.466 132.04 796.118 133.045 796.603 134.298C797.089 135.551 797.332 137.094 797.332 138.926V140.205H782.196V137.597H794.264C794.264 136.489 794.042 135.5 793.599 134.631C793.164 133.761 792.542 133.075 791.733 132.572C790.931 132.07 789.985 131.818 788.895 131.818C787.693 131.818 786.653 132.116 785.775 132.713C784.906 133.301 784.237 134.068 783.768 135.014C783.299 135.96 783.065 136.974 783.065 138.057V139.795C783.065 141.278 783.321 142.536 783.832 143.567C784.352 144.589 785.072 145.369 785.993 145.906C786.913 146.435 787.983 146.699 789.201 146.699C789.994 146.699 790.71 146.588 791.349 146.366C791.997 146.136 792.555 145.795 793.024 145.344C793.493 144.884 793.855 144.312 794.11 143.631L797.025 144.449C796.718 145.438 796.203 146.307 795.478 147.057C794.754 147.798 793.859 148.378 792.794 148.795C791.728 149.205 790.531 149.409 789.201 149.409ZM804.939 137.188V149H801.922V129.364H804.836V132.432H805.092C805.552 131.435 806.251 130.634 807.189 130.028C808.126 129.415 809.336 129.108 810.819 129.108C812.149 129.108 813.312 129.381 814.309 129.926C815.306 130.463 816.082 131.281 816.636 132.381C817.19 133.472 817.467 134.852 817.467 136.523V149H814.45V136.727C814.45 135.185 814.049 133.983 813.248 133.122C812.447 132.253 811.348 131.818 809.95 131.818C808.987 131.818 808.126 132.027 807.368 132.445C806.618 132.862 806.025 133.472 805.591 134.273C805.156 135.074 804.939 136.045 804.939 137.188ZM840.52 149.409C838.884 149.409 837.439 148.996 836.186 148.169C834.933 147.334 833.953 146.158 833.246 144.641C832.538 143.115 832.185 141.312 832.185 139.233C832.185 137.17 832.538 135.381 833.246 133.864C833.953 132.347 834.938 131.175 836.199 130.348C837.46 129.521 838.918 129.108 840.571 129.108C841.849 129.108 842.859 129.321 843.601 129.747C844.351 130.165 844.922 130.642 845.314 131.179C845.714 131.707 846.026 132.142 846.247 132.483H846.503V122.818H849.52V149H846.605V145.983H846.247C846.026 146.341 845.71 146.793 845.301 147.338C844.892 147.875 844.308 148.357 843.55 148.783C842.791 149.2 841.781 149.409 840.52 149.409ZM840.929 146.699C842.139 146.699 843.162 146.384 843.997 145.753C844.832 145.114 845.467 144.232 845.902 143.107C846.337 141.973 846.554 140.665 846.554 139.182C846.554 137.716 846.341 136.433 845.915 135.334C845.489 134.226 844.858 133.365 844.023 132.751C843.188 132.129 842.156 131.818 840.929 131.818C839.651 131.818 838.585 132.146 837.733 132.803C836.889 133.45 836.254 134.332 835.828 135.449C835.411 136.557 835.202 137.801 835.202 139.182C835.202 140.58 835.415 141.849 835.841 142.991C836.276 144.125 836.915 145.028 837.759 145.702C838.611 146.366 839.668 146.699 840.929 146.699ZM863.697 149.409C861.805 149.409 860.173 148.991 858.801 148.156C857.438 147.312 856.385 146.136 855.643 144.628C854.911 143.111 854.544 141.347 854.544 139.335C854.544 137.324 854.911 135.551 855.643 134.017C856.385 132.474 857.416 131.273 858.737 130.412C860.067 129.543 861.618 129.108 863.391 129.108C864.413 129.108 865.423 129.278 866.42 129.619C867.418 129.96 868.325 130.514 869.143 131.281C869.962 132.04 870.614 133.045 871.099 134.298C871.585 135.551 871.828 137.094 871.828 138.926V140.205H856.692V137.597H868.76C868.76 136.489 868.538 135.5 868.095 134.631C867.661 133.761 867.038 133.075 866.229 132.572C865.428 132.07 864.482 131.818 863.391 131.818C862.189 131.818 861.149 132.116 860.271 132.713C859.402 133.301 858.733 134.068 858.264 135.014C857.795 135.96 857.561 136.974 857.561 138.057V139.795C857.561 141.278 857.817 142.536 858.328 143.567C858.848 144.589 859.568 145.369 860.489 145.906C861.409 146.435 862.479 146.699 863.697 146.699C864.49 146.699 865.206 146.588 865.845 146.366C866.493 146.136 867.051 145.795 867.52 145.344C867.989 144.884 868.351 144.312 868.607 143.631L871.521 144.449C871.214 145.438 870.699 146.307 869.974 147.057C869.25 147.798 868.355 148.378 867.29 148.795C866.224 149.205 865.027 149.409 863.697 149.409ZM879.435 137.188V149H876.418V129.364H879.332V132.432H879.588C880.048 131.435 880.747 130.634 881.685 130.028C882.622 129.415 883.832 129.108 885.315 129.108C886.645 129.108 887.808 129.381 888.805 129.926C889.803 130.463 890.578 131.281 891.132 132.381C891.686 133.472 891.963 134.852 891.963 136.523V149H888.946V136.727C888.946 135.185 888.545 133.983 887.744 133.122C886.943 132.253 885.844 131.818 884.446 131.818C883.483 131.818 882.622 132.027 881.864 132.445C881.114 132.862 880.521 133.472 880.087 134.273C879.652 135.074 879.435 136.045 879.435 137.188ZM387.17 193V166.818H402.972V169.631H390.341V178.477H402.153V181.29H390.341V190.188H403.176V193H387.17ZM410.527 173.364L415.232 181.392L419.936 173.364H423.413L417.072 183.182L423.413 193H419.936L415.232 185.381L410.527 193H407.05L413.288 183.182L407.05 173.364H410.527ZM427.718 200.364V173.364H430.633V176.483H430.991C431.213 176.142 431.52 175.707 431.912 175.179C432.312 174.642 432.883 174.165 433.625 173.747C434.375 173.321 435.389 173.108 436.667 173.108C438.321 173.108 439.778 173.521 441.039 174.348C442.301 175.175 443.285 176.347 443.993 177.864C444.7 179.381 445.054 181.17 445.054 183.233C445.054 185.312 444.7 187.115 443.993 188.641C443.285 190.158 442.305 191.334 441.052 192.169C439.799 192.996 438.355 193.409 436.718 193.409C435.457 193.409 434.447 193.2 433.689 192.783C432.93 192.357 432.346 191.875 431.937 191.338C431.528 190.793 431.213 190.341 430.991 189.983H430.735V200.364H427.718ZM430.684 183.182C430.684 184.665 430.902 185.973 431.336 187.107C431.771 188.232 432.406 189.114 433.241 189.753C434.076 190.384 435.099 190.699 436.309 190.699C437.571 190.699 438.623 190.366 439.467 189.702C440.319 189.028 440.958 188.125 441.385 186.991C441.819 185.849 442.037 184.58 442.037 183.182C442.037 181.801 441.824 180.557 441.397 179.449C440.98 178.332 440.345 177.45 439.493 176.803C438.649 176.146 437.588 175.818 436.309 175.818C435.082 175.818 434.051 176.129 433.216 176.751C432.38 177.365 431.75 178.226 431.324 179.334C430.897 180.433 430.684 181.716 430.684 183.182ZM457.889 193.409C455.997 193.409 454.365 192.991 452.993 192.156C451.629 191.312 450.576 190.136 449.835 188.628C449.102 187.111 448.735 185.347 448.735 183.335C448.735 181.324 449.102 179.551 449.835 178.017C450.576 176.474 451.608 175.273 452.929 174.412C454.258 173.543 455.809 173.108 457.582 173.108C458.605 173.108 459.615 173.278 460.612 173.619C461.609 173.96 462.517 174.514 463.335 175.281C464.153 176.04 464.805 177.045 465.291 178.298C465.777 179.551 466.02 181.094 466.02 182.926V184.205H450.883V181.597H462.951C462.951 180.489 462.73 179.5 462.287 178.631C461.852 177.761 461.23 177.075 460.42 176.572C459.619 176.07 458.673 175.818 457.582 175.818C456.38 175.818 455.341 176.116 454.463 176.713C453.593 177.301 452.924 178.068 452.456 179.014C451.987 179.96 451.752 180.974 451.752 182.057V183.795C451.752 185.278 452.008 186.536 452.52 187.567C453.039 188.589 453.76 189.369 454.68 189.906C455.6 190.435 456.67 190.699 457.889 190.699C458.681 190.699 459.397 190.588 460.037 190.366C460.684 190.136 461.243 189.795 461.711 189.344C462.18 188.884 462.542 188.312 462.798 187.631L465.713 188.449C465.406 189.438 464.89 190.307 464.166 191.057C463.441 191.798 462.547 192.378 461.481 192.795C460.416 193.205 459.218 193.409 457.889 193.409ZM470.609 193V173.364H473.524V176.33H473.728C474.086 175.358 474.734 174.57 475.672 173.964C476.609 173.359 477.666 173.057 478.842 173.057C479.064 173.057 479.341 173.061 479.673 173.07C480.005 173.078 480.257 173.091 480.427 173.108V176.176C480.325 176.151 480.091 176.112 479.724 176.061C479.366 176.001 478.987 175.972 478.586 175.972C477.632 175.972 476.779 176.172 476.029 176.572C475.288 176.964 474.7 177.51 474.265 178.209C473.839 178.899 473.626 179.687 473.626 180.574V193H470.609ZM493.774 173.364V175.92H483.598V173.364H493.774ZM486.564 168.659H489.581V187.375C489.581 188.227 489.704 188.866 489.951 189.293C490.207 189.71 490.531 189.991 490.923 190.136C491.324 190.273 491.745 190.341 492.189 190.341C492.521 190.341 492.794 190.324 493.007 190.29C493.22 190.247 493.39 190.213 493.518 190.188L494.132 192.898C493.927 192.974 493.642 193.051 493.275 193.128C492.909 193.213 492.444 193.256 491.882 193.256C491.029 193.256 490.194 193.072 489.376 192.706C488.566 192.339 487.893 191.781 487.356 191.031C486.828 190.281 486.564 189.335 486.564 188.193V168.659ZM506.334 193.409C504.442 193.409 502.81 192.991 501.438 192.156C500.074 191.312 499.022 190.136 498.28 188.628C497.547 187.111 497.181 185.347 497.181 183.335C497.181 181.324 497.547 179.551 498.28 178.017C499.022 176.474 500.053 175.273 501.374 174.412C502.703 173.543 504.255 173.108 506.027 173.108C507.05 173.108 508.06 173.278 509.057 173.619C510.054 173.96 510.962 174.514 511.78 175.281C512.598 176.04 513.25 177.045 513.736 178.298C514.222 179.551 514.465 181.094 514.465 182.926V184.205H499.328V181.597H511.397C511.397 180.489 511.175 179.5 510.732 178.631C510.297 177.761 509.675 177.075 508.865 176.572C508.064 176.07 507.118 175.818 506.027 175.818C504.826 175.818 503.786 176.116 502.908 176.713C502.039 177.301 501.37 178.068 500.901 179.014C500.432 179.96 500.198 180.974 500.198 182.057V183.795C500.198 185.278 500.453 186.536 500.965 187.567C501.485 188.589 502.205 189.369 503.125 189.906C504.046 190.435 505.115 190.699 506.334 190.699C507.127 190.699 507.843 190.588 508.482 190.366C509.13 190.136 509.688 189.795 510.157 189.344C510.625 188.884 510.988 188.312 511.243 187.631L514.158 188.449C513.851 189.438 513.336 190.307 512.611 191.057C511.887 191.798 510.992 192.378 509.926 192.795C508.861 193.205 507.664 193.409 506.334 193.409ZM522.071 181.188V193H519.054V173.364H521.969V176.432H522.225C522.685 175.435 523.384 174.634 524.321 174.028C525.259 173.415 526.469 173.108 527.952 173.108C529.282 173.108 530.445 173.381 531.442 173.926C532.439 174.463 533.215 175.281 533.769 176.381C534.323 177.472 534.6 178.852 534.6 180.523V193H531.583V180.727C531.583 179.185 531.182 177.983 530.381 177.122C529.58 176.253 528.48 175.818 527.083 175.818C526.12 175.818 525.259 176.027 524.5 176.445C523.75 176.862 523.158 177.472 522.723 178.273C522.289 179.074 522.071 180.045 522.071 181.188ZM562.613 184.972V173.364H565.63V193H562.613V189.676H562.408C561.948 190.673 561.232 191.521 560.261 192.22C559.289 192.911 558.062 193.256 556.579 193.256C555.352 193.256 554.261 192.987 553.306 192.45C552.352 191.905 551.602 191.087 551.056 189.996C550.511 188.896 550.238 187.511 550.238 185.841V173.364H553.255V185.636C553.255 187.068 553.656 188.21 554.457 189.062C555.266 189.915 556.298 190.341 557.55 190.341C558.3 190.341 559.063 190.149 559.839 189.766C560.623 189.382 561.279 188.794 561.808 188.001C562.344 187.209 562.613 186.199 562.613 184.972ZM574.173 181.188V193H571.156V173.364H574.071V176.432H574.326C574.787 175.435 575.485 174.634 576.423 174.028C577.36 173.415 578.571 173.108 580.054 173.108C581.383 173.108 582.547 173.381 583.544 173.926C584.541 174.463 585.316 175.281 585.87 176.381C586.424 177.472 586.701 178.852 586.701 180.523V193H583.684V180.727C583.684 179.185 583.284 177.983 582.483 177.122C581.681 176.253 580.582 175.818 579.184 175.818C578.221 175.818 577.36 176.027 576.602 176.445C575.852 176.862 575.26 177.472 574.825 178.273C574.39 179.074 574.173 180.045 574.173 181.188ZM599.629 193.409C597.993 193.409 596.548 192.996 595.295 192.169C594.043 191.334 593.063 190.158 592.355 188.641C591.648 187.115 591.294 185.312 591.294 183.233C591.294 181.17 591.648 179.381 592.355 177.864C593.063 176.347 594.047 175.175 595.308 174.348C596.57 173.521 598.027 173.108 599.68 173.108C600.959 173.108 601.969 173.321 602.71 173.747C603.46 174.165 604.031 174.642 604.423 175.179C604.824 175.707 605.135 176.142 605.357 176.483H605.612V166.818H608.629V193H605.714V189.983H605.357C605.135 190.341 604.82 190.793 604.411 191.338C604.001 191.875 603.418 192.357 602.659 192.783C601.901 193.2 600.891 193.409 599.629 193.409ZM600.038 190.699C601.249 190.699 602.271 190.384 603.107 189.753C603.942 189.114 604.577 188.232 605.011 187.107C605.446 185.973 605.663 184.665 605.663 183.182C605.663 181.716 605.45 180.433 605.024 179.334C604.598 178.226 603.967 177.365 603.132 176.751C602.297 176.129 601.266 175.818 600.038 175.818C598.76 175.818 597.695 176.146 596.842 176.803C595.999 177.45 595.364 178.332 594.938 179.449C594.52 180.557 594.311 181.801 594.311 183.182C594.311 184.58 594.524 185.849 594.95 186.991C595.385 188.125 596.024 189.028 596.868 189.702C597.72 190.366 598.777 190.699 600.038 190.699ZM638.608 177.761L635.898 178.528C635.727 178.077 635.476 177.638 635.143 177.212C634.82 176.777 634.376 176.419 633.814 176.138C633.251 175.857 632.531 175.716 631.653 175.716C630.452 175.716 629.45 175.993 628.649 176.547C627.857 177.092 627.46 177.787 627.46 178.631C627.46 179.381 627.733 179.973 628.278 180.408C628.824 180.842 629.676 181.205 630.835 181.494L633.75 182.21C635.506 182.636 636.814 183.288 637.675 184.166C638.536 185.036 638.966 186.156 638.966 187.528C638.966 188.653 638.642 189.659 637.994 190.545C637.355 191.432 636.46 192.131 635.31 192.642C634.159 193.153 632.821 193.409 631.295 193.409C629.293 193.409 627.635 192.974 626.322 192.105C625.01 191.236 624.179 189.966 623.83 188.295L626.693 187.58C626.966 188.636 627.482 189.429 628.24 189.957C629.007 190.486 630.009 190.75 631.244 190.75C632.651 190.75 633.767 190.452 634.594 189.855C635.429 189.25 635.847 188.526 635.847 187.682C635.847 187 635.608 186.429 635.131 185.969C634.653 185.5 633.92 185.151 632.932 184.92L629.659 184.153C627.861 183.727 626.54 183.067 625.696 182.172C624.861 181.268 624.443 180.139 624.443 178.784C624.443 177.676 624.754 176.696 625.376 175.844C626.007 174.991 626.864 174.322 627.946 173.837C629.037 173.351 630.273 173.108 631.653 173.108C633.597 173.108 635.122 173.534 636.23 174.386C637.347 175.239 638.139 176.364 638.608 177.761ZM651.485 193.409C649.644 193.409 648.059 192.974 646.729 192.105C645.4 191.236 644.377 190.038 643.661 188.513C642.945 186.987 642.587 185.244 642.587 183.284C642.587 181.29 642.953 179.53 643.686 178.004C644.428 176.47 645.459 175.273 646.78 174.412C648.11 173.543 649.661 173.108 651.434 173.108C652.814 173.108 654.059 173.364 655.167 173.875C656.275 174.386 657.182 175.102 657.89 176.023C658.597 176.943 659.036 178.017 659.206 179.244H656.189C655.959 178.349 655.448 177.557 654.655 176.866C653.871 176.168 652.814 175.818 651.485 175.818C650.309 175.818 649.277 176.125 648.391 176.739C647.513 177.344 646.827 178.2 646.333 179.308C645.847 180.408 645.604 181.699 645.604 183.182C645.604 184.699 645.843 186.02 646.32 187.145C646.806 188.27 647.488 189.143 648.365 189.766C649.252 190.388 650.292 190.699 651.485 190.699C652.269 190.699 652.98 190.562 653.62 190.29C654.259 190.017 654.8 189.625 655.243 189.114C655.686 188.602 656.002 187.989 656.189 187.273H659.206C659.036 188.432 658.614 189.476 657.941 190.405C657.276 191.325 656.394 192.058 655.294 192.604C654.203 193.141 652.934 193.409 651.485 193.409ZM666.634 181.188V193H663.617V166.818H666.634V176.432H666.89C667.35 175.418 668.04 174.612 668.961 174.016C669.89 173.411 671.125 173.108 672.668 173.108C674.006 173.108 675.178 173.376 676.184 173.913C677.189 174.442 677.969 175.256 678.523 176.355C679.086 177.446 679.367 178.835 679.367 180.523V193H676.35V180.727C676.35 179.168 675.945 177.962 675.135 177.109C674.334 176.249 673.222 175.818 671.799 175.818C670.81 175.818 669.924 176.027 669.14 176.445C668.364 176.862 667.75 177.472 667.299 178.273C666.855 179.074 666.634 180.045 666.634 181.188ZM690.665 193.46C689.42 193.46 688.291 193.226 687.277 192.757C686.263 192.28 685.457 191.594 684.861 190.699C684.264 189.795 683.966 188.705 683.966 187.426C683.966 186.301 684.188 185.389 684.631 184.69C685.074 183.983 685.666 183.429 686.408 183.028C687.149 182.628 687.967 182.33 688.862 182.134C689.766 181.929 690.673 181.767 691.585 181.648C692.778 181.494 693.746 181.379 694.487 181.303C695.237 181.217 695.783 181.077 696.124 180.881C696.473 180.685 696.648 180.344 696.648 179.858V179.756C696.648 178.494 696.303 177.514 695.612 176.815C694.93 176.116 693.895 175.767 692.506 175.767C691.065 175.767 689.936 176.082 689.118 176.713C688.3 177.344 687.724 178.017 687.392 178.733L684.528 177.71C685.04 176.517 685.722 175.588 686.574 174.923C687.435 174.25 688.372 173.781 689.386 173.517C690.409 173.244 691.415 173.108 692.403 173.108C693.034 173.108 693.759 173.185 694.577 173.338C695.403 173.483 696.2 173.786 696.967 174.246C697.743 174.706 698.386 175.401 698.898 176.33C699.409 177.259 699.665 178.503 699.665 180.062V193H696.648V190.341H696.494C696.29 190.767 695.949 191.223 695.472 191.709C694.994 192.195 694.359 192.608 693.567 192.949C692.774 193.29 691.807 193.46 690.665 193.46ZM691.125 190.75C692.318 190.75 693.324 190.516 694.142 190.047C694.969 189.578 695.591 188.973 696.009 188.232C696.435 187.49 696.648 186.71 696.648 185.892V183.131C696.52 183.284 696.239 183.425 695.804 183.553C695.378 183.672 694.884 183.778 694.321 183.872C693.767 183.957 693.226 184.034 692.697 184.102C692.178 184.162 691.756 184.213 691.432 184.256C690.648 184.358 689.915 184.524 689.233 184.754C688.56 184.976 688.014 185.312 687.597 185.764C687.188 186.207 686.983 186.812 686.983 187.58C686.983 188.628 687.371 189.42 688.146 189.957C688.93 190.486 689.923 190.75 691.125 190.75ZM708.189 166.818V193H705.172V166.818H708.189ZM722.254 173.364V175.92H712.078V173.364H722.254ZM715.044 168.659H718.061V187.375C718.061 188.227 718.185 188.866 718.432 189.293C718.688 189.71 719.011 189.991 719.403 190.136C719.804 190.273 720.226 190.341 720.669 190.341C721.001 190.341 721.274 190.324 721.487 190.29C721.7 190.247 721.871 190.213 721.999 190.188L722.612 192.898C722.408 192.974 722.122 193.051 721.756 193.128C721.389 193.213 720.925 193.256 720.362 193.256C719.51 193.256 718.675 193.072 717.857 192.706C717.047 192.339 716.374 191.781 715.837 191.031C715.308 190.281 715.044 189.335 715.044 188.193V168.659ZM734.815 193.409C732.923 193.409 731.29 192.991 729.918 192.156C728.555 191.312 727.502 190.136 726.761 188.628C726.028 187.111 725.661 185.347 725.661 183.335C725.661 181.324 726.028 179.551 726.761 178.017C727.502 176.474 728.533 175.273 729.854 174.412C731.184 173.543 732.735 173.108 734.508 173.108C735.531 173.108 736.54 173.278 737.538 173.619C738.535 173.96 739.442 174.514 740.261 175.281C741.079 176.04 741.731 177.045 742.217 178.298C742.702 179.551 742.945 181.094 742.945 182.926V184.205H727.809V181.597H739.877C739.877 180.489 739.656 179.5 739.212 178.631C738.778 177.761 738.156 177.075 737.346 176.572C736.545 176.07 735.599 175.818 734.508 175.818C733.306 175.818 732.266 176.116 731.388 176.713C730.519 177.301 729.85 178.068 729.381 179.014C728.913 179.96 728.678 180.974 728.678 182.057V183.795C728.678 185.278 728.934 186.536 729.445 187.567C729.965 188.589 730.685 189.369 731.606 189.906C732.526 190.435 733.596 190.699 734.815 190.699C735.607 190.699 736.323 190.588 736.962 190.366C737.61 190.136 738.168 189.795 738.637 189.344C739.106 188.884 739.468 188.312 739.724 187.631L742.638 188.449C742.332 189.438 741.816 190.307 741.092 191.057C740.367 191.798 739.472 192.378 738.407 192.795C737.342 193.205 736.144 193.409 734.815 193.409ZM750.552 181.188V193H747.535V173.364H750.45V176.432H750.705C751.165 175.435 751.864 174.634 752.802 174.028C753.739 173.415 754.95 173.108 756.433 173.108C757.762 173.108 758.925 173.381 759.923 173.926C760.92 174.463 761.695 175.281 762.249 176.381C762.803 177.472 763.08 178.852 763.08 180.523V193H760.063V180.727C760.063 179.185 759.663 177.983 758.862 177.122C758.06 176.253 756.961 175.818 755.563 175.818C754.6 175.818 753.739 176.027 752.981 176.445C752.231 176.862 751.638 177.472 751.204 178.273C750.769 179.074 750.552 180.045 750.552 181.188ZM786.133 193.409C784.497 193.409 783.052 192.996 781.799 192.169C780.547 191.334 779.566 190.158 778.859 188.641C778.152 187.115 777.798 185.312 777.798 183.233C777.798 181.17 778.152 179.381 778.859 177.864C779.566 176.347 780.551 175.175 781.812 174.348C783.074 173.521 784.531 173.108 786.184 173.108C787.463 173.108 788.473 173.321 789.214 173.747C789.964 174.165 790.535 174.642 790.927 175.179C791.328 175.707 791.639 176.142 791.86 176.483H792.116V166.818H795.133V193H792.218V189.983H791.86C791.639 190.341 791.324 190.793 790.914 191.338C790.505 191.875 789.922 192.357 789.163 192.783C788.404 193.2 787.395 193.409 786.133 193.409ZM786.542 190.699C787.752 190.699 788.775 190.384 789.61 189.753C790.446 189.114 791.081 188.232 791.515 187.107C791.95 185.973 792.167 184.665 792.167 183.182C792.167 181.716 791.954 180.433 791.528 179.334C791.102 178.226 790.471 177.365 789.636 176.751C788.801 176.129 787.77 175.818 786.542 175.818C785.264 175.818 784.199 176.146 783.346 176.803C782.502 177.45 781.868 178.332 781.441 179.449C781.024 180.557 780.815 181.801 780.815 183.182C780.815 184.58 781.028 185.849 781.454 186.991C781.889 188.125 782.528 189.028 783.372 189.702C784.224 190.366 785.281 190.699 786.542 190.699ZM801.078 193V173.364H804.095V193H801.078ZM802.612 170.091C802.024 170.091 801.517 169.891 801.091 169.49C800.673 169.089 800.464 168.608 800.464 168.045C800.464 167.483 800.673 167.001 801.091 166.601C801.517 166.2 802.024 166 802.612 166C803.2 166 803.703 166.2 804.12 166.601C804.547 167.001 804.76 167.483 804.76 168.045C804.76 168.608 804.547 169.089 804.12 169.49C803.703 169.891 803.2 170.091 802.612 170.091ZM817.854 193.409C815.962 193.409 814.33 192.991 812.957 192.156C811.594 191.312 810.541 190.136 809.8 188.628C809.067 187.111 808.7 185.347 808.7 183.335C808.7 181.324 809.067 179.551 809.8 178.017C810.541 176.474 811.572 175.273 812.893 174.412C814.223 173.543 815.774 173.108 817.547 173.108C818.57 173.108 819.58 173.278 820.577 173.619C821.574 173.96 822.482 174.514 823.3 175.281C824.118 176.04 824.77 177.045 825.256 178.298C825.741 179.551 825.984 181.094 825.984 182.926V184.205H810.848V181.597H822.916C822.916 180.489 822.695 179.5 822.251 178.631C821.817 177.761 821.195 177.075 820.385 176.572C819.584 176.07 818.638 175.818 817.547 175.818C816.345 175.818 815.305 176.116 814.428 176.713C813.558 177.301 812.889 178.068 812.42 179.014C811.952 179.96 811.717 180.974 811.717 182.057V183.795C811.717 185.278 811.973 186.536 812.484 187.567C813.004 188.589 813.724 189.369 814.645 189.906C815.565 190.435 816.635 190.699 817.854 190.699C818.646 190.699 819.362 190.588 820.001 190.366C820.649 190.136 821.207 189.795 821.676 189.344C822.145 188.884 822.507 188.312 822.763 187.631L825.678 188.449C825.371 189.438 824.855 190.307 824.131 191.057C823.406 191.798 822.511 192.378 821.446 192.795C820.381 193.205 819.183 193.409 817.854 193.409ZM841.108 193V166.818H849.955C852.009 166.818 853.688 167.189 854.991 167.93C856.304 168.663 857.276 169.656 857.906 170.909C858.537 172.162 858.852 173.56 858.852 175.102C858.852 176.645 858.537 178.047 857.906 179.308C857.284 180.57 856.321 181.575 855.017 182.325C853.713 183.067 852.043 183.438 850.006 183.438H843.665V180.625H849.903C851.31 180.625 852.439 180.382 853.291 179.896C854.143 179.411 854.761 178.754 855.145 177.928C855.537 177.092 855.733 176.151 855.733 175.102C855.733 174.054 855.537 173.116 855.145 172.29C854.761 171.463 854.139 170.815 853.278 170.347C852.418 169.869 851.276 169.631 849.852 169.631H844.278V193H841.108ZM871.317 193.409C869.544 193.409 867.989 192.987 866.651 192.143C865.321 191.3 864.281 190.119 863.531 188.602C862.79 187.085 862.419 185.312 862.419 183.284C862.419 181.239 862.79 179.453 863.531 177.928C864.281 176.402 865.321 175.217 866.651 174.374C867.989 173.53 869.544 173.108 871.317 173.108C873.089 173.108 874.641 173.53 875.97 174.374C877.308 175.217 878.348 176.402 879.089 177.928C879.839 179.453 880.214 181.239 880.214 183.284C880.214 185.312 879.839 187.085 879.089 188.602C878.348 190.119 877.308 191.3 875.97 192.143C874.641 192.987 873.089 193.409 871.317 193.409ZM871.317 190.699C872.663 190.699 873.771 190.354 874.641 189.663C875.51 188.973 876.153 188.065 876.571 186.94C876.989 185.815 877.197 184.597 877.197 183.284C877.197 181.972 876.989 180.749 876.571 179.615C876.153 178.482 875.51 177.565 874.641 176.866C873.771 176.168 872.663 175.818 871.317 175.818C869.97 175.818 868.862 176.168 867.993 176.866C867.124 177.565 866.48 178.482 866.062 179.615C865.645 180.749 865.436 181.972 865.436 183.284C865.436 184.597 865.645 185.815 866.062 186.94C866.48 188.065 867.124 188.973 867.993 189.663C868.862 190.354 869.97 190.699 871.317 190.699ZM887.837 166.818V193H884.82V166.818H887.837ZM893.363 193V173.364H896.38V193H893.363ZM894.897 170.091C894.309 170.091 893.802 169.891 893.376 169.49C892.958 169.089 892.749 168.608 892.749 168.045C892.749 167.483 892.958 167.001 893.376 166.601C893.802 166.2 894.309 166 894.897 166C895.485 166 895.988 166.2 896.406 166.601C896.832 167.001 897.045 167.483 897.045 168.045C897.045 168.608 896.832 169.089 896.406 169.49C895.988 169.891 895.485 170.091 894.897 170.091ZM901.343 193V190.699L912.491 176.381V176.176H901.701V173.364H916.377V175.767L905.537 189.983V190.188H916.735V193H901.343ZM929.053 193.409C927.161 193.409 925.529 192.991 924.157 192.156C922.793 191.312 921.74 190.136 920.999 188.628C920.266 187.111 919.9 185.347 919.9 183.335C919.9 181.324 920.266 179.551 920.999 178.017C921.74 176.474 922.772 175.273 924.093 174.412C925.422 173.543 926.973 173.108 928.746 173.108C929.769 173.108 930.779 173.278 931.776 173.619C932.773 173.96 933.681 174.514 934.499 175.281C935.317 176.04 935.969 177.045 936.455 178.298C936.941 179.551 937.184 181.094 937.184 182.926V184.205H922.047V181.597H934.115C934.115 180.489 933.894 179.5 933.451 178.631C933.016 177.761 932.394 177.075 931.584 176.572C930.783 176.07 929.837 175.818 928.746 175.818C927.544 175.818 926.505 176.116 925.627 176.713C924.757 177.301 924.088 178.068 923.62 179.014C923.151 179.96 922.917 180.974 922.917 182.057V183.795C922.917 185.278 923.172 186.536 923.684 187.567C924.203 188.589 924.924 189.369 925.844 189.906C926.765 190.435 927.834 190.699 929.053 190.699C929.846 190.699 930.561 190.588 931.201 190.366C931.848 190.136 932.407 189.795 932.875 189.344C933.344 188.884 933.706 188.312 933.962 187.631L936.877 188.449C936.57 189.438 936.054 190.307 935.33 191.057C934.605 191.798 933.711 192.378 932.645 192.795C931.58 193.205 930.382 193.409 929.053 193.409ZM941.773 193V173.364H944.79V193H941.773ZM943.307 170.091C942.719 170.091 942.212 169.891 941.786 169.49C941.368 169.089 941.159 168.608 941.159 168.045C941.159 167.483 941.368 167.001 941.786 166.601C942.212 166.2 942.719 166 943.307 166C943.895 166 944.398 166.2 944.816 166.601C945.242 167.001 945.455 167.483 945.455 168.045C945.455 168.608 945.242 169.089 944.816 169.49C944.398 169.891 943.895 170.091 943.307 170.091ZM394.994 237.409C393.102 237.409 391.47 236.991 390.098 236.156C388.734 235.312 387.682 234.136 386.94 232.628C386.207 231.111 385.841 229.347 385.841 227.335C385.841 225.324 386.207 223.551 386.94 222.017C387.682 220.474 388.713 219.273 390.034 218.412C391.364 217.543 392.915 217.108 394.688 217.108C395.71 217.108 396.72 217.278 397.717 217.619C398.714 217.96 399.622 218.514 400.44 219.281C401.259 220.04 401.911 221.045 402.396 222.298C402.882 223.551 403.125 225.094 403.125 226.926V228.205H387.989V225.597H400.057C400.057 224.489 399.835 223.5 399.392 222.631C398.957 221.761 398.335 221.075 397.526 220.572C396.724 220.07 395.778 219.818 394.688 219.818C393.486 219.818 392.446 220.116 391.568 220.713C390.699 221.301 390.03 222.068 389.561 223.014C389.092 223.96 388.858 224.974 388.858 226.057V227.795C388.858 229.278 389.114 230.536 389.625 231.567C390.145 232.589 390.865 233.369 391.786 233.906C392.706 234.435 393.776 234.699 394.994 234.699C395.787 234.699 396.503 234.588 397.142 234.366C397.79 234.136 398.348 233.795 398.817 233.344C399.286 232.884 399.648 232.312 399.903 231.631L402.818 232.449C402.511 233.438 401.996 234.307 401.271 235.057C400.547 235.798 399.652 236.378 398.587 236.795C397.521 237.205 396.324 237.409 394.994 237.409ZM407.714 237V217.364H410.732V237H407.714ZM409.249 214.091C408.661 214.091 408.153 213.891 407.727 213.49C407.31 213.089 407.101 212.608 407.101 212.045C407.101 211.483 407.31 211.001 407.727 210.601C408.153 210.2 408.661 210 409.249 210C409.837 210 410.339 210.2 410.757 210.601C411.183 211.001 411.396 211.483 411.396 212.045C411.396 212.608 411.183 213.089 410.757 213.49C410.339 213.891 409.837 214.091 409.249 214.091ZM419.275 225.188V237H416.257V217.364H419.172V220.432H419.428C419.888 219.435 420.587 218.634 421.525 218.028C422.462 217.415 423.672 217.108 425.155 217.108C426.485 217.108 427.648 217.381 428.645 217.926C429.642 218.463 430.418 219.281 430.972 220.381C431.526 221.472 431.803 222.852 431.803 224.523V237H428.786V224.727C428.786 223.185 428.385 221.983 427.584 221.122C426.783 220.253 425.684 219.818 424.286 219.818C423.323 219.818 422.462 220.027 421.703 220.445C420.953 220.862 420.361 221.472 419.926 222.273C419.492 223.074 419.275 224.045 419.275 225.188ZM439.515 237.205C438.884 237.205 438.343 236.979 437.891 236.527C437.44 236.075 437.214 235.534 437.214 234.903C437.214 234.273 437.44 233.732 437.891 233.28C438.343 232.828 438.884 232.602 439.515 232.602C440.146 232.602 440.687 232.828 441.138 233.28C441.59 233.732 441.816 234.273 441.816 234.903C441.816 235.321 441.71 235.705 441.496 236.054C441.292 236.403 441.015 236.685 440.665 236.898C440.325 237.102 439.941 237.205 439.515 237.205Z" fill="black"/>
<path d="M332.114 717.424C336.146 718.264 340.97 720.113 341.444 724.482C341.998 729.356 336.383 732.213 331.876 733.222C314.874 737.171 297.318 737.675 279.842 738.18C187.479 740.532 95.115 740.953 2.74977 739.356C4.09374 727.34 17.5396 722.129 28.6894 719.86C76.6111 710.113 126.193 715.659 173.244 705.323C222.827 694.315 283.164 706.752 332.114 717.424Z" fill="url(#paint0_linear_808_4123)"/>
<path d="M332.114 717.424C336.146 718.264 340.97 720.113 341.444 724.482C341.998 729.356 336.383 732.213 331.876 733.222C314.874 737.171 297.318 737.675 279.842 738.18C187.479 740.532 95.115 740.953 2.74977 739.356C4.09374 727.34 17.5396 722.129 28.6894 719.86C76.6111 710.113 126.193 715.659 173.244 705.323C222.827 694.315 283.164 706.752 332.114 717.424Z" fill="url(#paint1_linear_808_4123)"/>
<path d="M80.5703 638.265C79.5423 637.929 78.435 638.265 77.407 638.602C72.8993 640.198 68.4708 642.299 64.5172 645.072C62.5399 646.417 60.5631 647.929 59.6143 650.198C58.7442 652.299 58.8234 654.652 58.9814 656.837C60.4051 683.895 61.7495 711.037 63.1727 738.096C63.2519 739.86 63.4892 741.793 64.7544 742.886C66.336 744.146 68.55 743.306 70.2896 742.465C87.2916 734.566 104.214 726.583 121.216 718.684C129.361 714.903 137.744 710.869 143.754 703.894C139.167 693.138 129.519 685.996 120.663 678.769C106.903 667.508 94.2505 654.568 83.1003 640.45C82.4674 639.61 81.6771 638.601 80.5703 638.265Z" fill="#DDC199"/>
<path d="M0.46262 498.855C4.65487 497.847 8.92729 496.838 13.1167 495.83C37.7892 543.98 59.6148 593.812 78.4355 644.904C74.0863 647.845 68.3138 650.87 64.1225 647.677C62.3829 646.332 61.3544 644.147 60.4056 642.047C39.0544 594.988 19.0476 547.258 0.46262 498.855Z" fill="#BDB39B"/>
<g opacity="0.26">
<path opacity="0.26" d="M78.2095 733.137C78.2887 734.062 76.9443 734.398 76.7864 733.474C73.3859 706.163 68.5627 679.357 62.3153 652.634C61.9201 650.954 64.3714 650.449 64.7665 652.13C71.2511 678.6 75.7583 705.827 78.2095 733.137Z" fill="#272525"/>
<path opacity="0.26" d="M105.004 721.121C94.5663 697.76 83.4953 674.735 71.7914 652.046C71.0798 650.701 73.1359 649.609 73.8475 650.954C86.0258 673.811 97.0175 697.34 107.061 721.289C106.903 721.457 106.824 721.625 106.745 721.793C106.191 721.373 105.637 721.205 105.004 721.121Z" fill="#272525"/>
<path opacity="0.26" d="M122.018 705.742C104.542 688.263 88.9631 668.852 75.3617 647.843C74.4916 646.415 76.7061 645.238 77.5762 646.667C90.9404 667.591 106.281 686.919 123.441 704.397C124.311 705.321 122.888 706.666 122.018 705.742Z" fill="#272525"/>
</g>
<path d="M243.236 662.214C243.156 660.954 242.998 659.609 242.92 658.348C253.358 650.785 271.704 653.222 282.775 657.088C294.637 661.205 294.637 668.936 294.479 682.045C294.4 689.44 293.767 697.76 288.39 702.549C284.278 706.247 278.505 706.751 273.127 707.087C268.304 707.423 263.559 707.675 258.735 708.011C255.414 708.179 251.697 708.263 249.088 705.994C246.478 703.642 246.083 699.692 245.766 696.078C244.897 684.734 244.026 673.474 243.236 662.214Z" fill="#2F3F47"/>
<path d="M230.494 662.214C230.573 660.954 230.731 659.609 230.811 658.348C220.372 650.785 202.026 653.222 190.955 657.088C179.093 661.205 179.093 668.936 179.251 682.045C179.33 689.44 179.963 697.76 185.341 702.549C189.453 706.247 195.225 706.751 200.603 707.087C205.426 707.423 210.171 707.675 214.995 708.011C218.316 708.179 222.033 708.263 224.642 705.994C227.252 703.642 227.647 699.692 227.963 696.078C228.754 684.734 229.624 673.474 230.494 662.214Z" fill="#2F3F47"/>
<path d="M319.553 634.148C322.163 634.735 324.693 635.576 327.145 636.668C328.964 637.424 330.782 638.433 332.048 639.945C333.787 642.13 334.262 645.156 334.578 648.097C334.973 651.963 335.132 655.828 335.052 659.693C335.052 662.97 334.815 666.332 333.233 669.105C331.019 672.971 326.67 674.735 322.558 675.827C314.729 677.929 306.584 678.432 298.518 678.853C249.727 681.374 200.777 679.692 152.223 673.895C150.246 673.643 148.032 673.307 146.688 671.71C145.897 670.786 145.501 669.525 145.106 668.348C142.576 659.777 140.915 648.097 146.371 640.114C151.036 633.307 159.656 637.172 166.14 637.088C172.783 637.004 179.505 636.416 186.148 636.164C199.117 635.576 212.085 634.987 225.054 634.567C243.321 633.895 261.667 633.307 279.935 632.803C292.271 632.551 306.821 631.122 319.553 634.148Z" fill="#516770"/>
<path d="M214.691 449.696C181.557 449.864 148.502 450.621 115.368 451.377C116.159 432.638 117.424 413.898 121.22 395.579C127.784 363.479 142.808 332.135 168.193 313.396C207.099 284.657 268.859 288.438 310.771 316.841C328.406 328.773 342.56 345.16 349.994 365.243C358.534 388.184 360.828 413.226 362.172 437.848C362.331 441.125 362.489 444.318 362.646 447.595C313.46 445.578 263.957 449.528 214.691 449.696Z" fill="#EAF1F2"/>
<path d="M217.343 459.108C265.897 459.024 314.61 455.327 363.164 457.175C365.536 513.141 363.322 569.359 356.521 624.989C355.572 632.636 354.386 640.618 349.641 646.668C342.287 655.996 329.555 651.878 319.67 651.878C302.985 651.878 285.825 652.635 268.981 653.055C237.191 653.811 205.639 653.895 174.008 650.114C158.983 648.35 128.617 653.223 121.421 638.853C115.49 627.173 117.941 603.476 117.071 590.451C116.043 574.989 115.252 559.611 114.778 544.149C113.908 516.334 114.066 488.519 115.095 460.62C149.098 459.948 183.26 459.108 217.343 459.108Z" fill="#E2ECED"/>
<path d="M102.671 549.696C102.038 549.107 101.959 548.099 101.88 547.259C100.22 523.982 98.7963 500.704 97.7683 477.427C97.6891 475.41 97.6891 473.058 99.1915 471.713C100.299 470.789 101.722 470.705 103.146 470.705C108.049 470.621 112.872 470.537 117.775 470.537C120.859 497.007 122.124 523.645 121.492 550.284C116.035 550.284 110.658 550.368 105.202 550.368C104.332 550.368 103.383 550.368 102.671 549.696Z" fill="#2F3F47"/>
<path d="M77.4635 603.309C76.8312 601.377 76.1191 599.36 74.6959 597.931C73.5886 596.839 72.0867 596.167 70.6631 595.662C64.4949 593.309 58.1688 591.545 51.763 590.368C46.7814 593.982 42.2737 598.268 38.3988 603.225C37.6872 604.15 36.9756 605.158 36.8172 606.335C36.6592 607.259 36.8964 608.183 37.1336 609.108C39.664 619.444 42.1157 629.78 44.6461 640.116C48.3626 640.62 52.0795 640.704 55.7171 640.2C54.294 633.897 52.8703 627.595 51.5258 621.376C50.1814 615.41 49.1534 608.099 53.4235 603.898C57.7727 605.074 62.0432 606.335 66.3925 607.511C67.1041 607.679 67.8954 607.931 68.5278 608.435C69.2394 609.108 69.5558 610.116 69.8722 611.04C71.6911 616.923 73.0355 622.973 73.9843 629.108C76.7519 628.267 79.5196 627.51 82.2872 626.67C82.5249 618.687 79.9945 610.873 77.4635 603.309Z" fill="#2F3F47"/>
<path d="M43.8579 594.234C43.6207 593.982 43.5419 593.647 43.4627 593.394C42.6719 589.613 41.8811 585.831 41.011 582.133C46.5468 580.789 52.24 579.864 57.8545 579.36C58.7246 582.47 59.2782 585.747 59.5154 589.024C59.5946 589.697 59.5946 590.537 59.1202 591.041C58.8038 591.377 58.4082 591.461 58.013 591.63C53.8217 592.974 49.4724 593.982 45.0439 594.57C44.7275 594.486 44.2535 594.571 43.8579 594.234Z" fill="#516770"/>
<path d="M38.3131 579.53C34.9919 573.563 37.6803 557.849 37.6803 551.547C37.7595 542.891 37.7595 534.152 39.6575 525.749C41.5551 517.345 45.4305 509.11 51.8358 503.816C55.4735 500.791 59.7435 498.859 64.172 497.262C77.3783 492.472 91.5329 490.876 105.372 492.64C106.479 492.808 107.665 492.976 108.456 493.817C109.326 494.657 109.484 496.001 109.642 497.262C110.275 502.052 111.144 507.346 110.907 512.219C110.512 520.791 112.172 518.438 106.32 520.875C101.813 522.724 93.3518 521.211 88.2117 522.472C82.2015 523.9 76.3498 526.085 70.4981 528.27C66.7817 529.614 62.8276 531.295 60.9295 534.908C59.9015 536.841 59.5851 539.194 59.3479 541.463C57.9247 554.909 57.2918 568.437 57.3711 581.967C57.3711 584.319 41.0812 583.143 38.946 580.538C38.7088 580.202 38.5503 579.866 38.3131 579.53Z" fill="#E2ECED"/>
<g opacity="0.15">
<path opacity="0.15" d="M65.9978 501.128C66.4722 509.195 68.449 516.506 71.4538 523.901C72.0075 525.329 70.3471 526.422 69.477 525.162C64.7326 518.103 62.2809 509.699 61.4109 501.128C61.0944 498.103 65.7601 498.018 65.9978 501.128Z" fill="#272525"/>
<path opacity="0.15" d="M53.8958 506.925C55.2398 514.741 58.5611 519.867 63.7804 525.413C64.492 526.169 63.5436 527.429 62.7528 526.841C59.1944 524.488 55.8731 522.976 53.3427 519.195C50.9702 515.665 49.3885 511.883 48.9142 507.598C48.5977 504.657 53.3422 503.984 53.8958 506.925Z" fill="#272525"/>
</g>
<path d="M370.926 471.209C371.559 471.797 371.637 472.806 371.717 473.646C373.377 496.923 374.801 520.2 375.829 543.477C375.908 545.494 375.908 547.847 374.405 549.191C373.298 550.116 371.875 550.2 370.452 550.2C365.549 550.284 360.725 550.368 355.822 550.368C352.738 523.898 351.473 497.259 352.105 470.621C357.562 470.621 362.939 470.537 368.395 470.537C369.265 470.537 370.293 470.537 370.926 471.209Z" fill="#2F3F47"/>
<path d="M432.221 442.554C431.984 444.571 431.747 446.755 432.459 448.604C433.012 450.116 434.04 451.377 435.147 452.554C439.655 457.511 444.557 462.134 449.856 466.251C455.866 465.411 461.717 463.646 467.174 461.041C468.202 460.537 469.309 460.033 469.942 459.024C470.416 458.268 470.653 457.343 470.812 456.419C472.868 445.999 475.003 435.495 477.059 425.075C473.975 422.89 470.653 421.041 467.174 419.696C465.829 425.999 464.406 432.301 463.062 438.604C461.718 444.57 459.582 451.629 454.047 453.31C450.647 450.201 447.325 447.091 443.925 443.982C443.371 443.478 442.739 442.89 442.422 442.134C442.027 441.209 442.185 440.116 442.344 439.108C443.213 432.974 444.479 426.924 446.218 420.957C443.371 420.369 440.604 419.781 437.757 419.192C434.119 426.335 433.17 434.57 432.221 442.554Z" fill="#2F3F47"/>
<path d="M458.492 466.503C458.571 466.839 458.492 467.176 458.492 467.428C457.622 471.209 456.752 474.906 455.962 478.688C450.426 477.259 444.97 475.411 439.672 473.226C440.146 470.032 441.016 466.839 442.202 463.814C442.439 463.142 442.755 462.469 443.388 462.217C443.783 462.049 444.179 462.133 444.653 462.217C449.003 462.974 453.273 464.15 457.464 465.663C457.86 465.831 458.334 466.083 458.492 466.503Z" fill="#516770"/>
<path d="M457.286 482.303C457.84 489.193 448.825 501.966 446.136 507.68C442.499 515.412 438.782 523.227 433.563 529.865C428.343 536.504 421.464 542.05 413.477 543.73C408.969 544.739 404.304 544.487 399.717 543.815C385.878 541.882 372.514 536.672 360.89 528.521C359.941 527.848 358.992 527.176 358.596 526C358.201 524.823 358.596 523.563 358.913 522.302C360.415 517.681 361.76 512.555 364.053 508.269C368.007 500.79 365.476 502.134 371.803 502.638C376.626 503.059 383.585 508.437 388.725 509.782C394.735 511.378 400.903 512.134 406.992 512.975C410.867 513.479 415.137 513.899 418.38 511.546C420.12 510.286 421.385 508.353 422.492 506.42C429.372 495.075 435.619 483.227 441.233 471.043C442.182 468.942 456.258 477.681 457.128 481.042C457.207 481.546 457.286 481.883 457.286 482.303Z" fill="#E2ECED"/>
<g opacity="0.15">
<path opacity="0.15" d="M399.812 539.442C402.739 531.963 404.003 524.484 404.478 516.417C404.557 514.821 406.534 514.653 406.771 516.25C408.037 524.821 406.771 533.476 403.924 541.543C402.896 544.484 398.626 542.299 399.812 539.442Z" fill="#272525"/>
<path opacity="0.15" d="M413.004 540.031C415.06 532.384 414.269 526.25 411.897 518.771C411.58 517.763 412.925 517.09 413.478 517.93C415.613 521.712 417.986 524.653 418.697 529.191C419.33 533.476 419.172 537.594 417.748 541.627C416.799 544.568 412.292 542.888 413.004 540.031Z" fill="#272525"/>
</g>
<path d="M340.565 394.739C340.487 397.932 340.329 401.209 339.063 404.151C335.821 411.461 327.281 413.814 319.768 415.159C276.829 422.805 232.94 425.411 189.763 419.612C184.07 418.856 178.376 417.932 173.157 415.411C167.937 412.89 163.272 408.604 161.374 402.974C160.188 399.36 160.109 395.495 160.03 391.63C159.951 387.764 159.951 383.815 159.872 379.949C159.872 378.185 159.872 376.42 160.504 374.739C161.216 372.974 162.639 371.546 164.142 370.453C169.835 366.336 177.031 365.411 183.911 364.655C229.618 359.781 275.879 355.496 321.349 362.05C323.247 362.302 325.225 362.638 326.569 364.067C327.281 364.739 327.755 365.664 328.467 366.336C329.811 367.428 331.63 367.344 333.211 367.932C337.64 369.445 339.221 375.244 339.775 380.202C340.407 384.991 340.645 389.865 340.565 394.739Z" fill="#2F3F47"/>
<path opacity="0.2" d="M283.322 401.796C281.819 398.855 281.582 395.41 281.898 392.049C282.056 390.032 282.531 387.932 283.717 386.419C286.248 383.226 290.913 383.562 294.788 382.806C298.188 384.318 301.036 387.259 302.459 390.873C303.329 393.057 303.724 395.41 303.487 397.763C302.933 402.553 299.216 406.671 294.788 407.511C290.281 408.52 285.456 406.082 283.322 401.796Z" fill="#EAF1F2"/>
<path opacity="0.2" d="M208.017 401.796C206.515 398.855 206.277 395.41 206.594 392.049C206.752 390.032 207.226 387.932 208.413 386.419C210.943 383.226 215.608 383.562 219.483 382.806C222.884 384.318 225.731 387.259 227.154 390.873C228.024 393.057 228.419 395.41 228.182 397.763C227.629 402.553 223.912 406.671 219.483 407.511C215.055 408.52 210.232 406.082 208.017 401.796Z" fill="#EAF1F2"/>
<defs>
<linearGradient id="paint0_linear_808_4123" x1="341.43" y1="720.658" x2="2.66016" y2="720.658" gradientUnits="userSpaceOnUse">
<stop stop-color="#4D4D4D"/>
<stop offset="1"/>
</linearGradient>
<linearGradient id="paint1_linear_808_4123" x1="341.43" y1="720.658" x2="2.66016" y2="720.658" gradientUnits="userSpaceOnUse">
<stop/>
<stop offset="1"/>
</linearGradient>
</defs>
</svg>
