<svg width="1037" height="744" viewBox="0 0 1037 744" fill="none" xmlns="http://www.w3.org/2000/svg">
<path d="M463.744 359C463.539 359 463.335 358.995 463.128 358.985C460.716 358.874 458.36 358.028 456.262 356.519C454.164 355.009 452.385 352.881 451.077 350.315C441.279 331.791 429.255 315.315 415.438 301.483C407.074 293.027 398.334 285.164 389.882 277.559C368.078 257.948 347.543 239.478 336.144 213.956C311.291 158.305 340.559 80.791 382.371 46.0287C429.268 7.04078 490.955 0.925206 550.629 0.123755C556.831 0.0407974 563.037 -0.000432193 569.246 3.41571e-06C676.767 0.0521524 784.062 12.4619 889.807 37.0762C924.97 45.2822 961.776 55.3348 991.354 79.7306C1020.76 103.982 1038.63 142.172 1036.88 177.028C1034.34 227.911 991.695 265.932 952.864 275.872C915.853 285.339 877.404 278.941 836.699 272.166C827.713 270.672 818.422 269.125 809.234 267.781C709.377 253.181 521.789 298.181 513.853 300.105L505.98 302.011L475.429 351.74C474.055 354.006 472.286 355.841 470.259 357.1C468.232 358.36 466.003 359.01 463.744 359Z" fill="white"/>
<path d="M412.489 71.3636C412.335 70.0682 411.713 69.0625 410.622 68.3466C409.531 67.6307 408.193 67.2727 406.608 67.2727C405.449 67.2727 404.435 67.4602 403.565 67.8352C402.705 68.2102 402.031 68.7259 401.545 69.3821C401.068 70.0384 400.83 70.7841 400.83 71.6193C400.83 72.3182 400.996 72.919 401.328 73.4219C401.669 73.9162 402.104 74.3295 402.632 74.6619C403.161 74.9858 403.714 75.2543 404.294 75.4673C404.874 75.6719 405.406 75.8381 405.892 75.9659L408.551 76.6818C409.233 76.8608 409.991 77.108 410.827 77.4233C411.67 77.7386 412.476 78.169 413.243 78.7145C414.018 79.2514 414.658 79.9418 415.161 80.7855C415.663 81.6293 415.915 82.6648 415.915 83.892C415.915 85.3068 415.544 86.5852 414.803 87.7273C414.07 88.8693 412.996 89.777 411.581 90.4503C410.175 91.1236 408.466 91.4602 406.455 91.4602C404.58 91.4602 402.956 91.1577 401.584 90.5526C400.22 89.9474 399.146 89.1037 398.362 88.0213C397.587 86.9389 397.148 85.6818 397.045 84.25H400.318C400.403 85.2386 400.736 86.0568 401.315 86.7045C401.903 87.3437 402.645 87.821 403.54 88.1364C404.443 88.4432 405.415 88.5966 406.455 88.5966C407.665 88.5966 408.751 88.4006 409.714 88.0085C410.678 87.608 411.44 87.054 412.003 86.3466C412.565 85.6307 412.847 84.7955 412.847 83.8409C412.847 82.9716 412.604 82.2642 412.118 81.7188C411.632 81.1733 410.993 80.7301 410.2 80.3892C409.408 80.0483 408.551 79.75 407.631 79.4943L404.409 78.5739C402.364 77.9858 400.744 77.1463 399.551 76.0554C398.358 74.9645 397.761 73.5369 397.761 71.7727C397.761 70.3068 398.158 69.0284 398.95 67.9375C399.751 66.8381 400.825 65.9858 402.172 65.3807C403.527 64.767 405.04 64.4602 406.71 64.4602C408.398 64.4602 409.898 64.7628 411.21 65.3679C412.523 65.9645 413.563 66.7827 414.33 67.8224C415.105 68.8622 415.514 70.0426 415.557 71.3636H412.489ZM429.258 71.3636V73.9205H419.082V71.3636H429.258ZM422.048 66.6591H425.065V85.375C425.065 86.2273 425.189 86.8665 425.436 87.2926C425.691 87.7102 426.015 87.9915 426.407 88.1364C426.808 88.2727 427.23 88.3409 427.673 88.3409C428.005 88.3409 428.278 88.3239 428.491 88.2898C428.704 88.2472 428.875 88.2131 429.002 88.1875L429.616 90.8977C429.412 90.9744 429.126 91.0511 428.76 91.1278C428.393 91.2131 427.929 91.2557 427.366 91.2557C426.514 91.2557 425.679 91.0724 424.86 90.706C424.051 90.3395 423.377 89.7812 422.841 89.0312C422.312 88.2812 422.048 87.3352 422.048 86.1932V66.6591ZM439.575 91.4602C438.331 91.4602 437.201 91.2259 436.187 90.7571C435.173 90.2798 434.368 89.5938 433.771 88.6989C433.174 87.7955 432.876 86.7045 432.876 85.4261C432.876 84.3011 433.098 83.3892 433.541 82.6903C433.984 81.983 434.576 81.429 435.318 81.0284C436.059 80.6278 436.877 80.3295 437.772 80.1335C438.676 79.929 439.583 79.767 440.495 79.6477C441.689 79.4943 442.656 79.3793 443.397 79.3026C444.147 79.2173 444.693 79.0767 445.034 78.8807C445.383 78.6847 445.558 78.3437 445.558 77.858V77.7557C445.558 76.4943 445.213 75.5142 444.522 74.8153C443.841 74.1165 442.805 73.767 441.416 73.767C439.975 73.767 438.846 74.0824 438.028 74.7131C437.21 75.3437 436.635 76.017 436.302 76.733L433.439 75.7102C433.95 74.517 434.632 73.5881 435.484 72.9233C436.345 72.25 437.282 71.7812 438.297 71.517C439.319 71.2443 440.325 71.108 441.314 71.108C441.944 71.108 442.669 71.1847 443.487 71.3381C444.314 71.483 445.11 71.7855 445.877 72.2457C446.653 72.706 447.297 73.4006 447.808 74.3295C448.319 75.2585 448.575 76.5028 448.575 78.0625V91H445.558V88.3409H445.404C445.2 88.767 444.859 89.223 444.382 89.7088C443.904 90.1946 443.27 90.608 442.477 90.9489C441.684 91.2898 440.717 91.4602 439.575 91.4602ZM440.035 88.75C441.228 88.75 442.234 88.5156 443.052 88.0469C443.879 87.5781 444.501 86.973 444.919 86.2315C445.345 85.4901 445.558 84.7102 445.558 83.892V81.1307C445.43 81.2841 445.149 81.4247 444.714 81.5526C444.288 81.6719 443.794 81.7784 443.231 81.8722C442.677 81.9574 442.136 82.0341 441.608 82.1023C441.088 82.1619 440.666 82.2131 440.342 82.2557C439.558 82.358 438.825 82.5241 438.143 82.7543C437.47 82.9759 436.924 83.3125 436.507 83.7642C436.098 84.2074 435.893 84.8125 435.893 85.5795C435.893 86.6278 436.281 87.4205 437.056 87.9574C437.841 88.4858 438.833 88.75 440.035 88.75ZM462.621 71.3636V73.9205H452.445V71.3636H462.621ZM455.411 66.6591H458.428V85.375C458.428 86.2273 458.552 86.8665 458.799 87.2926C459.055 87.7102 459.379 87.9915 459.771 88.1364C460.171 88.2727 460.593 88.3409 461.036 88.3409C461.369 88.3409 461.641 88.3239 461.854 88.2898C462.067 88.2472 462.238 88.2131 462.366 88.1875L462.979 90.8977C462.775 90.9744 462.489 91.0511 462.123 91.1278C461.756 91.2131 461.292 91.2557 460.729 91.2557C459.877 91.2557 459.042 91.0724 458.224 90.706C457.414 90.3395 456.741 89.7812 456.204 89.0312C455.675 88.2812 455.411 87.3352 455.411 86.1932V66.6591ZM475.7 71.3636V73.9205H465.523V71.3636H475.7ZM468.489 66.6591H471.506V85.375C471.506 86.2273 471.63 86.8665 471.877 87.2926C472.133 87.7102 472.457 87.9915 472.849 88.1364C473.249 88.2727 473.671 88.3409 474.114 88.3409C474.447 88.3409 474.719 88.3239 474.933 88.2898C475.146 88.2472 475.316 88.2131 475.444 88.1875L476.058 90.8977C475.853 90.9744 475.567 91.0511 475.201 91.1278C474.835 91.2131 474.37 91.2557 473.808 91.2557C472.955 91.2557 472.12 91.0724 471.302 90.706C470.492 90.3395 469.819 89.7812 469.282 89.0312C468.754 88.2812 468.489 87.3352 468.489 86.1932V66.6591ZM487.442 91.4091C485.805 91.4091 484.361 90.9957 483.108 90.169C481.855 89.3338 480.875 88.1577 480.168 86.6406C479.46 85.1151 479.107 83.3125 479.107 81.233C479.107 79.1705 479.46 77.3807 480.168 75.8636C480.875 74.3466 481.859 73.1747 483.121 72.348C484.382 71.5213 485.839 71.108 487.493 71.108C488.771 71.108 489.781 71.321 490.523 71.7472C491.273 72.1648 491.844 72.642 492.236 73.179C492.636 73.7074 492.947 74.142 493.169 74.483H493.425V64.8182H496.442V91H493.527V87.983H493.169C492.947 88.3409 492.632 88.7926 492.223 89.3381C491.814 89.875 491.23 90.3565 490.472 90.7827C489.713 91.2003 488.703 91.4091 487.442 91.4091ZM487.851 88.6989C489.061 88.6989 490.084 88.3835 490.919 87.7528C491.754 87.1136 492.389 86.2315 492.824 85.1065C493.259 83.973 493.476 82.6648 493.476 81.1818C493.476 79.7159 493.263 78.4332 492.837 77.3338C492.411 76.2259 491.78 75.3651 490.945 74.7514C490.109 74.1293 489.078 73.8182 487.851 73.8182C486.572 73.8182 485.507 74.1463 484.655 74.8026C483.811 75.4503 483.176 76.3324 482.75 77.4489C482.332 78.5568 482.124 79.8011 482.124 81.1818C482.124 82.5795 482.337 83.8494 482.763 84.9915C483.197 86.125 483.837 87.0284 484.68 87.7017C485.533 88.3665 486.589 88.6989 487.851 88.6989ZM510.619 91.4091C508.727 91.4091 507.095 90.9915 505.723 90.1562C504.359 89.3125 503.307 88.1364 502.565 86.6278C501.832 85.1108 501.466 83.3466 501.466 81.3352C501.466 79.3239 501.832 77.5511 502.565 76.017C503.307 74.4744 504.338 73.2727 505.659 72.4119C506.989 71.5426 508.54 71.108 510.312 71.108C511.335 71.108 512.345 71.2784 513.342 71.6193C514.339 71.9602 515.247 72.5142 516.065 73.2812C516.884 74.0398 517.536 75.0455 518.021 76.2983C518.507 77.5511 518.75 79.0937 518.75 80.9261V82.2045H503.614V79.5966H515.682C515.682 78.4886 515.46 77.5 515.017 76.6307C514.582 75.7614 513.96 75.0753 513.151 74.5724C512.349 74.0696 511.403 73.8182 510.312 73.8182C509.111 73.8182 508.071 74.1165 507.193 74.7131C506.324 75.3011 505.655 76.0682 505.186 77.0142C504.717 77.9602 504.483 78.9744 504.483 80.0568V81.7955C504.483 83.2784 504.739 84.5355 505.25 85.5668C505.77 86.5895 506.49 87.3693 507.411 87.9062C508.331 88.4347 509.401 88.6989 510.619 88.6989C511.412 88.6989 512.128 88.5881 512.767 88.3665C513.415 88.1364 513.973 87.7955 514.442 87.3438C514.911 86.8835 515.273 86.3125 515.528 85.6307L518.443 86.4489C518.136 87.4375 517.621 88.3068 516.896 89.0568C516.172 89.7983 515.277 90.3778 514.212 90.7955C513.146 91.2045 511.949 91.4091 510.619 91.4091ZM537.249 75.7614L534.538 76.5284C534.368 76.0767 534.116 75.6378 533.784 75.2116C533.46 74.777 533.017 74.419 532.455 74.1378C531.892 73.8565 531.172 73.7159 530.294 73.7159C529.092 73.7159 528.091 73.9929 527.29 74.5469C526.497 75.0923 526.101 75.7869 526.101 76.6307C526.101 77.3807 526.374 77.973 526.919 78.4077C527.464 78.8423 528.317 79.2045 529.476 79.4943L532.391 80.2102C534.146 80.6364 535.455 81.2884 536.315 82.1662C537.176 83.0355 537.607 84.1562 537.607 85.5284C537.607 86.6534 537.283 87.6591 536.635 88.5455C535.996 89.4318 535.101 90.1307 533.95 90.642C532.8 91.1534 531.462 91.4091 529.936 91.4091C527.933 91.4091 526.276 90.9744 524.963 90.1051C523.651 89.2358 522.82 87.9659 522.47 86.2955L525.334 85.5795C525.607 86.6364 526.122 87.429 526.881 87.9574C527.648 88.4858 528.649 88.75 529.885 88.75C531.291 88.75 532.408 88.4517 533.234 87.8551C534.07 87.25 534.487 86.5256 534.487 85.6818C534.487 85 534.249 84.429 533.771 83.9688C533.294 83.5 532.561 83.1506 531.572 82.9205L528.3 82.1534C526.501 81.7273 525.18 81.0668 524.337 80.1719C523.501 79.2685 523.084 78.1392 523.084 76.7841C523.084 75.6761 523.395 74.696 524.017 73.8438C524.648 72.9915 525.504 72.3224 526.587 71.8366C527.678 71.3509 528.913 71.108 530.294 71.108C532.237 71.108 533.763 71.5341 534.871 72.3864C535.987 73.2386 536.78 74.3636 537.249 75.7614ZM556.057 75.7614L553.347 76.5284C553.176 76.0767 552.925 75.6378 552.593 75.2116C552.269 74.777 551.826 74.419 551.263 74.1378C550.701 73.8565 549.98 73.7159 549.103 73.7159C547.901 73.7159 546.9 73.9929 546.098 74.5469C545.306 75.0923 544.909 75.7869 544.909 76.6307C544.909 77.3807 545.182 77.973 545.728 78.4077C546.273 78.8423 547.125 79.2045 548.284 79.4943L551.199 80.2102C552.955 80.6364 554.263 81.2884 555.124 82.1662C555.985 83.0355 556.415 84.1562 556.415 85.5284C556.415 86.6534 556.091 87.6591 555.444 88.5455C554.804 89.4318 553.909 90.1307 552.759 90.642C551.608 91.1534 550.27 91.4091 548.745 91.4091C546.742 91.4091 545.084 90.9744 543.772 90.1051C542.459 89.2358 541.628 87.9659 541.279 86.2955L544.142 85.5795C544.415 86.6364 544.931 87.429 545.689 87.9574C546.456 88.4858 547.458 88.75 548.694 88.75C550.1 88.75 551.216 88.4517 552.043 87.8551C552.878 87.25 553.296 86.5256 553.296 85.6818C553.296 85 553.057 84.429 552.58 83.9688C552.103 83.5 551.37 83.1506 550.381 82.9205L547.108 82.1534C545.31 81.7273 543.989 81.0668 543.145 80.1719C542.31 79.2685 541.892 78.1392 541.892 76.7841C541.892 75.6761 542.203 74.696 542.826 73.8438C543.456 72.9915 544.313 72.3224 545.395 71.8366C546.486 71.3509 547.722 71.108 549.103 71.108C551.046 71.108 552.571 71.5341 553.679 72.3864C554.796 73.2386 555.588 74.3636 556.057 75.7614ZM569.19 91.4091C567.298 91.4091 565.665 90.9915 564.293 90.1562C562.93 89.3125 561.877 88.1364 561.136 86.6278C560.403 85.1108 560.036 83.3466 560.036 81.3352C560.036 79.3239 560.403 77.5511 561.136 76.017C561.877 74.4744 562.908 73.2727 564.229 72.4119C565.559 71.5426 567.11 71.108 568.883 71.108C569.906 71.108 570.915 71.2784 571.913 71.6193C572.91 71.9602 573.817 72.5142 574.636 73.2812C575.454 74.0398 576.106 75.0455 576.592 76.2983C577.077 77.5511 577.32 79.0937 577.32 80.9261V82.2045H562.184V79.5966H574.252C574.252 78.4886 574.031 77.5 573.587 76.6307C573.153 75.7614 572.531 75.0753 571.721 74.5724C570.92 74.0696 569.974 73.8182 568.883 73.8182C567.681 73.8182 566.641 74.1165 565.763 74.7131C564.894 75.3011 564.225 76.0682 563.756 77.0142C563.288 77.9602 563.053 78.9744 563.053 80.0568V81.7955C563.053 83.2784 563.309 84.5355 563.82 85.5668C564.34 86.5895 565.06 87.3693 565.981 87.9062C566.901 88.4347 567.971 88.6989 569.19 88.6989C569.982 88.6989 570.698 88.5881 571.337 88.3665C571.985 88.1364 572.543 87.7955 573.012 87.3438C573.481 86.8835 573.843 86.3125 574.099 85.6307L577.013 86.4489C576.707 87.4375 576.191 88.3068 575.467 89.0568C574.742 89.7983 573.847 90.3778 572.782 90.7955C571.717 91.2045 570.519 91.4091 569.19 91.4091ZM584.927 79.1875V91H581.91V71.3636H584.825V74.4318H585.08C585.54 73.4347 586.239 72.6335 587.177 72.0284C588.114 71.4148 589.325 71.108 590.808 71.108C592.137 71.108 593.3 71.3807 594.298 71.9261C595.295 72.4631 596.07 73.2812 596.624 74.3807C597.178 75.4716 597.455 76.8523 597.455 78.5227V91H594.438V78.7273C594.438 77.1847 594.038 75.983 593.237 75.1222C592.435 74.2528 591.336 73.8182 589.938 73.8182C588.975 73.8182 588.114 74.027 587.356 74.4446C586.606 74.8622 586.013 75.4716 585.579 76.2727C585.144 77.0739 584.927 78.0455 584.927 79.1875ZM627.002 75.7614L624.292 76.5284C624.122 76.0767 623.87 75.6378 623.538 75.2116C623.214 74.777 622.771 74.419 622.208 74.1378C621.646 73.8565 620.926 73.7159 620.048 73.7159C618.846 73.7159 617.845 73.9929 617.044 74.5469C616.251 75.0923 615.855 75.7869 615.855 76.6307C615.855 77.3807 616.127 77.973 616.673 78.4077C617.218 78.8423 618.071 79.2045 619.23 79.4943L622.145 80.2102C623.9 80.6364 625.208 81.2884 626.069 82.1662C626.93 83.0355 627.36 84.1562 627.36 85.5284C627.36 86.6534 627.037 87.6591 626.389 88.5455C625.75 89.4318 624.855 90.1307 623.704 90.642C622.554 91.1534 621.216 91.4091 619.69 91.4091C617.687 91.4091 616.029 90.9744 614.717 90.1051C613.404 89.2358 612.574 87.9659 612.224 86.2955L615.088 85.5795C615.36 86.6364 615.876 87.429 616.635 87.9574C617.402 88.4858 618.403 88.75 619.639 88.75C621.045 88.75 622.162 88.4517 622.988 87.8551C623.824 87.25 624.241 86.5256 624.241 85.6818C624.241 85 624.002 84.429 623.525 83.9688C623.048 83.5 622.315 83.1506 621.326 82.9205L618.054 82.1534C616.255 81.7273 614.934 81.0668 614.091 80.1719C613.255 79.2685 612.838 78.1392 612.838 76.7841C612.838 75.6761 613.149 74.696 613.771 73.8438C614.402 72.9915 615.258 72.3224 616.341 71.8366C617.431 71.3509 618.667 71.108 620.048 71.108C621.991 71.108 623.517 71.5341 624.625 72.3864C625.741 73.2386 626.534 74.3636 627.002 75.7614ZM639.879 91.4091C638.107 91.4091 636.551 90.9872 635.213 90.1435C633.884 89.2997 632.844 88.1193 632.094 86.6023C631.352 85.0852 630.982 83.3125 630.982 81.2841C630.982 79.2386 631.352 77.4531 632.094 75.9276C632.844 74.402 633.884 73.2173 635.213 72.3736C636.551 71.5298 638.107 71.108 639.879 71.108C641.652 71.108 643.203 71.5298 644.533 72.3736C645.871 73.2173 646.911 74.402 647.652 75.9276C648.402 77.4531 648.777 79.2386 648.777 81.2841C648.777 83.3125 648.402 85.0852 647.652 86.6023C646.911 88.1193 645.871 89.2997 644.533 90.1435C643.203 90.9872 641.652 91.4091 639.879 91.4091ZM639.879 88.6989C641.226 88.6989 642.334 88.3537 643.203 87.6634C644.072 86.973 644.716 86.0653 645.134 84.9403C645.551 83.8153 645.76 82.5966 645.76 81.2841C645.76 79.9716 645.551 78.7486 645.134 77.6151C644.716 76.4815 644.072 75.5653 643.203 74.8665C642.334 74.1676 641.226 73.8182 639.879 73.8182C638.533 73.8182 637.425 74.1676 636.555 74.8665C635.686 75.5653 635.043 76.4815 634.625 77.6151C634.207 78.7486 633.999 79.9716 633.999 81.2841C633.999 82.5966 634.207 83.8153 634.625 84.9403C635.043 86.0653 635.686 86.973 636.555 87.6634C637.425 88.3537 638.533 88.6989 639.879 88.6989ZM656.4 64.8182V91H653.382V64.8182H656.4ZM664.942 64.8182V91H661.925V64.8182H664.942ZM679.008 71.3636V73.9205H668.832V71.3636H679.008ZM671.798 66.6591H674.815V85.375C674.815 86.2273 674.939 86.8665 675.186 87.2926C675.441 87.7102 675.765 87.9915 676.157 88.1364C676.558 88.2727 676.98 88.3409 677.423 88.3409C677.755 88.3409 678.028 88.3239 678.241 88.2898C678.454 88.2472 678.625 88.2131 678.752 88.1875L679.366 90.8977C679.162 90.9744 678.876 91.0511 678.51 91.1278C678.143 91.2131 677.679 91.2557 677.116 91.2557C676.264 91.2557 675.429 91.0724 674.61 90.706C673.801 90.3395 673.127 89.7812 672.591 89.0312C672.062 88.2812 671.798 87.3352 671.798 86.1932V66.6591ZM691.569 91.4091C689.676 91.4091 688.044 90.9915 686.672 90.1562C685.309 89.3125 684.256 88.1364 683.515 86.6278C682.782 85.1108 682.415 83.3466 682.415 81.3352C682.415 79.3239 682.782 77.5511 683.515 76.017C684.256 74.4744 685.287 73.2727 686.608 72.4119C687.938 71.5426 689.489 71.108 691.262 71.108C692.284 71.108 693.294 71.2784 694.292 71.6193C695.289 71.9602 696.196 72.5142 697.015 73.2812C697.833 74.0398 698.485 75.0455 698.971 76.2983C699.456 77.5511 699.699 79.0937 699.699 80.9261V82.2045H684.563V79.5966H696.631C696.631 78.4886 696.409 77.5 695.966 76.6307C695.532 75.7614 694.909 75.0753 694.1 74.5724C693.299 74.0696 692.353 73.8182 691.262 73.8182C690.06 73.8182 689.02 74.1165 688.142 74.7131C687.273 75.3011 686.604 76.0682 686.135 77.0142C685.667 77.9602 685.432 78.9744 685.432 80.0568V81.7955C685.432 83.2784 685.688 84.5355 686.199 85.5668C686.719 86.5895 687.439 87.3693 688.36 87.9062C689.28 88.4347 690.35 88.6989 691.569 88.6989C692.361 88.6989 693.077 88.5881 693.716 88.3665C694.364 88.1364 694.922 87.7955 695.391 87.3438C695.86 86.8835 696.222 86.3125 696.478 85.6307L699.392 86.4489C699.086 87.4375 698.57 88.3068 697.846 89.0568C697.121 89.7983 696.226 90.3778 695.161 90.7955C694.096 91.2045 692.898 91.4091 691.569 91.4091ZM707.306 79.1875V91H704.289V71.3636H707.203V74.4318H707.459C707.919 73.4347 708.618 72.6335 709.556 72.0284C710.493 71.4148 711.703 71.108 713.186 71.108C714.516 71.108 715.679 71.3807 716.676 71.9261C717.674 72.4631 718.449 73.2812 719.003 74.3807C719.557 75.4716 719.834 76.8523 719.834 78.5227V91H716.817V78.7273C716.817 77.1847 716.417 75.983 715.615 75.1222C714.814 74.2528 713.715 73.8182 712.317 73.8182C711.354 73.8182 710.493 74.027 709.735 74.4446C708.985 74.8622 708.392 75.4716 707.958 76.2727C707.523 77.0739 707.306 78.0455 707.306 79.1875ZM739.921 91L733.938 71.3636H737.109L741.353 86.3977H741.558L745.751 71.3636H748.972L753.114 86.3466H753.319L757.563 71.3636H760.734L754.751 91H751.785L747.489 75.9148H747.183L742.887 91H739.921ZM764.722 91V71.3636H767.739V91H764.722ZM766.256 68.0909C765.668 68.0909 765.161 67.8906 764.735 67.4901C764.317 67.0895 764.109 66.608 764.109 66.0455C764.109 65.483 764.317 65.0014 764.735 64.6009C765.161 64.2003 765.668 64 766.256 64C766.844 64 767.347 64.2003 767.765 64.6009C768.191 65.0014 768.404 65.483 768.404 66.0455C768.404 66.608 768.191 67.0895 767.765 67.4901C767.347 67.8906 766.844 68.0909 766.256 68.0909ZM773.265 91V71.3636H776.18V74.3295H776.385C776.743 73.358 777.39 72.5696 778.328 71.9645C779.265 71.3594 780.322 71.0568 781.498 71.0568C781.72 71.0568 781.997 71.0611 782.329 71.0696C782.662 71.0781 782.913 71.0909 783.083 71.108V74.1761C782.981 74.1506 782.747 74.1122 782.38 74.0611C782.022 74.0014 781.643 73.9716 781.243 73.9716C780.288 73.9716 779.436 74.1719 778.686 74.5724C777.944 74.9645 777.356 75.5099 776.922 76.2088C776.495 76.8991 776.282 77.6875 776.282 78.5739V91H773.265ZM809.16 82.9716V71.3636H812.177V91H809.16V87.6761H808.955C808.495 88.6733 807.779 89.5213 806.808 90.2202C805.836 90.9105 804.609 91.2557 803.126 91.2557C801.898 91.2557 800.808 90.9872 799.853 90.4503C798.898 89.9048 798.148 89.0866 797.603 87.9957C797.058 86.8963 796.785 85.5114 796.785 83.8409V71.3636H799.802V83.6364C799.802 85.0682 800.202 86.2102 801.004 87.0625C801.813 87.9148 802.844 88.3409 804.097 88.3409C804.847 88.3409 805.61 88.1491 806.386 87.7656C807.17 87.3821 807.826 86.794 808.354 86.0014C808.891 85.2088 809.16 84.1989 809.16 82.9716ZM820.72 79.1875V91H817.703V71.3636H820.618V74.4318H820.873C821.333 73.4347 822.032 72.6335 822.97 72.0284C823.907 71.4148 825.118 71.108 826.6 71.108C827.93 71.108 829.093 71.3807 830.091 71.9261C831.088 72.4631 831.863 73.2812 832.417 74.3807C832.971 75.4716 833.248 76.8523 833.248 78.5227V91H830.231V78.7273C830.231 77.1847 829.831 75.983 829.029 75.1222C828.228 74.2528 827.129 73.8182 825.731 73.8182C824.768 73.8182 823.907 74.027 823.149 74.4446C822.399 74.8622 821.806 75.4716 821.372 76.2727C820.937 77.0739 820.72 78.0455 820.72 79.1875ZM852.67 75.7614L849.96 76.5284C849.79 76.0767 849.538 75.6378 849.206 75.2116C848.882 74.777 848.439 74.419 847.876 74.1378C847.314 73.8565 846.594 73.7159 845.716 73.7159C844.514 73.7159 843.513 73.9929 842.712 74.5469C841.919 75.0923 841.523 75.7869 841.523 76.6307C841.523 77.3807 841.795 77.973 842.341 78.4077C842.886 78.8423 843.739 79.2045 844.898 79.4943L847.812 80.2102C849.568 80.6364 850.876 81.2884 851.737 82.1662C852.598 83.0355 853.028 84.1562 853.028 85.5284C853.028 86.6534 852.705 87.6591 852.057 88.5455C851.418 89.4318 850.523 90.1307 849.372 90.642C848.222 91.1534 846.884 91.4091 845.358 91.4091C843.355 91.4091 841.697 90.9744 840.385 90.1051C839.072 89.2358 838.241 87.9659 837.892 86.2955L840.756 85.5795C841.028 86.6364 841.544 87.429 842.303 87.9574C843.07 88.4858 844.071 88.75 845.307 88.75C846.713 88.75 847.83 88.4517 848.656 87.8551C849.491 87.25 849.909 86.5256 849.909 85.6818C849.909 85 849.67 84.429 849.193 83.9688C848.716 83.5 847.983 83.1506 846.994 82.9205L843.722 82.1534C841.923 81.7273 840.602 81.0668 839.759 80.1719C838.923 79.2685 838.506 78.1392 838.506 76.7841C838.506 75.6761 838.817 74.696 839.439 73.8438C840.07 72.9915 840.926 72.3224 842.009 71.8366C843.099 71.3509 844.335 71.108 845.716 71.108C847.659 71.108 849.185 71.5341 850.293 72.3864C851.409 73.2386 852.202 74.3636 852.67 75.7614ZM405.176 135.409C403.54 135.409 402.095 134.996 400.842 134.169C399.589 133.334 398.609 132.158 397.902 130.641C397.195 129.115 396.841 127.312 396.841 125.233C396.841 123.17 397.195 121.381 397.902 119.864C398.609 118.347 399.594 117.175 400.855 116.348C402.116 115.521 403.574 115.108 405.227 115.108C406.506 115.108 407.516 115.321 408.257 115.747C409.007 116.165 409.578 116.642 409.97 117.179C410.371 117.707 410.682 118.142 410.903 118.483H411.159V108.818H414.176V135H411.261V131.983H410.903C410.682 132.341 410.366 132.793 409.957 133.338C409.548 133.875 408.964 134.357 408.206 134.783C407.447 135.2 406.438 135.409 405.176 135.409ZM405.585 132.699C406.795 132.699 407.818 132.384 408.653 131.753C409.489 131.114 410.124 130.232 410.558 129.107C410.993 127.973 411.21 126.665 411.21 125.182C411.21 123.716 410.997 122.433 410.571 121.334C410.145 120.226 409.514 119.365 408.679 118.751C407.844 118.129 406.813 117.818 405.585 117.818C404.307 117.818 403.241 118.146 402.389 118.803C401.545 119.45 400.911 120.332 400.484 121.449C400.067 122.557 399.858 123.801 399.858 125.182C399.858 126.58 400.071 127.849 400.497 128.991C400.932 130.125 401.571 131.028 402.415 131.702C403.267 132.366 404.324 132.699 405.585 132.699ZM425.899 135.46C424.655 135.46 423.526 135.226 422.511 134.757C421.497 134.28 420.692 133.594 420.095 132.699C419.499 131.795 419.2 130.705 419.2 129.426C419.2 128.301 419.422 127.389 419.865 126.69C420.308 125.983 420.901 125.429 421.642 125.028C422.384 124.628 423.202 124.33 424.097 124.134C425 123.929 425.908 123.767 426.82 123.648C428.013 123.494 428.98 123.379 429.722 123.303C430.472 123.217 431.017 123.077 431.358 122.881C431.707 122.685 431.882 122.344 431.882 121.858V121.756C431.882 120.494 431.537 119.514 430.847 118.815C430.165 118.116 429.129 117.767 427.74 117.767C426.3 117.767 425.17 118.082 424.352 118.713C423.534 119.344 422.959 120.017 422.626 120.733L419.763 119.71C420.274 118.517 420.956 117.588 421.808 116.923C422.669 116.25 423.607 115.781 424.621 115.517C425.643 115.244 426.649 115.108 427.638 115.108C428.268 115.108 428.993 115.185 429.811 115.338C430.638 115.483 431.435 115.786 432.202 116.246C432.977 116.706 433.621 117.401 434.132 118.33C434.643 119.259 434.899 120.503 434.899 122.062V135H431.882V132.341H431.729C431.524 132.767 431.183 133.223 430.706 133.709C430.229 134.195 429.594 134.608 428.801 134.949C428.009 135.29 427.041 135.46 425.899 135.46ZM426.359 132.75C427.553 132.75 428.558 132.516 429.376 132.047C430.203 131.578 430.825 130.973 431.243 130.232C431.669 129.49 431.882 128.71 431.882 127.892V125.131C431.754 125.284 431.473 125.425 431.038 125.553C430.612 125.672 430.118 125.778 429.555 125.872C429.001 125.957 428.46 126.034 427.932 126.102C427.412 126.162 426.99 126.213 426.666 126.256C425.882 126.358 425.149 126.524 424.467 126.754C423.794 126.976 423.249 127.312 422.831 127.764C422.422 128.207 422.217 128.812 422.217 129.58C422.217 130.628 422.605 131.42 423.381 131.957C424.165 132.486 425.158 132.75 426.359 132.75ZM440.406 135V115.364H443.321V118.33H443.525C443.883 117.358 444.531 116.57 445.468 115.964C446.406 115.359 447.463 115.057 448.639 115.057C448.86 115.057 449.137 115.061 449.47 115.07C449.802 115.078 450.054 115.091 450.224 115.108V118.176C450.122 118.151 449.887 118.112 449.521 118.061C449.163 118.001 448.784 117.972 448.383 117.972C447.429 117.972 446.576 118.172 445.826 118.572C445.085 118.964 444.497 119.51 444.062 120.209C443.636 120.899 443.423 121.687 443.423 122.574V135H440.406ZM459.579 135.46C458.335 135.46 457.205 135.226 456.191 134.757C455.177 134.28 454.371 133.594 453.775 132.699C453.178 131.795 452.88 130.705 452.88 129.426C452.88 128.301 453.102 127.389 453.545 126.69C453.988 125.983 454.58 125.429 455.322 125.028C456.063 124.628 456.881 124.33 457.776 124.134C458.68 123.929 459.587 123.767 460.499 123.648C461.692 123.494 462.66 123.379 463.401 123.303C464.151 123.217 464.697 123.077 465.038 122.881C465.387 122.685 465.562 122.344 465.562 121.858V121.756C465.562 120.494 465.217 119.514 464.526 118.815C463.844 118.116 462.809 117.767 461.42 117.767C459.979 117.767 458.85 118.082 458.032 118.713C457.214 119.344 456.638 120.017 456.306 120.733L453.442 119.71C453.954 118.517 454.636 117.588 455.488 116.923C456.349 116.25 457.286 115.781 458.3 115.517C459.323 115.244 460.329 115.108 461.317 115.108C461.948 115.108 462.673 115.185 463.491 115.338C464.317 115.483 465.114 115.786 465.881 116.246C466.657 116.706 467.3 117.401 467.812 118.33C468.323 119.259 468.579 120.503 468.579 122.062V135H465.562V132.341H465.408C465.204 132.767 464.863 133.223 464.386 133.709C463.908 134.195 463.273 134.608 462.481 134.949C461.688 135.29 460.721 135.46 459.579 135.46ZM460.039 132.75C461.232 132.75 462.238 132.516 463.056 132.047C463.883 131.578 464.505 130.973 464.923 130.232C465.349 129.49 465.562 128.71 465.562 127.892V125.131C465.434 125.284 465.153 125.425 464.718 125.553C464.292 125.672 463.798 125.778 463.235 125.872C462.681 125.957 462.14 126.034 461.612 126.102C461.092 126.162 460.67 126.213 460.346 126.256C459.562 126.358 458.829 126.524 458.147 126.754C457.474 126.976 456.928 127.312 456.511 127.764C456.102 128.207 455.897 128.812 455.897 129.58C455.897 130.628 456.285 131.42 457.06 131.957C457.844 132.486 458.837 132.75 460.039 132.75ZM486.461 126.972V115.364H489.478V135H486.461V131.676H486.256C485.796 132.673 485.08 133.521 484.108 134.22C483.137 134.911 481.909 135.256 480.426 135.256C479.199 135.256 478.108 134.987 477.154 134.45C476.199 133.905 475.449 133.087 474.904 131.996C474.358 130.896 474.086 129.511 474.086 127.841V115.364H477.103V127.636C477.103 129.068 477.503 130.21 478.304 131.062C479.114 131.915 480.145 132.341 481.398 132.341C482.148 132.341 482.911 132.149 483.686 131.766C484.471 131.382 485.127 130.794 485.655 130.001C486.192 129.209 486.461 128.199 486.461 126.972ZM503.748 115.364V117.92H493.163V115.364H503.748ZM496.333 135V112.653C496.333 111.528 496.597 110.591 497.126 109.841C497.654 109.091 498.34 108.528 499.184 108.153C500.028 107.778 500.918 107.591 501.856 107.591C502.597 107.591 503.202 107.651 503.671 107.77C504.14 107.889 504.489 108 504.719 108.102L503.85 110.71C503.697 110.659 503.484 110.595 503.211 110.518C502.947 110.442 502.597 110.403 502.163 110.403C501.165 110.403 500.445 110.655 500.002 111.158C499.567 111.661 499.35 112.398 499.35 113.369V135H496.333ZM520.914 127.841L520.863 124.108H521.476L530.067 115.364H533.8L524.647 124.619H524.391L520.914 127.841ZM518.101 135V108.818H521.118V135H518.101ZM530.578 135L522.908 125.284L525.056 123.188L534.414 135H530.578ZM544.852 135.409C543.079 135.409 541.524 134.987 540.186 134.143C538.856 133.3 537.816 132.119 537.066 130.602C536.325 129.085 535.954 127.312 535.954 125.284C535.954 123.239 536.325 121.453 537.066 119.928C537.816 118.402 538.856 117.217 540.186 116.374C541.524 115.53 543.079 115.108 544.852 115.108C546.625 115.108 548.176 115.53 549.505 116.374C550.843 117.217 551.883 118.402 552.625 119.928C553.375 121.453 553.75 123.239 553.75 125.284C553.75 127.312 553.375 129.085 552.625 130.602C551.883 132.119 550.843 133.3 549.505 134.143C548.176 134.987 546.625 135.409 544.852 135.409ZM544.852 132.699C546.199 132.699 547.306 132.354 548.176 131.663C549.045 130.973 549.689 130.065 550.106 128.94C550.524 127.815 550.733 126.597 550.733 125.284C550.733 123.972 550.524 122.749 550.106 121.615C549.689 120.482 549.045 119.565 548.176 118.866C547.306 118.168 546.199 117.818 544.852 117.818C543.505 117.818 542.397 118.168 541.528 118.866C540.659 119.565 540.015 120.482 539.598 121.615C539.18 122.749 538.971 123.972 538.971 125.284C538.971 126.597 539.18 127.815 539.598 128.94C540.015 130.065 540.659 130.973 541.528 131.663C542.397 132.354 543.505 132.699 544.852 132.699ZM561.372 123.188V135H558.355V115.364H561.27V118.432H561.526C561.986 117.435 562.685 116.634 563.622 116.028C564.56 115.415 565.77 115.108 567.253 115.108C568.582 115.108 569.746 115.381 570.743 115.926C571.74 116.463 572.516 117.281 573.07 118.381C573.624 119.472 573.901 120.852 573.901 122.523V135H570.884V122.727C570.884 121.185 570.483 119.983 569.682 119.122C568.881 118.253 567.781 117.818 566.384 117.818C565.42 117.818 564.56 118.027 563.801 118.445C563.051 118.862 562.459 119.472 562.024 120.273C561.589 121.074 561.372 122.045 561.372 123.188ZM578.851 135V132.699L589.999 118.381V118.176H579.209V115.364H593.885V117.767L583.044 131.983V132.188H594.243V135H578.851ZM606.561 135.409C604.669 135.409 603.037 134.991 601.664 134.156C600.301 133.312 599.248 132.136 598.507 130.628C597.774 129.111 597.407 127.347 597.407 125.335C597.407 123.324 597.774 121.551 598.507 120.017C599.248 118.474 600.279 117.273 601.6 116.412C602.93 115.543 604.481 115.108 606.254 115.108C607.277 115.108 608.287 115.278 609.284 115.619C610.281 115.96 611.189 116.514 612.007 117.281C612.825 118.04 613.477 119.045 613.963 120.298C614.449 121.551 614.691 123.094 614.691 124.926V126.205H599.555V123.597H611.623C611.623 122.489 611.402 121.5 610.958 120.631C610.524 119.761 609.902 119.075 609.092 118.572C608.291 118.07 607.345 117.818 606.254 117.818C605.052 117.818 604.012 118.116 603.135 118.713C602.265 119.301 601.596 120.068 601.127 121.014C600.659 121.96 600.424 122.974 600.424 124.057V125.795C600.424 127.278 600.68 128.536 601.191 129.567C601.711 130.589 602.431 131.369 603.352 131.906C604.272 132.435 605.342 132.699 606.561 132.699C607.353 132.699 608.069 132.588 608.708 132.366C609.356 132.136 609.914 131.795 610.383 131.344C610.852 130.884 611.214 130.312 611.47 129.631L614.385 130.449C614.078 131.438 613.562 132.307 612.838 133.057C612.113 133.798 611.218 134.378 610.153 134.795C609.088 135.205 607.89 135.409 606.561 135.409ZM622.298 123.188V135H619.281V115.364H622.196V118.432H622.451C622.912 117.435 623.61 116.634 624.548 116.028C625.485 115.415 626.696 115.108 628.179 115.108C629.508 115.108 630.672 115.381 631.669 115.926C632.666 116.463 633.441 117.281 633.995 118.381C634.549 119.472 634.826 120.852 634.826 122.523V135H631.809V122.727C631.809 121.185 631.409 119.983 630.608 119.122C629.806 118.253 628.707 117.818 627.309 117.818C626.346 117.818 625.485 118.027 624.727 118.445C623.977 118.862 623.385 119.472 622.95 120.273C622.515 121.074 622.298 122.045 622.298 123.188ZM648.879 115.364V117.92H638.703V115.364H648.879ZM641.669 110.659H644.686V129.375C644.686 130.227 644.81 130.866 645.057 131.293C645.313 131.71 645.636 131.991 646.028 132.136C646.429 132.273 646.851 132.341 647.294 132.341C647.626 132.341 647.899 132.324 648.112 132.29C648.325 132.247 648.496 132.213 648.624 132.188L649.237 134.898C649.033 134.974 648.747 135.051 648.381 135.128C648.014 135.213 647.55 135.256 646.987 135.256C646.135 135.256 645.3 135.072 644.482 134.706C643.672 134.339 642.999 133.781 642.462 133.031C641.933 132.281 641.669 131.335 641.669 130.193V110.659ZM653.418 135V115.364H656.332V118.33H656.537C656.895 117.358 657.543 116.57 658.48 115.964C659.418 115.359 660.474 115.057 661.651 115.057C661.872 115.057 662.149 115.061 662.482 115.07C662.814 115.078 663.065 115.091 663.236 115.108V118.176C663.134 118.151 662.899 118.112 662.533 118.061C662.175 118.001 661.795 117.972 661.395 117.972C660.44 117.972 659.588 118.172 658.838 118.572C658.097 118.964 657.509 119.51 657.074 120.209C656.648 120.899 656.435 121.687 656.435 122.574V135H653.418ZM666.812 135V115.364H669.829V135H666.812ZM668.346 112.091C667.758 112.091 667.251 111.891 666.825 111.49C666.407 111.089 666.199 110.608 666.199 110.045C666.199 109.483 666.407 109.001 666.825 108.601C667.251 108.2 667.758 108 668.346 108C668.934 108 669.437 108.2 669.855 108.601C670.281 109.001 670.494 109.483 670.494 110.045C670.494 110.608 670.281 111.089 669.855 111.49C669.437 111.891 668.934 112.091 668.346 112.091ZM683.588 135.409C681.696 135.409 680.064 134.991 678.692 134.156C677.328 133.312 676.276 132.136 675.534 130.628C674.801 129.111 674.435 127.347 674.435 125.335C674.435 123.324 674.801 121.551 675.534 120.017C676.276 118.474 677.307 117.273 678.628 116.412C679.957 115.543 681.509 115.108 683.281 115.108C684.304 115.108 685.314 115.278 686.311 115.619C687.308 115.96 688.216 116.514 689.034 117.281C689.852 118.04 690.504 119.045 690.99 120.298C691.476 121.551 691.719 123.094 691.719 124.926V126.205H676.582V123.597H688.651C688.651 122.489 688.429 121.5 687.986 120.631C687.551 119.761 686.929 119.075 686.119 118.572C685.318 118.07 684.372 117.818 683.281 117.818C682.08 117.818 681.04 118.116 680.162 118.713C679.293 119.301 678.624 120.068 678.155 121.014C677.686 121.96 677.452 122.974 677.452 124.057V125.795C677.452 127.278 677.707 128.536 678.219 129.567C678.739 130.589 679.459 131.369 680.379 131.906C681.3 132.435 682.369 132.699 683.588 132.699C684.381 132.699 685.097 132.588 685.736 132.366C686.384 132.136 686.942 131.795 687.411 131.344C687.879 130.884 688.241 130.312 688.497 129.631L691.412 130.449C691.105 131.438 690.589 132.307 689.865 133.057C689.141 133.798 688.246 134.378 687.18 134.795C686.115 135.205 684.918 135.409 683.588 135.409ZM696.308 135V115.364H699.223V118.33H699.428C699.786 117.358 700.433 116.57 701.371 115.964C702.308 115.359 703.365 115.057 704.541 115.057C704.763 115.057 705.04 115.061 705.372 115.07C705.705 115.078 705.956 115.091 706.126 115.108V118.176C706.024 118.151 705.79 118.112 705.423 118.061C705.065 118.001 704.686 117.972 704.286 117.972C703.331 117.972 702.479 118.172 701.729 118.572C700.987 118.964 700.399 119.51 699.964 120.209C699.538 120.899 699.325 121.687 699.325 122.574V135H696.308ZM717.338 135.409C715.446 135.409 713.814 134.991 712.442 134.156C711.078 133.312 710.026 132.136 709.284 130.628C708.551 129.111 708.185 127.347 708.185 125.335C708.185 123.324 708.551 121.551 709.284 120.017C710.026 118.474 711.057 117.273 712.378 116.412C713.707 115.543 715.259 115.108 717.031 115.108C718.054 115.108 719.064 115.278 720.061 115.619C721.058 115.96 721.966 116.514 722.784 117.281C723.602 118.04 724.254 119.045 724.74 120.298C725.226 121.551 725.469 123.094 725.469 124.926V126.205H710.332V123.597H722.401C722.401 122.489 722.179 121.5 721.736 120.631C721.301 119.761 720.679 119.075 719.869 118.572C719.068 118.07 718.122 117.818 717.031 117.818C715.83 117.818 714.79 118.116 713.912 118.713C713.043 119.301 712.374 120.068 711.905 121.014C711.436 121.96 711.202 122.974 711.202 124.057V125.795C711.202 127.278 711.457 128.536 711.969 129.567C712.489 130.589 713.209 131.369 714.129 131.906C715.05 132.435 716.119 132.699 717.338 132.699C718.131 132.699 718.847 132.588 719.486 132.366C720.134 132.136 720.692 131.795 721.161 131.344C721.629 130.884 721.991 130.312 722.247 129.631L725.162 130.449C724.855 131.438 724.339 132.307 723.615 133.057C722.891 133.798 721.996 134.378 720.93 134.795C719.865 135.205 718.668 135.409 717.338 135.409ZM733.075 123.188V135H730.058V115.364H732.973V118.432H733.229C733.689 117.435 734.388 116.634 735.325 116.028C736.263 115.415 737.473 115.108 738.956 115.108C740.286 115.108 741.449 115.381 742.446 115.926C743.443 116.463 744.219 117.281 744.773 118.381C745.327 119.472 745.604 120.852 745.604 122.523V135H742.587V122.727C742.587 121.185 742.186 119.983 741.385 119.122C740.584 118.253 739.484 117.818 738.087 117.818C737.124 117.818 736.263 118.027 735.504 118.445C734.754 118.862 734.162 119.472 733.727 120.273C733.293 121.074 733.075 122.045 733.075 123.188ZM768.657 135.409C767.02 135.409 765.576 134.996 764.323 134.169C763.07 133.334 762.09 132.158 761.382 130.641C760.675 129.115 760.321 127.312 760.321 125.233C760.321 123.17 760.675 121.381 761.382 119.864C762.09 118.347 763.074 117.175 764.336 116.348C765.597 115.521 767.054 115.108 768.708 115.108C769.986 115.108 770.996 115.321 771.738 115.747C772.488 116.165 773.059 116.642 773.451 117.179C773.851 117.707 774.162 118.142 774.384 118.483H774.64V108.818H777.657V135H774.742V131.983H774.384C774.162 132.341 773.847 132.793 773.438 133.338C773.029 133.875 772.445 134.357 771.686 134.783C770.928 135.2 769.918 135.409 768.657 135.409ZM769.066 132.699C770.276 132.699 771.299 132.384 772.134 131.753C772.969 131.114 773.604 130.232 774.039 129.107C774.473 127.973 774.691 126.665 774.691 125.182C774.691 123.716 774.478 122.433 774.051 121.334C773.625 120.226 772.995 119.365 772.159 118.751C771.324 118.129 770.293 117.818 769.066 117.818C767.787 117.818 766.722 118.146 765.87 118.803C765.026 119.45 764.391 120.332 763.965 121.449C763.547 122.557 763.338 123.801 763.338 125.182C763.338 126.58 763.551 127.849 763.978 128.991C764.412 130.125 765.051 131.028 765.895 131.702C766.748 132.366 767.804 132.699 769.066 132.699ZM783.601 135V115.364H786.618V135H783.601ZM785.135 112.091C784.547 112.091 784.04 111.891 783.614 111.49C783.196 111.089 782.988 110.608 782.988 110.045C782.988 109.483 783.196 109.001 783.614 108.601C784.04 108.2 784.547 108 785.135 108C785.723 108 786.226 108.2 786.644 108.601C787.07 109.001 787.283 109.483 787.283 110.045C787.283 110.608 787.07 111.089 786.644 111.49C786.226 111.891 785.723 112.091 785.135 112.091ZM800.377 135.409C798.485 135.409 796.853 134.991 795.481 134.156C794.117 133.312 793.065 132.136 792.323 130.628C791.59 129.111 791.224 127.347 791.224 125.335C791.224 123.324 791.59 121.551 792.323 120.017C793.065 118.474 794.096 117.273 795.417 116.412C796.746 115.543 798.298 115.108 800.07 115.108C801.093 115.108 802.103 115.278 803.1 115.619C804.097 115.96 805.005 116.514 805.823 117.281C806.641 118.04 807.293 119.045 807.779 120.298C808.265 121.551 808.508 123.094 808.508 124.926V126.205H793.371V123.597H805.44C805.44 122.489 805.218 121.5 804.775 120.631C804.34 119.761 803.718 119.075 802.908 118.572C802.107 118.07 801.161 117.818 800.07 117.818C798.869 117.818 797.829 118.116 796.951 118.713C796.082 119.301 795.413 120.068 794.944 121.014C794.475 121.96 794.241 122.974 794.241 124.057V125.795C794.241 127.278 794.496 128.536 795.008 129.567C795.528 130.589 796.248 131.369 797.168 131.906C798.089 132.435 799.158 132.699 800.377 132.699C801.17 132.699 801.886 132.588 802.525 132.366C803.173 132.136 803.731 131.795 804.2 131.344C804.668 130.884 805.031 130.312 805.286 129.631L808.201 130.449C807.894 131.438 807.379 132.307 806.654 133.057C805.93 133.798 805.035 134.378 803.969 134.795C802.904 135.205 801.707 135.409 800.377 135.409ZM412.489 159.364C412.335 158.068 411.713 157.062 410.622 156.347C409.531 155.631 408.193 155.273 406.608 155.273C405.449 155.273 404.435 155.46 403.565 155.835C402.705 156.21 402.031 156.726 401.545 157.382C401.068 158.038 400.83 158.784 400.83 159.619C400.83 160.318 400.996 160.919 401.328 161.422C401.669 161.916 402.104 162.33 402.632 162.662C403.161 162.986 403.714 163.254 404.294 163.467C404.874 163.672 405.406 163.838 405.892 163.966L408.551 164.682C409.233 164.861 409.991 165.108 410.827 165.423C411.67 165.739 412.476 166.169 413.243 166.714C414.018 167.251 414.658 167.942 415.161 168.786C415.663 169.629 415.915 170.665 415.915 171.892C415.915 173.307 415.544 174.585 414.803 175.727C414.07 176.869 412.996 177.777 411.581 178.45C410.175 179.124 408.466 179.46 406.455 179.46C404.58 179.46 402.956 179.158 401.584 178.553C400.22 177.947 399.146 177.104 398.362 176.021C397.587 174.939 397.148 173.682 397.045 172.25H400.318C400.403 173.239 400.736 174.057 401.315 174.705C401.903 175.344 402.645 175.821 403.54 176.136C404.443 176.443 405.415 176.597 406.455 176.597C407.665 176.597 408.751 176.401 409.714 176.009C410.678 175.608 411.44 175.054 412.003 174.347C412.565 173.631 412.847 172.795 412.847 171.841C412.847 170.972 412.604 170.264 412.118 169.719C411.632 169.173 410.993 168.73 410.2 168.389C409.408 168.048 408.551 167.75 407.631 167.494L404.409 166.574C402.364 165.986 400.744 165.146 399.551 164.055C398.358 162.964 397.761 161.537 397.761 159.773C397.761 158.307 398.158 157.028 398.95 155.938C399.751 154.838 400.825 153.986 402.172 153.381C403.527 152.767 405.04 152.46 406.71 152.46C408.398 152.46 409.898 152.763 411.21 153.368C412.523 153.964 413.563 154.783 414.33 155.822C415.105 156.862 415.514 158.043 415.557 159.364H412.489ZM428.696 179.409C426.855 179.409 425.27 178.974 423.94 178.105C422.61 177.236 421.588 176.038 420.872 174.513C420.156 172.987 419.798 171.244 419.798 169.284C419.798 167.29 420.164 165.53 420.897 164.004C421.639 162.47 422.67 161.273 423.991 160.412C425.321 159.543 426.872 159.108 428.645 159.108C430.025 159.108 431.27 159.364 432.377 159.875C433.485 160.386 434.393 161.102 435.1 162.023C435.808 162.943 436.247 164.017 436.417 165.244H433.4C433.17 164.349 432.659 163.557 431.866 162.866C431.082 162.168 430.025 161.818 428.696 161.818C427.52 161.818 426.488 162.125 425.602 162.739C424.724 163.344 424.038 164.2 423.544 165.308C423.058 166.408 422.815 167.699 422.815 169.182C422.815 170.699 423.054 172.02 423.531 173.145C424.017 174.27 424.699 175.143 425.576 175.766C426.463 176.388 427.502 176.699 428.696 176.699C429.48 176.699 430.191 176.562 430.831 176.29C431.47 176.017 432.011 175.625 432.454 175.114C432.897 174.602 433.213 173.989 433.4 173.273H436.417C436.247 174.432 435.825 175.476 435.152 176.405C434.487 177.325 433.605 178.058 432.505 178.604C431.414 179.141 430.145 179.409 428.696 179.409ZM443.845 167.188V179H440.828V152.818H443.845V162.432H444.1C444.561 161.418 445.251 160.612 446.172 160.016C447.1 159.411 448.336 159.108 449.879 159.108C451.217 159.108 452.389 159.376 453.395 159.913C454.4 160.442 455.18 161.256 455.734 162.355C456.297 163.446 456.578 164.835 456.578 166.523V179H453.561V166.727C453.561 165.168 453.156 163.962 452.346 163.109C451.545 162.249 450.433 161.818 449.01 161.818C448.021 161.818 447.135 162.027 446.35 162.445C445.575 162.862 444.961 163.472 444.51 164.273C444.066 165.074 443.845 166.045 443.845 167.188ZM466.546 179L460.563 159.364H463.734L467.978 174.398H468.183L472.376 159.364H475.597L479.739 174.347H479.944L484.188 159.364H487.359L481.376 179H478.41L474.114 163.915H473.808L469.512 179H466.546ZM497.126 179.46C495.881 179.46 494.752 179.226 493.738 178.757C492.724 178.28 491.918 177.594 491.322 176.699C490.725 175.795 490.427 174.705 490.427 173.426C490.427 172.301 490.648 171.389 491.092 170.69C491.535 169.983 492.127 169.429 492.869 169.028C493.61 168.628 494.428 168.33 495.323 168.134C496.227 167.929 497.134 167.767 498.046 167.648C499.239 167.494 500.207 167.379 500.948 167.303C501.698 167.217 502.244 167.077 502.585 166.881C502.934 166.685 503.109 166.344 503.109 165.858V165.756C503.109 164.494 502.763 163.514 502.073 162.815C501.391 162.116 500.356 161.767 498.967 161.767C497.526 161.767 496.397 162.082 495.579 162.713C494.761 163.344 494.185 164.017 493.853 164.733L490.989 163.71C491.501 162.517 492.183 161.588 493.035 160.923C493.896 160.25 494.833 159.781 495.847 159.517C496.87 159.244 497.876 159.108 498.864 159.108C499.495 159.108 500.219 159.185 501.038 159.338C501.864 159.483 502.661 159.786 503.428 160.246C504.204 160.706 504.847 161.401 505.359 162.33C505.87 163.259 506.126 164.503 506.126 166.062V179H503.109V176.341H502.955C502.751 176.767 502.41 177.223 501.933 177.709C501.455 178.195 500.82 178.608 500.028 178.949C499.235 179.29 498.268 179.46 497.126 179.46ZM497.586 176.75C498.779 176.75 499.785 176.516 500.603 176.047C501.43 175.578 502.052 174.973 502.469 174.232C502.896 173.49 503.109 172.71 503.109 171.892V169.131C502.981 169.284 502.7 169.425 502.265 169.553C501.839 169.672 501.344 169.778 500.782 169.872C500.228 169.957 499.687 170.034 499.158 170.102C498.638 170.162 498.217 170.213 497.893 170.256C497.109 170.358 496.376 170.524 495.694 170.754C495.021 170.976 494.475 171.312 494.058 171.764C493.648 172.207 493.444 172.812 493.444 173.58C493.444 174.628 493.832 175.42 494.607 175.957C495.391 176.486 496.384 176.75 497.586 176.75ZM519.61 179.409C517.769 179.409 516.184 178.974 514.854 178.105C513.525 177.236 512.502 176.038 511.786 174.513C511.07 172.987 510.712 171.244 510.712 169.284C510.712 167.29 511.078 165.53 511.811 164.004C512.553 162.47 513.584 161.273 514.905 160.412C516.235 159.543 517.786 159.108 519.559 159.108C520.939 159.108 522.184 159.364 523.292 159.875C524.4 160.386 525.307 161.102 526.015 162.023C526.722 162.943 527.161 164.017 527.331 165.244H524.314C524.084 164.349 523.573 163.557 522.78 162.866C521.996 162.168 520.939 161.818 519.61 161.818C518.434 161.818 517.402 162.125 516.516 162.739C515.638 163.344 514.952 164.2 514.458 165.308C513.972 166.408 513.729 167.699 513.729 169.182C513.729 170.699 513.968 172.02 514.445 173.145C514.931 174.27 515.613 175.143 516.49 175.766C517.377 176.388 518.417 176.699 519.61 176.699C520.394 176.699 521.105 176.562 521.745 176.29C522.384 176.017 522.925 175.625 523.368 175.114C523.811 174.602 524.127 173.989 524.314 173.273H527.331C527.161 174.432 526.739 175.476 526.066 176.405C525.401 177.325 524.519 178.058 523.419 178.604C522.328 179.141 521.059 179.409 519.61 179.409ZM534.759 167.188V179H531.742V152.818H534.759V162.432H535.015C535.475 161.418 536.165 160.612 537.086 160.016C538.015 159.411 539.25 159.108 540.793 159.108C542.131 159.108 543.303 159.376 544.309 159.913C545.314 160.442 546.094 161.256 546.648 162.355C547.211 163.446 547.492 164.835 547.492 166.523V179H544.475V166.727C544.475 165.168 544.07 163.962 543.26 163.109C542.459 162.249 541.347 161.818 539.924 161.818C538.935 161.818 538.049 162.027 537.265 162.445C536.489 162.862 535.875 163.472 535.424 164.273C534.98 165.074 534.759 166.045 534.759 167.188ZM566.92 163.761L564.21 164.528C564.04 164.077 563.788 163.638 563.456 163.212C563.132 162.777 562.689 162.419 562.126 162.138C561.564 161.857 560.844 161.716 559.966 161.716C558.764 161.716 557.763 161.993 556.962 162.547C556.169 163.092 555.773 163.787 555.773 164.631C555.773 165.381 556.045 165.973 556.591 166.408C557.136 166.842 557.989 167.205 559.148 167.494L562.062 168.21C563.818 168.636 565.126 169.288 565.987 170.166C566.848 171.036 567.278 172.156 567.278 173.528C567.278 174.653 566.955 175.659 566.307 176.545C565.668 177.432 564.773 178.131 563.622 178.642C562.472 179.153 561.134 179.409 559.608 179.409C557.605 179.409 555.947 178.974 554.635 178.105C553.322 177.236 552.491 175.966 552.142 174.295L555.006 173.58C555.278 174.636 555.794 175.429 556.553 175.957C557.32 176.486 558.321 176.75 559.557 176.75C560.963 176.75 562.08 176.452 562.906 175.855C563.741 175.25 564.159 174.526 564.159 173.682C564.159 173 563.92 172.429 563.443 171.969C562.966 171.5 562.233 171.151 561.244 170.92L557.972 170.153C556.173 169.727 554.852 169.067 554.009 168.172C553.173 167.268 552.756 166.139 552.756 164.784C552.756 163.676 553.067 162.696 553.689 161.844C554.32 160.991 555.176 160.322 556.259 159.837C557.349 159.351 558.585 159.108 559.966 159.108C561.909 159.108 563.435 159.534 564.543 160.386C565.659 161.239 566.452 162.364 566.92 163.761ZM580.36 159.364V161.92H570.184V159.364H580.36ZM573.15 154.659H576.167V173.375C576.167 174.227 576.29 174.866 576.537 175.293C576.793 175.71 577.117 175.991 577.509 176.136C577.909 176.273 578.331 176.341 578.775 176.341C579.107 176.341 579.38 176.324 579.593 176.29C579.806 176.247 579.976 176.213 580.104 176.188L580.718 178.898C580.513 178.974 580.228 179.051 579.861 179.128C579.495 179.213 579.03 179.256 578.468 179.256C577.615 179.256 576.78 179.072 575.962 178.706C575.152 178.339 574.479 177.781 573.942 177.031C573.414 176.281 573.15 175.335 573.15 174.193V154.659ZM592.92 179.409C591.028 179.409 589.396 178.991 588.024 178.156C586.66 177.312 585.608 176.136 584.866 174.628C584.133 173.111 583.767 171.347 583.767 169.335C583.767 167.324 584.133 165.551 584.866 164.017C585.608 162.474 586.639 161.273 587.96 160.412C589.289 159.543 590.841 159.108 592.613 159.108C593.636 159.108 594.646 159.278 595.643 159.619C596.64 159.96 597.548 160.514 598.366 161.281C599.184 162.04 599.836 163.045 600.322 164.298C600.808 165.551 601.051 167.094 601.051 168.926V170.205H585.914V167.597H597.983C597.983 166.489 597.761 165.5 597.318 164.631C596.883 163.761 596.261 163.075 595.451 162.572C594.65 162.07 593.704 161.818 592.613 161.818C591.412 161.818 590.372 162.116 589.494 162.713C588.625 163.301 587.956 164.068 587.487 165.014C587.018 165.96 586.784 166.974 586.784 168.057V169.795C586.784 171.278 587.039 172.536 587.551 173.567C588.071 174.589 588.791 175.369 589.711 175.906C590.632 176.435 591.701 176.699 592.92 176.699C593.713 176.699 594.429 176.588 595.068 176.366C595.716 176.136 596.274 175.795 596.743 175.344C597.211 174.884 597.574 174.312 597.829 173.631L600.744 174.449C600.437 175.438 599.922 176.307 599.197 177.057C598.473 177.798 597.578 178.378 596.512 178.795C595.447 179.205 594.25 179.409 592.92 179.409ZM608.657 152.818V179H605.64V152.818H608.657ZM617.2 152.818V179H614.183V152.818H617.2ZM630.959 179.409C629.067 179.409 627.435 178.991 626.063 178.156C624.699 177.312 623.647 176.136 622.905 174.628C622.172 173.111 621.806 171.347 621.806 169.335C621.806 167.324 622.172 165.551 622.905 164.017C623.647 162.474 624.678 161.273 625.999 160.412C627.328 159.543 628.88 159.108 630.652 159.108C631.675 159.108 632.685 159.278 633.682 159.619C634.679 159.96 635.587 160.514 636.405 161.281C637.223 162.04 637.875 163.045 638.361 164.298C638.847 165.551 639.09 167.094 639.09 168.926V170.205H623.953V167.597H636.022C636.022 166.489 635.8 165.5 635.357 164.631C634.922 163.761 634.3 163.075 633.49 162.572C632.689 162.07 631.743 161.818 630.652 161.818C629.451 161.818 628.411 162.116 627.533 162.713C626.664 163.301 625.995 164.068 625.526 165.014C625.057 165.96 624.823 166.974 624.823 168.057V169.795C624.823 171.278 625.078 172.536 625.59 173.567C626.11 174.589 626.83 175.369 627.75 175.906C628.671 176.435 629.74 176.699 630.959 176.699C631.752 176.699 632.468 176.588 633.107 176.366C633.755 176.136 634.313 175.795 634.782 175.344C635.25 174.884 635.613 174.312 635.868 173.631L638.783 174.449C638.476 175.438 637.961 176.307 637.236 177.057C636.512 177.798 635.617 178.378 634.551 178.795C633.486 179.205 632.289 179.409 630.959 179.409ZM646.696 167.188V179H643.679V159.364H646.594V162.432H646.85C647.31 161.435 648.009 160.634 648.946 160.028C649.884 159.415 651.094 159.108 652.577 159.108C653.907 159.108 655.07 159.381 656.067 159.926C657.064 160.463 657.84 161.281 658.394 162.381C658.948 163.472 659.225 164.852 659.225 166.523V179H656.208V166.727C656.208 165.185 655.807 163.983 655.006 163.122C654.205 162.253 653.105 161.818 651.708 161.818C650.745 161.818 649.884 162.027 649.125 162.445C648.375 162.862 647.783 163.472 647.348 164.273C646.914 165.074 646.696 166.045 646.696 167.188ZM674.3 179V176.699L685.448 162.381V162.176H674.658V159.364H689.335V161.767L678.494 175.983V176.188H689.692V179H674.3ZM706.714 170.972V159.364H709.732V179H706.714V175.676H706.51C706.05 176.673 705.334 177.521 704.362 178.22C703.391 178.911 702.163 179.256 700.68 179.256C699.453 179.256 698.362 178.987 697.408 178.45C696.453 177.905 695.703 177.087 695.158 175.996C694.612 174.896 694.339 173.511 694.339 171.841V159.364H697.357V171.636C697.357 173.068 697.757 174.21 698.558 175.062C699.368 175.915 700.399 176.341 701.652 176.341C702.402 176.341 703.165 176.149 703.94 175.766C704.724 175.382 705.381 174.794 705.909 174.001C706.446 173.209 706.714 172.199 706.714 170.972ZM734.127 159.364V161.92H723.542V159.364H734.127ZM726.712 179V156.653C726.712 155.528 726.976 154.591 727.505 153.841C728.033 153.091 728.719 152.528 729.563 152.153C730.407 151.778 731.297 151.591 732.235 151.591C732.976 151.591 733.581 151.651 734.05 151.77C734.519 151.889 734.868 152 735.098 152.102L734.229 154.71C734.076 154.659 733.863 154.595 733.59 154.518C733.326 154.442 732.976 154.403 732.542 154.403C731.544 154.403 730.824 154.655 730.381 155.158C729.946 155.661 729.729 156.398 729.729 157.369V179H726.712ZM738.355 179V159.364H741.372V179H738.355ZM739.889 156.091C739.301 156.091 738.794 155.891 738.368 155.49C737.95 155.089 737.741 154.608 737.741 154.045C737.741 153.483 737.95 153.001 738.368 152.601C738.794 152.2 739.301 152 739.889 152C740.477 152 740.98 152.2 741.398 152.601C741.824 153.001 742.037 153.483 742.037 154.045C742.037 154.608 741.824 155.089 741.398 155.49C740.98 155.891 740.477 156.091 739.889 156.091ZM749.915 167.188V179H746.898V159.364H749.813V162.432H750.069C750.529 161.435 751.228 160.634 752.165 160.028C753.103 159.415 754.313 159.108 755.796 159.108C757.125 159.108 758.289 159.381 759.286 159.926C760.283 160.463 761.059 161.281 761.613 162.381C762.167 163.472 762.444 164.852 762.444 166.523V179H759.426V166.727C759.426 165.185 759.026 163.983 758.225 163.122C757.424 162.253 756.324 161.818 754.926 161.818C753.963 161.818 753.103 162.027 752.344 162.445C751.594 162.862 751.002 163.472 750.567 164.273C750.132 165.074 749.915 166.045 749.915 167.188ZM775.371 179.409C773.735 179.409 772.29 178.996 771.038 178.169C769.785 177.334 768.805 176.158 768.097 174.641C767.39 173.115 767.036 171.312 767.036 169.233C767.036 167.17 767.39 165.381 768.097 163.864C768.805 162.347 769.789 161.175 771.05 160.348C772.312 159.521 773.769 159.108 775.423 159.108C776.701 159.108 777.711 159.321 778.452 159.747C779.202 160.165 779.773 160.642 780.165 161.179C780.566 161.707 780.877 162.142 781.099 162.483H781.354V152.818H784.371V179H781.457V175.983H781.099C780.877 176.341 780.562 176.793 780.153 177.338C779.744 177.875 779.16 178.357 778.401 178.783C777.643 179.2 776.633 179.409 775.371 179.409ZM775.781 176.699C776.991 176.699 778.013 176.384 778.849 175.753C779.684 175.114 780.319 174.232 780.754 173.107C781.188 171.973 781.406 170.665 781.406 169.182C781.406 167.716 781.192 166.433 780.766 165.334C780.34 164.226 779.71 163.365 778.874 162.751C778.039 162.129 777.008 161.818 775.781 161.818C774.502 161.818 773.437 162.146 772.585 162.803C771.741 163.45 771.106 164.332 770.68 165.449C770.262 166.557 770.053 167.801 770.053 169.182C770.053 170.58 770.266 171.849 770.692 172.991C771.127 174.125 771.766 175.028 772.61 175.702C773.462 176.366 774.519 176.699 775.781 176.699ZM798.549 179.409C796.657 179.409 795.025 178.991 793.653 178.156C792.289 177.312 791.237 176.136 790.495 174.628C789.762 173.111 789.396 171.347 789.396 169.335C789.396 167.324 789.762 165.551 790.495 164.017C791.237 162.474 792.268 161.273 793.589 160.412C794.918 159.543 796.469 159.108 798.242 159.108C799.265 159.108 800.275 159.278 801.272 159.619C802.269 159.96 803.177 160.514 803.995 161.281C804.813 162.04 805.465 163.045 805.951 164.298C806.437 165.551 806.68 167.094 806.68 168.926V170.205H791.543V167.597H803.612C803.612 166.489 803.39 165.5 802.947 164.631C802.512 163.761 801.89 163.075 801.08 162.572C800.279 162.07 799.333 161.818 798.242 161.818C797.04 161.818 796.001 162.116 795.123 162.713C794.254 163.301 793.585 164.068 793.116 165.014C792.647 165.96 792.413 166.974 792.413 168.057V169.795C792.413 171.278 792.668 172.536 793.18 173.567C793.7 174.589 794.42 175.369 795.34 175.906C796.261 176.435 797.33 176.699 798.549 176.699C799.342 176.699 800.058 176.588 800.697 176.366C801.344 176.136 801.903 175.795 802.371 175.344C802.84 174.884 803.202 174.312 803.458 173.631L806.373 174.449C806.066 175.438 805.55 176.307 804.826 177.057C804.102 177.798 803.207 178.378 802.141 178.795C801.076 179.205 799.879 179.409 798.549 179.409ZM814.286 167.188V179H811.269V159.364H814.184V162.432H814.44C814.9 161.435 815.599 160.634 816.536 160.028C817.474 159.415 818.684 159.108 820.167 159.108C821.496 159.108 822.66 159.381 823.657 159.926C824.654 160.463 825.43 161.281 825.984 162.381C826.538 163.472 826.815 164.852 826.815 166.523V179H823.798V166.727C823.798 165.185 823.397 163.983 822.596 163.122C821.795 162.253 820.695 161.818 819.298 161.818C818.335 161.818 817.474 162.027 816.715 162.445C815.965 162.862 815.373 163.472 814.938 164.273C814.504 165.074 814.286 166.045 814.286 167.188ZM836.828 175.42L836.623 176.801C836.478 177.773 836.257 178.812 835.958 179.92C835.669 181.028 835.366 182.072 835.051 183.053C834.735 184.033 834.475 184.813 834.271 185.392H831.97C832.081 184.847 832.225 184.126 832.404 183.232C832.583 182.337 832.762 181.335 832.941 180.227C833.129 179.128 833.282 178.003 833.402 176.852L833.555 175.42H836.828ZM859.957 179.409C858.321 179.409 856.876 178.996 855.624 178.169C854.371 177.334 853.391 176.158 852.683 174.641C851.976 173.115 851.622 171.312 851.622 169.233C851.622 167.17 851.976 165.381 852.683 163.864C853.391 162.347 854.375 161.175 855.636 160.348C856.898 159.521 858.355 159.108 860.009 159.108C861.287 159.108 862.297 159.321 863.038 159.747C863.788 160.165 864.359 160.642 864.751 161.179C865.152 161.707 865.463 162.142 865.685 162.483H865.94V152.818H868.957V179H866.043V175.983H865.685C865.463 176.341 865.148 176.793 864.739 177.338C864.33 177.875 863.746 178.357 862.987 178.783C862.229 179.2 861.219 179.409 859.957 179.409ZM860.366 176.699C861.577 176.699 862.599 176.384 863.435 175.753C864.27 175.114 864.905 174.232 865.339 173.107C865.774 171.973 865.991 170.665 865.991 169.182C865.991 167.716 865.778 166.433 865.352 165.334C864.926 164.226 864.295 163.365 863.46 162.751C862.625 162.129 861.594 161.818 860.366 161.818C859.088 161.818 858.023 162.146 857.17 162.803C856.327 163.45 855.692 164.332 855.266 165.449C854.848 166.557 854.639 167.801 854.639 169.182C854.639 170.58 854.852 171.849 855.278 172.991C855.713 174.125 856.352 175.028 857.196 175.702C858.048 176.366 859.105 176.699 860.366 176.699ZM874.902 179V159.364H877.919V179H874.902ZM876.436 156.091C875.848 156.091 875.341 155.891 874.915 155.49C874.497 155.089 874.288 154.608 874.288 154.045C874.288 153.483 874.497 153.001 874.915 152.601C875.341 152.2 875.848 152 876.436 152C877.024 152 877.527 152.2 877.945 152.601C878.371 153.001 878.584 153.483 878.584 154.045C878.584 154.608 878.371 155.089 877.945 155.49C877.527 155.891 877.024 156.091 876.436 156.091ZM891.678 179.409C889.786 179.409 888.154 178.991 886.782 178.156C885.418 177.312 884.365 176.136 883.624 174.628C882.891 173.111 882.525 171.347 882.525 169.335C882.525 167.324 882.891 165.551 883.624 164.017C884.365 162.474 885.397 161.273 886.718 160.412C888.047 159.543 889.598 159.108 891.371 159.108C892.394 159.108 893.404 159.278 894.401 159.619C895.398 159.96 896.306 160.514 897.124 161.281C897.942 162.04 898.594 163.045 899.08 164.298C899.566 165.551 899.809 167.094 899.809 168.926V170.205H884.672V167.597H896.74C896.74 166.489 896.519 165.5 896.076 164.631C895.641 163.761 895.019 163.075 894.209 162.572C893.408 162.07 892.462 161.818 891.371 161.818C890.169 161.818 889.13 162.116 888.252 162.713C887.382 163.301 886.713 164.068 886.245 165.014C885.776 165.96 885.542 166.974 885.542 168.057V169.795C885.542 171.278 885.797 172.536 886.309 173.567C886.828 174.589 887.549 175.369 888.469 175.906C889.39 176.435 890.459 176.699 891.678 176.699C892.471 176.699 893.186 176.588 893.826 176.366C894.473 176.136 895.032 175.795 895.5 175.344C895.969 174.884 896.331 174.312 896.587 173.631L899.502 174.449C899.195 175.438 898.679 176.307 897.955 177.057C897.23 177.798 896.336 178.378 895.27 178.795C894.205 179.205 893.007 179.409 891.678 179.409ZM921.938 179.409C920.301 179.409 918.857 178.996 917.604 178.169C916.351 177.334 915.371 176.158 914.664 174.641C913.956 173.115 913.603 171.312 913.603 169.233C913.603 167.17 913.956 165.381 914.664 163.864C915.371 162.347 916.355 161.175 917.617 160.348C918.878 159.521 920.336 159.108 921.989 159.108C923.267 159.108 924.277 159.321 925.019 159.747C925.769 160.165 926.34 160.642 926.732 161.179C927.132 161.707 927.444 162.142 927.665 162.483H927.921V152.818H930.938V179H928.023V175.983H927.665C927.444 176.341 927.128 176.793 926.719 177.338C926.31 177.875 925.726 178.357 924.968 178.783C924.209 179.2 923.199 179.409 921.938 179.409ZM922.347 176.699C923.557 176.699 924.58 176.384 925.415 175.753C926.25 175.114 926.885 174.232 927.32 173.107C927.755 171.973 927.972 170.665 927.972 169.182C927.972 167.716 927.759 166.433 927.333 165.334C926.907 164.226 926.276 163.365 925.441 162.751C924.605 162.129 923.574 161.818 922.347 161.818C921.069 161.818 920.003 162.146 919.151 162.803C918.307 163.45 917.672 164.332 917.246 165.449C916.828 166.557 916.62 167.801 916.62 169.182C916.62 170.58 916.833 171.849 917.259 172.991C917.694 174.125 918.333 175.028 919.176 175.702C920.029 176.366 921.086 176.699 922.347 176.699ZM936.882 179V159.364H939.9V179H936.882ZM938.417 156.091C937.828 156.091 937.321 155.891 936.895 155.49C936.478 155.089 936.269 154.608 936.269 154.045C936.269 153.483 936.478 153.001 936.895 152.601C937.321 152.2 937.828 152 938.417 152C939.005 152 939.507 152.2 939.925 152.601C940.351 153.001 940.564 153.483 940.564 154.045C940.564 154.608 940.351 155.089 939.925 155.49C939.507 155.891 939.005 156.091 938.417 156.091ZM953.658 179.409C951.766 179.409 950.134 178.991 948.762 178.156C947.398 177.312 946.346 176.136 945.604 174.628C944.871 173.111 944.505 171.347 944.505 169.335C944.505 167.324 944.871 165.551 945.604 164.017C946.346 162.474 947.377 161.273 948.698 160.412C950.028 159.543 951.579 159.108 953.352 159.108C954.374 159.108 955.384 159.278 956.381 159.619C957.379 159.96 958.286 160.514 959.104 161.281C959.923 162.04 960.575 163.045 961.06 164.298C961.546 165.551 961.789 167.094 961.789 168.926V170.205H946.653V167.597H958.721C958.721 166.489 958.499 165.5 958.056 164.631C957.621 163.761 956.999 163.075 956.19 162.572C955.388 162.07 954.442 161.818 953.352 161.818C952.15 161.818 951.11 162.116 950.232 162.713C949.363 163.301 948.694 164.068 948.225 165.014C947.756 165.96 947.522 166.974 947.522 168.057V169.795C947.522 171.278 947.778 172.536 948.289 173.567C948.809 174.589 949.529 175.369 950.45 175.906C951.37 176.435 952.44 176.699 953.658 176.699C954.451 176.699 955.167 176.588 955.806 176.366C956.454 176.136 957.012 175.795 957.481 175.344C957.95 174.884 958.312 174.312 958.567 173.631L961.482 174.449C961.175 175.438 960.66 176.307 959.935 177.057C959.211 177.798 958.316 178.378 957.251 178.795C956.185 179.205 954.988 179.409 953.658 179.409ZM398.17 223V196.818H401.341V208.477H415.301V196.818H418.472V223H415.301V211.29H401.341V223H398.17ZM430.188 223.46C428.944 223.46 427.815 223.226 426.8 222.757C425.786 222.28 424.981 221.594 424.384 220.699C423.788 219.795 423.489 218.705 423.489 217.426C423.489 216.301 423.711 215.389 424.154 214.69C424.597 213.983 425.19 213.429 425.931 213.028C426.673 212.628 427.491 212.33 428.386 212.134C429.289 211.929 430.197 211.767 431.109 211.648C432.302 211.494 433.269 211.379 434.011 211.303C434.761 211.217 435.306 211.077 435.647 210.881C435.996 210.685 436.171 210.344 436.171 209.858V209.756C436.171 208.494 435.826 207.514 435.136 206.815C434.454 206.116 433.418 205.767 432.029 205.767C430.589 205.767 429.46 206.082 428.641 206.713C427.823 207.344 427.248 208.017 426.915 208.733L424.052 207.71C424.563 206.517 425.245 205.588 426.097 204.923C426.958 204.25 427.896 203.781 428.91 203.517C429.933 203.244 430.938 203.108 431.927 203.108C432.558 203.108 433.282 203.185 434.1 203.338C434.927 203.483 435.724 203.786 436.491 204.246C437.266 204.706 437.91 205.401 438.421 206.33C438.933 207.259 439.188 208.503 439.188 210.062V223H436.171V220.341H436.018C435.813 220.767 435.472 221.223 434.995 221.709C434.518 222.195 433.883 222.608 433.09 222.949C432.298 223.29 431.33 223.46 430.188 223.46ZM430.648 220.75C431.842 220.75 432.847 220.516 433.665 220.047C434.492 219.578 435.114 218.973 435.532 218.232C435.958 217.49 436.171 216.71 436.171 215.892V213.131C436.043 213.284 435.762 213.425 435.327 213.553C434.901 213.672 434.407 213.778 433.844 213.872C433.29 213.957 432.749 214.034 432.221 214.102C431.701 214.162 431.279 214.213 430.955 214.256C430.171 214.358 429.438 214.524 428.756 214.754C428.083 214.976 427.538 215.312 427.12 215.764C426.711 216.207 426.506 216.812 426.506 217.58C426.506 218.628 426.894 219.42 427.67 219.957C428.454 220.486 429.447 220.75 430.648 220.75ZM452.672 223.409C450.831 223.409 449.246 222.974 447.917 222.105C446.587 221.236 445.564 220.038 444.848 218.513C444.132 216.987 443.775 215.244 443.775 213.284C443.775 211.29 444.141 209.53 444.874 208.004C445.615 206.47 446.647 205.273 447.968 204.412C449.297 203.543 450.848 203.108 452.621 203.108C454.002 203.108 455.246 203.364 456.354 203.875C457.462 204.386 458.37 205.102 459.077 206.023C459.784 206.943 460.223 208.017 460.394 209.244H457.377C457.147 208.349 456.635 207.557 455.843 206.866C455.059 206.168 454.002 205.818 452.672 205.818C451.496 205.818 450.465 206.125 449.578 206.739C448.701 207.344 448.015 208.2 447.52 209.308C447.034 210.408 446.792 211.699 446.792 213.182C446.792 214.699 447.03 216.02 447.507 217.145C447.993 218.27 448.675 219.143 449.553 219.766C450.439 220.388 451.479 220.699 452.672 220.699C453.456 220.699 454.168 220.562 454.807 220.29C455.446 220.017 455.988 219.625 456.431 219.114C456.874 218.602 457.189 217.989 457.377 217.273H460.394C460.223 218.432 459.801 219.476 459.128 220.405C458.463 221.325 457.581 222.058 456.482 222.604C455.391 223.141 454.121 223.409 452.672 223.409ZM467.617 215.841L467.566 212.108H468.179L476.77 203.364H480.503L471.35 212.619H471.094L467.617 215.841ZM464.804 223V196.818H467.821V223H464.804ZM477.282 223L469.611 213.284L471.759 211.188L481.117 223H477.282ZM491.811 223.409C489.919 223.409 488.287 222.991 486.914 222.156C485.551 221.312 484.498 220.136 483.757 218.628C483.024 217.111 482.657 215.347 482.657 213.335C482.657 211.324 483.024 209.551 483.757 208.017C484.498 206.474 485.529 205.273 486.85 204.412C488.18 203.543 489.731 203.108 491.504 203.108C492.527 203.108 493.537 203.278 494.534 203.619C495.531 203.96 496.439 204.514 497.257 205.281C498.075 206.04 498.727 207.045 499.213 208.298C499.699 209.551 499.941 211.094 499.941 212.926V214.205H484.805V211.597H496.873C496.873 210.489 496.652 209.5 496.208 208.631C495.774 207.761 495.152 207.075 494.342 206.572C493.541 206.07 492.595 205.818 491.504 205.818C490.302 205.818 489.262 206.116 488.385 206.713C487.515 207.301 486.846 208.068 486.377 209.014C485.909 209.96 485.674 210.974 485.674 212.057V213.795C485.674 215.278 485.93 216.536 486.441 217.567C486.961 218.589 487.681 219.369 488.602 219.906C489.522 220.435 490.592 220.699 491.811 220.699C492.603 220.699 493.319 220.588 493.958 220.366C494.606 220.136 495.164 219.795 495.633 219.344C496.102 218.884 496.464 218.312 496.72 217.631L499.635 218.449C499.328 219.438 498.812 220.307 498.088 221.057C497.363 221.798 496.468 222.378 495.403 222.795C494.338 223.205 493.14 223.409 491.811 223.409ZM504.531 223V203.364H507.446V206.33H507.65C508.008 205.358 508.656 204.57 509.593 203.964C510.531 203.359 511.588 203.057 512.764 203.057C512.985 203.057 513.262 203.061 513.595 203.07C513.927 203.078 514.179 203.091 514.349 203.108V206.176C514.247 206.151 514.012 206.112 513.646 206.061C513.288 206.001 512.909 205.972 512.508 205.972C511.554 205.972 510.701 206.172 509.951 206.572C509.21 206.964 508.622 207.51 508.187 208.209C507.761 208.899 507.548 209.687 507.548 210.574V223H504.531ZM533.829 223.46C532.585 223.46 531.455 223.226 530.441 222.757C529.427 222.28 528.621 221.594 528.025 220.699C527.428 219.795 527.13 218.705 527.13 217.426C527.13 216.301 527.352 215.389 527.795 214.69C528.238 213.983 528.83 213.429 529.572 213.028C530.313 212.628 531.131 212.33 532.026 212.134C532.93 211.929 533.837 211.767 534.749 211.648C535.942 211.494 536.91 211.379 537.651 211.303C538.401 211.217 538.947 211.077 539.288 210.881C539.637 210.685 539.812 210.344 539.812 209.858V209.756C539.812 208.494 539.467 207.514 538.776 206.815C538.094 206.116 537.059 205.767 535.67 205.767C534.229 205.767 533.1 206.082 532.282 206.713C531.464 207.344 530.888 208.017 530.556 208.733L527.692 207.71C528.204 206.517 528.886 205.588 529.738 204.923C530.599 204.25 531.536 203.781 532.55 203.517C533.573 203.244 534.579 203.108 535.567 203.108C536.198 203.108 536.923 203.185 537.741 203.338C538.567 203.483 539.364 203.786 540.131 204.246C540.907 204.706 541.55 205.401 542.062 206.33C542.573 207.259 542.829 208.503 542.829 210.062V223H539.812V220.341H539.658C539.454 220.767 539.113 221.223 538.636 221.709C538.158 222.195 537.523 222.608 536.731 222.949C535.938 223.29 534.971 223.46 533.829 223.46ZM534.289 220.75C535.482 220.75 536.488 220.516 537.306 220.047C538.133 219.578 538.755 218.973 539.173 218.232C539.599 217.49 539.812 216.71 539.812 215.892V213.131C539.684 213.284 539.403 213.425 538.968 213.553C538.542 213.672 538.048 213.778 537.485 213.872C536.931 213.957 536.39 214.034 535.862 214.102C535.342 214.162 534.92 214.213 534.596 214.256C533.812 214.358 533.079 214.524 532.397 214.754C531.724 214.976 531.178 215.312 530.761 215.764C530.352 216.207 530.147 216.812 530.147 217.58C530.147 218.628 530.535 219.42 531.31 219.957C532.094 220.486 533.087 220.75 534.289 220.75ZM560.711 214.972V203.364H563.728V223H560.711V219.676H560.506C560.046 220.673 559.33 221.521 558.358 222.22C557.387 222.911 556.159 223.256 554.676 223.256C553.449 223.256 552.358 222.987 551.404 222.45C550.449 221.905 549.699 221.087 549.154 219.996C548.608 218.896 548.336 217.511 548.336 215.841V203.364H551.353V215.636C551.353 217.068 551.753 218.21 552.554 219.062C553.364 219.915 554.395 220.341 555.648 220.341C556.398 220.341 557.161 220.149 557.936 219.766C558.721 219.382 559.377 218.794 559.905 218.001C560.442 217.209 560.711 216.199 560.711 214.972ZM583.163 207.761L580.452 208.528C580.282 208.077 580.031 207.638 579.698 207.212C579.374 206.777 578.931 206.419 578.369 206.138C577.806 205.857 577.086 205.716 576.208 205.716C575.006 205.716 574.005 205.993 573.204 206.547C572.411 207.092 572.015 207.787 572.015 208.631C572.015 209.381 572.288 209.973 572.833 210.408C573.379 210.842 574.231 211.205 575.39 211.494L578.305 212.21C580.06 212.636 581.369 213.288 582.229 214.166C583.09 215.036 583.521 216.156 583.521 217.528C583.521 218.653 583.197 219.659 582.549 220.545C581.91 221.432 581.015 222.131 579.864 222.642C578.714 223.153 577.376 223.409 575.85 223.409C573.847 223.409 572.19 222.974 570.877 222.105C569.565 221.236 568.734 219.966 568.384 218.295L571.248 217.58C571.521 218.636 572.036 219.429 572.795 219.957C573.562 220.486 574.563 220.75 575.799 220.75C577.205 220.75 578.322 220.452 579.148 219.855C579.984 219.25 580.401 218.526 580.401 217.682C580.401 217 580.163 216.429 579.685 215.969C579.208 215.5 578.475 215.151 577.487 214.92L574.214 214.153C572.415 213.727 571.094 213.067 570.251 212.172C569.415 211.268 568.998 210.139 568.998 208.784C568.998 207.676 569.309 206.696 569.931 205.844C570.562 204.991 571.418 204.322 572.501 203.837C573.592 203.351 574.827 203.108 576.208 203.108C578.151 203.108 579.677 203.534 580.785 204.386C581.901 205.239 582.694 206.364 583.163 207.761ZM595.988 230.773C594.531 230.773 593.278 230.585 592.23 230.21C591.181 229.844 590.308 229.358 589.609 228.753C588.919 228.156 588.369 227.517 587.96 226.835L590.363 225.148C590.636 225.506 590.981 225.915 591.399 226.375C591.816 226.844 592.387 227.249 593.112 227.589C593.845 227.939 594.804 228.114 595.988 228.114C597.574 228.114 598.882 227.73 599.913 226.963C600.944 226.196 601.46 224.994 601.46 223.358V219.369H601.204C600.983 219.727 600.667 220.17 600.258 220.699C599.858 221.219 599.278 221.683 598.52 222.092C597.77 222.493 596.755 222.693 595.477 222.693C593.892 222.693 592.468 222.318 591.207 221.568C589.954 220.818 588.961 219.727 588.228 218.295C587.504 216.864 587.142 215.125 587.142 213.08C587.142 211.068 587.495 209.317 588.203 207.825C588.91 206.325 589.895 205.166 591.156 204.348C592.417 203.521 593.875 203.108 595.528 203.108C596.806 203.108 597.821 203.321 598.571 203.747C599.329 204.165 599.909 204.642 600.309 205.179C600.718 205.707 601.034 206.142 601.255 206.483H601.562V203.364H604.477V223.562C604.477 225.25 604.093 226.622 603.326 227.679C602.568 228.744 601.545 229.524 600.258 230.018C598.98 230.521 597.556 230.773 595.988 230.773ZM595.886 219.983C597.096 219.983 598.119 219.706 598.954 219.152C599.789 218.598 600.424 217.801 600.859 216.761C601.294 215.722 601.511 214.477 601.511 213.028C601.511 211.614 601.298 210.365 600.872 209.283C600.446 208.2 599.815 207.352 598.98 206.739C598.145 206.125 597.113 205.818 595.886 205.818C594.608 205.818 593.542 206.142 592.69 206.79C591.846 207.437 591.211 208.307 590.785 209.398C590.368 210.489 590.159 211.699 590.159 213.028C590.159 214.392 590.372 215.598 590.798 216.646C591.233 217.686 591.872 218.504 592.716 219.101C593.568 219.689 594.625 219.983 595.886 219.983ZM618.233 223.409C616.341 223.409 614.708 222.991 613.336 222.156C611.973 221.312 610.92 220.136 610.179 218.628C609.446 217.111 609.079 215.347 609.079 213.335C609.079 211.324 609.446 209.551 610.179 208.017C610.92 206.474 611.951 205.273 613.272 204.412C614.602 203.543 616.153 203.108 617.926 203.108C618.949 203.108 619.958 203.278 620.956 203.619C621.953 203.96 622.86 204.514 623.679 205.281C624.497 206.04 625.149 207.045 625.635 208.298C626.12 209.551 626.363 211.094 626.363 212.926V214.205H611.227V211.597H623.295C623.295 210.489 623.074 209.5 622.63 208.631C622.196 207.761 621.574 207.075 620.764 206.572C619.963 206.07 619.017 205.818 617.926 205.818C616.724 205.818 615.684 206.116 614.806 206.713C613.937 207.301 613.268 208.068 612.799 209.014C612.331 209.96 612.096 210.974 612.096 212.057V213.795C612.096 215.278 612.352 216.536 612.863 217.567C613.383 218.589 614.103 219.369 615.024 219.906C615.944 220.435 617.014 220.699 618.233 220.699C619.025 220.699 619.741 220.588 620.38 220.366C621.028 220.136 621.586 219.795 622.055 219.344C622.524 218.884 622.886 218.312 623.142 217.631L626.056 218.449C625.75 219.438 625.234 220.307 624.51 221.057C623.785 221.798 622.89 222.378 621.825 222.795C620.76 223.205 619.562 223.409 618.233 223.409ZM633.97 211.188V223H630.953V203.364H633.868V206.432H634.123C634.583 205.435 635.282 204.634 636.22 204.028C637.157 203.415 638.368 203.108 639.85 203.108C641.18 203.108 642.343 203.381 643.341 203.926C644.338 204.463 645.113 205.281 645.667 206.381C646.221 207.472 646.498 208.852 646.498 210.523V223H643.481V210.727C643.481 209.185 643.081 207.983 642.279 207.122C641.478 206.253 640.379 205.818 638.981 205.818C638.018 205.818 637.157 206.027 636.399 206.445C635.649 206.862 635.056 207.472 634.622 208.273C634.187 209.074 633.97 210.045 633.97 211.188ZM664.386 214.972V203.364H667.403V223H664.386V219.676H664.182C663.722 220.673 663.006 221.521 662.034 222.22C661.063 222.911 659.835 223.256 658.352 223.256C657.125 223.256 656.034 222.987 655.08 222.45C654.125 221.905 653.375 221.087 652.83 219.996C652.284 218.896 652.011 217.511 652.011 215.841V203.364H655.028V215.636C655.028 217.068 655.429 218.21 656.23 219.062C657.04 219.915 658.071 220.341 659.324 220.341C660.074 220.341 660.837 220.149 661.612 219.766C662.396 219.382 663.053 218.794 663.581 218.001C664.118 217.209 664.386 216.199 664.386 214.972ZM681.469 203.364V205.92H671.293V203.364H681.469ZM674.259 198.659H677.276V217.375C677.276 218.227 677.4 218.866 677.647 219.293C677.902 219.71 678.226 219.991 678.618 220.136C679.019 220.273 679.441 220.341 679.884 220.341C680.216 220.341 680.489 220.324 680.702 220.29C680.915 220.247 681.086 220.213 681.213 220.188L681.827 222.898C681.623 222.974 681.337 223.051 680.971 223.128C680.604 223.213 680.14 223.256 679.577 223.256C678.725 223.256 677.89 223.072 677.071 222.706C676.262 222.339 675.588 221.781 675.051 221.031C674.523 220.281 674.259 219.335 674.259 218.193V198.659ZM685.445 223V220.699L696.593 206.381V206.176H685.803V203.364H700.479V205.767L689.638 219.983V220.188H700.837V223H685.445ZM714.024 203.364V205.92H703.848V203.364H714.024ZM706.814 198.659H709.831V217.375C709.831 218.227 709.954 218.866 710.201 219.293C710.457 219.71 710.781 219.991 711.173 220.136C711.574 220.273 711.995 220.341 712.439 220.341C712.771 220.341 713.044 220.324 713.257 220.29C713.47 220.247 713.64 220.213 713.768 220.188L714.382 222.898C714.177 222.974 713.892 223.051 713.525 223.128C713.159 223.213 712.694 223.256 712.132 223.256C711.279 223.256 710.444 223.072 709.626 222.706C708.816 222.339 708.143 221.781 707.606 221.031C707.078 220.281 706.814 219.335 706.814 218.193V198.659ZM731.704 211.188V223H728.687V196.818H731.704V206.432H731.96C732.42 205.418 733.11 204.612 734.031 204.016C734.96 203.411 736.196 203.108 737.738 203.108C739.076 203.108 740.248 203.376 741.254 203.913C742.26 204.442 743.039 205.256 743.593 206.355C744.156 207.446 744.437 208.835 744.437 210.523V223H741.42V210.727C741.42 209.168 741.015 207.962 740.206 207.109C739.404 206.249 738.292 205.818 736.869 205.818C735.88 205.818 734.994 206.027 734.21 206.445C733.434 206.862 732.821 207.472 732.369 208.273C731.926 209.074 731.704 210.045 731.704 211.188ZM755.735 223.46C754.491 223.46 753.362 223.226 752.347 222.757C751.333 222.28 750.528 221.594 749.931 220.699C749.335 219.795 749.036 218.705 749.036 217.426C749.036 216.301 749.258 215.389 749.701 214.69C750.144 213.983 750.737 213.429 751.478 213.028C752.219 212.628 753.038 212.33 753.933 212.134C754.836 211.929 755.744 211.767 756.656 211.648C757.849 211.494 758.816 211.379 759.558 211.303C760.308 211.217 760.853 211.077 761.194 210.881C761.543 210.685 761.718 210.344 761.718 209.858V209.756C761.718 208.494 761.373 207.514 760.683 206.815C760.001 206.116 758.965 205.767 757.576 205.767C756.136 205.767 755.006 206.082 754.188 206.713C753.37 207.344 752.795 208.017 752.462 208.733L749.599 207.71C750.11 206.517 750.792 205.588 751.644 204.923C752.505 204.25 753.442 203.781 754.457 203.517C755.479 203.244 756.485 203.108 757.474 203.108C758.104 203.108 758.829 203.185 759.647 203.338C760.474 203.483 761.271 203.786 762.038 204.246C762.813 204.706 763.457 205.401 763.968 206.33C764.479 207.259 764.735 208.503 764.735 210.062V223H761.718V220.341H761.565C761.36 220.767 761.019 221.223 760.542 221.709C760.065 222.195 759.43 222.608 758.637 222.949C757.844 223.29 756.877 223.46 755.735 223.46ZM756.195 220.75C757.388 220.75 758.394 220.516 759.212 220.047C760.039 219.578 760.661 218.973 761.079 218.232C761.505 217.49 761.718 216.71 761.718 215.892V213.131C761.59 213.284 761.309 213.425 760.874 213.553C760.448 213.672 759.954 213.778 759.391 213.872C758.837 213.957 758.296 214.034 757.768 214.102C757.248 214.162 756.826 214.213 756.502 214.256C755.718 214.358 754.985 214.524 754.303 214.754C753.63 214.976 753.085 215.312 752.667 215.764C752.258 216.207 752.053 216.812 752.053 217.58C752.053 218.628 752.441 219.42 753.217 219.957C754.001 220.486 754.994 220.75 756.195 220.75ZM770.651 223V196.818H773.668V206.483H773.924C774.145 206.142 774.452 205.707 774.844 205.179C775.245 204.642 775.816 204.165 776.557 203.747C777.307 203.321 778.321 203.108 779.6 203.108C781.253 203.108 782.711 203.521 783.972 204.348C785.233 205.175 786.218 206.347 786.925 207.864C787.632 209.381 787.986 211.17 787.986 213.233C787.986 215.312 787.632 217.115 786.925 218.641C786.218 220.158 785.238 221.334 783.985 222.169C782.732 222.996 781.287 223.409 779.651 223.409C778.39 223.409 777.38 223.2 776.621 222.783C775.863 222.357 775.279 221.875 774.87 221.338C774.461 220.793 774.145 220.341 773.924 219.983H773.566V223H770.651ZM773.617 213.182C773.617 214.665 773.834 215.973 774.269 217.107C774.703 218.232 775.338 219.114 776.174 219.753C777.009 220.384 778.032 220.699 779.242 220.699C780.503 220.699 781.556 220.366 782.4 219.702C783.252 219.028 783.891 218.125 784.317 216.991C784.752 215.849 784.969 214.58 784.969 213.182C784.969 211.801 784.756 210.557 784.33 209.449C783.912 208.332 783.277 207.45 782.425 206.803C781.581 206.146 780.52 205.818 779.242 205.818C778.015 205.818 776.983 206.129 776.148 206.751C775.313 207.365 774.682 208.226 774.256 209.334C773.83 210.433 773.617 211.716 773.617 213.182ZM800.834 223.409C798.942 223.409 797.31 222.991 795.938 222.156C794.574 221.312 793.522 220.136 792.78 218.628C792.047 217.111 791.681 215.347 791.681 213.335C791.681 211.324 792.047 209.551 792.78 208.017C793.522 206.474 794.553 205.273 795.874 204.412C797.203 203.543 798.755 203.108 800.527 203.108C801.55 203.108 802.56 203.278 803.557 203.619C804.554 203.96 805.462 204.514 806.28 205.281C807.098 206.04 807.75 207.045 808.236 208.298C808.722 209.551 808.965 211.094 808.965 212.926V214.205H793.828V211.597H805.897C805.897 210.489 805.675 209.5 805.232 208.631C804.797 207.761 804.175 207.075 803.365 206.572C802.564 206.07 801.618 205.818 800.527 205.818C799.326 205.818 798.286 206.116 797.408 206.713C796.539 207.301 795.87 208.068 795.401 209.014C794.932 209.96 794.698 210.974 794.698 212.057V213.795C794.698 215.278 794.953 216.536 795.465 217.567C795.985 218.589 796.705 219.369 797.625 219.906C798.546 220.435 799.615 220.699 800.834 220.699C801.627 220.699 802.343 220.588 802.982 220.366C803.63 220.136 804.188 219.795 804.657 219.344C805.125 218.884 805.488 218.312 805.743 217.631L808.658 218.449C808.351 219.438 807.836 220.307 807.111 221.057C806.387 221.798 805.492 222.378 804.426 222.795C803.361 223.205 802.164 223.409 800.834 223.409ZM816.571 211.188V223H813.554V203.364H816.469V206.432H816.725C817.185 205.435 817.884 204.634 818.821 204.028C819.759 203.415 820.969 203.108 822.452 203.108C823.782 203.108 824.945 203.381 825.942 203.926C826.939 204.463 827.715 205.281 828.269 206.381C828.823 207.472 829.1 208.852 829.1 210.523V223H826.083V210.727C826.083 209.185 825.682 207.983 824.881 207.122C824.08 206.253 822.98 205.818 821.583 205.818C820.62 205.818 819.759 206.027 819 206.445C818.25 206.862 817.658 207.472 817.223 208.273C816.789 209.074 816.571 210.045 816.571 211.188ZM836.812 223.205C836.181 223.205 835.64 222.979 835.188 222.527C834.737 222.075 834.511 221.534 834.511 220.903C834.511 220.273 834.737 219.732 835.188 219.28C835.64 218.828 836.181 218.602 836.812 218.602C837.442 218.602 837.984 218.828 838.435 219.28C838.887 219.732 839.113 220.273 839.113 220.903C839.113 221.321 839.006 221.705 838.793 222.054C838.589 222.403 838.312 222.685 837.962 222.898C837.621 223.102 837.238 223.205 836.812 223.205Z" fill="black"/>
<path d="M332.114 717.424C336.146 718.264 340.97 720.113 341.444 724.482C341.998 729.356 336.383 732.213 331.876 733.222C314.874 737.171 297.318 737.675 279.842 738.18C187.479 740.532 95.115 740.953 2.74977 739.356C4.09374 727.34 17.5396 722.129 28.6894 719.86C76.6111 710.113 126.193 715.659 173.244 705.323C222.827 694.315 283.164 706.752 332.114 717.424Z" fill="url(#paint0_linear_808_4281)"/>
<path d="M332.114 717.424C336.146 718.264 340.97 720.113 341.444 724.482C341.998 729.356 336.383 732.213 331.876 733.222C314.874 737.171 297.318 737.675 279.842 738.18C187.479 740.532 95.115 740.953 2.74977 739.356C4.09374 727.34 17.5396 722.129 28.6894 719.86C76.6111 710.113 126.193 715.659 173.244 705.323C222.827 694.315 283.164 706.752 332.114 717.424Z" fill="url(#paint1_linear_808_4281)"/>
<path d="M80.5703 638.265C79.5423 637.929 78.435 638.265 77.407 638.602C72.8993 640.198 68.4708 642.299 64.5172 645.072C62.5399 646.417 60.5631 647.929 59.6143 650.198C58.7442 652.299 58.8234 654.652 58.9814 656.837C60.4051 683.895 61.7495 711.037 63.1727 738.096C63.2519 739.86 63.4892 741.793 64.7544 742.886C66.336 744.146 68.55 743.306 70.2896 742.465C87.2916 734.566 104.214 726.583 121.216 718.684C129.361 714.903 137.744 710.869 143.754 703.894C139.167 693.138 129.519 685.996 120.663 678.769C106.903 667.508 94.2505 654.568 83.1003 640.45C82.4674 639.61 81.6771 638.601 80.5703 638.265Z" fill="#DDC199"/>
<path d="M0.46262 498.855C4.65487 497.847 8.92729 496.838 13.1167 495.83C37.7892 543.98 59.6148 593.812 78.4355 644.904C74.0863 647.845 68.3138 650.87 64.1225 647.677C62.3829 646.332 61.3544 644.147 60.4056 642.047C39.0544 594.988 19.0476 547.258 0.46262 498.855Z" fill="#BDB39B"/>
<g opacity="0.26">
<path opacity="0.26" d="M78.2095 733.137C78.2887 734.062 76.9443 734.398 76.7864 733.474C73.3859 706.163 68.5627 679.357 62.3153 652.634C61.9201 650.954 64.3714 650.449 64.7665 652.13C71.2511 678.6 75.7583 705.827 78.2095 733.137Z" fill="#272525"/>
<path opacity="0.26" d="M105.004 721.121C94.5663 697.76 83.4953 674.735 71.7914 652.046C71.0798 650.701 73.1359 649.609 73.8475 650.954C86.0258 673.811 97.0175 697.34 107.061 721.289C106.903 721.457 106.824 721.625 106.745 721.793C106.191 721.373 105.637 721.205 105.004 721.121Z" fill="#272525"/>
<path opacity="0.26" d="M122.018 705.742C104.542 688.263 88.9631 668.852 75.3617 647.843C74.4916 646.415 76.7061 645.238 77.5762 646.667C90.9404 667.591 106.281 686.919 123.441 704.397C124.311 705.321 122.888 706.666 122.018 705.742Z" fill="#272525"/>
</g>
<path d="M243.236 662.214C243.156 660.954 242.998 659.609 242.92 658.348C253.358 650.785 271.704 653.222 282.775 657.088C294.637 661.205 294.637 668.936 294.479 682.045C294.4 689.44 293.767 697.76 288.39 702.549C284.278 706.247 278.505 706.751 273.127 707.087C268.304 707.423 263.559 707.675 258.735 708.011C255.414 708.179 251.697 708.263 249.088 705.994C246.478 703.642 246.083 699.692 245.766 696.078C244.897 684.734 244.026 673.474 243.236 662.214Z" fill="#2F3F47"/>
<path d="M230.494 662.214C230.573 660.954 230.731 659.609 230.811 658.348C220.372 650.785 202.026 653.222 190.955 657.088C179.093 661.205 179.093 668.936 179.251 682.045C179.33 689.44 179.963 697.76 185.341 702.549C189.453 706.247 195.225 706.751 200.603 707.087C205.426 707.423 210.171 707.675 214.995 708.011C218.316 708.179 222.033 708.263 224.642 705.994C227.252 703.642 227.647 699.692 227.963 696.078C228.754 684.734 229.624 673.474 230.494 662.214Z" fill="#2F3F47"/>
<path d="M319.553 634.148C322.163 634.735 324.693 635.576 327.145 636.668C328.964 637.424 330.782 638.433 332.048 639.945C333.787 642.13 334.262 645.156 334.578 648.097C334.973 651.963 335.132 655.828 335.052 659.693C335.052 662.97 334.815 666.332 333.233 669.105C331.019 672.971 326.67 674.735 322.558 675.827C314.729 677.929 306.584 678.432 298.518 678.853C249.727 681.374 200.777 679.692 152.223 673.895C150.246 673.643 148.032 673.307 146.688 671.71C145.897 670.786 145.501 669.525 145.106 668.348C142.576 659.777 140.915 648.097 146.371 640.114C151.036 633.307 159.656 637.172 166.14 637.088C172.783 637.004 179.505 636.416 186.148 636.164C199.117 635.576 212.085 634.987 225.054 634.567C243.321 633.895 261.667 633.307 279.935 632.803C292.271 632.551 306.821 631.122 319.553 634.148Z" fill="#516770"/>
<path d="M214.691 449.696C181.557 449.864 148.502 450.621 115.368 451.377C116.159 432.638 117.424 413.898 121.22 395.579C127.784 363.479 142.808 332.135 168.193 313.396C207.099 284.657 268.859 288.438 310.771 316.841C328.406 328.773 342.56 345.16 349.994 365.243C358.534 388.184 360.828 413.226 362.172 437.848C362.331 441.125 362.489 444.318 362.646 447.595C313.46 445.578 263.957 449.528 214.691 449.696Z" fill="#EAF1F2"/>
<path d="M217.343 459.108C265.897 459.024 314.61 455.327 363.164 457.175C365.536 513.141 363.322 569.359 356.521 624.989C355.572 632.636 354.386 640.618 349.641 646.668C342.287 655.996 329.555 651.878 319.67 651.878C302.985 651.878 285.825 652.635 268.981 653.055C237.191 653.811 205.639 653.895 174.008 650.114C158.983 648.35 128.617 653.223 121.421 638.853C115.49 627.173 117.941 603.476 117.071 590.451C116.043 574.989 115.252 559.611 114.778 544.149C113.908 516.334 114.066 488.519 115.095 460.62C149.098 459.948 183.26 459.108 217.343 459.108Z" fill="#E2ECED"/>
<path d="M102.671 549.696C102.038 549.107 101.959 548.099 101.88 547.259C100.22 523.982 98.7963 500.704 97.7683 477.427C97.6891 475.41 97.6891 473.058 99.1915 471.713C100.299 470.789 101.722 470.705 103.146 470.705C108.049 470.621 112.872 470.537 117.775 470.537C120.859 497.007 122.124 523.645 121.492 550.284C116.035 550.284 110.658 550.368 105.202 550.368C104.332 550.368 103.383 550.368 102.671 549.696Z" fill="#2F3F47"/>
<path d="M77.4635 603.309C76.8312 601.377 76.1191 599.36 74.6959 597.931C73.5886 596.839 72.0867 596.167 70.6631 595.662C64.4949 593.309 58.1688 591.545 51.763 590.368C46.7814 593.982 42.2737 598.268 38.3988 603.225C37.6872 604.15 36.9756 605.158 36.8172 606.335C36.6592 607.259 36.8964 608.183 37.1336 609.108C39.664 619.444 42.1157 629.78 44.6461 640.116C48.3626 640.62 52.0795 640.704 55.7171 640.2C54.294 633.897 52.8703 627.595 51.5258 621.376C50.1814 615.41 49.1534 608.099 53.4235 603.898C57.7727 605.074 62.0432 606.335 66.3925 607.511C67.1041 607.679 67.8954 607.931 68.5278 608.435C69.2394 609.108 69.5558 610.116 69.8722 611.04C71.6911 616.923 73.0355 622.973 73.9843 629.108C76.7519 628.267 79.5196 627.51 82.2872 626.67C82.5249 618.687 79.9945 610.873 77.4635 603.309Z" fill="#2F3F47"/>
<path d="M43.8579 594.234C43.6207 593.982 43.5419 593.647 43.4627 593.394C42.6719 589.613 41.8811 585.831 41.011 582.133C46.5468 580.789 52.24 579.864 57.8545 579.36C58.7246 582.47 59.2782 585.747 59.5154 589.024C59.5946 589.697 59.5946 590.537 59.1202 591.041C58.8038 591.377 58.4082 591.461 58.013 591.63C53.8217 592.974 49.4724 593.982 45.0439 594.57C44.7275 594.486 44.2535 594.571 43.8579 594.234Z" fill="#516770"/>
<path d="M38.3131 579.53C34.9919 573.563 37.6803 557.849 37.6803 551.547C37.7595 542.891 37.7595 534.152 39.6575 525.749C41.5551 517.345 45.4305 509.11 51.8358 503.816C55.4735 500.791 59.7435 498.859 64.172 497.262C77.3783 492.472 91.5329 490.876 105.372 492.64C106.479 492.808 107.665 492.976 108.456 493.817C109.326 494.657 109.484 496.001 109.642 497.262C110.275 502.052 111.144 507.346 110.907 512.219C110.512 520.791 112.172 518.438 106.32 520.875C101.813 522.724 93.3518 521.211 88.2117 522.472C82.2015 523.9 76.3498 526.085 70.4981 528.27C66.7817 529.614 62.8276 531.295 60.9295 534.908C59.9015 536.841 59.5851 539.194 59.3479 541.463C57.9247 554.909 57.2918 568.437 57.3711 581.967C57.3711 584.319 41.0812 583.143 38.946 580.538C38.7088 580.202 38.5503 579.866 38.3131 579.53Z" fill="#E2ECED"/>
<g opacity="0.15">
<path opacity="0.15" d="M65.9978 501.128C66.4722 509.195 68.449 516.506 71.4538 523.901C72.0075 525.329 70.3471 526.422 69.477 525.162C64.7326 518.103 62.2809 509.699 61.4109 501.128C61.0944 498.103 65.7601 498.018 65.9978 501.128Z" fill="#272525"/>
<path opacity="0.15" d="M53.8958 506.925C55.2398 514.741 58.5611 519.867 63.7804 525.413C64.492 526.169 63.5436 527.429 62.7528 526.841C59.1944 524.488 55.8731 522.976 53.3427 519.195C50.9702 515.665 49.3885 511.883 48.9142 507.598C48.5977 504.657 53.3422 503.984 53.8958 506.925Z" fill="#272525"/>
</g>
<path d="M370.926 471.209C371.559 471.797 371.637 472.806 371.717 473.646C373.377 496.923 374.801 520.2 375.829 543.477C375.908 545.494 375.908 547.847 374.405 549.191C373.298 550.116 371.875 550.2 370.452 550.2C365.549 550.284 360.725 550.368 355.822 550.368C352.738 523.898 351.473 497.259 352.105 470.621C357.562 470.621 362.939 470.537 368.395 470.537C369.265 470.537 370.293 470.537 370.926 471.209Z" fill="#2F3F47"/>
<path d="M432.221 442.554C431.984 444.571 431.747 446.755 432.459 448.604C433.012 450.116 434.04 451.377 435.147 452.554C439.655 457.511 444.557 462.134 449.856 466.251C455.866 465.411 461.717 463.646 467.174 461.041C468.202 460.537 469.309 460.033 469.942 459.024C470.416 458.268 470.653 457.343 470.812 456.419C472.868 445.999 475.003 435.495 477.059 425.075C473.975 422.89 470.653 421.041 467.174 419.696C465.829 425.999 464.406 432.301 463.062 438.604C461.718 444.57 459.582 451.629 454.047 453.31C450.647 450.201 447.325 447.091 443.925 443.982C443.371 443.478 442.739 442.89 442.422 442.134C442.027 441.209 442.185 440.116 442.344 439.108C443.213 432.974 444.479 426.924 446.218 420.957C443.371 420.369 440.604 419.781 437.757 419.192C434.119 426.335 433.17 434.57 432.221 442.554Z" fill="#2F3F47"/>
<path d="M458.492 466.503C458.571 466.839 458.492 467.176 458.492 467.428C457.622 471.209 456.752 474.906 455.962 478.688C450.426 477.259 444.97 475.411 439.672 473.226C440.146 470.032 441.016 466.839 442.202 463.814C442.439 463.142 442.755 462.469 443.388 462.217C443.783 462.049 444.179 462.133 444.653 462.217C449.003 462.974 453.273 464.15 457.464 465.663C457.86 465.831 458.334 466.083 458.492 466.503Z" fill="#516770"/>
<path d="M457.286 482.303C457.84 489.193 448.825 501.966 446.136 507.68C442.499 515.412 438.782 523.227 433.563 529.865C428.343 536.504 421.464 542.05 413.477 543.73C408.969 544.739 404.304 544.487 399.717 543.815C385.878 541.882 372.514 536.672 360.89 528.521C359.941 527.848 358.992 527.176 358.596 526C358.201 524.823 358.596 523.563 358.913 522.302C360.415 517.681 361.76 512.555 364.053 508.269C368.007 500.79 365.476 502.134 371.803 502.638C376.626 503.059 383.585 508.437 388.725 509.782C394.735 511.378 400.903 512.134 406.992 512.975C410.867 513.479 415.137 513.899 418.38 511.546C420.12 510.286 421.385 508.353 422.492 506.42C429.372 495.075 435.619 483.227 441.233 471.043C442.182 468.942 456.258 477.681 457.128 481.042C457.207 481.546 457.286 481.883 457.286 482.303Z" fill="#E2ECED"/>
<g opacity="0.15">
<path opacity="0.15" d="M399.812 539.442C402.739 531.963 404.003 524.484 404.478 516.417C404.557 514.821 406.534 514.653 406.771 516.25C408.037 524.821 406.771 533.476 403.924 541.543C402.896 544.484 398.626 542.299 399.812 539.442Z" fill="#272525"/>
<path opacity="0.15" d="M413.004 540.031C415.06 532.384 414.269 526.25 411.897 518.771C411.58 517.763 412.925 517.09 413.478 517.93C415.613 521.712 417.986 524.653 418.697 529.191C419.33 533.476 419.172 537.594 417.748 541.627C416.799 544.568 412.292 542.888 413.004 540.031Z" fill="#272525"/>
</g>
<path d="M340.565 394.739C340.487 397.932 340.329 401.209 339.063 404.151C335.821 411.461 327.281 413.814 319.768 415.159C276.829 422.805 232.94 425.411 189.763 419.612C184.07 418.856 178.376 417.932 173.157 415.411C167.937 412.89 163.272 408.604 161.374 402.974C160.188 399.36 160.109 395.495 160.03 391.63C159.951 387.764 159.951 383.815 159.872 379.949C159.872 378.185 159.872 376.42 160.504 374.739C161.216 372.974 162.639 371.546 164.142 370.453C169.835 366.336 177.031 365.411 183.911 364.655C229.618 359.781 275.879 355.496 321.349 362.05C323.247 362.302 325.225 362.638 326.569 364.067C327.281 364.739 327.755 365.664 328.467 366.336C329.811 367.428 331.63 367.344 333.211 367.932C337.64 369.445 339.221 375.244 339.775 380.202C340.407 384.991 340.645 389.865 340.565 394.739Z" fill="#2F3F47"/>
<path opacity="0.2" d="M283.322 401.796C281.819 398.855 281.582 395.41 281.898 392.049C282.056 390.032 282.531 387.932 283.717 386.419C286.248 383.226 290.913 383.562 294.788 382.806C298.188 384.318 301.036 387.259 302.459 390.873C303.329 393.057 303.724 395.41 303.487 397.763C302.933 402.553 299.216 406.671 294.788 407.511C290.281 408.52 285.456 406.082 283.322 401.796Z" fill="#EAF1F2"/>
<path opacity="0.2" d="M208.017 401.796C206.515 398.855 206.277 395.41 206.594 392.049C206.752 390.032 207.226 387.932 208.413 386.419C210.943 383.226 215.608 383.562 219.483 382.806C222.884 384.318 225.731 387.259 227.154 390.873C228.024 393.057 228.419 395.41 228.182 397.763C227.629 402.553 223.912 406.671 219.483 407.511C215.055 408.52 210.232 406.082 208.017 401.796Z" fill="#EAF1F2"/>
<defs>
<linearGradient id="paint0_linear_808_4281" x1="341.43" y1="720.658" x2="2.66016" y2="720.658" gradientUnits="userSpaceOnUse">
<stop stop-color="#4D4D4D"/>
<stop offset="1"/>
</linearGradient>
<linearGradient id="paint1_linear_808_4281" x1="341.43" y1="720.658" x2="2.66016" y2="720.658" gradientUnits="userSpaceOnUse">
<stop/>
<stop offset="1"/>
</linearGradient>
</defs>
</svg>
