<svg width="969" height="700" viewBox="0 0 969 700" fill="none" xmlns="http://www.w3.org/2000/svg">
<path d="M450.648 301C450.462 301 450.277 300.996 450.09 300.987C447.909 300.894 445.779 300.185 443.882 298.919C441.985 297.654 440.377 295.87 439.194 293.718C430.334 278.187 419.461 264.373 406.968 252.775C399.405 245.685 391.502 239.093 383.86 232.717C364.143 216.274 345.575 200.788 335.268 179.389C312.796 132.729 339.261 67.7384 377.068 38.5923C419.474 5.90327 475.252 0.77573 529.211 0.103761C534.819 0.0342062 540.43 -0.000362368 546.045 2.86387e-06C643.268 0.0437266 740.287 10.4486 835.904 31.0862C867.7 37.9664 900.981 46.3949 927.726 66.8494C954.311 87.1829 970.471 119.203 968.894 148.427C966.593 191.09 928.034 222.968 892.922 231.302C859.456 239.24 824.689 233.876 787.883 228.195C779.757 226.942 771.356 225.645 763.048 224.518C672.755 212.277 503.133 250.007 495.957 251.62L488.838 253.218L461.214 294.913C459.971 296.813 458.371 298.351 456.538 299.407C454.706 300.463 452.69 301.008 450.648 301Z" fill="white"/>
<path d="M420.5 115H415.114V97.5455H420.739C422.432 97.5455 423.881 97.8949 425.085 98.5938C426.29 99.2869 427.213 100.284 427.855 101.585C428.497 102.881 428.818 104.432 428.818 106.239C428.818 108.057 428.494 109.622 427.847 110.935C427.199 112.241 426.256 113.247 425.017 113.952C423.778 114.651 422.273 115 420.5 115ZM417.227 113.125H420.364C421.807 113.125 423.003 112.847 423.952 112.29C424.901 111.733 425.608 110.94 426.074 109.912C426.54 108.884 426.773 107.659 426.773 106.239C426.773 104.83 426.543 103.616 426.082 102.599C425.622 101.577 424.935 100.793 424.02 100.247C423.105 99.696 421.966 99.4205 420.602 99.4205H417.227V113.125ZM432.091 115V101.909H434.102V115H432.091ZM433.114 99.7273C432.722 99.7273 432.384 99.5938 432.099 99.3267C431.821 99.0597 431.682 98.7386 431.682 98.3636C431.682 97.9886 431.821 97.6676 432.099 97.4006C432.384 97.1335 432.722 97 433.114 97C433.506 97 433.841 97.1335 434.119 97.4006C434.403 97.6676 434.545 97.9886 434.545 98.3636C434.545 98.7386 434.403 99.0597 434.119 99.3267C433.841 99.5938 433.506 99.7273 433.114 99.7273ZM443.275 115.273C442.013 115.273 440.925 114.994 440.011 114.438C439.102 113.875 438.4 113.091 437.906 112.085C437.417 111.074 437.173 109.898 437.173 108.557C437.173 107.216 437.417 106.034 437.906 105.011C438.4 103.983 439.087 103.182 439.968 102.608C440.854 102.028 441.888 101.739 443.07 101.739C443.752 101.739 444.425 101.852 445.09 102.08C445.755 102.307 446.36 102.676 446.906 103.188C447.451 103.693 447.886 104.364 448.21 105.199C448.533 106.034 448.695 107.062 448.695 108.284V109.136H438.604V107.398H446.65C446.65 106.659 446.502 106 446.207 105.42C445.917 104.841 445.502 104.384 444.962 104.048C444.428 103.713 443.798 103.545 443.07 103.545C442.269 103.545 441.576 103.744 440.991 104.142C440.411 104.534 439.965 105.045 439.653 105.676C439.34 106.307 439.184 106.983 439.184 107.705V108.864C439.184 109.852 439.354 110.69 439.695 111.378C440.042 112.06 440.522 112.58 441.136 112.938C441.749 113.29 442.462 113.466 443.275 113.466C443.803 113.466 444.281 113.392 444.707 113.244C445.138 113.091 445.511 112.864 445.823 112.562C446.136 112.256 446.377 111.875 446.548 111.42L448.491 111.966C448.286 112.625 447.942 113.205 447.46 113.705C446.977 114.199 446.38 114.585 445.67 114.864C444.96 115.136 444.161 115.273 443.275 115.273ZM459.494 115H457.278L463.687 97.5455H465.869L472.278 115H470.062L464.846 100.307H464.71L459.494 115ZM460.312 108.182H469.244V110.057H460.312V108.182ZM476.735 107.125V115H474.724V101.909H476.667V103.955H476.837C477.144 103.29 477.61 102.756 478.235 102.352C478.86 101.943 479.667 101.739 480.656 101.739C481.542 101.739 482.317 101.92 482.982 102.284C483.647 102.642 484.164 103.188 484.533 103.92C484.903 104.648 485.087 105.568 485.087 106.682V115H483.076V106.818C483.076 105.79 482.809 104.989 482.275 104.415C481.741 103.835 481.008 103.545 480.076 103.545C479.434 103.545 478.86 103.685 478.354 103.963C477.854 104.241 477.46 104.648 477.17 105.182C476.88 105.716 476.735 106.364 476.735 107.125ZM490.774 97.5455V115H488.763V97.5455H490.774ZM498.31 115.307C497.481 115.307 496.728 115.151 496.052 114.838C495.376 114.52 494.839 114.062 494.441 113.466C494.043 112.864 493.844 112.136 493.844 111.284C493.844 110.534 493.992 109.926 494.288 109.46C494.583 108.989 494.978 108.619 495.472 108.352C495.967 108.085 496.512 107.886 497.109 107.756C497.711 107.619 498.316 107.511 498.924 107.432C499.719 107.33 500.364 107.253 500.859 107.202C501.359 107.145 501.722 107.051 501.95 106.92C502.183 106.79 502.299 106.562 502.299 106.239V106.17C502.299 105.33 502.069 104.676 501.609 104.21C501.154 103.744 500.464 103.511 499.538 103.511C498.577 103.511 497.825 103.722 497.279 104.142C496.734 104.562 496.35 105.011 496.129 105.489L494.219 104.807C494.56 104.011 495.015 103.392 495.583 102.949C496.157 102.5 496.782 102.187 497.458 102.011C498.14 101.83 498.81 101.739 499.469 101.739C499.89 101.739 500.373 101.79 500.918 101.892C501.469 101.989 502.001 102.19 502.512 102.497C503.029 102.804 503.458 103.267 503.799 103.886C504.14 104.506 504.31 105.335 504.31 106.375V115H502.299V113.227H502.197C502.06 113.511 501.833 113.815 501.515 114.139C501.197 114.463 500.773 114.739 500.245 114.966C499.717 115.193 499.072 115.307 498.31 115.307ZM498.617 113.5C499.413 113.5 500.083 113.344 500.629 113.031C501.18 112.719 501.594 112.315 501.873 111.821C502.157 111.327 502.299 110.807 502.299 110.261V108.42C502.214 108.523 502.026 108.616 501.737 108.702C501.452 108.781 501.123 108.852 500.748 108.915C500.379 108.972 500.018 109.023 499.665 109.068C499.319 109.108 499.038 109.142 498.822 109.17C498.299 109.239 497.81 109.349 497.356 109.503C496.907 109.651 496.543 109.875 496.265 110.176C495.992 110.472 495.856 110.875 495.856 111.386C495.856 112.085 496.114 112.614 496.631 112.972C497.154 113.324 497.816 113.5 498.617 113.5ZM513.266 120.182C512.294 120.182 511.459 120.057 510.76 119.807C510.061 119.562 509.479 119.239 509.013 118.835C508.553 118.438 508.186 118.011 507.913 117.557L509.516 116.432C509.697 116.67 509.928 116.943 510.206 117.25C510.484 117.562 510.865 117.832 511.348 118.06C511.837 118.293 512.476 118.409 513.266 118.409C514.322 118.409 515.195 118.153 515.882 117.642C516.57 117.131 516.913 116.33 516.913 115.239V112.58H516.743C516.595 112.818 516.385 113.114 516.112 113.466C515.845 113.812 515.459 114.122 514.953 114.395C514.453 114.662 513.777 114.795 512.925 114.795C511.868 114.795 510.919 114.545 510.078 114.045C509.243 113.545 508.581 112.818 508.092 111.864C507.609 110.909 507.368 109.75 507.368 108.386C507.368 107.045 507.604 105.878 508.075 104.884C508.547 103.884 509.203 103.111 510.044 102.565C510.885 102.014 511.857 101.739 512.959 101.739C513.811 101.739 514.487 101.881 514.987 102.165C515.493 102.443 515.879 102.761 516.146 103.119C516.419 103.472 516.629 103.761 516.777 103.989H516.982V101.909H518.925V115.375C518.925 116.5 518.669 117.415 518.158 118.119C517.652 118.83 516.97 119.349 516.112 119.679C515.26 120.014 514.311 120.182 513.266 120.182ZM513.197 112.989C514.004 112.989 514.686 112.804 515.243 112.435C515.8 112.065 516.223 111.534 516.513 110.841C516.803 110.148 516.947 109.318 516.947 108.352C516.947 107.409 516.805 106.577 516.521 105.855C516.237 105.134 515.817 104.568 515.26 104.159C514.703 103.75 514.016 103.545 513.197 103.545C512.345 103.545 511.635 103.761 511.067 104.193C510.504 104.625 510.081 105.205 509.797 105.932C509.518 106.659 509.379 107.466 509.379 108.352C509.379 109.261 509.521 110.065 509.805 110.764C510.095 111.457 510.521 112.003 511.084 112.401C511.652 112.793 512.357 112.989 513.197 112.989ZM528.095 115.273C526.834 115.273 525.746 114.994 524.831 114.438C523.922 113.875 523.22 113.091 522.726 112.085C522.237 111.074 521.993 109.898 521.993 108.557C521.993 107.216 522.237 106.034 522.726 105.011C523.22 103.983 523.908 103.182 524.788 102.608C525.675 102.028 526.709 101.739 527.891 101.739C528.572 101.739 529.246 101.852 529.911 102.08C530.575 102.307 531.18 102.676 531.726 103.188C532.271 103.693 532.706 104.364 533.03 105.199C533.354 106.034 533.516 107.062 533.516 108.284V109.136H523.425V107.398H531.47C531.47 106.659 531.322 106 531.027 105.42C530.737 104.841 530.322 104.384 529.783 104.048C529.249 103.713 528.618 103.545 527.891 103.545C527.089 103.545 526.396 103.744 525.811 104.142C525.232 104.534 524.786 105.045 524.473 105.676C524.161 106.307 524.004 106.983 524.004 107.705V108.864C524.004 109.852 524.175 110.69 524.516 111.378C524.862 112.06 525.342 112.58 525.956 112.938C526.57 113.29 527.283 113.466 528.095 113.466C528.624 113.466 529.101 113.392 529.527 113.244C529.959 113.091 530.331 112.864 530.643 112.562C530.956 112.256 531.197 111.875 531.368 111.42L533.311 111.966C533.107 112.625 532.763 113.205 532.28 113.705C531.797 114.199 531.2 114.585 530.49 114.864C529.78 115.136 528.982 115.273 528.095 115.273ZM548.814 115.273C547.553 115.273 546.464 114.994 545.55 114.438C544.641 113.875 543.939 113.091 543.445 112.085C542.956 111.074 542.712 109.898 542.712 108.557C542.712 107.216 542.956 106.034 543.445 105.011C543.939 103.983 544.626 103.182 545.507 102.608C546.393 102.028 547.428 101.739 548.609 101.739C549.291 101.739 549.964 101.852 550.629 102.08C551.294 102.307 551.899 102.676 552.445 103.188C552.99 103.693 553.425 104.364 553.749 105.199C554.072 106.034 554.234 107.062 554.234 108.284V109.136H544.143V107.398H552.189C552.189 106.659 552.041 106 551.746 105.42C551.456 104.841 551.041 104.384 550.501 104.048C549.967 103.713 549.337 103.545 548.609 103.545C547.808 103.545 547.115 103.744 546.53 104.142C545.95 104.534 545.504 105.045 545.192 105.676C544.879 106.307 544.723 106.983 544.723 107.705V108.864C544.723 109.852 544.893 110.69 545.234 111.378C545.581 112.06 546.061 112.58 546.675 112.938C547.288 113.29 548.001 113.466 548.814 113.466C549.342 113.466 549.82 113.392 550.246 113.244C550.678 113.091 551.05 112.864 551.362 112.562C551.675 112.256 551.916 111.875 552.087 111.42L554.03 111.966C553.825 112.625 553.482 113.205 552.999 113.705C552.516 114.199 551.919 114.585 551.209 114.864C550.499 115.136 549.7 115.273 548.814 115.273ZM557.294 115V101.909H559.237V103.886H559.374C559.612 103.239 560.044 102.713 560.669 102.31C561.294 101.906 561.999 101.705 562.783 101.705C562.93 101.705 563.115 101.707 563.337 101.713C563.558 101.719 563.726 101.727 563.839 101.739V103.784C563.771 103.767 563.615 103.741 563.371 103.707C563.132 103.668 562.879 103.648 562.612 103.648C561.976 103.648 561.408 103.781 560.908 104.048C560.413 104.31 560.021 104.673 559.732 105.139C559.447 105.599 559.305 106.125 559.305 106.716V115H557.294ZM575.496 104.841L573.69 105.352C573.576 105.051 573.408 104.759 573.187 104.474C572.971 104.185 572.675 103.946 572.3 103.759C571.925 103.571 571.445 103.477 570.86 103.477C570.059 103.477 569.391 103.662 568.857 104.031C568.329 104.395 568.065 104.858 568.065 105.42C568.065 105.92 568.246 106.315 568.61 106.605C568.974 106.895 569.542 107.136 570.315 107.33L572.258 107.807C573.428 108.091 574.3 108.526 574.874 109.111C575.448 109.69 575.735 110.437 575.735 111.352C575.735 112.102 575.519 112.773 575.087 113.364C574.661 113.955 574.065 114.42 573.298 114.761C572.531 115.102 571.638 115.273 570.621 115.273C569.286 115.273 568.181 114.983 567.306 114.403C566.431 113.824 565.877 112.977 565.644 111.864L567.553 111.386C567.735 112.091 568.079 112.619 568.585 112.972C569.096 113.324 569.763 113.5 570.587 113.5C571.525 113.5 572.269 113.301 572.82 112.903C573.377 112.5 573.656 112.017 573.656 111.455C573.656 111 573.496 110.619 573.178 110.312C572.86 110 572.371 109.767 571.712 109.614L569.531 109.102C568.332 108.818 567.451 108.378 566.888 107.781C566.332 107.179 566.053 106.426 566.053 105.523C566.053 104.784 566.261 104.131 566.675 103.562C567.096 102.994 567.667 102.548 568.388 102.224C569.116 101.901 569.94 101.739 570.86 101.739C572.156 101.739 573.173 102.023 573.911 102.591C574.656 103.159 575.184 103.909 575.496 104.841ZM584.081 115.273C582.854 115.273 581.797 114.983 580.911 114.403C580.024 113.824 579.342 113.026 578.865 112.009C578.388 110.991 578.149 109.83 578.149 108.523C578.149 107.193 578.393 106.02 578.882 105.003C579.376 103.98 580.064 103.182 580.945 102.608C581.831 102.028 582.865 101.739 584.047 101.739C584.967 101.739 585.797 101.909 586.536 102.25C587.274 102.591 587.879 103.068 588.351 103.682C588.822 104.295 589.115 105.011 589.229 105.83H587.217C587.064 105.233 586.723 104.705 586.195 104.244C585.672 103.778 584.967 103.545 584.081 103.545C583.297 103.545 582.609 103.75 582.018 104.159C581.433 104.562 580.976 105.134 580.646 105.872C580.322 106.605 580.161 107.466 580.161 108.455C580.161 109.466 580.32 110.347 580.638 111.097C580.962 111.847 581.416 112.429 582.001 112.844C582.592 113.259 583.286 113.466 584.081 113.466C584.604 113.466 585.078 113.375 585.504 113.193C585.93 113.011 586.291 112.75 586.587 112.409C586.882 112.068 587.092 111.659 587.217 111.182H589.229C589.115 111.955 588.834 112.651 588.385 113.27C587.942 113.884 587.354 114.372 586.621 114.736C585.893 115.094 585.047 115.273 584.081 115.273ZM594.18 107.125V115H592.169V97.5455H594.18V103.955H594.351C594.658 103.278 595.118 102.741 595.732 102.344C596.351 101.94 597.175 101.739 598.203 101.739C599.095 101.739 599.876 101.918 600.547 102.276C601.217 102.628 601.737 103.17 602.107 103.903C602.482 104.631 602.669 105.557 602.669 106.682V115H600.658V106.818C600.658 105.778 600.388 104.974 599.848 104.406C599.314 103.832 598.572 103.545 597.624 103.545C596.964 103.545 596.374 103.685 595.851 103.963C595.334 104.241 594.925 104.648 594.624 105.182C594.328 105.716 594.18 106.364 594.18 107.125ZM611.837 115.273C610.576 115.273 609.488 114.994 608.573 114.438C607.664 113.875 606.962 113.091 606.468 112.085C605.979 111.074 605.735 109.898 605.735 108.557C605.735 107.216 605.979 106.034 606.468 105.011C606.962 103.983 607.65 103.182 608.531 102.608C609.417 102.028 610.451 101.739 611.633 101.739C612.315 101.739 612.988 101.852 613.653 102.08C614.317 102.307 614.923 102.676 615.468 103.188C616.013 103.693 616.448 104.364 616.772 105.199C617.096 106.034 617.258 107.062 617.258 108.284V109.136H607.167V107.398H615.212C615.212 106.659 615.065 106 614.769 105.42C614.479 104.841 614.065 104.384 613.525 104.048C612.991 103.713 612.36 103.545 611.633 103.545C610.832 103.545 610.138 103.744 609.553 104.142C608.974 104.534 608.528 105.045 608.215 105.676C607.903 106.307 607.746 106.983 607.746 107.705V108.864C607.746 109.852 607.917 110.69 608.258 111.378C608.604 112.06 609.085 112.58 609.698 112.938C610.312 113.29 611.025 113.466 611.837 113.466C612.366 113.466 612.843 113.392 613.269 113.244C613.701 113.091 614.073 112.864 614.386 112.562C614.698 112.256 614.94 111.875 615.11 111.42L617.053 111.966C616.849 112.625 616.505 113.205 616.022 113.705C615.539 114.199 614.942 114.585 614.232 114.864C613.522 115.136 612.724 115.273 611.837 115.273ZM620.317 115V101.909H622.329V115H620.317ZM621.34 99.7273C620.948 99.7273 620.61 99.5938 620.326 99.3267C620.048 99.0597 619.908 98.7386 619.908 98.3636C619.908 97.9886 620.048 97.6676 620.326 97.4006C620.61 97.1335 620.948 97 621.34 97C621.732 97 622.067 97.1335 622.346 97.4006C622.63 97.6676 622.772 97.9886 622.772 98.3636C622.772 98.7386 622.63 99.0597 622.346 99.3267C622.067 99.5938 621.732 99.7273 621.34 99.7273ZM628.024 107.125V115H626.013V101.909H627.956V103.955H628.126C628.433 103.29 628.899 102.756 629.524 102.352C630.149 101.943 630.956 101.739 631.945 101.739C632.831 101.739 633.607 101.92 634.271 102.284C634.936 102.642 635.453 103.188 635.822 103.92C636.192 104.648 636.376 105.568 636.376 106.682V115H634.365V106.818C634.365 105.79 634.098 104.989 633.564 104.415C633.03 103.835 632.297 103.545 631.365 103.545C630.723 103.545 630.149 103.685 629.643 103.963C629.143 104.241 628.749 104.648 628.459 105.182C628.169 105.716 628.024 106.364 628.024 107.125ZM645.745 101.909V103.614H638.961V101.909H645.745ZM640.938 98.7727H642.95V111.25C642.95 111.818 643.032 112.244 643.197 112.528C643.367 112.807 643.583 112.994 643.844 113.091C644.112 113.182 644.393 113.227 644.688 113.227C644.91 113.227 645.092 113.216 645.234 113.193C645.376 113.165 645.489 113.142 645.575 113.125L645.984 114.932C645.847 114.983 645.657 115.034 645.413 115.085C645.168 115.142 644.859 115.17 644.484 115.17C643.915 115.17 643.359 115.048 642.813 114.804C642.273 114.56 641.825 114.188 641.467 113.688C641.114 113.188 640.938 112.557 640.938 111.795V98.7727ZM658.487 115L654.498 101.909H656.612L659.441 111.932H659.577L662.373 101.909H664.521L667.282 111.898H667.418L670.248 101.909H672.362L668.373 115H666.396L663.532 104.943H663.327L660.464 115H658.487ZM675.021 115V101.909H677.032V115H675.021ZM676.043 99.7273C675.651 99.7273 675.313 99.5938 675.029 99.3267C674.751 99.0597 674.612 98.7386 674.612 98.3636C674.612 97.9886 674.751 97.6676 675.029 97.4006C675.313 97.1335 675.651 97 676.043 97C676.435 97 676.771 97.1335 677.049 97.4006C677.333 97.6676 677.475 97.9886 677.475 98.3636C677.475 98.7386 677.333 99.0597 677.049 99.3267C676.771 99.5938 676.435 99.7273 676.043 99.7273ZM686.205 115.273C684.943 115.273 683.855 114.994 682.94 114.438C682.031 113.875 681.33 113.091 680.835 112.085C680.347 111.074 680.102 109.898 680.102 108.557C680.102 107.216 680.347 106.034 680.835 105.011C681.33 103.983 682.017 103.182 682.898 102.608C683.784 102.028 684.818 101.739 686 101.739C686.682 101.739 687.355 101.852 688.02 102.08C688.685 102.307 689.29 102.676 689.835 103.188C690.381 103.693 690.815 104.364 691.139 105.199C691.463 106.034 691.625 107.062 691.625 108.284V109.136H681.534V107.398H689.58C689.58 106.659 689.432 106 689.136 105.42C688.847 104.841 688.432 104.384 687.892 104.048C687.358 103.713 686.727 103.545 686 103.545C685.199 103.545 684.506 103.744 683.92 104.142C683.341 104.534 682.895 105.045 682.582 105.676C682.27 106.307 682.114 106.983 682.114 107.705V108.864C682.114 109.852 682.284 110.69 682.625 111.378C682.972 112.06 683.452 112.58 684.065 112.938C684.679 113.29 685.392 113.466 686.205 113.466C686.733 113.466 687.21 113.392 687.636 113.244C688.068 113.091 688.44 112.864 688.753 112.562C689.065 112.256 689.307 111.875 689.477 111.42L691.42 111.966C691.216 112.625 690.872 113.205 690.389 113.705C689.906 114.199 689.31 114.585 688.599 114.864C687.889 115.136 687.091 115.273 686.205 115.273ZM699.628 115.273C698.537 115.273 697.574 114.997 696.739 114.446C695.903 113.889 695.25 113.105 694.778 112.094C694.307 111.077 694.071 109.875 694.071 108.489C694.071 107.114 694.307 105.92 694.778 104.909C695.25 103.898 695.906 103.116 696.747 102.565C697.588 102.014 698.56 101.739 699.662 101.739C700.514 101.739 701.188 101.881 701.682 102.165C702.182 102.443 702.563 102.761 702.824 103.119C703.091 103.472 703.298 103.761 703.446 103.989H703.616V97.5455H705.628V115H703.685V112.989H703.446C703.298 113.227 703.088 113.528 702.815 113.892C702.543 114.25 702.153 114.571 701.648 114.855C701.142 115.134 700.469 115.273 699.628 115.273ZM699.901 113.466C700.707 113.466 701.389 113.256 701.946 112.835C702.503 112.409 702.926 111.821 703.216 111.071C703.506 110.315 703.651 109.443 703.651 108.455C703.651 107.477 703.509 106.622 703.224 105.889C702.94 105.151 702.52 104.577 701.963 104.168C701.406 103.753 700.719 103.545 699.901 103.545C699.048 103.545 698.338 103.764 697.77 104.202C697.207 104.634 696.784 105.222 696.5 105.966C696.222 106.705 696.082 107.534 696.082 108.455C696.082 109.386 696.224 110.233 696.509 110.994C696.798 111.75 697.224 112.352 697.787 112.801C698.355 113.244 699.06 113.466 699.901 113.466ZM715.08 115.273C713.818 115.273 712.73 114.994 711.815 114.438C710.906 113.875 710.205 113.091 709.71 112.085C709.222 111.074 708.977 109.898 708.977 108.557C708.977 107.216 709.222 106.034 709.71 105.011C710.205 103.983 710.892 103.182 711.773 102.608C712.659 102.028 713.693 101.739 714.875 101.739C715.557 101.739 716.23 101.852 716.895 102.08C717.56 102.307 718.165 102.676 718.71 103.188C719.256 103.693 719.69 104.364 720.014 105.199C720.338 106.034 720.5 107.062 720.5 108.284V109.136H710.409V107.398H718.455C718.455 106.659 718.307 106 718.011 105.42C717.722 104.841 717.307 104.384 716.767 104.048C716.233 103.713 715.602 103.545 714.875 103.545C714.074 103.545 713.381 103.744 712.795 104.142C712.216 104.534 711.77 105.045 711.457 105.676C711.145 106.307 710.989 106.983 710.989 107.705V108.864C710.989 109.852 711.159 110.69 711.5 111.378C711.847 112.06 712.327 112.58 712.94 112.938C713.554 113.29 714.267 113.466 715.08 113.466C715.608 113.466 716.085 113.392 716.511 113.244C716.943 113.091 717.315 112.864 717.628 112.562C717.94 112.256 718.182 111.875 718.352 111.42L720.295 111.966C720.091 112.625 719.747 113.205 719.264 113.705C718.781 114.199 718.185 114.585 717.474 114.864C716.764 115.136 715.966 115.273 715.08 115.273ZM723.56 115V101.909H725.503V103.886H725.639C725.878 103.239 726.31 102.713 726.935 102.31C727.56 101.906 728.264 101.705 729.048 101.705C729.196 101.705 729.381 101.707 729.602 101.713C729.824 101.719 729.991 101.727 730.105 101.739V103.784C730.037 103.767 729.881 103.741 729.636 103.707C729.398 103.668 729.145 103.648 728.878 103.648C728.241 103.648 727.673 103.781 727.173 104.048C726.679 104.31 726.287 104.673 725.997 105.139C725.713 105.599 725.571 106.125 725.571 106.716V115H723.56ZM744.523 120.182C743.552 120.182 742.717 120.057 742.018 119.807C741.319 119.562 740.737 119.239 740.271 118.835C739.81 118.438 739.444 118.011 739.171 117.557L740.773 116.432C740.955 116.67 741.185 116.943 741.464 117.25C741.742 117.562 742.123 117.832 742.606 118.06C743.094 118.293 743.734 118.409 744.523 118.409C745.58 118.409 746.452 118.153 747.14 117.642C747.827 117.131 748.171 116.33 748.171 115.239V112.58H748.001C747.853 112.818 747.643 113.114 747.37 113.466C747.103 113.812 746.717 114.122 746.211 114.395C745.711 114.662 745.035 114.795 744.183 114.795C743.126 114.795 742.177 114.545 741.336 114.045C740.501 113.545 739.839 112.818 739.35 111.864C738.867 110.909 738.626 109.75 738.626 108.386C738.626 107.045 738.862 105.878 739.333 104.884C739.805 103.884 740.461 103.111 741.302 102.565C742.143 102.014 743.114 101.739 744.217 101.739C745.069 101.739 745.745 101.881 746.245 102.165C746.751 102.443 747.137 102.761 747.404 103.119C747.677 103.472 747.887 103.761 748.035 103.989H748.239V101.909H750.183V115.375C750.183 116.5 749.927 117.415 749.415 118.119C748.91 118.83 748.228 119.349 747.37 119.679C746.518 120.014 745.569 120.182 744.523 120.182ZM744.455 112.989C745.262 112.989 745.944 112.804 746.501 112.435C747.058 112.065 747.481 111.534 747.771 110.841C748.06 110.148 748.205 109.318 748.205 108.352C748.205 107.409 748.063 106.577 747.779 105.855C747.495 105.134 747.075 104.568 746.518 104.159C745.961 103.75 745.273 103.545 744.455 103.545C743.603 103.545 742.893 103.761 742.325 104.193C741.762 104.625 741.339 105.205 741.055 105.932C740.776 106.659 740.637 107.466 740.637 108.352C740.637 109.261 740.779 110.065 741.063 110.764C741.353 111.457 741.779 112.003 742.342 112.401C742.91 112.793 743.614 112.989 744.455 112.989ZM757.717 115.307C756.887 115.307 756.134 115.151 755.458 114.838C754.782 114.52 754.245 114.062 753.847 113.466C753.45 112.864 753.251 112.136 753.251 111.284C753.251 110.534 753.398 109.926 753.694 109.46C753.989 108.989 754.384 108.619 754.879 108.352C755.373 108.085 755.918 107.886 756.515 107.756C757.117 107.619 757.722 107.511 758.33 107.432C759.126 107.33 759.771 107.253 760.265 107.202C760.765 107.145 761.129 107.051 761.356 106.92C761.589 106.79 761.705 106.562 761.705 106.239V106.17C761.705 105.33 761.475 104.676 761.015 104.21C760.56 103.744 759.87 103.511 758.944 103.511C757.984 103.511 757.231 103.722 756.685 104.142C756.14 104.562 755.756 105.011 755.535 105.489L753.626 104.807C753.967 104.011 754.421 103.392 754.989 102.949C755.563 102.5 756.188 102.187 756.864 102.011C757.546 101.83 758.217 101.739 758.876 101.739C759.296 101.739 759.779 101.79 760.325 101.892C760.876 101.989 761.407 102.19 761.918 102.497C762.435 102.804 762.864 103.267 763.205 103.886C763.546 104.506 763.717 105.335 763.717 106.375V115H761.705V113.227H761.603C761.467 113.511 761.239 113.815 760.921 114.139C760.603 114.463 760.18 114.739 759.651 114.966C759.123 115.193 758.478 115.307 757.717 115.307ZM758.023 113.5C758.819 113.5 759.489 113.344 760.035 113.031C760.586 112.719 761.001 112.315 761.279 111.821C761.563 111.327 761.705 110.807 761.705 110.261V108.42C761.62 108.523 761.433 108.616 761.143 108.702C760.859 108.781 760.529 108.852 760.154 108.915C759.785 108.972 759.424 109.023 759.072 109.068C758.725 109.108 758.444 109.142 758.228 109.17C757.705 109.239 757.217 109.349 756.762 109.503C756.313 109.651 755.95 109.875 755.671 110.176C755.398 110.472 755.262 110.875 755.262 111.386C755.262 112.085 755.521 112.614 756.038 112.972C756.56 113.324 757.222 113.5 758.023 113.5ZM769.399 107.125V115H767.388V101.909H769.331V103.955H769.501C769.808 103.29 770.274 102.756 770.899 102.352C771.524 101.943 772.331 101.739 773.32 101.739C774.206 101.739 774.982 101.92 775.646 102.284C776.311 102.642 776.828 103.188 777.197 103.92C777.567 104.648 777.751 105.568 777.751 106.682V115H775.74V106.818C775.74 105.79 775.473 104.989 774.939 104.415C774.405 103.835 773.672 103.545 772.74 103.545C772.098 103.545 771.524 103.685 771.018 103.963C770.518 104.241 770.124 104.648 769.834 105.182C769.544 105.716 769.399 106.364 769.399 107.125ZM781.052 115V113.466L788.484 103.92V103.784H781.29V101.909H791.075V103.511L783.847 112.989V113.125H791.313V115H781.052ZM801.161 115V101.909H803.173V115H801.161ZM802.184 99.7273C801.792 99.7273 801.454 99.5938 801.17 99.3267C800.891 99.0597 800.752 98.7386 800.752 98.3636C800.752 97.9886 800.891 97.6676 801.17 97.4006C801.454 97.1335 801.792 97 802.184 97C802.576 97 802.911 97.1335 803.19 97.4006C803.474 97.6676 803.616 97.9886 803.616 98.3636C803.616 98.7386 803.474 99.0597 803.19 99.3267C802.911 99.5938 802.576 99.7273 802.184 99.7273ZM808.868 107.125V115H806.857V101.909H808.8V103.955H808.97C809.277 103.29 809.743 102.756 810.368 102.352C810.993 101.943 811.8 101.739 812.788 101.739C813.675 101.739 814.45 101.92 815.115 102.284C815.78 102.642 816.297 103.188 816.666 103.92C817.036 104.648 817.22 105.568 817.22 106.682V115H815.209V106.818C815.209 105.79 814.942 104.989 814.408 104.415C813.874 103.835 813.141 103.545 812.209 103.545C811.567 103.545 810.993 103.685 810.487 103.963C809.987 104.241 809.592 104.648 809.303 105.182C809.013 105.716 808.868 106.364 808.868 107.125ZM429.841 135.273C429.841 137.114 429.509 138.705 428.844 140.045C428.179 141.386 427.267 142.42 426.108 143.148C424.949 143.875 423.625 144.239 422.136 144.239C420.648 144.239 419.324 143.875 418.165 143.148C417.006 142.42 416.094 141.386 415.429 140.045C414.764 138.705 414.432 137.114 414.432 135.273C414.432 133.432 414.764 131.841 415.429 130.5C416.094 129.159 417.006 128.125 418.165 127.398C419.324 126.67 420.648 126.307 422.136 126.307C423.625 126.307 424.949 126.67 426.108 127.398C427.267 128.125 428.179 129.159 428.844 130.5C429.509 131.841 429.841 133.432 429.841 135.273ZM427.795 135.273C427.795 133.761 427.543 132.486 427.037 131.446C426.537 130.406 425.858 129.619 425 129.085C424.148 128.551 423.193 128.284 422.136 128.284C421.08 128.284 420.122 128.551 419.264 129.085C418.412 129.619 417.733 130.406 417.227 131.446C416.727 132.486 416.477 133.761 416.477 135.273C416.477 136.784 416.727 138.06 417.227 139.099C417.733 140.139 418.412 140.926 419.264 141.46C420.122 141.994 421.08 142.261 422.136 142.261C423.193 142.261 424.148 141.994 425 141.46C425.858 140.926 426.537 140.139 427.037 139.099C427.543 138.06 427.795 136.784 427.795 135.273ZM433.122 144V130.909H435.065V132.886H435.202C435.44 132.239 435.872 131.713 436.497 131.31C437.122 130.906 437.827 130.705 438.611 130.705C438.759 130.705 438.943 130.707 439.165 130.713C439.386 130.719 439.554 130.727 439.668 130.739V132.784C439.599 132.767 439.443 132.741 439.199 132.707C438.96 132.668 438.707 132.648 438.44 132.648C437.804 132.648 437.236 132.781 436.736 133.048C436.241 133.31 435.849 133.673 435.56 134.139C435.276 134.599 435.134 135.125 435.134 135.716V144H433.122ZM446.597 144.273C445.506 144.273 444.543 143.997 443.707 143.446C442.872 142.889 442.219 142.105 441.747 141.094C441.276 140.077 441.04 138.875 441.04 137.489C441.04 136.114 441.276 134.92 441.747 133.909C442.219 132.898 442.875 132.116 443.716 131.565C444.557 131.014 445.528 130.739 446.631 130.739C447.483 130.739 448.156 130.881 448.651 131.165C449.151 131.443 449.531 131.761 449.793 132.119C450.06 132.472 450.267 132.761 450.415 132.989H450.585V126.545H452.597V144H450.653V141.989H450.415C450.267 142.227 450.057 142.528 449.784 142.892C449.511 143.25 449.122 143.571 448.616 143.855C448.111 144.134 447.438 144.273 446.597 144.273ZM446.869 142.466C447.676 142.466 448.358 142.256 448.915 141.835C449.472 141.409 449.895 140.821 450.185 140.071C450.474 139.315 450.619 138.443 450.619 137.455C450.619 136.477 450.477 135.622 450.193 134.889C449.909 134.151 449.489 133.577 448.932 133.168C448.375 132.753 447.688 132.545 446.869 132.545C446.017 132.545 445.307 132.764 444.739 133.202C444.176 133.634 443.753 134.222 443.469 134.966C443.19 135.705 443.051 136.534 443.051 137.455C443.051 138.386 443.193 139.233 443.477 139.994C443.767 140.75 444.193 141.352 444.756 141.801C445.324 142.244 446.028 142.466 446.869 142.466ZM458.571 136.125V144H456.56V130.909H458.503V132.955H458.673C458.98 132.29 459.446 131.756 460.071 131.352C460.696 130.943 461.503 130.739 462.491 130.739C463.378 130.739 464.153 130.92 464.818 131.284C465.483 131.642 466 132.188 466.369 132.92C466.739 133.648 466.923 134.568 466.923 135.682V144H464.912V135.818C464.912 134.79 464.645 133.989 464.111 133.415C463.577 132.835 462.844 132.545 461.912 132.545C461.27 132.545 460.696 132.685 460.19 132.963C459.69 133.241 459.295 133.648 459.006 134.182C458.716 134.716 458.571 135.364 458.571 136.125ZM478.849 138.648V130.909H480.86V144H478.849V141.784H478.712C478.406 142.449 477.928 143.014 477.281 143.48C476.633 143.94 475.815 144.17 474.826 144.17C474.008 144.17 473.281 143.991 472.644 143.634C472.008 143.27 471.508 142.724 471.144 141.997C470.781 141.264 470.599 140.341 470.599 139.227V130.909H472.61V139.091C472.61 140.045 472.877 140.807 473.411 141.375C473.951 141.943 474.638 142.227 475.474 142.227C475.974 142.227 476.482 142.099 476.999 141.844C477.522 141.588 477.96 141.196 478.312 140.668C478.67 140.139 478.849 139.466 478.849 138.648ZM486.555 136.125V144H484.544V130.909H486.487V132.955H486.658C486.964 132.29 487.43 131.756 488.055 131.352C488.68 130.943 489.487 130.739 490.476 130.739C491.362 130.739 492.138 130.92 492.803 131.284C493.467 131.642 493.984 132.188 494.354 132.92C494.723 133.648 494.908 134.568 494.908 135.682V144H492.896V135.818C492.896 134.79 492.629 133.989 492.095 133.415C491.561 132.835 490.828 132.545 489.896 132.545C489.254 132.545 488.68 132.685 488.175 132.963C487.675 133.241 487.28 133.648 486.99 134.182C486.7 134.716 486.555 135.364 486.555 136.125ZM503.867 149.182C502.896 149.182 502.06 149.057 501.362 148.807C500.663 148.562 500.08 148.239 499.614 147.835C499.154 147.438 498.788 147.011 498.515 146.557L500.117 145.432C500.299 145.67 500.529 145.943 500.808 146.25C501.086 146.562 501.467 146.832 501.95 147.06C502.438 147.293 503.077 147.409 503.867 147.409C504.924 147.409 505.796 147.153 506.484 146.642C507.171 146.131 507.515 145.33 507.515 144.239V141.58H507.344C507.197 141.818 506.987 142.114 506.714 142.466C506.447 142.812 506.06 143.122 505.555 143.395C505.055 143.662 504.379 143.795 503.526 143.795C502.469 143.795 501.521 143.545 500.68 143.045C499.844 142.545 499.183 141.818 498.694 140.864C498.211 139.909 497.969 138.75 497.969 137.386C497.969 136.045 498.205 134.878 498.677 133.884C499.148 132.884 499.805 132.111 500.646 131.565C501.487 131.014 502.458 130.739 503.56 130.739C504.413 130.739 505.089 130.881 505.589 131.165C506.094 131.443 506.481 131.761 506.748 132.119C507.021 132.472 507.231 132.761 507.379 132.989H507.583V130.909H509.526V144.375C509.526 145.5 509.271 146.415 508.759 147.119C508.254 147.83 507.572 148.349 506.714 148.679C505.862 149.014 504.913 149.182 503.867 149.182ZM503.799 141.989C504.606 141.989 505.288 141.804 505.844 141.435C506.401 141.065 506.825 140.534 507.114 139.841C507.404 139.148 507.549 138.318 507.549 137.352C507.549 136.409 507.407 135.577 507.123 134.855C506.839 134.134 506.418 133.568 505.862 133.159C505.305 132.75 504.617 132.545 503.799 132.545C502.947 132.545 502.237 132.761 501.668 133.193C501.106 133.625 500.683 134.205 500.398 134.932C500.12 135.659 499.981 136.466 499.981 137.352C499.981 138.261 500.123 139.065 500.407 139.764C500.697 140.457 501.123 141.003 501.685 141.401C502.254 141.793 502.958 141.989 503.799 141.989ZM519.583 144V142.466L527.015 132.92V132.784H519.822V130.909H529.606V132.511L522.379 141.989V142.125H529.844V144H519.583ZM541.192 138.648V130.909H543.204V144H541.192V141.784H541.056C540.749 142.449 540.272 143.014 539.624 143.48C538.977 143.94 538.158 144.17 537.17 144.17C536.352 144.17 535.624 143.991 534.988 143.634C534.352 143.27 533.852 142.724 533.488 141.997C533.124 141.264 532.942 140.341 532.942 139.227V130.909H534.954V139.091C534.954 140.045 535.221 140.807 535.755 141.375C536.295 141.943 536.982 142.227 537.817 142.227C538.317 142.227 538.826 142.099 539.343 141.844C539.866 141.588 540.303 141.196 540.656 140.668C541.013 140.139 541.192 139.466 541.192 138.648ZM562.911 133.841L561.104 134.352C560.99 134.051 560.822 133.759 560.601 133.474C560.385 133.185 560.089 132.946 559.714 132.759C559.339 132.571 558.859 132.477 558.274 132.477C557.473 132.477 556.805 132.662 556.271 133.031C555.743 133.395 555.479 133.858 555.479 134.42C555.479 134.92 555.661 135.315 556.024 135.605C556.388 135.895 556.956 136.136 557.729 136.33L559.672 136.807C560.842 137.091 561.714 137.526 562.288 138.111C562.862 138.69 563.149 139.437 563.149 140.352C563.149 141.102 562.933 141.773 562.501 142.364C562.075 142.955 561.479 143.42 560.712 143.761C559.945 144.102 559.053 144.273 558.036 144.273C556.7 144.273 555.595 143.983 554.72 143.403C553.845 142.824 553.291 141.977 553.058 140.864L554.967 140.386C555.149 141.091 555.493 141.619 555.999 141.972C556.51 142.324 557.178 142.5 558.001 142.5C558.939 142.5 559.683 142.301 560.234 141.903C560.791 141.5 561.07 141.017 561.07 140.455C561.07 140 560.911 139.619 560.592 139.312C560.274 139 559.786 138.767 559.126 138.614L556.945 138.102C555.746 137.818 554.865 137.378 554.303 136.781C553.746 136.179 553.467 135.426 553.467 134.523C553.467 133.784 553.675 133.131 554.089 132.562C554.51 131.994 555.081 131.548 555.803 131.224C556.53 130.901 557.354 130.739 558.274 130.739C559.57 130.739 560.587 131.023 561.325 131.591C562.07 132.159 562.598 132.909 562.911 133.841ZM571.665 144.273C570.404 144.273 569.316 143.994 568.401 143.438C567.492 142.875 566.79 142.091 566.296 141.085C565.808 140.074 565.563 138.898 565.563 137.557C565.563 136.216 565.808 135.034 566.296 134.011C566.79 132.983 567.478 132.182 568.359 131.608C569.245 131.028 570.279 130.739 571.461 130.739C572.143 130.739 572.816 130.852 573.481 131.08C574.146 131.307 574.751 131.676 575.296 132.188C575.842 132.693 576.276 133.364 576.6 134.199C576.924 135.034 577.086 136.062 577.086 137.284V138.136H566.995V136.398H575.04C575.04 135.659 574.893 135 574.597 134.42C574.308 133.841 573.893 133.384 573.353 133.048C572.819 132.713 572.188 132.545 571.461 132.545C570.66 132.545 569.967 132.744 569.381 133.142C568.802 133.534 568.356 134.045 568.043 134.676C567.731 135.307 567.575 135.983 567.575 136.705V137.864C567.575 138.852 567.745 139.69 568.086 140.378C568.433 141.06 568.913 141.58 569.526 141.938C570.14 142.29 570.853 142.466 571.665 142.466C572.194 142.466 572.671 142.392 573.097 142.244C573.529 142.091 573.901 141.864 574.214 141.562C574.526 141.256 574.768 140.875 574.938 140.42L576.881 140.966C576.677 141.625 576.333 142.205 575.85 142.705C575.367 143.199 574.771 143.585 574.06 143.864C573.35 144.136 572.552 144.273 571.665 144.273ZM580.146 144V130.909H582.157V144H580.146ZM581.168 128.727C580.776 128.727 580.438 128.594 580.154 128.327C579.876 128.06 579.737 127.739 579.737 127.364C579.737 126.989 579.876 126.668 580.154 126.401C580.438 126.134 580.776 126 581.168 126C581.56 126 581.896 126.134 582.174 126.401C582.458 126.668 582.6 126.989 582.6 127.364C582.6 127.739 582.458 128.06 582.174 128.327C581.896 128.594 581.56 128.727 581.168 128.727ZM587.852 136.125V144H585.841V130.909H587.784V132.955H587.955C588.261 132.29 588.727 131.756 589.352 131.352C589.977 130.943 590.784 130.739 591.773 130.739C592.659 130.739 593.435 130.92 594.099 131.284C594.764 131.642 595.281 132.188 595.651 132.92C596.02 133.648 596.205 134.568 596.205 135.682V144H594.193V135.818C594.193 134.79 593.926 133.989 593.392 133.415C592.858 132.835 592.125 132.545 591.193 132.545C590.551 132.545 589.977 132.685 589.472 132.963C588.972 133.241 588.577 133.648 588.287 134.182C587.997 134.716 587.852 135.364 587.852 136.125ZM602.539 126.545L602.369 139.091H600.391L600.221 126.545H602.539ZM601.38 144.136C600.96 144.136 600.599 143.986 600.298 143.685C599.996 143.384 599.846 143.023 599.846 142.602C599.846 142.182 599.996 141.821 600.298 141.52C600.599 141.219 600.96 141.068 601.38 141.068C601.8 141.068 602.161 141.219 602.462 141.52C602.763 141.821 602.914 142.182 602.914 142.602C602.914 142.881 602.843 143.136 602.701 143.369C602.565 143.602 602.38 143.79 602.147 143.932C601.92 144.068 601.664 144.136 601.38 144.136Z" fill="black"/>
<path d="M332.114 673.425C336.146 674.265 340.97 676.113 341.444 680.483C341.998 685.357 336.383 688.214 331.876 689.223C314.874 693.172 297.318 693.676 279.842 694.181C187.479 696.533 95.115 696.954 2.74976 695.357C4.09375 683.341 17.5396 678.13 28.6894 675.861C76.6111 666.114 126.193 671.66 173.244 661.324C222.827 650.316 283.164 662.753 332.114 673.425Z" fill="url(#paint0_linear_463_2973)"/>
<path d="M332.114 673.425C336.146 674.265 340.97 676.113 341.444 680.483C341.998 685.357 336.383 688.214 331.876 689.223C314.874 693.172 297.318 693.676 279.842 694.181C187.479 696.533 95.115 696.954 2.74976 695.357C4.09375 683.341 17.5396 678.13 28.6894 675.861C76.6111 666.114 126.193 671.66 173.244 661.324C222.827 650.316 283.164 662.753 332.114 673.425Z" fill="url(#paint1_linear_463_2973)"/>
<path d="M80.5703 594.264C79.5423 593.928 78.4351 594.264 77.407 594.601C72.8993 596.197 68.4708 598.298 64.5172 601.071C62.5399 602.416 60.5631 603.928 59.6143 606.197C58.7442 608.298 58.8234 610.651 58.9814 612.836C60.4051 639.894 61.7495 667.036 63.1727 694.095C63.2519 695.859 63.4892 697.793 64.7544 698.885C66.336 700.145 68.55 699.305 70.2896 698.465C87.2916 690.565 104.214 682.582 121.216 674.683C129.361 670.902 137.744 666.868 143.754 659.893C139.167 649.137 129.519 641.995 120.663 634.768C106.903 623.507 94.2505 610.567 83.1003 596.449C82.4674 595.609 81.6771 594.6 80.5703 594.264Z" fill="#DDC199"/>
<path d="M0.462624 454.855C4.65487 453.847 8.92729 452.838 13.1167 451.83C37.7892 499.98 59.6148 549.812 78.4355 600.904C74.0863 603.845 68.3138 606.87 64.1225 603.677C62.3829 602.332 61.3544 600.147 60.4056 598.047C39.0544 550.988 19.0476 503.258 0.462624 454.855Z" fill="#BDB39B"/>
<g opacity="0.26">
<path opacity="0.26" d="M78.2095 689.137C78.2887 690.062 76.9443 690.398 76.7864 689.474C73.3859 662.163 68.5627 635.357 62.3153 608.634C61.9202 606.954 64.3714 606.449 64.7665 608.13C71.2511 634.6 75.7583 661.827 78.2095 689.137Z" fill="#272525"/>
<path opacity="0.26" d="M105.004 677.121C94.5663 653.76 83.4953 630.735 71.7914 608.046C71.0798 606.701 73.1359 605.609 73.8475 606.954C86.0258 629.811 97.0175 653.34 107.061 677.289C106.903 677.457 106.824 677.625 106.745 677.793C106.191 677.373 105.637 677.205 105.004 677.121Z" fill="#272525"/>
<path opacity="0.26" d="M122.018 661.743C104.542 644.264 88.9631 624.853 75.3617 603.844C74.4916 602.416 76.7061 601.239 77.5762 602.668C90.9404 623.592 106.281 642.92 123.441 660.398C124.311 661.322 122.888 662.667 122.018 661.743Z" fill="#272525"/>
</g>
<path d="M243.236 618.213C243.156 616.953 242.998 615.608 242.92 614.347C253.358 606.784 271.704 609.221 282.775 613.087C294.637 617.204 294.637 624.935 294.479 638.044C294.4 645.439 293.767 653.759 288.39 658.548C284.278 662.246 278.505 662.75 273.127 663.086C268.304 663.422 263.559 663.674 258.735 664.01C255.414 664.178 251.697 664.263 249.088 661.993C246.478 659.641 246.083 655.691 245.766 652.077C244.897 640.733 244.026 629.473 243.236 618.213Z" fill="#2F3F47"/>
<path d="M230.494 618.213C230.573 616.953 230.731 615.608 230.811 614.347C220.372 606.784 202.026 609.221 190.955 613.087C179.093 617.204 179.093 624.935 179.251 638.044C179.33 645.439 179.963 653.759 185.341 658.548C189.453 662.246 195.225 662.75 200.603 663.086C205.426 663.422 210.171 663.674 214.995 664.01C218.316 664.178 222.033 664.263 224.642 661.993C227.252 659.641 227.647 655.691 227.963 652.077C228.754 640.733 229.624 629.473 230.494 618.213Z" fill="#2F3F47"/>
<path d="M319.553 590.148C322.163 590.735 324.693 591.576 327.145 592.668C328.964 593.424 330.782 594.433 332.048 595.945C333.787 598.13 334.262 601.156 334.578 604.097C334.973 607.963 335.132 611.828 335.052 615.693C335.052 618.97 334.815 622.332 333.233 625.105C331.019 628.971 326.67 630.735 322.558 631.827C314.729 633.929 306.584 634.432 298.518 634.853C249.727 637.374 200.777 635.692 152.223 629.895C150.246 629.643 148.032 629.307 146.688 627.71C145.897 626.786 145.501 625.525 145.106 624.348C142.576 615.777 140.915 604.097 146.371 596.114C151.036 589.307 159.656 593.172 166.14 593.088C172.783 593.004 179.505 592.416 186.148 592.164C199.117 591.576 212.085 590.987 225.054 590.567C243.321 589.895 261.667 589.307 279.935 588.803C292.271 588.551 306.821 587.122 319.553 590.148Z" fill="#516770"/>
<path d="M214.691 405.695C181.557 405.863 148.502 406.62 115.368 407.376C116.159 388.637 117.424 369.897 121.22 351.578C127.784 319.478 142.808 288.134 168.193 269.395C207.099 240.656 268.859 244.437 310.771 272.84C328.406 284.772 342.56 301.159 349.994 321.242C358.534 344.183 360.828 369.225 362.172 393.847C362.331 397.124 362.489 400.317 362.646 403.594C313.46 401.577 263.957 405.527 214.691 405.695Z" fill="#EAF1F2"/>
<path d="M217.343 415.108C265.897 415.024 314.61 411.327 363.164 413.175C365.536 469.141 363.322 525.359 356.521 580.989C355.572 588.636 354.386 596.618 349.641 602.668C342.287 611.996 329.555 607.878 319.67 607.878C302.985 607.878 285.825 608.635 268.981 609.055C237.191 609.811 205.639 609.895 174.008 606.114C158.983 604.35 128.617 609.223 121.421 594.854C115.49 583.173 117.941 559.476 117.071 546.451C116.043 530.989 115.252 515.611 114.778 500.149C113.908 472.334 114.066 444.519 115.095 416.62C149.098 415.948 183.26 415.108 217.343 415.108Z" fill="#E2ECED"/>
<path d="M102.671 505.696C102.038 505.107 101.959 504.099 101.88 503.259C100.22 479.982 98.7963 456.704 97.7683 433.427C97.6891 431.41 97.6891 429.058 99.1915 427.713C100.299 426.789 101.722 426.705 103.146 426.705C108.049 426.621 112.872 426.537 117.775 426.537C120.859 453.007 122.124 479.645 121.492 506.284C116.035 506.284 110.658 506.368 105.202 506.368C104.332 506.368 103.383 506.368 102.671 505.696Z" fill="#2F3F47"/>
<path d="M77.4635 559.31C76.8312 557.378 76.1191 555.361 74.6959 553.932C73.5886 552.84 72.0867 552.167 70.6631 551.663C64.4949 549.31 58.1688 547.546 51.763 546.369C46.7814 549.983 42.2737 554.269 38.3988 559.226C37.6872 560.151 36.9756 561.159 36.8172 562.336C36.6592 563.26 36.8964 564.184 37.1336 565.109C39.664 575.445 42.1157 585.781 44.6461 596.117C48.3626 596.621 52.0795 596.705 55.7171 596.201C54.294 589.898 52.8703 583.596 51.5258 577.377C50.1814 571.411 49.1534 564.1 53.4235 559.899C57.7727 561.075 62.0432 562.336 66.3925 563.512C67.1041 563.68 67.8954 563.932 68.5278 564.436C69.2394 565.109 69.5558 566.117 69.8722 567.041C71.6911 572.924 73.0355 578.974 73.9843 585.109C76.7519 584.268 79.5196 583.511 82.2872 582.671C82.5249 574.688 79.9945 566.874 77.4635 559.31Z" fill="#2F3F47"/>
<path d="M43.8579 550.233C43.6207 549.981 43.5419 549.646 43.4627 549.393C42.6719 545.612 41.8811 541.83 41.011 538.133C46.5468 536.788 52.24 535.863 57.8545 535.359C58.7246 538.469 59.2782 541.746 59.5154 545.023C59.5946 545.696 59.5946 546.536 59.1202 547.04C58.8038 547.376 58.4082 547.46 58.013 547.629C53.8217 548.973 49.4724 549.981 45.0439 550.569C44.7275 550.485 44.2535 550.57 43.8579 550.233Z" fill="#516770"/>
<path d="M38.3131 535.529C34.9919 529.562 37.6803 513.848 37.6803 507.546C37.7595 498.89 37.7595 490.151 39.6575 481.748C41.5551 473.344 45.4305 465.109 51.8358 459.815C55.4735 456.79 59.7435 454.858 64.172 453.261C77.3783 448.471 91.5329 446.875 105.372 448.639C106.479 448.807 107.665 448.975 108.456 449.816C109.326 450.656 109.484 452 109.642 453.261C110.275 458.051 111.144 463.345 110.907 468.218C110.512 476.79 112.172 474.437 106.32 476.874C101.813 478.723 93.3518 477.21 88.2117 478.471C82.2015 479.899 76.3498 482.084 70.4981 484.269C66.7817 485.613 62.8276 487.294 60.9295 490.907C59.9015 492.84 59.5851 495.193 59.3479 497.462C57.9247 510.908 57.2918 524.436 57.3711 537.966C57.3711 540.318 41.0812 539.142 38.946 536.537C38.7088 536.201 38.5503 535.865 38.3131 535.529Z" fill="#E2ECED"/>
<g opacity="0.15">
<path opacity="0.15" d="M65.9978 457.129C66.4722 465.196 68.449 472.507 71.4538 479.902C72.0075 481.33 70.3471 482.423 69.477 481.163C64.7326 474.104 62.2809 465.7 61.4109 457.129C61.0944 454.104 65.7601 454.019 65.9978 457.129Z" fill="#272525"/>
<path opacity="0.15" d="M53.8958 462.927C55.2398 470.743 58.5611 475.869 63.7804 481.415C64.492 482.171 63.5436 483.431 62.7528 482.843C59.1944 480.49 55.8731 478.978 53.3427 475.197C50.9702 471.667 49.3885 467.885 48.9142 463.6C48.5977 460.659 53.3422 459.986 53.8958 462.927Z" fill="#272525"/>
</g>
<path d="M370.926 427.209C371.559 427.797 371.637 428.806 371.717 429.646C373.377 452.923 374.801 476.2 375.829 499.477C375.908 501.494 375.908 503.847 374.405 505.191C373.298 506.116 371.875 506.2 370.452 506.2C365.549 506.284 360.725 506.368 355.822 506.368C352.738 479.898 351.473 453.259 352.105 426.621C357.562 426.621 362.939 426.537 368.395 426.537C369.265 426.537 370.293 426.537 370.926 427.209Z" fill="#2F3F47"/>
<path d="M432.221 398.555C431.984 400.572 431.747 402.756 432.459 404.605C433.012 406.117 434.04 407.378 435.147 408.555C439.655 413.512 444.557 418.135 449.856 422.252C455.866 421.412 461.717 419.647 467.174 417.042C468.202 416.538 469.309 416.034 469.942 415.025C470.416 414.269 470.653 413.344 470.812 412.42C472.868 402 475.003 391.496 477.059 381.076C473.975 378.891 470.653 377.042 467.174 375.697C465.829 382 464.406 388.302 463.062 394.605C461.718 400.571 459.582 407.63 454.047 409.311C450.647 406.202 447.325 403.092 443.925 399.983C443.371 399.479 442.739 398.891 442.422 398.135C442.027 397.21 442.185 396.117 442.344 395.109C443.213 388.975 444.479 382.924 446.218 376.958C443.371 376.37 440.604 375.782 437.757 375.193C434.119 382.336 433.17 390.571 432.221 398.555Z" fill="#2F3F47"/>
<path d="M458.492 422.502C458.571 422.838 458.492 423.175 458.492 423.427C457.622 427.208 456.752 430.906 455.962 434.687C450.426 433.258 444.97 431.41 439.672 429.225C440.146 426.031 441.016 422.838 442.202 419.813C442.439 419.141 442.755 418.468 443.388 418.216C443.783 418.048 444.179 418.132 444.653 418.216C449.003 418.973 453.273 420.149 457.464 421.662C457.86 421.83 458.334 422.082 458.492 422.502Z" fill="#516770"/>
<path d="M457.286 438.303C457.84 445.193 448.825 457.966 446.136 463.68C442.499 471.412 438.782 479.227 433.563 485.865C428.343 492.504 421.464 498.05 413.477 499.73C408.969 500.739 404.304 500.487 399.717 499.815C385.878 497.882 372.514 492.672 360.89 484.521C359.941 483.848 358.992 483.176 358.596 482C358.201 480.823 358.596 479.563 358.913 478.302C360.415 473.681 361.76 468.555 364.053 464.269C368.007 456.79 365.476 458.134 371.803 458.638C376.626 459.059 383.585 464.437 388.725 465.782C394.735 467.378 400.903 468.134 406.992 468.975C410.867 469.479 415.137 469.899 418.38 467.546C420.12 466.286 421.385 464.353 422.492 462.42C429.372 451.075 435.619 439.227 441.233 427.043C442.182 424.942 456.258 433.681 457.128 437.042C457.207 437.546 457.286 437.883 457.286 438.303Z" fill="#E2ECED"/>
<g opacity="0.15">
<path opacity="0.15" d="M399.812 495.442C402.739 487.963 404.003 480.484 404.478 472.417C404.557 470.821 406.534 470.653 406.771 472.25C408.037 480.821 406.771 489.476 403.924 497.543C402.896 500.484 398.626 498.299 399.812 495.442Z" fill="#272525"/>
<path opacity="0.15" d="M413.004 496.032C415.06 488.385 414.269 482.251 411.897 474.772C411.58 473.764 412.925 473.091 413.478 473.931C415.613 477.713 417.986 480.654 418.697 485.192C419.33 489.477 419.172 493.595 417.748 497.628C416.799 500.569 412.292 498.889 413.004 496.032Z" fill="#272525"/>
</g>
<path d="M340.565 350.739C340.487 353.932 340.329 357.209 339.063 360.151C335.821 367.461 327.281 369.814 319.768 371.159C276.829 378.805 232.94 381.411 189.763 375.612C184.07 374.856 178.376 373.932 173.157 371.411C167.937 368.89 163.272 364.604 161.374 358.974C160.188 355.36 160.109 351.495 160.03 347.63C159.951 343.764 159.951 339.815 159.872 335.949C159.872 334.185 159.872 332.42 160.504 330.739C161.216 328.974 162.639 327.546 164.142 326.453C169.835 322.336 177.031 321.411 183.911 320.655C229.618 315.781 275.879 311.496 321.349 318.05C323.247 318.302 325.225 318.638 326.569 320.067C327.281 320.739 327.755 321.664 328.467 322.336C329.811 323.428 331.63 323.344 333.211 323.932C337.64 325.445 339.221 331.244 339.775 336.202C340.407 340.991 340.645 345.865 340.565 350.739Z" fill="#2F3F47"/>
<path opacity="0.2" d="M283.322 357.797C281.819 354.856 281.582 351.411 281.898 348.05C282.056 346.033 282.531 343.933 283.717 342.42C286.248 339.227 290.913 339.563 294.788 338.807C298.188 340.319 301.036 343.26 302.459 346.874C303.329 349.058 303.724 351.411 303.487 353.764C302.933 358.554 299.216 362.672 294.788 363.512C290.281 364.521 285.456 362.083 283.322 357.797Z" fill="#EAF1F2"/>
<path opacity="0.2" d="M208.017 357.797C206.515 354.856 206.277 351.411 206.594 348.05C206.752 346.033 207.226 343.933 208.413 342.42C210.943 339.227 215.608 339.563 219.483 338.807C222.884 340.319 225.731 343.26 227.154 346.874C228.024 349.058 228.419 351.411 228.182 353.764C227.629 358.554 223.912 362.672 219.483 363.512C215.055 364.521 210.232 362.083 208.017 357.797Z" fill="#EAF1F2"/>
<defs>
<linearGradient id="paint0_linear_463_2973" x1="341.43" y1="676.659" x2="2.66016" y2="676.659" gradientUnits="userSpaceOnUse">
<stop stop-color="#4D4D4D"/>
<stop offset="1"/>
</linearGradient>
<linearGradient id="paint1_linear_463_2973" x1="341.43" y1="676.659" x2="2.66016" y2="676.659" gradientUnits="userSpaceOnUse">
<stop/>
<stop offset="1"/>
</linearGradient>
</defs>
</svg>
