<svg width="1037" height="744" viewBox="0 0 1037 744" fill="none" xmlns="http://www.w3.org/2000/svg">
<path d="M463.744 359C463.539 359 463.335 358.995 463.128 358.985C460.716 358.874 458.36 358.028 456.262 356.519C454.164 355.009 452.385 352.881 451.077 350.315C441.279 331.791 429.255 315.315 415.438 301.483C407.074 293.027 398.334 285.164 389.882 277.559C368.078 257.948 347.543 239.478 336.144 213.956C311.291 158.305 340.559 80.791 382.371 46.0287C429.268 7.04078 490.955 0.925206 550.629 0.123755C556.831 0.0407974 563.037 -0.000432193 569.246 3.41571e-06C676.767 0.0521524 784.062 12.4619 889.807 37.0762C924.97 45.2822 961.776 55.3348 991.354 79.7306C1020.76 103.982 1038.63 142.172 1036.88 177.028C1034.34 227.911 991.695 265.932 952.864 275.872C915.853 285.339 877.404 278.941 836.699 272.166C827.713 270.672 818.422 269.125 809.234 267.781C709.377 253.181 521.789 298.181 513.853 300.105L505.98 302.011L475.429 351.74C474.055 354.006 472.286 355.841 470.259 357.1C468.232 358.36 466.003 359.01 463.744 359Z" fill="white"/>
<path d="M406.25 179H398.17V152.818H406.608C409.148 152.818 411.321 153.342 413.128 154.391C414.935 155.43 416.32 156.926 417.283 158.878C418.246 160.821 418.727 163.148 418.727 165.858C418.727 168.585 418.241 170.933 417.27 172.902C416.298 174.862 414.884 176.371 413.026 177.428C411.168 178.476 408.909 179 406.25 179ZM401.341 176.188H406.045C408.21 176.188 410.004 175.77 411.428 174.935C412.851 174.099 413.912 172.911 414.611 171.368C415.31 169.825 415.659 167.989 415.659 165.858C415.659 163.744 415.314 161.925 414.624 160.399C413.933 158.865 412.902 157.689 411.53 156.871C410.158 156.044 408.449 155.631 406.403 155.631H401.341V176.188ZM429.415 179.46C428.17 179.46 427.041 179.226 426.027 178.757C425.013 178.28 424.207 177.594 423.611 176.699C423.014 175.795 422.716 174.705 422.716 173.426C422.716 172.301 422.938 171.389 423.381 170.69C423.824 169.983 424.416 169.429 425.158 169.028C425.899 168.628 426.717 168.33 427.612 168.134C428.516 167.929 429.423 167.767 430.335 167.648C431.528 167.494 432.496 167.379 433.237 167.303C433.987 167.217 434.533 167.077 434.874 166.881C435.223 166.685 435.398 166.344 435.398 165.858V165.756C435.398 164.494 435.053 163.514 434.362 162.815C433.68 162.116 432.645 161.767 431.256 161.767C429.815 161.767 428.686 162.082 427.868 162.713C427.05 163.344 426.474 164.017 426.142 164.733L423.278 163.71C423.79 162.517 424.472 161.588 425.324 160.923C426.185 160.25 427.122 159.781 428.136 159.517C429.159 159.244 430.165 159.108 431.153 159.108C431.784 159.108 432.509 159.185 433.327 159.338C434.153 159.483 434.95 159.786 435.717 160.246C436.493 160.706 437.136 161.401 437.648 162.33C438.159 163.259 438.415 164.503 438.415 166.062V179H435.398V176.341H435.244C435.04 176.767 434.699 177.223 434.222 177.709C433.744 178.195 433.109 178.608 432.317 178.949C431.524 179.29 430.557 179.46 429.415 179.46ZM429.875 176.75C431.068 176.75 432.074 176.516 432.892 176.047C433.719 175.578 434.341 174.973 434.759 174.232C435.185 173.49 435.398 172.71 435.398 171.892V169.131C435.27 169.284 434.989 169.425 434.554 169.553C434.128 169.672 433.634 169.778 433.071 169.872C432.517 169.957 431.976 170.034 431.447 170.102C430.928 170.162 430.506 170.213 430.182 170.256C429.398 170.358 428.665 170.524 427.983 170.754C427.31 170.976 426.764 171.312 426.347 171.764C425.938 172.207 425.733 172.812 425.733 173.58C425.733 174.628 426.121 175.42 426.896 175.957C427.68 176.486 428.673 176.75 429.875 176.75ZM457.831 163.761L455.12 164.528C454.95 164.077 454.699 163.638 454.366 163.212C454.042 162.777 453.599 162.419 453.037 162.138C452.474 161.857 451.754 161.716 450.876 161.716C449.674 161.716 448.673 161.993 447.872 162.547C447.079 163.092 446.683 163.787 446.683 164.631C446.683 165.381 446.956 165.973 447.501 166.408C448.047 166.842 448.899 167.205 450.058 167.494L452.973 168.21C454.728 168.636 456.037 169.288 456.897 170.166C457.758 171.036 458.189 172.156 458.189 173.528C458.189 174.653 457.865 175.659 457.217 176.545C456.578 177.432 455.683 178.131 454.532 178.642C453.382 179.153 452.044 179.409 450.518 179.409C448.515 179.409 446.858 178.974 445.545 178.105C444.233 177.236 443.402 175.966 443.052 174.295L445.916 173.58C446.189 174.636 446.704 175.429 447.463 175.957C448.23 176.486 449.231 176.75 450.467 176.75C451.873 176.75 452.99 176.452 453.816 175.855C454.652 175.25 455.069 174.526 455.069 173.682C455.069 173 454.831 172.429 454.353 171.969C453.876 171.5 453.143 171.151 452.154 170.92L448.882 170.153C447.083 169.727 445.762 169.067 444.919 168.172C444.083 167.268 443.666 166.139 443.666 164.784C443.666 163.676 443.977 162.696 444.599 161.844C445.23 160.991 446.086 160.322 447.169 159.837C448.26 159.351 449.495 159.108 450.876 159.108C452.819 159.108 454.345 159.534 455.453 160.386C456.569 161.239 457.362 162.364 457.831 163.761ZM477.304 179L471.321 159.364H474.491L478.736 174.398H478.94L483.134 159.364H486.355L490.497 174.347H490.702L494.946 159.364H498.116L492.134 179H489.168L484.872 163.915H484.565L480.27 179H477.304ZM507.884 179.46C506.639 179.46 505.51 179.226 504.496 178.757C503.482 178.28 502.676 177.594 502.08 176.699C501.483 175.795 501.185 174.705 501.185 173.426C501.185 172.301 501.406 171.389 501.849 170.69C502.293 169.983 502.885 169.429 503.626 169.028C504.368 168.628 505.186 168.33 506.081 168.134C506.984 167.929 507.892 167.767 508.804 167.648C509.997 167.494 510.964 167.379 511.706 167.303C512.456 167.217 513.001 167.077 513.342 166.881C513.692 166.685 513.866 166.344 513.866 165.858V165.756C513.866 164.494 513.521 163.514 512.831 162.815C512.149 162.116 511.114 161.767 509.724 161.767C508.284 161.767 507.155 162.082 506.337 162.713C505.518 163.344 504.943 164.017 504.611 164.733L501.747 163.71C502.259 162.517 502.94 161.588 503.793 160.923C504.653 160.25 505.591 159.781 506.605 159.517C507.628 159.244 508.634 159.108 509.622 159.108C510.253 159.108 510.977 159.185 511.795 159.338C512.622 159.483 513.419 159.786 514.186 160.246C514.962 160.706 515.605 161.401 516.116 162.33C516.628 163.259 516.884 164.503 516.884 166.062V179H513.866V176.341H513.713C513.509 176.767 513.168 177.223 512.69 177.709C512.213 178.195 511.578 178.608 510.786 178.949C509.993 179.29 509.026 179.46 507.884 179.46ZM508.344 176.75C509.537 176.75 510.543 176.516 511.361 176.047C512.188 175.578 512.81 174.973 513.227 174.232C513.653 173.49 513.866 172.71 513.866 171.892V169.131C513.739 169.284 513.457 169.425 513.023 169.553C512.597 169.672 512.102 169.778 511.54 169.872C510.986 169.957 510.445 170.034 509.916 170.102C509.396 170.162 508.974 170.213 508.651 170.256C507.866 170.358 507.134 170.524 506.452 170.754C505.778 170.976 505.233 171.312 504.815 171.764C504.406 172.207 504.202 172.812 504.202 173.58C504.202 174.628 504.589 175.42 505.365 175.957C506.149 176.486 507.142 176.75 508.344 176.75ZM522.39 179V159.364H525.305V162.33H525.51C525.868 161.358 526.515 160.57 527.453 159.964C528.39 159.359 529.447 159.057 530.623 159.057C530.845 159.057 531.122 159.061 531.454 159.07C531.787 159.078 532.038 159.091 532.208 159.108V162.176C532.106 162.151 531.872 162.112 531.505 162.061C531.147 162.001 530.768 161.972 530.368 161.972C529.413 161.972 528.561 162.172 527.811 162.572C527.069 162.964 526.481 163.51 526.047 164.209C525.62 164.899 525.407 165.687 525.407 166.574V179H522.39ZM554.143 179.409C552.251 179.409 550.619 178.991 549.246 178.156C547.883 177.312 546.83 176.136 546.089 174.628C545.356 173.111 544.989 171.347 544.989 169.335C544.989 167.324 545.356 165.551 546.089 164.017C546.83 162.474 547.862 161.273 549.183 160.412C550.512 159.543 552.063 159.108 553.836 159.108C554.859 159.108 555.869 159.278 556.866 159.619C557.863 159.96 558.771 160.514 559.589 161.281C560.407 162.04 561.059 163.045 561.545 164.298C562.031 165.551 562.273 167.094 562.273 168.926V170.205H547.137V167.597H559.205C559.205 166.489 558.984 165.5 558.54 164.631C558.106 163.761 557.484 163.075 556.674 162.572C555.873 162.07 554.927 161.818 553.836 161.818C552.634 161.818 551.594 162.116 550.717 162.713C549.847 163.301 549.178 164.068 548.71 165.014C548.241 165.96 548.006 166.974 548.006 168.057V169.795C548.006 171.278 548.262 172.536 548.773 173.567C549.293 174.589 550.013 175.369 550.934 175.906C551.854 176.435 552.924 176.699 554.143 176.699C554.935 176.699 555.651 176.588 556.29 176.366C556.938 176.136 557.496 175.795 557.965 175.344C558.434 174.884 558.796 174.312 559.052 173.631L561.967 174.449C561.66 175.438 561.144 176.307 560.42 177.057C559.695 177.798 558.8 178.378 557.735 178.795C556.67 179.205 555.472 179.409 554.143 179.409ZM566.863 179V159.364H569.88V179H566.863ZM568.397 156.091C567.809 156.091 567.302 155.891 566.876 155.49C566.458 155.089 566.249 154.608 566.249 154.045C566.249 153.483 566.458 153.001 566.876 152.601C567.302 152.2 567.809 152 568.397 152C568.985 152 569.488 152.2 569.906 152.601C570.332 153.001 570.545 153.483 570.545 154.045C570.545 154.608 570.332 155.089 569.906 155.49C569.488 155.891 568.985 156.091 568.397 156.091ZM578.423 167.188V179H575.406V159.364H578.321V162.432H578.576C579.037 161.435 579.735 160.634 580.673 160.028C581.61 159.415 582.821 159.108 584.304 159.108C585.633 159.108 586.797 159.381 587.794 159.926C588.791 160.463 589.566 161.281 590.12 162.381C590.674 163.472 590.951 164.852 590.951 166.523V179H587.934V166.727C587.934 165.185 587.534 163.983 586.733 163.122C585.931 162.253 584.832 161.818 583.434 161.818C582.471 161.818 581.61 162.027 580.852 162.445C580.102 162.862 579.51 163.472 579.075 164.273C578.64 165.074 578.423 166.045 578.423 167.188ZM604.697 179.409C602.805 179.409 601.173 178.991 599.801 178.156C598.438 177.312 597.385 176.136 596.643 174.628C595.911 173.111 595.544 171.347 595.544 169.335C595.544 167.324 595.911 165.551 596.643 164.017C597.385 162.474 598.416 161.273 599.737 160.412C601.067 159.543 602.618 159.108 604.391 159.108C605.413 159.108 606.423 159.278 607.42 159.619C608.418 159.96 609.325 160.514 610.143 161.281C610.962 162.04 611.614 163.045 612.099 164.298C612.585 165.551 612.828 167.094 612.828 168.926V170.205H597.692V167.597H609.76C609.76 166.489 609.538 165.5 609.095 164.631C608.661 163.761 608.038 163.075 607.229 162.572C606.428 162.07 605.482 161.818 604.391 161.818C603.189 161.818 602.149 162.116 601.271 162.713C600.402 163.301 599.733 164.068 599.264 165.014C598.795 165.96 598.561 166.974 598.561 168.057V169.795C598.561 171.278 598.817 172.536 599.328 173.567C599.848 174.589 600.568 175.369 601.489 175.906C602.409 176.435 603.479 176.699 604.697 176.699C605.49 176.699 606.206 176.588 606.845 176.366C607.493 176.136 608.051 175.795 608.52 175.344C608.989 174.884 609.351 174.312 609.607 173.631L612.521 174.449C612.214 175.438 611.699 176.307 610.974 177.057C610.25 177.798 609.355 178.378 608.29 178.795C607.224 179.205 606.027 179.409 604.697 179.409ZM635.469 186.773C634.011 186.773 632.759 186.585 631.71 186.21C630.662 185.844 629.788 185.358 629.089 184.753C628.399 184.156 627.849 183.517 627.44 182.835L629.844 181.148C630.116 181.506 630.462 181.915 630.879 182.375C631.297 182.844 631.868 183.249 632.592 183.589C633.325 183.939 634.284 184.114 635.469 184.114C637.054 184.114 638.362 183.73 639.393 182.963C640.425 182.196 640.94 180.994 640.94 179.358V175.369H640.685C640.463 175.727 640.148 176.17 639.739 176.699C639.338 177.219 638.759 177.683 638 178.092C637.25 178.493 636.236 178.693 634.957 178.693C633.372 178.693 631.949 178.318 630.688 177.568C629.435 176.818 628.442 175.727 627.709 174.295C626.984 172.864 626.622 171.125 626.622 169.08C626.622 167.068 626.976 165.317 627.683 163.825C628.391 162.325 629.375 161.166 630.636 160.348C631.898 159.521 633.355 159.108 635.009 159.108C636.287 159.108 637.301 159.321 638.051 159.747C638.81 160.165 639.389 160.642 639.79 161.179C640.199 161.707 640.514 162.142 640.736 162.483H641.043V159.364H643.957V179.562C643.957 181.25 643.574 182.622 642.807 183.679C642.048 184.744 641.026 185.524 639.739 186.018C638.46 186.521 637.037 186.773 635.469 186.773ZM635.366 175.983C636.577 175.983 637.599 175.706 638.435 175.152C639.27 174.598 639.905 173.801 640.339 172.761C640.774 171.722 640.991 170.477 640.991 169.028C640.991 167.614 640.778 166.365 640.352 165.283C639.926 164.2 639.295 163.352 638.46 162.739C637.625 162.125 636.594 161.818 635.366 161.818C634.088 161.818 633.023 162.142 632.17 162.79C631.327 163.437 630.692 164.307 630.266 165.398C629.848 166.489 629.639 167.699 629.639 169.028C629.639 170.392 629.852 171.598 630.278 172.646C630.713 173.686 631.352 174.504 632.196 175.101C633.048 175.689 634.105 175.983 635.366 175.983ZM661.855 170.972V159.364H664.872V179H661.855V175.676H661.651C661.19 176.673 660.474 177.521 659.503 178.22C658.531 178.911 657.304 179.256 655.821 179.256C654.594 179.256 653.503 178.987 652.548 178.45C651.594 177.905 650.844 177.087 650.298 175.996C649.753 174.896 649.48 173.511 649.48 171.841V159.364H652.497V171.636C652.497 173.068 652.898 174.21 653.699 175.062C654.509 175.915 655.54 176.341 656.793 176.341C657.543 176.341 658.305 176.149 659.081 175.766C659.865 175.382 660.521 174.794 661.05 174.001C661.587 173.209 661.855 172.199 661.855 170.972ZM678.938 159.364V161.92H668.762V159.364H678.938ZM671.728 154.659H674.745V173.375C674.745 174.227 674.868 174.866 675.115 175.293C675.371 175.71 675.695 175.991 676.087 176.136C676.488 176.273 676.909 176.341 677.353 176.341C677.685 176.341 677.958 176.324 678.171 176.29C678.384 176.247 678.554 176.213 678.682 176.188L679.296 178.898C679.091 178.974 678.806 179.051 678.439 179.128C678.073 179.213 677.608 179.256 677.046 179.256C676.194 179.256 675.358 179.072 674.54 178.706C673.73 178.339 673.057 177.781 672.52 177.031C671.992 176.281 671.728 175.335 671.728 174.193V154.659ZM691.498 179.409C689.606 179.409 687.974 178.991 686.602 178.156C685.238 177.312 684.186 176.136 683.444 174.628C682.711 173.111 682.345 171.347 682.345 169.335C682.345 167.324 682.711 165.551 683.444 164.017C684.186 162.474 685.217 161.273 686.538 160.412C687.868 159.543 689.419 159.108 691.191 159.108C692.214 159.108 693.224 159.278 694.221 159.619C695.218 159.96 696.126 160.514 696.944 161.281C697.762 162.04 698.414 163.045 698.9 164.298C699.386 165.551 699.629 167.094 699.629 168.926V170.205H684.493V167.597H696.561C696.561 166.489 696.339 165.5 695.896 164.631C695.461 163.761 694.839 163.075 694.029 162.572C693.228 162.07 692.282 161.818 691.191 161.818C689.99 161.818 688.95 162.116 688.072 162.713C687.203 163.301 686.534 164.068 686.065 165.014C685.596 165.96 685.362 166.974 685.362 168.057V169.795C685.362 171.278 685.618 172.536 686.129 173.567C686.649 174.589 687.369 175.369 688.289 175.906C689.21 176.435 690.279 176.699 691.498 176.699C692.291 176.699 693.007 176.588 693.646 176.366C694.294 176.136 694.852 175.795 695.321 175.344C695.789 174.884 696.152 174.312 696.407 173.631L699.322 174.449C699.015 175.438 698.5 176.307 697.775 177.057C697.051 177.798 696.156 178.378 695.091 178.795C694.025 179.205 692.828 179.409 691.498 179.409ZM714.752 179V152.818H730.554V155.631H717.923V164.477H729.735V167.29H717.923V176.188H730.758V179H714.752ZM738.876 167.188V179H735.859V159.364H738.774V162.432H739.029C739.49 161.435 740.189 160.634 741.126 160.028C742.064 159.415 743.274 159.108 744.757 159.108C746.086 159.108 747.25 159.381 748.247 159.926C749.244 160.463 750.02 161.281 750.574 162.381C751.127 163.472 751.404 164.852 751.404 166.523V179H748.387V166.727C748.387 165.185 747.987 163.983 747.186 163.122C746.385 162.253 745.285 161.818 743.887 161.818C742.924 161.818 742.064 162.027 741.305 162.445C740.555 162.862 739.963 163.472 739.528 164.273C739.093 165.074 738.876 166.045 738.876 167.188ZM765.457 159.364V161.92H755.281V159.364H765.457ZM758.247 154.659H761.264V173.375C761.264 174.227 761.388 174.866 761.635 175.293C761.891 175.71 762.214 175.991 762.607 176.136C763.007 176.273 763.429 176.341 763.872 176.341C764.205 176.341 764.477 176.324 764.69 176.29C764.903 176.247 765.074 176.213 765.202 176.188L765.815 178.898C765.611 178.974 765.325 179.051 764.959 179.128C764.592 179.213 764.128 179.256 763.565 179.256C762.713 179.256 761.878 179.072 761.06 178.706C760.25 178.339 759.577 177.781 759.04 177.031C758.511 176.281 758.247 175.335 758.247 174.193V154.659ZM783.553 163.761L780.843 164.528C780.673 164.077 780.421 163.638 780.089 163.212C779.765 162.777 779.322 162.419 778.759 162.138C778.197 161.857 777.477 161.716 776.599 161.716C775.397 161.716 774.396 161.993 773.594 162.547C772.802 163.092 772.406 163.787 772.406 164.631C772.406 165.381 772.678 165.973 773.224 166.408C773.769 166.842 774.621 167.205 775.781 167.494L778.695 168.21C780.451 168.636 781.759 169.288 782.62 170.166C783.481 171.036 783.911 172.156 783.911 173.528C783.911 174.653 783.587 175.659 782.94 176.545C782.3 177.432 781.406 178.131 780.255 178.642C779.104 179.153 777.766 179.409 776.241 179.409C774.238 179.409 772.58 178.974 771.268 178.105C769.955 177.236 769.124 175.966 768.775 174.295L771.638 173.58C771.911 174.636 772.427 175.429 773.185 175.957C773.952 176.486 774.954 176.75 776.19 176.75C777.596 176.75 778.712 176.452 779.539 175.855C780.374 175.25 780.792 174.526 780.792 173.682C780.792 173 780.553 172.429 780.076 171.969C779.599 171.5 778.866 171.151 777.877 170.92L774.604 170.153C772.806 169.727 771.485 169.067 770.641 168.172C769.806 167.268 769.388 166.139 769.388 164.784C769.388 163.676 769.7 162.696 770.322 161.844C770.952 160.991 771.809 160.322 772.891 159.837C773.982 159.351 775.218 159.108 776.599 159.108C778.542 159.108 780.067 159.534 781.175 160.386C782.292 161.239 783.085 162.364 783.553 163.761ZM796.43 179.409C794.589 179.409 793.004 178.974 791.674 178.105C790.345 177.236 789.322 176.038 788.606 174.513C787.89 172.987 787.532 171.244 787.532 169.284C787.532 167.29 787.899 165.53 788.632 164.004C789.373 162.47 790.404 161.273 791.725 160.412C793.055 159.543 794.606 159.108 796.379 159.108C797.76 159.108 799.004 159.364 800.112 159.875C801.22 160.386 802.127 161.102 802.835 162.023C803.542 162.943 803.981 164.017 804.152 165.244H801.135C800.904 164.349 800.393 163.557 799.6 162.866C798.816 162.168 797.76 161.818 796.43 161.818C795.254 161.818 794.223 162.125 793.336 162.739C792.458 163.344 791.772 164.2 791.278 165.308C790.792 166.408 790.549 167.699 790.549 169.182C790.549 170.699 790.788 172.02 791.265 173.145C791.751 174.27 792.433 175.143 793.311 175.766C794.197 176.388 795.237 176.699 796.43 176.699C797.214 176.699 797.926 176.562 798.565 176.29C799.204 176.017 799.745 175.625 800.189 175.114C800.632 174.602 800.947 173.989 801.135 173.273H804.152C803.981 174.432 803.559 175.476 802.886 176.405C802.221 177.325 801.339 178.058 800.24 178.604C799.149 179.141 797.879 179.409 796.43 179.409ZM811.579 167.188V179H808.562V152.818H811.579V162.432H811.835C812.295 161.418 812.985 160.612 813.906 160.016C814.835 159.411 816.071 159.108 817.613 159.108C818.951 159.108 820.123 159.376 821.129 159.913C822.135 160.442 822.914 161.256 823.468 162.355C824.031 163.446 824.312 164.835 824.312 166.523V179H821.295V166.727C821.295 165.168 820.89 163.962 820.081 163.109C819.279 162.249 818.167 161.818 816.744 161.818C815.755 161.818 814.869 162.027 814.085 162.445C813.309 162.862 812.696 163.472 812.244 164.273C811.801 165.074 811.579 166.045 811.579 167.188ZM838.065 179.409C836.173 179.409 834.54 178.991 833.168 178.156C831.805 177.312 830.752 176.136 830.011 174.628C829.278 173.111 828.911 171.347 828.911 169.335C828.911 167.324 829.278 165.551 830.011 164.017C830.752 162.474 831.783 161.273 833.104 160.412C834.434 159.543 835.985 159.108 837.758 159.108C838.781 159.108 839.79 159.278 840.788 159.619C841.785 159.96 842.692 160.514 843.511 161.281C844.329 162.04 844.981 163.045 845.467 164.298C845.952 165.551 846.195 167.094 846.195 168.926V170.205H831.059V167.597H843.127C843.127 166.489 842.906 165.5 842.462 164.631C842.028 163.761 841.406 163.075 840.596 162.572C839.795 162.07 838.849 161.818 837.758 161.818C836.556 161.818 835.516 162.116 834.638 162.713C833.769 163.301 833.1 164.068 832.631 165.014C832.163 165.96 831.928 166.974 831.928 168.057V169.795C831.928 171.278 832.184 172.536 832.695 173.567C833.215 174.589 833.935 175.369 834.856 175.906C835.776 176.435 836.846 176.699 838.065 176.699C838.857 176.699 839.573 176.588 840.212 176.366C840.86 176.136 841.418 175.795 841.887 175.344C842.356 174.884 842.718 174.312 842.974 173.631L845.888 174.449C845.582 175.438 845.066 176.307 844.342 177.057C843.617 177.798 842.722 178.378 841.657 178.795C840.592 179.205 839.394 179.409 838.065 179.409ZM850.785 179V159.364H853.802V179H850.785ZM852.319 156.091C851.731 156.091 851.224 155.891 850.798 155.49C850.38 155.089 850.171 154.608 850.171 154.045C850.171 153.483 850.38 153.001 850.798 152.601C851.224 152.2 851.731 152 852.319 152C852.907 152 853.41 152.2 853.827 152.601C854.254 153.001 854.467 153.483 854.467 154.045C854.467 154.608 854.254 155.089 853.827 155.49C853.41 155.891 852.907 156.091 852.319 156.091ZM866.743 179.409C865.106 179.409 863.662 178.996 862.409 178.169C861.156 177.334 860.176 176.158 859.468 174.641C858.761 173.115 858.407 171.312 858.407 169.233C858.407 167.17 858.761 165.381 859.468 163.864C860.176 162.347 861.16 161.175 862.422 160.348C863.683 159.521 865.14 159.108 866.794 159.108C868.072 159.108 869.082 159.321 869.824 159.747C870.574 160.165 871.145 160.642 871.537 161.179C871.937 161.707 872.248 162.142 872.47 162.483H872.725V152.818H875.743V179H872.828V175.983H872.47C872.248 176.341 871.933 176.793 871.524 177.338C871.115 177.875 870.531 178.357 869.772 178.783C869.014 179.2 868.004 179.409 866.743 179.409ZM867.152 176.699C868.362 176.699 869.385 176.384 870.22 175.753C871.055 175.114 871.69 174.232 872.125 173.107C872.559 171.973 872.777 170.665 872.777 169.182C872.777 167.716 872.564 166.433 872.137 165.334C871.711 164.226 871.081 163.365 870.245 162.751C869.41 162.129 868.379 161.818 867.152 161.818C865.873 161.818 864.808 162.146 863.956 162.803C863.112 163.45 862.477 164.332 862.051 165.449C861.633 166.557 861.424 167.801 861.424 169.182C861.424 170.58 861.637 171.849 862.064 172.991C862.498 174.125 863.137 175.028 863.981 175.702C864.833 176.366 865.89 176.699 867.152 176.699ZM894.062 170.972V159.364H897.079V179H894.062V175.676H893.858C893.397 176.673 892.681 177.521 891.71 178.22C890.738 178.911 889.511 179.256 888.028 179.256C886.801 179.256 885.71 178.987 884.755 178.45C883.801 177.905 883.051 177.087 882.505 175.996C881.96 174.896 881.687 173.511 881.687 171.841V159.364H884.704V171.636C884.704 173.068 885.105 174.21 885.906 175.062C886.716 175.915 887.747 176.341 889 176.341C889.75 176.341 890.512 176.149 891.288 175.766C892.072 175.382 892.728 174.794 893.257 174.001C893.794 173.209 894.062 172.199 894.062 170.972ZM905.622 167.188V179H902.605V159.364H905.52V162.432H905.776C906.236 161.435 906.935 160.634 907.872 160.028C908.81 159.415 910.02 159.108 911.503 159.108C912.832 159.108 913.996 159.381 914.993 159.926C915.99 160.463 916.766 161.281 917.32 162.381C917.874 163.472 918.151 164.852 918.151 166.523V179H915.134V166.727C915.134 165.185 914.733 163.983 913.932 163.122C913.131 162.253 912.031 161.818 910.634 161.818C909.67 161.818 908.81 162.027 908.051 162.445C907.301 162.862 906.709 163.472 906.274 164.273C905.839 165.074 905.622 166.045 905.622 167.188ZM931.59 186.773C930.132 186.773 928.88 186.585 927.831 186.21C926.783 185.844 925.909 185.358 925.211 184.753C924.52 184.156 923.971 183.517 923.561 182.835L925.965 181.148C926.238 181.506 926.583 181.915 927 182.375C927.418 182.844 927.989 183.249 928.713 183.589C929.446 183.939 930.405 184.114 931.59 184.114C933.175 184.114 934.483 183.73 935.515 182.963C936.546 182.196 937.061 180.994 937.061 179.358V175.369H936.806C936.584 175.727 936.269 176.17 935.86 176.699C935.459 177.219 934.88 177.683 934.121 178.092C933.371 178.493 932.357 178.693 931.078 178.693C929.493 178.693 928.07 178.318 926.809 177.568C925.556 176.818 924.563 175.727 923.83 174.295C923.105 172.864 922.743 171.125 922.743 169.08C922.743 167.068 923.097 165.317 923.804 163.825C924.512 162.325 925.496 161.166 926.757 160.348C928.019 159.521 929.476 159.108 931.13 159.108C932.408 159.108 933.422 159.321 934.172 159.747C934.931 160.165 935.51 160.642 935.911 161.179C936.32 161.707 936.635 162.142 936.857 162.483H937.164V159.364H940.078V179.562C940.078 181.25 939.695 182.622 938.928 183.679C938.169 184.744 937.147 185.524 935.86 186.018C934.581 186.521 933.158 186.773 931.59 186.773ZM931.488 175.983C932.698 175.983 933.721 175.706 934.556 175.152C935.391 174.598 936.026 173.801 936.461 172.761C936.895 171.722 937.113 170.477 937.113 169.028C937.113 167.614 936.9 166.365 936.473 165.283C936.047 164.2 935.417 163.352 934.581 162.739C933.746 162.125 932.715 161.818 931.488 161.818C930.209 161.818 929.144 162.142 928.292 162.79C927.448 163.437 926.813 164.307 926.387 165.398C925.969 166.489 925.76 167.699 925.76 169.028C925.76 170.392 925.973 171.598 926.4 172.646C926.834 173.686 927.473 174.504 928.317 175.101C929.169 175.689 930.226 175.983 931.488 175.983ZM947.8 179.205C947.169 179.205 946.628 178.979 946.176 178.527C945.725 178.075 945.499 177.534 945.499 176.903C945.499 176.273 945.725 175.732 946.176 175.28C946.628 174.828 947.169 174.602 947.8 174.602C948.431 174.602 948.972 174.828 949.424 175.28C949.875 175.732 950.101 176.273 950.101 176.903C950.101 177.321 949.995 177.705 949.782 178.054C949.577 178.403 949.3 178.685 948.951 178.898C948.61 179.102 948.226 179.205 947.8 179.205Z" fill="black"/>
<path d="M332.114 717.425C336.146 718.265 340.97 720.113 341.444 724.483C341.998 729.357 336.383 732.214 331.876 733.223C314.874 737.172 297.318 737.676 279.842 738.181C187.479 740.533 95.115 740.954 2.74977 739.357C4.09374 727.341 17.5396 722.13 28.6894 719.861C76.6111 710.114 126.193 715.66 173.244 705.324C222.827 694.316 283.164 706.753 332.114 717.425Z" fill="url(#paint0_linear_808_3491)"/>
<path d="M332.114 717.425C336.146 718.265 340.97 720.113 341.444 724.483C341.998 729.357 336.383 732.214 331.876 733.223C314.874 737.172 297.318 737.676 279.842 738.181C187.479 740.533 95.115 740.954 2.74977 739.357C4.09374 727.341 17.5396 722.13 28.6894 719.861C76.6111 710.114 126.193 715.66 173.244 705.324C222.827 694.316 283.164 706.753 332.114 717.425Z" fill="url(#paint1_linear_808_3491)"/>
<path d="M80.5703 638.264C79.5423 637.928 78.435 638.264 77.407 638.601C72.8993 640.197 68.4708 642.298 64.5172 645.071C62.5399 646.416 60.5631 647.928 59.6143 650.197C58.7442 652.298 58.8234 654.651 58.9814 656.836C60.4051 683.894 61.7495 711.036 63.1727 738.095C63.2519 739.859 63.4892 741.793 64.7544 742.885C66.336 744.145 68.55 743.305 70.2896 742.465C87.2916 734.565 104.214 726.582 121.216 718.683C129.361 714.902 137.744 710.868 143.754 703.893C139.167 693.137 129.519 685.995 120.663 678.768C106.903 667.507 94.2505 654.567 83.1003 640.449C82.4674 639.609 81.6771 638.6 80.5703 638.264Z" fill="#DDC199"/>
<path d="M0.46262 498.855C4.65487 497.847 8.92729 496.838 13.1167 495.83C37.7892 543.98 59.6148 593.812 78.4355 644.904C74.0863 647.845 68.3138 650.87 64.1225 647.677C62.3829 646.332 61.3544 644.147 60.4056 642.047C39.0544 594.988 19.0476 547.258 0.46262 498.855Z" fill="#BDB39B"/>
<g opacity="0.26">
<path opacity="0.26" d="M78.2095 733.137C78.2887 734.062 76.9443 734.398 76.7864 733.474C73.3859 706.163 68.5627 679.357 62.3153 652.634C61.9201 650.954 64.3714 650.449 64.7665 652.13C71.2511 678.6 75.7583 705.827 78.2095 733.137Z" fill="#272525"/>
<path opacity="0.26" d="M105.004 721.121C94.5663 697.76 83.4953 674.735 71.7914 652.046C71.0798 650.701 73.1359 649.609 73.8475 650.954C86.0258 673.811 97.0175 697.34 107.061 721.289C106.903 721.457 106.824 721.625 106.745 721.793C106.191 721.373 105.637 721.205 105.004 721.121Z" fill="#272525"/>
<path opacity="0.26" d="M122.018 705.743C104.542 688.264 88.9631 668.853 75.3617 647.844C74.4916 646.416 76.7061 645.239 77.5762 646.668C90.9404 667.592 106.281 686.92 123.441 704.398C124.311 705.322 122.888 706.667 122.018 705.743Z" fill="#272525"/>
</g>
<path d="M243.236 662.213C243.156 660.953 242.998 659.608 242.92 658.347C253.358 650.784 271.704 653.221 282.775 657.087C294.637 661.204 294.637 668.935 294.479 682.044C294.4 689.439 293.767 697.759 288.39 702.548C284.278 706.246 278.505 706.75 273.127 707.086C268.304 707.422 263.559 707.674 258.735 708.01C255.414 708.178 251.697 708.263 249.088 705.993C246.478 703.641 246.083 699.691 245.766 696.077C244.897 684.733 244.026 673.473 243.236 662.213Z" fill="#2F3F47"/>
<path d="M230.494 662.213C230.573 660.953 230.731 659.608 230.811 658.347C220.372 650.784 202.026 653.221 190.955 657.087C179.093 661.204 179.093 668.935 179.251 682.044C179.33 689.439 179.963 697.759 185.341 702.548C189.453 706.246 195.225 706.75 200.603 707.086C205.426 707.422 210.171 707.674 214.995 708.01C218.316 708.178 222.033 708.263 224.642 705.993C227.252 703.641 227.647 699.691 227.963 696.077C228.754 684.733 229.624 673.473 230.494 662.213Z" fill="#2F3F47"/>
<path d="M319.553 634.148C322.163 634.735 324.693 635.576 327.145 636.668C328.964 637.424 330.782 638.433 332.048 639.945C333.787 642.13 334.262 645.156 334.578 648.097C334.973 651.963 335.132 655.828 335.052 659.693C335.052 662.97 334.815 666.332 333.233 669.105C331.019 672.971 326.67 674.735 322.558 675.827C314.729 677.929 306.584 678.432 298.518 678.853C249.727 681.374 200.777 679.692 152.223 673.895C150.246 673.643 148.032 673.307 146.688 671.71C145.897 670.786 145.501 669.525 145.106 668.348C142.576 659.777 140.915 648.097 146.371 640.114C151.036 633.307 159.656 637.172 166.14 637.088C172.783 637.004 179.505 636.416 186.148 636.164C199.117 635.576 212.085 634.987 225.054 634.567C243.321 633.895 261.667 633.307 279.935 632.803C292.271 632.551 306.821 631.122 319.553 634.148Z" fill="#516770"/>
<path d="M214.691 449.695C181.557 449.863 148.502 450.62 115.368 451.376C116.159 432.637 117.424 413.897 121.22 395.578C127.784 363.478 142.808 332.134 168.193 313.395C207.099 284.656 268.859 288.437 310.771 316.84C328.406 328.772 342.56 345.159 349.994 365.242C358.534 388.183 360.828 413.225 362.172 437.847C362.331 441.124 362.489 444.317 362.646 447.594C313.46 445.577 263.957 449.527 214.691 449.695Z" fill="#EAF1F2"/>
<path d="M217.343 459.108C265.897 459.024 314.61 455.327 363.164 457.175C365.536 513.141 363.322 569.359 356.521 624.989C355.572 632.636 354.386 640.618 349.641 646.668C342.287 655.996 329.555 651.878 319.67 651.878C302.985 651.878 285.825 652.635 268.981 653.055C237.191 653.811 205.639 653.895 174.008 650.114C158.983 648.35 128.617 653.223 121.421 638.853C115.49 627.173 117.941 603.476 117.071 590.451C116.043 574.989 115.252 559.611 114.778 544.149C113.908 516.334 114.066 488.519 115.095 460.62C149.098 459.948 183.26 459.108 217.343 459.108Z" fill="#E2ECED"/>
<path d="M102.671 549.696C102.038 549.107 101.959 548.099 101.88 547.259C100.22 523.982 98.7963 500.704 97.7683 477.427C97.6891 475.41 97.6891 473.058 99.1915 471.713C100.299 470.789 101.722 470.705 103.146 470.705C108.049 470.621 112.872 470.537 117.775 470.537C120.859 497.007 122.124 523.645 121.492 550.284C116.035 550.284 110.658 550.368 105.202 550.368C104.332 550.368 103.383 550.368 102.671 549.696Z" fill="#2F3F47"/>
<path d="M77.4635 603.31C76.8312 601.378 76.1191 599.361 74.6959 597.932C73.5886 596.84 72.0867 596.167 70.6631 595.663C64.4949 593.31 58.1688 591.546 51.763 590.369C46.7814 593.983 42.2737 598.269 38.3988 603.226C37.6872 604.151 36.9756 605.159 36.8172 606.336C36.6592 607.26 36.8964 608.184 37.1336 609.109C39.664 619.445 42.1157 629.781 44.6461 640.117C48.3626 640.621 52.0795 640.705 55.7171 640.201C54.294 633.898 52.8703 627.596 51.5258 621.377C50.1814 615.411 49.1534 608.1 53.4235 603.899C57.7727 605.075 62.0432 606.336 66.3925 607.512C67.1041 607.68 67.8954 607.932 68.5278 608.436C69.2394 609.109 69.5558 610.117 69.8722 611.041C71.6911 616.924 73.0355 622.974 73.9843 629.109C76.7519 628.268 79.5196 627.511 82.2872 626.671C82.5249 618.688 79.9945 610.874 77.4635 603.31Z" fill="#2F3F47"/>
<path d="M43.8579 594.233C43.6207 593.981 43.5419 593.646 43.4627 593.393C42.6719 589.612 41.8811 585.83 41.011 582.133C46.5468 580.788 52.24 579.863 57.8545 579.359C58.7246 582.469 59.2782 585.746 59.5154 589.023C59.5946 589.696 59.5946 590.536 59.1202 591.04C58.8038 591.376 58.4082 591.46 58.013 591.629C53.8217 592.973 49.4724 593.981 45.0439 594.569C44.7275 594.485 44.2535 594.57 43.8579 594.233Z" fill="#516770"/>
<path d="M38.3131 579.529C34.9919 573.562 37.6803 557.848 37.6803 551.546C37.7595 542.89 37.7595 534.151 39.6575 525.748C41.5551 517.344 45.4305 509.109 51.8358 503.815C55.4735 500.79 59.7435 498.858 64.172 497.261C77.3783 492.471 91.5329 490.875 105.372 492.639C106.479 492.807 107.665 492.975 108.456 493.816C109.326 494.656 109.484 496 109.642 497.261C110.275 502.051 111.144 507.345 110.907 512.218C110.512 520.79 112.172 518.437 106.32 520.874C101.813 522.723 93.3518 521.21 88.2117 522.471C82.2015 523.899 76.3498 526.084 70.4981 528.269C66.7817 529.613 62.8276 531.294 60.9295 534.907C59.9015 536.84 59.5851 539.193 59.3479 541.462C57.9247 554.908 57.2918 568.436 57.3711 581.966C57.3711 584.318 41.0812 583.142 38.946 580.537C38.7088 580.201 38.5503 579.865 38.3131 579.529Z" fill="#E2ECED"/>
<g opacity="0.15">
<path opacity="0.15" d="M65.9978 501.129C66.4722 509.196 68.449 516.507 71.4538 523.902C72.0075 525.33 70.3471 526.423 69.477 525.162C64.7326 518.104 62.2809 509.7 61.4109 501.129C61.0944 498.104 65.7601 498.019 65.9978 501.129Z" fill="#272525"/>
<path opacity="0.15" d="M53.8958 506.927C55.2398 514.743 58.5611 519.869 63.7804 525.415C64.492 526.171 63.5436 527.431 62.7528 526.843C59.1944 524.49 55.8731 522.978 53.3427 519.197C50.9702 515.667 49.3885 511.885 48.9142 507.6C48.5977 504.659 53.3422 503.986 53.8958 506.927Z" fill="#272525"/>
</g>
<path d="M370.926 471.209C371.559 471.797 371.637 472.806 371.717 473.646C373.377 496.923 374.801 520.2 375.829 543.477C375.908 545.494 375.908 547.847 374.405 549.191C373.298 550.116 371.875 550.2 370.452 550.2C365.549 550.284 360.725 550.368 355.822 550.368C352.738 523.898 351.473 497.259 352.105 470.621C357.562 470.621 362.939 470.537 368.395 470.537C369.265 470.537 370.293 470.537 370.926 471.209Z" fill="#2F3F47"/>
<path d="M432.221 442.555C431.984 444.572 431.747 446.756 432.459 448.605C433.012 450.117 434.04 451.378 435.147 452.555C439.655 457.512 444.557 462.135 449.856 466.252C455.866 465.412 461.717 463.647 467.174 461.042C468.202 460.538 469.309 460.034 469.942 459.025C470.416 458.269 470.653 457.344 470.812 456.42C472.868 446 475.003 435.496 477.059 425.076C473.975 422.891 470.653 421.042 467.174 419.697C465.829 426 464.406 432.302 463.062 438.605C461.718 444.571 459.582 451.63 454.047 453.311C450.647 450.202 447.325 447.092 443.925 443.983C443.371 443.479 442.739 442.891 442.422 442.135C442.027 441.21 442.185 440.117 442.344 439.109C443.213 432.975 444.479 426.924 446.218 420.958C443.371 420.37 440.604 419.782 437.757 419.193C434.119 426.336 433.17 434.571 432.221 442.555Z" fill="#2F3F47"/>
<path d="M458.492 466.502C458.571 466.838 458.492 467.175 458.492 467.427C457.622 471.208 456.752 474.906 455.962 478.687C450.426 477.258 444.97 475.41 439.672 473.225C440.146 470.031 441.016 466.838 442.202 463.813C442.439 463.141 442.755 462.468 443.388 462.216C443.783 462.048 444.179 462.132 444.653 462.216C449.003 462.973 453.273 464.149 457.464 465.662C457.86 465.83 458.334 466.082 458.492 466.502Z" fill="#516770"/>
<path d="M457.286 482.303C457.84 489.193 448.825 501.966 446.136 507.68C442.499 515.412 438.782 523.227 433.563 529.865C428.343 536.504 421.464 542.05 413.477 543.73C408.969 544.739 404.304 544.487 399.717 543.815C385.878 541.882 372.514 536.672 360.89 528.521C359.941 527.848 358.992 527.176 358.596 526C358.201 524.823 358.596 523.563 358.913 522.302C360.415 517.681 361.76 512.555 364.053 508.269C368.007 500.79 365.476 502.134 371.803 502.638C376.626 503.059 383.585 508.437 388.725 509.782C394.735 511.378 400.903 512.134 406.992 512.975C410.867 513.479 415.137 513.899 418.38 511.546C420.12 510.286 421.385 508.353 422.492 506.42C429.372 495.075 435.619 483.227 441.233 471.043C442.182 468.942 456.258 477.681 457.128 481.042C457.207 481.546 457.286 481.883 457.286 482.303Z" fill="#E2ECED"/>
<g opacity="0.15">
<path opacity="0.15" d="M399.812 539.442C402.739 531.963 404.003 524.484 404.478 516.417C404.557 514.821 406.534 514.653 406.771 516.25C408.037 524.821 406.771 533.476 403.924 541.543C402.896 544.484 398.626 542.299 399.812 539.442Z" fill="#272525"/>
<path opacity="0.15" d="M413.004 540.032C415.06 532.385 414.269 526.251 411.897 518.772C411.58 517.764 412.925 517.091 413.478 517.931C415.613 521.713 417.986 524.654 418.697 529.192C419.33 533.477 419.172 537.595 417.748 541.628C416.799 544.569 412.292 542.889 413.004 540.032Z" fill="#272525"/>
</g>
<path d="M340.565 394.739C340.487 397.932 340.329 401.209 339.063 404.151C335.821 411.461 327.281 413.814 319.768 415.159C276.829 422.805 232.94 425.411 189.763 419.612C184.07 418.856 178.376 417.932 173.157 415.411C167.937 412.89 163.272 408.604 161.374 402.974C160.188 399.36 160.109 395.495 160.03 391.63C159.951 387.764 159.951 383.815 159.872 379.949C159.872 378.185 159.872 376.42 160.504 374.739C161.216 372.974 162.639 371.546 164.142 370.453C169.835 366.336 177.031 365.411 183.911 364.655C229.618 359.781 275.879 355.496 321.349 362.05C323.247 362.302 325.225 362.638 326.569 364.067C327.281 364.739 327.755 365.664 328.467 366.336C329.811 367.428 331.63 367.344 333.211 367.932C337.64 369.445 339.221 375.244 339.775 380.202C340.407 384.991 340.645 389.865 340.565 394.739Z" fill="#2F3F47"/>
<path opacity="0.2" d="M283.322 401.797C281.819 398.856 281.582 395.411 281.898 392.05C282.056 390.033 282.531 387.933 283.717 386.42C286.248 383.227 290.913 383.563 294.788 382.807C298.188 384.319 301.036 387.26 302.459 390.874C303.329 393.058 303.724 395.411 303.487 397.764C302.933 402.554 299.216 406.672 294.788 407.512C290.281 408.521 285.456 406.083 283.322 401.797Z" fill="#EAF1F2"/>
<path opacity="0.2" d="M208.017 401.797C206.515 398.856 206.277 395.411 206.594 392.05C206.752 390.033 207.226 387.933 208.413 386.42C210.943 383.227 215.608 383.563 219.483 382.807C222.884 384.319 225.731 387.26 227.154 390.874C228.024 393.058 228.419 395.411 228.182 397.764C227.629 402.554 223.912 406.672 219.483 407.512C215.055 408.521 210.232 406.083 208.017 401.797Z" fill="#EAF1F2"/>
<defs>
<linearGradient id="paint0_linear_808_3491" x1="341.43" y1="720.659" x2="2.66016" y2="720.659" gradientUnits="userSpaceOnUse">
<stop stop-color="#4D4D4D"/>
<stop offset="1"/>
</linearGradient>
<linearGradient id="paint1_linear_808_3491" x1="341.43" y1="720.659" x2="2.66016" y2="720.659" gradientUnits="userSpaceOnUse">
<stop/>
<stop offset="1"/>
</linearGradient>
</defs>
</svg>
