<svg width="1651" height="908" viewBox="0 0 1651 908" fill="none" xmlns="http://www.w3.org/2000/svg">
<path d="M1081.92 682C1082.31 682 1082.69 681.99 1083.08 681.971C1087.64 681.76 1092.08 680.153 1096.04 677.286C1100 674.419 1103.36 670.376 1105.83 665.502C1124.32 630.311 1147.01 599.011 1173.09 572.733C1188.87 556.669 1205.37 541.732 1221.32 527.285C1262.47 490.029 1301.23 454.941 1322.74 406.457C1369.65 300.735 1314.41 153.48 1235.5 87.4416C1146.99 13.3755 1030.56 1.75763 917.939 0.2351C906.234 0.0775037 894.522 -0.000821047 882.803 6.48889e-06C679.877 0.099075 477.377 23.6741 277.801 70.4345C211.437 86.0236 141.972 105.121 86.1493 151.466C30.6583 197.537 -3.06962 270.088 0.220768 336.304C5.02494 432.968 85.5061 505.197 158.791 524.08C228.644 542.065 301.209 529.911 378.032 517.04C394.993 514.201 412.528 511.262 429.869 508.709C618.331 480.974 972.369 566.461 987.348 570.115L1002.21 573.737L1059.87 668.207C1062.46 672.513 1065.8 675.999 1069.62 678.391C1073.45 680.784 1077.66 682.019 1081.92 682Z" fill="white"/>
<path d="M1109.42 466.207L1120.95 453.581L1109.42 440.955L1112.97 437.076L1128.07 453.581L1112.97 470.086L1109.42 466.207Z" fill="#FFD037"/>
<path d="M206.227 155V120.091H210.455V135.636H229.068V120.091H233.295V155H229.068V139.386H210.455V155H206.227ZM241.213 155V128.818H245.236V155H241.213ZM243.259 124.455C242.474 124.455 241.798 124.188 241.23 123.653C240.673 123.119 240.395 122.477 240.395 121.727C240.395 120.977 240.673 120.335 241.23 119.801C241.798 119.267 242.474 119 243.259 119C244.043 119 244.713 119.267 245.27 119.801C245.838 120.335 246.122 120.977 246.122 121.727C246.122 122.477 245.838 123.119 245.27 123.653C244.713 124.188 244.043 124.455 243.259 124.455ZM263.581 155.545C261.058 155.545 258.882 154.989 257.053 153.875C255.234 152.75 253.831 151.182 252.842 149.17C251.865 147.148 251.376 144.795 251.376 142.114C251.376 139.432 251.865 137.068 252.842 135.023C253.831 132.966 255.206 131.364 256.967 130.216C258.74 129.057 260.808 128.477 263.172 128.477C264.536 128.477 265.882 128.705 267.212 129.159C268.541 129.614 269.751 130.352 270.842 131.375C271.933 132.386 272.803 133.727 273.45 135.398C274.098 137.068 274.422 139.125 274.422 141.568V143.273H254.24V139.795H270.331C270.331 138.318 270.036 137 269.445 135.841C268.865 134.682 268.036 133.767 266.956 133.097C265.888 132.426 264.626 132.091 263.172 132.091C261.57 132.091 260.183 132.489 259.013 133.284C257.854 134.068 256.962 135.091 256.337 136.352C255.712 137.614 255.399 138.966 255.399 140.409V142.727C255.399 144.705 255.74 146.381 256.422 147.756C257.115 149.119 258.075 150.159 259.303 150.875C260.53 151.58 261.956 151.932 263.581 151.932C264.638 151.932 265.592 151.784 266.445 151.489C267.308 151.182 268.053 150.727 268.678 150.125C269.303 149.511 269.786 148.75 270.126 147.841L274.013 148.932C273.604 150.25 272.916 151.409 271.95 152.409C270.984 153.398 269.791 154.17 268.371 154.727C266.95 155.273 265.354 155.545 263.581 155.545ZM280.541 155V128.818H284.428V132.773H284.7C285.178 131.477 286.041 130.426 287.291 129.619C288.541 128.812 289.95 128.409 291.518 128.409C291.814 128.409 292.183 128.415 292.626 128.426C293.07 128.437 293.405 128.455 293.632 128.477V132.568C293.496 132.534 293.183 132.483 292.695 132.415C292.217 132.335 291.712 132.295 291.178 132.295C289.905 132.295 288.768 132.562 287.768 133.097C286.78 133.619 285.996 134.347 285.416 135.278C284.848 136.199 284.564 137.25 284.564 138.432V155H280.541ZM315.923 139.25V155H311.901V128.818H315.787V132.909H316.128C316.741 131.58 317.673 130.511 318.923 129.705C320.173 128.886 321.787 128.477 323.764 128.477C325.537 128.477 327.088 128.841 328.418 129.568C329.747 130.284 330.781 131.375 331.52 132.841C332.259 134.295 332.628 136.136 332.628 138.364V155H328.605V138.636C328.605 136.58 328.071 134.977 327.003 133.83C325.935 132.67 324.469 132.091 322.605 132.091C321.321 132.091 320.173 132.369 319.162 132.926C318.162 133.483 317.372 134.295 316.793 135.364C316.213 136.432 315.923 137.727 315.923 139.25ZM350.615 155.545C348.251 155.545 346.178 154.983 344.393 153.858C342.621 152.733 341.234 151.159 340.234 149.136C339.246 147.114 338.751 144.75 338.751 142.045C338.751 139.318 339.246 136.937 340.234 134.903C341.234 132.869 342.621 131.29 344.393 130.165C346.178 129.04 348.251 128.477 350.615 128.477C352.979 128.477 355.047 129.04 356.82 130.165C358.604 131.29 359.99 132.869 360.979 134.903C361.979 136.937 362.479 139.318 362.479 142.045C362.479 144.75 361.979 147.114 360.979 149.136C359.99 151.159 358.604 152.733 356.82 153.858C355.047 154.983 352.979 155.545 350.615 155.545ZM350.615 151.932C352.411 151.932 353.888 151.472 355.047 150.551C356.206 149.631 357.064 148.42 357.621 146.92C358.178 145.42 358.456 143.795 358.456 142.045C358.456 140.295 358.178 138.665 357.621 137.153C357.064 135.642 356.206 134.42 355.047 133.489C353.888 132.557 352.411 132.091 350.615 132.091C348.82 132.091 347.342 132.557 346.183 133.489C345.024 134.42 344.166 135.642 343.609 137.153C343.053 138.665 342.774 140.295 342.774 142.045C342.774 143.795 343.053 145.42 343.609 146.92C344.166 148.42 345.024 149.631 346.183 150.551C347.342 151.472 348.82 151.932 350.615 151.932ZM379.256 155.545C376.801 155.545 374.688 154.966 372.915 153.807C371.142 152.648 369.778 151.051 368.824 149.017C367.869 146.983 367.392 144.659 367.392 142.045C367.392 139.386 367.881 137.04 368.858 135.006C369.847 132.96 371.222 131.364 372.983 130.216C374.756 129.057 376.824 128.477 379.188 128.477C381.028 128.477 382.688 128.818 384.165 129.5C385.642 130.182 386.852 131.136 387.795 132.364C388.739 133.591 389.324 135.023 389.551 136.659H385.528C385.222 135.466 384.54 134.409 383.483 133.489C382.438 132.557 381.028 132.091 379.256 132.091C377.688 132.091 376.313 132.5 375.131 133.318C373.96 134.125 373.045 135.267 372.386 136.744C371.739 138.21 371.415 139.932 371.415 141.909C371.415 143.932 371.733 145.693 372.369 147.193C373.017 148.693 373.926 149.858 375.097 150.688C376.278 151.517 377.665 151.932 379.256 151.932C380.301 151.932 381.25 151.75 382.102 151.386C382.955 151.023 383.676 150.5 384.267 149.818C384.858 149.136 385.278 148.318 385.528 147.364H389.551C389.324 148.909 388.761 150.301 387.864 151.54C386.977 152.767 385.801 153.744 384.335 154.472C382.881 155.188 381.188 155.545 379.256 155.545ZM399.455 139.25V155H395.432V120.091H399.455V132.909H399.795C400.409 131.557 401.33 130.483 402.557 129.688C403.795 128.881 405.443 128.477 407.5 128.477C409.284 128.477 410.847 128.835 412.188 129.551C413.528 130.256 414.568 131.341 415.307 132.807C416.057 134.261 416.432 136.114 416.432 138.364V155H412.409V138.636C412.409 136.557 411.869 134.949 410.79 133.812C409.722 132.665 408.239 132.091 406.341 132.091C405.023 132.091 403.841 132.369 402.795 132.926C401.761 133.483 400.943 134.295 400.341 135.364C399.75 136.432 399.455 137.727 399.455 139.25ZM423.791 155V128.818H427.678V132.909H428.018C428.564 131.511 429.445 130.426 430.661 129.653C431.876 128.869 433.337 128.477 435.041 128.477C436.768 128.477 438.206 128.869 439.354 129.653C440.513 130.426 441.416 131.511 442.064 132.909H442.337C443.007 131.557 444.013 130.483 445.354 129.688C446.695 128.881 448.303 128.477 450.178 128.477C452.518 128.477 454.433 129.21 455.922 130.676C457.411 132.131 458.155 134.398 458.155 137.477V155H454.132V137.477C454.132 135.545 453.604 134.165 452.547 133.335C451.49 132.506 450.246 132.091 448.814 132.091C446.973 132.091 445.547 132.648 444.536 133.761C443.524 134.864 443.018 136.261 443.018 137.955V155H438.928V137.068C438.928 135.58 438.445 134.381 437.479 133.472C436.513 132.551 435.268 132.091 433.746 132.091C432.7 132.091 431.723 132.369 430.814 132.926C429.916 133.483 429.189 134.256 428.632 135.244C428.087 136.222 427.814 137.352 427.814 138.636V155H423.791ZM473.214 155.614C471.555 155.614 470.05 155.301 468.697 154.676C467.345 154.04 466.271 153.125 465.476 151.932C464.68 150.727 464.283 149.273 464.283 147.568C464.283 146.068 464.578 144.852 465.169 143.92C465.76 142.977 466.55 142.239 467.538 141.705C468.527 141.17 469.618 140.773 470.811 140.511C472.016 140.239 473.226 140.023 474.442 139.864C476.033 139.659 477.322 139.506 478.311 139.403C479.311 139.29 480.038 139.102 480.493 138.841C480.959 138.58 481.192 138.125 481.192 137.477V137.341C481.192 135.659 480.732 134.352 479.811 133.42C478.902 132.489 477.521 132.023 475.669 132.023C473.749 132.023 472.243 132.443 471.152 133.284C470.061 134.125 469.294 135.023 468.851 135.977L465.033 134.614C465.714 133.023 466.624 131.784 467.76 130.898C468.908 130 470.158 129.375 471.51 129.023C472.874 128.659 474.214 128.477 475.533 128.477C476.374 128.477 477.339 128.58 478.43 128.784C479.533 128.977 480.595 129.381 481.618 129.994C482.652 130.608 483.51 131.534 484.192 132.773C484.874 134.011 485.214 135.67 485.214 137.75V155H481.192V151.455H480.987C480.714 152.023 480.26 152.631 479.624 153.278C478.987 153.926 478.141 154.477 477.084 154.932C476.027 155.386 474.737 155.614 473.214 155.614ZM473.828 152C475.419 152 476.76 151.688 477.851 151.062C478.953 150.438 479.783 149.631 480.339 148.642C480.908 147.653 481.192 146.614 481.192 145.523V141.841C481.021 142.045 480.646 142.233 480.067 142.403C479.499 142.562 478.839 142.705 478.089 142.83C477.351 142.943 476.629 143.045 475.925 143.136C475.232 143.216 474.669 143.284 474.237 143.341C473.192 143.477 472.214 143.699 471.305 144.006C470.408 144.301 469.68 144.75 469.124 145.352C468.578 145.943 468.305 146.75 468.305 147.773C468.305 149.17 468.822 150.227 469.857 150.943C470.902 151.648 472.226 152 473.828 152ZM496.58 120.091V155H492.557V120.091H496.58ZM527.334 155.545C525.152 155.545 523.226 154.994 521.555 153.892C519.885 152.778 518.578 151.21 517.635 149.188C516.692 147.153 516.22 144.75 516.22 141.977C516.22 139.227 516.692 136.841 517.635 134.818C518.578 132.795 519.891 131.233 521.572 130.131C523.254 129.028 525.197 128.477 527.402 128.477C529.107 128.477 530.453 128.761 531.442 129.33C532.442 129.886 533.203 130.523 533.726 131.239C534.26 131.943 534.675 132.523 534.97 132.977H535.311V120.091H539.334V155H535.447V150.977H534.97C534.675 151.455 534.254 152.057 533.709 152.784C533.163 153.5 532.385 154.142 531.374 154.71C530.362 155.267 529.016 155.545 527.334 155.545ZM527.879 151.932C529.493 151.932 530.857 151.511 531.97 150.67C533.084 149.818 533.93 148.642 534.51 147.142C535.089 145.631 535.379 143.886 535.379 141.909C535.379 139.955 535.095 138.244 534.527 136.778C533.959 135.301 533.118 134.153 532.004 133.335C530.891 132.506 529.516 132.091 527.879 132.091C526.175 132.091 524.754 132.528 523.618 133.403C522.493 134.267 521.646 135.443 521.078 136.932C520.521 138.409 520.243 140.068 520.243 141.909C520.243 143.773 520.527 145.466 521.095 146.989C521.675 148.5 522.527 149.705 523.652 150.602C524.788 151.489 526.197 151.932 527.879 151.932ZM547.26 155V128.818H551.283V155H547.26ZM549.305 124.455C548.521 124.455 547.845 124.188 547.277 123.653C546.72 123.119 546.442 122.477 546.442 121.727C546.442 120.977 546.72 120.335 547.277 119.801C547.845 119.267 548.521 119 549.305 119C550.089 119 550.76 119.267 551.317 119.801C551.885 120.335 552.169 120.977 552.169 121.727C552.169 122.477 551.885 123.119 551.317 123.653C550.76 124.188 550.089 124.455 549.305 124.455ZM569.628 155.545C567.105 155.545 564.929 154.989 563.099 153.875C561.281 152.75 559.878 151.182 558.889 149.17C557.912 147.148 557.423 144.795 557.423 142.114C557.423 139.432 557.912 137.068 558.889 135.023C559.878 132.966 561.253 131.364 563.014 130.216C564.787 129.057 566.855 128.477 569.219 128.477C570.582 128.477 571.929 128.705 573.259 129.159C574.588 129.614 575.798 130.352 576.889 131.375C577.98 132.386 578.849 133.727 579.497 135.398C580.145 137.068 580.469 139.125 580.469 141.568V143.273H560.287V139.795H576.378C576.378 138.318 576.082 137 575.491 135.841C574.912 134.682 574.082 133.767 573.003 133.097C571.935 132.426 570.673 132.091 569.219 132.091C567.616 132.091 566.23 132.489 565.06 133.284C563.901 134.068 563.009 135.091 562.384 136.352C561.759 137.614 561.446 138.966 561.446 140.409V142.727C561.446 144.705 561.787 146.381 562.469 147.756C563.162 149.119 564.122 150.159 565.349 150.875C566.577 151.58 568.003 151.932 569.628 151.932C570.685 151.932 571.639 151.784 572.491 151.489C573.355 151.182 574.099 150.727 574.724 150.125C575.349 149.511 575.832 148.75 576.173 147.841L580.06 148.932C579.651 150.25 578.963 151.409 577.997 152.409C577.031 153.398 575.838 154.17 574.418 154.727C572.997 155.273 571.401 155.545 569.628 155.545ZM606.02 155L598.043 128.818H602.27L607.929 148.864H608.202L613.793 128.818H618.088L623.611 148.795H623.884L629.543 128.818H633.77L625.793 155H621.838L616.111 134.886H615.702L609.974 155H606.02ZM639.088 155V128.818H643.111V155H639.088ZM641.134 124.455C640.349 124.455 639.673 124.188 639.105 123.653C638.548 123.119 638.27 122.477 638.27 121.727C638.27 120.977 638.548 120.335 639.105 119.801C639.673 119.267 640.349 119 641.134 119C641.918 119 642.588 119.267 643.145 119.801C643.713 120.335 643.997 120.977 643.997 121.727C643.997 122.477 643.713 123.119 643.145 123.653C642.588 124.188 641.918 124.455 641.134 124.455ZM661.115 155.545C658.661 155.545 656.547 154.966 654.774 153.807C653.001 152.648 651.638 151.051 650.683 149.017C649.729 146.983 649.251 144.659 649.251 142.045C649.251 139.386 649.74 137.04 650.717 135.006C651.706 132.96 653.081 131.364 654.842 130.216C656.615 129.057 658.683 128.477 661.047 128.477C662.888 128.477 664.547 128.818 666.024 129.5C667.501 130.182 668.712 131.136 669.655 132.364C670.598 133.591 671.183 135.023 671.411 136.659H667.388C667.081 135.466 666.399 134.409 665.342 133.489C664.297 132.557 662.888 132.091 661.115 132.091C659.547 132.091 658.172 132.5 656.99 133.318C655.82 134.125 654.905 135.267 654.246 136.744C653.598 138.21 653.274 139.932 653.274 141.909C653.274 143.932 653.592 145.693 654.229 147.193C654.876 148.693 655.786 149.858 656.956 150.688C658.138 151.517 659.524 151.932 661.115 151.932C662.161 151.932 663.109 151.75 663.962 151.386C664.814 151.023 665.536 150.5 666.126 149.818C666.717 149.136 667.138 148.318 667.388 147.364H671.411C671.183 148.909 670.621 150.301 669.723 151.54C668.837 152.767 667.661 153.744 666.195 154.472C664.74 155.188 663.047 155.545 661.115 155.545ZM681.314 139.25V155H677.291V120.091H681.314V132.909H681.655C682.268 131.557 683.189 130.483 684.416 129.688C685.655 128.881 687.303 128.477 689.359 128.477C691.143 128.477 692.706 128.835 694.047 129.551C695.388 130.256 696.428 131.341 697.166 132.807C697.916 134.261 698.291 136.114 698.291 138.364V155H694.268V138.636C694.268 136.557 693.729 134.949 692.649 133.812C691.581 132.665 690.098 132.091 688.2 132.091C686.882 132.091 685.7 132.369 684.655 132.926C683.621 133.483 682.803 134.295 682.2 135.364C681.609 136.432 681.314 137.727 681.314 139.25ZM717.037 128.818V132.227H703.469V128.818H717.037ZM707.423 122.545H711.446V147.5C711.446 148.636 711.611 149.489 711.94 150.057C712.281 150.614 712.713 150.989 713.236 151.182C713.77 151.364 714.332 151.455 714.923 151.455C715.366 151.455 715.73 151.432 716.014 151.386C716.298 151.33 716.526 151.284 716.696 151.25L717.514 154.864C717.241 154.966 716.861 155.068 716.372 155.17C715.884 155.284 715.264 155.341 714.514 155.341C713.378 155.341 712.264 155.097 711.173 154.608C710.094 154.119 709.196 153.375 708.48 152.375C707.776 151.375 707.423 150.114 707.423 148.591V122.545ZM723.088 155V128.818H727.111V155H723.088ZM725.134 124.455C724.349 124.455 723.673 124.188 723.105 123.653C722.548 123.119 722.27 122.477 722.27 121.727C722.27 120.977 722.548 120.335 723.105 119.801C723.673 119.267 724.349 119 725.134 119C725.918 119 726.588 119.267 727.145 119.801C727.713 120.335 727.997 120.977 727.997 121.727C727.997 122.477 727.713 123.119 727.145 123.653C726.588 124.188 725.918 124.455 725.134 124.455ZM745.047 165.364C743.104 165.364 741.433 165.114 740.036 164.614C738.638 164.125 737.473 163.477 736.541 162.67C735.621 161.875 734.888 161.023 734.342 160.114L737.547 157.864C737.911 158.341 738.371 158.886 738.928 159.5C739.484 160.125 740.246 160.665 741.212 161.119C742.189 161.585 743.467 161.818 745.047 161.818C747.161 161.818 748.905 161.307 750.28 160.284C751.655 159.261 752.342 157.659 752.342 155.477V150.159H752.001C751.706 150.636 751.286 151.227 750.74 151.932C750.206 152.625 749.433 153.244 748.422 153.79C747.422 154.324 746.07 154.591 744.365 154.591C742.251 154.591 740.354 154.091 738.672 153.091C737.001 152.091 735.678 150.636 734.7 148.727C733.734 146.818 733.251 144.5 733.251 141.773C733.251 139.091 733.723 136.756 734.666 134.767C735.609 132.767 736.922 131.222 738.604 130.131C740.286 129.028 742.229 128.477 744.433 128.477C746.138 128.477 747.49 128.761 748.49 129.33C749.501 129.886 750.274 130.523 750.808 131.239C751.354 131.943 751.774 132.523 752.07 132.977H752.479V128.818H756.365V155.75C756.365 158 755.854 159.83 754.831 161.239C753.82 162.659 752.456 163.699 750.74 164.358C749.036 165.028 747.138 165.364 745.047 165.364ZM744.911 150.977C746.524 150.977 747.888 150.608 749.001 149.869C750.115 149.131 750.962 148.068 751.541 146.682C752.121 145.295 752.411 143.636 752.411 141.705C752.411 139.818 752.126 138.153 751.558 136.71C750.99 135.267 750.149 134.136 749.036 133.318C747.922 132.5 746.547 132.091 744.911 132.091C743.206 132.091 741.786 132.523 740.649 133.386C739.524 134.25 738.678 135.409 738.109 136.864C737.553 138.318 737.274 139.932 737.274 141.705C737.274 143.523 737.558 145.131 738.126 146.528C738.706 147.915 739.558 149.006 740.683 149.801C741.82 150.585 743.229 150.977 744.911 150.977ZM782.274 134.682L778.661 135.705C778.433 135.102 778.098 134.517 777.655 133.949C777.223 133.369 776.632 132.892 775.882 132.517C775.132 132.142 774.172 131.955 773.001 131.955C771.399 131.955 770.064 132.324 768.996 133.062C767.939 133.79 767.411 134.716 767.411 135.841C767.411 136.841 767.774 137.631 768.501 138.21C769.229 138.79 770.365 139.273 771.911 139.659L775.797 140.614C778.138 141.182 779.882 142.051 781.03 143.222C782.178 144.381 782.751 145.875 782.751 147.705C782.751 149.205 782.32 150.545 781.456 151.727C780.604 152.909 779.411 153.841 777.876 154.523C776.342 155.205 774.558 155.545 772.524 155.545C769.854 155.545 767.643 154.966 765.893 153.807C764.143 152.648 763.036 150.955 762.57 148.727L766.388 147.773C766.751 149.182 767.439 150.239 768.45 150.943C769.473 151.648 770.808 152 772.456 152C774.331 152 775.82 151.602 776.922 150.807C778.036 150 778.592 149.034 778.592 147.909C778.592 147 778.274 146.239 777.638 145.625C777.001 145 776.024 144.534 774.706 144.227L770.342 143.205C767.945 142.636 766.183 141.756 765.058 140.562C763.945 139.358 763.388 137.852 763.388 136.045C763.388 134.568 763.803 133.261 764.632 132.125C765.473 130.989 766.615 130.097 768.058 129.449C769.513 128.801 771.161 128.477 773.001 128.477C775.592 128.477 777.626 129.045 779.104 130.182C780.592 131.318 781.649 132.818 782.274 134.682ZM800.193 128.818V132.227H786.625V128.818H800.193ZM790.58 122.545H794.602V147.5C794.602 148.636 794.767 149.489 795.097 150.057C795.438 150.614 795.869 150.989 796.392 151.182C796.926 151.364 797.489 151.455 798.08 151.455C798.523 151.455 798.886 151.432 799.17 151.386C799.455 151.33 799.682 151.284 799.852 151.25L800.67 154.864C800.398 154.966 800.017 155.068 799.528 155.17C799.04 155.284 798.42 155.341 797.67 155.341C796.534 155.341 795.42 155.097 794.33 154.608C793.25 154.119 792.352 153.375 791.636 152.375C790.932 151.375 790.58 150.114 790.58 148.591V122.545ZM816.94 155.545C814.418 155.545 812.241 154.989 810.412 153.875C808.594 152.75 807.19 151.182 806.202 149.17C805.224 147.148 804.736 144.795 804.736 142.114C804.736 139.432 805.224 137.068 806.202 135.023C807.19 132.966 808.565 131.364 810.327 130.216C812.099 129.057 814.168 128.477 816.531 128.477C817.895 128.477 819.241 128.705 820.571 129.159C821.901 129.614 823.111 130.352 824.202 131.375C825.293 132.386 826.162 133.727 826.81 135.398C827.457 137.068 827.781 139.125 827.781 141.568V143.273H807.599V139.795H823.69C823.69 138.318 823.395 137 822.804 135.841C822.224 134.682 821.395 133.767 820.315 133.097C819.247 132.426 817.986 132.091 816.531 132.091C814.929 132.091 813.543 132.489 812.372 133.284C811.213 134.068 810.321 135.091 809.696 136.352C809.071 137.614 808.759 138.966 808.759 140.409V142.727C808.759 144.705 809.099 146.381 809.781 147.756C810.474 149.119 811.435 150.159 812.662 150.875C813.889 151.58 815.315 151.932 816.94 151.932C817.997 151.932 818.952 151.784 819.804 151.489C820.668 151.182 821.412 150.727 822.037 150.125C822.662 149.511 823.145 148.75 823.486 147.841L827.372 148.932C826.963 150.25 826.276 151.409 825.31 152.409C824.344 153.398 823.151 154.17 821.73 154.727C820.31 155.273 818.713 155.545 816.94 155.545ZM837.923 139.25V155H833.901V128.818H837.787V132.909H838.128C838.741 131.58 839.673 130.511 840.923 129.705C842.173 128.886 843.787 128.477 845.764 128.477C847.537 128.477 849.088 128.841 850.418 129.568C851.747 130.284 852.781 131.375 853.52 132.841C854.259 134.295 854.628 136.136 854.628 138.364V155H850.605V138.636C850.605 136.58 850.071 134.977 849.003 133.83C847.935 132.67 846.469 132.091 844.605 132.091C843.321 132.091 842.173 132.369 841.162 132.926C840.162 133.483 839.372 134.295 838.793 135.364C838.213 136.432 837.923 137.727 837.923 139.25ZM876.024 155V120.091H887.82C890.558 120.091 892.797 120.585 894.536 121.574C896.286 122.551 897.581 123.875 898.422 125.545C899.263 127.216 899.683 129.08 899.683 131.136C899.683 133.193 899.263 135.062 898.422 136.744C897.592 138.426 896.308 139.767 894.57 140.767C892.831 141.756 890.604 142.25 887.888 142.25H879.433V138.5H887.751C889.626 138.5 891.132 138.176 892.268 137.528C893.405 136.881 894.229 136.006 894.74 134.903C895.263 133.79 895.524 132.534 895.524 131.136C895.524 129.739 895.263 128.489 894.74 127.386C894.229 126.284 893.399 125.42 892.251 124.795C891.104 124.159 889.581 123.841 887.683 123.841H880.251V155H876.024ZM922.447 144.295V128.818H926.47V155H922.447V150.568H922.175C921.561 151.898 920.607 153.028 919.311 153.96C918.016 154.881 916.379 155.341 914.402 155.341C912.766 155.341 911.311 154.983 910.038 154.267C908.766 153.54 907.766 152.449 907.038 150.994C906.311 149.528 905.947 147.682 905.947 145.455V128.818H909.97V145.182C909.97 147.091 910.504 148.614 911.572 149.75C912.652 150.886 914.027 151.455 915.697 151.455C916.697 151.455 917.714 151.199 918.749 150.688C919.794 150.176 920.669 149.392 921.374 148.335C922.089 147.278 922.447 145.932 922.447 144.295ZM937.861 139.25V155H933.838V128.818H937.724V132.909H938.065C938.679 131.58 939.611 130.511 940.861 129.705C942.111 128.886 943.724 128.477 945.702 128.477C947.474 128.477 949.026 128.841 950.355 129.568C951.685 130.284 952.719 131.375 953.457 132.841C954.196 134.295 954.565 136.136 954.565 138.364V155H950.543V138.636C950.543 136.58 950.009 134.977 948.94 133.83C947.872 132.67 946.406 132.091 944.543 132.091C943.259 132.091 942.111 132.369 941.099 132.926C940.099 133.483 939.31 134.295 938.73 135.364C938.151 136.432 937.861 137.727 937.861 139.25ZM965.666 145.455L965.598 140.477H966.416L977.871 128.818H982.848L970.643 141.159H970.303L965.666 145.455ZM961.916 155V120.091H965.939V155H961.916ZM978.553 155L968.325 142.045L971.189 139.25L983.666 155H978.553ZM999.412 128.818V132.227H985.844V128.818H999.412ZM989.798 122.545H993.821V147.5C993.821 148.636 993.986 149.489 994.315 150.057C994.656 150.614 995.088 150.989 995.611 151.182C996.145 151.364 996.707 151.455 997.298 151.455C997.741 151.455 998.105 151.432 998.389 151.386C998.673 151.33 998.901 151.284 999.071 151.25L999.889 154.864C999.616 154.966 999.236 155.068 998.747 155.17C998.259 155.284 997.639 155.341 996.889 155.341C995.753 155.341 994.639 155.097 993.548 154.608C992.469 154.119 991.571 153.375 990.855 152.375C990.151 151.375 989.798 150.114 989.798 148.591V122.545ZM1016.16 155.545C1013.64 155.545 1011.46 154.989 1009.63 153.875C1007.81 152.75 1006.41 151.182 1005.42 149.17C1004.44 147.148 1003.95 144.795 1003.95 142.114C1003.95 139.432 1004.44 137.068 1005.42 135.023C1006.41 132.966 1007.78 131.364 1009.55 130.216C1011.32 129.057 1013.39 128.477 1015.75 128.477C1017.11 128.477 1018.46 128.705 1019.79 129.159C1021.12 129.614 1022.33 130.352 1023.42 131.375C1024.51 132.386 1025.38 133.727 1026.03 135.398C1026.68 137.068 1027 139.125 1027 141.568V143.273H1006.82V139.795H1022.91C1022.91 138.318 1022.61 137 1022.02 135.841C1021.44 134.682 1020.61 133.767 1019.53 133.097C1018.47 132.426 1017.2 132.091 1015.75 132.091C1014.15 132.091 1012.76 132.489 1011.59 133.284C1010.43 134.068 1009.54 135.091 1008.91 136.352C1008.29 137.614 1007.98 138.966 1007.98 140.409V142.727C1007.98 144.705 1008.32 146.381 1009 147.756C1009.69 149.119 1010.65 150.159 1011.88 150.875C1013.11 151.58 1014.53 151.932 1016.16 151.932C1017.22 151.932 1018.17 151.784 1019.02 151.489C1019.89 151.182 1020.63 150.727 1021.26 150.125C1021.88 149.511 1022.36 148.75 1022.7 147.841L1026.59 148.932C1026.18 150.25 1025.49 151.409 1024.53 152.409C1023.56 153.398 1022.37 154.17 1020.95 154.727C1019.53 155.273 1017.93 155.545 1016.16 155.545ZM204.932 213V209.932L219.795 190.841V190.568H205.409V186.818H224.977V190.023L210.523 208.977V209.25H225.455V213H204.932ZM248.151 202.295V186.818H252.173V213H248.151V208.568H247.878C247.264 209.898 246.31 211.028 245.014 211.96C243.719 212.881 242.082 213.341 240.105 213.341C238.469 213.341 237.014 212.983 235.741 212.267C234.469 211.54 233.469 210.449 232.741 208.994C232.014 207.528 231.651 205.682 231.651 203.455V186.818H235.673V203.182C235.673 205.091 236.207 206.614 237.276 207.75C238.355 208.886 239.73 209.455 241.401 209.455C242.401 209.455 243.418 209.199 244.452 208.688C245.497 208.176 246.372 207.392 247.077 206.335C247.793 205.278 248.151 203.932 248.151 202.295ZM278.087 192.682L274.473 193.705C274.246 193.102 273.911 192.517 273.467 191.949C273.036 191.369 272.445 190.892 271.695 190.517C270.945 190.142 269.984 189.955 268.814 189.955C267.212 189.955 265.876 190.324 264.808 191.062C263.751 191.79 263.223 192.716 263.223 193.841C263.223 194.841 263.587 195.631 264.314 196.21C265.041 196.79 266.178 197.273 267.723 197.659L271.609 198.614C273.95 199.182 275.695 200.051 276.842 201.222C277.99 202.381 278.564 203.875 278.564 205.705C278.564 207.205 278.132 208.545 277.268 209.727C276.416 210.909 275.223 211.841 273.689 212.523C272.155 213.205 270.371 213.545 268.337 213.545C265.666 213.545 263.456 212.966 261.706 211.807C259.956 210.648 258.848 208.955 258.382 206.727L262.2 205.773C262.564 207.182 263.251 208.239 264.263 208.943C265.286 209.648 266.621 210 268.268 210C270.143 210 271.632 209.602 272.734 208.807C273.848 208 274.405 207.034 274.405 205.909C274.405 205 274.087 204.239 273.45 203.625C272.814 203 271.837 202.534 270.518 202.227L266.155 201.205C263.757 200.636 261.996 199.756 260.871 198.562C259.757 197.358 259.2 195.852 259.2 194.045C259.2 192.568 259.615 191.261 260.445 190.125C261.286 188.989 262.428 188.097 263.871 187.449C265.325 186.801 266.973 186.477 268.814 186.477C271.405 186.477 273.439 187.045 274.916 188.182C276.405 189.318 277.462 190.818 278.087 192.682ZM292.324 213.614C290.665 213.614 289.159 213.301 287.807 212.676C286.455 212.04 285.381 211.125 284.585 209.932C283.79 208.727 283.392 207.273 283.392 205.568C283.392 204.068 283.688 202.852 284.278 201.92C284.869 200.977 285.659 200.239 286.648 199.705C287.636 199.17 288.727 198.773 289.92 198.511C291.125 198.239 292.335 198.023 293.551 197.864C295.142 197.659 296.432 197.506 297.42 197.403C298.42 197.29 299.148 197.102 299.602 196.841C300.068 196.58 300.301 196.125 300.301 195.477V195.341C300.301 193.659 299.841 192.352 298.92 191.42C298.011 190.489 296.631 190.023 294.778 190.023C292.858 190.023 291.352 190.443 290.261 191.284C289.17 192.125 288.403 193.023 287.96 193.977L284.142 192.614C284.824 191.023 285.733 189.784 286.869 188.898C288.017 188 289.267 187.375 290.619 187.023C291.983 186.659 293.324 186.477 294.642 186.477C295.483 186.477 296.449 186.58 297.54 186.784C298.642 186.977 299.705 187.381 300.727 187.994C301.761 188.608 302.619 189.534 303.301 190.773C303.983 192.011 304.324 193.67 304.324 195.75V213H300.301V209.455H300.097C299.824 210.023 299.369 210.631 298.733 211.278C298.097 211.926 297.25 212.477 296.193 212.932C295.136 213.386 293.847 213.614 292.324 213.614ZM292.938 210C294.528 210 295.869 209.688 296.96 209.062C298.063 208.438 298.892 207.631 299.449 206.642C300.017 205.653 300.301 204.614 300.301 203.523V199.841C300.131 200.045 299.756 200.233 299.176 200.403C298.608 200.562 297.949 200.705 297.199 200.83C296.46 200.943 295.739 201.045 295.034 201.136C294.341 201.216 293.778 201.284 293.347 201.341C292.301 201.477 291.324 201.699 290.415 202.006C289.517 202.301 288.79 202.75 288.233 203.352C287.688 203.943 287.415 204.75 287.415 205.773C287.415 207.17 287.932 208.227 288.966 208.943C290.011 209.648 291.335 210 292.938 210ZM311.666 213V186.818H315.553V190.909H315.893C316.439 189.511 317.32 188.426 318.536 187.653C319.751 186.869 321.212 186.477 322.916 186.477C324.643 186.477 326.081 186.869 327.229 187.653C328.388 188.426 329.291 189.511 329.939 190.909H330.212C330.882 189.557 331.888 188.483 333.229 187.688C334.57 186.881 336.178 186.477 338.053 186.477C340.393 186.477 342.308 187.21 343.797 188.676C345.286 190.131 346.03 192.398 346.03 195.477V213H342.007V195.477C342.007 193.545 341.479 192.165 340.422 191.335C339.365 190.506 338.121 190.091 336.689 190.091C334.848 190.091 333.422 190.648 332.411 191.761C331.399 192.864 330.893 194.261 330.893 195.955V213H326.803V195.068C326.803 193.58 326.32 192.381 325.354 191.472C324.388 190.551 323.143 190.091 321.621 190.091C320.575 190.091 319.598 190.369 318.689 190.926C317.791 191.483 317.064 192.256 316.507 193.244C315.962 194.222 315.689 195.352 315.689 196.636V213H311.666ZM353.385 213V186.818H357.271V190.909H357.612C358.158 189.511 359.038 188.426 360.254 187.653C361.47 186.869 362.93 186.477 364.635 186.477C366.362 186.477 367.8 186.869 368.947 187.653C370.107 188.426 371.01 189.511 371.658 190.909H371.93C372.601 189.557 373.607 188.483 374.947 187.688C376.288 186.881 377.896 186.477 379.771 186.477C382.112 186.477 384.027 187.21 385.516 188.676C387.004 190.131 387.749 192.398 387.749 195.477V213H383.726V195.477C383.726 193.545 383.197 192.165 382.141 191.335C381.084 190.506 379.839 190.091 378.408 190.091C376.567 190.091 375.141 190.648 374.129 191.761C373.118 192.864 372.612 194.261 372.612 195.955V213H368.521V195.068C368.521 193.58 368.038 192.381 367.072 191.472C366.107 190.551 364.862 190.091 363.339 190.091C362.294 190.091 361.317 190.369 360.408 190.926C359.51 191.483 358.783 192.256 358.226 193.244C357.68 194.222 357.408 195.352 357.408 196.636V213H353.385ZM406.081 213.545C403.558 213.545 401.382 212.989 399.553 211.875C397.734 210.75 396.331 209.182 395.342 207.17C394.365 205.148 393.876 202.795 393.876 200.114C393.876 197.432 394.365 195.068 395.342 193.023C396.331 190.966 397.706 189.364 399.467 188.216C401.24 187.057 403.308 186.477 405.672 186.477C407.036 186.477 408.382 186.705 409.712 187.159C411.041 187.614 412.251 188.352 413.342 189.375C414.433 190.386 415.303 191.727 415.95 193.398C416.598 195.068 416.922 197.125 416.922 199.568V201.273H396.74V197.795H412.831C412.831 196.318 412.536 195 411.945 193.841C411.365 192.682 410.536 191.767 409.456 191.097C408.388 190.426 407.126 190.091 405.672 190.091C404.07 190.091 402.683 190.489 401.513 191.284C400.354 192.068 399.462 193.091 398.837 194.352C398.212 195.614 397.899 196.966 397.899 198.409V200.727C397.899 202.705 398.24 204.381 398.922 205.756C399.615 207.119 400.575 208.159 401.803 208.875C403.03 209.58 404.456 209.932 406.081 209.932C407.138 209.932 408.092 209.784 408.945 209.489C409.808 209.182 410.553 208.727 411.178 208.125C411.803 207.511 412.286 206.75 412.626 205.841L416.513 206.932C416.104 208.25 415.416 209.409 414.45 210.409C413.484 211.398 412.291 212.17 410.871 212.727C409.45 213.273 407.854 213.545 406.081 213.545ZM427.064 197.25V213H423.041V186.818H426.928V190.909H427.268C427.882 189.58 428.814 188.511 430.064 187.705C431.314 186.886 432.928 186.477 434.905 186.477C436.678 186.477 438.229 186.841 439.558 187.568C440.888 188.284 441.922 189.375 442.661 190.841C443.399 192.295 443.768 194.136 443.768 196.364V213H439.746V196.636C439.746 194.58 439.212 192.977 438.143 191.83C437.075 190.67 435.609 190.091 433.746 190.091C432.462 190.091 431.314 190.369 430.303 190.926C429.303 191.483 428.513 192.295 427.933 193.364C427.354 194.432 427.064 195.727 427.064 197.25ZM461.688 223.364C459.744 223.364 458.074 223.114 456.676 222.614C455.278 222.125 454.114 221.477 453.182 220.67C452.261 219.875 451.528 219.023 450.983 218.114L454.188 215.864C454.551 216.341 455.011 216.886 455.568 217.5C456.125 218.125 456.886 218.665 457.852 219.119C458.83 219.585 460.108 219.818 461.688 219.818C463.801 219.818 465.545 219.307 466.92 218.284C468.295 217.261 468.983 215.659 468.983 213.477V208.159H468.642C468.347 208.636 467.926 209.227 467.381 209.932C466.847 210.625 466.074 211.244 465.062 211.79C464.062 212.324 462.71 212.591 461.006 212.591C458.892 212.591 456.994 212.091 455.312 211.091C453.642 210.091 452.318 208.636 451.341 206.727C450.375 204.818 449.892 202.5 449.892 199.773C449.892 197.091 450.364 194.756 451.307 192.767C452.25 190.767 453.563 189.222 455.244 188.131C456.926 187.028 458.869 186.477 461.074 186.477C462.778 186.477 464.131 186.761 465.131 187.33C466.142 187.886 466.915 188.523 467.449 189.239C467.994 189.943 468.415 190.523 468.71 190.977H469.119V186.818H473.006V213.75C473.006 216 472.494 217.83 471.472 219.239C470.46 220.659 469.097 221.699 467.381 222.358C465.676 223.028 463.778 223.364 461.688 223.364ZM461.551 208.977C463.165 208.977 464.528 208.608 465.642 207.869C466.756 207.131 467.602 206.068 468.182 204.682C468.761 203.295 469.051 201.636 469.051 199.705C469.051 197.818 468.767 196.153 468.199 194.71C467.631 193.267 466.79 192.136 465.676 191.318C464.563 190.5 463.188 190.091 461.551 190.091C459.847 190.091 458.426 190.523 457.29 191.386C456.165 192.25 455.318 193.409 454.75 194.864C454.193 196.318 453.915 197.932 453.915 199.705C453.915 201.523 454.199 203.131 454.767 204.528C455.347 205.915 456.199 207.006 457.324 207.801C458.46 208.585 459.869 208.977 461.551 208.977ZM491.347 213.545C488.824 213.545 486.648 212.989 484.818 211.875C483 210.75 481.597 209.182 480.608 207.17C479.631 205.148 479.142 202.795 479.142 200.114C479.142 197.432 479.631 195.068 480.608 193.023C481.597 190.966 482.972 189.364 484.733 188.216C486.506 187.057 488.574 186.477 490.938 186.477C492.301 186.477 493.648 186.705 494.977 187.159C496.307 187.614 497.517 188.352 498.608 189.375C499.699 190.386 500.568 191.727 501.216 193.398C501.864 195.068 502.188 197.125 502.188 199.568V201.273H482.006V197.795H498.097C498.097 196.318 497.801 195 497.21 193.841C496.631 192.682 495.801 191.767 494.722 191.097C493.653 190.426 492.392 190.091 490.938 190.091C489.335 190.091 487.949 190.489 486.778 191.284C485.619 192.068 484.727 193.091 484.102 194.352C483.477 195.614 483.165 196.966 483.165 198.409V200.727C483.165 202.705 483.506 204.381 484.188 205.756C484.881 207.119 485.841 208.159 487.068 208.875C488.295 209.58 489.722 209.932 491.347 209.932C492.403 209.932 493.358 209.784 494.21 209.489C495.074 209.182 495.818 208.727 496.443 208.125C497.068 207.511 497.551 206.75 497.892 205.841L501.778 206.932C501.369 208.25 500.682 209.409 499.716 210.409C498.75 211.398 497.557 212.17 496.136 212.727C494.716 213.273 493.119 213.545 491.347 213.545ZM519.966 186.818V190.227H505.852V186.818H519.966ZM510.08 213V183.205C510.08 181.705 510.432 180.455 511.136 179.455C511.841 178.455 512.756 177.705 513.881 177.205C515.006 176.705 516.193 176.455 517.443 176.455C518.432 176.455 519.239 176.534 519.864 176.693C520.489 176.852 520.955 177 521.261 177.136L520.102 180.614C519.898 180.545 519.614 180.46 519.25 180.358C518.898 180.256 518.432 180.205 517.852 180.205C516.523 180.205 515.563 180.54 514.972 181.21C514.392 181.881 514.102 182.864 514.102 184.159V213H510.08ZM532.558 213.614C530.899 213.614 529.393 213.301 528.041 212.676C526.689 212.04 525.615 211.125 524.82 209.932C524.024 208.727 523.626 207.273 523.626 205.568C523.626 204.068 523.922 202.852 524.513 201.92C525.104 200.977 525.893 200.239 526.882 199.705C527.871 199.17 528.962 198.773 530.155 198.511C531.359 198.239 532.57 198.023 533.786 197.864C535.376 197.659 536.666 197.506 537.655 197.403C538.655 197.29 539.382 197.102 539.837 196.841C540.303 196.58 540.536 196.125 540.536 195.477V195.341C540.536 193.659 540.075 192.352 539.155 191.42C538.246 190.489 536.865 190.023 535.013 190.023C533.092 190.023 531.587 190.443 530.496 191.284C529.405 192.125 528.638 193.023 528.195 193.977L524.376 192.614C525.058 191.023 525.967 189.784 527.104 188.898C528.251 188 529.501 187.375 530.854 187.023C532.217 186.659 533.558 186.477 534.876 186.477C535.717 186.477 536.683 186.58 537.774 186.784C538.876 186.977 539.939 187.381 540.962 187.994C541.996 188.608 542.854 189.534 543.536 190.773C544.217 192.011 544.558 193.67 544.558 195.75V213H540.536V209.455H540.331C540.058 210.023 539.604 210.631 538.967 211.278C538.331 211.926 537.484 212.477 536.428 212.932C535.371 213.386 534.081 213.614 532.558 213.614ZM533.172 210C534.763 210 536.104 209.688 537.195 209.062C538.297 208.438 539.126 207.631 539.683 206.642C540.251 205.653 540.536 204.614 540.536 203.523V199.841C540.365 200.045 539.99 200.233 539.411 200.403C538.842 200.562 538.183 200.705 537.433 200.83C536.695 200.943 535.973 201.045 535.268 201.136C534.575 201.216 534.013 201.284 533.581 201.341C532.536 201.477 531.558 201.699 530.649 202.006C529.751 202.301 529.024 202.75 528.467 203.352C527.922 203.943 527.649 204.75 527.649 205.773C527.649 207.17 528.166 208.227 529.2 208.943C530.246 209.648 531.57 210 533.172 210ZM570.446 192.682L566.832 193.705C566.605 193.102 566.27 192.517 565.827 191.949C565.395 191.369 564.804 190.892 564.054 190.517C563.304 190.142 562.344 189.955 561.173 189.955C559.571 189.955 558.236 190.324 557.168 191.062C556.111 191.79 555.582 192.716 555.582 193.841C555.582 194.841 555.946 195.631 556.673 196.21C557.401 196.79 558.537 197.273 560.082 197.659L563.969 198.614C566.31 199.182 568.054 200.051 569.202 201.222C570.349 202.381 570.923 203.875 570.923 205.705C570.923 207.205 570.491 208.545 569.628 209.727C568.776 210.909 567.582 211.841 566.048 212.523C564.514 213.205 562.73 213.545 560.696 213.545C558.026 213.545 555.815 212.966 554.065 211.807C552.315 210.648 551.207 208.955 550.741 206.727L554.56 205.773C554.923 207.182 555.611 208.239 556.622 208.943C557.645 209.648 558.98 210 560.628 210C562.503 210 563.991 209.602 565.094 208.807C566.207 208 566.764 207.034 566.764 205.909C566.764 205 566.446 204.239 565.81 203.625C565.173 203 564.196 202.534 562.878 202.227L558.514 201.205C556.116 200.636 554.355 199.756 553.23 198.562C552.116 197.358 551.56 195.852 551.56 194.045C551.56 192.568 551.974 191.261 552.804 190.125C553.645 188.989 554.787 188.097 556.23 187.449C557.685 186.801 559.332 186.477 561.173 186.477C563.764 186.477 565.798 187.045 567.276 188.182C568.764 189.318 569.821 190.818 570.446 192.682ZM595.524 192.682L591.911 193.705C591.683 193.102 591.348 192.517 590.905 191.949C590.473 191.369 589.882 190.892 589.132 190.517C588.382 190.142 587.422 189.955 586.251 189.955C584.649 189.955 583.314 190.324 582.246 191.062C581.189 191.79 580.661 192.716 580.661 193.841C580.661 194.841 581.024 195.631 581.751 196.21C582.479 196.79 583.615 197.273 585.161 197.659L589.047 198.614C591.388 199.182 593.132 200.051 594.28 201.222C595.428 202.381 596.001 203.875 596.001 205.705C596.001 207.205 595.57 208.545 594.706 209.727C593.854 210.909 592.661 211.841 591.126 212.523C589.592 213.205 587.808 213.545 585.774 213.545C583.104 213.545 580.893 212.966 579.143 211.807C577.393 210.648 576.286 208.955 575.82 206.727L579.638 205.773C580.001 207.182 580.689 208.239 581.7 208.943C582.723 209.648 584.058 210 585.706 210C587.581 210 589.07 209.602 590.172 208.807C591.286 208 591.842 207.034 591.842 205.909C591.842 205 591.524 204.239 590.888 203.625C590.251 203 589.274 202.534 587.956 202.227L583.592 201.205C581.195 200.636 579.433 199.756 578.308 198.562C577.195 197.358 576.638 195.852 576.638 194.045C576.638 192.568 577.053 191.261 577.882 190.125C578.723 188.989 579.865 188.097 581.308 187.449C582.763 186.801 584.411 186.477 586.251 186.477C588.842 186.477 590.876 187.045 592.354 188.182C593.842 189.318 594.899 190.818 595.524 192.682ZM613.443 186.818V190.227H599.875V186.818H613.443ZM603.83 180.545H607.852V205.5C607.852 206.636 608.017 207.489 608.347 208.057C608.688 208.614 609.119 208.989 609.642 209.182C610.176 209.364 610.739 209.455 611.33 209.455C611.773 209.455 612.136 209.432 612.42 209.386C612.705 209.33 612.932 209.284 613.102 209.25L613.92 212.864C613.648 212.966 613.267 213.068 612.778 213.17C612.29 213.284 611.67 213.341 610.92 213.341C609.784 213.341 608.67 213.097 607.58 212.608C606.5 212.119 605.602 211.375 604.886 210.375C604.182 209.375 603.83 208.114 603.83 206.591V180.545ZM622.426 213.273C621.585 213.273 620.864 212.972 620.261 212.369C619.659 211.767 619.358 211.045 619.358 210.205C619.358 209.364 619.659 208.642 620.261 208.04C620.864 207.437 621.585 207.136 622.426 207.136C623.267 207.136 623.989 207.437 624.591 208.04C625.193 208.642 625.494 209.364 625.494 210.205C625.494 210.761 625.352 211.273 625.068 211.739C624.795 212.205 624.426 212.58 623.96 212.864C623.506 213.136 622.994 213.273 622.426 213.273ZM622.426 193.841C621.585 193.841 620.864 193.54 620.261 192.938C619.659 192.335 619.358 191.614 619.358 190.773C619.358 189.932 619.659 189.21 620.261 188.608C620.864 188.006 621.585 187.705 622.426 187.705C623.267 187.705 623.989 188.006 624.591 188.608C625.193 189.21 625.494 189.932 625.494 190.773C625.494 191.33 625.352 191.841 625.068 192.307C624.795 192.773 624.426 193.148 623.96 193.432C623.506 193.705 622.994 193.841 622.426 193.841ZM217.886 236.091V271H213.659V240.523H213.455L204.932 246.182V241.886L213.659 236.091H217.886ZM228.864 271.273C228.023 271.273 227.301 270.972 226.699 270.369C226.097 269.767 225.795 269.045 225.795 268.205C225.795 267.364 226.097 266.642 226.699 266.04C227.301 265.437 228.023 265.136 228.864 265.136C229.705 265.136 230.426 265.437 231.028 266.04C231.631 266.642 231.932 267.364 231.932 268.205C231.932 268.761 231.79 269.273 231.506 269.739C231.233 270.205 230.864 270.58 230.398 270.864C229.943 271.136 229.432 271.273 228.864 271.273ZM205.614 329V325.932L217.136 313.318C218.489 311.841 219.602 310.557 220.477 309.466C221.352 308.364 222 307.33 222.42 306.364C222.852 305.386 223.068 304.364 223.068 303.295C223.068 302.068 222.773 301.006 222.182 300.108C221.602 299.21 220.807 298.517 219.795 298.028C218.784 297.54 217.648 297.295 216.386 297.295C215.045 297.295 213.875 297.574 212.875 298.131C211.886 298.676 211.119 299.443 210.574 300.432C210.04 301.42 209.773 302.58 209.773 303.909H205.75C205.75 301.864 206.222 300.068 207.165 298.523C208.108 296.977 209.392 295.773 211.017 294.909C212.653 294.045 214.489 293.614 216.523 293.614C218.568 293.614 220.381 294.045 221.96 294.909C223.54 295.773 224.778 296.937 225.676 298.403C226.574 299.869 227.023 301.5 227.023 303.295C227.023 304.58 226.79 305.835 226.324 307.062C225.869 308.278 225.074 309.636 223.938 311.136C222.812 312.625 221.25 314.443 219.25 316.591L211.409 324.977V325.25H227.636V329H205.614ZM237.676 329.273C236.835 329.273 236.114 328.972 235.511 328.369C234.909 327.767 234.608 327.045 234.608 326.205C234.608 325.364 234.909 324.642 235.511 324.04C236.114 323.437 236.835 323.136 237.676 323.136C238.517 323.136 239.239 323.437 239.841 324.04C240.443 324.642 240.744 325.364 240.744 326.205C240.744 326.761 240.602 327.273 240.318 327.739C240.045 328.205 239.676 328.58 239.21 328.864C238.756 329.136 238.244 329.273 237.676 329.273ZM217.409 387.477C215.159 387.477 213.153 387.091 211.392 386.318C209.642 385.545 208.25 384.472 207.216 383.097C206.193 381.71 205.636 380.102 205.545 378.273H209.841C209.932 379.398 210.318 380.369 211 381.188C211.682 381.994 212.574 382.619 213.676 383.062C214.778 383.506 216 383.727 217.341 383.727C218.841 383.727 220.17 383.466 221.33 382.943C222.489 382.42 223.398 381.693 224.057 380.761C224.716 379.83 225.045 378.75 225.045 377.523C225.045 376.239 224.727 375.108 224.091 374.131C223.455 373.142 222.523 372.369 221.295 371.812C220.068 371.256 218.568 370.977 216.795 370.977H214V367.227H216.795C218.182 367.227 219.398 366.977 220.443 366.477C221.5 365.977 222.324 365.273 222.915 364.364C223.517 363.455 223.818 362.386 223.818 361.159C223.818 359.977 223.557 358.949 223.034 358.074C222.511 357.199 221.773 356.517 220.818 356.028C219.875 355.54 218.761 355.295 217.477 355.295C216.273 355.295 215.136 355.517 214.068 355.96C213.011 356.392 212.148 357.023 211.477 357.852C210.807 358.67 210.443 359.659 210.386 360.818H206.295C206.364 358.989 206.915 357.386 207.949 356.011C208.983 354.625 210.335 353.545 212.006 352.773C213.688 352 215.534 351.614 217.545 351.614C219.705 351.614 221.557 352.051 223.102 352.926C224.648 353.79 225.835 354.932 226.665 356.352C227.494 357.773 227.909 359.307 227.909 360.955C227.909 362.92 227.392 364.597 226.358 365.983C225.335 367.369 223.943 368.33 222.182 368.864V369.136C224.386 369.5 226.108 370.437 227.347 371.949C228.585 373.449 229.205 375.307 229.205 377.523C229.205 379.42 228.688 381.125 227.653 382.636C226.631 384.136 225.233 385.318 223.46 386.182C221.688 387.045 219.67 387.477 217.409 387.477ZM238.098 387.273C237.257 387.273 236.536 386.972 235.933 386.369C235.331 385.767 235.03 385.045 235.03 384.205C235.03 383.364 235.331 382.642 235.933 382.04C236.536 381.437 237.257 381.136 238.098 381.136C238.939 381.136 239.661 381.437 240.263 382.04C240.865 382.642 241.166 383.364 241.166 384.205C241.166 384.761 241.024 385.273 240.74 385.739C240.467 386.205 240.098 386.58 239.632 386.864C239.178 387.136 238.666 387.273 238.098 387.273ZM204.795 437.841V434.364L220.136 410.091H222.659V415.477H220.955L209.364 433.818V434.091H230.023V437.841H204.795ZM221.227 445V436.784V435.165V410.091H225.25V445H221.227ZM237.77 445.273C236.929 445.273 236.207 444.972 235.605 444.369C235.003 443.767 234.702 443.045 234.702 442.205C234.702 441.364 235.003 440.642 235.605 440.04C236.207 439.437 236.929 439.136 237.77 439.136C238.611 439.136 239.332 439.437 239.935 440.04C240.537 440.642 240.838 441.364 240.838 442.205C240.838 442.761 240.696 443.273 240.412 443.739C240.139 444.205 239.77 444.58 239.304 444.864C238.849 445.136 238.338 445.273 237.77 445.273ZM216.523 503.477C214.523 503.477 212.722 503.08 211.119 502.284C209.517 501.489 208.233 500.398 207.267 499.011C206.301 497.625 205.773 496.045 205.682 494.273H209.773C209.932 495.852 210.648 497.159 211.92 498.193C213.205 499.216 214.739 499.727 216.523 499.727C217.955 499.727 219.227 499.392 220.341 498.722C221.466 498.051 222.347 497.131 222.983 495.96C223.631 494.778 223.955 493.443 223.955 491.955C223.955 490.432 223.619 489.074 222.949 487.881C222.29 486.676 221.381 485.727 220.222 485.034C219.063 484.341 217.739 483.989 216.25 483.977C215.182 483.966 214.085 484.131 212.96 484.472C211.835 484.801 210.909 485.227 210.182 485.75L206.227 485.273L208.341 468.091H226.477V471.841H211.886L210.659 482.136H210.864C211.58 481.568 212.477 481.097 213.557 480.722C214.636 480.347 215.761 480.159 216.932 480.159C219.068 480.159 220.972 480.67 222.642 481.693C224.324 482.705 225.642 484.091 226.597 485.852C227.562 487.614 228.045 489.625 228.045 491.886C228.045 494.114 227.545 496.102 226.545 497.852C225.557 499.591 224.193 500.966 222.455 501.977C220.716 502.977 218.739 503.477 216.523 503.477ZM236.504 503.273C235.663 503.273 234.942 502.972 234.339 502.369C233.737 501.767 233.436 501.045 233.436 500.205C233.436 499.364 233.737 498.642 234.339 498.04C234.942 497.437 235.663 497.136 236.504 497.136C237.345 497.136 238.067 497.437 238.669 498.04C239.271 498.642 239.572 499.364 239.572 500.205C239.572 500.761 239.43 501.273 239.146 501.739C238.874 502.205 238.504 502.58 238.038 502.864C237.584 503.136 237.072 503.273 236.504 503.273Z" fill="black"/>
<path d="M1318.89 881.425C1314.85 882.265 1310.03 884.113 1309.56 888.483C1309 893.357 1314.62 896.214 1319.13 897.223C1336.13 901.172 1353.68 901.676 1371.16 902.181C1463.52 904.533 1555.89 904.954 1648.25 903.357C1646.91 891.341 1633.46 886.13 1622.31 883.861C1574.39 874.114 1524.81 879.66 1477.76 869.324C1428.17 858.316 1367.84 870.753 1318.89 881.425Z" fill="url(#paint0_linear_590_2967)"/>
<path d="M1318.89 881.425C1314.85 882.265 1310.03 884.113 1309.56 888.483C1309 893.357 1314.62 896.214 1319.13 897.223C1336.13 901.172 1353.68 901.676 1371.16 902.181C1463.52 904.533 1555.89 904.954 1648.25 903.357C1646.91 891.341 1633.46 886.13 1622.31 883.861C1574.39 874.114 1524.81 879.66 1477.76 869.324C1428.17 858.316 1367.84 870.753 1318.89 881.425Z" fill="url(#paint1_linear_590_2967)"/>
<path d="M1570.43 802.264C1571.46 801.928 1572.56 802.264 1573.59 802.601C1578.1 804.197 1582.53 806.298 1586.48 809.071C1588.46 810.416 1590.44 811.928 1591.38 814.197C1592.25 816.298 1592.18 818.651 1592.02 820.836C1590.59 847.894 1589.25 875.036 1587.83 902.095C1587.75 903.859 1587.51 905.793 1586.24 906.885C1584.66 908.145 1582.45 907.305 1580.71 906.465C1563.71 898.565 1546.78 890.582 1529.78 882.683C1521.64 878.902 1513.26 874.868 1507.25 867.893C1511.83 857.137 1521.48 849.995 1530.34 842.768C1544.1 831.507 1556.75 818.567 1567.9 804.449C1568.53 803.609 1569.32 802.6 1570.43 802.264Z" fill="#DDC199"/>
<path d="M1650.54 662.855C1646.35 661.847 1642.07 660.838 1637.88 659.83C1613.21 707.98 1591.39 757.812 1572.56 808.904C1576.91 811.845 1582.69 814.87 1586.88 811.677C1588.62 810.332 1589.65 808.147 1590.59 806.047C1611.95 758.988 1631.95 711.258 1650.54 662.855Z" fill="#BDB39B"/>
<g opacity="0.26">
<path opacity="0.26" d="M1572.79 897.137C1572.71 898.062 1574.05 898.398 1574.21 897.474C1577.61 870.163 1582.44 843.357 1588.68 816.634C1589.08 814.954 1586.63 814.449 1586.23 816.13C1579.75 842.6 1575.24 869.827 1572.79 897.137Z" fill="#272525"/>
<path opacity="0.26" d="M1546 885.121C1556.43 861.76 1567.5 838.735 1579.21 816.046C1579.92 814.701 1577.86 813.609 1577.15 814.954C1564.97 837.811 1553.98 861.34 1543.94 885.289C1544.1 885.457 1544.18 885.625 1544.26 885.793C1544.81 885.373 1545.36 885.205 1546 885.121Z" fill="#272525"/>
<path opacity="0.26" d="M1528.98 869.743C1546.46 852.264 1562.04 832.853 1575.64 811.844C1576.51 810.416 1574.29 809.239 1573.42 810.668C1560.06 831.592 1544.72 850.92 1527.56 868.398C1526.69 869.322 1528.11 870.667 1528.98 869.743Z" fill="#272525"/>
</g>
<path d="M1407.77 826.213C1407.84 824.953 1408 823.608 1408.08 822.347C1397.64 814.784 1379.3 817.221 1368.23 821.087C1356.36 825.204 1356.36 832.935 1356.52 846.044C1356.6 853.439 1357.23 861.759 1362.61 866.548C1366.72 870.246 1372.5 870.75 1377.87 871.086C1382.7 871.422 1387.44 871.674 1392.27 872.01C1395.59 872.178 1399.3 872.263 1401.91 869.993C1404.52 867.641 1404.92 863.691 1405.23 860.077C1406.1 848.733 1406.97 837.473 1407.77 826.213Z" fill="#2F3F47"/>
<path d="M1420.51 826.213C1420.43 824.953 1420.27 823.608 1420.19 822.347C1430.63 814.784 1448.97 817.221 1460.05 821.087C1471.91 825.204 1471.91 832.935 1471.75 846.044C1471.67 853.439 1471.04 861.759 1465.66 866.548C1461.55 870.246 1455.77 870.75 1450.4 871.086C1445.57 871.422 1440.83 871.674 1436 872.01C1432.68 872.178 1428.97 872.263 1426.36 869.993C1423.75 867.641 1423.35 863.691 1423.04 860.077C1422.25 848.733 1421.38 837.473 1420.51 826.213Z" fill="#2F3F47"/>
<path d="M1331.45 798.148C1328.84 798.735 1326.31 799.576 1323.86 800.668C1322.04 801.424 1320.22 802.433 1318.95 803.945C1317.21 806.13 1316.74 809.156 1316.42 812.097C1316.03 815.963 1315.87 819.828 1315.95 823.693C1315.95 826.97 1316.19 830.332 1317.77 833.105C1319.98 836.971 1324.33 838.735 1328.44 839.827C1336.27 841.929 1344.42 842.432 1352.48 842.853C1401.27 845.374 1450.22 843.692 1498.78 837.895C1500.75 837.643 1502.97 837.307 1504.31 835.71C1505.1 834.786 1505.5 833.525 1505.89 832.348C1508.43 823.777 1510.09 812.097 1504.63 804.114C1499.96 797.307 1491.34 801.172 1484.86 801.088C1478.22 801.004 1471.5 800.416 1464.85 800.164C1451.88 799.576 1438.92 798.987 1425.95 798.567C1407.68 797.895 1389.33 797.307 1371.07 796.803C1358.73 796.551 1344.18 795.122 1331.45 798.148Z" fill="#516770"/>
<path d="M1436.31 613.695C1469.44 613.863 1502.5 614.62 1535.63 615.376C1534.84 596.637 1533.57 577.897 1529.78 559.578C1523.22 527.478 1508.19 496.134 1482.81 477.395C1443.9 448.656 1382.14 452.437 1340.23 480.84C1322.59 492.772 1308.44 509.159 1301.01 529.242C1292.46 552.183 1290.17 577.225 1288.83 601.847C1288.67 605.124 1288.51 608.317 1288.35 611.594C1337.54 609.577 1387.04 613.527 1436.31 613.695Z" fill="#EAF1F2"/>
<path d="M1433.66 623.108C1385.1 623.024 1336.39 619.327 1287.84 621.175C1285.46 677.141 1287.68 733.359 1294.48 788.989C1295.43 796.636 1296.61 804.618 1301.36 810.668C1308.71 819.996 1321.44 815.878 1331.33 815.878C1348.02 815.878 1365.18 816.635 1382.02 817.055C1413.81 817.811 1445.36 817.895 1476.99 814.114C1492.02 812.35 1522.38 817.223 1529.58 802.853C1535.51 791.173 1533.06 767.476 1533.93 754.451C1534.96 738.989 1535.75 723.611 1536.22 708.149C1537.09 680.334 1536.93 652.519 1535.91 624.62C1501.9 623.948 1467.74 623.108 1433.66 623.108Z" fill="#E2ECED"/>
<path d="M1548.33 713.696C1548.96 713.107 1549.04 712.099 1549.12 711.259C1550.78 687.982 1552.2 664.704 1553.23 641.427C1553.31 639.41 1553.31 637.058 1551.81 635.713C1550.7 634.789 1549.28 634.705 1547.85 634.705C1542.95 634.621 1538.13 634.537 1533.22 634.537C1530.14 661.007 1528.88 687.645 1529.51 714.284C1534.96 714.284 1540.34 714.368 1545.8 714.368C1546.67 714.368 1547.62 714.368 1548.33 713.696Z" fill="#2F3F47"/>
<path d="M1573.54 767.31C1574.17 765.378 1574.88 763.361 1576.3 761.932C1577.41 760.84 1578.91 760.167 1580.34 759.663C1586.5 757.31 1592.83 755.546 1599.24 754.369C1604.22 757.983 1608.73 762.269 1612.6 767.226C1613.31 768.151 1614.02 769.159 1614.18 770.336C1614.34 771.26 1614.1 772.184 1613.87 773.109C1611.33 783.445 1608.88 793.781 1606.35 804.117C1602.64 804.621 1598.92 804.705 1595.28 804.201C1596.71 797.898 1598.13 791.596 1599.47 785.377C1600.82 779.411 1601.85 772.1 1597.58 767.899C1593.23 769.075 1588.96 770.336 1584.61 771.512C1583.89 771.68 1583.1 771.932 1582.47 772.436C1581.76 773.109 1581.44 774.117 1581.13 775.041C1579.31 780.924 1577.96 786.974 1577.01 793.109C1574.25 792.268 1571.48 791.511 1568.71 790.671C1568.47 782.688 1571 774.874 1573.54 767.31Z" fill="#2F3F47"/>
<path d="M1607.14 758.233C1607.38 757.981 1607.46 757.646 1607.54 757.393C1608.33 753.612 1609.12 749.83 1609.99 746.133C1604.45 744.788 1598.76 743.863 1593.15 743.359C1592.28 746.469 1591.72 749.746 1591.49 753.023C1591.41 753.696 1591.41 754.536 1591.88 755.04C1592.2 755.376 1592.59 755.46 1592.99 755.629C1597.18 756.973 1601.53 757.981 1605.96 758.569C1606.27 758.485 1606.75 758.57 1607.14 758.233Z" fill="#516770"/>
<path d="M1612.69 743.529C1616.01 737.562 1613.32 721.848 1613.32 715.546C1613.24 706.89 1613.24 698.151 1611.34 689.748C1609.44 681.344 1605.57 673.109 1599.16 667.815C1595.53 664.79 1591.26 662.858 1586.83 661.261C1573.62 656.471 1559.47 654.875 1545.63 656.639C1544.52 656.807 1543.34 656.975 1542.54 657.816C1541.67 658.656 1541.52 660 1541.36 661.261C1540.73 666.051 1539.86 671.345 1540.09 676.218C1540.49 684.79 1538.83 682.437 1544.68 684.874C1549.19 686.723 1557.65 685.21 1562.79 686.471C1568.8 687.899 1574.65 690.084 1580.5 692.269C1584.22 693.613 1588.17 695.294 1590.07 698.907C1591.1 700.84 1591.41 703.193 1591.65 705.462C1593.08 718.908 1593.71 732.436 1593.63 745.966C1593.63 748.318 1609.92 747.142 1612.05 744.537C1612.29 744.201 1612.45 743.865 1612.69 743.529Z" fill="#E2ECED"/>
<g opacity="0.15">
<path opacity="0.15" d="M1585 665.129C1584.53 673.196 1582.55 680.507 1579.55 687.902C1578.99 689.33 1580.65 690.423 1581.52 689.162C1586.27 682.104 1588.72 673.7 1589.59 665.129C1589.91 662.104 1585.24 662.019 1585 665.129Z" fill="#272525"/>
<path opacity="0.15" d="M1597.11 670.927C1595.76 678.743 1592.44 683.869 1587.22 689.415C1586.51 690.171 1587.46 691.431 1588.25 690.843C1591.81 688.49 1595.13 686.978 1597.66 683.197C1600.03 679.667 1601.61 675.885 1602.09 671.6C1602.4 668.659 1597.66 667.986 1597.11 670.927Z" fill="#272525"/>
</g>
<path d="M1280.07 635.209C1279.44 635.797 1279.36 636.806 1279.28 637.646C1277.62 660.923 1276.2 684.2 1275.17 707.477C1275.09 709.494 1275.09 711.847 1276.6 713.191C1277.7 714.116 1279.13 714.2 1280.55 714.2C1285.45 714.284 1290.28 714.368 1295.18 714.368C1298.26 687.898 1299.53 661.259 1298.9 634.621C1293.44 634.621 1288.06 634.537 1282.61 634.537C1281.74 634.537 1280.71 634.537 1280.07 635.209Z" fill="#2F3F47"/>
<path d="M1218.78 606.555C1219.02 608.572 1219.25 610.756 1218.54 612.605C1217.99 614.117 1216.96 615.378 1215.85 616.555C1211.35 621.512 1206.44 626.135 1201.15 630.252C1195.14 629.412 1189.28 627.647 1183.83 625.042C1182.8 624.538 1181.69 624.034 1181.06 623.025C1180.58 622.269 1180.35 621.344 1180.19 620.42C1178.13 610 1176 599.496 1173.94 589.076C1177.03 586.891 1180.35 585.042 1183.83 583.697C1185.17 590 1186.59 596.302 1187.94 602.605C1189.28 608.571 1191.42 615.63 1196.95 617.311C1200.35 614.202 1203.68 611.092 1207.08 607.983C1207.63 607.479 1208.26 606.891 1208.58 606.135C1208.97 605.21 1208.82 604.117 1208.66 603.109C1207.79 596.975 1206.52 590.924 1204.78 584.958C1207.63 584.37 1210.4 583.782 1213.24 583.193C1216.88 590.336 1217.83 598.571 1218.78 606.555Z" fill="#2F3F47"/>
<path d="M1192.51 630.502C1192.43 630.838 1192.51 631.175 1192.51 631.427C1193.38 635.208 1194.25 638.906 1195.04 642.687C1200.57 641.258 1206.03 639.41 1211.33 637.225C1210.86 634.031 1209.99 630.838 1208.8 627.813C1208.56 627.141 1208.25 626.468 1207.61 626.216C1207.22 626.048 1206.82 626.132 1206.35 626.216C1202 626.973 1197.73 628.149 1193.54 629.662C1193.14 629.83 1192.67 630.082 1192.51 630.502Z" fill="#516770"/>
<path d="M1193.71 646.303C1193.16 653.193 1202.18 665.966 1204.86 671.68C1208.5 679.412 1212.22 687.227 1217.44 693.865C1222.66 700.504 1229.54 706.05 1237.52 707.73C1242.03 708.739 1246.7 708.487 1251.28 707.815C1265.12 705.882 1278.49 700.672 1290.11 692.521C1291.06 691.848 1292.01 691.176 1292.4 690C1292.8 688.823 1292.4 687.563 1292.09 686.302C1290.58 681.681 1289.24 676.555 1286.95 672.269C1282.99 664.79 1285.52 666.134 1279.2 666.638C1274.37 667.059 1267.41 672.437 1262.27 673.782C1256.26 675.378 1250.1 676.134 1244.01 676.975C1240.13 677.479 1235.86 677.899 1232.62 675.546C1230.88 674.286 1229.62 672.353 1228.51 670.42C1221.63 659.075 1215.38 647.227 1209.77 635.043C1208.82 632.942 1194.74 641.681 1193.87 645.042C1193.79 645.546 1193.71 645.883 1193.71 646.303Z" fill="#E2ECED"/>
<g opacity="0.15">
<path opacity="0.15" d="M1251.19 703.442C1248.26 695.963 1247 688.484 1246.52 680.417C1246.44 678.821 1244.46 678.653 1244.23 680.25C1242.96 688.821 1244.23 697.476 1247.07 705.543C1248.1 708.484 1252.37 706.299 1251.19 703.442Z" fill="#272525"/>
<path opacity="0.15" d="M1238 704.032C1235.94 696.385 1236.73 690.251 1239.1 682.772C1239.42 681.764 1238.07 681.091 1237.52 681.931C1235.39 685.713 1233.01 688.654 1232.3 693.192C1231.67 697.477 1231.83 701.595 1233.25 705.628C1234.2 708.569 1238.71 706.889 1238 704.032Z" fill="#272525"/>
</g>
<path d="M1310.44 558.739C1310.51 561.932 1310.67 565.209 1311.94 568.151C1315.18 575.461 1323.72 577.814 1331.23 579.159C1374.17 586.805 1418.06 589.411 1461.24 583.612C1466.93 582.856 1472.63 581.932 1477.84 579.411C1483.06 576.89 1487.73 572.604 1489.63 566.974C1490.81 563.36 1490.89 559.495 1490.97 555.63C1491.05 551.764 1491.05 547.815 1491.13 543.949C1491.13 542.185 1491.13 540.42 1490.5 538.739C1489.78 536.974 1488.36 535.546 1486.86 534.453C1481.17 530.336 1473.97 529.411 1467.09 528.655C1421.38 523.781 1375.12 519.496 1329.65 526.05C1327.75 526.302 1325.78 526.638 1324.43 528.067C1323.72 528.739 1323.25 529.664 1322.53 530.336C1321.19 531.428 1319.37 531.344 1317.79 531.932C1313.36 533.445 1311.78 539.244 1311.23 544.202C1310.59 548.991 1310.36 553.865 1310.44 558.739Z" fill="#2F3F47"/>
<path opacity="0.2" d="M1367.68 565.797C1369.18 562.856 1369.42 559.411 1369.1 556.05C1368.94 554.033 1368.47 551.933 1367.28 550.42C1364.75 547.227 1360.09 547.563 1356.21 546.807C1352.81 548.319 1349.97 551.26 1348.54 554.874C1347.67 557.058 1347.28 559.411 1347.51 561.764C1348.07 566.554 1351.78 570.672 1356.21 571.512C1360.72 572.521 1365.54 570.083 1367.68 565.797Z" fill="#EAF1F2"/>
<path opacity="0.2" d="M1442.98 565.797C1444.49 562.856 1444.72 559.411 1444.41 556.05C1444.25 554.033 1443.77 551.933 1442.59 550.42C1440.06 547.227 1435.39 547.563 1431.52 546.807C1428.12 548.319 1425.27 551.26 1423.85 554.874C1422.98 557.058 1422.58 559.411 1422.82 561.764C1423.37 566.554 1427.09 570.672 1431.52 571.512C1435.95 572.521 1440.77 570.083 1442.98 565.797Z" fill="#EAF1F2"/>
<defs>
<linearGradient id="paint0_linear_590_2967" x1="1309.57" y1="884.659" x2="1648.34" y2="884.659" gradientUnits="userSpaceOnUse">
<stop stop-color="#4D4D4D"/>
<stop offset="1"/>
</linearGradient>
<linearGradient id="paint1_linear_590_2967" x1="1309.57" y1="884.659" x2="1648.34" y2="884.659" gradientUnits="userSpaceOnUse">
<stop/>
<stop offset="1"/>
</linearGradient>
</defs>
</svg>
