<svg width="419" height="378" viewBox="0 0 419 378" fill="none" xmlns="http://www.w3.org/2000/svg">
<g clip-path="url(#clip0_529_2977)">
<rect x="416.443" y="198.977" width="2.55623" height="76.5956" rx="1.27811" fill="#C4C4C4"/>
<rect y="133.688" width="2.996" height="23.3177" rx="1.27982" fill="#C4C4C4"/>
<rect y="181.877" width="2.996" height="48.1899" rx="1.27982" fill="#C4C4C4"/>
<rect y="245.613" width="2.996" height="48.1899" rx="1.27982" fill="#C4C4C4"/>
<rect x="1.99805" width="414.446" height="663" rx="65" fill="url(#paint0_linear_529_2977)"/>
<rect x="8" y="4.66406" width="402.462" height="653.673" rx="60" fill="black"/>
<rect x="28" y="24" width="363" height="623" rx="42" fill="#FFD037"/>
<path d="M92.1435 82.1591L88.3935 82.5682C88.2874 82.1894 88.1018 81.8333 87.8366 81.5C87.5791 81.1667 87.2306 80.8977 86.7912 80.6932C86.3518 80.4886 85.8139 80.3864 85.1776 80.3864C84.3215 80.3864 83.6018 80.572 83.0185 80.9432C82.4427 81.3144 82.1586 81.7955 82.1662 82.3864C82.1586 82.8939 82.3442 83.3068 82.723 83.625C83.1094 83.9432 83.7457 84.2045 84.6321 84.4091L87.6094 85.0455C89.2609 85.4015 90.4882 85.9659 91.2912 86.7386C92.1018 87.5114 92.5109 88.5227 92.5185 89.7727C92.5109 90.8712 92.1889 91.8409 91.5526 92.6818C90.9238 93.5152 90.0488 94.1667 88.9276 94.6364C87.8063 95.1061 86.5185 95.3409 85.0639 95.3409C82.9276 95.3409 81.2079 94.8939 79.9048 94C78.6018 93.0985 77.8253 91.8447 77.5753 90.2386L81.5866 89.8523C81.7685 90.6402 82.1548 91.2348 82.7457 91.6364C83.3366 92.0379 84.1056 92.2386 85.0526 92.2386C86.0298 92.2386 86.8139 92.0379 87.4048 91.6364C88.0033 91.2348 88.3026 90.7386 88.3026 90.1477C88.3026 89.6477 88.1094 89.2348 87.723 88.9091C87.3442 88.5833 86.7533 88.3333 85.9503 88.1591L82.973 87.5341C81.2988 87.1856 80.0601 86.5985 79.2571 85.7727C78.4541 84.9394 78.0563 83.8864 78.0639 82.6136C78.0563 81.5379 78.348 80.6061 78.9389 79.8182C79.5374 79.0227 80.367 78.4091 81.4276 77.9773C82.4957 77.5379 83.7268 77.3182 85.1207 77.3182C87.1662 77.3182 88.776 77.7538 89.9503 78.625C91.1321 79.4962 91.8632 80.6742 92.1435 82.1591ZM103.524 95.3409C101.82 95.3409 100.342 94.9659 99.0923 94.2159C97.8423 93.4659 96.8726 92.4167 96.1832 91.0682C95.5014 89.7197 95.1605 88.1439 95.1605 86.3409C95.1605 84.5379 95.5014 82.9583 96.1832 81.6023C96.8726 80.2462 97.8423 79.1932 99.0923 78.4432C100.342 77.6932 101.82 77.3182 103.524 77.3182C105.229 77.3182 106.706 77.6932 107.956 78.4432C109.206 79.1932 110.172 80.2462 110.854 81.6023C111.543 82.9583 111.888 84.5379 111.888 86.3409C111.888 88.1439 111.543 89.7197 110.854 91.0682C110.172 92.4167 109.206 93.4659 107.956 94.2159C106.706 94.9659 105.229 95.3409 103.524 95.3409ZM103.547 92.0455C104.471 92.0455 105.244 91.7917 105.865 91.2841C106.486 90.7689 106.948 90.0795 107.251 89.2159C107.562 88.3523 107.717 87.3902 107.717 86.3295C107.717 85.2614 107.562 84.2955 107.251 83.4318C106.948 82.5606 106.486 81.8674 105.865 81.3523C105.244 80.8371 104.471 80.5795 103.547 80.5795C102.6 80.5795 101.812 80.8371 101.183 81.3523C100.562 81.8674 100.096 82.5606 99.7855 83.4318C99.4825 84.2955 99.331 85.2614 99.331 86.3295C99.331 87.3902 99.4825 88.3523 99.7855 89.2159C100.096 90.0795 100.562 90.7689 101.183 91.2841C101.812 91.7917 102.6 92.0455 103.547 92.0455ZM115.152 95V92.3864L124.152 81.1023V80.9545H115.447V77.5455H129.186V80.3523L120.618 91.4432V91.5909H129.482V95H115.152ZM133.348 95V77.5455H137.462V95H133.348ZM135.416 75.0682C134.765 75.0682 134.204 74.8523 133.734 74.4205C133.265 73.9811 133.03 73.4545 133.03 72.8409C133.03 72.2197 133.265 71.6932 133.734 71.2614C134.204 70.822 134.765 70.6023 135.416 70.6023C136.075 70.6023 136.636 70.822 137.098 71.2614C137.568 71.6932 137.803 72.2197 137.803 72.8409C137.803 73.4545 137.568 73.9811 137.098 74.4205C136.636 74.8523 136.075 75.0682 135.416 75.0682ZM146.714 95.3523C145.608 95.3523 144.612 95.1553 143.726 94.7614C142.847 94.3598 142.15 93.7689 141.635 92.9886C141.127 92.2083 140.874 91.2462 140.874 90.1023C140.874 89.1174 141.055 88.303 141.419 87.6591C141.783 87.0152 142.279 86.5 142.908 86.1136C143.536 85.7273 144.245 85.4356 145.033 85.2386C145.828 85.0341 146.65 84.8864 147.499 84.7955C148.521 84.6894 149.351 84.5947 149.987 84.5114C150.624 84.4205 151.086 84.2841 151.374 84.1023C151.669 83.9129 151.817 83.6212 151.817 83.2273V83.1591C151.817 82.303 151.563 81.6402 151.055 81.1705C150.548 80.7008 149.817 80.4659 148.862 80.4659C147.855 80.4659 147.055 80.6856 146.464 81.125C145.881 81.5644 145.487 82.0833 145.283 82.6818L141.442 82.1364C141.745 81.0758 142.245 80.1894 142.942 79.4773C143.639 78.7576 144.491 78.2197 145.499 77.8636C146.506 77.5 147.62 77.3182 148.839 77.3182C149.68 77.3182 150.518 77.4167 151.351 77.6136C152.184 77.8106 152.946 78.1364 153.635 78.5909C154.324 79.0379 154.877 79.6477 155.294 80.4205C155.718 81.1932 155.93 82.1591 155.93 83.3182V95H151.976V92.6023H151.839C151.589 93.0871 151.237 93.5417 150.783 93.9659C150.336 94.3826 149.771 94.7197 149.089 94.9773C148.415 95.2273 147.624 95.3523 146.714 95.3523ZM147.783 92.3295C148.608 92.3295 149.324 92.1667 149.93 91.8409C150.536 91.5076 151.002 91.0682 151.328 90.5227C151.661 89.9773 151.828 89.3826 151.828 88.7386V86.6818C151.699 86.7879 151.48 86.8864 151.169 86.9773C150.866 87.0682 150.525 87.1477 150.146 87.2159C149.768 87.2841 149.393 87.3447 149.021 87.3977C148.65 87.4508 148.328 87.4962 148.055 87.5341C147.442 87.6174 146.893 87.7538 146.408 87.9432C145.923 88.1326 145.54 88.3977 145.26 88.7386C144.98 89.072 144.839 89.5038 144.839 90.0341C144.839 90.7917 145.116 91.3636 145.669 91.75C146.222 92.1364 146.927 92.3295 147.783 92.3295ZM164.18 71.7273V95H160.067V71.7273H164.18ZM176.138 95.3409C174.388 95.3409 172.876 94.9773 171.604 94.25C170.339 93.5152 169.365 92.4773 168.683 91.1364C168.001 89.7879 167.661 88.2008 167.661 86.375C167.661 84.5795 168.001 83.0038 168.683 81.6477C169.373 80.2841 170.335 79.2235 171.57 78.4659C172.804 77.7008 174.255 77.3182 175.922 77.3182C176.998 77.3182 178.013 77.4924 178.967 77.8409C179.929 78.1818 180.778 78.7121 181.513 79.4318C182.255 80.1515 182.839 81.0682 183.263 82.1818C183.687 83.2879 183.899 84.6061 183.899 86.1364V87.3977H169.592V84.625H179.956C179.948 83.8371 179.778 83.1364 179.445 82.5227C179.111 81.9015 178.645 81.4129 178.047 81.0568C177.456 80.7008 176.767 80.5227 175.979 80.5227C175.138 80.5227 174.399 80.7273 173.763 81.1364C173.126 81.5379 172.63 82.0682 172.274 82.7273C171.926 83.3788 171.748 84.0947 171.74 84.875V87.2955C171.74 88.3106 171.926 89.1818 172.297 89.9091C172.668 90.6288 173.187 91.1818 173.854 91.5682C174.52 91.947 175.301 92.1364 176.195 92.1364C176.793 92.1364 177.335 92.053 177.82 91.8864C178.304 91.7121 178.725 91.4583 179.081 91.125C179.437 90.7917 179.706 90.3788 179.888 89.8864L183.729 90.3182C183.486 91.3333 183.024 92.2197 182.342 92.9773C181.668 93.7273 180.804 94.3106 179.751 94.7273C178.698 95.1364 177.494 95.3409 176.138 95.3409ZM201.175 82.1591L197.425 82.5682C197.319 82.1894 197.133 81.8333 196.868 81.5C196.61 81.1667 196.262 80.8977 195.822 80.6932C195.383 80.4886 194.845 80.3864 194.209 80.3864C193.353 80.3864 192.633 80.572 192.05 80.9432C191.474 81.3144 191.19 81.7955 191.197 82.3864C191.19 82.8939 191.375 83.3068 191.754 83.625C192.141 83.9432 192.777 84.2045 193.663 84.4091L196.641 85.0455C198.292 85.4015 199.519 85.9659 200.322 86.7386C201.133 87.5114 201.542 88.5227 201.55 89.7727C201.542 90.8712 201.22 91.8409 200.584 92.6818C199.955 93.5152 199.08 94.1667 197.959 94.6364C196.838 95.1061 195.55 95.3409 194.095 95.3409C191.959 95.3409 190.239 94.8939 188.936 94C187.633 93.0985 186.857 91.8447 186.607 90.2386L190.618 89.8523C190.8 90.6402 191.186 91.2348 191.777 91.6364C192.368 92.0379 193.137 92.2386 194.084 92.2386C195.061 92.2386 195.845 92.0379 196.436 91.6364C197.035 91.2348 197.334 90.7386 197.334 90.1477C197.334 89.6477 197.141 89.2348 196.754 88.9091C196.375 88.5833 195.785 88.3333 194.982 88.1591L192.004 87.5341C190.33 87.1856 189.091 86.5985 188.288 85.7727C187.485 84.9394 187.088 83.8864 187.095 82.6136C187.088 81.5379 187.379 80.6061 187.97 79.8182C188.569 79.0227 189.398 78.4091 190.459 77.9773C191.527 77.5379 192.758 77.3182 194.152 77.3182C196.197 77.3182 197.807 77.7538 198.982 78.625C200.163 79.4962 200.894 80.6742 201.175 82.1591ZM232.186 71.7273V95H228.436L217.47 79.1477H217.277V95H213.061V71.7273H216.834L227.788 87.5909H227.993V71.7273H232.186ZM244.325 95.3409C242.575 95.3409 241.064 94.9773 239.791 94.25C238.526 93.5152 237.553 92.4773 236.871 91.1364C236.189 89.7879 235.848 88.2008 235.848 86.375C235.848 84.5795 236.189 83.0038 236.871 81.6477C237.56 80.2841 238.522 79.2235 239.757 78.4659C240.992 77.7008 242.443 77.3182 244.109 77.3182C245.185 77.3182 246.2 77.4924 247.155 77.8409C248.117 78.1818 248.965 78.7121 249.7 79.4318C250.443 80.1515 251.026 81.0682 251.45 82.1818C251.875 83.2879 252.087 84.6061 252.087 86.1364V87.3977H237.78V84.625H248.143C248.136 83.8371 247.965 83.1364 247.632 82.5227C247.299 81.9015 246.833 81.4129 246.234 81.0568C245.643 80.7008 244.954 80.5227 244.166 80.5227C243.325 80.5227 242.587 80.7273 241.95 81.1364C241.314 81.5379 240.818 82.0682 240.462 82.7273C240.113 83.3788 239.935 84.0947 239.928 84.875V87.2955C239.928 88.3106 240.113 89.1818 240.484 89.9091C240.856 90.6288 241.375 91.1818 242.041 91.5682C242.708 91.947 243.488 92.1364 244.382 92.1364C244.981 92.1364 245.522 92.053 246.007 91.8864C246.492 91.7121 246.912 91.4583 247.268 91.125C247.625 90.7917 247.893 90.3788 248.075 89.8864L251.916 90.3182C251.674 91.3333 251.212 92.2197 250.53 92.9773C249.856 93.7273 248.992 94.3106 247.939 94.7273C246.886 95.1364 245.681 95.3409 244.325 95.3409ZM264.283 77.5455V80.7273H254.249V77.5455H264.283ZM256.726 73.3636H260.839V89.75C260.839 90.303 260.923 90.7273 261.089 91.0227C261.264 91.3106 261.491 91.5076 261.771 91.6136C262.052 91.7197 262.362 91.7727 262.703 91.7727C262.961 91.7727 263.196 91.7538 263.408 91.7159C263.627 91.678 263.794 91.6439 263.908 91.6136L264.601 94.8295C264.381 94.9053 264.067 94.9886 263.658 95.0795C263.256 95.1705 262.764 95.2235 262.18 95.2386C261.15 95.2689 260.222 95.1136 259.396 94.7727C258.571 94.4242 257.915 93.8864 257.43 93.1591C256.953 92.4318 256.718 91.5227 256.726 90.4318V73.3636ZM271.325 95L266.393 77.5455H270.587L273.655 89.8182H273.814L276.95 77.5455H281.098L284.234 89.75H284.405L287.428 77.5455H291.632L286.689 95H282.405L279.132 83.2045H278.893L275.621 95H271.325ZM301.732 95.3409C299.982 95.3409 298.47 94.9773 297.197 94.25C295.932 93.5152 294.959 92.4773 294.277 91.1364C293.595 89.7879 293.254 88.2008 293.254 86.375C293.254 84.5795 293.595 83.0038 294.277 81.6477C294.966 80.2841 295.929 79.2235 297.163 78.4659C298.398 77.7008 299.849 77.3182 301.516 77.3182C302.591 77.3182 303.607 77.4924 304.561 77.8409C305.523 78.1818 306.372 78.7121 307.107 79.4318C307.849 80.1515 308.432 81.0682 308.857 82.1818C309.281 83.2879 309.493 84.6061 309.493 86.1364V87.3977H295.186V84.625H305.55C305.542 83.8371 305.372 83.1364 305.038 82.5227C304.705 81.9015 304.239 81.4129 303.641 81.0568C303.05 80.7008 302.36 80.5227 301.572 80.5227C300.732 80.5227 299.993 80.7273 299.357 81.1364C298.72 81.5379 298.224 82.0682 297.868 82.7273C297.519 83.3788 297.341 84.0947 297.334 84.875V87.2955C297.334 88.3106 297.519 89.1818 297.891 89.9091C298.262 90.6288 298.781 91.1818 299.447 91.5682C300.114 91.947 300.894 92.1364 301.788 92.1364C302.387 92.1364 302.929 92.053 303.413 91.8864C303.898 91.7121 304.319 91.4583 304.675 91.125C305.031 90.7917 305.3 90.3788 305.482 89.8864L309.322 90.3182C309.08 91.3333 308.618 92.2197 307.936 92.9773C307.262 93.7273 306.398 94.3106 305.345 94.7273C304.292 95.1364 303.088 95.3409 301.732 95.3409ZM312.973 95V77.5455H316.962V80.4545H317.143C317.462 79.447 318.007 78.6705 318.78 78.125C319.56 77.572 320.45 77.2955 321.45 77.2955C321.678 77.2955 321.931 77.3068 322.212 77.3295C322.5 77.3447 322.738 77.3712 322.928 77.4091V81.1932C322.753 81.1326 322.477 81.0795 322.098 81.0341C321.727 80.9811 321.367 80.9545 321.018 80.9545C320.268 80.9545 319.594 81.1174 318.996 81.4432C318.405 81.7614 317.939 82.2045 317.598 82.7727C317.257 83.3409 317.087 83.9962 317.087 84.7386V95H312.973ZM329.411 89.5227L329.399 84.5568H330.058L336.331 77.5455H341.138L333.422 86.1364H332.57L329.411 89.5227ZM325.661 95V71.7273H329.774V95H325.661ZM336.615 95L330.933 87.0568L333.706 84.1591L341.536 95H336.615Z" fill="black"/>
<path d="M66.0043 142.795C65.3168 142.795 64.6889 142.628 64.1207 142.293C63.5526 141.952 63.098 141.497 62.7571 140.929C62.4219 140.361 62.2543 139.733 62.2543 139.045C62.2543 138.352 62.4219 137.724 62.7571 137.162C63.098 136.594 63.5526 136.142 64.1207 135.807C64.6889 135.466 65.3168 135.295 66.0043 135.295C66.6974 135.295 67.3253 135.466 67.8878 135.807C68.456 136.142 68.9077 136.594 69.2429 137.162C69.5838 137.724 69.7543 138.352 69.7543 139.045C69.7543 139.733 69.5838 140.361 69.2429 140.929C68.9077 141.497 68.456 141.952 67.8878 142.293C67.3253 142.628 66.6974 142.795 66.0043 142.795ZM85.7216 146V128.545H92.267C93.608 128.545 94.733 128.778 95.642 129.244C96.5568 129.71 97.2472 130.364 97.7131 131.205C98.1847 132.04 98.4205 133.014 98.4205 134.128C98.4205 135.247 98.1818 136.219 97.7045 137.043C97.233 137.861 96.5369 138.494 95.6165 138.943C94.696 139.386 93.5653 139.608 92.2244 139.608H87.5625V136.983H91.7983C92.5824 136.983 93.2244 136.875 93.7244 136.659C94.2244 136.437 94.5938 136.116 94.8324 135.696C95.0767 135.27 95.1989 134.747 95.1989 134.128C95.1989 133.509 95.0767 132.98 94.8324 132.543C94.5881 132.099 94.2159 131.764 93.7159 131.537C93.2159 131.304 92.571 131.188 91.7812 131.188H88.8835V146H85.7216ZM94.7386 138.091L99.0597 146H95.5312L91.2869 138.091H94.7386ZM107.774 146L110.638 128.545H113.024L110.161 146H107.774ZM99.9077 141.5L100.308 139.114H113.74L113.339 141.5H99.9077ZM101.638 146L104.501 128.545H106.888L104.024 146H101.638ZM100.922 135.432L101.314 133.045H114.746L114.354 135.432H100.922ZM128.333 132.909L123.671 146H120.262L115.6 132.909H118.89L121.898 142.634H122.035L125.052 132.909H128.333ZM130.119 142.761V140.247L137.525 128.545H139.621V132.125H138.343L133.357 140.026V140.162H143.695V142.761H130.119ZM138.445 146V141.994L138.479 140.869V128.545H141.462V146H138.445ZM154.387 137.46V140H146.529V137.46H154.387ZM164.169 132.909V135.295H156.643V132.909H164.169ZM158.501 129.773H161.587V142.062C161.587 142.477 161.649 142.795 161.774 143.017C161.905 143.233 162.075 143.381 162.286 143.46C162.496 143.54 162.729 143.58 162.984 143.58C163.178 143.58 163.354 143.565 163.513 143.537C163.678 143.509 163.803 143.483 163.888 143.46L164.408 145.872C164.243 145.929 164.007 145.991 163.7 146.06C163.399 146.128 163.03 146.168 162.592 146.179C161.82 146.202 161.124 146.085 160.504 145.83C159.885 145.568 159.393 145.165 159.03 144.619C158.672 144.074 158.496 143.392 158.501 142.574V129.773ZM166.715 146V143.716L172.775 137.776C173.354 137.19 173.837 136.67 174.224 136.216C174.61 135.761 174.9 135.321 175.093 134.895C175.286 134.469 175.383 134.014 175.383 133.531C175.383 132.98 175.258 132.509 175.008 132.116C174.758 131.719 174.414 131.412 173.977 131.196C173.539 130.98 173.042 130.872 172.485 130.872C171.911 130.872 171.408 130.991 170.977 131.23C170.545 131.463 170.21 131.795 169.971 132.227C169.738 132.659 169.621 133.173 169.621 133.77H166.613C166.613 132.662 166.866 131.699 167.371 130.881C167.877 130.062 168.573 129.429 169.46 128.98C170.352 128.531 171.374 128.307 172.528 128.307C173.698 128.307 174.727 128.526 175.613 128.963C176.499 129.401 177.187 130 177.675 130.761C178.17 131.523 178.417 132.392 178.417 133.369C178.417 134.023 178.292 134.665 178.042 135.295C177.792 135.926 177.352 136.625 176.721 137.392C176.096 138.159 175.218 139.088 174.087 140.179L171.079 143.239V143.358H178.681V146H166.715ZM189.59 137.46V140H181.732V137.46H189.59ZM203.182 136.369L200.369 136.676C200.29 136.392 200.151 136.125 199.952 135.875C199.759 135.625 199.497 135.423 199.168 135.27C198.838 135.116 198.435 135.04 197.957 135.04C197.315 135.04 196.776 135.179 196.338 135.457C195.906 135.736 195.693 136.097 195.699 136.54C195.693 136.92 195.832 137.23 196.116 137.469C196.406 137.707 196.884 137.903 197.548 138.057L199.781 138.534C201.02 138.801 201.94 139.224 202.543 139.804C203.151 140.384 203.457 141.142 203.463 142.08C203.457 142.903 203.216 143.631 202.739 144.261C202.267 144.886 201.611 145.375 200.77 145.727C199.929 146.08 198.963 146.256 197.872 146.256C196.27 146.256 194.98 145.92 194.003 145.25C193.026 144.574 192.443 143.634 192.256 142.429L195.264 142.139C195.401 142.73 195.69 143.176 196.134 143.477C196.577 143.778 197.153 143.929 197.864 143.929C198.597 143.929 199.185 143.778 199.628 143.477C200.077 143.176 200.301 142.804 200.301 142.361C200.301 141.986 200.156 141.676 199.866 141.432C199.582 141.187 199.139 141 198.537 140.869L196.304 140.401C195.048 140.139 194.119 139.699 193.517 139.08C192.915 138.455 192.616 137.665 192.622 136.71C192.616 135.903 192.835 135.205 193.278 134.614C193.727 134.017 194.349 133.557 195.145 133.233C195.946 132.903 196.869 132.739 197.915 132.739C199.449 132.739 200.656 133.065 201.537 133.719C202.423 134.372 202.972 135.256 203.182 136.369ZM212.544 132.909V135.295H205.018V132.909H212.544ZM206.876 129.773H209.962V142.062C209.962 142.477 210.024 142.795 210.149 143.017C210.28 143.233 210.45 143.381 210.661 143.46C210.871 143.54 211.104 143.58 211.359 143.58C211.553 143.58 211.729 143.565 211.888 143.537C212.053 143.509 212.178 143.483 212.263 143.46L212.783 145.872C212.618 145.929 212.382 145.991 212.075 146.06C211.774 146.128 211.405 146.168 210.967 146.179C210.195 146.202 209.499 146.085 208.879 145.83C208.26 145.568 207.768 145.165 207.405 144.619C207.047 144.074 206.871 143.392 206.876 142.574V129.773ZM215.542 146V133.105C215.542 132.111 215.778 131.256 216.249 130.54C216.721 129.818 217.383 129.267 218.235 128.886C219.093 128.5 220.09 128.307 221.227 128.307C222.3 128.307 223.281 128.486 224.167 128.844C225.053 129.202 225.758 129.727 226.281 130.42C226.803 131.108 227.065 131.955 227.065 132.96C227.065 133.892 226.829 134.685 226.357 135.338C225.891 135.991 225.263 136.437 224.474 136.676V136.864C225.599 136.949 226.502 137.386 227.184 138.176C227.866 138.966 228.204 139.972 228.198 141.193C228.198 142.182 227.968 143.037 227.508 143.759C227.053 144.474 226.417 145.028 225.599 145.42C224.786 145.807 223.843 146 222.769 146H220.596V143.401H222.394C222.94 143.401 223.414 143.298 223.817 143.094C224.221 142.889 224.533 142.605 224.755 142.241C224.977 141.872 225.087 141.446 225.087 140.963C225.082 140.207 224.809 139.594 224.269 139.122C223.729 138.651 222.999 138.415 222.079 138.415H220.664V135.892H221.636C222.102 135.892 222.505 135.778 222.846 135.551C223.187 135.318 223.451 135.014 223.638 134.639C223.826 134.259 223.923 133.849 223.928 133.412C223.928 132.713 223.695 132.131 223.229 131.665C222.769 131.193 222.13 130.957 221.312 130.957C220.522 130.957 219.877 131.188 219.377 131.648C218.877 132.108 218.627 132.713 218.627 133.463V146H215.542ZM230.898 146V132.909H233.889V135.091H234.026C234.264 134.335 234.673 133.753 235.253 133.344C235.838 132.929 236.506 132.722 237.256 132.722C237.426 132.722 237.616 132.73 237.827 132.747C238.043 132.759 238.222 132.778 238.364 132.807V135.645C238.233 135.599 238.026 135.56 237.741 135.526C237.463 135.486 237.193 135.466 236.932 135.466C236.369 135.466 235.864 135.588 235.415 135.832C234.972 136.071 234.622 136.403 234.366 136.83C234.111 137.256 233.983 137.747 233.983 138.304V146H230.898ZM243.499 138.33V146H240.413V132.909H243.362V135.134H243.516C243.817 134.401 244.297 133.818 244.956 133.386C245.621 132.955 246.442 132.739 247.419 132.739C248.322 132.739 249.109 132.932 249.78 133.318C250.456 133.705 250.979 134.264 251.348 134.997C251.723 135.73 251.908 136.619 251.902 137.665V146H248.817V138.142C248.817 137.267 248.589 136.582 248.135 136.088C247.686 135.594 247.064 135.347 246.268 135.347C245.729 135.347 245.249 135.466 244.828 135.705C244.413 135.937 244.087 136.276 243.848 136.719C243.615 137.162 243.499 137.699 243.499 138.33ZM260.732 151.182C259.624 151.182 258.672 151.031 257.876 150.73C257.081 150.435 256.442 150.037 255.959 149.537C255.476 149.037 255.141 148.483 254.953 147.875L257.732 147.202C257.857 147.457 258.038 147.71 258.277 147.96C258.516 148.216 258.837 148.426 259.24 148.591C259.649 148.761 260.163 148.847 260.783 148.847C261.658 148.847 262.382 148.634 262.956 148.207C263.53 147.787 263.817 147.094 263.817 146.128V143.648H263.663C263.504 143.966 263.271 144.293 262.964 144.628C262.663 144.963 262.263 145.244 261.763 145.472C261.268 145.699 260.646 145.812 259.896 145.812C258.891 145.812 257.979 145.577 257.161 145.105C256.348 144.628 255.7 143.918 255.217 142.974C254.74 142.026 254.501 140.838 254.501 139.412C254.501 137.974 254.74 136.761 255.217 135.773C255.7 134.778 256.351 134.026 257.169 133.514C257.987 132.997 258.899 132.739 259.905 132.739C260.672 132.739 261.303 132.869 261.797 133.131C262.297 133.386 262.695 133.696 262.99 134.06C263.286 134.418 263.51 134.756 263.663 135.074H263.834V132.909H266.876V146.213C266.876 147.332 266.609 148.259 266.075 148.991C265.541 149.724 264.811 150.273 263.885 150.636C262.959 151 261.908 151.182 260.732 151.182ZM260.757 143.392C261.411 143.392 261.967 143.233 262.428 142.915C262.888 142.597 263.237 142.139 263.476 141.543C263.714 140.946 263.834 140.23 263.834 139.395C263.834 138.571 263.714 137.849 263.476 137.23C263.243 136.611 262.896 136.131 262.436 135.79C261.982 135.443 261.422 135.27 260.757 135.27C260.07 135.27 259.496 135.449 259.036 135.807C258.575 136.165 258.229 136.656 257.996 137.281C257.763 137.901 257.646 138.605 257.646 139.395C257.646 140.196 257.763 140.898 257.996 141.5C258.234 142.097 258.584 142.562 259.044 142.898C259.51 143.227 260.081 143.392 260.757 143.392ZM277.973 137.46V140H270.115V137.46H277.973ZM85.5852 179.909V161.909H88.6193V164.074H88.7983C88.9574 163.756 89.1818 163.418 89.4716 163.06C89.7614 162.696 90.1534 162.386 90.6477 162.131C91.142 161.869 91.7727 161.739 92.5398 161.739C93.5511 161.739 94.4631 161.997 95.2756 162.514C96.0938 163.026 96.7415 163.784 97.2188 164.79C97.7017 165.79 97.9432 167.017 97.9432 168.472C97.9432 169.909 97.7074 171.131 97.2358 172.136C96.7642 173.142 96.1222 173.909 95.3097 174.438C94.4972 174.966 93.5767 175.23 92.5483 175.23C91.7983 175.23 91.1761 175.105 90.6818 174.855C90.1875 174.605 89.7898 174.304 89.4886 173.952C89.1932 173.594 88.9631 173.256 88.7983 172.938H88.6705V179.909H85.5852ZM88.6108 168.455C88.6108 169.301 88.7301 170.043 88.9688 170.679C89.2131 171.315 89.5625 171.812 90.017 172.17C90.4773 172.523 91.0341 172.699 91.6875 172.699C92.3693 172.699 92.9403 172.517 93.4006 172.153C93.8608 171.784 94.2074 171.281 94.4403 170.645C94.679 170.003 94.7983 169.273 94.7983 168.455C94.7983 167.642 94.6818 166.92 94.4489 166.29C94.2159 165.659 93.8693 165.165 93.4091 164.807C92.9489 164.449 92.375 164.27 91.6875 164.27C91.0284 164.27 90.4688 164.443 90.0085 164.79C89.5483 165.136 89.1989 165.622 88.9602 166.247C88.7273 166.872 88.6108 167.608 88.6108 168.455ZM111.554 179.892C109.764 179.892 108.173 179.648 106.781 179.159C105.395 178.676 104.224 177.963 103.27 177.02C102.315 176.082 101.591 174.938 101.097 173.585C100.602 172.233 100.352 170.688 100.347 168.949C100.352 167.25 100.605 165.719 101.105 164.355C101.605 162.986 102.335 161.815 103.295 160.844C104.256 159.866 105.429 159.116 106.815 158.594C108.202 158.071 109.778 157.81 111.545 157.81C113.21 157.81 114.685 158.062 115.969 158.568C117.259 159.074 118.347 159.778 119.233 160.682C120.125 161.58 120.798 162.631 121.253 163.835C121.713 165.034 121.943 166.335 121.943 167.739C121.943 168.71 121.869 169.631 121.722 170.5C121.574 171.364 121.321 172.131 120.963 172.801C120.611 173.472 120.131 174.006 119.523 174.403C118.915 174.795 118.153 175.009 117.239 175.043C116.665 175.071 116.162 175.017 115.73 174.881C115.298 174.744 114.949 174.531 114.682 174.241C114.42 173.946 114.256 173.585 114.188 173.159H114.085C113.955 173.5 113.707 173.812 113.344 174.097C112.986 174.375 112.543 174.594 112.014 174.753C111.486 174.906 110.898 174.969 110.25 174.94C109.557 174.906 108.915 174.747 108.324 174.463C107.739 174.173 107.227 173.77 106.79 173.253C106.358 172.73 106.023 172.099 105.784 171.361C105.545 170.622 105.426 169.784 105.426 168.847C105.426 167.932 105.557 167.125 105.818 166.426C106.08 165.727 106.429 165.131 106.866 164.636C107.31 164.142 107.81 163.756 108.366 163.477C108.923 163.193 109.497 163.011 110.088 162.932C110.702 162.847 111.278 162.855 111.818 162.957C112.358 163.06 112.807 163.216 113.165 163.426C113.528 163.636 113.756 163.866 113.847 164.116H113.966V163.162H116.344V171.276C116.349 171.702 116.452 172.045 116.651 172.307C116.855 172.568 117.139 172.699 117.503 172.699C117.957 172.699 118.324 172.52 118.602 172.162C118.886 171.798 119.091 171.241 119.216 170.491C119.347 169.736 119.409 168.77 119.403 167.594C119.409 166.628 119.281 165.753 119.02 164.969C118.764 164.179 118.401 163.486 117.929 162.889C117.457 162.293 116.892 161.795 116.233 161.398C115.58 160.994 114.852 160.69 114.051 160.486C113.25 160.281 112.395 160.179 111.486 160.179C110.094 160.179 108.869 160.392 107.812 160.818C106.756 161.239 105.869 161.838 105.153 162.616C104.443 163.395 103.906 164.318 103.543 165.386C103.185 166.449 103.006 167.625 103.006 168.915C103.006 170.295 103.193 171.52 103.568 172.588C103.949 173.651 104.506 174.545 105.239 175.273C105.972 176 106.878 176.551 107.957 176.926C109.043 177.301 110.29 177.489 111.699 177.489C112.347 177.489 112.98 177.438 113.599 177.335C114.219 177.233 114.776 177.114 115.27 176.977C115.764 176.841 116.145 176.722 116.412 176.619L117.136 178.784C116.784 178.966 116.307 179.142 115.705 179.312C115.108 179.483 114.449 179.622 113.727 179.73C113.011 179.838 112.287 179.892 111.554 179.892ZM110.957 172.494C111.679 172.494 112.256 172.355 112.688 172.077C113.119 171.793 113.429 171.372 113.616 170.815C113.804 170.259 113.895 169.565 113.889 168.736C113.889 167.963 113.793 167.33 113.599 166.835C113.406 166.341 113.097 165.974 112.67 165.736C112.244 165.497 111.679 165.378 110.974 165.378C110.338 165.378 109.795 165.523 109.347 165.812C108.903 166.102 108.563 166.503 108.324 167.014C108.091 167.52 107.974 168.097 107.974 168.744C107.974 169.392 108.068 170.003 108.256 170.577C108.449 171.145 108.761 171.608 109.193 171.966C109.631 172.318 110.219 172.494 110.957 172.494ZM134.908 165.369L132.096 165.676C132.016 165.392 131.877 165.125 131.678 164.875C131.485 164.625 131.224 164.423 130.894 164.27C130.565 164.116 130.161 164.04 129.684 164.04C129.042 164.04 128.502 164.179 128.065 164.457C127.633 164.736 127.42 165.097 127.425 165.54C127.42 165.92 127.559 166.23 127.843 166.469C128.133 166.707 128.61 166.903 129.275 167.057L131.508 167.534C132.746 167.801 133.667 168.224 134.269 168.804C134.877 169.384 135.184 170.142 135.19 171.08C135.184 171.903 134.942 172.631 134.465 173.261C133.994 173.886 133.337 174.375 132.496 174.727C131.656 175.08 130.69 175.256 129.599 175.256C127.996 175.256 126.707 174.92 125.729 174.25C124.752 173.574 124.17 172.634 123.982 171.429L126.991 171.139C127.127 171.73 127.417 172.176 127.86 172.477C128.303 172.778 128.88 172.929 129.59 172.929C130.323 172.929 130.911 172.778 131.354 172.477C131.803 172.176 132.028 171.804 132.028 171.361C132.028 170.986 131.883 170.676 131.593 170.432C131.309 170.187 130.866 170 130.263 169.869L128.031 169.401C126.775 169.139 125.846 168.699 125.244 168.08C124.641 167.455 124.343 166.665 124.349 165.71C124.343 164.903 124.562 164.205 125.005 163.614C125.454 163.017 126.076 162.557 126.871 162.233C127.673 161.903 128.596 161.739 129.641 161.739C131.175 161.739 132.383 162.065 133.263 162.719C134.15 163.372 134.698 164.256 134.908 165.369ZM148.08 165.369L145.268 165.676C145.188 165.392 145.049 165.125 144.85 164.875C144.657 164.625 144.396 164.423 144.066 164.27C143.737 164.116 143.333 164.04 142.856 164.04C142.214 164.04 141.674 164.179 141.237 164.457C140.805 164.736 140.592 165.097 140.597 165.54C140.592 165.92 140.731 166.23 141.015 166.469C141.305 166.707 141.782 166.903 142.447 167.057L144.68 167.534C145.918 167.801 146.839 168.224 147.441 168.804C148.049 169.384 148.356 170.142 148.362 171.08C148.356 171.903 148.114 172.631 147.637 173.261C147.165 173.886 146.509 174.375 145.668 174.727C144.827 175.08 143.862 175.256 142.771 175.256C141.168 175.256 139.879 174.92 138.901 174.25C137.924 173.574 137.342 172.634 137.154 171.429L140.163 171.139C140.299 171.73 140.589 172.176 141.032 172.477C141.475 172.778 142.052 172.929 142.762 172.929C143.495 172.929 144.083 172.778 144.526 172.477C144.975 172.176 145.2 171.804 145.2 171.361C145.2 170.986 145.055 170.676 144.765 170.432C144.481 170.187 144.038 170 143.435 169.869L141.202 169.401C139.947 169.139 139.018 168.699 138.415 168.08C137.813 167.455 137.515 166.665 137.521 165.71C137.515 164.903 137.734 164.205 138.177 163.614C138.626 163.017 139.248 162.557 140.043 162.233C140.844 161.903 141.768 161.739 142.813 161.739C144.347 161.739 145.555 162.065 146.435 162.719C147.322 163.372 147.87 164.256 148.08 165.369ZM153.607 175L149.908 161.909H153.053L155.354 171.114H155.474L157.826 161.909H160.937L163.289 171.062H163.417L165.684 161.909H168.837L165.13 175H161.917L159.462 166.153H159.283L156.829 175H153.607ZM177.409 175.332C176.006 175.332 174.801 174.977 173.795 174.267C172.795 173.551 172.026 172.52 171.486 171.173C170.952 169.821 170.685 168.193 170.685 166.29C170.69 164.386 170.96 162.767 171.494 161.432C172.034 160.091 172.804 159.068 173.804 158.364C174.81 157.659 176.011 157.307 177.409 157.307C178.807 157.307 180.009 157.659 181.014 158.364C182.02 159.068 182.79 160.091 183.324 161.432C183.864 162.773 184.134 164.392 184.134 166.29C184.134 168.199 183.864 169.83 183.324 171.182C182.79 172.528 182.02 173.557 181.014 174.267C180.014 174.977 178.813 175.332 177.409 175.332ZM177.409 172.665C178.5 172.665 179.361 172.128 179.991 171.054C180.628 169.974 180.946 168.386 180.946 166.29C180.946 164.903 180.801 163.739 180.511 162.795C180.222 161.852 179.813 161.142 179.284 160.665C178.756 160.182 178.131 159.94 177.409 159.94C176.324 159.94 175.466 160.48 174.835 161.56C174.205 162.634 173.886 164.21 173.881 166.29C173.875 167.682 174.014 168.852 174.298 169.801C174.588 170.75 174.997 171.466 175.526 171.949C176.054 172.426 176.682 172.665 177.409 172.665ZM186.999 175V161.909H189.991V164.091H190.127C190.366 163.335 190.775 162.753 191.354 162.344C191.94 161.929 192.607 161.722 193.357 161.722C193.528 161.722 193.718 161.73 193.928 161.747C194.144 161.759 194.323 161.778 194.465 161.807V164.645C194.335 164.599 194.127 164.56 193.843 164.526C193.565 164.486 193.295 164.466 193.033 164.466C192.471 164.466 191.965 164.588 191.516 164.832C191.073 165.071 190.724 165.403 190.468 165.83C190.212 166.256 190.085 166.747 190.085 167.304V175H186.999ZM202.566 175H196.651V157.545H202.685C204.418 157.545 205.907 157.895 207.151 158.594C208.401 159.287 209.362 160.284 210.032 161.585C210.702 162.886 211.038 164.443 211.038 166.256C211.038 168.074 210.7 169.636 210.023 170.943C209.353 172.25 208.384 173.253 207.117 173.952C205.856 174.651 204.339 175 202.566 175ZM199.813 172.264H202.413C203.629 172.264 204.643 172.043 205.455 171.599C206.268 171.151 206.879 170.483 207.288 169.597C207.697 168.705 207.901 167.591 207.901 166.256C207.901 164.92 207.697 163.812 207.288 162.932C206.879 162.045 206.273 161.384 205.472 160.946C204.677 160.503 203.688 160.281 202.506 160.281H199.813V172.264ZM66.0043 200.795C65.3168 200.795 64.6889 200.628 64.1207 200.293C63.5526 199.952 63.098 199.497 62.7571 198.929C62.4219 198.361 62.2543 197.733 62.2543 197.045C62.2543 196.352 62.4219 195.724 62.7571 195.162C63.098 194.594 63.5526 194.142 64.1207 193.807C64.6889 193.466 65.3168 193.295 66.0043 193.295C66.6974 193.295 67.3253 193.466 67.8878 193.807C68.456 194.142 68.9077 194.594 69.2429 195.162C69.5838 195.724 69.7543 196.352 69.7543 197.045C69.7543 197.733 69.5838 198.361 69.2429 198.929C68.9077 199.497 68.456 199.952 67.8878 200.293C67.3253 200.628 66.6974 200.795 66.0043 200.795ZM85.7216 204V186.545H92.267C93.608 186.545 94.733 186.778 95.642 187.244C96.5568 187.71 97.2472 188.364 97.7131 189.205C98.1847 190.04 98.4205 191.014 98.4205 192.128C98.4205 193.247 98.1818 194.219 97.7045 195.043C97.233 195.861 96.5369 196.494 95.6165 196.943C94.696 197.386 93.5653 197.608 92.2244 197.608H87.5625V194.983H91.7983C92.5824 194.983 93.2244 194.875 93.7244 194.659C94.2244 194.437 94.5938 194.116 94.8324 193.696C95.0767 193.27 95.1989 192.747 95.1989 192.128C95.1989 191.509 95.0767 190.98 94.8324 190.543C94.5881 190.099 94.2159 189.764 93.7159 189.537C93.2159 189.304 92.571 189.188 91.7812 189.188H88.8835V204H85.7216ZM94.7386 196.091L99.0597 204H95.5312L91.2869 196.091H94.7386ZM107.774 204L110.638 186.545H113.024L110.161 204H107.774ZM99.9077 199.5L100.308 197.114H113.74L113.339 199.5H99.9077ZM101.638 204L104.501 186.545H106.888L104.024 204H101.638ZM100.922 193.432L101.314 191.045H114.746L114.354 193.432H100.922ZM128.333 190.909L123.671 204H120.262L115.6 190.909H118.89L121.898 200.634H122.035L125.052 190.909H128.333ZM130.119 200.761V198.247L137.525 186.545H139.621V190.125H138.343L133.357 198.026V198.162H143.695V200.761H130.119ZM138.445 204V199.994L138.479 198.869V186.545H141.462V204H138.445ZM154.387 195.46V198H146.529V195.46H154.387ZM164.169 190.909V193.295H156.643V190.909H164.169ZM158.501 187.773H161.587V200.062C161.587 200.477 161.649 200.795 161.774 201.017C161.905 201.233 162.075 201.381 162.286 201.46C162.496 201.54 162.729 201.58 162.984 201.58C163.178 201.58 163.354 201.565 163.513 201.537C163.678 201.509 163.803 201.483 163.888 201.46L164.408 203.872C164.243 203.929 164.007 203.991 163.7 204.06C163.399 204.128 163.03 204.168 162.592 204.179C161.82 204.202 161.124 204.085 160.504 203.83C159.885 203.568 159.393 203.165 159.03 202.619C158.672 202.074 158.496 201.392 158.501 200.574V187.773ZM166.715 204V201.716L172.775 195.776C173.354 195.19 173.837 194.67 174.224 194.216C174.61 193.761 174.9 193.321 175.093 192.895C175.286 192.469 175.383 192.014 175.383 191.531C175.383 190.98 175.258 190.509 175.008 190.116C174.758 189.719 174.414 189.412 173.977 189.196C173.539 188.98 173.042 188.872 172.485 188.872C171.911 188.872 171.408 188.991 170.977 189.23C170.545 189.463 170.21 189.795 169.971 190.227C169.738 190.659 169.621 191.173 169.621 191.77H166.613C166.613 190.662 166.866 189.699 167.371 188.881C167.877 188.062 168.573 187.429 169.46 186.98C170.352 186.531 171.374 186.307 172.528 186.307C173.698 186.307 174.727 186.526 175.613 186.963C176.499 187.401 177.187 188 177.675 188.761C178.17 189.523 178.417 190.392 178.417 191.369C178.417 192.023 178.292 192.665 178.042 193.295C177.792 193.926 177.352 194.625 176.721 195.392C176.096 196.159 175.218 197.088 174.087 198.179L171.079 201.239V201.358H178.681V204H166.715ZM189.59 195.46V198H181.732V195.46H189.59ZM203.182 194.369L200.369 194.676C200.29 194.392 200.151 194.125 199.952 193.875C199.759 193.625 199.497 193.423 199.168 193.27C198.838 193.116 198.435 193.04 197.957 193.04C197.315 193.04 196.776 193.179 196.338 193.457C195.906 193.736 195.693 194.097 195.699 194.54C195.693 194.92 195.832 195.23 196.116 195.469C196.406 195.707 196.884 195.903 197.548 196.057L199.781 196.534C201.02 196.801 201.94 197.224 202.543 197.804C203.151 198.384 203.457 199.142 203.463 200.08C203.457 200.903 203.216 201.631 202.739 202.261C202.267 202.886 201.611 203.375 200.77 203.727C199.929 204.08 198.963 204.256 197.872 204.256C196.27 204.256 194.98 203.92 194.003 203.25C193.026 202.574 192.443 201.634 192.256 200.429L195.264 200.139C195.401 200.73 195.69 201.176 196.134 201.477C196.577 201.778 197.153 201.929 197.864 201.929C198.597 201.929 199.185 201.778 199.628 201.477C200.077 201.176 200.301 200.804 200.301 200.361C200.301 199.986 200.156 199.676 199.866 199.432C199.582 199.187 199.139 199 198.537 198.869L196.304 198.401C195.048 198.139 194.119 197.699 193.517 197.08C192.915 196.455 192.616 195.665 192.622 194.71C192.616 193.903 192.835 193.205 193.278 192.614C193.727 192.017 194.349 191.557 195.145 191.233C195.946 190.903 196.869 190.739 197.915 190.739C199.449 190.739 200.656 191.065 201.537 191.719C202.423 192.372 202.972 193.256 203.182 194.369ZM212.544 190.909V193.295H205.018V190.909H212.544ZM206.876 187.773H209.962V200.062C209.962 200.477 210.024 200.795 210.149 201.017C210.28 201.233 210.45 201.381 210.661 201.46C210.871 201.54 211.104 201.58 211.359 201.58C211.553 201.58 211.729 201.565 211.888 201.537C212.053 201.509 212.178 201.483 212.263 201.46L212.783 203.872C212.618 203.929 212.382 203.991 212.075 204.06C211.774 204.128 211.405 204.168 210.967 204.179C210.195 204.202 209.499 204.085 208.879 203.83C208.26 203.568 207.768 203.165 207.405 202.619C207.047 202.074 206.871 201.392 206.876 200.574V187.773ZM215.542 204V191.105C215.542 190.111 215.778 189.256 216.249 188.54C216.721 187.818 217.383 187.267 218.235 186.886C219.093 186.5 220.09 186.307 221.227 186.307C222.3 186.307 223.281 186.486 224.167 186.844C225.053 187.202 225.758 187.727 226.281 188.42C226.803 189.108 227.065 189.955 227.065 190.96C227.065 191.892 226.829 192.685 226.357 193.338C225.891 193.991 225.263 194.437 224.474 194.676V194.864C225.599 194.949 226.502 195.386 227.184 196.176C227.866 196.966 228.204 197.972 228.198 199.193C228.198 200.182 227.968 201.037 227.508 201.759C227.053 202.474 226.417 203.028 225.599 203.42C224.786 203.807 223.843 204 222.769 204H220.596V201.401H222.394C222.94 201.401 223.414 201.298 223.817 201.094C224.221 200.889 224.533 200.605 224.755 200.241C224.977 199.872 225.087 199.446 225.087 198.963C225.082 198.207 224.809 197.594 224.269 197.122C223.729 196.651 222.999 196.415 222.079 196.415H220.664V193.892H221.636C222.102 193.892 222.505 193.778 222.846 193.551C223.187 193.318 223.451 193.014 223.638 192.639C223.826 192.259 223.923 191.849 223.928 191.412C223.928 190.713 223.695 190.131 223.229 189.665C222.769 189.193 222.13 188.957 221.312 188.957C220.522 188.957 219.877 189.188 219.377 189.648C218.877 190.108 218.627 190.713 218.627 191.463V204H215.542ZM230.898 204V190.909H233.889V193.091H234.026C234.264 192.335 234.673 191.753 235.253 191.344C235.838 190.929 236.506 190.722 237.256 190.722C237.426 190.722 237.616 190.73 237.827 190.747C238.043 190.759 238.222 190.778 238.364 190.807V193.645C238.233 193.599 238.026 193.56 237.741 193.526C237.463 193.486 237.193 193.466 236.932 193.466C236.369 193.466 235.864 193.588 235.415 193.832C234.972 194.071 234.622 194.403 234.366 194.83C234.111 195.256 233.983 195.747 233.983 196.304V204H230.898ZM243.499 196.33V204H240.413V190.909H243.362V193.134H243.516C243.817 192.401 244.297 191.818 244.956 191.386C245.621 190.955 246.442 190.739 247.419 190.739C248.322 190.739 249.109 190.932 249.78 191.318C250.456 191.705 250.979 192.264 251.348 192.997C251.723 193.73 251.908 194.619 251.902 195.665V204H248.817V196.142C248.817 195.267 248.589 194.582 248.135 194.088C247.686 193.594 247.064 193.347 246.268 193.347C245.729 193.347 245.249 193.466 244.828 193.705C244.413 193.937 244.087 194.276 243.848 194.719C243.615 195.162 243.499 195.699 243.499 196.33ZM260.732 209.182C259.624 209.182 258.672 209.031 257.876 208.73C257.081 208.435 256.442 208.037 255.959 207.537C255.476 207.037 255.141 206.483 254.953 205.875L257.732 205.202C257.857 205.457 258.038 205.71 258.277 205.96C258.516 206.216 258.837 206.426 259.24 206.591C259.649 206.761 260.163 206.847 260.783 206.847C261.658 206.847 262.382 206.634 262.956 206.207C263.53 205.787 263.817 205.094 263.817 204.128V201.648H263.663C263.504 201.966 263.271 202.293 262.964 202.628C262.663 202.963 262.263 203.244 261.763 203.472C261.268 203.699 260.646 203.812 259.896 203.812C258.891 203.812 257.979 203.577 257.161 203.105C256.348 202.628 255.7 201.918 255.217 200.974C254.74 200.026 254.501 198.838 254.501 197.412C254.501 195.974 254.74 194.761 255.217 193.773C255.7 192.778 256.351 192.026 257.169 191.514C257.987 190.997 258.899 190.739 259.905 190.739C260.672 190.739 261.303 190.869 261.797 191.131C262.297 191.386 262.695 191.696 262.99 192.06C263.286 192.418 263.51 192.756 263.663 193.074H263.834V190.909H266.876V204.213C266.876 205.332 266.609 206.259 266.075 206.991C265.541 207.724 264.811 208.273 263.885 208.636C262.959 209 261.908 209.182 260.732 209.182ZM260.757 201.392C261.411 201.392 261.967 201.233 262.428 200.915C262.888 200.597 263.237 200.139 263.476 199.543C263.714 198.946 263.834 198.23 263.834 197.395C263.834 196.571 263.714 195.849 263.476 195.23C263.243 194.611 262.896 194.131 262.436 193.79C261.982 193.443 261.422 193.27 260.757 193.27C260.07 193.27 259.496 193.449 259.036 193.807C258.575 194.165 258.229 194.656 257.996 195.281C257.763 195.901 257.646 196.605 257.646 197.395C257.646 198.196 257.763 198.898 257.996 199.5C258.234 200.097 258.584 200.562 259.044 200.898C259.51 201.227 260.081 201.392 260.757 201.392ZM277.973 195.46V198H270.115V195.46H277.973ZM85.5852 237.909V219.909H88.6193V222.074H88.7983C88.9574 221.756 89.1818 221.418 89.4716 221.06C89.7614 220.696 90.1534 220.386 90.6477 220.131C91.142 219.869 91.7727 219.739 92.5398 219.739C93.5511 219.739 94.4631 219.997 95.2756 220.514C96.0938 221.026 96.7415 221.784 97.2188 222.79C97.7017 223.79 97.9432 225.017 97.9432 226.472C97.9432 227.909 97.7074 229.131 97.2358 230.136C96.7642 231.142 96.1222 231.909 95.3097 232.438C94.4972 232.966 93.5767 233.23 92.5483 233.23C91.7983 233.23 91.1761 233.105 90.6818 232.855C90.1875 232.605 89.7898 232.304 89.4886 231.952C89.1932 231.594 88.9631 231.256 88.7983 230.938H88.6705V237.909H85.5852ZM88.6108 226.455C88.6108 227.301 88.7301 228.043 88.9688 228.679C89.2131 229.315 89.5625 229.812 90.017 230.17C90.4773 230.523 91.0341 230.699 91.6875 230.699C92.3693 230.699 92.9403 230.517 93.4006 230.153C93.8608 229.784 94.2074 229.281 94.4403 228.645C94.679 228.003 94.7983 227.273 94.7983 226.455C94.7983 225.642 94.6818 224.92 94.4489 224.29C94.2159 223.659 93.8693 223.165 93.4091 222.807C92.9489 222.449 92.375 222.27 91.6875 222.27C91.0284 222.27 90.4688 222.443 90.0085 222.79C89.5483 223.136 89.1989 223.622 88.9602 224.247C88.7273 224.872 88.6108 225.608 88.6108 226.455ZM111.554 237.892C109.764 237.892 108.173 237.648 106.781 237.159C105.395 236.676 104.224 235.963 103.27 235.02C102.315 234.082 101.591 232.938 101.097 231.585C100.602 230.233 100.352 228.688 100.347 226.949C100.352 225.25 100.605 223.719 101.105 222.355C101.605 220.986 102.335 219.815 103.295 218.844C104.256 217.866 105.429 217.116 106.815 216.594C108.202 216.071 109.778 215.81 111.545 215.81C113.21 215.81 114.685 216.062 115.969 216.568C117.259 217.074 118.347 217.778 119.233 218.682C120.125 219.58 120.798 220.631 121.253 221.835C121.713 223.034 121.943 224.335 121.943 225.739C121.943 226.71 121.869 227.631 121.722 228.5C121.574 229.364 121.321 230.131 120.963 230.801C120.611 231.472 120.131 232.006 119.523 232.403C118.915 232.795 118.153 233.009 117.239 233.043C116.665 233.071 116.162 233.017 115.73 232.881C115.298 232.744 114.949 232.531 114.682 232.241C114.42 231.946 114.256 231.585 114.188 231.159H114.085C113.955 231.5 113.707 231.812 113.344 232.097C112.986 232.375 112.543 232.594 112.014 232.753C111.486 232.906 110.898 232.969 110.25 232.94C109.557 232.906 108.915 232.747 108.324 232.463C107.739 232.173 107.227 231.77 106.79 231.253C106.358 230.73 106.023 230.099 105.784 229.361C105.545 228.622 105.426 227.784 105.426 226.847C105.426 225.932 105.557 225.125 105.818 224.426C106.08 223.727 106.429 223.131 106.866 222.636C107.31 222.142 107.81 221.756 108.366 221.477C108.923 221.193 109.497 221.011 110.088 220.932C110.702 220.847 111.278 220.855 111.818 220.957C112.358 221.06 112.807 221.216 113.165 221.426C113.528 221.636 113.756 221.866 113.847 222.116H113.966V221.162H116.344V229.276C116.349 229.702 116.452 230.045 116.651 230.307C116.855 230.568 117.139 230.699 117.503 230.699C117.957 230.699 118.324 230.52 118.602 230.162C118.886 229.798 119.091 229.241 119.216 228.491C119.347 227.736 119.409 226.77 119.403 225.594C119.409 224.628 119.281 223.753 119.02 222.969C118.764 222.179 118.401 221.486 117.929 220.889C117.457 220.293 116.892 219.795 116.233 219.398C115.58 218.994 114.852 218.69 114.051 218.486C113.25 218.281 112.395 218.179 111.486 218.179C110.094 218.179 108.869 218.392 107.812 218.818C106.756 219.239 105.869 219.838 105.153 220.616C104.443 221.395 103.906 222.318 103.543 223.386C103.185 224.449 103.006 225.625 103.006 226.915C103.006 228.295 103.193 229.52 103.568 230.588C103.949 231.651 104.506 232.545 105.239 233.273C105.972 234 106.878 234.551 107.957 234.926C109.043 235.301 110.29 235.489 111.699 235.489C112.347 235.489 112.98 235.438 113.599 235.335C114.219 235.233 114.776 235.114 115.27 234.977C115.764 234.841 116.145 234.722 116.412 234.619L117.136 236.784C116.784 236.966 116.307 237.142 115.705 237.312C115.108 237.483 114.449 237.622 113.727 237.73C113.011 237.838 112.287 237.892 111.554 237.892ZM110.957 230.494C111.679 230.494 112.256 230.355 112.688 230.077C113.119 229.793 113.429 229.372 113.616 228.815C113.804 228.259 113.895 227.565 113.889 226.736C113.889 225.963 113.793 225.33 113.599 224.835C113.406 224.341 113.097 223.974 112.67 223.736C112.244 223.497 111.679 223.378 110.974 223.378C110.338 223.378 109.795 223.523 109.347 223.812C108.903 224.102 108.563 224.503 108.324 225.014C108.091 225.52 107.974 226.097 107.974 226.744C107.974 227.392 108.068 228.003 108.256 228.577C108.449 229.145 108.761 229.608 109.193 229.966C109.631 230.318 110.219 230.494 110.957 230.494ZM134.908 223.369L132.096 223.676C132.016 223.392 131.877 223.125 131.678 222.875C131.485 222.625 131.224 222.423 130.894 222.27C130.565 222.116 130.161 222.04 129.684 222.04C129.042 222.04 128.502 222.179 128.065 222.457C127.633 222.736 127.42 223.097 127.425 223.54C127.42 223.92 127.559 224.23 127.843 224.469C128.133 224.707 128.61 224.903 129.275 225.057L131.508 225.534C132.746 225.801 133.667 226.224 134.269 226.804C134.877 227.384 135.184 228.142 135.19 229.08C135.184 229.903 134.942 230.631 134.465 231.261C133.994 231.886 133.337 232.375 132.496 232.727C131.656 233.08 130.69 233.256 129.599 233.256C127.996 233.256 126.707 232.92 125.729 232.25C124.752 231.574 124.17 230.634 123.982 229.429L126.991 229.139C127.127 229.73 127.417 230.176 127.86 230.477C128.303 230.778 128.88 230.929 129.59 230.929C130.323 230.929 130.911 230.778 131.354 230.477C131.803 230.176 132.028 229.804 132.028 229.361C132.028 228.986 131.883 228.676 131.593 228.432C131.309 228.187 130.866 228 130.263 227.869L128.031 227.401C126.775 227.139 125.846 226.699 125.244 226.08C124.641 225.455 124.343 224.665 124.349 223.71C124.343 222.903 124.562 222.205 125.005 221.614C125.454 221.017 126.076 220.557 126.871 220.233C127.673 219.903 128.596 219.739 129.641 219.739C131.175 219.739 132.383 220.065 133.263 220.719C134.15 221.372 134.698 222.256 134.908 223.369ZM148.08 223.369L145.268 223.676C145.188 223.392 145.049 223.125 144.85 222.875C144.657 222.625 144.396 222.423 144.066 222.27C143.737 222.116 143.333 222.04 142.856 222.04C142.214 222.04 141.674 222.179 141.237 222.457C140.805 222.736 140.592 223.097 140.597 223.54C140.592 223.92 140.731 224.23 141.015 224.469C141.305 224.707 141.782 224.903 142.447 225.057L144.68 225.534C145.918 225.801 146.839 226.224 147.441 226.804C148.049 227.384 148.356 228.142 148.362 229.08C148.356 229.903 148.114 230.631 147.637 231.261C147.165 231.886 146.509 232.375 145.668 232.727C144.827 233.08 143.862 233.256 142.771 233.256C141.168 233.256 139.879 232.92 138.901 232.25C137.924 231.574 137.342 230.634 137.154 229.429L140.163 229.139C140.299 229.73 140.589 230.176 141.032 230.477C141.475 230.778 142.052 230.929 142.762 230.929C143.495 230.929 144.083 230.778 144.526 230.477C144.975 230.176 145.2 229.804 145.2 229.361C145.2 228.986 145.055 228.676 144.765 228.432C144.481 228.187 144.038 228 143.435 227.869L141.202 227.401C139.947 227.139 139.018 226.699 138.415 226.08C137.813 225.455 137.515 224.665 137.521 223.71C137.515 222.903 137.734 222.205 138.177 221.614C138.626 221.017 139.248 220.557 140.043 220.233C140.844 219.903 141.768 219.739 142.813 219.739C144.347 219.739 145.555 220.065 146.435 220.719C147.322 221.372 147.87 222.256 148.08 223.369ZM153.607 233L149.908 219.909H153.053L155.354 229.114H155.474L157.826 219.909H160.937L163.289 229.062H163.417L165.684 219.909H168.837L165.13 233H161.917L159.462 224.153H159.283L156.829 233H153.607ZM177.409 233.332C176.006 233.332 174.801 232.977 173.795 232.267C172.795 231.551 172.026 230.52 171.486 229.173C170.952 227.821 170.685 226.193 170.685 224.29C170.69 222.386 170.96 220.767 171.494 219.432C172.034 218.091 172.804 217.068 173.804 216.364C174.81 215.659 176.011 215.307 177.409 215.307C178.807 215.307 180.009 215.659 181.014 216.364C182.02 217.068 182.79 218.091 183.324 219.432C183.864 220.773 184.134 222.392 184.134 224.29C184.134 226.199 183.864 227.83 183.324 229.182C182.79 230.528 182.02 231.557 181.014 232.267C180.014 232.977 178.813 233.332 177.409 233.332ZM177.409 230.665C178.5 230.665 179.361 230.128 179.991 229.054C180.628 227.974 180.946 226.386 180.946 224.29C180.946 222.903 180.801 221.739 180.511 220.795C180.222 219.852 179.813 219.142 179.284 218.665C178.756 218.182 178.131 217.94 177.409 217.94C176.324 217.94 175.466 218.48 174.835 219.56C174.205 220.634 173.886 222.21 173.881 224.29C173.875 225.682 174.014 226.852 174.298 227.801C174.588 228.75 174.997 229.466 175.526 229.949C176.054 230.426 176.682 230.665 177.409 230.665ZM186.999 233V219.909H189.991V222.091H190.127C190.366 221.335 190.775 220.753 191.354 220.344C191.94 219.929 192.607 219.722 193.357 219.722C193.528 219.722 193.718 219.73 193.928 219.747C194.144 219.759 194.323 219.778 194.465 219.807V222.645C194.335 222.599 194.127 222.56 193.843 222.526C193.565 222.486 193.295 222.466 193.033 222.466C192.471 222.466 191.965 222.588 191.516 222.832C191.073 223.071 190.724 223.403 190.468 223.83C190.212 224.256 190.085 224.747 190.085 225.304V233H186.999ZM206.137 220.344C206.058 219.599 205.722 219.02 205.131 218.605C204.546 218.19 203.785 217.983 202.847 217.983C202.188 217.983 201.623 218.082 201.151 218.281C200.68 218.48 200.319 218.75 200.069 219.091C199.819 219.432 199.691 219.821 199.685 220.259C199.685 220.622 199.768 220.937 199.933 221.205C200.103 221.472 200.333 221.699 200.623 221.886C200.913 222.068 201.234 222.222 201.586 222.347C201.938 222.472 202.293 222.577 202.651 222.662L204.288 223.071C204.947 223.224 205.58 223.432 206.188 223.693C206.802 223.955 207.35 224.284 207.833 224.682C208.322 225.08 208.708 225.56 208.992 226.122C209.276 226.685 209.418 227.344 209.418 228.099C209.418 229.122 209.157 230.023 208.634 230.801C208.112 231.574 207.356 232.179 206.367 232.616C205.384 233.048 204.194 233.264 202.796 233.264C201.438 233.264 200.259 233.054 199.259 232.634C198.265 232.213 197.487 231.599 196.924 230.793C196.367 229.986 196.066 229.003 196.021 227.844H199.131C199.177 228.452 199.364 228.957 199.694 229.361C200.023 229.764 200.452 230.065 200.981 230.264C201.515 230.463 202.112 230.562 202.771 230.562C203.458 230.562 204.06 230.46 204.577 230.256C205.1 230.045 205.509 229.756 205.805 229.386C206.1 229.011 206.251 228.574 206.256 228.074C206.251 227.619 206.117 227.244 205.856 226.949C205.594 226.648 205.228 226.398 204.756 226.199C204.29 225.994 203.745 225.812 203.12 225.653L201.134 225.142C199.697 224.773 198.56 224.213 197.725 223.463C196.896 222.707 196.481 221.705 196.481 220.455C196.481 219.426 196.759 218.526 197.316 217.753C197.879 216.98 198.643 216.381 199.609 215.955C200.575 215.523 201.668 215.307 202.89 215.307C204.129 215.307 205.214 215.523 206.146 215.955C207.083 216.381 207.819 216.974 208.353 217.736C208.887 218.491 209.163 219.361 209.18 220.344H206.137ZM66.0043 258.795C65.3168 258.795 64.6889 258.628 64.1207 258.293C63.5526 257.952 63.098 257.497 62.7571 256.929C62.4219 256.361 62.2543 255.733 62.2543 255.045C62.2543 254.352 62.4219 253.724 62.7571 253.162C63.098 252.594 63.5526 252.142 64.1207 251.807C64.6889 251.466 65.3168 251.295 66.0043 251.295C66.6974 251.295 67.3253 251.466 67.8878 251.807C68.456 252.142 68.9077 252.594 69.2429 253.162C69.5838 253.724 69.7543 254.352 69.7543 255.045C69.7543 255.733 69.5838 256.361 69.2429 256.929C68.9077 257.497 68.456 257.952 67.8878 258.293C67.3253 258.628 66.6974 258.795 66.0043 258.795ZM85.7216 262V244.545H92.267C93.608 244.545 94.733 244.778 95.642 245.244C96.5568 245.71 97.2472 246.364 97.7131 247.205C98.1847 248.04 98.4205 249.014 98.4205 250.128C98.4205 251.247 98.1818 252.219 97.7045 253.043C97.233 253.861 96.5369 254.494 95.6165 254.943C94.696 255.386 93.5653 255.608 92.2244 255.608H87.5625V252.983H91.7983C92.5824 252.983 93.2244 252.875 93.7244 252.659C94.2244 252.437 94.5938 252.116 94.8324 251.696C95.0767 251.27 95.1989 250.747 95.1989 250.128C95.1989 249.509 95.0767 248.98 94.8324 248.543C94.5881 248.099 94.2159 247.764 93.7159 247.537C93.2159 247.304 92.571 247.188 91.7812 247.188H88.8835V262H85.7216ZM94.7386 254.091L99.0597 262H95.5312L91.2869 254.091H94.7386ZM107.774 262L110.638 244.545H113.024L110.161 262H107.774ZM99.9077 257.5L100.308 255.114H113.74L113.339 257.5H99.9077ZM101.638 262L104.501 244.545H106.888L104.024 262H101.638ZM100.922 251.432L101.314 249.045H114.746L114.354 251.432H100.922ZM126.646 248.807H123.867C123.867 248.273 123.705 247.827 123.381 247.469C123.063 247.111 122.572 246.932 121.907 246.932C121.538 246.932 121.211 246.994 120.927 247.119C120.648 247.239 120.433 247.406 120.279 247.622C120.126 247.832 120.049 248.074 120.049 248.347C120.049 248.642 120.137 248.915 120.313 249.165C120.495 249.415 120.717 249.634 120.978 249.821C121.245 250.003 121.498 250.151 121.737 250.264L125.018 251.926C125.239 252.034 125.506 252.187 125.819 252.386C126.131 252.58 126.433 252.832 126.722 253.145C127.012 253.452 127.245 253.824 127.421 254.261C127.603 254.693 127.677 255.205 127.643 255.795C127.614 256.25 127.481 256.656 127.242 257.014C127.004 257.372 126.717 257.67 126.381 257.909C126.052 258.142 125.731 258.307 125.418 258.403L125.393 258.438C125.847 258.835 126.188 259.287 126.415 259.793C126.643 260.298 126.759 260.858 126.765 261.472C126.765 262.347 126.546 263.085 126.109 263.688C125.677 264.295 125.097 264.753 124.37 265.06C123.648 265.372 122.844 265.528 121.958 265.528C120.958 265.528 120.075 265.341 119.308 264.966C118.54 264.591 117.941 264.06 117.509 263.372C117.083 262.69 116.87 261.881 116.87 260.943H119.665C119.66 261.58 119.867 262.068 120.288 262.409C120.714 262.75 121.279 262.912 121.984 262.895C122.484 262.889 122.935 262.77 123.339 262.537C123.748 262.31 123.955 261.955 123.961 261.472C123.961 261.131 123.87 260.841 123.688 260.602C123.506 260.358 123.285 260.153 123.023 259.989C122.768 259.818 122.526 259.673 122.299 259.554L119.018 257.926C118.79 257.818 118.521 257.665 118.208 257.466C117.896 257.267 117.594 257.011 117.305 256.699C117.015 256.386 116.779 256.011 116.597 255.574C116.415 255.131 116.342 254.614 116.376 254.023C116.404 253.568 116.529 253.162 116.751 252.804C116.978 252.446 117.256 252.148 117.586 251.909C117.921 251.67 118.265 251.5 118.617 251.398V251.355C118.208 250.957 117.879 250.514 117.629 250.026C117.379 249.531 117.254 248.972 117.254 248.347C117.254 247.574 117.452 246.884 117.85 246.276C118.248 245.662 118.796 245.182 119.495 244.835C120.194 244.483 120.998 244.307 121.907 244.307C122.862 244.307 123.694 244.5 124.404 244.886C125.114 245.273 125.665 245.807 126.058 246.489C126.45 247.165 126.646 247.937 126.646 248.807ZM125.026 255.915C125.049 255.676 125.001 255.452 124.881 255.241C124.768 255.026 124.597 254.827 124.37 254.645C124.148 254.463 123.884 254.298 123.577 254.151L120.56 252.642C120.344 252.534 120.114 252.523 119.87 252.608C119.631 252.693 119.427 252.852 119.256 253.085C119.086 253.312 118.992 253.585 118.975 253.903C118.947 254.284 119.069 254.622 119.342 254.918C119.614 255.207 119.984 255.463 120.45 255.685L123.398 257.142C123.597 257.244 123.819 257.256 124.063 257.176C124.313 257.091 124.532 256.94 124.719 256.724C124.907 256.503 125.009 256.233 125.026 255.915ZM134.305 262.264C133.476 262.264 132.729 262.116 132.064 261.821C131.405 261.52 130.882 261.077 130.496 260.491C130.115 259.906 129.925 259.185 129.925 258.327C129.925 257.588 130.061 256.977 130.334 256.494C130.607 256.011 130.979 255.625 131.45 255.335C131.922 255.045 132.453 254.827 133.044 254.679C133.641 254.526 134.257 254.415 134.893 254.347C135.661 254.267 136.283 254.196 136.76 254.134C137.237 254.065 137.584 253.963 137.8 253.827C138.021 253.685 138.132 253.466 138.132 253.17V253.119C138.132 252.477 137.942 251.98 137.561 251.628C137.18 251.276 136.632 251.099 135.916 251.099C135.161 251.099 134.561 251.264 134.118 251.594C133.68 251.923 133.385 252.312 133.232 252.761L130.351 252.352C130.578 251.557 130.953 250.892 131.476 250.358C131.999 249.818 132.638 249.415 133.393 249.148C134.149 248.875 134.984 248.739 135.899 248.739C136.53 248.739 137.158 248.812 137.783 248.96C138.408 249.108 138.979 249.352 139.496 249.693C140.013 250.028 140.428 250.486 140.74 251.065C141.058 251.645 141.217 252.369 141.217 253.239V262H138.251V260.202H138.149C137.962 260.565 137.697 260.906 137.357 261.224C137.021 261.537 136.598 261.79 136.087 261.983C135.581 262.17 134.987 262.264 134.305 262.264ZM135.107 259.997C135.726 259.997 136.263 259.875 136.717 259.631C137.172 259.381 137.521 259.051 137.766 258.642C138.016 258.233 138.141 257.787 138.141 257.304V255.761C138.044 255.841 137.879 255.915 137.646 255.983C137.419 256.051 137.163 256.111 136.879 256.162C136.595 256.213 136.314 256.259 136.036 256.298C135.757 256.338 135.516 256.372 135.311 256.401C134.851 256.463 134.439 256.565 134.075 256.707C133.712 256.849 133.425 257.048 133.214 257.304C133.004 257.554 132.899 257.878 132.899 258.276C132.899 258.844 133.107 259.273 133.521 259.562C133.936 259.852 134.464 259.997 135.107 259.997ZM154.666 252.369L151.854 252.676C151.774 252.392 151.635 252.125 151.436 251.875C151.243 251.625 150.982 251.423 150.652 251.27C150.322 251.116 149.919 251.04 149.442 251.04C148.8 251.04 148.26 251.179 147.822 251.457C147.391 251.736 147.178 252.097 147.183 252.54C147.178 252.92 147.317 253.23 147.601 253.469C147.891 253.707 148.368 253.903 149.033 254.057L151.266 254.534C152.504 254.801 153.425 255.224 154.027 255.804C154.635 256.384 154.942 257.142 154.947 258.08C154.942 258.903 154.7 259.631 154.223 260.261C153.751 260.886 153.095 261.375 152.254 261.727C151.413 262.08 150.447 262.256 149.357 262.256C147.754 262.256 146.464 261.92 145.487 261.25C144.51 260.574 143.928 259.634 143.74 258.429L146.749 258.139C146.885 258.73 147.175 259.176 147.618 259.477C148.061 259.778 148.638 259.929 149.348 259.929C150.081 259.929 150.669 259.778 151.112 259.477C151.561 259.176 151.786 258.804 151.786 258.361C151.786 257.986 151.641 257.676 151.351 257.432C151.067 257.187 150.624 257 150.021 256.869L147.788 256.401C146.533 256.139 145.604 255.699 145.001 255.08C144.399 254.455 144.101 253.665 144.107 252.71C144.101 251.903 144.32 251.205 144.763 250.614C145.212 250.017 145.834 249.557 146.629 249.233C147.43 248.903 148.354 248.739 149.399 248.739C150.933 248.739 152.141 249.065 153.021 249.719C153.908 250.372 154.456 251.256 154.666 252.369ZM164.122 248.909V251.295H156.384V248.909H164.122ZM158.318 262V247.673C158.318 246.793 158.5 246.06 158.864 245.474C159.233 244.889 159.727 244.452 160.347 244.162C160.966 243.872 161.653 243.727 162.409 243.727C162.943 243.727 163.418 243.77 163.832 243.855C164.247 243.94 164.554 244.017 164.753 244.085L164.139 246.472C164.009 246.432 163.844 246.392 163.645 246.352C163.446 246.307 163.224 246.284 162.98 246.284C162.406 246.284 162 246.423 161.761 246.702C161.528 246.974 161.412 247.366 161.412 247.878V262H158.318ZM164.689 258.761V256.247L172.095 244.545H174.192V248.125H172.913L167.928 256.026V256.162H178.266V258.761H164.689ZM173.016 262V257.994L173.05 256.869V244.545H176.033V262H173.016ZM184.918 258.182L185.114 254.73L182.216 256.631L181.176 254.824L184.27 253.273L181.176 251.722L182.216 249.915L185.114 251.815L184.918 248.364H186.989L186.801 251.815L189.699 249.915L190.739 251.722L187.636 253.273L190.739 254.824L189.699 256.631L186.801 254.73L186.989 258.182H184.918ZM194.02 262V259.716L200.08 253.776C200.659 253.19 201.142 252.67 201.528 252.216C201.915 251.761 202.205 251.321 202.398 250.895C202.591 250.469 202.688 250.014 202.688 249.531C202.688 248.98 202.562 248.509 202.312 248.116C202.062 247.719 201.719 247.412 201.281 247.196C200.844 246.98 200.347 246.872 199.79 246.872C199.216 246.872 198.713 246.991 198.281 247.23C197.849 247.463 197.514 247.795 197.276 248.227C197.043 248.659 196.926 249.173 196.926 249.77H193.918C193.918 248.662 194.17 247.699 194.676 246.881C195.182 246.062 195.878 245.429 196.764 244.98C197.656 244.531 198.679 244.307 199.832 244.307C201.003 244.307 202.031 244.526 202.918 244.963C203.804 245.401 204.491 246 204.98 246.761C205.474 247.523 205.722 248.392 205.722 249.369C205.722 250.023 205.597 250.665 205.347 251.295C205.097 251.926 204.656 252.625 204.026 253.392C203.401 254.159 202.523 255.088 201.392 256.179L198.384 259.239V259.358H205.986V262H194.02ZM216.026 244.545V262H212.864V247.622H212.761L208.679 250.23V247.332L213.017 244.545H216.026ZM226.526 262.239C225.389 262.239 224.372 262.026 223.474 261.599C222.577 261.168 221.864 260.577 221.335 259.827C220.813 259.077 220.534 258.219 220.5 257.253H223.568C223.625 257.969 223.935 258.554 224.497 259.009C225.06 259.457 225.736 259.682 226.526 259.682C227.145 259.682 227.696 259.54 228.179 259.256C228.662 258.972 229.043 258.577 229.321 258.071C229.599 257.565 229.736 256.989 229.73 256.341C229.736 255.682 229.597 255.097 229.312 254.585C229.028 254.074 228.639 253.673 228.145 253.384C227.651 253.088 227.082 252.94 226.44 252.94C225.918 252.935 225.403 253.031 224.898 253.23C224.392 253.429 223.991 253.69 223.696 254.014L220.841 253.545L221.753 244.545H231.878V247.188H224.369L223.866 251.815H223.969C224.293 251.435 224.75 251.119 225.341 250.869C225.932 250.614 226.58 250.486 227.284 250.486C228.341 250.486 229.284 250.736 230.114 251.236C230.943 251.73 231.597 252.412 232.074 253.281C232.551 254.151 232.79 255.145 232.79 256.264C232.79 257.418 232.523 258.446 231.989 259.349C231.46 260.247 230.724 260.955 229.781 261.472C228.844 261.983 227.759 262.239 226.526 262.239ZM240.537 262.23C239.509 262.23 238.588 261.966 237.776 261.438C236.963 260.909 236.321 260.142 235.849 259.136C235.378 258.131 235.142 256.909 235.142 255.472C235.142 254.017 235.381 252.79 235.858 251.79C236.341 250.784 236.991 250.026 237.81 249.514C238.628 248.997 239.54 248.739 240.545 248.739C241.313 248.739 241.943 248.869 242.438 249.131C242.932 249.386 243.324 249.696 243.614 250.06C243.903 250.418 244.128 250.756 244.287 251.074H244.415V244.545H247.509V262H244.474V259.938H244.287C244.128 260.256 243.898 260.594 243.597 260.952C243.295 261.304 242.898 261.605 242.403 261.855C241.909 262.105 241.287 262.23 240.537 262.23ZM241.398 259.699C242.051 259.699 242.608 259.523 243.068 259.17C243.528 258.812 243.878 258.315 244.116 257.679C244.355 257.043 244.474 256.301 244.474 255.455C244.474 254.608 244.355 253.872 244.116 253.247C243.884 252.622 243.537 252.136 243.077 251.79C242.622 251.443 242.063 251.27 241.398 251.27C240.71 251.27 240.136 251.449 239.676 251.807C239.216 252.165 238.869 252.659 238.636 253.29C238.403 253.92 238.287 254.642 238.287 255.455C238.287 256.273 238.403 257.003 238.636 257.645C238.875 258.281 239.224 258.784 239.685 259.153C240.151 259.517 240.722 259.699 241.398 259.699ZM254.563 262.264C253.734 262.264 252.987 262.116 252.322 261.821C251.663 261.52 251.14 261.077 250.754 260.491C250.373 259.906 250.183 259.185 250.183 258.327C250.183 257.588 250.319 256.977 250.592 256.494C250.864 256.011 251.237 255.625 251.708 255.335C252.18 255.045 252.711 254.827 253.302 254.679C253.898 254.526 254.515 254.415 255.151 254.347C255.918 254.267 256.54 254.196 257.018 254.134C257.495 254.065 257.842 253.963 258.058 253.827C258.279 253.685 258.39 253.466 258.39 253.17V253.119C258.39 252.477 258.2 251.98 257.819 251.628C257.438 251.276 256.89 251.099 256.174 251.099C255.418 251.099 254.819 251.264 254.376 251.594C253.938 251.923 253.643 252.312 253.489 252.761L250.609 252.352C250.836 251.557 251.211 250.892 251.734 250.358C252.256 249.818 252.896 249.415 253.651 249.148C254.407 248.875 255.242 248.739 256.157 248.739C256.788 248.739 257.415 248.812 258.04 248.96C258.665 249.108 259.237 249.352 259.754 249.693C260.271 250.028 260.685 250.486 260.998 251.065C261.316 251.645 261.475 252.369 261.475 253.239V262H258.509V260.202H258.407C258.219 260.565 257.955 260.906 257.614 261.224C257.279 261.537 256.856 261.79 256.344 261.983C255.839 262.17 255.245 262.264 254.563 262.264ZM255.364 259.997C255.984 259.997 256.521 259.875 256.975 259.631C257.43 259.381 257.779 259.051 258.023 258.642C258.273 258.233 258.398 257.787 258.398 257.304V255.761C258.302 255.841 258.137 255.915 257.904 255.983C257.677 256.051 257.421 256.111 257.137 256.162C256.853 256.213 256.572 256.259 256.293 256.298C256.015 256.338 255.773 256.372 255.569 256.401C255.109 256.463 254.697 256.565 254.333 256.707C253.969 256.849 253.683 257.048 253.472 257.304C253.262 257.554 253.157 257.878 253.157 258.276C253.157 258.844 253.364 259.273 253.779 259.562C254.194 259.852 254.722 259.997 255.364 259.997ZM66.0043 287.795C65.3168 287.795 64.6889 287.628 64.1207 287.293C63.5526 286.952 63.098 286.497 62.7571 285.929C62.4219 285.361 62.2543 284.733 62.2543 284.045C62.2543 283.352 62.4219 282.724 62.7571 282.162C63.098 281.594 63.5526 281.142 64.1207 280.807C64.6889 280.466 65.3168 280.295 66.0043 280.295C66.6974 280.295 67.3253 280.466 67.8878 280.807C68.456 281.142 68.9077 281.594 69.2429 282.162C69.5838 282.724 69.7543 283.352 69.7543 284.045C69.7543 284.733 69.5838 285.361 69.2429 285.929C68.9077 286.497 68.456 286.952 67.8878 287.293C67.3253 287.628 66.6974 287.795 66.0043 287.795ZM92.2159 277.909V280.295H84.4773V277.909H92.2159ZM86.4119 291V276.673C86.4119 275.793 86.5938 275.06 86.9574 274.474C87.3267 273.889 87.821 273.452 88.4403 273.162C89.0597 272.872 89.7472 272.727 90.5028 272.727C91.0369 272.727 91.5114 272.77 91.9261 272.855C92.3409 272.94 92.6477 273.017 92.8466 273.085L92.233 275.472C92.1023 275.432 91.9375 275.392 91.7386 275.352C91.5398 275.307 91.3182 275.284 91.0739 275.284C90.5 275.284 90.0938 275.423 89.8551 275.702C89.6222 275.974 89.5057 276.366 89.5057 276.878V291H86.4119ZM97.9538 291.264C97.1243 291.264 96.3771 291.116 95.7124 290.821C95.0533 290.52 94.5305 290.077 94.1442 289.491C93.7635 288.906 93.5732 288.185 93.5732 287.327C93.5732 286.588 93.7095 285.977 93.9822 285.494C94.255 285.011 94.6271 284.625 95.0987 284.335C95.5703 284.045 96.1016 283.827 96.6925 283.679C97.2891 283.526 97.9055 283.415 98.5419 283.347C99.3089 283.267 99.9311 283.196 100.408 283.134C100.886 283.065 101.232 282.963 101.448 282.827C101.67 282.685 101.781 282.466 101.781 282.17V282.119C101.781 281.477 101.59 280.98 101.21 280.628C100.829 280.276 100.281 280.099 99.5646 280.099C98.8089 280.099 98.2095 280.264 97.7663 280.594C97.3288 280.923 97.0334 281.312 96.88 281.761L93.9993 281.352C94.2266 280.557 94.6016 279.892 95.1243 279.358C95.647 278.818 96.2862 278.415 97.0419 278.148C97.7976 277.875 98.6328 277.739 99.5476 277.739C100.178 277.739 100.806 277.812 101.431 277.96C102.056 278.108 102.627 278.352 103.144 278.693C103.661 279.028 104.076 279.486 104.388 280.065C104.707 280.645 104.866 281.369 104.866 282.239V291H101.9V289.202H101.798C101.61 289.565 101.346 289.906 101.005 290.224C100.67 290.537 100.246 290.79 99.7351 290.983C99.2294 291.17 98.6357 291.264 97.9538 291.264ZM98.755 288.997C99.3743 288.997 99.9112 288.875 100.366 288.631C100.82 288.381 101.17 288.051 101.414 287.642C101.664 287.233 101.789 286.787 101.789 286.304V284.761C101.692 284.841 101.528 284.915 101.295 284.983C101.067 285.051 100.812 285.111 100.528 285.162C100.244 285.213 99.9624 285.259 99.6839 285.298C99.4055 285.338 99.1641 285.372 98.9595 285.401C98.4993 285.463 98.0874 285.565 97.7237 285.707C97.3601 285.849 97.0732 286.048 96.8629 286.304C96.6527 286.554 96.5476 286.878 96.5476 287.276C96.5476 287.844 96.755 288.273 97.1697 288.562C97.5845 288.852 98.1129 288.997 98.755 288.997ZM113.678 291.256C112.371 291.256 111.249 290.969 110.312 290.395C109.38 289.821 108.661 289.028 108.156 288.017C107.656 287 107.406 285.83 107.406 284.506C107.406 283.176 107.661 282.003 108.173 280.986C108.684 279.963 109.406 279.168 110.337 278.599C111.275 278.026 112.383 277.739 113.661 277.739C114.724 277.739 115.664 277.935 116.482 278.327C117.306 278.713 117.962 279.261 118.451 279.972C118.94 280.676 119.218 281.5 119.286 282.443H116.337C116.218 281.812 115.934 281.287 115.485 280.866C115.042 280.44 114.448 280.227 113.704 280.227C113.073 280.227 112.519 280.398 112.042 280.739C111.565 281.074 111.192 281.557 110.925 282.188C110.664 282.818 110.533 283.574 110.533 284.455C110.533 285.347 110.664 286.114 110.925 286.756C111.187 287.392 111.553 287.884 112.025 288.23C112.502 288.571 113.062 288.741 113.704 288.741C114.158 288.741 114.565 288.656 114.923 288.486C115.286 288.31 115.59 288.057 115.835 287.727C116.079 287.398 116.246 286.997 116.337 286.526H119.286C119.212 287.452 118.94 288.273 118.468 288.989C117.996 289.699 117.354 290.256 116.542 290.659C115.729 291.057 114.775 291.256 113.678 291.256ZM121.956 291V273.545H133.308V276.196H125.118V280.935H132.72V283.585H125.118V288.349H133.376V291H121.956ZM136.534 291V273.545H139.619V280.074H139.747C139.906 279.756 140.131 279.418 140.42 279.06C140.71 278.696 141.102 278.386 141.597 278.131C142.091 277.869 142.722 277.739 143.489 277.739C144.5 277.739 145.412 277.997 146.224 278.514C147.043 279.026 147.69 279.784 148.168 280.79C148.651 281.79 148.892 283.017 148.892 284.472C148.892 285.909 148.656 287.131 148.185 288.136C147.713 289.142 147.071 289.909 146.259 290.438C145.446 290.966 144.526 291.23 143.497 291.23C142.747 291.23 142.125 291.105 141.631 290.855C141.136 290.605 140.739 290.304 140.438 289.952C140.142 289.594 139.912 289.256 139.747 288.938H139.568V291H136.534ZM139.56 284.455C139.56 285.301 139.679 286.043 139.918 286.679C140.162 287.315 140.511 287.812 140.966 288.17C141.426 288.523 141.983 288.699 142.636 288.699C143.318 288.699 143.889 288.517 144.349 288.153C144.81 287.784 145.156 287.281 145.389 286.645C145.628 286.003 145.747 285.273 145.747 284.455C145.747 283.642 145.631 282.92 145.398 282.29C145.165 281.659 144.818 281.165 144.358 280.807C143.898 280.449 143.324 280.27 142.636 280.27C141.977 280.27 141.418 280.443 140.957 280.79C140.497 281.136 140.148 281.622 139.909 282.247C139.676 282.872 139.56 283.608 139.56 284.455ZM157.933 291.332C156.529 291.332 155.325 290.977 154.319 290.267C153.319 289.551 152.549 288.52 152.009 287.173C151.475 285.821 151.208 284.193 151.208 282.29C151.214 280.386 151.484 278.767 152.018 277.432C152.558 276.091 153.327 275.068 154.327 274.364C155.333 273.659 156.535 273.307 157.933 273.307C159.33 273.307 160.532 273.659 161.538 274.364C162.543 275.068 163.313 276.091 163.847 277.432C164.387 278.773 164.657 280.392 164.657 282.29C164.657 284.199 164.387 285.83 163.847 287.182C163.313 288.528 162.543 289.557 161.538 290.267C160.538 290.977 159.336 291.332 157.933 291.332ZM157.933 288.665C159.023 288.665 159.884 288.128 160.515 287.054C161.151 285.974 161.469 284.386 161.469 282.29C161.469 280.903 161.325 279.739 161.035 278.795C160.745 277.852 160.336 277.142 159.808 276.665C159.279 276.182 158.654 275.94 157.933 275.94C156.847 275.94 155.989 276.48 155.359 277.56C154.728 278.634 154.41 280.21 154.404 282.29C154.398 283.682 154.538 284.852 154.822 285.801C155.112 286.75 155.521 287.466 156.049 287.949C156.577 288.426 157.205 288.665 157.933 288.665ZM173.233 291.256C171.955 291.256 170.847 290.974 169.909 290.412C168.972 289.849 168.244 289.062 167.727 288.051C167.216 287.04 166.96 285.858 166.96 284.506C166.96 283.153 167.216 281.969 167.727 280.952C168.244 279.935 168.972 279.145 169.909 278.582C170.847 278.02 171.955 277.739 173.233 277.739C174.511 277.739 175.619 278.02 176.557 278.582C177.494 279.145 178.219 279.935 178.73 280.952C179.247 281.969 179.506 283.153 179.506 284.506C179.506 285.858 179.247 287.04 178.73 288.051C178.219 289.062 177.494 289.849 176.557 290.412C175.619 290.974 174.511 291.256 173.233 291.256ZM173.25 288.784C173.943 288.784 174.523 288.594 174.989 288.213C175.455 287.827 175.801 287.31 176.028 286.662C176.261 286.014 176.378 285.293 176.378 284.497C176.378 283.696 176.261 282.972 176.028 282.324C175.801 281.67 175.455 281.151 174.989 280.764C174.523 280.378 173.943 280.185 173.25 280.185C172.54 280.185 171.949 280.378 171.477 280.764C171.011 281.151 170.662 281.67 170.429 282.324C170.202 282.972 170.088 283.696 170.088 284.497C170.088 285.293 170.202 286.014 170.429 286.662C170.662 287.31 171.011 287.827 171.477 288.213C171.949 288.594 172.54 288.784 173.25 288.784ZM184.937 286.892L184.928 283.168H185.423L190.127 277.909H193.732L187.945 284.352H187.306L184.937 286.892ZM182.124 291V273.545H185.21V291H182.124ZM190.34 291L186.079 285.043L188.158 282.869L194.031 291H190.34Z" fill="black"/>
<rect x="55" y="128" width="24" height="24" rx="12" fill="#FBA200"/>
<path d="M63.642 145.5H61.392L65.4886 133.864H68.0909L72.1932 145.5H69.9432L66.8352 136.25H66.7443L63.642 145.5ZM63.7159 140.938H69.8523V142.631H63.7159V140.938Z" fill="white"/>
<rect x="55" y="273" width="24" height="24" rx="12" fill="#FBA200"/>
<path d="M66.0909 290.5H62.1477V278.864H66.1705C67.3258 278.864 68.3182 279.097 69.1477 279.562C69.9811 280.025 70.6212 280.689 71.0682 281.557C71.5152 282.424 71.7386 283.462 71.7386 284.67C71.7386 285.883 71.5133 286.924 71.0625 287.795C70.6155 288.667 69.9697 289.335 69.125 289.801C68.2841 290.267 67.2727 290.5 66.0909 290.5ZM64.2557 288.676H65.9886C66.7992 288.676 67.4754 288.528 68.017 288.233C68.5587 287.934 68.9659 287.489 69.2386 286.898C69.5114 286.303 69.6477 285.561 69.6477 284.67C69.6477 283.78 69.5114 283.042 69.2386 282.455C68.9659 281.864 68.5625 281.422 68.0284 281.131C67.4981 280.835 66.839 280.688 66.0511 280.688H64.2557V288.676Z" fill="white"/>
<rect x="55" y="244" width="24" height="24" rx="12" fill="#FBA200"/>
<path d="M72.108 253.79H69.983C69.9223 253.441 69.8106 253.133 69.6477 252.864C69.4848 252.591 69.2822 252.36 69.0398 252.17C68.7973 251.981 68.5208 251.839 68.2102 251.744C67.9034 251.646 67.572 251.597 67.2159 251.597C66.5833 251.597 66.0227 251.756 65.5341 252.074C65.0455 252.388 64.6629 252.85 64.3864 253.46C64.1098 254.066 63.9716 254.807 63.9716 255.682C63.9716 256.572 64.1098 257.322 64.3864 257.932C64.6667 258.538 65.0492 258.996 65.5341 259.307C66.0227 259.614 66.5814 259.767 67.2102 259.767C67.5587 259.767 67.8845 259.722 68.1875 259.631C68.4943 259.536 68.7689 259.398 69.0114 259.216C69.2576 259.034 69.464 258.811 69.6307 258.545C69.8011 258.28 69.9186 257.977 69.983 257.636L72.108 257.648C72.0284 258.201 71.8561 258.72 71.5909 259.205C71.3295 259.689 70.9867 260.117 70.5625 260.489C70.1383 260.856 69.642 261.144 69.0739 261.352C68.5057 261.557 67.875 261.659 67.1818 261.659C66.1591 261.659 65.2462 261.422 64.4432 260.949C63.6402 260.475 63.0076 259.792 62.5455 258.898C62.0833 258.004 61.8523 256.932 61.8523 255.682C61.8523 254.428 62.0852 253.356 62.5511 252.466C63.017 251.572 63.6515 250.888 64.4545 250.415C65.2576 249.941 66.1667 249.705 67.1818 249.705C67.8295 249.705 68.4318 249.795 68.9886 249.977C69.5455 250.159 70.0417 250.426 70.4773 250.778C70.9129 251.127 71.2708 251.555 71.5511 252.062C71.8352 252.566 72.0208 253.142 72.108 253.79Z" fill="white"/>
<rect x="55" y="186" width="24" height="24" rx="12" fill="#FBA200"/>
<path d="M62.6477 203.5V191.864H67.1023C67.9432 191.864 68.642 191.996 69.1989 192.261C69.7595 192.523 70.178 192.881 70.4545 193.335C70.7348 193.79 70.875 194.305 70.875 194.881C70.875 195.354 70.7841 195.759 70.6023 196.097C70.4205 196.43 70.1761 196.701 69.8693 196.909C69.5625 197.117 69.2197 197.267 68.8409 197.358V197.472C69.2538 197.494 69.6496 197.621 70.0284 197.852C70.411 198.08 70.7235 198.402 70.9659 198.818C71.2083 199.235 71.3295 199.739 71.3295 200.33C71.3295 200.932 71.1837 201.473 70.892 201.955C70.6004 202.432 70.161 202.809 69.5739 203.085C68.9867 203.362 68.2481 203.5 67.358 203.5H62.6477ZM64.7557 201.739H67.0227C67.7879 201.739 68.339 201.593 68.6761 201.301C69.017 201.006 69.1875 200.627 69.1875 200.165C69.1875 199.82 69.1023 199.509 68.9318 199.233C68.7614 198.953 68.5189 198.733 68.2045 198.574C67.8902 198.411 67.5152 198.33 67.0795 198.33H64.7557V201.739ZM64.7557 196.812H66.8409C67.2045 196.812 67.5322 196.746 67.8239 196.614C68.1155 196.477 68.3447 196.286 68.5114 196.04C68.6818 195.79 68.767 195.494 68.767 195.153C68.767 194.703 68.608 194.331 68.2898 194.04C67.9754 193.748 67.5076 193.602 66.8864 193.602H64.7557V196.812Z" fill="white"/>
<g style="mix-blend-mode:multiply">
<rect x="280.018" width="7.98933" height="4.66354" fill="#C0C0C0"/>
</g>
<rect x="130.826" y="6.21875" width="66.9106" height="5.4408" rx="2.7204" fill="#171718"/>
<g style="mix-blend-mode:multiply">
<rect x="411.047" y="66.0664" width="5.992" height="6.21805" fill="#C0C0C0"/>
</g>
<g style="mix-blend-mode:multiply">
<rect x="1.99805" y="66.0664" width="5.992" height="6.21805" fill="#C0C0C0"/>
</g>
<path fill-rule="evenodd" clip-rule="evenodd" d="M131.83 15.5449H127.83V15.5449C129.95 15.5451 131.669 17.264 131.669 19.3844C131.669 19.4382 131.668 19.4917 131.666 19.5449H131.83V15.5449Z" fill="black"/>
<path d="M131.83 15.5449H285.83V27.7077C285.83 38.6635 276.949 47.5449 265.993 47.5449H151.667C140.711 47.5449 131.83 38.6635 131.83 27.7077V15.5449Z" fill="black"/>
<path fill-rule="evenodd" clip-rule="evenodd" d="M285.83 15.5449H289.83V15.5449C289.83 15.5449 289.83 15.5449 289.83 15.5449C287.627 15.5449 285.839 17.3342 285.83 19.5449V15.5449Z" fill="black"/>
<ellipse cx="151.798" cy="24.095" rx="7.98933" ry="6.21805" fill="#171718"/>
</g>
<defs>
<linearGradient id="paint0_linear_529_2977" x1="209.221" y1="0" x2="209.221" y2="663" gradientUnits="userSpaceOnUse">
<stop stop-color="#527190"/>
<stop offset="1" stop-color="#2B4A69"/>
</linearGradient>
<clipPath id="clip0_529_2977">
<rect width="419" height="378" fill="white"/>
</clipPath>
</defs>
</svg>
