<svg width="40" height="60" viewBox="0 0 40 60" fill="none" xmlns="http://www.w3.org/2000/svg">
<path d="M18.8235 40C16.3516 40 13.9039 39.4827 11.6201 38.4776C9.3363 37.4725 7.26121 35.9993 5.51328 34.1421C3.76536 32.285 2.37883 30.0802 1.43285 27.6537C0.486884 25.2272 -6.58121e-07 22.6264 0 20C6.58122e-07 17.3736 0.486886 14.7728 1.43286 12.3463C2.37883 9.91981 3.76536 7.71503 5.51329 5.85786C7.26122 4.00069 9.33631 2.5275 11.6201 1.52241C13.9039 0.517313 16.3516 -1.2837e-06 18.8235 0L18.8235 20L18.8235 40Z" fill="black"/>
<path d="M21.1766 20C23.6485 20 26.0962 20.5173 28.38 21.5224C30.6638 22.5275 32.7389 24.0007 34.4868 25.8579C36.2347 27.715 37.6213 29.9198 38.5672 32.3463C39.5132 34.7729 40.0001 37.3736 40.0001 40C40.0001 42.6265 39.5132 45.2272 38.5672 47.6537C37.6213 50.0802 36.2347 52.285 34.4868 54.1421C32.7389 55.9993 30.6638 57.4725 28.38 58.4776C26.0962 59.4827 23.6485 60 21.1765 60L21.1766 40L21.1766 20Z" fill="black"/>
</svg>
