<svg width="698" height="505" viewBox="0 0 698 505" fill="none" xmlns="http://www.w3.org/2000/svg">
<path d="M127.432 17.1818C127.261 15.7424 126.57 14.625 125.358 13.8295C124.146 13.0341 122.659 12.6364 120.898 12.6364C119.61 12.6364 118.483 12.8447 117.517 13.2614C116.561 13.678 115.813 14.2509 115.273 14.9801C114.742 15.7093 114.477 16.5379 114.477 17.4659C114.477 18.2424 114.662 18.91 115.031 19.4688C115.41 20.018 115.893 20.4773 116.48 20.8466C117.067 21.2064 117.683 21.5047 118.327 21.7415C118.971 21.9687 119.562 22.1534 120.102 22.2955L123.057 23.0909C123.814 23.2898 124.657 23.5644 125.585 23.9148C126.523 24.2652 127.418 24.7434 128.27 25.3494C129.132 25.946 129.842 26.7131 130.401 27.6506C130.959 28.5881 131.239 29.7386 131.239 31.1023C131.239 32.6742 130.827 34.0947 130.003 35.3636C129.188 36.6326 127.995 37.6411 126.423 38.3892C124.861 39.1373 122.962 39.5114 120.727 39.5114C118.644 39.5114 116.84 39.1752 115.315 38.5028C113.8 37.8305 112.607 36.893 111.736 35.6903C110.874 34.4877 110.386 33.0909 110.273 31.5H113.909C114.004 32.5985 114.373 33.5076 115.017 34.2273C115.67 34.9375 116.494 35.4678 117.489 35.8182C118.492 36.1591 119.572 36.3295 120.727 36.3295C122.072 36.3295 123.279 36.1117 124.349 35.6761C125.42 35.2311 126.267 34.6155 126.892 33.8295C127.517 33.0341 127.83 32.1061 127.83 31.0455C127.83 30.0795 127.56 29.2936 127.02 28.6875C126.48 28.0814 125.77 27.589 124.889 27.2102C124.009 26.8314 123.057 26.5 122.034 26.2159L118.455 25.1932C116.182 24.5398 114.383 23.607 113.057 22.3949C111.731 21.1828 111.068 19.5966 111.068 17.6364C111.068 16.0076 111.509 14.5871 112.389 13.375C113.279 12.1534 114.473 11.2064 115.969 10.5341C117.474 9.85227 119.155 9.51136 121.011 9.51136C122.886 9.51136 124.553 9.84754 126.011 10.5199C127.47 11.1828 128.625 12.0919 129.477 13.2472C130.339 14.4025 130.794 15.714 130.841 17.1818H127.432ZM136.576 39V17.1818H139.928V39H136.576ZM138.281 13.5455C137.627 13.5455 137.064 13.3229 136.59 12.8778C136.126 12.4328 135.894 11.8977 135.894 11.2727C135.894 10.6477 136.126 10.1127 136.59 9.66761C137.064 9.22254 137.627 9 138.281 9C138.934 9 139.493 9.22254 139.957 9.66761C140.43 10.1127 140.667 10.6477 140.667 11.2727C140.667 11.8977 140.43 12.4328 139.957 12.8778C139.493 13.3229 138.934 13.5455 138.281 13.5455ZM154.932 39.4545C152.886 39.4545 151.125 38.9716 149.648 38.0057C148.17 37.0398 147.034 35.7093 146.239 34.0142C145.443 32.3191 145.045 30.3826 145.045 28.2045C145.045 25.9886 145.453 24.0331 146.267 22.3381C147.091 20.6335 148.237 19.303 149.705 18.3466C151.182 17.3807 152.905 16.8977 154.875 16.8977C156.409 16.8977 157.792 17.1818 159.023 17.75C160.254 18.3182 161.262 19.1136 162.048 20.1364C162.834 21.1591 163.322 22.3523 163.511 23.7159H160.159C159.903 22.7216 159.335 21.8409 158.455 21.0739C157.583 20.2973 156.409 19.9091 154.932 19.9091C153.625 19.9091 152.479 20.25 151.494 20.9318C150.519 21.6042 149.757 22.5559 149.207 23.7869C148.668 25.0085 148.398 26.4432 148.398 28.0909C148.398 29.7765 148.663 31.2443 149.193 32.4943C149.733 33.7443 150.491 34.715 151.466 35.4062C152.451 36.0975 153.606 36.4432 154.932 36.4432C155.803 36.4432 156.594 36.2917 157.304 35.9886C158.014 35.6856 158.616 35.25 159.108 34.6818C159.6 34.1136 159.951 33.4318 160.159 32.6364H163.511C163.322 33.9242 162.853 35.0843 162.105 36.1165C161.366 37.1392 160.386 37.9536 159.165 38.5597C157.953 39.1562 156.542 39.4545 154.932 39.4545ZM171.764 25.875V39H168.412V9.90909H171.764V20.5909H172.048C172.56 19.464 173.327 18.5691 174.349 17.9062C175.382 17.2339 176.755 16.8977 178.469 16.8977C179.955 16.8977 181.258 17.196 182.375 17.7926C183.492 18.3797 184.359 19.2841 184.974 20.5057C185.599 21.7178 185.912 23.2614 185.912 25.1364V39H182.56V25.3636C182.56 23.6307 182.11 22.2907 181.21 21.3438C180.32 20.3873 179.084 19.9091 177.503 19.9091C176.404 19.9091 175.42 20.1411 174.548 20.6051C173.687 21.0691 173.005 21.7462 172.503 22.6364C172.01 23.5265 171.764 24.6061 171.764 25.875ZM201.192 39.4545C199.09 39.4545 197.277 38.9905 195.752 38.0625C194.237 37.125 193.067 35.8182 192.244 34.142C191.429 32.4564 191.022 30.4962 191.022 28.2614C191.022 26.0265 191.429 24.0568 192.244 22.3523C193.067 20.6383 194.213 19.303 195.681 18.3466C197.158 17.3807 198.882 16.8977 200.852 16.8977C201.988 16.8977 203.11 17.0871 204.218 17.4659C205.326 17.8447 206.335 18.4602 207.244 19.3125C208.153 20.1553 208.877 21.2727 209.417 22.6648C209.957 24.0568 210.227 25.7708 210.227 27.8068V29.2273H193.408V26.3295H206.817C206.817 25.0985 206.571 24 206.079 23.0341C205.596 22.0682 204.905 21.3059 204.005 20.7472C203.115 20.1884 202.064 19.9091 200.852 19.9091C199.516 19.9091 198.361 20.2405 197.386 20.9034C196.42 21.5568 195.676 22.4091 195.156 23.4602C194.635 24.5114 194.374 25.6383 194.374 26.8409V28.7727C194.374 30.4205 194.658 31.8172 195.227 32.9631C195.804 34.0994 196.604 34.9659 197.627 35.5625C198.65 36.1496 199.838 36.4432 201.192 36.4432C202.073 36.4432 202.869 36.3201 203.579 36.0739C204.299 35.8182 204.919 35.4394 205.44 34.9375C205.96 34.4261 206.363 33.7917 206.647 33.0341L209.886 33.9432C209.545 35.0417 208.972 36.0076 208.167 36.8409C207.362 37.6648 206.368 38.3087 205.184 38.7727C204 39.2273 202.67 39.4545 201.192 39.4545ZM215.326 39V17.1818H218.565V20.4773H218.792C219.19 19.3977 219.909 18.5218 220.951 17.8494C221.993 17.1771 223.167 16.8409 224.474 16.8409C224.72 16.8409 225.028 16.8456 225.397 16.8551C225.766 16.8646 226.046 16.8788 226.235 16.8977V20.3068C226.121 20.2784 225.861 20.2358 225.454 20.179C225.056 20.1127 224.635 20.0795 224.19 20.0795C223.129 20.0795 222.182 20.3021 221.349 20.7472C220.525 21.1828 219.871 21.7888 219.388 22.5653C218.915 23.3324 218.678 24.2083 218.678 25.1932V39H215.326ZM238.692 39.4545C236.59 39.4545 234.777 38.9905 233.252 38.0625C231.737 37.125 230.567 35.8182 229.744 34.142C228.929 32.4564 228.522 30.4962 228.522 28.2614C228.522 26.0265 228.929 24.0568 229.744 22.3523C230.567 20.6383 231.713 19.303 233.181 18.3466C234.658 17.3807 236.382 16.8977 238.352 16.8977C239.488 16.8977 240.61 17.0871 241.718 17.4659C242.826 17.8447 243.835 18.4602 244.744 19.3125C245.653 20.1553 246.377 21.2727 246.917 22.6648C247.457 24.0568 247.727 25.7708 247.727 27.8068V29.2273H230.908V26.3295H244.317C244.317 25.0985 244.071 24 243.579 23.0341C243.096 22.0682 242.405 21.3059 241.505 20.7472C240.615 20.1884 239.564 19.9091 238.352 19.9091C237.016 19.9091 235.861 20.2405 234.886 20.9034C233.92 21.5568 233.176 22.4091 232.656 23.4602C232.135 24.5114 231.874 25.6383 231.874 26.8409V28.7727C231.874 30.4205 232.158 31.8172 232.727 32.9631C233.304 34.0994 234.104 34.9659 235.127 35.5625C236.15 36.1496 237.338 36.4432 238.692 36.4432C239.573 36.4432 240.369 36.3201 241.079 36.0739C241.799 35.8182 242.419 35.4394 242.94 34.9375C243.46 34.4261 243.863 33.7917 244.147 33.0341L247.386 33.9432C247.045 35.0417 246.472 36.0076 245.667 36.8409C244.862 37.6648 243.868 38.3087 242.684 38.7727C241.5 39.2273 240.17 39.4545 238.692 39.4545ZM264.531 39V9.90909H274.36C276.642 9.90909 278.508 10.321 279.957 11.1449C281.415 11.9593 282.495 13.0625 283.195 14.4545C283.896 15.8466 284.246 17.3996 284.246 19.1136C284.246 20.8277 283.896 22.3854 283.195 23.7869C282.504 25.1884 281.434 26.3059 279.985 27.1392C278.536 27.9631 276.68 28.375 274.417 28.375H267.371V25.25H274.303C275.866 25.25 277.121 24.9801 278.067 24.4403C279.014 23.9006 279.701 23.1714 280.127 22.2528C280.563 21.3248 280.781 20.2784 280.781 19.1136C280.781 17.9489 280.563 16.9072 280.127 15.9886C279.701 15.0701 279.01 14.3504 278.053 13.8295C277.097 13.2992 275.828 13.0341 274.246 13.0341H268.053V39H264.531ZM295.887 39.5114C294.504 39.5114 293.25 39.2509 292.123 38.7301C290.996 38.1998 290.101 37.4375 289.438 36.4432C288.775 35.4394 288.444 34.2273 288.444 32.8068C288.444 31.5568 288.69 30.5436 289.183 29.767C289.675 28.9811 290.333 28.3655 291.157 27.9205C291.981 27.4754 292.89 27.1439 293.884 26.9261C294.888 26.6989 295.897 26.5189 296.91 26.3864C298.236 26.2159 299.31 26.0881 300.134 26.0028C300.968 25.9081 301.574 25.7519 301.952 25.5341C302.341 25.3163 302.535 24.9375 302.535 24.3977V24.2841C302.535 22.8826 302.151 21.7936 301.384 21.017C300.627 20.2405 299.476 19.8523 297.933 19.8523C296.332 19.8523 295.077 20.2027 294.168 20.9034C293.259 21.6042 292.62 22.3523 292.251 23.1477L289.069 22.0114C289.637 20.6856 290.395 19.6534 291.342 18.9148C292.298 18.1667 293.34 17.6458 294.467 17.3523C295.603 17.0492 296.72 16.8977 297.819 16.8977C298.52 16.8977 299.325 16.983 300.234 17.1534C301.152 17.3144 302.038 17.6506 302.89 18.1619C303.752 18.6733 304.467 19.4451 305.035 20.4773C305.603 21.5095 305.887 22.892 305.887 24.625V39H302.535V36.0455H302.364C302.137 36.5189 301.758 37.0256 301.228 37.5653C300.698 38.1051 299.992 38.5644 299.112 38.9432C298.231 39.322 297.156 39.5114 295.887 39.5114ZM296.398 36.5C297.724 36.5 298.842 36.2396 299.751 35.7188C300.669 35.1979 301.361 34.5256 301.825 33.7017C302.298 32.8778 302.535 32.0114 302.535 31.1023V28.0341C302.393 28.2045 302.08 28.3608 301.597 28.5028C301.124 28.6354 300.575 28.7538 299.95 28.858C299.334 28.9527 298.733 29.0379 298.146 29.1136C297.568 29.1799 297.099 29.2367 296.739 29.2841C295.868 29.3977 295.054 29.5824 294.296 29.8381C293.548 30.0843 292.942 30.4583 292.478 30.9602C292.023 31.4527 291.796 32.125 291.796 32.9773C291.796 34.142 292.227 35.0227 293.089 35.6193C293.96 36.2064 295.063 36.5 296.398 36.5ZM327.46 22.0682L324.449 22.9205C324.259 22.4186 323.98 21.9309 323.611 21.4574C323.251 20.9744 322.759 20.5767 322.134 20.2642C321.509 19.9517 320.708 19.7955 319.733 19.7955C318.398 19.7955 317.285 20.1032 316.395 20.7188C315.514 21.3248 315.074 22.0966 315.074 23.0341C315.074 23.8674 315.377 24.5256 315.983 25.0085C316.589 25.4915 317.536 25.8939 318.824 26.2159L322.062 27.0114C324.013 27.4848 325.467 28.2093 326.423 29.1847C327.38 30.1506 327.858 31.3958 327.858 32.9205C327.858 34.1705 327.498 35.2879 326.778 36.2727C326.068 37.2576 325.074 38.0341 323.795 38.6023C322.517 39.1705 321.03 39.4545 319.335 39.4545C317.11 39.4545 315.268 38.9716 313.81 38.0057C312.351 37.0398 311.428 35.6288 311.04 33.7727L314.222 32.9773C314.525 34.1515 315.098 35.0322 315.94 35.6193C316.793 36.2064 317.905 36.5 319.278 36.5C320.841 36.5 322.081 36.1686 323 35.5057C323.928 34.8333 324.392 34.0284 324.392 33.0909C324.392 32.3333 324.127 31.6989 323.597 31.1875C323.066 30.6667 322.252 30.2784 321.153 30.0227L317.517 29.1705C315.519 28.697 314.051 27.9631 313.114 26.9688C312.186 25.965 311.722 24.7102 311.722 23.2045C311.722 21.9735 312.067 20.8845 312.759 19.9375C313.459 18.9905 314.411 18.2472 315.614 17.7074C316.826 17.1676 318.199 16.8977 319.733 16.8977C321.892 16.8977 323.587 17.3712 324.818 18.3182C326.059 19.2652 326.939 20.5152 327.46 22.0682ZM348.359 22.0682L345.347 22.9205C345.158 22.4186 344.879 21.9309 344.509 21.4574C344.149 20.9744 343.657 20.5767 343.032 20.2642C342.407 19.9517 341.607 19.7955 340.631 19.7955C339.296 19.7955 338.183 20.1032 337.293 20.7188C336.413 21.3248 335.972 22.0966 335.972 23.0341C335.972 23.8674 336.275 24.5256 336.881 25.0085C337.487 25.4915 338.434 25.8939 339.722 26.2159L342.961 27.0114C344.912 27.4848 346.365 28.2093 347.322 29.1847C348.278 30.1506 348.756 31.3958 348.756 32.9205C348.756 34.1705 348.397 35.2879 347.677 36.2727C346.967 37.2576 345.972 38.0341 344.694 38.6023C343.415 39.1705 341.929 39.4545 340.234 39.4545C338.008 39.4545 336.166 38.9716 334.708 38.0057C333.25 37.0398 332.326 35.6288 331.938 33.7727L335.12 32.9773C335.423 34.1515 335.996 35.0322 336.839 35.6193C337.691 36.2064 338.804 36.5 340.177 36.5C341.739 36.5 342.98 36.1686 343.898 35.5057C344.826 34.8333 345.29 34.0284 345.29 33.0909C345.29 32.3333 345.025 31.6989 344.495 31.1875C343.965 30.6667 343.15 30.2784 342.052 30.0227L338.415 29.1705C336.417 28.697 334.95 27.9631 334.012 26.9688C333.084 25.965 332.62 24.7102 332.62 23.2045C332.62 21.9735 332.966 20.8845 333.657 19.9375C334.358 18.9905 335.309 18.2472 336.512 17.7074C337.724 17.1676 339.097 16.8977 340.631 16.8977C342.79 16.8977 344.486 17.3712 345.717 18.3182C346.957 19.2652 347.838 20.5152 348.359 22.0682ZM358.746 39L352.098 17.1818H355.621L360.337 33.8864H360.564L365.223 17.1818H368.803L373.405 33.8295H373.632L378.348 17.1818H381.871L375.223 39H371.928L367.155 22.2386H366.814L362.041 39H358.746ZM394.424 39.4545C392.454 39.4545 390.726 38.9858 389.239 38.0483C387.762 37.1108 386.607 35.7992 385.773 34.1136C384.95 32.428 384.538 30.4583 384.538 28.2045C384.538 25.9318 384.95 23.9479 385.773 22.2528C386.607 20.5578 387.762 19.2415 389.239 18.304C390.726 17.3665 392.454 16.8977 394.424 16.8977C396.394 16.8977 398.117 17.3665 399.594 18.304C401.081 19.2415 402.237 20.5578 403.06 22.2528C403.894 23.9479 404.31 25.9318 404.31 28.2045C404.31 30.4583 403.894 32.428 403.06 34.1136C402.237 35.7992 401.081 37.1108 399.594 38.0483C398.117 38.9858 396.394 39.4545 394.424 39.4545ZM394.424 36.4432C395.92 36.4432 397.151 36.0597 398.117 35.2926C399.083 34.5256 399.798 33.517 400.262 32.267C400.726 31.017 400.958 29.6629 400.958 28.2045C400.958 26.7462 400.726 25.3873 400.262 24.1278C399.798 22.8684 399.083 21.8504 398.117 21.0739C397.151 20.2973 395.92 19.9091 394.424 19.9091C392.928 19.9091 391.697 20.2973 390.731 21.0739C389.765 21.8504 389.05 22.8684 388.586 24.1278C388.122 25.3873 387.89 26.7462 387.89 28.2045C387.89 29.6629 388.122 31.017 388.586 32.267C389.05 33.517 389.765 34.5256 390.731 35.2926C391.697 36.0597 392.928 36.4432 394.424 36.4432ZM390.333 13.5455C389.737 13.5455 389.206 13.3182 388.742 12.8636C388.288 12.3996 388.06 11.8693 388.06 11.2727C388.06 10.6193 388.288 10.0795 388.742 9.65341C389.206 9.2178 389.737 9 390.333 9C390.987 9 391.526 9.2178 391.952 9.65341C392.388 10.0795 392.606 10.6193 392.606 11.2727C392.606 11.8693 392.388 12.3996 391.952 12.8636C391.526 13.3182 390.987 13.5455 390.333 13.5455ZM398.515 13.5455C397.918 13.5455 397.388 13.3182 396.924 12.8636C396.469 12.3996 396.242 11.8693 396.242 11.2727C396.242 10.6193 396.469 10.0795 396.924 9.65341C397.388 9.2178 397.918 9 398.515 9C399.168 9 399.708 9.2178 400.134 9.65341C400.57 10.0795 400.788 10.6193 400.788 11.2727C400.788 11.8693 400.57 12.3996 400.134 12.8636C399.708 13.3182 399.168 13.5455 398.515 13.5455ZM409.428 39V17.1818H412.666V20.4773H412.893C413.291 19.3977 414.011 18.5218 415.053 17.8494C416.094 17.1771 417.268 16.8409 418.575 16.8409C418.821 16.8409 419.129 16.8456 419.499 16.8551C419.868 16.8646 420.147 16.8788 420.337 16.8977V20.3068C420.223 20.2784 419.963 20.2358 419.555 20.179C419.158 20.1127 418.736 20.0795 418.291 20.0795C417.231 20.0795 416.284 20.3021 415.45 20.7472C414.626 21.1828 413.973 21.7888 413.49 22.5653C413.017 23.3324 412.78 24.2083 412.78 25.1932V39H409.428ZM435.166 17.1818V20.0227H423.859V17.1818H435.166ZM427.155 11.9545H430.507V32.75C430.507 33.697 430.644 34.4072 430.919 34.8807C431.203 35.3447 431.563 35.6572 431.999 35.8182C432.444 35.9697 432.912 36.0455 433.405 36.0455C433.774 36.0455 434.077 36.0265 434.314 35.9886C434.551 35.9413 434.74 35.9034 434.882 35.875L435.564 38.8864C435.337 38.9716 435.019 39.0568 434.612 39.142C434.205 39.2367 433.689 39.2841 433.064 39.2841C432.117 39.2841 431.189 39.0805 430.28 38.6733C429.38 38.2661 428.632 37.6458 428.036 36.8125C427.448 35.9792 427.155 34.928 427.155 33.6591V11.9545ZM449.122 39.4545C447.02 39.4545 445.206 38.9905 443.682 38.0625C442.167 37.125 440.997 35.8182 440.173 34.142C439.359 32.4564 438.952 30.4962 438.952 28.2614C438.952 26.0265 439.359 24.0568 440.173 22.3523C440.997 20.6383 442.143 19.303 443.611 18.3466C445.088 17.3807 446.812 16.8977 448.781 16.8977C449.918 16.8977 451.04 17.0871 452.148 17.4659C453.256 17.8447 454.264 18.4602 455.173 19.3125C456.082 20.1553 456.807 21.2727 457.347 22.6648C457.886 24.0568 458.156 25.7708 458.156 27.8068V29.2273H441.338V26.3295H454.747C454.747 25.0985 454.501 24 454.009 23.0341C453.526 22.0682 452.834 21.3059 451.935 20.7472C451.045 20.1884 449.993 19.9091 448.781 19.9091C447.446 19.9091 446.291 20.2405 445.315 20.9034C444.349 21.5568 443.606 22.4091 443.085 23.4602C442.564 24.5114 442.304 25.6383 442.304 26.8409V28.7727C442.304 30.4205 442.588 31.8172 443.156 32.9631C443.734 34.0994 444.534 34.9659 445.557 35.5625C446.58 36.1496 447.768 36.4432 449.122 36.4432C450.003 36.4432 450.798 36.3201 451.509 36.0739C452.228 35.8182 452.848 35.4394 453.369 34.9375C453.89 34.4261 454.293 33.7917 454.577 33.0341L457.815 33.9432C457.474 35.0417 456.902 36.0076 456.097 36.8409C455.292 37.6648 454.297 38.3087 453.114 38.7727C451.93 39.2273 450.599 39.4545 449.122 39.4545ZM463.256 39V17.1818H466.494V20.4773H466.722C467.119 19.3977 467.839 18.5218 468.881 17.8494C469.922 17.1771 471.097 16.8409 472.403 16.8409C472.65 16.8409 472.957 16.8456 473.327 16.8551C473.696 16.8646 473.975 16.8788 474.165 16.8977V20.3068C474.051 20.2784 473.791 20.2358 473.384 20.179C472.986 20.1127 472.564 20.0795 472.119 20.0795C471.059 20.0795 470.112 20.3021 469.278 20.7472C468.455 21.1828 467.801 21.7888 467.318 22.5653C466.845 23.3324 466.608 24.2083 466.608 25.1932V39H463.256Z" fill="white"/>
<g filter="url(#filter0_d_592_3174)">
<path d="M139.486 130.451L166.711 177.084C170.296 183.224 176.872 187 183.983 187H437.036C449.173 187 458.513 176.276 456.846 164.253L446.177 87.3057C444.687 76.5638 434.908 68.966 424.132 70.1778L154.523 100.492C140.156 102.108 132.197 117.965 139.486 130.451Z" fill="white"/>
</g>
<path d="M244.375 106.75C244.375 108.292 244.458 109.812 244.625 111.312C244.812 112.812 245.094 114.292 245.469 115.75L243.031 116.219C242.677 113.635 241.677 111.719 240.031 110.469C238.406 109.219 236.104 108.594 233.125 108.594C230.375 108.594 228.135 109.26 226.406 110.594C224.698 111.927 223.844 113.646 223.844 115.75C223.844 119.208 227.51 122.167 234.844 124.625C235.823 124.938 236.573 125.188 237.094 125.375C240.448 126.542 242.917 128.042 244.5 129.875C246.083 131.688 246.875 133.938 246.875 136.625C246.875 140.771 245.302 144.135 242.156 146.719C239.01 149.281 234.844 150.562 229.656 150.562C227.677 150.562 225.74 150.396 223.844 150.062C221.969 149.75 220.062 149.25 218.125 148.562C218.146 148.354 218.156 148.115 218.156 147.844C218.177 147.552 218.188 147.135 218.188 146.594C218.188 145.115 218.104 143.656 217.938 142.219C217.771 140.781 217.521 139.344 217.188 137.906L220 137.25C220.354 140.667 221.427 143.167 223.219 144.75C225.01 146.333 227.667 147.125 231.188 147.125C234.271 147.125 236.781 146.354 238.719 144.812C240.656 143.25 241.625 141.25 241.625 138.812C241.625 135.354 238.604 132.667 232.562 130.75C231.708 130.479 231.042 130.26 230.562 130.094C226.375 128.74 223.375 127.083 221.562 125.125C219.75 123.167 218.844 120.667 218.844 117.625C218.844 114.042 220.26 111.052 223.094 108.656C225.927 106.26 229.479 105.062 233.75 105.062C235.312 105.062 236.896 105.188 238.5 105.438C240.104 105.688 242.062 106.125 244.375 106.75ZM261.094 118.406C260.948 122.49 260.833 126.073 260.75 129.156C260.667 132.219 260.625 134.344 260.625 135.531C260.625 139.99 261.083 142.969 262 144.469C262.917 145.948 264.49 146.688 266.719 146.688C267.823 146.688 269.052 146.417 270.406 145.875C271.76 145.333 273.302 144.51 275.031 143.406C275.094 140.198 275.135 137.552 275.156 135.469C275.198 133.385 275.219 131.854 275.219 130.875V128.75C275.219 126.125 275 124.479 274.562 123.812C274.125 123.146 273.281 122.812 272.031 122.812C271.823 122.812 271.594 122.823 271.344 122.844C271.115 122.844 270.875 122.854 270.625 122.875L270.438 120.875C272.208 120.75 273.948 120.552 275.656 120.281C277.385 120.01 279.073 119.677 280.719 119.281C280.594 122.844 280.5 126.021 280.438 128.812C280.375 131.604 280.344 134.042 280.344 136.125C280.344 136.979 280.333 138.052 280.312 139.344C280.292 140.615 280.281 141.458 280.281 141.875C280.281 143.812 280.448 145.083 280.781 145.688C281.115 146.292 281.74 146.594 282.656 146.594C282.865 146.594 283.104 146.573 283.375 146.531C283.667 146.49 284.042 146.406 284.5 146.281L284.75 148.219L275.219 150.625L275.094 145.969C272.844 147.677 270.865 148.927 269.156 149.719C267.469 150.51 265.927 150.906 264.531 150.906C261.677 150.906 259.448 150.083 257.844 148.438C256.24 146.792 255.438 144.5 255.438 141.562C255.438 140.812 255.469 139.24 255.531 136.844C255.552 135.844 255.562 135.062 255.562 134.5L255.656 131C255.656 130.417 255.667 129.677 255.688 128.781C255.708 127.865 255.719 127.24 255.719 126.906C255.719 125.115 255.562 123.927 255.25 123.344C254.958 122.76 254.406 122.469 253.594 122.469C253.344 122.469 253.052 122.49 252.719 122.531C252.385 122.573 252.042 122.615 251.688 122.656L251.469 120.625C252.969 120.375 254.51 120.073 256.094 119.719C257.698 119.344 259.365 118.906 261.094 118.406ZM298 145.469C299.25 146.073 300.5 146.542 301.75 146.875C303 147.208 304.188 147.375 305.312 147.375C308.396 147.375 310.812 146.365 312.562 144.344C314.333 142.302 315.219 139.469 315.219 135.844C315.219 131.927 314.354 128.802 312.625 126.469C310.896 124.115 308.625 122.938 305.812 122.938C304.604 122.938 303.333 123.135 302 123.531C300.688 123.927 299.417 124.49 298.188 125.219C298.104 128.26 298.042 131.135 298 133.844C297.958 136.552 297.938 139.031 297.938 141.281C297.938 141.677 297.948 142.344 297.969 143.281C297.99 144.198 298 144.927 298 145.469ZM298.438 117.688L298.188 122.688C300.083 121.375 301.844 120.417 303.469 119.812C305.115 119.208 306.729 118.906 308.312 118.906C311.75 118.906 314.625 120.281 316.938 123.031C319.25 125.76 320.406 129.156 320.406 133.219C320.406 138.51 318.927 142.656 315.969 145.656C313.031 148.635 308.958 150.125 303.75 150.125C302.792 150.125 301.823 150.031 300.844 149.844C299.865 149.635 298.896 149.344 297.938 148.969V160.125C297.938 162.583 299.74 163.833 303.344 163.875H303.375V166.125C302 166.021 300.667 165.938 299.375 165.875C298.104 165.833 296.896 165.812 295.75 165.812C295.062 165.812 294.167 165.833 293.062 165.875C291.958 165.917 290.302 166 288.094 166.125V163.875C289.448 163.875 290.365 163.802 290.844 163.656C291.323 163.531 291.688 163.292 291.938 162.938C292.479 162 292.771 157.75 292.812 150.188C292.812 148.625 292.812 147.406 292.812 146.531L292.875 139.438V130.688V129.125C292.875 126.542 292.719 124.927 292.406 124.281C292.115 123.635 291.531 123.312 290.656 123.312C290.448 123.312 290.198 123.333 289.906 123.375C289.615 123.417 289.302 123.479 288.969 123.562L288.656 121.656C290.427 121.156 292.115 120.583 293.719 119.938C295.344 119.271 296.917 118.521 298.438 117.688ZM352.188 132.531H336.938C335.75 132.531 334.656 132.552 333.656 132.594C332.656 132.635 331.729 132.698 330.875 132.781V133.938C330.875 138.021 331.812 141.177 333.688 143.406C335.583 145.635 338.25 146.75 341.688 146.75C343.208 146.75 344.708 146.5 346.188 146C347.667 145.479 349.24 144.677 350.906 143.594L352.125 145.594C349.979 147.344 347.833 148.667 345.688 149.562C343.562 150.458 341.458 150.906 339.375 150.906C335.333 150.906 332 149.469 329.375 146.594C326.75 143.698 325.438 139.99 325.438 135.469C325.438 130.656 326.812 126.615 329.562 123.344C332.312 120.073 335.667 118.438 339.625 118.438C343.312 118.438 346.25 119.667 348.438 122.125C350.625 124.583 351.875 128.052 352.188 132.531ZM346.406 129.25C345.781 126.688 344.833 124.729 343.562 123.375C342.292 122 340.771 121.312 339 121.312C337 121.312 335.281 122.115 333.844 123.719C332.427 125.323 331.5 127.49 331.062 130.219C335.188 130.219 338.427 130.146 340.781 130C343.156 129.854 345.031 129.604 346.406 129.25ZM366.094 118.062C365.948 119.479 365.833 120.917 365.75 122.375C365.667 123.812 365.604 125.344 365.562 126.969C367.25 123.99 368.802 121.844 370.219 120.531C371.656 119.219 373.135 118.562 374.656 118.562C375.844 118.562 376.781 118.885 377.469 119.531C378.156 120.156 378.5 121.01 378.5 122.094C378.5 122.865 378.271 123.531 377.812 124.094C377.375 124.635 376.854 124.906 376.25 124.906C375.875 124.906 375.292 124.708 374.5 124.312C373.729 123.896 373.062 123.688 372.5 123.688C371.417 123.688 370.333 124.167 369.25 125.125C368.167 126.062 367.031 127.531 365.844 129.531V132.969C365.844 136.302 365.865 139.01 365.906 141.094C365.969 143.156 366.052 144.469 366.156 145.031C366.344 146.094 366.74 146.823 367.344 147.219C367.969 147.615 369.021 147.812 370.5 147.812H371.406V150C369.781 149.875 368.333 149.781 367.062 149.719C365.792 149.656 364.719 149.625 363.844 149.625C362.635 149.625 361.385 149.656 360.094 149.719C358.823 149.781 357.49 149.875 356.094 150V147.812H356.812C358.333 147.812 359.365 147.448 359.906 146.719C360.448 145.99 360.719 144.292 360.719 141.625V138.344V128.188C360.719 125.938 360.562 124.49 360.25 123.844C359.938 123.198 359.365 122.875 358.531 122.875C358.365 122.875 358.188 122.885 358 122.906C357.812 122.906 357.5 122.938 357.062 123L356.688 121.062C358.167 120.729 359.688 120.312 361.25 119.812C362.812 119.312 364.427 118.729 366.094 118.062ZM389.094 142.438L391.281 144.188C391.865 144.625 392.281 145.052 392.531 145.469C392.802 145.885 392.938 146.333 392.938 146.812C392.938 147.292 392.833 147.708 392.625 148.062C392.417 148.417 392.031 148.802 391.469 149.219L389.094 151.031L386.938 149.375C386.333 148.896 385.885 148.448 385.594 148.031C385.323 147.594 385.188 147.146 385.188 146.688C385.188 146.229 385.292 145.833 385.5 145.5C385.729 145.146 386.167 144.729 386.812 144.25L389.094 142.438ZM386.469 105.406H392.938C392.896 109.344 392.531 114.958 391.844 122.25C391.177 129.542 390.75 134.719 390.562 137.781H388.031C387.927 132.781 387.74 127.594 387.469 122.219C387.219 116.823 386.885 111.219 386.469 105.406Z" fill="#DF2323"/>
<path d="M146.402 263.07L150 254.117L149.285 251.82C149.035 251.039 148.805 250.551 148.594 250.355C148.383 250.16 148.051 250.062 147.598 250.062C147.473 250.062 147.375 250.066 147.305 250.074C147.242 250.074 147.184 250.078 147.129 250.086L147.117 249.277C147.836 249.316 148.414 249.348 148.852 249.371C149.289 249.387 149.664 249.395 149.977 249.395C150.273 249.395 150.652 249.387 151.113 249.371C151.582 249.348 152.211 249.316 153 249.277V250.086H152.684C152.121 250.086 151.75 250.141 151.57 250.25C151.391 250.352 151.301 250.547 151.301 250.836C151.301 251.008 151.328 251.219 151.383 251.469C151.445 251.719 151.586 252.172 151.805 252.828L155.133 263.07C155.438 262.219 155.852 261.039 156.375 259.531C158.203 254.344 159.117 251.5 159.117 251C159.117 250.648 159.023 250.41 158.836 250.285C158.648 250.152 158.262 250.086 157.676 250.086H157.371V249.277C157.863 249.309 158.332 249.332 158.777 249.348C159.23 249.363 159.641 249.371 160.008 249.371C160.43 249.371 160.859 249.363 161.297 249.348C161.742 249.332 162.191 249.309 162.645 249.277V250.086H162.457C162.238 250.086 162.051 250.105 161.895 250.145C161.746 250.184 161.613 250.246 161.496 250.332C161.246 250.527 160.555 252.137 159.422 255.16L158.906 256.543L157.922 259.133C157.633 259.906 157.25 260.922 156.773 262.18C155.914 264.438 155.441 265.773 155.355 266.188H153.984C153.875 265.781 153.707 265.23 153.48 264.535C153.402 264.301 153.348 264.137 153.316 264.043L150.598 255.875L147.434 263.738C147.41 263.801 147.363 263.918 147.293 264.09C146.965 264.848 146.715 265.547 146.543 266.188H145.172C145.117 265.797 144.656 264.414 143.789 262.039C143.383 260.922 143.062 260.035 142.828 259.379L141.551 255.875C141.34 255.281 141.07 254.496 140.742 253.52C139.953 251.199 139.23 250.039 138.574 250.039C138.535 250.039 138.488 250.043 138.434 250.051C138.387 250.059 138.316 250.07 138.223 250.086L138.211 249.277C138.711 249.309 139.184 249.332 139.629 249.348C140.074 249.363 140.484 249.371 140.859 249.371C141.305 249.371 141.762 249.363 142.23 249.348C142.699 249.332 143.176 249.309 143.66 249.277V250.086C143.098 250.086 142.727 250.137 142.547 250.238C142.367 250.34 142.277 250.539 142.277 250.836C142.277 251.156 142.469 251.859 142.852 252.945L142.898 253.062L146.402 263.07ZM163.781 249.277C164.328 249.309 164.871 249.332 165.41 249.348C165.949 249.363 166.477 249.371 166.992 249.371C167.43 249.371 167.918 249.363 168.457 249.348C168.996 249.332 169.566 249.309 170.168 249.277V250.086H169.969C169.461 250.086 169.078 250.145 168.82 250.262C168.57 250.379 168.395 250.574 168.293 250.848C168.23 251.027 168.184 251.32 168.152 251.727C168.129 252.125 168.117 252.777 168.117 253.684V256.016V261.852C168.117 262.773 168.137 263.422 168.176 263.797C168.223 264.172 168.293 264.449 168.387 264.629C168.488 264.824 168.668 264.965 168.926 265.051C169.191 265.137 169.562 265.18 170.039 265.18H170.285V266C169.613 265.969 168.992 265.945 168.422 265.93C167.852 265.914 167.375 265.906 166.992 265.906C166.539 265.906 166.027 265.914 165.457 265.93C164.887 265.945 164.289 265.969 163.664 266V265.18H163.898C164.383 265.18 164.754 265.137 165.012 265.051C165.27 264.965 165.449 264.824 165.551 264.629C165.66 264.418 165.734 264.074 165.773 263.598C165.82 263.113 165.844 262.242 165.844 260.984V259.133V254.551C165.844 253.324 165.828 252.453 165.797 251.938C165.766 251.414 165.715 251.051 165.645 250.848C165.551 250.574 165.379 250.379 165.129 250.262C164.887 250.145 164.508 250.086 163.992 250.086H163.781V249.277ZM172.195 249.277C173.562 249.324 174.785 249.359 175.863 249.383C176.941 249.406 177.871 249.418 178.652 249.418C179.52 249.418 180.395 249.406 181.277 249.383C182.168 249.359 183.07 249.324 183.984 249.277C183.992 249.863 184.016 250.465 184.055 251.082C184.094 251.691 184.141 252.305 184.195 252.922L183.41 252.992C183.348 252.055 183.059 251.422 182.543 251.094C182.027 250.758 180.914 250.59 179.203 250.59C178.766 250.59 177.965 250.602 176.801 250.625C176.566 250.633 176.395 250.637 176.285 250.637C176.27 251.574 176.246 252.723 176.215 254.082C176.184 255.441 176.164 256.324 176.156 256.73H176.52C176.98 256.73 177.555 256.738 178.242 256.754C178.938 256.762 179.402 256.766 179.637 256.766C180.77 256.766 181.516 256.66 181.875 256.449C182.242 256.238 182.441 255.848 182.473 255.277L183.211 255.348C183.156 255.832 183.113 256.281 183.082 256.695C183.059 257.109 183.047 257.492 183.047 257.844C183.047 258.047 183.066 258.484 183.105 259.156C183.121 259.398 183.133 259.582 183.141 259.707L182.379 259.73V259.637C182.379 258.973 182.184 258.523 181.793 258.289C181.41 258.055 180.508 257.938 179.086 257.938H177H176.156C176.156 258.32 176.152 258.852 176.145 259.531C176.137 260.203 176.133 260.688 176.133 260.984C176.133 261.5 176.137 262.039 176.145 262.602C176.152 263.156 176.168 263.809 176.191 264.559C176.582 264.605 177.023 264.641 177.516 264.664C178.016 264.688 178.562 264.699 179.156 264.699C181.117 264.699 182.406 264.512 183.023 264.137C183.648 263.754 184.145 263.023 184.512 261.945L185.355 262.227C185.121 262.875 184.914 263.512 184.734 264.137C184.555 264.762 184.398 265.383 184.266 266C183.039 265.953 181.898 265.918 180.844 265.895C179.789 265.871 178.836 265.859 177.984 265.859C176.82 265.859 174.945 265.902 172.359 265.988L171.938 266V265.238C171.992 265.246 172.043 265.254 172.09 265.262C172.145 265.262 172.223 265.262 172.324 265.262C173.363 265.262 173.891 263.801 173.906 260.879C173.914 260.145 173.922 259.57 173.93 259.156L173.977 255.957C173.984 255.27 173.988 254.602 173.988 253.953C173.996 253.305 174 252.602 174 251.844C174 251.172 173.875 250.707 173.625 250.449C173.375 250.191 172.93 250.062 172.289 250.062H172.195V249.277ZM203.953 249.781C203.953 250.359 203.984 250.93 204.047 251.492C204.117 252.055 204.223 252.609 204.363 253.156L203.449 253.332C203.316 252.363 202.941 251.645 202.324 251.176C201.715 250.707 200.852 250.473 199.734 250.473C198.703 250.473 197.863 250.723 197.215 251.223C196.574 251.723 196.254 252.367 196.254 253.156C196.254 254.453 197.629 255.562 200.379 256.484C200.746 256.602 201.027 256.695 201.223 256.766C202.48 257.203 203.406 257.766 204 258.453C204.594 259.133 204.891 259.977 204.891 260.984C204.891 262.539 204.301 263.801 203.121 264.77C201.941 265.73 200.379 266.211 198.434 266.211C197.691 266.211 196.965 266.148 196.254 266.023C195.551 265.906 194.836 265.719 194.109 265.461C194.117 265.383 194.121 265.293 194.121 265.191C194.129 265.082 194.133 264.926 194.133 264.723C194.133 264.168 194.102 263.621 194.039 263.082C193.977 262.543 193.883 262.004 193.758 261.465L194.812 261.219C194.945 262.5 195.348 263.438 196.02 264.031C196.691 264.625 197.688 264.922 199.008 264.922C200.164 264.922 201.105 264.633 201.832 264.055C202.559 263.469 202.922 262.719 202.922 261.805C202.922 260.508 201.789 259.5 199.523 258.781C199.203 258.68 198.953 258.598 198.773 258.535C197.203 258.027 196.078 257.406 195.398 256.672C194.719 255.938 194.379 255 194.379 253.859C194.379 252.516 194.91 251.395 195.973 250.496C197.035 249.598 198.367 249.148 199.969 249.148C200.555 249.148 201.148 249.195 201.75 249.289C202.352 249.383 203.086 249.547 203.953 249.781ZM221.309 249.805V250.203C221.309 250.75 221.328 251.32 221.367 251.914C221.406 252.5 221.465 253.117 221.543 253.766L220.688 253.906C220.531 252.781 220 251.906 219.094 251.281C218.188 250.648 217.004 250.332 215.543 250.332C213.598 250.332 212.094 250.93 211.031 252.125C209.977 253.312 209.449 255 209.449 257.188C209.449 259.523 210.055 261.414 211.266 262.859C212.484 264.297 214.062 265.016 216 265.016C217.219 265.016 218.273 264.734 219.164 264.172C220.062 263.609 220.762 262.785 221.262 261.699L222.047 262.086C221.797 262.594 221.57 263.113 221.367 263.645C221.164 264.168 220.984 264.695 220.828 265.227C219.984 265.609 219.125 265.898 218.25 266.094C217.375 266.289 216.496 266.387 215.613 266.387C213.02 266.387 210.918 265.586 209.309 263.984C207.707 262.375 206.906 260.262 206.906 257.645C206.906 255.066 207.754 252.969 209.449 251.352C211.145 249.727 213.336 248.914 216.023 248.914C216.82 248.914 217.66 248.988 218.543 249.137C219.434 249.285 220.355 249.508 221.309 249.805ZM223.805 249.277C224.359 249.309 224.891 249.332 225.398 249.348C225.906 249.363 226.367 249.371 226.781 249.371C227.258 249.371 227.746 249.363 228.246 249.348C228.746 249.332 229.258 249.309 229.781 249.277V250.086H229.465C228.824 250.086 228.391 250.258 228.164 250.602C227.945 250.938 227.836 251.84 227.836 253.309V253.883V256.766C228.344 256.781 228.879 256.793 229.441 256.801C230.012 256.809 230.805 256.812 231.82 256.812C232.859 256.812 233.762 256.809 234.527 256.801C235.301 256.793 236.086 256.781 236.883 256.766V253.496C236.883 251.941 236.77 250.984 236.543 250.625C236.324 250.266 235.895 250.086 235.254 250.086H234.938V249.277C235.461 249.309 235.973 249.332 236.473 249.348C236.98 249.363 237.477 249.371 237.961 249.371C238.375 249.371 238.832 249.363 239.332 249.348C239.832 249.332 240.359 249.309 240.914 249.277V250.086C240.875 250.086 240.82 250.082 240.75 250.074C240.68 250.066 240.629 250.062 240.598 250.062C239.996 250.062 239.586 250.254 239.367 250.637C239.148 251.012 239.039 251.82 239.039 253.062C239.039 253.297 239.043 253.742 239.051 254.398C239.059 255.055 239.062 255.594 239.062 256.016V259.133C239.062 259.555 239.059 260.098 239.051 260.762C239.043 261.418 239.039 261.867 239.039 262.109C239.039 263.391 239.148 264.227 239.367 264.617C239.586 265.008 239.996 265.203 240.598 265.203C240.707 265.203 240.789 265.203 240.844 265.203C240.906 265.195 240.961 265.191 241.008 265.191V266C240.391 265.969 239.816 265.945 239.285 265.93C238.762 265.914 238.32 265.906 237.961 265.906C237.539 265.906 237.062 265.914 236.531 265.93C236.008 265.945 235.445 265.969 234.844 266V265.18C234.891 265.18 234.961 265.184 235.055 265.191C235.148 265.199 235.215 265.203 235.254 265.203C235.895 265.203 236.324 265.027 236.543 264.676C236.77 264.324 236.883 263.477 236.883 262.133V260.715V258.148H236.73C234.723 258.117 233.254 258.102 232.324 258.102C231.621 258.102 230.949 258.109 230.309 258.125C230.223 258.125 230.176 258.125 230.168 258.125C229.832 258.125 229.469 258.129 229.078 258.137C228.688 258.137 228.273 258.141 227.836 258.148V260.938V261.875C227.836 263.375 227.949 264.305 228.176 264.664C228.402 265.023 228.84 265.203 229.488 265.203C229.527 265.203 229.594 265.199 229.688 265.191C229.781 265.184 229.852 265.18 229.898 265.18V266C229.297 265.969 228.73 265.945 228.199 265.93C227.676 265.914 227.203 265.906 226.781 265.906C226.422 265.906 225.98 265.914 225.457 265.93C224.934 265.945 224.359 265.969 223.734 266V265.191C223.781 265.191 223.832 265.195 223.887 265.203C223.949 265.203 224.031 265.203 224.133 265.203C224.742 265.203 225.156 265.008 225.375 264.617C225.594 264.227 225.703 263.391 225.703 262.109C225.703 261.867 225.699 261.418 225.691 260.762C225.684 260.098 225.68 259.555 225.68 259.133V256.016C225.68 255.625 225.684 255.129 225.691 254.527C225.699 253.918 225.703 253.504 225.703 253.285C225.703 251.934 225.59 251.059 225.363 250.66C225.145 250.262 224.727 250.062 224.109 250.062C224.086 250.062 224.039 250.066 223.969 250.074C223.898 250.082 223.844 250.086 223.805 250.086V249.277ZM248.953 249.277V250.086C248.906 250.086 248.84 250.082 248.754 250.074C248.668 250.066 248.605 250.062 248.566 250.062C247.949 250.062 247.531 250.266 247.312 250.672C247.094 251.078 246.984 252.043 246.984 253.566V255.418V257.844C246.984 259.109 247.023 260.043 247.102 260.645C247.18 261.246 247.309 261.742 247.488 262.133C247.871 262.977 248.434 263.621 249.176 264.066C249.926 264.504 250.828 264.723 251.883 264.723C252.672 264.723 253.363 264.609 253.957 264.383C254.551 264.156 255.059 263.809 255.48 263.34C255.902 262.871 256.199 262.297 256.371 261.617C256.543 260.938 256.629 259.805 256.629 258.219C256.629 256.312 256.605 254.711 256.559 253.414C256.52 252.109 256.465 251.32 256.395 251.047C256.285 250.688 256.113 250.438 255.879 250.297C255.652 250.156 255.281 250.086 254.766 250.086H254.59V249.277C254.684 249.277 254.82 249.281 255 249.289C256.078 249.344 256.848 249.371 257.309 249.371C257.762 249.371 258.527 249.344 259.605 249.289C259.793 249.281 259.93 249.277 260.016 249.277V250.086H259.875C259.414 250.086 259.066 250.145 258.832 250.262C258.605 250.379 258.441 250.574 258.34 250.848C258.254 251.074 258.191 251.672 258.152 252.641C258.113 253.602 258.094 255.16 258.094 257.316V258.488C258.094 259.723 258.047 260.668 257.953 261.324C257.859 261.973 257.707 262.547 257.496 263.047C257.059 264.086 256.305 264.902 255.234 265.496C254.164 266.09 252.902 266.387 251.449 266.387C250.441 266.387 249.512 266.238 248.66 265.941C247.816 265.645 247.098 265.215 246.504 264.652C245.855 264.059 245.395 263.359 245.121 262.555C244.848 261.742 244.711 260.609 244.711 259.156C244.711 258.594 244.719 257.676 244.734 256.402C244.75 255.121 244.758 254.121 244.758 253.402V253.039C244.758 251.695 244.645 250.867 244.418 250.555C244.199 250.242 243.766 250.086 243.117 250.086H242.906V249.277C243.461 249.309 243.988 249.332 244.488 249.348C244.988 249.363 245.445 249.371 245.859 249.371C246.359 249.371 246.867 249.363 247.383 249.348C247.898 249.332 248.422 249.309 248.953 249.277ZM254.262 244.18C254.566 244.18 254.891 244.336 255.234 244.648C255.578 244.961 255.75 245.262 255.75 245.551C255.75 245.832 255.578 246.129 255.234 246.441C254.891 246.754 254.566 246.91 254.262 246.91C253.949 246.91 253.625 246.758 253.289 246.453C252.961 246.141 252.797 245.84 252.797 245.551C252.797 245.27 252.965 244.973 253.301 244.66C253.637 244.34 253.957 244.18 254.262 244.18ZM249.27 244.18C249.574 244.18 249.895 244.336 250.23 244.648C250.566 244.961 250.734 245.262 250.734 245.551C250.734 245.832 250.566 246.129 250.23 246.441C249.895 246.754 249.574 246.91 249.27 246.91C248.957 246.91 248.633 246.758 248.297 246.453C247.969 246.141 247.805 245.84 247.805 245.551C247.805 245.27 247.973 244.973 248.309 244.66C248.645 244.34 248.965 244.18 249.27 244.18ZM264.75 265.18H265.16C265.715 265.18 266.109 265.113 266.344 264.98C266.578 264.84 266.742 264.586 266.836 264.219C266.906 263.977 266.953 263.098 266.977 261.582C267.008 260.066 267.023 257.707 267.023 254.504V250.766H264.656C263.508 250.766 262.73 250.922 262.324 251.234C261.926 251.539 261.629 252.188 261.434 253.18L260.672 253.016C260.82 252.336 260.934 251.668 261.012 251.012C261.09 250.355 261.129 249.711 261.129 249.078C261.363 249.227 261.836 249.332 262.547 249.395C263.266 249.457 264.52 249.488 266.309 249.488H269.168C271.543 249.488 273.07 249.461 273.75 249.406C274.438 249.344 274.918 249.234 275.191 249.078C275.191 249.156 275.188 249.281 275.18 249.453C275.172 249.617 275.168 249.742 275.168 249.828C275.168 250.32 275.188 250.828 275.227 251.352C275.273 251.875 275.34 252.414 275.426 252.969L274.688 253.109C274.594 252.227 274.352 251.625 273.961 251.305C273.578 250.984 272.766 250.805 271.523 250.766H269.309C269.301 251.211 269.293 251.84 269.285 252.652C269.27 254.785 269.262 256.219 269.262 256.953C269.262 259.727 269.277 261.605 269.309 262.59C269.348 263.574 269.41 264.188 269.496 264.43C269.598 264.711 269.766 264.906 270 265.016C270.234 265.125 270.594 265.18 271.078 265.18H271.488V266C270.84 265.969 270.227 265.945 269.648 265.93C269.078 265.914 268.566 265.906 268.113 265.906C267.715 265.906 267.223 265.914 266.637 265.93C266.059 265.945 265.43 265.969 264.75 266V265.18ZM277.805 249.277C278.453 249.348 279.207 249.402 280.066 249.441C280.934 249.473 282.129 249.488 283.652 249.488H285.047H286.441C287.387 249.488 288.203 249.473 288.891 249.441C289.578 249.402 290.234 249.348 290.859 249.277L291.188 249.922C290.891 250.195 290.59 250.504 290.285 250.848C289.988 251.184 289.652 251.602 289.277 252.102L280.02 264.441C280.512 264.449 281.023 264.457 281.555 264.465C282.094 264.465 282.844 264.465 283.805 264.465C285.289 264.465 286.422 264.445 287.203 264.406C287.992 264.367 288.578 264.305 288.961 264.219C289.406 264.133 289.797 263.879 290.133 263.457C290.469 263.027 290.781 262.387 291.07 261.535L291.867 261.781C291.617 262.523 291.402 263.242 291.223 263.938C291.051 264.633 290.914 265.32 290.812 266C289.922 265.914 288.875 265.848 287.672 265.801C286.477 265.754 285.09 265.73 283.512 265.73H282.621C281.309 265.73 280.211 265.754 279.328 265.801C278.453 265.84 277.617 265.906 276.82 266L276.434 265.309C276.848 264.965 277.391 264.344 278.062 263.445C278.148 263.336 278.215 263.25 278.262 263.188L287.52 250.766H283.582C281.324 250.766 279.863 250.934 279.199 251.27C278.535 251.605 278.117 252.25 277.945 253.203L277.172 252.992C277.359 252.406 277.504 251.809 277.605 251.199C277.707 250.582 277.773 249.941 277.805 249.277ZM293.133 249.277C294.5 249.324 295.723 249.359 296.801 249.383C297.879 249.406 298.809 249.418 299.59 249.418C300.457 249.418 301.332 249.406 302.215 249.383C303.105 249.359 304.008 249.324 304.922 249.277C304.93 249.863 304.953 250.465 304.992 251.082C305.031 251.691 305.078 252.305 305.133 252.922L304.348 252.992C304.285 252.055 303.996 251.422 303.48 251.094C302.965 250.758 301.852 250.59 300.141 250.59C299.703 250.59 298.902 250.602 297.738 250.625C297.504 250.633 297.332 250.637 297.223 250.637C297.207 251.574 297.184 252.723 297.152 254.082C297.121 255.441 297.102 256.324 297.094 256.73H297.457C297.918 256.73 298.492 256.738 299.18 256.754C299.875 256.762 300.34 256.766 300.574 256.766C301.707 256.766 302.453 256.66 302.812 256.449C303.18 256.238 303.379 255.848 303.41 255.277L304.148 255.348C304.094 255.832 304.051 256.281 304.02 256.695C303.996 257.109 303.984 257.492 303.984 257.844C303.984 258.047 304.004 258.484 304.043 259.156C304.059 259.398 304.07 259.582 304.078 259.707L303.316 259.73V259.637C303.316 258.973 303.121 258.523 302.73 258.289C302.348 258.055 301.445 257.938 300.023 257.938H297.938H297.094C297.094 258.32 297.09 258.852 297.082 259.531C297.074 260.203 297.07 260.688 297.07 260.984C297.07 261.5 297.074 262.039 297.082 262.602C297.09 263.156 297.105 263.809 297.129 264.559C297.52 264.605 297.961 264.641 298.453 264.664C298.953 264.688 299.5 264.699 300.094 264.699C302.055 264.699 303.344 264.512 303.961 264.137C304.586 263.754 305.082 263.023 305.449 261.945L306.293 262.227C306.059 262.875 305.852 263.512 305.672 264.137C305.492 264.762 305.336 265.383 305.203 266C303.977 265.953 302.836 265.918 301.781 265.895C300.727 265.871 299.773 265.859 298.922 265.859C297.758 265.859 295.883 265.902 293.297 265.988L292.875 266V265.238C292.93 265.246 292.98 265.254 293.027 265.262C293.082 265.262 293.16 265.262 293.262 265.262C294.301 265.262 294.828 263.801 294.844 260.879C294.852 260.145 294.859 259.57 294.867 259.156L294.914 255.957C294.922 255.27 294.926 254.602 294.926 253.953C294.934 253.305 294.938 252.602 294.938 251.844C294.938 251.172 294.812 250.707 294.562 250.449C294.312 250.191 293.867 250.062 293.227 250.062H293.133V249.277ZM307.91 249.277C308.277 249.309 308.633 249.332 308.977 249.348C309.328 249.363 309.672 249.371 310.008 249.371C310.258 249.371 310.551 249.363 310.887 249.348C311.223 249.332 311.586 249.309 311.977 249.277C312.078 249.535 312.219 249.801 312.398 250.074C312.578 250.348 312.805 250.648 313.078 250.977L322.746 262.414C322.723 261.227 322.699 259.652 322.676 257.691C322.613 253.574 322.543 251.359 322.465 251.047C322.371 250.688 322.203 250.438 321.961 250.297C321.727 250.156 321.34 250.086 320.801 250.086H320.438V249.277C320.531 249.277 320.672 249.281 320.859 249.289C321.969 249.344 322.75 249.371 323.203 249.371C323.664 249.371 324.469 249.344 325.617 249.289C325.781 249.281 325.906 249.277 325.992 249.277L325.98 250.086C325.934 250.078 325.883 250.074 325.828 250.074C325.773 250.066 325.699 250.062 325.605 250.062C324.559 250.062 324.027 251.52 324.012 254.434C324.004 255.168 324 255.742 324 256.156L323.953 259.273C323.938 259.734 323.926 260.211 323.918 260.703C323.918 261.188 323.918 261.855 323.918 262.707C323.918 263.652 323.93 264.391 323.953 264.922C323.977 265.445 324.016 265.867 324.07 266.188H322.77C322.637 265.875 322.164 265.25 321.352 264.312L321.234 264.172L311.18 252.348V252.617C311.227 259.93 311.305 263.797 311.414 264.219C311.508 264.578 311.672 264.828 311.906 264.969C312.148 265.109 312.531 265.18 313.055 265.18H313.406V266C313.289 265.992 313.117 265.984 312.891 265.977C311.797 265.93 311.051 265.906 310.652 265.906C310.27 265.906 309.844 265.914 309.375 265.93C308.914 265.945 308.426 265.969 307.91 266V265.191C307.957 265.191 308.008 265.195 308.062 265.203C308.125 265.203 308.203 265.203 308.297 265.203C309.344 265.203 309.875 263.754 309.891 260.855C309.898 260.121 309.902 259.547 309.902 259.133L309.961 256.016C309.969 255.344 309.973 254.691 309.973 254.059C309.98 253.418 309.984 252.688 309.984 251.867C309.984 251.195 309.855 250.73 309.598 250.473C309.34 250.215 308.883 250.086 308.227 250.086H307.91V249.277ZM344.297 249.781C344.297 250.359 344.328 250.93 344.391 251.492C344.461 252.055 344.566 252.609 344.707 253.156L343.793 253.332C343.66 252.363 343.285 251.645 342.668 251.176C342.059 250.707 341.195 250.473 340.078 250.473C339.047 250.473 338.207 250.723 337.559 251.223C336.918 251.723 336.598 252.367 336.598 253.156C336.598 254.453 337.973 255.562 340.723 256.484C341.09 256.602 341.371 256.695 341.566 256.766C342.824 257.203 343.75 257.766 344.344 258.453C344.938 259.133 345.234 259.977 345.234 260.984C345.234 262.539 344.645 263.801 343.465 264.77C342.285 265.73 340.723 266.211 338.777 266.211C338.035 266.211 337.309 266.148 336.598 266.023C335.895 265.906 335.18 265.719 334.453 265.461C334.461 265.383 334.465 265.293 334.465 265.191C334.473 265.082 334.477 264.926 334.477 264.723C334.477 264.168 334.445 263.621 334.383 263.082C334.32 262.543 334.227 262.004 334.102 261.465L335.156 261.219C335.289 262.5 335.691 263.438 336.363 264.031C337.035 264.625 338.031 264.922 339.352 264.922C340.508 264.922 341.449 264.633 342.176 264.055C342.902 263.469 343.266 262.719 343.266 261.805C343.266 260.508 342.133 259.5 339.867 258.781C339.547 258.68 339.297 258.598 339.117 258.535C337.547 258.027 336.422 257.406 335.742 256.672C335.062 255.938 334.723 255 334.723 253.859C334.723 252.516 335.254 251.395 336.316 250.496C337.379 249.598 338.711 249.148 340.312 249.148C340.898 249.148 341.492 249.195 342.094 249.289C342.695 249.383 343.43 249.547 344.297 249.781ZM347.156 249.277C347.703 249.309 348.246 249.332 348.785 249.348C349.324 249.363 349.852 249.371 350.367 249.371C350.805 249.371 351.293 249.363 351.832 249.348C352.371 249.332 352.941 249.309 353.543 249.277V250.086H353.344C352.836 250.086 352.453 250.145 352.195 250.262C351.945 250.379 351.77 250.574 351.668 250.848C351.605 251.027 351.559 251.32 351.527 251.727C351.504 252.125 351.492 252.777 351.492 253.684V256.016V261.852C351.492 262.773 351.512 263.422 351.551 263.797C351.598 264.172 351.668 264.449 351.762 264.629C351.863 264.824 352.043 264.965 352.301 265.051C352.566 265.137 352.938 265.18 353.414 265.18H353.66V266C352.988 265.969 352.367 265.945 351.797 265.93C351.227 265.914 350.75 265.906 350.367 265.906C349.914 265.906 349.402 265.914 348.832 265.93C348.262 265.945 347.664 265.969 347.039 266V265.18H347.273C347.758 265.18 348.129 265.137 348.387 265.051C348.645 264.965 348.824 264.824 348.926 264.629C349.035 264.418 349.109 264.074 349.148 263.598C349.195 263.113 349.219 262.242 349.219 260.984V259.133V254.551C349.219 253.324 349.203 252.453 349.172 251.938C349.141 251.414 349.09 251.051 349.02 250.848C348.926 250.574 348.754 250.379 348.504 250.262C348.262 250.145 347.883 250.086 347.367 250.086H347.156V249.277ZM355.57 249.277C356.938 249.324 358.16 249.359 359.238 249.383C360.316 249.406 361.246 249.418 362.027 249.418C362.895 249.418 363.77 249.406 364.652 249.383C365.543 249.359 366.445 249.324 367.359 249.277C367.367 249.863 367.391 250.465 367.43 251.082C367.469 251.691 367.516 252.305 367.57 252.922L366.785 252.992C366.723 252.055 366.434 251.422 365.918 251.094C365.402 250.758 364.289 250.59 362.578 250.59C362.141 250.59 361.34 250.602 360.176 250.625C359.941 250.633 359.77 250.637 359.66 250.637C359.645 251.574 359.621 252.723 359.59 254.082C359.559 255.441 359.539 256.324 359.531 256.73H359.895C360.355 256.73 360.93 256.738 361.617 256.754C362.312 256.762 362.777 256.766 363.012 256.766C364.145 256.766 364.891 256.66 365.25 256.449C365.617 256.238 365.816 255.848 365.848 255.277L366.586 255.348C366.531 255.832 366.488 256.281 366.457 256.695C366.434 257.109 366.422 257.492 366.422 257.844C366.422 258.047 366.441 258.484 366.48 259.156C366.496 259.398 366.508 259.582 366.516 259.707L365.754 259.73V259.637C365.754 258.973 365.559 258.523 365.168 258.289C364.785 258.055 363.883 257.938 362.461 257.938H360.375H359.531C359.531 258.32 359.527 258.852 359.52 259.531C359.512 260.203 359.508 260.688 359.508 260.984C359.508 261.5 359.512 262.039 359.52 262.602C359.527 263.156 359.543 263.809 359.566 264.559C359.957 264.605 360.398 264.641 360.891 264.664C361.391 264.688 361.938 264.699 362.531 264.699C364.492 264.699 365.781 264.512 366.398 264.137C367.023 263.754 367.52 263.023 367.887 261.945L368.73 262.227C368.496 262.875 368.289 263.512 368.109 264.137C367.93 264.762 367.773 265.383 367.641 266C366.414 265.953 365.273 265.918 364.219 265.895C363.164 265.871 362.211 265.859 361.359 265.859C360.195 265.859 358.32 265.902 355.734 265.988L355.312 266V265.238C355.367 265.246 355.418 265.254 355.465 265.262C355.52 265.262 355.598 265.262 355.699 265.262C356.738 265.262 357.266 263.801 357.281 260.879C357.289 260.145 357.297 259.57 357.305 259.156L357.352 255.957C357.359 255.27 357.363 254.602 357.363 253.953C357.371 253.305 357.375 252.602 357.375 251.844C357.375 251.172 357.25 250.707 357 250.449C356.75 250.191 356.305 250.062 355.664 250.062H355.57V249.277ZM387.328 249.781C387.328 250.359 387.359 250.93 387.422 251.492C387.492 252.055 387.598 252.609 387.738 253.156L386.824 253.332C386.691 252.363 386.316 251.645 385.699 251.176C385.09 250.707 384.227 250.473 383.109 250.473C382.078 250.473 381.238 250.723 380.59 251.223C379.949 251.723 379.629 252.367 379.629 253.156C379.629 254.453 381.004 255.562 383.754 256.484C384.121 256.602 384.402 256.695 384.598 256.766C385.855 257.203 386.781 257.766 387.375 258.453C387.969 259.133 388.266 259.977 388.266 260.984C388.266 262.539 387.676 263.801 386.496 264.77C385.316 265.73 383.754 266.211 381.809 266.211C381.066 266.211 380.34 266.148 379.629 266.023C378.926 265.906 378.211 265.719 377.484 265.461C377.492 265.383 377.496 265.293 377.496 265.191C377.504 265.082 377.508 264.926 377.508 264.723C377.508 264.168 377.477 263.621 377.414 263.082C377.352 262.543 377.258 262.004 377.133 261.465L378.188 261.219C378.32 262.5 378.723 263.438 379.395 264.031C380.066 264.625 381.062 264.922 382.383 264.922C383.539 264.922 384.48 264.633 385.207 264.055C385.934 263.469 386.297 262.719 386.297 261.805C386.297 260.508 385.164 259.5 382.898 258.781C382.578 258.68 382.328 258.598 382.148 258.535C380.578 258.027 379.453 257.406 378.773 256.672C378.094 255.938 377.754 255 377.754 253.859C377.754 252.516 378.285 251.395 379.348 250.496C380.41 249.598 381.742 249.148 383.344 249.148C383.93 249.148 384.523 249.195 385.125 249.289C385.727 249.383 386.461 249.547 387.328 249.781ZM390.188 249.277C390.734 249.309 391.277 249.332 391.816 249.348C392.355 249.363 392.883 249.371 393.398 249.371C393.836 249.371 394.324 249.363 394.863 249.348C395.402 249.332 395.973 249.309 396.574 249.277V250.086H396.375C395.867 250.086 395.484 250.145 395.227 250.262C394.977 250.379 394.801 250.574 394.699 250.848C394.637 251.027 394.59 251.32 394.559 251.727C394.535 252.125 394.523 252.777 394.523 253.684V256.016V261.852C394.523 262.773 394.543 263.422 394.582 263.797C394.629 264.172 394.699 264.449 394.793 264.629C394.895 264.824 395.074 264.965 395.332 265.051C395.598 265.137 395.969 265.18 396.445 265.18H396.691V266C396.02 265.969 395.398 265.945 394.828 265.93C394.258 265.914 393.781 265.906 393.398 265.906C392.945 265.906 392.434 265.914 391.863 265.93C391.293 265.945 390.695 265.969 390.07 266V265.18H390.305C390.789 265.18 391.16 265.137 391.418 265.051C391.676 264.965 391.855 264.824 391.957 264.629C392.066 264.418 392.141 264.074 392.18 263.598C392.227 263.113 392.25 262.242 392.25 260.984V259.133V254.551C392.25 253.324 392.234 252.453 392.203 251.938C392.172 251.414 392.121 251.051 392.051 250.848C391.957 250.574 391.785 250.379 391.535 250.262C391.293 250.145 390.914 250.086 390.398 250.086H390.188V249.277ZM412.84 249.805V250.203C412.84 250.75 412.859 251.32 412.898 251.914C412.938 252.5 412.996 253.117 413.074 253.766L412.219 253.906C412.062 252.781 411.531 251.906 410.625 251.281C409.719 250.648 408.535 250.332 407.074 250.332C405.129 250.332 403.625 250.93 402.562 252.125C401.508 253.312 400.98 255 400.98 257.188C400.98 259.523 401.586 261.414 402.797 262.859C404.016 264.297 405.594 265.016 407.531 265.016C408.75 265.016 409.805 264.734 410.695 264.172C411.594 263.609 412.293 262.785 412.793 261.699L413.578 262.086C413.328 262.594 413.102 263.113 412.898 263.645C412.695 264.168 412.516 264.695 412.359 265.227C411.516 265.609 410.656 265.898 409.781 266.094C408.906 266.289 408.027 266.387 407.145 266.387C404.551 266.387 402.449 265.586 400.84 263.984C399.238 262.375 398.438 260.262 398.438 257.645C398.438 255.066 399.285 252.969 400.98 251.352C402.676 249.727 404.867 248.914 407.555 248.914C408.352 248.914 409.191 248.988 410.074 249.137C410.965 249.285 411.887 249.508 412.84 249.805ZM415.336 249.277C415.891 249.309 416.422 249.332 416.93 249.348C417.438 249.363 417.898 249.371 418.312 249.371C418.789 249.371 419.277 249.363 419.777 249.348C420.277 249.332 420.789 249.309 421.312 249.277V250.086H420.996C420.355 250.086 419.922 250.258 419.695 250.602C419.477 250.938 419.367 251.84 419.367 253.309V253.883V256.766C419.875 256.781 420.41 256.793 420.973 256.801C421.543 256.809 422.336 256.812 423.352 256.812C424.391 256.812 425.293 256.809 426.059 256.801C426.832 256.793 427.617 256.781 428.414 256.766V253.496C428.414 251.941 428.301 250.984 428.074 250.625C427.855 250.266 427.426 250.086 426.785 250.086H426.469V249.277C426.992 249.309 427.504 249.332 428.004 249.348C428.512 249.363 429.008 249.371 429.492 249.371C429.906 249.371 430.363 249.363 430.863 249.348C431.363 249.332 431.891 249.309 432.445 249.277V250.086C432.406 250.086 432.352 250.082 432.281 250.074C432.211 250.066 432.16 250.062 432.129 250.062C431.527 250.062 431.117 250.254 430.898 250.637C430.68 251.012 430.57 251.82 430.57 253.062C430.57 253.297 430.574 253.742 430.582 254.398C430.59 255.055 430.594 255.594 430.594 256.016V259.133C430.594 259.555 430.59 260.098 430.582 260.762C430.574 261.418 430.57 261.867 430.57 262.109C430.57 263.391 430.68 264.227 430.898 264.617C431.117 265.008 431.527 265.203 432.129 265.203C432.238 265.203 432.32 265.203 432.375 265.203C432.438 265.195 432.492 265.191 432.539 265.191V266C431.922 265.969 431.348 265.945 430.816 265.93C430.293 265.914 429.852 265.906 429.492 265.906C429.07 265.906 428.594 265.914 428.062 265.93C427.539 265.945 426.977 265.969 426.375 266V265.18C426.422 265.18 426.492 265.184 426.586 265.191C426.68 265.199 426.746 265.203 426.785 265.203C427.426 265.203 427.855 265.027 428.074 264.676C428.301 264.324 428.414 263.477 428.414 262.133V260.715V258.148H428.262C426.254 258.117 424.785 258.102 423.855 258.102C423.152 258.102 422.48 258.109 421.84 258.125C421.754 258.125 421.707 258.125 421.699 258.125C421.363 258.125 421 258.129 420.609 258.137C420.219 258.137 419.805 258.141 419.367 258.148V260.938V261.875C419.367 263.375 419.48 264.305 419.707 264.664C419.934 265.023 420.371 265.203 421.02 265.203C421.059 265.203 421.125 265.199 421.219 265.191C421.312 265.184 421.383 265.18 421.43 265.18V266C420.828 265.969 420.262 265.945 419.73 265.93C419.207 265.914 418.734 265.906 418.312 265.906C417.953 265.906 417.512 265.914 416.988 265.93C416.465 265.945 415.891 265.969 415.266 266V265.191C415.312 265.191 415.363 265.195 415.418 265.203C415.48 265.203 415.562 265.203 415.664 265.203C416.273 265.203 416.688 265.008 416.906 264.617C417.125 264.227 417.234 263.391 417.234 262.109C417.234 261.867 417.23 261.418 417.223 260.762C417.215 260.098 417.211 259.555 417.211 259.133V256.016C417.211 255.625 417.215 255.129 417.223 254.527C417.23 253.918 417.234 253.504 417.234 253.285C417.234 251.934 417.121 251.059 416.895 250.66C416.676 250.262 416.258 250.062 415.641 250.062C415.617 250.062 415.57 250.066 415.5 250.074C415.43 250.082 415.375 250.086 415.336 250.086V249.277ZM436.934 263.188L437.754 263.82C437.973 263.984 438.129 264.145 438.223 264.301C438.324 264.457 438.375 264.625 438.375 264.805C438.375 264.984 438.336 265.141 438.258 265.273C438.18 265.406 438.035 265.551 437.824 265.707L436.934 266.41L436.09 265.766C435.871 265.594 435.711 265.43 435.609 265.273C435.516 265.117 435.469 264.953 435.469 264.781C435.469 264.602 435.508 264.445 435.586 264.312C435.664 264.18 435.816 264.031 436.043 263.867L436.934 263.188ZM437.344 261.418L436.453 261.406C436.461 261.281 436.465 261.141 436.465 260.984C436.473 260.828 436.477 260.598 436.477 260.293C436.477 259.84 436.465 259.379 436.441 258.91C436.426 258.434 436.398 257.949 436.359 257.457C437.867 257.098 439.043 256.543 439.887 255.793C440.73 255.043 441.152 254.18 441.152 253.203C441.152 252.438 440.887 251.805 440.355 251.305C439.824 250.797 439.156 250.543 438.352 250.543C437.789 250.543 437.199 250.723 436.582 251.082C435.965 251.441 435.586 251.621 435.445 251.621C435.211 251.621 435.016 251.539 434.859 251.375C434.703 251.203 434.625 250.988 434.625 250.73C434.625 250.215 434.875 249.793 435.375 249.465C435.875 249.129 436.523 248.961 437.32 248.961C438.867 248.961 440.156 249.426 441.188 250.355C442.227 251.277 442.746 252.43 442.746 253.812C442.746 254.883 442.445 255.789 441.844 256.531C441.242 257.266 440.145 258.02 438.551 258.793C438.504 258.816 438.438 258.848 438.352 258.887C437.68 259.199 437.344 259.859 437.344 260.867V261.418Z" fill="#FFD037"/>
<path d="M539.884 230.625C537.964 231.016 535.668 231.877 535.442 233.911C535.178 236.181 537.852 237.511 539.997 237.981C548.092 239.82 556.45 240.055 564.77 240.289C608.744 241.385 652.717 241.581 696.692 240.837C696.052 235.242 689.65 232.816 684.342 231.759C661.527 227.221 637.921 229.803 615.52 224.99C591.915 219.864 563.189 225.656 539.884 230.625Z" fill="url(#paint0_linear_592_3174)"/>
<path d="M539.884 230.625C537.964 231.016 535.668 231.877 535.442 233.911C535.178 236.181 537.852 237.511 539.997 237.981C548.092 239.82 556.45 240.055 564.77 240.289C608.744 241.385 652.717 241.581 696.692 240.837C696.052 235.242 689.65 232.816 684.342 231.759C661.527 227.221 637.921 229.803 615.52 224.99C591.915 219.864 563.189 225.656 539.884 230.625Z" fill="url(#paint1_linear_592_3174)"/>
<path d="M659.64 193.766C660.129 193.61 660.656 193.766 661.146 193.923C663.292 194.666 665.4 195.644 667.283 196.935C668.224 197.562 669.165 198.266 669.617 199.322C670.031 200.301 669.993 201.396 669.918 202.413C669.24 215.013 668.6 227.651 667.923 240.25C667.885 241.072 667.772 241.972 667.17 242.481C666.417 243.068 665.363 242.676 664.534 242.285C656.44 238.607 648.383 234.89 640.289 231.212C636.411 229.451 632.42 227.573 629.559 224.325C631.742 219.317 636.336 215.991 640.552 212.626C647.103 207.382 653.127 201.357 658.435 194.783C658.737 194.392 659.113 193.922 659.64 193.766Z" fill="#DDC199"/>
<path d="M697.78 128.852C695.785 128.383 693.75 127.913 691.756 127.443C680.01 149.864 669.619 173.067 660.658 196.857C662.729 198.226 665.477 199.635 667.473 198.148C668.301 197.522 668.79 196.505 669.242 195.527C679.407 173.615 688.932 151.39 697.78 128.852Z" fill="#BDB39B"/>
<g opacity="0.26">
<path opacity="0.26" d="M660.765 237.942C660.728 238.373 661.368 238.529 661.443 238.099C663.062 225.382 665.358 212.9 668.332 200.458C668.521 199.675 667.354 199.44 667.165 200.223C664.078 212.548 661.932 225.226 660.765 237.942Z" fill="#272525"/>
<path opacity="0.26" d="M648.008 232.346C652.978 221.469 658.249 210.748 663.821 200.183C664.159 199.557 663.181 199.048 662.842 199.674C657.044 210.317 651.811 221.273 647.029 232.425C647.105 232.503 647.142 232.581 647.18 232.66C647.443 232.464 647.707 232.386 648.008 232.346Z" fill="#272525"/>
<path opacity="0.26" d="M639.908 225.186C648.229 217.047 655.646 208.009 662.121 198.227C662.535 197.561 661.481 197.014 661.067 197.679C654.704 207.422 647.401 216.421 639.231 224.56C638.817 224.99 639.494 225.617 639.908 225.186Z" fill="#272525"/>
</g>
<path d="M582.198 204.919C582.236 204.332 582.311 203.705 582.349 203.119C577.379 199.597 568.645 200.732 563.374 202.532C557.727 204.449 557.726 208.049 557.802 214.153C557.839 217.596 558.141 221.47 560.701 223.7C562.659 225.422 565.407 225.656 567.967 225.813C570.264 225.969 572.523 226.087 574.819 226.243C576.4 226.321 578.17 226.361 579.412 225.304C580.655 224.209 580.843 222.37 580.994 220.687C581.408 215.405 581.822 210.162 582.198 204.919Z" fill="#2F3F47"/>
<path d="M588.264 204.919C588.226 204.332 588.151 203.705 588.113 203.119C593.083 199.597 601.818 200.732 607.088 202.532C612.735 204.449 612.735 208.049 612.66 214.153C612.623 217.596 612.321 221.47 609.761 223.7C607.803 225.422 605.055 225.656 602.495 225.813C600.198 225.969 597.94 226.087 595.643 226.243C594.062 226.321 592.292 226.361 591.05 225.304C589.808 224.209 589.619 222.37 589.469 220.687C589.092 215.405 588.678 210.162 588.264 204.919Z" fill="#2F3F47"/>
<path d="M545.863 191.848C544.621 192.122 543.416 192.513 542.249 193.022C541.383 193.374 540.517 193.844 539.915 194.548C539.086 195.565 538.861 196.974 538.71 198.344C538.522 200.143 538.446 201.943 538.484 203.743C538.484 205.269 538.597 206.834 539.35 208.126C540.404 209.926 542.475 210.747 544.433 211.256C548.16 212.234 552.037 212.469 555.878 212.664C579.107 213.838 602.411 213.055 625.528 210.356C626.469 210.238 627.523 210.082 628.163 209.339C628.539 208.908 628.728 208.321 628.916 207.773C630.121 203.782 630.911 198.344 628.314 194.626C626.092 191.457 621.989 193.257 618.902 193.217C615.739 193.178 612.539 192.905 609.376 192.787C603.202 192.513 597.028 192.239 590.853 192.044C582.157 191.731 573.422 191.457 564.725 191.222C558.852 191.105 551.925 190.44 545.863 191.848Z" fill="#516770"/>
<path d="M595.788 105.962C611.563 106.041 627.3 106.393 643.075 106.745C642.698 98.0196 642.096 89.2938 640.289 80.7639C637.164 65.817 630.011 51.2222 617.925 42.4966C599.402 29.1148 569.999 30.8755 550.045 44.1008C541.649 49.657 534.91 57.287 531.371 66.6386C527.305 77.3206 526.213 88.9809 525.574 100.446C525.498 101.972 525.423 103.458 525.348 104.984C548.765 104.045 572.333 105.884 595.788 105.962Z" fill="#EAF1F2"/>
<path d="M594.524 110.346C571.408 110.307 548.216 108.585 525.1 109.446C523.971 135.505 525.025 161.682 528.263 187.585C528.715 191.146 529.279 194.863 531.538 197.68C535.04 202.023 541.101 200.106 545.807 200.106C553.751 200.106 561.921 200.458 569.94 200.654C585.075 201.006 600.096 201.045 615.156 199.284C622.309 198.463 636.766 200.732 640.192 194.041C643.016 188.602 641.849 177.568 642.263 171.503C642.752 164.304 643.129 157.143 643.355 149.944C643.769 136.992 643.693 124.041 643.204 111.05C627.015 110.737 610.751 110.346 594.524 110.346Z" fill="#E2ECED"/>
<path d="M649.12 152.525C649.421 152.251 649.459 151.781 649.497 151.39C650.287 140.552 650.965 129.713 651.454 118.874C651.492 117.935 651.492 116.84 650.776 116.214C650.249 115.783 649.572 115.744 648.894 115.744C646.56 115.705 644.263 115.666 641.929 115.666C640.461 127.991 639.858 140.395 640.159 152.799C642.757 152.799 645.317 152.838 647.915 152.838C648.329 152.838 648.781 152.838 649.12 152.525Z" fill="#2F3F47"/>
<path d="M661.12 177.491C661.421 176.591 661.76 175.652 662.438 174.987C662.965 174.478 663.68 174.165 664.358 173.93C667.295 172.834 670.306 172.013 673.356 171.465C675.728 173.147 677.874 175.143 679.719 177.451C680.057 177.882 680.396 178.351 680.472 178.899C680.547 179.33 680.434 179.76 680.321 180.191C679.116 185.003 677.949 189.816 676.744 194.629C674.975 194.864 673.205 194.903 671.474 194.668C672.151 191.733 672.829 188.799 673.469 185.903C674.109 183.125 674.599 179.721 672.566 177.765C670.495 178.312 668.462 178.899 666.391 179.447C666.052 179.525 665.676 179.643 665.375 179.877C665.036 180.191 664.885 180.66 664.734 181.091C663.869 183.829 663.228 186.647 662.777 189.503C661.459 189.112 660.141 188.759 658.824 188.368C658.711 184.651 659.915 181.012 661.12 177.491Z" fill="#2F3F47"/>
<path d="M677.12 173.264C677.233 173.146 677.27 172.99 677.308 172.873C677.684 171.112 678.061 169.351 678.475 167.629C675.839 167.003 673.129 166.573 670.456 166.338C670.042 167.786 669.778 169.312 669.665 170.838C669.627 171.151 669.627 171.542 669.853 171.777C670.004 171.933 670.192 171.972 670.38 172.051C672.376 172.677 674.447 173.146 676.555 173.42C676.706 173.381 676.931 173.42 677.12 173.264Z" fill="#516770"/>
<path d="M679.76 166.418C681.341 163.64 680.061 156.323 680.061 153.388C680.024 149.358 680.024 145.289 679.12 141.376C678.217 137.463 676.372 133.629 673.322 131.164C671.59 129.755 669.557 128.855 667.449 128.112C661.162 125.881 654.423 125.138 647.834 125.96C647.307 126.038 646.742 126.116 646.366 126.507C645.952 126.899 645.876 127.525 645.801 128.112C645.5 130.342 645.086 132.807 645.199 135.076C645.387 139.068 644.597 137.972 647.383 139.107C649.528 139.968 653.557 139.263 656.004 139.85C658.865 140.515 661.651 141.533 664.437 142.55C666.207 143.176 668.089 143.959 668.993 145.641C669.482 146.541 669.633 147.637 669.746 148.693C670.423 154.954 670.725 161.253 670.687 167.553C670.687 168.648 678.442 168.101 679.459 166.888C679.572 166.731 679.647 166.575 679.76 166.418Z" fill="#E2ECED"/>
<g opacity="0.15">
<path opacity="0.15" d="M666.58 129.911C666.354 133.667 665.413 137.072 663.982 140.515C663.719 141.18 664.509 141.689 664.923 141.102C667.182 137.815 668.35 133.902 668.764 129.911C668.914 128.502 666.693 128.463 666.58 129.911Z" fill="#272525"/>
<path opacity="0.15" d="M672.341 132.61C671.701 136.249 670.12 138.636 667.635 141.219C667.296 141.571 667.748 142.158 668.124 141.884C669.818 140.788 671.4 140.084 672.604 138.323C673.734 136.68 674.487 134.919 674.713 132.924C674.863 131.554 672.605 131.241 672.341 132.61Z" fill="#272525"/>
</g>
<path d="M521.405 115.979C521.104 116.253 521.067 116.723 521.029 117.114C520.238 127.952 519.561 138.791 519.071 149.629C519.034 150.568 519.034 151.664 519.749 152.29C520.276 152.72 520.954 152.759 521.631 152.759C523.965 152.799 526.262 152.838 528.596 152.838C530.064 140.513 530.667 128.109 530.366 115.705C527.768 115.705 525.208 115.666 522.61 115.666C522.196 115.666 521.707 115.666 521.405 115.979Z" fill="#2F3F47"/>
<path d="M492.224 102.638C492.337 103.577 492.449 104.594 492.111 105.455C491.847 106.159 491.358 106.746 490.831 107.294C488.685 109.602 486.351 111.755 483.828 113.672C480.967 113.281 478.181 112.459 475.583 111.246C475.094 111.011 474.566 110.776 474.265 110.307C474.039 109.955 473.926 109.524 473.851 109.094C472.872 104.242 471.856 99.3508 470.877 94.4989C472.345 93.4815 473.926 92.6205 475.583 91.9945C476.223 94.9291 476.901 97.8638 477.541 100.798C478.181 103.576 479.197 106.863 481.833 107.646C483.451 106.198 485.033 104.75 486.652 103.303C486.915 103.068 487.216 102.794 487.367 102.442C487.555 102.011 487.48 101.503 487.404 101.033C486.99 98.1769 486.388 95.3596 485.56 92.5816C486.915 92.3076 488.233 92.0337 489.588 91.7598C491.32 95.0857 491.772 98.9203 492.224 102.638Z" fill="#2F3F47"/>
<path d="M479.716 113.789C479.678 113.945 479.716 114.102 479.716 114.22C480.13 115.98 480.544 117.702 480.921 119.463C483.556 118.797 486.154 117.937 488.676 116.919C488.45 115.432 488.036 113.945 487.472 112.537C487.359 112.224 487.208 111.911 486.907 111.793C486.719 111.715 486.53 111.754 486.304 111.793C484.234 112.145 482.201 112.693 480.205 113.398C480.017 113.476 479.791 113.593 479.716 113.789Z" fill="#516770"/>
<path d="M480.289 121.145C480.025 124.353 484.317 130.301 485.597 132.962C487.329 136.561 489.099 140.201 491.584 143.291C494.068 146.383 497.344 148.965 501.146 149.748C503.292 150.217 505.513 150.1 507.697 149.787C514.286 148.887 520.648 146.461 526.183 142.665C526.634 142.352 527.086 142.039 527.274 141.492C527.462 140.944 527.274 140.357 527.124 139.77C526.408 137.618 525.768 135.231 524.677 133.236C522.794 129.753 523.999 130.379 520.987 130.614C518.69 130.81 515.377 133.314 512.93 133.94C510.069 134.683 507.132 135.035 504.233 135.427C502.389 135.661 500.356 135.857 498.812 134.762C497.984 134.175 497.381 133.275 496.854 132.375C493.579 127.092 490.605 121.575 487.932 115.902C487.48 114.924 480.778 118.993 480.364 120.558C480.326 120.793 480.289 120.949 480.289 121.145Z" fill="#E2ECED"/>
<g opacity="0.15">
<path opacity="0.15" d="M507.654 147.751C506.261 144.269 505.659 140.786 505.433 137.03C505.395 136.286 504.454 136.208 504.341 136.952C503.739 140.943 504.341 144.973 505.696 148.729C506.186 150.099 508.219 149.081 507.654 147.751Z" fill="#272525"/>
<path opacity="0.15" d="M501.373 148.025C500.394 144.464 500.771 141.608 501.9 138.125C502.051 137.656 501.411 137.343 501.147 137.734C500.131 139.495 499.001 140.864 498.662 142.977C498.361 144.973 498.437 146.89 499.114 148.768C499.566 150.137 501.712 149.355 501.373 148.025Z" fill="#272525"/>
</g>
<path d="M535.861 80.3732C535.898 81.86 535.973 83.386 536.576 84.7557C538.119 88.1598 542.185 89.2553 545.762 89.8813C566.205 93.442 587.1 94.6551 607.656 91.9552C610.367 91.6031 613.078 91.1728 615.562 89.9989C618.047 88.825 620.268 86.8293 621.172 84.2078C621.737 82.5253 621.774 80.7253 621.812 78.9256C621.85 77.1257 621.85 75.2866 621.887 73.4866C621.887 72.6651 621.887 71.8433 621.586 71.0607C621.247 70.2391 620.57 69.5739 619.854 69.0652C617.144 67.1479 613.718 66.7174 610.442 66.3653C588.681 64.0959 566.657 62.1004 545.009 65.1524C544.105 65.2698 543.164 65.4261 542.524 66.0914C542.185 66.4045 541.959 66.835 541.621 67.1479C540.98 67.6566 540.115 67.6174 539.362 67.8913C537.253 68.5957 536.5 71.2956 536.237 73.6042C535.936 75.8344 535.823 78.1038 535.861 80.3732Z" fill="#2F3F47"/>
<path opacity="0.2" d="M563.113 83.659C563.829 82.2896 563.941 80.6854 563.791 79.1205C563.716 78.1813 563.49 77.2032 562.925 76.499C561.72 75.0119 559.499 75.1685 557.654 74.8164C556.035 75.5206 554.68 76.89 554.002 78.5726C553.588 79.5899 553.4 80.6854 553.513 81.7812C553.776 84.0114 555.546 85.9289 557.654 86.32C559.8 86.7897 562.097 85.6547 563.113 83.659Z" fill="#EAF1F2"/>
<path opacity="0.2" d="M598.965 83.659C599.68 82.2896 599.793 80.6854 599.642 79.1205C599.567 78.1813 599.341 77.2032 598.776 76.499C597.572 75.0119 595.351 75.1685 593.506 74.8164C591.887 75.5206 590.532 76.89 589.854 78.5726C589.44 79.5899 589.251 80.6854 589.364 81.7812C589.628 84.0114 591.397 85.9289 593.506 86.32C595.614 86.7897 597.91 85.6547 598.965 83.659Z" fill="#EAF1F2"/>
<defs>
<filter id="filter0_d_592_3174" x="124.738" y="58.0508" width="344.301" height="140.949" filterUnits="userSpaceOnUse" color-interpolation-filters="sRGB">
<feFlood flood-opacity="0" result="BackgroundImageFix"/>
<feColorMatrix in="SourceAlpha" type="matrix" values="0 0 0 0 0 0 0 0 0 0 0 0 0 0 0 0 0 0 127 0" result="hardAlpha"/>
<feOffset/>
<feGaussianBlur stdDeviation="6"/>
<feComposite in2="hardAlpha" operator="out"/>
<feColorMatrix type="matrix" values="0 0 0 0 0.206152 0 0 0 0 0.206152 0 0 0 0 0.206152 0 0 0 1 0"/>
<feBlend mode="normal" in2="BackgroundImageFix" result="effect1_dropShadow_592_3174"/>
<feBlend mode="normal" in="SourceGraphic" in2="effect1_dropShadow_592_3174" result="shape"/>
</filter>
<linearGradient id="paint0_linear_592_3174" x1="535.449" y1="232.131" x2="696.734" y2="232.131" gradientUnits="userSpaceOnUse">
<stop stop-color="#4D4D4D"/>
<stop offset="1"/>
</linearGradient>
<linearGradient id="paint1_linear_592_3174" x1="535.449" y1="232.131" x2="696.734" y2="232.131" gradientUnits="userSpaceOnUse">
<stop/>
<stop offset="1"/>
</linearGradient>
</defs>
</svg>
