<svg width="419" height="378" viewBox="0 0 419 378" fill="none" xmlns="http://www.w3.org/2000/svg">
<g clip-path="url(#clip0_529_3029)">
<rect x="416.443" y="198.977" width="2.55623" height="76.5956" rx="1.27811" fill="#C4C4C4"/>
<rect y="133.688" width="2.996" height="23.3177" rx="1.27982" fill="#C4C4C4"/>
<rect y="181.877" width="2.996" height="48.1899" rx="1.27982" fill="#C4C4C4"/>
<rect y="245.613" width="2.996" height="48.1899" rx="1.27982" fill="#C4C4C4"/>
<rect x="1.99805" width="414.446" height="663" rx="65" fill="url(#paint0_linear_529_3029)"/>
<rect x="8" y="4.66406" width="402.462" height="653.673" rx="60" fill="black"/>
<rect x="28" y="24" width="363" height="623" rx="42" fill="#FFD037"/>
<path d="M115.919 83.3636C115.919 85.8712 115.449 88.0189 114.51 89.8068C113.578 91.5871 112.305 92.9508 110.692 93.8977C109.086 94.8447 107.264 95.3182 105.226 95.3182C103.188 95.3182 101.362 94.8447 99.7486 93.8977C98.1425 92.9432 96.8698 91.5758 95.9304 89.7955C94.9986 88.0076 94.5327 85.8636 94.5327 83.3636C94.5327 80.8561 94.9986 78.7121 95.9304 76.9318C96.8698 75.1439 98.1425 73.7765 99.7486 72.8295C101.362 71.8826 103.188 71.4091 105.226 71.4091C107.264 71.4091 109.086 71.8826 110.692 72.8295C112.305 73.7765 113.578 75.1439 114.51 76.9318C115.449 78.7121 115.919 80.8561 115.919 83.3636ZM111.68 83.3636C111.68 81.5985 111.404 80.1098 110.851 78.8977C110.305 77.678 109.548 76.7576 108.578 76.1364C107.608 75.5076 106.491 75.1932 105.226 75.1932C103.961 75.1932 102.843 75.5076 101.874 76.1364C100.904 76.7576 100.143 77.678 99.5895 78.8977C99.044 80.1098 98.7713 81.5985 98.7713 83.3636C98.7713 85.1288 99.044 86.6212 99.5895 87.8409C100.143 89.053 100.904 89.9735 101.874 90.6023C102.843 91.2235 103.961 91.5341 105.226 91.5341C106.491 91.5341 107.608 91.2235 108.578 90.6023C109.548 89.9735 110.305 89.053 110.851 87.8409C111.404 86.6212 111.68 85.1288 111.68 83.3636ZM123.837 84.7727V95H119.723V77.5455H123.655V80.5114H123.859C124.261 79.5341 124.901 78.7576 125.78 78.1818C126.666 77.6061 127.761 77.3182 129.064 77.3182C130.268 77.3182 131.318 77.5758 132.212 78.0909C133.113 78.6061 133.81 79.3523 134.303 80.3295C134.803 81.3068 135.049 82.4924 135.041 83.8864V95H130.928V84.5227C130.928 83.3561 130.625 82.4432 130.018 81.7841C129.42 81.125 128.59 80.7955 127.53 80.7955C126.81 80.7955 126.17 80.9545 125.609 81.2727C125.056 81.5833 124.621 82.0341 124.303 82.625C123.992 83.2159 123.837 83.9318 123.837 84.7727ZM143.337 71.7273V95H139.223V71.7273H143.337ZM147.567 95V77.5455H151.68V95H147.567ZM149.635 75.0682C148.983 75.0682 148.423 74.8523 147.953 74.4205C147.483 73.9811 147.249 73.4545 147.249 72.8409C147.249 72.2197 147.483 71.6932 147.953 71.2614C148.423 70.822 148.983 70.6023 149.635 70.6023C150.294 70.6023 150.855 70.822 151.317 71.2614C151.786 71.6932 152.021 72.2197 152.021 72.8409C152.021 73.4545 151.786 73.9811 151.317 74.4205C150.855 74.8523 150.294 75.0682 149.635 75.0682ZM160.024 84.7727V95H155.911V77.5455H159.842V80.5114H160.047C160.448 79.5341 161.089 78.7576 161.967 78.1818C162.854 77.6061 163.948 77.3182 165.251 77.3182C166.456 77.3182 167.505 77.5758 168.399 78.0909C169.301 78.6061 169.998 79.3523 170.49 80.3295C170.99 81.3068 171.236 82.4924 171.229 83.8864V95H167.115V84.5227C167.115 83.3561 166.812 82.4432 166.206 81.7841C165.607 81.125 164.778 80.7955 163.717 80.7955C162.998 80.7955 162.357 80.9545 161.797 81.2727C161.244 81.5833 160.808 82.0341 160.49 82.625C160.179 83.2159 160.024 83.9318 160.024 84.7727ZM183.138 95.3409C181.388 95.3409 179.876 94.9773 178.604 94.25C177.339 93.5152 176.365 92.4773 175.683 91.1364C175.001 89.7879 174.661 88.2008 174.661 86.375C174.661 84.5795 175.001 83.0038 175.683 81.6477C176.373 80.2841 177.335 79.2235 178.57 78.4659C179.804 77.7008 181.255 77.3182 182.922 77.3182C183.998 77.3182 185.013 77.4924 185.967 77.8409C186.929 78.1818 187.778 78.7121 188.513 79.4318C189.255 80.1515 189.839 81.0682 190.263 82.1818C190.687 83.2879 190.899 84.6061 190.899 86.1364V87.3977H176.592V84.625H186.956C186.948 83.8371 186.778 83.1364 186.445 82.5227C186.111 81.9015 185.645 81.4129 185.047 81.0568C184.456 80.7008 183.767 80.5227 182.979 80.5227C182.138 80.5227 181.399 80.7273 180.763 81.1364C180.126 81.5379 179.63 82.0682 179.274 82.7273C178.926 83.3788 178.748 84.0947 178.74 84.875V87.2955C178.74 88.3106 178.926 89.1818 179.297 89.9091C179.668 90.6288 180.187 91.1818 180.854 91.5682C181.52 91.947 182.301 92.1364 183.195 92.1364C183.793 92.1364 184.335 92.053 184.82 91.8864C185.304 91.7121 185.725 91.4583 186.081 91.125C186.437 90.7917 186.706 90.3788 186.888 89.8864L190.729 90.3182C190.486 91.3333 190.024 92.2197 189.342 92.9773C188.668 93.7273 187.804 94.3106 186.751 94.7273C185.698 95.1364 184.494 95.3409 183.138 95.3409ZM202.499 95V71.7273H211.408C213.089 71.7273 214.487 71.9924 215.601 72.5227C216.722 73.0455 217.559 73.7614 218.112 74.6705C218.673 75.5795 218.953 76.6098 218.953 77.7614C218.953 78.7083 218.771 79.5189 218.408 80.1932C218.044 80.8598 217.555 81.4015 216.942 81.8182C216.328 82.2348 215.643 82.5341 214.885 82.7159V82.9432C215.711 82.9886 216.502 83.2424 217.26 83.7045C218.025 84.1591 218.65 84.803 219.135 85.6364C219.62 86.4697 219.862 87.4773 219.862 88.6591C219.862 89.8636 219.571 90.947 218.987 91.9091C218.404 92.8636 217.525 93.6174 216.351 94.1705C215.177 94.7235 213.699 95 211.919 95H202.499ZM206.714 91.4773H211.249C212.779 91.4773 213.881 91.1856 214.555 90.6023C215.237 90.0114 215.578 89.2538 215.578 88.3295C215.578 87.6402 215.408 87.0189 215.067 86.4659C214.726 85.9053 214.241 85.4659 213.612 85.1477C212.983 84.822 212.233 84.6591 211.362 84.6591H206.714V91.4773ZM206.714 81.625H210.885C211.612 81.625 212.268 81.4924 212.851 81.2273C213.434 80.9545 213.893 80.572 214.226 80.0795C214.567 79.5795 214.737 78.9886 214.737 78.3068C214.737 77.4053 214.419 76.6629 213.783 76.0795C213.154 75.4962 212.218 75.2045 210.976 75.2045H206.714V81.625ZM228.371 95.3523C227.265 95.3523 226.268 95.1553 225.382 94.7614C224.503 94.3598 223.806 93.7689 223.291 92.9886C222.784 92.2083 222.53 91.2462 222.53 90.1023C222.53 89.1174 222.712 88.303 223.075 87.6591C223.439 87.0152 223.935 86.5 224.564 86.1136C225.193 85.7273 225.901 85.4356 226.689 85.2386C227.484 85.0341 228.306 84.8864 229.155 84.7955C230.178 84.6894 231.007 84.5947 231.643 84.5114C232.28 84.4205 232.742 84.2841 233.03 84.1023C233.325 83.9129 233.473 83.6212 233.473 83.2273V83.1591C233.473 82.303 233.219 81.6402 232.712 81.1705C232.204 80.7008 231.473 80.4659 230.518 80.4659C229.511 80.4659 228.712 80.6856 228.121 81.125C227.537 81.5644 227.143 82.0833 226.939 82.6818L223.098 82.1364C223.401 81.0758 223.901 80.1894 224.598 79.4773C225.295 78.7576 226.147 78.2197 227.155 77.8636C228.162 77.5 229.276 77.3182 230.496 77.3182C231.337 77.3182 232.174 77.4167 233.007 77.6136C233.84 77.8106 234.602 78.1364 235.291 78.5909C235.981 79.0379 236.534 79.6477 236.95 80.4205C237.375 81.1932 237.587 82.1591 237.587 83.3182V95H233.632V92.6023H233.496C233.246 93.0871 232.893 93.5417 232.439 93.9659C231.992 94.3826 231.428 94.7197 230.746 94.9773C230.071 95.2273 229.28 95.3523 228.371 95.3523ZM229.439 92.3295C230.265 92.3295 230.981 92.1667 231.587 91.8409C232.193 91.5076 232.659 91.0682 232.984 90.5227C233.318 89.9773 233.484 89.3826 233.484 88.7386V86.6818C233.356 86.7879 233.136 86.8864 232.825 86.9773C232.522 87.0682 232.181 87.1477 231.803 87.2159C231.424 87.2841 231.049 87.3447 230.678 87.3977C230.306 87.4508 229.984 87.4962 229.712 87.5341C229.098 87.6174 228.549 87.7538 228.064 87.9432C227.579 88.1326 227.196 88.3977 226.916 88.7386C226.636 89.072 226.496 89.5038 226.496 90.0341C226.496 90.7917 226.772 91.3636 227.325 91.75C227.878 92.1364 228.583 92.3295 229.439 92.3295ZM245.837 84.7727V95H241.723V77.5455H245.655V80.5114H245.859C246.261 79.5341 246.901 78.7576 247.78 78.1818C248.666 77.6061 249.761 77.3182 251.064 77.3182C252.268 77.3182 253.318 77.5758 254.212 78.0909C255.113 78.6061 255.81 79.3523 256.303 80.3295C256.803 81.3068 257.049 82.4924 257.041 83.8864V95H252.928V84.5227C252.928 83.3561 252.625 82.4432 252.018 81.7841C251.42 81.125 250.59 80.7955 249.53 80.7955C248.81 80.7955 248.17 80.9545 247.609 81.2727C247.056 81.5833 246.621 82.0341 246.303 82.625C245.992 83.2159 245.837 83.9318 245.837 84.7727ZM264.973 89.5227L264.962 84.5568H265.621L271.893 77.5455H276.7L268.984 86.1364H268.132L264.973 89.5227ZM261.223 95V71.7273H265.337V95H261.223ZM272.178 95L266.496 87.0568L269.268 84.1591L277.098 95H272.178ZM279.442 95V77.5455H283.555V95H279.442ZM281.51 75.0682C280.858 75.0682 280.298 74.8523 279.828 74.4205C279.358 73.9811 279.124 73.4545 279.124 72.8409C279.124 72.2197 279.358 71.6932 279.828 71.2614C280.298 70.822 280.858 70.6023 281.51 70.6023C282.169 70.6023 282.73 70.822 283.192 71.2614C283.661 71.6932 283.896 72.2197 283.896 72.8409C283.896 73.4545 283.661 73.9811 283.192 74.4205C282.73 74.8523 282.169 75.0682 281.51 75.0682ZM291.899 84.7727V95H287.786V77.5455H291.717V80.5114H291.922C292.323 79.5341 292.964 78.7576 293.842 78.1818C294.729 77.6061 295.823 77.3182 297.126 77.3182C298.331 77.3182 299.38 77.5758 300.274 78.0909C301.176 78.6061 301.873 79.3523 302.365 80.3295C302.865 81.3068 303.111 82.4924 303.104 83.8864V95H298.99V84.5227C298.99 83.3561 298.687 82.4432 298.081 81.7841C297.482 81.125 296.653 80.7955 295.592 80.7955C294.873 80.7955 294.232 80.9545 293.672 81.2727C293.119 81.5833 292.683 82.0341 292.365 82.625C292.054 83.2159 291.899 83.9318 291.899 84.7727ZM314.876 101.909C313.399 101.909 312.13 101.708 311.07 101.307C310.009 100.913 309.157 100.383 308.513 99.7159C307.869 99.0492 307.422 98.3106 307.172 97.5L310.876 96.6023C311.043 96.9432 311.286 97.2803 311.604 97.6136C311.922 97.9545 312.35 98.2348 312.888 98.4545C313.433 98.6818 314.119 98.7955 314.945 98.7955C316.111 98.7955 317.077 98.5114 317.842 97.9432C318.607 97.3826 318.99 96.4583 318.99 95.1705V91.8636H318.786C318.573 92.2879 318.263 92.7235 317.854 93.1705C317.452 93.6174 316.918 93.9924 316.251 94.2955C315.592 94.5985 314.763 94.75 313.763 94.75C312.422 94.75 311.206 94.4356 310.115 93.8068C309.032 93.1705 308.168 92.2235 307.524 90.9659C306.888 89.7008 306.57 88.1174 306.57 86.2159C306.57 84.2992 306.888 82.6818 307.524 81.3636C308.168 80.0379 309.036 79.0341 310.126 78.3523C311.217 77.6629 312.433 77.3182 313.774 77.3182C314.797 77.3182 315.638 77.4924 316.297 77.8409C316.964 78.1818 317.494 78.5947 317.888 79.0795C318.282 79.5568 318.581 80.0076 318.786 80.4318H319.013V77.5455H323.07V95.2841C323.07 96.7765 322.714 98.0114 322.001 98.9886C321.289 99.9659 320.316 100.697 319.081 101.182C317.846 101.667 316.445 101.909 314.876 101.909ZM314.911 91.5227C315.782 91.5227 316.524 91.3106 317.138 90.8864C317.751 90.4621 318.217 89.8523 318.536 89.0568C318.854 88.2614 319.013 87.3068 319.013 86.1932C319.013 85.0947 318.854 84.1326 318.536 83.3068C318.225 82.4811 317.763 81.8409 317.149 81.3864C316.543 80.9242 315.797 80.6932 314.911 80.6932C313.994 80.6932 313.229 80.9318 312.615 81.4091C312.001 81.8864 311.539 82.5417 311.229 83.375C310.918 84.2008 310.763 85.1402 310.763 86.1932C310.763 87.2614 310.918 88.197 311.229 89C311.547 89.7955 312.013 90.4167 312.626 90.8636C313.248 91.303 314.009 91.5227 314.911 91.5227Z" fill="black"/>
<path d="M66.0043 142.795C65.3168 142.795 64.6889 142.628 64.1207 142.293C63.5526 141.952 63.098 141.497 62.7571 140.929C62.4219 140.361 62.2543 139.733 62.2543 139.045C62.2543 138.352 62.4219 137.724 62.7571 137.162C63.098 136.594 63.5526 136.142 64.1207 135.807C64.6889 135.466 65.3168 135.295 66.0043 135.295C66.6974 135.295 67.3253 135.466 67.8878 135.807C68.456 136.142 68.9077 136.594 69.2429 137.162C69.5838 137.724 69.7543 138.352 69.7543 139.045C69.7543 139.733 69.5838 140.361 69.2429 140.929C68.9077 141.497 68.456 141.952 67.8878 142.293C67.3253 142.628 66.6974 142.795 66.0043 142.795ZM85.7216 146V128.545H92.267C93.608 128.545 94.733 128.778 95.642 129.244C96.5568 129.71 97.2472 130.364 97.7131 131.205C98.1847 132.04 98.4205 133.014 98.4205 134.128C98.4205 135.247 98.1818 136.219 97.7045 137.043C97.233 137.861 96.5369 138.494 95.6165 138.943C94.696 139.386 93.5653 139.608 92.2244 139.608H87.5625V136.983H91.7983C92.5824 136.983 93.2244 136.875 93.7244 136.659C94.2244 136.437 94.5938 136.116 94.8324 135.696C95.0767 135.27 95.1989 134.747 95.1989 134.128C95.1989 133.509 95.0767 132.98 94.8324 132.543C94.5881 132.099 94.2159 131.764 93.7159 131.537C93.2159 131.304 92.571 131.188 91.7812 131.188H88.8835V146H85.7216ZM94.7386 138.091L99.0597 146H95.5312L91.2869 138.091H94.7386ZM107.774 146L110.638 128.545H113.024L110.161 146H107.774ZM99.9077 141.5L100.308 139.114H113.74L113.339 141.5H99.9077ZM101.638 146L104.501 128.545H106.888L104.024 146H101.638ZM100.922 135.432L101.314 133.045H114.746L114.354 135.432H100.922ZM128.333 132.909L123.671 146H120.262L115.6 132.909H118.89L121.898 142.634H122.035L125.052 132.909H128.333ZM130.119 142.761V140.247L137.525 128.545H139.621V132.125H138.343L133.357 140.026V140.162H143.695V142.761H130.119ZM138.445 146V141.994L138.479 140.869V128.545H141.462V146H138.445ZM154.387 137.46V140H146.529V137.46H154.387ZM164.169 132.909V135.295H156.643V132.909H164.169ZM158.501 129.773H161.587V142.062C161.587 142.477 161.649 142.795 161.774 143.017C161.905 143.233 162.075 143.381 162.286 143.46C162.496 143.54 162.729 143.58 162.984 143.58C163.178 143.58 163.354 143.565 163.513 143.537C163.678 143.509 163.803 143.483 163.888 143.46L164.408 145.872C164.243 145.929 164.007 145.991 163.7 146.06C163.399 146.128 163.03 146.168 162.592 146.179C161.82 146.202 161.124 146.085 160.504 145.83C159.885 145.568 159.393 145.165 159.03 144.619C158.672 144.074 158.496 143.392 158.501 142.574V129.773ZM166.715 146V143.716L172.775 137.776C173.354 137.19 173.837 136.67 174.224 136.216C174.61 135.761 174.9 135.321 175.093 134.895C175.286 134.469 175.383 134.014 175.383 133.531C175.383 132.98 175.258 132.509 175.008 132.116C174.758 131.719 174.414 131.412 173.977 131.196C173.539 130.98 173.042 130.872 172.485 130.872C171.911 130.872 171.408 130.991 170.977 131.23C170.545 131.463 170.21 131.795 169.971 132.227C169.738 132.659 169.621 133.173 169.621 133.77H166.613C166.613 132.662 166.866 131.699 167.371 130.881C167.877 130.062 168.573 129.429 169.46 128.98C170.352 128.531 171.374 128.307 172.528 128.307C173.698 128.307 174.727 128.526 175.613 128.963C176.499 129.401 177.187 130 177.675 130.761C178.17 131.523 178.417 132.392 178.417 133.369C178.417 134.023 178.292 134.665 178.042 135.295C177.792 135.926 177.352 136.625 176.721 137.392C176.096 138.159 175.218 139.088 174.087 140.179L171.079 143.239V143.358H178.681V146H166.715ZM189.59 137.46V140H181.732V137.46H189.59ZM203.182 136.369L200.369 136.676C200.29 136.392 200.151 136.125 199.952 135.875C199.759 135.625 199.497 135.423 199.168 135.27C198.838 135.116 198.435 135.04 197.957 135.04C197.315 135.04 196.776 135.179 196.338 135.457C195.906 135.736 195.693 136.097 195.699 136.54C195.693 136.92 195.832 137.23 196.116 137.469C196.406 137.707 196.884 137.903 197.548 138.057L199.781 138.534C201.02 138.801 201.94 139.224 202.543 139.804C203.151 140.384 203.457 141.142 203.463 142.08C203.457 142.903 203.216 143.631 202.739 144.261C202.267 144.886 201.611 145.375 200.77 145.727C199.929 146.08 198.963 146.256 197.872 146.256C196.27 146.256 194.98 145.92 194.003 145.25C193.026 144.574 192.443 143.634 192.256 142.429L195.264 142.139C195.401 142.73 195.69 143.176 196.134 143.477C196.577 143.778 197.153 143.929 197.864 143.929C198.597 143.929 199.185 143.778 199.628 143.477C200.077 143.176 200.301 142.804 200.301 142.361C200.301 141.986 200.156 141.676 199.866 141.432C199.582 141.187 199.139 141 198.537 140.869L196.304 140.401C195.048 140.139 194.119 139.699 193.517 139.08C192.915 138.455 192.616 137.665 192.622 136.71C192.616 135.903 192.835 135.205 193.278 134.614C193.727 134.017 194.349 133.557 195.145 133.233C195.946 132.903 196.869 132.739 197.915 132.739C199.449 132.739 200.656 133.065 201.537 133.719C202.423 134.372 202.972 135.256 203.182 136.369ZM212.544 132.909V135.295H205.018V132.909H212.544ZM206.876 129.773H209.962V142.062C209.962 142.477 210.024 142.795 210.149 143.017C210.28 143.233 210.45 143.381 210.661 143.46C210.871 143.54 211.104 143.58 211.359 143.58C211.553 143.58 211.729 143.565 211.888 143.537C212.053 143.509 212.178 143.483 212.263 143.46L212.783 145.872C212.618 145.929 212.382 145.991 212.075 146.06C211.774 146.128 211.405 146.168 210.967 146.179C210.195 146.202 209.499 146.085 208.879 145.83C208.26 145.568 207.768 145.165 207.405 144.619C207.047 144.074 206.871 143.392 206.876 142.574V129.773ZM215.542 146V133.105C215.542 132.111 215.778 131.256 216.249 130.54C216.721 129.818 217.383 129.267 218.235 128.886C219.093 128.5 220.09 128.307 221.227 128.307C222.3 128.307 223.281 128.486 224.167 128.844C225.053 129.202 225.758 129.727 226.281 130.42C226.803 131.108 227.065 131.955 227.065 132.96C227.065 133.892 226.829 134.685 226.357 135.338C225.891 135.991 225.263 136.437 224.474 136.676V136.864C225.599 136.949 226.502 137.386 227.184 138.176C227.866 138.966 228.204 139.972 228.198 141.193C228.198 142.182 227.968 143.037 227.508 143.759C227.053 144.474 226.417 145.028 225.599 145.42C224.786 145.807 223.843 146 222.769 146H220.596V143.401H222.394C222.94 143.401 223.414 143.298 223.817 143.094C224.221 142.889 224.533 142.605 224.755 142.241C224.977 141.872 225.087 141.446 225.087 140.963C225.082 140.207 224.809 139.594 224.269 139.122C223.729 138.651 222.999 138.415 222.079 138.415H220.664V135.892H221.636C222.102 135.892 222.505 135.778 222.846 135.551C223.187 135.318 223.451 135.014 223.638 134.639C223.826 134.259 223.923 133.849 223.928 133.412C223.928 132.713 223.695 132.131 223.229 131.665C222.769 131.193 222.13 130.957 221.312 130.957C220.522 130.957 219.877 131.188 219.377 131.648C218.877 132.108 218.627 132.713 218.627 133.463V146H215.542ZM230.898 146V132.909H233.889V135.091H234.026C234.264 134.335 234.673 133.753 235.253 133.344C235.838 132.929 236.506 132.722 237.256 132.722C237.426 132.722 237.616 132.73 237.827 132.747C238.043 132.759 238.222 132.778 238.364 132.807V135.645C238.233 135.599 238.026 135.56 237.741 135.526C237.463 135.486 237.193 135.466 236.932 135.466C236.369 135.466 235.864 135.588 235.415 135.832C234.972 136.071 234.622 136.403 234.366 136.83C234.111 137.256 233.983 137.747 233.983 138.304V146H230.898ZM243.499 138.33V146H240.413V132.909H243.362V135.134H243.516C243.817 134.401 244.297 133.818 244.956 133.386C245.621 132.955 246.442 132.739 247.419 132.739C248.322 132.739 249.109 132.932 249.78 133.318C250.456 133.705 250.979 134.264 251.348 134.997C251.723 135.73 251.908 136.619 251.902 137.665V146H248.817V138.142C248.817 137.267 248.589 136.582 248.135 136.088C247.686 135.594 247.064 135.347 246.268 135.347C245.729 135.347 245.249 135.466 244.828 135.705C244.413 135.937 244.087 136.276 243.848 136.719C243.615 137.162 243.499 137.699 243.499 138.33ZM260.732 151.182C259.624 151.182 258.672 151.031 257.876 150.73C257.081 150.435 256.442 150.037 255.959 149.537C255.476 149.037 255.141 148.483 254.953 147.875L257.732 147.202C257.857 147.457 258.038 147.71 258.277 147.96C258.516 148.216 258.837 148.426 259.24 148.591C259.649 148.761 260.163 148.847 260.783 148.847C261.658 148.847 262.382 148.634 262.956 148.207C263.53 147.787 263.817 147.094 263.817 146.128V143.648H263.663C263.504 143.966 263.271 144.293 262.964 144.628C262.663 144.963 262.263 145.244 261.763 145.472C261.268 145.699 260.646 145.812 259.896 145.812C258.891 145.812 257.979 145.577 257.161 145.105C256.348 144.628 255.7 143.918 255.217 142.974C254.74 142.026 254.501 140.838 254.501 139.412C254.501 137.974 254.74 136.761 255.217 135.773C255.7 134.778 256.351 134.026 257.169 133.514C257.987 132.997 258.899 132.739 259.905 132.739C260.672 132.739 261.303 132.869 261.797 133.131C262.297 133.386 262.695 133.696 262.99 134.06C263.286 134.418 263.51 134.756 263.663 135.074H263.834V132.909H266.876V146.213C266.876 147.332 266.609 148.259 266.075 148.991C265.541 149.724 264.811 150.273 263.885 150.636C262.959 151 261.908 151.182 260.732 151.182ZM260.757 143.392C261.411 143.392 261.967 143.233 262.428 142.915C262.888 142.597 263.237 142.139 263.476 141.543C263.714 140.946 263.834 140.23 263.834 139.395C263.834 138.571 263.714 137.849 263.476 137.23C263.243 136.611 262.896 136.131 262.436 135.79C261.982 135.443 261.422 135.27 260.757 135.27C260.07 135.27 259.496 135.449 259.036 135.807C258.575 136.165 258.229 136.656 257.996 137.281C257.763 137.901 257.646 138.605 257.646 139.395C257.646 140.196 257.763 140.898 257.996 141.5C258.234 142.097 258.584 142.562 259.044 142.898C259.51 143.227 260.081 143.392 260.757 143.392ZM277.973 137.46V140H270.115V137.46H277.973ZM85.5852 179.909V161.909H88.6193V164.074H88.7983C88.9574 163.756 89.1818 163.418 89.4716 163.06C89.7614 162.696 90.1534 162.386 90.6477 162.131C91.142 161.869 91.7727 161.739 92.5398 161.739C93.5511 161.739 94.4631 161.997 95.2756 162.514C96.0938 163.026 96.7415 163.784 97.2188 164.79C97.7017 165.79 97.9432 167.017 97.9432 168.472C97.9432 169.909 97.7074 171.131 97.2358 172.136C96.7642 173.142 96.1222 173.909 95.3097 174.438C94.4972 174.966 93.5767 175.23 92.5483 175.23C91.7983 175.23 91.1761 175.105 90.6818 174.855C90.1875 174.605 89.7898 174.304 89.4886 173.952C89.1932 173.594 88.9631 173.256 88.7983 172.938H88.6705V179.909H85.5852ZM88.6108 168.455C88.6108 169.301 88.7301 170.043 88.9688 170.679C89.2131 171.315 89.5625 171.812 90.017 172.17C90.4773 172.523 91.0341 172.699 91.6875 172.699C92.3693 172.699 92.9403 172.517 93.4006 172.153C93.8608 171.784 94.2074 171.281 94.4403 170.645C94.679 170.003 94.7983 169.273 94.7983 168.455C94.7983 167.642 94.6818 166.92 94.4489 166.29C94.2159 165.659 93.8693 165.165 93.4091 164.807C92.9489 164.449 92.375 164.27 91.6875 164.27C91.0284 164.27 90.4688 164.443 90.0085 164.79C89.5483 165.136 89.1989 165.622 88.9602 166.247C88.7273 166.872 88.6108 167.608 88.6108 168.455ZM111.554 179.892C109.764 179.892 108.173 179.648 106.781 179.159C105.395 178.676 104.224 177.963 103.27 177.02C102.315 176.082 101.591 174.938 101.097 173.585C100.602 172.233 100.352 170.688 100.347 168.949C100.352 167.25 100.605 165.719 101.105 164.355C101.605 162.986 102.335 161.815 103.295 160.844C104.256 159.866 105.429 159.116 106.815 158.594C108.202 158.071 109.778 157.81 111.545 157.81C113.21 157.81 114.685 158.062 115.969 158.568C117.259 159.074 118.347 159.778 119.233 160.682C120.125 161.58 120.798 162.631 121.253 163.835C121.713 165.034 121.943 166.335 121.943 167.739C121.943 168.71 121.869 169.631 121.722 170.5C121.574 171.364 121.321 172.131 120.963 172.801C120.611 173.472 120.131 174.006 119.523 174.403C118.915 174.795 118.153 175.009 117.239 175.043C116.665 175.071 116.162 175.017 115.73 174.881C115.298 174.744 114.949 174.531 114.682 174.241C114.42 173.946 114.256 173.585 114.188 173.159H114.085C113.955 173.5 113.707 173.812 113.344 174.097C112.986 174.375 112.543 174.594 112.014 174.753C111.486 174.906 110.898 174.969 110.25 174.94C109.557 174.906 108.915 174.747 108.324 174.463C107.739 174.173 107.227 173.77 106.79 173.253C106.358 172.73 106.023 172.099 105.784 171.361C105.545 170.622 105.426 169.784 105.426 168.847C105.426 167.932 105.557 167.125 105.818 166.426C106.08 165.727 106.429 165.131 106.866 164.636C107.31 164.142 107.81 163.756 108.366 163.477C108.923 163.193 109.497 163.011 110.088 162.932C110.702 162.847 111.278 162.855 111.818 162.957C112.358 163.06 112.807 163.216 113.165 163.426C113.528 163.636 113.756 163.866 113.847 164.116H113.966V163.162H116.344V171.276C116.349 171.702 116.452 172.045 116.651 172.307C116.855 172.568 117.139 172.699 117.503 172.699C117.957 172.699 118.324 172.52 118.602 172.162C118.886 171.798 119.091 171.241 119.216 170.491C119.347 169.736 119.409 168.77 119.403 167.594C119.409 166.628 119.281 165.753 119.02 164.969C118.764 164.179 118.401 163.486 117.929 162.889C117.457 162.293 116.892 161.795 116.233 161.398C115.58 160.994 114.852 160.69 114.051 160.486C113.25 160.281 112.395 160.179 111.486 160.179C110.094 160.179 108.869 160.392 107.812 160.818C106.756 161.239 105.869 161.838 105.153 162.616C104.443 163.395 103.906 164.318 103.543 165.386C103.185 166.449 103.006 167.625 103.006 168.915C103.006 170.295 103.193 171.52 103.568 172.588C103.949 173.651 104.506 174.545 105.239 175.273C105.972 176 106.878 176.551 107.957 176.926C109.043 177.301 110.29 177.489 111.699 177.489C112.347 177.489 112.98 177.438 113.599 177.335C114.219 177.233 114.776 177.114 115.27 176.977C115.764 176.841 116.145 176.722 116.412 176.619L117.136 178.784C116.784 178.966 116.307 179.142 115.705 179.312C115.108 179.483 114.449 179.622 113.727 179.73C113.011 179.838 112.287 179.892 111.554 179.892ZM110.957 172.494C111.679 172.494 112.256 172.355 112.688 172.077C113.119 171.793 113.429 171.372 113.616 170.815C113.804 170.259 113.895 169.565 113.889 168.736C113.889 167.963 113.793 167.33 113.599 166.835C113.406 166.341 113.097 165.974 112.67 165.736C112.244 165.497 111.679 165.378 110.974 165.378C110.338 165.378 109.795 165.523 109.347 165.812C108.903 166.102 108.563 166.503 108.324 167.014C108.091 167.52 107.974 168.097 107.974 168.744C107.974 169.392 108.068 170.003 108.256 170.577C108.449 171.145 108.761 171.608 109.193 171.966C109.631 172.318 110.219 172.494 110.957 172.494ZM134.908 165.369L132.096 165.676C132.016 165.392 131.877 165.125 131.678 164.875C131.485 164.625 131.224 164.423 130.894 164.27C130.565 164.116 130.161 164.04 129.684 164.04C129.042 164.04 128.502 164.179 128.065 164.457C127.633 164.736 127.42 165.097 127.425 165.54C127.42 165.92 127.559 166.23 127.843 166.469C128.133 166.707 128.61 166.903 129.275 167.057L131.508 167.534C132.746 167.801 133.667 168.224 134.269 168.804C134.877 169.384 135.184 170.142 135.19 171.08C135.184 171.903 134.942 172.631 134.465 173.261C133.994 173.886 133.337 174.375 132.496 174.727C131.656 175.08 130.69 175.256 129.599 175.256C127.996 175.256 126.707 174.92 125.729 174.25C124.752 173.574 124.17 172.634 123.982 171.429L126.991 171.139C127.127 171.73 127.417 172.176 127.86 172.477C128.303 172.778 128.88 172.929 129.59 172.929C130.323 172.929 130.911 172.778 131.354 172.477C131.803 172.176 132.028 171.804 132.028 171.361C132.028 170.986 131.883 170.676 131.593 170.432C131.309 170.187 130.866 170 130.263 169.869L128.031 169.401C126.775 169.139 125.846 168.699 125.244 168.08C124.641 167.455 124.343 166.665 124.349 165.71C124.343 164.903 124.562 164.205 125.005 163.614C125.454 163.017 126.076 162.557 126.871 162.233C127.673 161.903 128.596 161.739 129.641 161.739C131.175 161.739 132.383 162.065 133.263 162.719C134.15 163.372 134.698 164.256 134.908 165.369ZM148.08 165.369L145.268 165.676C145.188 165.392 145.049 165.125 144.85 164.875C144.657 164.625 144.396 164.423 144.066 164.27C143.737 164.116 143.333 164.04 142.856 164.04C142.214 164.04 141.674 164.179 141.237 164.457C140.805 164.736 140.592 165.097 140.597 165.54C140.592 165.92 140.731 166.23 141.015 166.469C141.305 166.707 141.782 166.903 142.447 167.057L144.68 167.534C145.918 167.801 146.839 168.224 147.441 168.804C148.049 169.384 148.356 170.142 148.362 171.08C148.356 171.903 148.114 172.631 147.637 173.261C147.165 173.886 146.509 174.375 145.668 174.727C144.827 175.08 143.862 175.256 142.771 175.256C141.168 175.256 139.879 174.92 138.901 174.25C137.924 173.574 137.342 172.634 137.154 171.429L140.163 171.139C140.299 171.73 140.589 172.176 141.032 172.477C141.475 172.778 142.052 172.929 142.762 172.929C143.495 172.929 144.083 172.778 144.526 172.477C144.975 172.176 145.2 171.804 145.2 171.361C145.2 170.986 145.055 170.676 144.765 170.432C144.481 170.187 144.038 170 143.435 169.869L141.202 169.401C139.947 169.139 139.018 168.699 138.415 168.08C137.813 167.455 137.515 166.665 137.521 165.71C137.515 164.903 137.734 164.205 138.177 163.614C138.626 163.017 139.248 162.557 140.043 162.233C140.844 161.903 141.768 161.739 142.813 161.739C144.347 161.739 145.555 162.065 146.435 162.719C147.322 163.372 147.87 164.256 148.08 165.369ZM153.607 175L149.908 161.909H153.053L155.354 171.114H155.474L157.826 161.909H160.937L163.289 171.062H163.417L165.684 161.909H168.837L165.13 175H161.917L159.462 166.153H159.283L156.829 175H153.607ZM177.409 175.332C176.006 175.332 174.801 174.977 173.795 174.267C172.795 173.551 172.026 172.52 171.486 171.173C170.952 169.821 170.685 168.193 170.685 166.29C170.69 164.386 170.96 162.767 171.494 161.432C172.034 160.091 172.804 159.068 173.804 158.364C174.81 157.659 176.011 157.307 177.409 157.307C178.807 157.307 180.009 157.659 181.014 158.364C182.02 159.068 182.79 160.091 183.324 161.432C183.864 162.773 184.134 164.392 184.134 166.29C184.134 168.199 183.864 169.83 183.324 171.182C182.79 172.528 182.02 173.557 181.014 174.267C180.014 174.977 178.813 175.332 177.409 175.332ZM177.409 172.665C178.5 172.665 179.361 172.128 179.991 171.054C180.628 169.974 180.946 168.386 180.946 166.29C180.946 164.903 180.801 163.739 180.511 162.795C180.222 161.852 179.813 161.142 179.284 160.665C178.756 160.182 178.131 159.94 177.409 159.94C176.324 159.94 175.466 160.48 174.835 161.56C174.205 162.634 173.886 164.21 173.881 166.29C173.875 167.682 174.014 168.852 174.298 169.801C174.588 170.75 174.997 171.466 175.526 171.949C176.054 172.426 176.682 172.665 177.409 172.665ZM186.999 175V161.909H189.991V164.091H190.127C190.366 163.335 190.775 162.753 191.354 162.344C191.94 161.929 192.607 161.722 193.357 161.722C193.528 161.722 193.718 161.73 193.928 161.747C194.144 161.759 194.323 161.778 194.465 161.807V164.645C194.335 164.599 194.127 164.56 193.843 164.526C193.565 164.486 193.295 164.466 193.033 164.466C192.471 164.466 191.965 164.588 191.516 164.832C191.073 165.071 190.724 165.403 190.468 165.83C190.212 166.256 190.085 166.747 190.085 167.304V175H186.999ZM202.566 175H196.651V157.545H202.685C204.418 157.545 205.907 157.895 207.151 158.594C208.401 159.287 209.362 160.284 210.032 161.585C210.702 162.886 211.038 164.443 211.038 166.256C211.038 168.074 210.7 169.636 210.023 170.943C209.353 172.25 208.384 173.253 207.117 173.952C205.856 174.651 204.339 175 202.566 175ZM199.813 172.264H202.413C203.629 172.264 204.643 172.043 205.455 171.599C206.268 171.151 206.879 170.483 207.288 169.597C207.697 168.705 207.901 167.591 207.901 166.256C207.901 164.92 207.697 163.812 207.288 162.932C206.879 162.045 206.273 161.384 205.472 160.946C204.677 160.503 203.688 160.281 202.506 160.281H199.813V172.264ZM66.0043 200.795C65.3168 200.795 64.6889 200.628 64.1207 200.293C63.5526 199.952 63.098 199.497 62.7571 198.929C62.4219 198.361 62.2543 197.733 62.2543 197.045C62.2543 196.352 62.4219 195.724 62.7571 195.162C63.098 194.594 63.5526 194.142 64.1207 193.807C64.6889 193.466 65.3168 193.295 66.0043 193.295C66.6974 193.295 67.3253 193.466 67.8878 193.807C68.456 194.142 68.9077 194.594 69.2429 195.162C69.5838 195.724 69.7543 196.352 69.7543 197.045C69.7543 197.733 69.5838 198.361 69.2429 198.929C68.9077 199.497 68.456 199.952 67.8878 200.293C67.3253 200.628 66.6974 200.795 66.0043 200.795ZM85.7216 204V186.545H92.267C93.608 186.545 94.733 186.778 95.642 187.244C96.5568 187.71 97.2472 188.364 97.7131 189.205C98.1847 190.04 98.4205 191.014 98.4205 192.128C98.4205 193.247 98.1818 194.219 97.7045 195.043C97.233 195.861 96.5369 196.494 95.6165 196.943C94.696 197.386 93.5653 197.608 92.2244 197.608H87.5625V194.983H91.7983C92.5824 194.983 93.2244 194.875 93.7244 194.659C94.2244 194.437 94.5938 194.116 94.8324 193.696C95.0767 193.27 95.1989 192.747 95.1989 192.128C95.1989 191.509 95.0767 190.98 94.8324 190.543C94.5881 190.099 94.2159 189.764 93.7159 189.537C93.2159 189.304 92.571 189.188 91.7812 189.188H88.8835V204H85.7216ZM94.7386 196.091L99.0597 204H95.5312L91.2869 196.091H94.7386ZM107.774 204L110.638 186.545H113.024L110.161 204H107.774ZM99.9077 199.5L100.308 197.114H113.74L113.339 199.5H99.9077ZM101.638 204L104.501 186.545H106.888L104.024 204H101.638ZM100.922 193.432L101.314 191.045H114.746L114.354 193.432H100.922ZM128.333 190.909L123.671 204H120.262L115.6 190.909H118.89L121.898 200.634H122.035L125.052 190.909H128.333ZM130.119 200.761V198.247L137.525 186.545H139.621V190.125H138.343L133.357 198.026V198.162H143.695V200.761H130.119ZM138.445 204V199.994L138.479 198.869V186.545H141.462V204H138.445ZM154.387 195.46V198H146.529V195.46H154.387ZM164.169 190.909V193.295H156.643V190.909H164.169ZM158.501 187.773H161.587V200.062C161.587 200.477 161.649 200.795 161.774 201.017C161.905 201.233 162.075 201.381 162.286 201.46C162.496 201.54 162.729 201.58 162.984 201.58C163.178 201.58 163.354 201.565 163.513 201.537C163.678 201.509 163.803 201.483 163.888 201.46L164.408 203.872C164.243 203.929 164.007 203.991 163.7 204.06C163.399 204.128 163.03 204.168 162.592 204.179C161.82 204.202 161.124 204.085 160.504 203.83C159.885 203.568 159.393 203.165 159.03 202.619C158.672 202.074 158.496 201.392 158.501 200.574V187.773ZM166.715 204V201.716L172.775 195.776C173.354 195.19 173.837 194.67 174.224 194.216C174.61 193.761 174.9 193.321 175.093 192.895C175.286 192.469 175.383 192.014 175.383 191.531C175.383 190.98 175.258 190.509 175.008 190.116C174.758 189.719 174.414 189.412 173.977 189.196C173.539 188.98 173.042 188.872 172.485 188.872C171.911 188.872 171.408 188.991 170.977 189.23C170.545 189.463 170.21 189.795 169.971 190.227C169.738 190.659 169.621 191.173 169.621 191.77H166.613C166.613 190.662 166.866 189.699 167.371 188.881C167.877 188.062 168.573 187.429 169.46 186.98C170.352 186.531 171.374 186.307 172.528 186.307C173.698 186.307 174.727 186.526 175.613 186.963C176.499 187.401 177.187 188 177.675 188.761C178.17 189.523 178.417 190.392 178.417 191.369C178.417 192.023 178.292 192.665 178.042 193.295C177.792 193.926 177.352 194.625 176.721 195.392C176.096 196.159 175.218 197.088 174.087 198.179L171.079 201.239V201.358H178.681V204H166.715ZM189.59 195.46V198H181.732V195.46H189.59ZM203.182 194.369L200.369 194.676C200.29 194.392 200.151 194.125 199.952 193.875C199.759 193.625 199.497 193.423 199.168 193.27C198.838 193.116 198.435 193.04 197.957 193.04C197.315 193.04 196.776 193.179 196.338 193.457C195.906 193.736 195.693 194.097 195.699 194.54C195.693 194.92 195.832 195.23 196.116 195.469C196.406 195.707 196.884 195.903 197.548 196.057L199.781 196.534C201.02 196.801 201.94 197.224 202.543 197.804C203.151 198.384 203.457 199.142 203.463 200.08C203.457 200.903 203.216 201.631 202.739 202.261C202.267 202.886 201.611 203.375 200.77 203.727C199.929 204.08 198.963 204.256 197.872 204.256C196.27 204.256 194.98 203.92 194.003 203.25C193.026 202.574 192.443 201.634 192.256 200.429L195.264 200.139C195.401 200.73 195.69 201.176 196.134 201.477C196.577 201.778 197.153 201.929 197.864 201.929C198.597 201.929 199.185 201.778 199.628 201.477C200.077 201.176 200.301 200.804 200.301 200.361C200.301 199.986 200.156 199.676 199.866 199.432C199.582 199.187 199.139 199 198.537 198.869L196.304 198.401C195.048 198.139 194.119 197.699 193.517 197.08C192.915 196.455 192.616 195.665 192.622 194.71C192.616 193.903 192.835 193.205 193.278 192.614C193.727 192.017 194.349 191.557 195.145 191.233C195.946 190.903 196.869 190.739 197.915 190.739C199.449 190.739 200.656 191.065 201.537 191.719C202.423 192.372 202.972 193.256 203.182 194.369ZM212.544 190.909V193.295H205.018V190.909H212.544ZM206.876 187.773H209.962V200.062C209.962 200.477 210.024 200.795 210.149 201.017C210.28 201.233 210.45 201.381 210.661 201.46C210.871 201.54 211.104 201.58 211.359 201.58C211.553 201.58 211.729 201.565 211.888 201.537C212.053 201.509 212.178 201.483 212.263 201.46L212.783 203.872C212.618 203.929 212.382 203.991 212.075 204.06C211.774 204.128 211.405 204.168 210.967 204.179C210.195 204.202 209.499 204.085 208.879 203.83C208.26 203.568 207.768 203.165 207.405 202.619C207.047 202.074 206.871 201.392 206.876 200.574V187.773ZM215.542 204V191.105C215.542 190.111 215.778 189.256 216.249 188.54C216.721 187.818 217.383 187.267 218.235 186.886C219.093 186.5 220.09 186.307 221.227 186.307C222.3 186.307 223.281 186.486 224.167 186.844C225.053 187.202 225.758 187.727 226.281 188.42C226.803 189.108 227.065 189.955 227.065 190.96C227.065 191.892 226.829 192.685 226.357 193.338C225.891 193.991 225.263 194.437 224.474 194.676V194.864C225.599 194.949 226.502 195.386 227.184 196.176C227.866 196.966 228.204 197.972 228.198 199.193C228.198 200.182 227.968 201.037 227.508 201.759C227.053 202.474 226.417 203.028 225.599 203.42C224.786 203.807 223.843 204 222.769 204H220.596V201.401H222.394C222.94 201.401 223.414 201.298 223.817 201.094C224.221 200.889 224.533 200.605 224.755 200.241C224.977 199.872 225.087 199.446 225.087 198.963C225.082 198.207 224.809 197.594 224.269 197.122C223.729 196.651 222.999 196.415 222.079 196.415H220.664V193.892H221.636C222.102 193.892 222.505 193.778 222.846 193.551C223.187 193.318 223.451 193.014 223.638 192.639C223.826 192.259 223.923 191.849 223.928 191.412C223.928 190.713 223.695 190.131 223.229 189.665C222.769 189.193 222.13 188.957 221.312 188.957C220.522 188.957 219.877 189.188 219.377 189.648C218.877 190.108 218.627 190.713 218.627 191.463V204H215.542ZM230.898 204V190.909H233.889V193.091H234.026C234.264 192.335 234.673 191.753 235.253 191.344C235.838 190.929 236.506 190.722 237.256 190.722C237.426 190.722 237.616 190.73 237.827 190.747C238.043 190.759 238.222 190.778 238.364 190.807V193.645C238.233 193.599 238.026 193.56 237.741 193.526C237.463 193.486 237.193 193.466 236.932 193.466C236.369 193.466 235.864 193.588 235.415 193.832C234.972 194.071 234.622 194.403 234.366 194.83C234.111 195.256 233.983 195.747 233.983 196.304V204H230.898ZM243.499 196.33V204H240.413V190.909H243.362V193.134H243.516C243.817 192.401 244.297 191.818 244.956 191.386C245.621 190.955 246.442 190.739 247.419 190.739C248.322 190.739 249.109 190.932 249.78 191.318C250.456 191.705 250.979 192.264 251.348 192.997C251.723 193.73 251.908 194.619 251.902 195.665V204H248.817V196.142C248.817 195.267 248.589 194.582 248.135 194.088C247.686 193.594 247.064 193.347 246.268 193.347C245.729 193.347 245.249 193.466 244.828 193.705C244.413 193.937 244.087 194.276 243.848 194.719C243.615 195.162 243.499 195.699 243.499 196.33ZM260.732 209.182C259.624 209.182 258.672 209.031 257.876 208.73C257.081 208.435 256.442 208.037 255.959 207.537C255.476 207.037 255.141 206.483 254.953 205.875L257.732 205.202C257.857 205.457 258.038 205.71 258.277 205.96C258.516 206.216 258.837 206.426 259.24 206.591C259.649 206.761 260.163 206.847 260.783 206.847C261.658 206.847 262.382 206.634 262.956 206.207C263.53 205.787 263.817 205.094 263.817 204.128V201.648H263.663C263.504 201.966 263.271 202.293 262.964 202.628C262.663 202.963 262.263 203.244 261.763 203.472C261.268 203.699 260.646 203.812 259.896 203.812C258.891 203.812 257.979 203.577 257.161 203.105C256.348 202.628 255.7 201.918 255.217 200.974C254.74 200.026 254.501 198.838 254.501 197.412C254.501 195.974 254.74 194.761 255.217 193.773C255.7 192.778 256.351 192.026 257.169 191.514C257.987 190.997 258.899 190.739 259.905 190.739C260.672 190.739 261.303 190.869 261.797 191.131C262.297 191.386 262.695 191.696 262.99 192.06C263.286 192.418 263.51 192.756 263.663 193.074H263.834V190.909H266.876V204.213C266.876 205.332 266.609 206.259 266.075 206.991C265.541 207.724 264.811 208.273 263.885 208.636C262.959 209 261.908 209.182 260.732 209.182ZM260.757 201.392C261.411 201.392 261.967 201.233 262.428 200.915C262.888 200.597 263.237 200.139 263.476 199.543C263.714 198.946 263.834 198.23 263.834 197.395C263.834 196.571 263.714 195.849 263.476 195.23C263.243 194.611 262.896 194.131 262.436 193.79C261.982 193.443 261.422 193.27 260.757 193.27C260.07 193.27 259.496 193.449 259.036 193.807C258.575 194.165 258.229 194.656 257.996 195.281C257.763 195.901 257.646 196.605 257.646 197.395C257.646 198.196 257.763 198.898 257.996 199.5C258.234 200.097 258.584 200.562 259.044 200.898C259.51 201.227 260.081 201.392 260.757 201.392ZM277.973 195.46V198H270.115V195.46H277.973ZM85.5852 237.909V219.909H88.6193V222.074H88.7983C88.9574 221.756 89.1818 221.418 89.4716 221.06C89.7614 220.696 90.1534 220.386 90.6477 220.131C91.142 219.869 91.7727 219.739 92.5398 219.739C93.5511 219.739 94.4631 219.997 95.2756 220.514C96.0938 221.026 96.7415 221.784 97.2188 222.79C97.7017 223.79 97.9432 225.017 97.9432 226.472C97.9432 227.909 97.7074 229.131 97.2358 230.136C96.7642 231.142 96.1222 231.909 95.3097 232.438C94.4972 232.966 93.5767 233.23 92.5483 233.23C91.7983 233.23 91.1761 233.105 90.6818 232.855C90.1875 232.605 89.7898 232.304 89.4886 231.952C89.1932 231.594 88.9631 231.256 88.7983 230.938H88.6705V237.909H85.5852ZM88.6108 226.455C88.6108 227.301 88.7301 228.043 88.9688 228.679C89.2131 229.315 89.5625 229.812 90.017 230.17C90.4773 230.523 91.0341 230.699 91.6875 230.699C92.3693 230.699 92.9403 230.517 93.4006 230.153C93.8608 229.784 94.2074 229.281 94.4403 228.645C94.679 228.003 94.7983 227.273 94.7983 226.455C94.7983 225.642 94.6818 224.92 94.4489 224.29C94.2159 223.659 93.8693 223.165 93.4091 222.807C92.9489 222.449 92.375 222.27 91.6875 222.27C91.0284 222.27 90.4688 222.443 90.0085 222.79C89.5483 223.136 89.1989 223.622 88.9602 224.247C88.7273 224.872 88.6108 225.608 88.6108 226.455ZM111.554 237.892C109.764 237.892 108.173 237.648 106.781 237.159C105.395 236.676 104.224 235.963 103.27 235.02C102.315 234.082 101.591 232.938 101.097 231.585C100.602 230.233 100.352 228.688 100.347 226.949C100.352 225.25 100.605 223.719 101.105 222.355C101.605 220.986 102.335 219.815 103.295 218.844C104.256 217.866 105.429 217.116 106.815 216.594C108.202 216.071 109.778 215.81 111.545 215.81C113.21 215.81 114.685 216.062 115.969 216.568C117.259 217.074 118.347 217.778 119.233 218.682C120.125 219.58 120.798 220.631 121.253 221.835C121.713 223.034 121.943 224.335 121.943 225.739C121.943 226.71 121.869 227.631 121.722 228.5C121.574 229.364 121.321 230.131 120.963 230.801C120.611 231.472 120.131 232.006 119.523 232.403C118.915 232.795 118.153 233.009 117.239 233.043C116.665 233.071 116.162 233.017 115.73 232.881C115.298 232.744 114.949 232.531 114.682 232.241C114.42 231.946 114.256 231.585 114.188 231.159H114.085C113.955 231.5 113.707 231.812 113.344 232.097C112.986 232.375 112.543 232.594 112.014 232.753C111.486 232.906 110.898 232.969 110.25 232.94C109.557 232.906 108.915 232.747 108.324 232.463C107.739 232.173 107.227 231.77 106.79 231.253C106.358 230.73 106.023 230.099 105.784 229.361C105.545 228.622 105.426 227.784 105.426 226.847C105.426 225.932 105.557 225.125 105.818 224.426C106.08 223.727 106.429 223.131 106.866 222.636C107.31 222.142 107.81 221.756 108.366 221.477C108.923 221.193 109.497 221.011 110.088 220.932C110.702 220.847 111.278 220.855 111.818 220.957C112.358 221.06 112.807 221.216 113.165 221.426C113.528 221.636 113.756 221.866 113.847 222.116H113.966V221.162H116.344V229.276C116.349 229.702 116.452 230.045 116.651 230.307C116.855 230.568 117.139 230.699 117.503 230.699C117.957 230.699 118.324 230.52 118.602 230.162C118.886 229.798 119.091 229.241 119.216 228.491C119.347 227.736 119.409 226.77 119.403 225.594C119.409 224.628 119.281 223.753 119.02 222.969C118.764 222.179 118.401 221.486 117.929 220.889C117.457 220.293 116.892 219.795 116.233 219.398C115.58 218.994 114.852 218.69 114.051 218.486C113.25 218.281 112.395 218.179 111.486 218.179C110.094 218.179 108.869 218.392 107.812 218.818C106.756 219.239 105.869 219.838 105.153 220.616C104.443 221.395 103.906 222.318 103.543 223.386C103.185 224.449 103.006 225.625 103.006 226.915C103.006 228.295 103.193 229.52 103.568 230.588C103.949 231.651 104.506 232.545 105.239 233.273C105.972 234 106.878 234.551 107.957 234.926C109.043 235.301 110.29 235.489 111.699 235.489C112.347 235.489 112.98 235.438 113.599 235.335C114.219 235.233 114.776 235.114 115.27 234.977C115.764 234.841 116.145 234.722 116.412 234.619L117.136 236.784C116.784 236.966 116.307 237.142 115.705 237.312C115.108 237.483 114.449 237.622 113.727 237.73C113.011 237.838 112.287 237.892 111.554 237.892ZM110.957 230.494C111.679 230.494 112.256 230.355 112.688 230.077C113.119 229.793 113.429 229.372 113.616 228.815C113.804 228.259 113.895 227.565 113.889 226.736C113.889 225.963 113.793 225.33 113.599 224.835C113.406 224.341 113.097 223.974 112.67 223.736C112.244 223.497 111.679 223.378 110.974 223.378C110.338 223.378 109.795 223.523 109.347 223.812C108.903 224.102 108.563 224.503 108.324 225.014C108.091 225.52 107.974 226.097 107.974 226.744C107.974 227.392 108.068 228.003 108.256 228.577C108.449 229.145 108.761 229.608 109.193 229.966C109.631 230.318 110.219 230.494 110.957 230.494ZM134.908 223.369L132.096 223.676C132.016 223.392 131.877 223.125 131.678 222.875C131.485 222.625 131.224 222.423 130.894 222.27C130.565 222.116 130.161 222.04 129.684 222.04C129.042 222.04 128.502 222.179 128.065 222.457C127.633 222.736 127.42 223.097 127.425 223.54C127.42 223.92 127.559 224.23 127.843 224.469C128.133 224.707 128.61 224.903 129.275 225.057L131.508 225.534C132.746 225.801 133.667 226.224 134.269 226.804C134.877 227.384 135.184 228.142 135.19 229.08C135.184 229.903 134.942 230.631 134.465 231.261C133.994 231.886 133.337 232.375 132.496 232.727C131.656 233.08 130.69 233.256 129.599 233.256C127.996 233.256 126.707 232.92 125.729 232.25C124.752 231.574 124.17 230.634 123.982 229.429L126.991 229.139C127.127 229.73 127.417 230.176 127.86 230.477C128.303 230.778 128.88 230.929 129.59 230.929C130.323 230.929 130.911 230.778 131.354 230.477C131.803 230.176 132.028 229.804 132.028 229.361C132.028 228.986 131.883 228.676 131.593 228.432C131.309 228.187 130.866 228 130.263 227.869L128.031 227.401C126.775 227.139 125.846 226.699 125.244 226.08C124.641 225.455 124.343 224.665 124.349 223.71C124.343 222.903 124.562 222.205 125.005 221.614C125.454 221.017 126.076 220.557 126.871 220.233C127.673 219.903 128.596 219.739 129.641 219.739C131.175 219.739 132.383 220.065 133.263 220.719C134.15 221.372 134.698 222.256 134.908 223.369ZM148.08 223.369L145.268 223.676C145.188 223.392 145.049 223.125 144.85 222.875C144.657 222.625 144.396 222.423 144.066 222.27C143.737 222.116 143.333 222.04 142.856 222.04C142.214 222.04 141.674 222.179 141.237 222.457C140.805 222.736 140.592 223.097 140.597 223.54C140.592 223.92 140.731 224.23 141.015 224.469C141.305 224.707 141.782 224.903 142.447 225.057L144.68 225.534C145.918 225.801 146.839 226.224 147.441 226.804C148.049 227.384 148.356 228.142 148.362 229.08C148.356 229.903 148.114 230.631 147.637 231.261C147.165 231.886 146.509 232.375 145.668 232.727C144.827 233.08 143.862 233.256 142.771 233.256C141.168 233.256 139.879 232.92 138.901 232.25C137.924 231.574 137.342 230.634 137.154 229.429L140.163 229.139C140.299 229.73 140.589 230.176 141.032 230.477C141.475 230.778 142.052 230.929 142.762 230.929C143.495 230.929 144.083 230.778 144.526 230.477C144.975 230.176 145.2 229.804 145.2 229.361C145.2 228.986 145.055 228.676 144.765 228.432C144.481 228.187 144.038 228 143.435 227.869L141.202 227.401C139.947 227.139 139.018 226.699 138.415 226.08C137.813 225.455 137.515 224.665 137.521 223.71C137.515 222.903 137.734 222.205 138.177 221.614C138.626 221.017 139.248 220.557 140.043 220.233C140.844 219.903 141.768 219.739 142.813 219.739C144.347 219.739 145.555 220.065 146.435 220.719C147.322 221.372 147.87 222.256 148.08 223.369ZM153.607 233L149.908 219.909H153.053L155.354 229.114H155.474L157.826 219.909H160.937L163.289 229.062H163.417L165.684 219.909H168.837L165.13 233H161.917L159.462 224.153H159.283L156.829 233H153.607ZM177.409 233.332C176.006 233.332 174.801 232.977 173.795 232.267C172.795 231.551 172.026 230.52 171.486 229.173C170.952 227.821 170.685 226.193 170.685 224.29C170.69 222.386 170.96 220.767 171.494 219.432C172.034 218.091 172.804 217.068 173.804 216.364C174.81 215.659 176.011 215.307 177.409 215.307C178.807 215.307 180.009 215.659 181.014 216.364C182.02 217.068 182.79 218.091 183.324 219.432C183.864 220.773 184.134 222.392 184.134 224.29C184.134 226.199 183.864 227.83 183.324 229.182C182.79 230.528 182.02 231.557 181.014 232.267C180.014 232.977 178.813 233.332 177.409 233.332ZM177.409 230.665C178.5 230.665 179.361 230.128 179.991 229.054C180.628 227.974 180.946 226.386 180.946 224.29C180.946 222.903 180.801 221.739 180.511 220.795C180.222 219.852 179.813 219.142 179.284 218.665C178.756 218.182 178.131 217.94 177.409 217.94C176.324 217.94 175.466 218.48 174.835 219.56C174.205 220.634 173.886 222.21 173.881 224.29C173.875 225.682 174.014 226.852 174.298 227.801C174.588 228.75 174.997 229.466 175.526 229.949C176.054 230.426 176.682 230.665 177.409 230.665ZM186.999 233V219.909H189.991V222.091H190.127C190.366 221.335 190.775 220.753 191.354 220.344C191.94 219.929 192.607 219.722 193.357 219.722C193.528 219.722 193.718 219.73 193.928 219.747C194.144 219.759 194.323 219.778 194.465 219.807V222.645C194.335 222.599 194.127 222.56 193.843 222.526C193.565 222.486 193.295 222.466 193.033 222.466C192.471 222.466 191.965 222.588 191.516 222.832C191.073 223.071 190.724 223.403 190.468 223.83C190.212 224.256 190.085 224.747 190.085 225.304V233H186.999ZM206.137 220.344C206.058 219.599 205.722 219.02 205.131 218.605C204.546 218.19 203.785 217.983 202.847 217.983C202.188 217.983 201.623 218.082 201.151 218.281C200.68 218.48 200.319 218.75 200.069 219.091C199.819 219.432 199.691 219.821 199.685 220.259C199.685 220.622 199.768 220.937 199.933 221.205C200.103 221.472 200.333 221.699 200.623 221.886C200.913 222.068 201.234 222.222 201.586 222.347C201.938 222.472 202.293 222.577 202.651 222.662L204.288 223.071C204.947 223.224 205.58 223.432 206.188 223.693C206.802 223.955 207.35 224.284 207.833 224.682C208.322 225.08 208.708 225.56 208.992 226.122C209.276 226.685 209.418 227.344 209.418 228.099C209.418 229.122 209.157 230.023 208.634 230.801C208.112 231.574 207.356 232.179 206.367 232.616C205.384 233.048 204.194 233.264 202.796 233.264C201.438 233.264 200.259 233.054 199.259 232.634C198.265 232.213 197.487 231.599 196.924 230.793C196.367 229.986 196.066 229.003 196.021 227.844H199.131C199.177 228.452 199.364 228.957 199.694 229.361C200.023 229.764 200.452 230.065 200.981 230.264C201.515 230.463 202.112 230.562 202.771 230.562C203.458 230.562 204.06 230.46 204.577 230.256C205.1 230.045 205.509 229.756 205.805 229.386C206.1 229.011 206.251 228.574 206.256 228.074C206.251 227.619 206.117 227.244 205.856 226.949C205.594 226.648 205.228 226.398 204.756 226.199C204.29 225.994 203.745 225.812 203.12 225.653L201.134 225.142C199.697 224.773 198.56 224.213 197.725 223.463C196.896 222.707 196.481 221.705 196.481 220.455C196.481 219.426 196.759 218.526 197.316 217.753C197.879 216.98 198.643 216.381 199.609 215.955C200.575 215.523 201.668 215.307 202.89 215.307C204.129 215.307 205.214 215.523 206.146 215.955C207.083 216.381 207.819 216.974 208.353 217.736C208.887 218.491 209.163 219.361 209.18 220.344H206.137ZM66.0043 258.795C65.3168 258.795 64.6889 258.628 64.1207 258.293C63.5526 257.952 63.098 257.497 62.7571 256.929C62.4219 256.361 62.2543 255.733 62.2543 255.045C62.2543 254.352 62.4219 253.724 62.7571 253.162C63.098 252.594 63.5526 252.142 64.1207 251.807C64.6889 251.466 65.3168 251.295 66.0043 251.295C66.6974 251.295 67.3253 251.466 67.8878 251.807C68.456 252.142 68.9077 252.594 69.2429 253.162C69.5838 253.724 69.7543 254.352 69.7543 255.045C69.7543 255.733 69.5838 256.361 69.2429 256.929C68.9077 257.497 68.456 257.952 67.8878 258.293C67.3253 258.628 66.6974 258.795 66.0043 258.795ZM85.7216 262V244.545H92.267C93.608 244.545 94.733 244.778 95.642 245.244C96.5568 245.71 97.2472 246.364 97.7131 247.205C98.1847 248.04 98.4205 249.014 98.4205 250.128C98.4205 251.247 98.1818 252.219 97.7045 253.043C97.233 253.861 96.5369 254.494 95.6165 254.943C94.696 255.386 93.5653 255.608 92.2244 255.608H87.5625V252.983H91.7983C92.5824 252.983 93.2244 252.875 93.7244 252.659C94.2244 252.437 94.5938 252.116 94.8324 251.696C95.0767 251.27 95.1989 250.747 95.1989 250.128C95.1989 249.509 95.0767 248.98 94.8324 248.543C94.5881 248.099 94.2159 247.764 93.7159 247.537C93.2159 247.304 92.571 247.188 91.7812 247.188H88.8835V262H85.7216ZM94.7386 254.091L99.0597 262H95.5312L91.2869 254.091H94.7386ZM107.774 262L110.638 244.545H113.024L110.161 262H107.774ZM99.9077 257.5L100.308 255.114H113.74L113.339 257.5H99.9077ZM101.638 262L104.501 244.545H106.888L104.024 262H101.638ZM100.922 251.432L101.314 249.045H114.746L114.354 251.432H100.922ZM126.646 248.807H123.867C123.867 248.273 123.705 247.827 123.381 247.469C123.063 247.111 122.572 246.932 121.907 246.932C121.538 246.932 121.211 246.994 120.927 247.119C120.648 247.239 120.433 247.406 120.279 247.622C120.126 247.832 120.049 248.074 120.049 248.347C120.049 248.642 120.137 248.915 120.313 249.165C120.495 249.415 120.717 249.634 120.978 249.821C121.245 250.003 121.498 250.151 121.737 250.264L125.018 251.926C125.239 252.034 125.506 252.187 125.819 252.386C126.131 252.58 126.433 252.832 126.722 253.145C127.012 253.452 127.245 253.824 127.421 254.261C127.603 254.693 127.677 255.205 127.643 255.795C127.614 256.25 127.481 256.656 127.242 257.014C127.004 257.372 126.717 257.67 126.381 257.909C126.052 258.142 125.731 258.307 125.418 258.403L125.393 258.438C125.847 258.835 126.188 259.287 126.415 259.793C126.643 260.298 126.759 260.858 126.765 261.472C126.765 262.347 126.546 263.085 126.109 263.688C125.677 264.295 125.097 264.753 124.37 265.06C123.648 265.372 122.844 265.528 121.958 265.528C120.958 265.528 120.075 265.341 119.308 264.966C118.54 264.591 117.941 264.06 117.509 263.372C117.083 262.69 116.87 261.881 116.87 260.943H119.665C119.66 261.58 119.867 262.068 120.288 262.409C120.714 262.75 121.279 262.912 121.984 262.895C122.484 262.889 122.935 262.77 123.339 262.537C123.748 262.31 123.955 261.955 123.961 261.472C123.961 261.131 123.87 260.841 123.688 260.602C123.506 260.358 123.285 260.153 123.023 259.989C122.768 259.818 122.526 259.673 122.299 259.554L119.018 257.926C118.79 257.818 118.521 257.665 118.208 257.466C117.896 257.267 117.594 257.011 117.305 256.699C117.015 256.386 116.779 256.011 116.597 255.574C116.415 255.131 116.342 254.614 116.376 254.023C116.404 253.568 116.529 253.162 116.751 252.804C116.978 252.446 117.256 252.148 117.586 251.909C117.921 251.67 118.265 251.5 118.617 251.398V251.355C118.208 250.957 117.879 250.514 117.629 250.026C117.379 249.531 117.254 248.972 117.254 248.347C117.254 247.574 117.452 246.884 117.85 246.276C118.248 245.662 118.796 245.182 119.495 244.835C120.194 244.483 120.998 244.307 121.907 244.307C122.862 244.307 123.694 244.5 124.404 244.886C125.114 245.273 125.665 245.807 126.058 246.489C126.45 247.165 126.646 247.937 126.646 248.807ZM125.026 255.915C125.049 255.676 125.001 255.452 124.881 255.241C124.768 255.026 124.597 254.827 124.37 254.645C124.148 254.463 123.884 254.298 123.577 254.151L120.56 252.642C120.344 252.534 120.114 252.523 119.87 252.608C119.631 252.693 119.427 252.852 119.256 253.085C119.086 253.312 118.992 253.585 118.975 253.903C118.947 254.284 119.069 254.622 119.342 254.918C119.614 255.207 119.984 255.463 120.45 255.685L123.398 257.142C123.597 257.244 123.819 257.256 124.063 257.176C124.313 257.091 124.532 256.94 124.719 256.724C124.907 256.503 125.009 256.233 125.026 255.915ZM134.305 262.264C133.476 262.264 132.729 262.116 132.064 261.821C131.405 261.52 130.882 261.077 130.496 260.491C130.115 259.906 129.925 259.185 129.925 258.327C129.925 257.588 130.061 256.977 130.334 256.494C130.607 256.011 130.979 255.625 131.45 255.335C131.922 255.045 132.453 254.827 133.044 254.679C133.641 254.526 134.257 254.415 134.893 254.347C135.661 254.267 136.283 254.196 136.76 254.134C137.237 254.065 137.584 253.963 137.8 253.827C138.021 253.685 138.132 253.466 138.132 253.17V253.119C138.132 252.477 137.942 251.98 137.561 251.628C137.18 251.276 136.632 251.099 135.916 251.099C135.161 251.099 134.561 251.264 134.118 251.594C133.68 251.923 133.385 252.312 133.232 252.761L130.351 252.352C130.578 251.557 130.953 250.892 131.476 250.358C131.999 249.818 132.638 249.415 133.393 249.148C134.149 248.875 134.984 248.739 135.899 248.739C136.53 248.739 137.158 248.812 137.783 248.96C138.408 249.108 138.979 249.352 139.496 249.693C140.013 250.028 140.428 250.486 140.74 251.065C141.058 251.645 141.217 252.369 141.217 253.239V262H138.251V260.202H138.149C137.962 260.565 137.697 260.906 137.357 261.224C137.021 261.537 136.598 261.79 136.087 261.983C135.581 262.17 134.987 262.264 134.305 262.264ZM135.107 259.997C135.726 259.997 136.263 259.875 136.717 259.631C137.172 259.381 137.521 259.051 137.766 258.642C138.016 258.233 138.141 257.787 138.141 257.304V255.761C138.044 255.841 137.879 255.915 137.646 255.983C137.419 256.051 137.163 256.111 136.879 256.162C136.595 256.213 136.314 256.259 136.036 256.298C135.757 256.338 135.516 256.372 135.311 256.401C134.851 256.463 134.439 256.565 134.075 256.707C133.712 256.849 133.425 257.048 133.214 257.304C133.004 257.554 132.899 257.878 132.899 258.276C132.899 258.844 133.107 259.273 133.521 259.562C133.936 259.852 134.464 259.997 135.107 259.997ZM154.666 252.369L151.854 252.676C151.774 252.392 151.635 252.125 151.436 251.875C151.243 251.625 150.982 251.423 150.652 251.27C150.322 251.116 149.919 251.04 149.442 251.04C148.8 251.04 148.26 251.179 147.822 251.457C147.391 251.736 147.178 252.097 147.183 252.54C147.178 252.92 147.317 253.23 147.601 253.469C147.891 253.707 148.368 253.903 149.033 254.057L151.266 254.534C152.504 254.801 153.425 255.224 154.027 255.804C154.635 256.384 154.942 257.142 154.947 258.08C154.942 258.903 154.7 259.631 154.223 260.261C153.751 260.886 153.095 261.375 152.254 261.727C151.413 262.08 150.447 262.256 149.357 262.256C147.754 262.256 146.464 261.92 145.487 261.25C144.51 260.574 143.928 259.634 143.74 258.429L146.749 258.139C146.885 258.73 147.175 259.176 147.618 259.477C148.061 259.778 148.638 259.929 149.348 259.929C150.081 259.929 150.669 259.778 151.112 259.477C151.561 259.176 151.786 258.804 151.786 258.361C151.786 257.986 151.641 257.676 151.351 257.432C151.067 257.187 150.624 257 150.021 256.869L147.788 256.401C146.533 256.139 145.604 255.699 145.001 255.08C144.399 254.455 144.101 253.665 144.107 252.71C144.101 251.903 144.32 251.205 144.763 250.614C145.212 250.017 145.834 249.557 146.629 249.233C147.43 248.903 148.354 248.739 149.399 248.739C150.933 248.739 152.141 249.065 153.021 249.719C153.908 250.372 154.456 251.256 154.666 252.369ZM164.122 248.909V251.295H156.384V248.909H164.122ZM158.318 262V247.673C158.318 246.793 158.5 246.06 158.864 245.474C159.233 244.889 159.727 244.452 160.347 244.162C160.966 243.872 161.653 243.727 162.409 243.727C162.943 243.727 163.418 243.77 163.832 243.855C164.247 243.94 164.554 244.017 164.753 244.085L164.139 246.472C164.009 246.432 163.844 246.392 163.645 246.352C163.446 246.307 163.224 246.284 162.98 246.284C162.406 246.284 162 246.423 161.761 246.702C161.528 246.974 161.412 247.366 161.412 247.878V262H158.318ZM164.689 258.761V256.247L172.095 244.545H174.192V248.125H172.913L167.928 256.026V256.162H178.266V258.761H164.689ZM173.016 262V257.994L173.05 256.869V244.545H176.033V262H173.016ZM184.918 258.182L185.114 254.73L182.216 256.631L181.176 254.824L184.27 253.273L181.176 251.722L182.216 249.915L185.114 251.815L184.918 248.364H186.989L186.801 251.815L189.699 249.915L190.739 251.722L187.636 253.273L190.739 254.824L189.699 256.631L186.801 254.73L186.989 258.182H184.918ZM194.02 262V259.716L200.08 253.776C200.659 253.19 201.142 252.67 201.528 252.216C201.915 251.761 202.205 251.321 202.398 250.895C202.591 250.469 202.688 250.014 202.688 249.531C202.688 248.98 202.562 248.509 202.312 248.116C202.062 247.719 201.719 247.412 201.281 247.196C200.844 246.98 200.347 246.872 199.79 246.872C199.216 246.872 198.713 246.991 198.281 247.23C197.849 247.463 197.514 247.795 197.276 248.227C197.043 248.659 196.926 249.173 196.926 249.77H193.918C193.918 248.662 194.17 247.699 194.676 246.881C195.182 246.062 195.878 245.429 196.764 244.98C197.656 244.531 198.679 244.307 199.832 244.307C201.003 244.307 202.031 244.526 202.918 244.963C203.804 245.401 204.491 246 204.98 246.761C205.474 247.523 205.722 248.392 205.722 249.369C205.722 250.023 205.597 250.665 205.347 251.295C205.097 251.926 204.656 252.625 204.026 253.392C203.401 254.159 202.523 255.088 201.392 256.179L198.384 259.239V259.358H205.986V262H194.02ZM216.026 244.545V262H212.864V247.622H212.761L208.679 250.23V247.332L213.017 244.545H216.026ZM226.526 262.239C225.389 262.239 224.372 262.026 223.474 261.599C222.577 261.168 221.864 260.577 221.335 259.827C220.813 259.077 220.534 258.219 220.5 257.253H223.568C223.625 257.969 223.935 258.554 224.497 259.009C225.06 259.457 225.736 259.682 226.526 259.682C227.145 259.682 227.696 259.54 228.179 259.256C228.662 258.972 229.043 258.577 229.321 258.071C229.599 257.565 229.736 256.989 229.73 256.341C229.736 255.682 229.597 255.097 229.312 254.585C229.028 254.074 228.639 253.673 228.145 253.384C227.651 253.088 227.082 252.94 226.44 252.94C225.918 252.935 225.403 253.031 224.898 253.23C224.392 253.429 223.991 253.69 223.696 254.014L220.841 253.545L221.753 244.545H231.878V247.188H224.369L223.866 251.815H223.969C224.293 251.435 224.75 251.119 225.341 250.869C225.932 250.614 226.58 250.486 227.284 250.486C228.341 250.486 229.284 250.736 230.114 251.236C230.943 251.73 231.597 252.412 232.074 253.281C232.551 254.151 232.79 255.145 232.79 256.264C232.79 257.418 232.523 258.446 231.989 259.349C231.46 260.247 230.724 260.955 229.781 261.472C228.844 261.983 227.759 262.239 226.526 262.239ZM240.537 262.23C239.509 262.23 238.588 261.966 237.776 261.438C236.963 260.909 236.321 260.142 235.849 259.136C235.378 258.131 235.142 256.909 235.142 255.472C235.142 254.017 235.381 252.79 235.858 251.79C236.341 250.784 236.991 250.026 237.81 249.514C238.628 248.997 239.54 248.739 240.545 248.739C241.313 248.739 241.943 248.869 242.438 249.131C242.932 249.386 243.324 249.696 243.614 250.06C243.903 250.418 244.128 250.756 244.287 251.074H244.415V244.545H247.509V262H244.474V259.938H244.287C244.128 260.256 243.898 260.594 243.597 260.952C243.295 261.304 242.898 261.605 242.403 261.855C241.909 262.105 241.287 262.23 240.537 262.23ZM241.398 259.699C242.051 259.699 242.608 259.523 243.068 259.17C243.528 258.812 243.878 258.315 244.116 257.679C244.355 257.043 244.474 256.301 244.474 255.455C244.474 254.608 244.355 253.872 244.116 253.247C243.884 252.622 243.537 252.136 243.077 251.79C242.622 251.443 242.063 251.27 241.398 251.27C240.71 251.27 240.136 251.449 239.676 251.807C239.216 252.165 238.869 252.659 238.636 253.29C238.403 253.92 238.287 254.642 238.287 255.455C238.287 256.273 238.403 257.003 238.636 257.645C238.875 258.281 239.224 258.784 239.685 259.153C240.151 259.517 240.722 259.699 241.398 259.699ZM254.563 262.264C253.734 262.264 252.987 262.116 252.322 261.821C251.663 261.52 251.14 261.077 250.754 260.491C250.373 259.906 250.183 259.185 250.183 258.327C250.183 257.588 250.319 256.977 250.592 256.494C250.864 256.011 251.237 255.625 251.708 255.335C252.18 255.045 252.711 254.827 253.302 254.679C253.898 254.526 254.515 254.415 255.151 254.347C255.918 254.267 256.54 254.196 257.018 254.134C257.495 254.065 257.842 253.963 258.058 253.827C258.279 253.685 258.39 253.466 258.39 253.17V253.119C258.39 252.477 258.2 251.98 257.819 251.628C257.438 251.276 256.89 251.099 256.174 251.099C255.418 251.099 254.819 251.264 254.376 251.594C253.938 251.923 253.643 252.312 253.489 252.761L250.609 252.352C250.836 251.557 251.211 250.892 251.734 250.358C252.256 249.818 252.896 249.415 253.651 249.148C254.407 248.875 255.242 248.739 256.157 248.739C256.788 248.739 257.415 248.812 258.04 248.96C258.665 249.108 259.237 249.352 259.754 249.693C260.271 250.028 260.685 250.486 260.998 251.065C261.316 251.645 261.475 252.369 261.475 253.239V262H258.509V260.202H258.407C258.219 260.565 257.955 260.906 257.614 261.224C257.279 261.537 256.856 261.79 256.344 261.983C255.839 262.17 255.245 262.264 254.563 262.264ZM255.364 259.997C255.984 259.997 256.521 259.875 256.975 259.631C257.43 259.381 257.779 259.051 258.023 258.642C258.273 258.233 258.398 257.787 258.398 257.304V255.761C258.302 255.841 258.137 255.915 257.904 255.983C257.677 256.051 257.421 256.111 257.137 256.162C256.853 256.213 256.572 256.259 256.293 256.298C256.015 256.338 255.773 256.372 255.569 256.401C255.109 256.463 254.697 256.565 254.333 256.707C253.969 256.849 253.683 257.048 253.472 257.304C253.262 257.554 253.157 257.878 253.157 258.276C253.157 258.844 253.364 259.273 253.779 259.562C254.194 259.852 254.722 259.997 255.364 259.997ZM66.0043 287.795C65.3168 287.795 64.6889 287.628 64.1207 287.293C63.5526 286.952 63.098 286.497 62.7571 285.929C62.4219 285.361 62.2543 284.733 62.2543 284.045C62.2543 283.352 62.4219 282.724 62.7571 282.162C63.098 281.594 63.5526 281.142 64.1207 280.807C64.6889 280.466 65.3168 280.295 66.0043 280.295C66.6974 280.295 67.3253 280.466 67.8878 280.807C68.456 281.142 68.9077 281.594 69.2429 282.162C69.5838 282.724 69.7543 283.352 69.7543 284.045C69.7543 284.733 69.5838 285.361 69.2429 285.929C68.9077 286.497 68.456 286.952 67.8878 287.293C67.3253 287.628 66.6974 287.795 66.0043 287.795ZM86.1903 291L93.6136 276.307V276.188H84.9972V273.545H96.8864V276.247L89.4716 291H86.1903ZM105.462 273.307C106.298 273.312 107.11 273.46 107.9 273.75C108.695 274.034 109.411 274.5 110.048 275.148C110.684 275.79 111.19 276.651 111.565 277.73C111.94 278.81 112.127 280.145 112.127 281.736C112.133 283.236 111.974 284.577 111.65 285.759C111.332 286.935 110.874 287.929 110.278 288.741C109.681 289.554 108.962 290.173 108.121 290.599C107.281 291.026 106.335 291.239 105.283 291.239C104.181 291.239 103.204 291.023 102.352 290.591C101.505 290.159 100.82 289.568 100.298 288.818C99.7749 288.068 99.4538 287.21 99.3345 286.244H102.445C102.604 286.937 102.928 287.489 103.417 287.898C103.911 288.301 104.533 288.503 105.283 288.503C106.494 288.503 107.425 287.977 108.079 286.926C108.732 285.875 109.059 284.415 109.059 282.545H108.94C108.661 283.045 108.3 283.477 107.857 283.841C107.414 284.199 106.911 284.474 106.349 284.668C105.792 284.861 105.201 284.957 104.576 284.957C103.553 284.957 102.633 284.713 101.815 284.224C101.002 283.736 100.357 283.065 99.88 282.213C99.4084 281.361 99.1697 280.386 99.1641 279.29C99.1641 278.153 99.4254 277.134 99.9482 276.23C100.477 275.321 101.212 274.605 102.156 274.082C103.099 273.554 104.201 273.295 105.462 273.307ZM105.471 275.864C104.857 275.864 104.303 276.014 103.809 276.315C103.32 276.611 102.934 277.014 102.65 277.526C102.371 278.031 102.232 278.597 102.232 279.222C102.238 279.841 102.377 280.403 102.65 280.909C102.928 281.415 103.306 281.815 103.783 282.111C104.266 282.406 104.817 282.554 105.437 282.554C105.897 282.554 106.326 282.466 106.724 282.29C107.121 282.114 107.468 281.869 107.763 281.557C108.065 281.239 108.298 280.878 108.462 280.474C108.633 280.071 108.715 279.645 108.71 279.196C108.71 278.599 108.567 278.048 108.283 277.543C108.005 277.037 107.621 276.631 107.133 276.324C106.65 276.017 106.096 275.864 105.471 275.864ZM123.571 291V293.463H112.295V291H123.571ZM127.502 291H124.127L130.272 273.545H134.175L140.329 291H136.954L132.292 277.125H132.156L127.502 291ZM127.613 284.156H136.817V286.696H127.613V284.156ZM150.835 285.494V277.909H153.92V291H150.929V288.673H150.793C150.497 289.406 150.011 290.006 149.335 290.472C148.665 290.937 147.838 291.17 146.855 291.17C145.997 291.17 145.239 290.98 144.58 290.599C143.926 290.213 143.415 289.653 143.045 288.92C142.676 288.182 142.491 287.29 142.491 286.244V277.909H145.577V285.767C145.577 286.597 145.804 287.256 146.259 287.744C146.713 288.233 147.31 288.477 148.048 288.477C148.503 288.477 148.943 288.366 149.369 288.145C149.795 287.923 150.145 287.594 150.418 287.156C150.696 286.713 150.835 286.159 150.835 285.494ZM157.093 291V277.909H160.085V280.091H160.221C160.46 279.335 160.869 278.753 161.448 278.344C162.033 277.929 162.701 277.722 163.451 277.722C163.621 277.722 163.812 277.73 164.022 277.747C164.238 277.759 164.417 277.778 164.559 277.807V280.645C164.428 280.599 164.221 280.56 163.937 280.526C163.658 280.486 163.388 280.466 163.127 280.466C162.565 280.466 162.059 280.588 161.61 280.832C161.167 281.071 160.817 281.403 160.562 281.83C160.306 282.256 160.178 282.747 160.178 283.304V291H157.093ZM174.952 285.494V277.909H178.038V291H175.046V288.673H174.91C174.614 289.406 174.129 290.006 173.452 290.472C172.782 290.937 171.955 291.17 170.972 291.17C170.114 291.17 169.356 290.98 168.697 290.599C168.043 290.213 167.532 289.653 167.163 288.92C166.793 288.182 166.609 287.29 166.609 286.244V277.909H169.694V285.767C169.694 286.597 169.921 287.256 170.376 287.744C170.83 288.233 171.427 288.477 172.165 288.477C172.62 288.477 173.06 288.366 173.487 288.145C173.913 287.923 174.262 287.594 174.535 287.156C174.813 286.713 174.952 286.159 174.952 285.494ZM181.21 291V277.909H184.159V280.134H184.312C184.585 279.384 185.037 278.798 185.668 278.378C186.298 277.952 187.051 277.739 187.926 277.739C188.812 277.739 189.56 277.955 190.168 278.386C190.781 278.812 191.213 279.395 191.463 280.134H191.599C191.889 279.406 192.378 278.827 193.065 278.395C193.759 277.957 194.58 277.739 195.528 277.739C196.733 277.739 197.716 278.119 198.477 278.881C199.239 279.642 199.619 280.753 199.619 282.213V291H196.526V282.69C196.526 281.878 196.31 281.284 195.878 280.909C195.446 280.528 194.918 280.338 194.293 280.338C193.548 280.338 192.966 280.571 192.545 281.037C192.131 281.497 191.923 282.097 191.923 282.835V291H188.898V282.562C188.898 281.886 188.693 281.347 188.284 280.943C187.881 280.54 187.352 280.338 186.699 280.338C186.256 280.338 185.852 280.452 185.489 280.679C185.125 280.901 184.835 281.216 184.619 281.625C184.403 282.028 184.295 282.5 184.295 283.04V291H181.21ZM210.684 282.46V285H202.826V282.46H210.684ZM220.649 282.273C220.649 280.142 220.93 278.185 221.493 276.401C222.061 274.611 222.905 272.957 224.024 271.44H226.93C226.499 272.003 226.095 272.693 225.72 273.511C225.345 274.324 225.018 275.216 224.74 276.188C224.467 277.153 224.251 278.156 224.092 279.196C223.939 280.236 223.862 281.261 223.862 282.273C223.862 283.619 223.996 284.983 224.263 286.364C224.536 287.744 224.902 289.026 225.362 290.207C225.828 291.384 226.351 292.347 226.93 293.097H224.024C222.905 291.58 222.061 289.929 221.493 288.145C220.93 286.355 220.649 284.398 220.649 282.273ZM241.157 279.119C241.015 278.659 240.819 278.247 240.569 277.884C240.325 277.514 240.029 277.199 239.683 276.938C239.342 276.676 238.95 276.48 238.506 276.349C238.063 276.213 237.58 276.145 237.058 276.145C236.12 276.145 235.285 276.381 234.552 276.852C233.819 277.324 233.242 278.017 232.822 278.932C232.407 279.841 232.2 280.949 232.2 282.256C232.2 283.574 232.407 284.69 232.822 285.605C233.237 286.52 233.813 287.216 234.552 287.693C235.29 288.165 236.148 288.401 237.126 288.401C238.012 288.401 238.779 288.23 239.427 287.889C240.08 287.548 240.583 287.065 240.935 286.44C241.288 285.81 241.464 285.071 241.464 284.224L242.18 284.335H237.441V281.864H244.523V283.96C244.523 285.455 244.205 286.747 243.569 287.838C242.933 288.929 242.058 289.77 240.944 290.361C239.83 290.946 238.552 291.239 237.109 291.239C235.501 291.239 234.089 290.878 232.873 290.156C231.663 289.429 230.717 288.398 230.035 287.062C229.359 285.722 229.021 284.131 229.021 282.29C229.021 280.881 229.219 279.622 229.617 278.514C230.021 277.406 230.583 276.466 231.305 275.693C232.026 274.915 232.873 274.324 233.844 273.92C234.816 273.511 235.873 273.307 237.015 273.307C237.981 273.307 238.881 273.449 239.717 273.733C240.552 274.011 241.293 274.409 241.941 274.926C242.594 275.443 243.131 276.057 243.552 276.767C243.972 277.477 244.248 278.261 244.379 279.119H241.157ZM253.155 291.256C251.876 291.256 250.768 290.974 249.831 290.412C248.893 289.849 248.166 289.062 247.649 288.051C247.138 287.04 246.882 285.858 246.882 284.506C246.882 283.153 247.138 281.969 247.649 280.952C248.166 279.935 248.893 279.145 249.831 278.582C250.768 278.02 251.876 277.739 253.155 277.739C254.433 277.739 255.541 278.02 256.479 278.582C257.416 279.145 258.141 279.935 258.652 280.952C259.169 281.969 259.428 283.153 259.428 284.506C259.428 285.858 259.169 287.04 258.652 288.051C258.141 289.062 257.416 289.849 256.479 290.412C255.541 290.974 254.433 291.256 253.155 291.256ZM253.172 288.784C253.865 288.784 254.445 288.594 254.911 288.213C255.376 287.827 255.723 287.31 255.95 286.662C256.183 286.014 256.3 285.293 256.3 284.497C256.3 283.696 256.183 282.972 255.95 282.324C255.723 281.67 255.376 281.151 254.911 280.764C254.445 280.378 253.865 280.185 253.172 280.185C252.462 280.185 251.871 280.378 251.399 280.764C250.933 281.151 250.584 281.67 250.351 282.324C250.124 282.972 250.01 283.696 250.01 284.497C250.01 285.293 250.124 286.014 250.351 286.662C250.584 287.31 250.933 287.827 251.399 288.213C251.871 288.594 252.462 288.784 253.172 288.784ZM265.131 273.545V291H262.046V273.545H265.131ZM273.162 291.23C272.134 291.23 271.213 290.966 270.401 290.438C269.588 289.909 268.946 289.142 268.474 288.136C268.003 287.131 267.767 285.909 267.767 284.472C267.767 283.017 268.006 281.79 268.483 280.79C268.966 279.784 269.616 279.026 270.435 278.514C271.253 277.997 272.165 277.739 273.17 277.739C273.938 277.739 274.568 277.869 275.062 278.131C275.557 278.386 275.949 278.696 276.239 279.06C276.528 279.418 276.753 279.756 276.912 280.074H277.04V273.545H280.134V291H277.099V288.938H276.912C276.753 289.256 276.523 289.594 276.222 289.952C275.92 290.304 275.523 290.605 275.028 290.855C274.534 291.105 273.912 291.23 273.162 291.23ZM274.023 288.699C274.676 288.699 275.233 288.523 275.693 288.17C276.153 287.812 276.503 287.315 276.741 286.679C276.98 286.043 277.099 285.301 277.099 284.455C277.099 283.608 276.98 282.872 276.741 282.247C276.509 281.622 276.162 281.136 275.702 280.79C275.247 280.443 274.688 280.27 274.023 280.27C273.335 280.27 272.761 280.449 272.301 280.807C271.841 281.165 271.494 281.659 271.261 282.29C271.028 282.92 270.912 283.642 270.912 284.455C270.912 285.273 271.028 286.003 271.261 286.645C271.5 287.281 271.849 287.784 272.31 288.153C272.776 288.517 273.347 288.699 274.023 288.699ZM288.927 283.884C288.927 286.009 288.643 287.966 288.075 289.756C287.512 291.54 286.671 293.19 285.552 294.707H282.646C283.083 294.145 283.487 293.457 283.856 292.645C284.231 291.832 284.555 290.94 284.827 289.969C285.106 288.997 285.322 287.991 285.475 286.952C285.634 285.912 285.714 284.889 285.714 283.884C285.714 282.537 285.577 281.173 285.305 279.793C285.038 278.412 284.671 277.131 284.205 275.949C283.745 274.767 283.225 273.801 282.646 273.051H285.552C286.671 274.568 287.512 276.222 288.075 278.011C288.643 279.795 288.927 281.753 288.927 283.884ZM299.638 280.858V278.233H310.982V280.858H299.638ZM299.638 286.312V283.688H310.982V286.312H299.638ZM92.6506 302.545V320H89.4886V305.622H89.3864L85.304 308.23V305.332L89.642 302.545H92.6506ZM103.142 302.307C103.977 302.312 104.79 302.46 105.58 302.75C106.375 303.034 107.091 303.5 107.727 304.148C108.364 304.79 108.869 305.651 109.244 306.73C109.619 307.81 109.807 309.145 109.807 310.736C109.813 312.236 109.653 313.577 109.33 314.759C109.011 315.935 108.554 316.929 107.957 317.741C107.361 318.554 106.642 319.173 105.801 319.599C104.96 320.026 104.014 320.239 102.963 320.239C101.861 320.239 100.884 320.023 100.031 319.591C99.1847 319.159 98.5 318.568 97.9773 317.818C97.4545 317.068 97.1335 316.21 97.0142 315.244H100.125C100.284 315.937 100.608 316.489 101.097 316.898C101.591 317.301 102.213 317.503 102.963 317.503C104.173 317.503 105.105 316.977 105.759 315.926C106.412 314.875 106.739 313.415 106.739 311.545H106.619C106.341 312.045 105.98 312.477 105.537 312.841C105.094 313.199 104.591 313.474 104.028 313.668C103.472 313.861 102.881 313.957 102.256 313.957C101.233 313.957 100.313 313.713 99.4943 313.224C98.6818 312.736 98.0369 312.065 97.5597 311.213C97.0881 310.361 96.8494 309.386 96.8438 308.29C96.8438 307.153 97.1051 306.134 97.6278 305.23C98.1563 304.321 98.892 303.605 99.8352 303.082C100.778 302.554 101.881 302.295 103.142 302.307ZM103.151 304.864C102.537 304.864 101.983 305.014 101.489 305.315C101 305.611 100.614 306.014 100.33 306.526C100.051 307.031 99.9119 307.597 99.9119 308.222C99.9176 308.841 100.057 309.403 100.33 309.909C100.608 310.415 100.986 310.815 101.463 311.111C101.946 311.406 102.497 311.554 103.116 311.554C103.577 311.554 104.006 311.466 104.403 311.29C104.801 311.114 105.148 310.869 105.443 310.557C105.744 310.239 105.977 309.878 106.142 309.474C106.313 309.071 106.395 308.645 106.389 308.196C106.389 307.599 106.247 307.048 105.963 306.543C105.685 306.037 105.301 305.631 104.812 305.324C104.33 305.017 103.776 304.864 103.151 304.864ZM119.037 320.239C118.202 320.233 117.386 320.088 116.591 319.804C115.795 319.514 115.08 319.045 114.443 318.398C113.807 317.744 113.301 316.878 112.926 315.798C112.551 314.713 112.366 313.369 112.372 311.767C112.372 310.273 112.531 308.94 112.849 307.77C113.168 306.599 113.625 305.611 114.222 304.804C114.818 303.991 115.537 303.372 116.378 302.946C117.224 302.52 118.17 302.307 119.216 302.307C120.313 302.307 121.284 302.523 122.131 302.955C122.983 303.386 123.67 303.977 124.193 304.727C124.716 305.472 125.04 306.312 125.165 307.25H122.054C121.895 306.58 121.568 306.045 121.074 305.648C120.585 305.244 119.966 305.043 119.216 305.043C118.006 305.043 117.074 305.568 116.42 306.619C115.773 307.67 115.446 309.114 115.44 310.949H115.56C115.838 310.449 116.199 310.02 116.642 309.662C117.085 309.304 117.585 309.028 118.142 308.835C118.705 308.636 119.298 308.537 119.923 308.537C120.946 308.537 121.864 308.781 122.676 309.27C123.494 309.759 124.142 310.432 124.619 311.29C125.097 312.142 125.332 313.119 125.327 314.222C125.332 315.369 125.071 316.401 124.543 317.315C124.014 318.224 123.278 318.94 122.335 319.463C121.392 319.986 120.293 320.244 119.037 320.239ZM119.02 317.682C119.639 317.682 120.193 317.531 120.682 317.23C121.17 316.929 121.557 316.523 121.841 316.011C122.125 315.5 122.264 314.926 122.259 314.29C122.264 313.665 122.128 313.099 121.849 312.594C121.577 312.088 121.199 311.687 120.716 311.392C120.233 311.097 119.682 310.949 119.062 310.949C118.602 310.949 118.173 311.037 117.776 311.213C117.378 311.389 117.031 311.634 116.736 311.946C116.44 312.253 116.207 312.611 116.037 313.02C115.872 313.423 115.787 313.855 115.781 314.315C115.787 314.923 115.929 315.483 116.207 315.994C116.486 316.506 116.869 316.915 117.358 317.222C117.847 317.528 118.401 317.682 119.02 317.682ZM129.392 320.188C128.875 320.188 128.432 320.006 128.062 319.642C127.693 319.278 127.511 318.835 127.517 318.312C127.511 317.801 127.693 317.364 128.062 317C128.432 316.636 128.875 316.455 129.392 316.455C129.892 316.455 130.327 316.636 130.696 317C131.071 317.364 131.261 317.801 131.267 318.312C131.261 318.659 131.17 318.974 130.994 319.259C130.824 319.543 130.597 319.77 130.312 319.94C130.034 320.105 129.727 320.188 129.392 320.188ZM140.22 302.307C141.055 302.312 141.868 302.46 142.658 302.75C143.453 303.034 144.169 303.5 144.805 304.148C145.442 304.79 145.947 305.651 146.322 306.73C146.697 307.81 146.885 309.145 146.885 310.736C146.891 312.236 146.732 313.577 146.408 314.759C146.089 315.935 145.632 316.929 145.036 317.741C144.439 318.554 143.72 319.173 142.879 319.599C142.038 320.026 141.092 320.239 140.041 320.239C138.939 320.239 137.962 320.023 137.109 319.591C136.263 319.159 135.578 318.568 135.055 317.818C134.533 317.068 134.212 316.21 134.092 315.244H137.203C137.362 315.937 137.686 316.489 138.175 316.898C138.669 317.301 139.291 317.503 140.041 317.503C141.251 317.503 142.183 316.977 142.837 315.926C143.49 314.875 143.817 313.415 143.817 311.545H143.697C143.419 312.045 143.058 312.477 142.615 312.841C142.172 313.199 141.669 313.474 141.107 313.668C140.55 313.861 139.959 313.957 139.334 313.957C138.311 313.957 137.391 313.713 136.572 313.224C135.76 312.736 135.115 312.065 134.638 311.213C134.166 310.361 133.928 309.386 133.922 308.29C133.922 307.153 134.183 306.134 134.706 305.23C135.234 304.321 135.97 303.605 136.913 303.082C137.857 302.554 138.959 302.295 140.22 302.307ZM140.229 304.864C139.615 304.864 139.061 305.014 138.567 305.315C138.078 305.611 137.692 306.014 137.408 306.526C137.129 307.031 136.99 307.597 136.99 308.222C136.996 308.841 137.135 309.403 137.408 309.909C137.686 310.415 138.064 310.815 138.541 311.111C139.024 311.406 139.575 311.554 140.195 311.554C140.655 311.554 141.084 311.466 141.482 311.29C141.879 311.114 142.226 310.869 142.521 310.557C142.822 310.239 143.055 309.878 143.22 309.474C143.391 309.071 143.473 308.645 143.467 308.196C143.467 307.599 143.325 307.048 143.041 306.543C142.763 306.037 142.379 305.631 141.891 305.324C141.408 305.017 140.854 304.864 140.229 304.864ZM156.115 320.239C155.28 320.233 154.464 320.088 153.669 319.804C152.874 319.514 152.158 319.045 151.521 318.398C150.885 317.744 150.379 316.878 150.004 315.798C149.629 314.713 149.445 313.369 149.45 311.767C149.45 310.273 149.609 308.94 149.928 307.77C150.246 306.599 150.703 305.611 151.3 304.804C151.896 303.991 152.615 303.372 153.456 302.946C154.303 302.52 155.249 302.307 156.294 302.307C157.391 302.307 158.362 302.523 159.209 302.955C160.061 303.386 160.749 303.977 161.271 304.727C161.794 305.472 162.118 306.312 162.243 307.25H159.132C158.973 306.58 158.646 306.045 158.152 305.648C157.663 305.244 157.044 305.043 156.294 305.043C155.084 305.043 154.152 305.568 153.499 306.619C152.851 307.67 152.524 309.114 152.518 310.949H152.638C152.916 310.449 153.277 310.02 153.72 309.662C154.163 309.304 154.663 309.028 155.22 308.835C155.783 308.636 156.376 308.537 157.001 308.537C158.024 308.537 158.942 308.781 159.754 309.27C160.572 309.759 161.22 310.432 161.697 311.29C162.175 312.142 162.411 313.119 162.405 314.222C162.411 315.369 162.149 316.401 161.621 317.315C161.092 318.224 160.357 318.94 159.413 319.463C158.47 319.986 157.371 320.244 156.115 320.239ZM156.098 317.682C156.717 317.682 157.271 317.531 157.76 317.23C158.249 316.929 158.635 316.523 158.919 316.011C159.203 315.5 159.342 314.926 159.337 314.29C159.342 313.665 159.206 313.099 158.928 312.594C158.655 312.088 158.277 311.687 157.794 311.392C157.311 311.097 156.76 310.949 156.141 310.949C155.68 310.949 155.251 311.037 154.854 311.213C154.456 311.389 154.109 311.634 153.814 311.946C153.518 312.253 153.286 312.611 153.115 313.02C152.95 313.423 152.865 313.855 152.859 314.315C152.865 314.923 153.007 315.483 153.286 315.994C153.564 316.506 153.947 316.915 154.436 317.222C154.925 317.528 155.479 317.682 156.098 317.682ZM165.925 320L173.348 305.307V305.188H164.732V302.545H176.621V305.247L169.206 320H165.925Z" fill="black"/>
<rect x="55" y="128" width="24" height="24" rx="12" fill="#FBA200"/>
<path d="M63.642 145.5H61.392L65.4886 133.864H68.0909L72.1932 145.5H69.9432L66.8352 136.25H66.7443L63.642 145.5ZM63.7159 140.938H69.8523V142.631H63.7159V140.938Z" fill="white"/>
<rect x="55" y="273" width="24" height="24" rx="12" fill="#FBA200"/>
<path d="M66.0909 290.5H62.1477V278.864H66.1705C67.3258 278.864 68.3182 279.097 69.1477 279.562C69.9811 280.025 70.6212 280.689 71.0682 281.557C71.5152 282.424 71.7386 283.462 71.7386 284.67C71.7386 285.883 71.5133 286.924 71.0625 287.795C70.6155 288.667 69.9697 289.335 69.125 289.801C68.2841 290.267 67.2727 290.5 66.0909 290.5ZM64.2557 288.676H65.9886C66.7992 288.676 67.4754 288.528 68.017 288.233C68.5587 287.934 68.9659 287.489 69.2386 286.898C69.5114 286.303 69.6477 285.561 69.6477 284.67C69.6477 283.78 69.5114 283.042 69.2386 282.455C68.9659 281.864 68.5625 281.422 68.0284 281.131C67.4981 280.835 66.839 280.688 66.0511 280.688H64.2557V288.676Z" fill="white"/>
<rect x="55" y="244" width="24" height="24" rx="12" fill="#FBA200"/>
<path d="M72.108 253.79H69.983C69.9223 253.441 69.8106 253.133 69.6477 252.864C69.4848 252.591 69.2822 252.36 69.0398 252.17C68.7973 251.981 68.5208 251.839 68.2102 251.744C67.9034 251.646 67.572 251.597 67.2159 251.597C66.5833 251.597 66.0227 251.756 65.5341 252.074C65.0455 252.388 64.6629 252.85 64.3864 253.46C64.1098 254.066 63.9716 254.807 63.9716 255.682C63.9716 256.572 64.1098 257.322 64.3864 257.932C64.6667 258.538 65.0492 258.996 65.5341 259.307C66.0227 259.614 66.5814 259.767 67.2102 259.767C67.5587 259.767 67.8845 259.722 68.1875 259.631C68.4943 259.536 68.7689 259.398 69.0114 259.216C69.2576 259.034 69.464 258.811 69.6307 258.545C69.8011 258.28 69.9186 257.977 69.983 257.636L72.108 257.648C72.0284 258.201 71.8561 258.72 71.5909 259.205C71.3295 259.689 70.9867 260.117 70.5625 260.489C70.1383 260.856 69.642 261.144 69.0739 261.352C68.5057 261.557 67.875 261.659 67.1818 261.659C66.1591 261.659 65.2462 261.422 64.4432 260.949C63.6402 260.475 63.0076 259.792 62.5455 258.898C62.0833 258.004 61.8523 256.932 61.8523 255.682C61.8523 254.428 62.0852 253.356 62.5511 252.466C63.017 251.572 63.6515 250.888 64.4545 250.415C65.2576 249.941 66.1667 249.705 67.1818 249.705C67.8295 249.705 68.4318 249.795 68.9886 249.977C69.5455 250.159 70.0417 250.426 70.4773 250.778C70.9129 251.127 71.2708 251.555 71.5511 252.062C71.8352 252.566 72.0208 253.142 72.108 253.79Z" fill="white"/>
<rect x="55" y="186" width="24" height="24" rx="12" fill="#FBA200"/>
<path d="M62.6477 203.5V191.864H67.1023C67.9432 191.864 68.642 191.996 69.1989 192.261C69.7595 192.523 70.178 192.881 70.4545 193.335C70.7348 193.79 70.875 194.305 70.875 194.881C70.875 195.354 70.7841 195.759 70.6023 196.097C70.4205 196.43 70.1761 196.701 69.8693 196.909C69.5625 197.117 69.2197 197.267 68.8409 197.358V197.472C69.2538 197.494 69.6496 197.621 70.0284 197.852C70.411 198.08 70.7235 198.402 70.9659 198.818C71.2083 199.235 71.3295 199.739 71.3295 200.33C71.3295 200.932 71.1837 201.473 70.892 201.955C70.6004 202.432 70.161 202.809 69.5739 203.085C68.9867 203.362 68.2481 203.5 67.358 203.5H62.6477ZM64.7557 201.739H67.0227C67.7879 201.739 68.339 201.593 68.6761 201.301C69.017 201.006 69.1875 200.627 69.1875 200.165C69.1875 199.82 69.1023 199.509 68.9318 199.233C68.7614 198.953 68.5189 198.733 68.2045 198.574C67.8902 198.411 67.5152 198.33 67.0795 198.33H64.7557V201.739ZM64.7557 196.812H66.8409C67.2045 196.812 67.5322 196.746 67.8239 196.614C68.1155 196.477 68.3447 196.286 68.5114 196.04C68.6818 195.79 68.767 195.494 68.767 195.153C68.767 194.703 68.608 194.331 68.2898 194.04C67.9754 193.748 67.5076 193.602 66.8864 193.602H64.7557V196.812Z" fill="white"/>
<g style="mix-blend-mode:multiply">
<rect x="280.018" width="7.98933" height="4.66354" fill="#C0C0C0"/>
</g>
<rect x="130.826" y="6.21875" width="66.9106" height="5.4408" rx="2.7204" fill="#171718"/>
<g style="mix-blend-mode:multiply">
<rect x="411.047" y="66.0664" width="5.992" height="6.21805" fill="#C0C0C0"/>
</g>
<g style="mix-blend-mode:multiply">
<rect x="1.99805" y="66.0664" width="5.992" height="6.21805" fill="#C0C0C0"/>
</g>
<path fill-rule="evenodd" clip-rule="evenodd" d="M131.83 15.5449H127.83V15.5449C129.95 15.5451 131.669 17.264 131.669 19.3844C131.669 19.4382 131.668 19.4917 131.666 19.5449H131.83V15.5449Z" fill="black"/>
<path d="M131.83 15.5449H285.83V27.7077C285.83 38.6635 276.949 47.5449 265.993 47.5449H151.667C140.711 47.5449 131.83 38.6635 131.83 27.7077V15.5449Z" fill="black"/>
<path fill-rule="evenodd" clip-rule="evenodd" d="M285.83 15.5449H289.83V15.5449C289.83 15.5449 289.83 15.5449 289.83 15.5449C287.627 15.5449 285.839 17.3342 285.83 19.5449V15.5449Z" fill="black"/>
<ellipse cx="151.798" cy="24.095" rx="7.98933" ry="6.21805" fill="#171718"/>
</g>
<defs>
<linearGradient id="paint0_linear_529_3029" x1="209.221" y1="0" x2="209.221" y2="663" gradientUnits="userSpaceOnUse">
<stop stop-color="#527190"/>
<stop offset="1" stop-color="#2B4A69"/>
</linearGradient>
<clipPath id="clip0_529_3029">
<rect width="419" height="378" fill="white"/>
</clipPath>
</defs>
</svg>
