<svg width="188" height="158" viewBox="0 0 188 158" fill="none" xmlns="http://www.w3.org/2000/svg">
<path d="M178.6 31.6H137.867V7.9C137.867 6.44899 139.273 5.26677 141 5.26677H153.533C155.26 5.26677 156.666 6.44899 156.666 7.9V10.5332H153.533C151.804 10.5332 150.4 11.713 150.4 13.1665C150.4 14.6199 151.804 15.7997 153.533 15.7997H156.666V21.0665H153.533C151.804 21.0665 150.4 22.2462 150.4 23.6997C150.4 25.1532 151.804 26.3329 153.533 26.3329H159.8C161.529 26.3329 162.933 25.1532 162.933 23.6997V7.9C162.933 3.54451 158.716 0 153.533 0H141C135.818 0 131.6 3.54451 131.6 7.9V33.1433L127.17 36.8668H60.8305L56.4 33.1433V7.9C56.4 3.54451 52.1825 0 47 0H34.4668C29.2843 0 25.0668 3.54451 25.0668 7.9V23.7C25.0668 25.1535 26.4705 26.3332 28.2 26.3332C29.9295 26.3332 31.3332 25.1535 31.3332 23.7V7.9C31.3332 6.44899 32.7399 5.26677 34.4664 5.26677H47C48.7265 5.26677 50.1332 6.44899 50.1332 7.9V10.5332H47C45.2705 10.5332 43.8668 11.713 43.8668 13.1665C43.8668 14.6199 45.2705 15.7997 47 15.7997H50.1332V21.0665H47C45.2705 21.0665 43.8668 22.2462 43.8668 23.6997C43.8668 25.1532 45.2705 26.3329 47 26.3329H50.1332V31.6H9.4C4.21752 31.6 0 35.1445 0 39.5V50.0332C0 53.4617 2.62576 56.356 6.26679 57.446V144.833C6.26679 152.093 13.2948 158 21.9336 158H166.067C174.705 158 181.734 152.094 181.734 144.833V65.8332C181.734 64.3798 180.33 63.2 178.6 63.2C176.871 63.2 175.467 64.3798 175.467 65.8332V144.833C175.467 149.189 171.25 152.733 166.067 152.733H21.9332C16.7507 152.733 12.5332 149.189 12.5332 144.833V55.3C12.5332 53.8465 11.1295 52.6668 9.4 52.6668C7.67348 52.6668 6.26679 51.4845 6.26679 50.0335V39.5C6.26679 38.049 7.67348 36.8668 9.4 36.8668H51.9695L57.318 41.3617C57.904 41.8543 58.703 42.1332 59.5332 42.1332H128.466C129.297 42.1332 130.093 41.854 130.682 41.3617L136.03 36.8668H178.6C180.327 36.8668 181.733 38.049 181.733 39.5V50.0332C181.733 51.4842 180.327 52.6665 178.6 52.6665H21.9332C20.2038 52.6665 18.8 53.8462 18.8 55.2997C18.8 56.7532 20.2038 57.9329 21.9332 57.9329H178.6C183.782 57.9329 188 54.3884 188 50.0329V39.5C188 35.1445 183.782 31.6 178.6 31.6Z" fill="black"/>
<path d="M134.733 105.333C133.004 105.333 131.6 106.513 131.6 107.966C131.6 109.42 133.004 110.599 134.733 110.599H159.8C161.53 110.599 162.933 109.42 162.933 107.966C162.933 106.513 161.53 105.333 159.8 105.333H134.733Z" fill="black"/>
<path d="M83.1803 136.649C83.6316 136.841 84.117 136.933 84.5966 136.933C85.5054 136.933 86.3951 136.602 87.0061 135.985L118.339 104.385C119.12 103.601 119.286 102.508 118.772 101.584C118.255 100.659 117.149 100.067 115.933 100.067H100.956L106.471 76.8832C106.762 75.6667 106.001 74.4447 104.647 73.9522C103.294 73.4572 101.708 73.8284 100.85 74.8369L69.5166 111.704C68.8365 112.507 68.7425 113.56 69.2816 114.44C69.8173 115.314 70.892 115.867 72.067 115.867H86.8533L81.561 133.66C81.2063 134.853 81.8772 136.093 83.1803 136.649ZM78.1546 110.6L97.4621 87.8821L94.0594 102.184C93.8747 102.958 94.1159 103.759 94.7111 104.37C95.3063 104.981 96.1931 105.333 97.1331 105.333H109.243L90.9603 123.769L93.9055 113.873C94.1405 113.086 93.9275 112.251 93.3353 111.614C92.743 110.974 91.8313 110.6 90.8663 110.6H78.1546V110.6Z" fill="black"/>
<path d="M40.7333 121.134C42.4628 121.134 43.8665 119.954 43.8665 118.5V110.6H53.2665C54.996 110.6 56.3997 109.421 56.3997 107.967C56.3997 106.514 54.996 105.334 53.2665 105.334H43.8665V97.434C43.8665 95.9805 42.4628 94.8008 40.7333 94.8008C39.0039 94.8008 37.6001 95.9805 37.6001 97.434V105.334H28.2001C26.4707 105.334 25.0669 106.514 25.0669 107.967C25.0669 109.421 26.4707 110.6 28.2001 110.6H37.6001V118.5C37.6001 119.954 39.0039 121.134 40.7333 121.134Z" fill="black"/>
</svg>
