<svg width="20" height="20" viewBox="0 0 20 20" fill="none" xmlns="http://www.w3.org/2000/svg">
<path d="M19 4H14.6667V1C14.6667 0.816328 14.8163 0.66668 15 0.66668H16.3333C16.517 0.66668 16.6666 0.816328 16.6666 1V1.33332H16.3333C16.1493 1.33332 16 1.48266 16 1.66664C16 1.85063 16.1493 1.99996 16.3333 1.99996H16.6666V2.66664H16.3333C16.1493 2.66664 16 2.81598 16 2.99996C16 3.18395 16.1493 3.33328 16.3333 3.33328H17C17.184 3.33328 17.3333 3.18395 17.3333 2.99996V1C17.3333 0.448672 16.8846 0 16.3333 0H15C14.4487 0 14 0.448672 14 1V4.19535L13.5287 4.66668H6.47133L6 4.19535V1C6 0.448672 5.55133 0 5 0H3.66668C3.11535 0 2.66668 0.448672 2.66668 1V3C2.66668 3.18398 2.81602 3.33332 3 3.33332C3.18398 3.33332 3.33332 3.18398 3.33332 3V1C3.33332 0.816328 3.48297 0.66668 3.66664 0.66668H5C5.18367 0.66668 5.33332 0.816328 5.33332 1V1.33332H5C4.81602 1.33332 4.66668 1.48266 4.66668 1.66664C4.66668 1.85063 4.81602 1.99996 5 1.99996H5.33332V2.66664H5C4.81602 2.66664 4.66668 2.81598 4.66668 2.99996C4.66668 3.18395 4.81602 3.33328 5 3.33328H5.33332V4H1C0.448672 4 0 4.44867 0 5V6.33332C0 6.7673 0.279336 7.13367 0.66668 7.27164V18.3333C0.66668 19.2523 1.41434 20 2.33336 20H17.6667C18.5857 20 19.3334 19.2523 19.3334 18.3333V8.33332C19.3334 8.14934 19.184 8 19 8C18.8161 8 18.6667 8.14934 18.6667 8.33332V18.3333C18.6667 18.8846 18.218 19.3333 17.6667 19.3333H2.33332C1.78199 19.3333 1.33332 18.8846 1.33332 18.3333V7C1.33332 6.81602 1.18398 6.66668 1 6.66668C0.816328 6.66668 0.66668 6.51703 0.66668 6.33336V5C0.66668 4.81633 0.816328 4.66668 1 4.66668H5.52867L6.09766 5.23566C6.16 5.29801 6.245 5.33332 6.33332 5.33332H13.6666C13.755 5.33332 13.8396 5.29797 13.9023 5.23566L14.4713 4.66668H19C19.1837 4.66668 19.3333 4.81633 19.3333 5V6.33332C19.3333 6.51699 19.1837 6.66664 19 6.66664H2.33332C2.14934 6.66664 2 6.81598 2 6.99996C2 7.18395 2.14934 7.33328 2.33332 7.33328H19C19.5513 7.33328 20 6.88461 20 6.33328V5C20 4.44867 19.5513 4 19 4Z" fill="white"/>
<path d="M14.3333 13.333C14.1493 13.333 14 13.4823 14 13.6663C14 13.8503 14.1493 13.9996 14.3333 13.9996H17C17.184 13.9996 17.3333 13.8503 17.3333 13.6663C17.3333 13.4823 17.184 13.333 17 13.333H14.3333Z" fill="white"/>
<path d="M8.84911 17.2969C8.89711 17.3212 8.94876 17.3329 8.99977 17.3329C9.09645 17.3329 9.1911 17.2909 9.2561 17.2129L12.5894 13.2129C12.6724 13.1135 12.6901 12.9752 12.6354 12.8582C12.5804 12.7412 12.4628 12.6662 12.3334 12.6662H10.7401L11.3268 9.73159C11.3578 9.57761 11.2768 9.42292 11.1328 9.36058C10.9888 9.29792 10.8202 9.34491 10.7288 9.47257L7.39551 14.1392C7.32317 14.2409 7.31317 14.3742 7.37051 14.4856C7.42751 14.5962 7.54184 14.6662 7.66684 14.6662H9.23985L8.67684 16.9186C8.63911 17.0695 8.71047 17.2265 8.84911 17.2969ZM8.31446 13.9995L10.3684 11.1239L10.0064 12.9342C9.9868 13.0322 10.0125 13.1335 10.0758 13.2109C10.1391 13.2882 10.2334 13.3329 10.3334 13.3329H11.6218L9.67676 15.6666L9.99008 14.4139C10.0151 14.3142 9.99243 14.2085 9.92942 14.1279C9.86641 14.0469 9.76942 13.9996 9.66676 13.9996H8.31446V13.9995Z" fill="white"/>
<path d="M4.33314 15.3333C4.51713 15.3333 4.66646 15.1839 4.66646 15V14H5.66646C5.85045 14 5.99978 13.8506 5.99978 13.6666C5.99978 13.4827 5.85045 13.3333 5.66646 13.3333H4.66646V12.3333C4.66646 12.1493 4.51713 12 4.33314 12C4.14916 12 3.99982 12.1493 3.99982 12.3333V13.3333H2.99982C2.81584 13.3333 2.6665 13.4827 2.6665 13.6666C2.6665 13.8506 2.81584 14 2.99982 14H3.99982V15C3.99982 15.1839 4.14916 15.3333 4.33314 15.3333Z" fill="white"/>
</svg>
