<svg width="858" height="577" viewBox="0 0 858 577" fill="none" xmlns="http://www.w3.org/2000/svg">
<path d="M145 161C134.223 162.103 115.69 160.956 105.669 163.292C97.43 165.212 88.0549 168.5 78.8518 168.5C69.1098 168.5 34.0445 172.25 60.9739 172.25C86.904 172.25 124.423 183.807 145 191" stroke="white" stroke-width="25" stroke-linecap="round"/>
<path d="M124 190.867C124 296.28 288.311 381.734 491 381.734C693.689 381.734 858 296.28 858 190.867C858 85.454 693.689 0 491 0C288.311 0 124 85.454 124 190.867Z" fill="white"/>
<path d="M156.464 157.033C119.931 157.033 76.3216 153.49 41.3948 159.529C34.6445 160.697 8.0162 161.763 13.8216 161.763C26.9438 161.763 34.6493 165.605 44.0002 170.699C66.7101 183.069 99.9758 192.648 126.937 201.973C136.106 205.144 148.606 211.934 158.635 213.668C164.819 214.737 195.679 221.058 191.636 216.164" stroke="white" stroke-width="25" stroke-linecap="round"/>
<path d="M259.023 161V137.727H263.943V147.33H273.932V137.727H278.841V161H273.932V151.386H263.943V161H259.023ZM287.784 161.33C286.67 161.33 285.678 161.136 284.807 160.75C283.936 160.356 283.246 159.777 282.739 159.011C282.239 158.239 281.989 157.277 281.989 156.125C281.989 155.155 282.167 154.341 282.523 153.682C282.879 153.023 283.364 152.492 283.977 152.091C284.591 151.689 285.288 151.386 286.068 151.182C286.856 150.977 287.682 150.833 288.545 150.75C289.561 150.644 290.379 150.545 291 150.455C291.621 150.356 292.072 150.212 292.352 150.023C292.633 149.833 292.773 149.553 292.773 149.182V149.114C292.773 148.394 292.545 147.837 292.091 147.443C291.644 147.049 291.008 146.852 290.182 146.852C289.311 146.852 288.617 147.045 288.102 147.432C287.587 147.811 287.246 148.288 287.08 148.864L282.602 148.5C282.83 147.439 283.277 146.523 283.943 145.75C284.61 144.97 285.47 144.371 286.523 143.955C287.583 143.53 288.811 143.318 290.205 143.318C291.174 143.318 292.102 143.432 292.989 143.659C293.883 143.886 294.674 144.239 295.364 144.716C296.061 145.193 296.61 145.807 297.011 146.557C297.413 147.299 297.614 148.189 297.614 149.227V161H293.023V158.58H292.886C292.606 159.125 292.231 159.606 291.761 160.023C291.292 160.432 290.727 160.754 290.068 160.989C289.409 161.216 288.648 161.33 287.784 161.33ZM289.17 157.989C289.883 157.989 290.511 157.848 291.057 157.568C291.602 157.28 292.03 156.894 292.341 156.409C292.652 155.924 292.807 155.375 292.807 154.761V152.909C292.655 153.008 292.447 153.098 292.182 153.182C291.924 153.258 291.633 153.33 291.307 153.398C290.981 153.458 290.655 153.515 290.33 153.568C290.004 153.614 289.708 153.655 289.443 153.693C288.875 153.777 288.379 153.909 287.955 154.091C287.53 154.273 287.201 154.519 286.966 154.83C286.731 155.133 286.614 155.511 286.614 155.966C286.614 156.625 286.852 157.129 287.33 157.477C287.814 157.818 288.428 157.989 289.17 157.989ZM306.21 137.727V161H301.369V137.727H306.21ZM314.929 137.727V161H310.088V137.727H314.929ZM326.693 161.341C324.928 161.341 323.402 160.966 322.114 160.216C320.833 159.458 319.845 158.405 319.148 157.057C318.451 155.701 318.102 154.129 318.102 152.341C318.102 150.538 318.451 148.962 319.148 147.614C319.845 146.258 320.833 145.205 322.114 144.455C323.402 143.697 324.928 143.318 326.693 143.318C328.458 143.318 329.981 143.697 331.261 144.455C332.549 145.205 333.542 146.258 334.239 147.614C334.936 148.962 335.284 150.538 335.284 152.341C335.284 154.129 334.936 155.701 334.239 157.057C333.542 158.405 332.549 159.458 331.261 160.216C329.981 160.966 328.458 161.341 326.693 161.341ZM326.716 157.591C327.519 157.591 328.189 157.364 328.727 156.909C329.265 156.447 329.67 155.818 329.943 155.023C330.223 154.227 330.364 153.322 330.364 152.307C330.364 151.292 330.223 150.386 329.943 149.591C329.67 148.795 329.265 148.167 328.727 147.705C328.189 147.242 327.519 147.011 326.716 147.011C325.905 147.011 325.223 147.242 324.67 147.705C324.125 148.167 323.712 148.795 323.432 149.591C323.159 150.386 323.023 151.292 323.023 152.307C323.023 153.322 323.159 154.227 323.432 155.023C323.712 155.818 324.125 156.447 324.67 156.909C325.223 157.364 325.905 157.591 326.716 157.591ZM345.929 161V137.727H350.849V147.989H351.156L359.531 137.727H365.429L356.793 148.148L365.531 161H359.645L353.27 151.432L350.849 154.386V161H345.929ZM374.506 161.341C372.741 161.341 371.214 160.966 369.926 160.216C368.646 159.458 367.657 158.405 366.96 157.057C366.263 155.701 365.915 154.129 365.915 152.341C365.915 150.538 366.263 148.962 366.96 147.614C367.657 146.258 368.646 145.205 369.926 144.455C371.214 143.697 372.741 143.318 374.506 143.318C376.271 143.318 377.794 143.697 379.074 144.455C380.362 145.205 381.354 146.258 382.051 147.614C382.748 148.962 383.097 150.538 383.097 152.341C383.097 154.129 382.748 155.701 382.051 157.057C381.354 158.405 380.362 159.458 379.074 160.216C377.794 160.966 376.271 161.341 374.506 161.341ZM374.528 157.591C375.331 157.591 376.002 157.364 376.54 156.909C377.078 156.447 377.483 155.818 377.756 155.023C378.036 154.227 378.176 153.322 378.176 152.307C378.176 151.292 378.036 150.386 377.756 149.591C377.483 148.795 377.078 148.167 376.54 147.705C376.002 147.242 375.331 147.011 374.528 147.011C373.718 147.011 373.036 147.242 372.483 147.705C371.938 148.167 371.525 148.795 371.244 149.591C370.972 150.386 370.835 151.292 370.835 152.307C370.835 153.322 370.972 154.227 371.244 155.023C371.525 155.818 371.938 156.447 372.483 156.909C373.036 157.364 373.718 157.591 374.528 157.591ZM391.085 137.727V161H386.244V137.727H391.085ZM399.804 137.727V161H394.963V137.727H399.804ZM411.636 161.341C409.841 161.341 408.295 160.977 407 160.25C405.712 159.515 404.72 158.477 404.023 157.136C403.326 155.788 402.977 154.193 402.977 152.352C402.977 150.557 403.326 148.981 404.023 147.625C404.72 146.269 405.701 145.212 406.966 144.455C408.239 143.697 409.731 143.318 411.443 143.318C412.595 143.318 413.667 143.504 414.659 143.875C415.659 144.239 416.53 144.788 417.273 145.523C418.023 146.258 418.606 147.182 419.023 148.295C419.439 149.402 419.648 150.697 419.648 152.182V153.511H404.909V150.511H415.091C415.091 149.814 414.939 149.197 414.636 148.659C414.333 148.121 413.913 147.701 413.375 147.398C412.845 147.087 412.227 146.932 411.523 146.932C410.788 146.932 410.136 147.102 409.568 147.443C409.008 147.777 408.568 148.227 408.25 148.795C407.932 149.356 407.769 149.981 407.761 150.67V153.523C407.761 154.386 407.92 155.133 408.239 155.761C408.564 156.39 409.023 156.875 409.614 157.216C410.205 157.557 410.905 157.727 411.716 157.727C412.254 157.727 412.746 157.652 413.193 157.5C413.64 157.348 414.023 157.121 414.341 156.818C414.659 156.515 414.902 156.144 415.068 155.705L419.545 156C419.318 157.076 418.852 158.015 418.148 158.818C417.451 159.614 416.549 160.235 415.443 160.682C414.345 161.121 413.076 161.341 411.636 161.341ZM430.67 167.909C429.102 167.909 427.758 167.693 426.636 167.261C425.523 166.837 424.636 166.258 423.977 165.523C423.318 164.788 422.89 163.962 422.693 163.045L427.17 162.443C427.307 162.792 427.523 163.117 427.818 163.42C428.114 163.723 428.504 163.966 428.989 164.148C429.481 164.337 430.08 164.432 430.784 164.432C431.837 164.432 432.705 164.174 433.386 163.659C434.076 163.152 434.42 162.299 434.42 161.102V157.909H434.216C434.004 158.394 433.686 158.852 433.261 159.284C432.837 159.716 432.292 160.068 431.625 160.341C430.958 160.614 430.163 160.75 429.239 160.75C427.928 160.75 426.735 160.447 425.659 159.841C424.591 159.227 423.739 158.292 423.102 157.034C422.473 155.769 422.159 154.17 422.159 152.239C422.159 150.261 422.481 148.61 423.125 147.284C423.769 145.958 424.625 144.966 425.693 144.307C426.769 143.648 427.947 143.318 429.227 143.318C430.205 143.318 431.023 143.485 431.682 143.818C432.341 144.144 432.871 144.553 433.273 145.045C433.682 145.53 433.996 146.008 434.216 146.477H434.398V143.545H439.205V161.17C439.205 162.655 438.841 163.898 438.114 164.898C437.386 165.898 436.379 166.648 435.091 167.148C433.811 167.655 432.337 167.909 430.67 167.909ZM430.773 157.114C431.553 157.114 432.212 156.92 432.75 156.534C433.295 156.14 433.712 155.58 434 154.852C434.295 154.117 434.443 153.239 434.443 152.216C434.443 151.193 434.299 150.307 434.011 149.557C433.723 148.799 433.307 148.212 432.761 147.795C432.216 147.379 431.553 147.17 430.773 147.17C429.977 147.17 429.307 147.386 428.761 147.818C428.216 148.242 427.803 148.833 427.523 149.591C427.242 150.348 427.102 151.223 427.102 152.216C427.102 153.223 427.242 154.095 427.523 154.83C427.811 155.557 428.223 156.121 428.761 156.523C429.307 156.917 429.977 157.114 430.773 157.114ZM451.011 161.341C449.216 161.341 447.67 160.977 446.375 160.25C445.087 159.515 444.095 158.477 443.398 157.136C442.701 155.788 442.352 154.193 442.352 152.352C442.352 150.557 442.701 148.981 443.398 147.625C444.095 146.269 445.076 145.212 446.341 144.455C447.614 143.697 449.106 143.318 450.818 143.318C451.97 143.318 453.042 143.504 454.034 143.875C455.034 144.239 455.905 144.788 456.648 145.523C457.398 146.258 457.981 147.182 458.398 148.295C458.814 149.402 459.023 150.697 459.023 152.182V153.511H444.284V150.511H454.466C454.466 149.814 454.314 149.197 454.011 148.659C453.708 148.121 453.288 147.701 452.75 147.398C452.22 147.087 451.602 146.932 450.898 146.932C450.163 146.932 449.511 147.102 448.943 147.443C448.383 147.777 447.943 148.227 447.625 148.795C447.307 149.356 447.144 149.981 447.136 150.67V153.523C447.136 154.386 447.295 155.133 447.614 155.761C447.939 156.39 448.398 156.875 448.989 157.216C449.58 157.557 450.28 157.727 451.091 157.727C451.629 157.727 452.121 157.652 452.568 157.5C453.015 157.348 453.398 157.121 453.716 156.818C454.034 156.515 454.277 156.144 454.443 155.705L458.92 156C458.693 157.076 458.227 158.015 457.523 158.818C456.826 159.614 455.924 160.235 454.818 160.682C453.72 161.121 452.451 161.341 451.011 161.341ZM467.966 137.727L467.523 154.023H463.364L462.909 137.727H467.966ZM465.443 161.295C464.693 161.295 464.049 161.03 463.511 160.5C462.973 159.962 462.708 159.318 462.716 158.568C462.708 157.826 462.973 157.189 463.511 156.659C464.049 156.129 464.693 155.864 465.443 155.864C466.163 155.864 466.795 156.129 467.341 156.659C467.886 157.189 468.163 157.826 468.17 158.568C468.163 159.068 468.03 159.527 467.773 159.943C467.523 160.352 467.193 160.682 466.784 160.932C466.375 161.174 465.928 161.295 465.443 161.295ZM259.023 200V176.727H263.943V186.33H273.932V176.727H278.841V200H273.932V190.386H263.943V200H259.023ZM282.807 200V182.545H287.648V200H282.807ZM285.239 180.295C284.519 180.295 283.902 180.057 283.386 179.58C282.879 179.095 282.625 178.515 282.625 177.841C282.625 177.174 282.879 176.602 283.386 176.125C283.902 175.64 284.519 175.398 285.239 175.398C285.958 175.398 286.572 175.64 287.08 176.125C287.595 176.602 287.852 177.174 287.852 177.841C287.852 178.515 287.595 179.095 287.08 179.58C286.572 180.057 285.958 180.295 285.239 180.295ZM299.48 200.341C297.685 200.341 296.139 199.977 294.844 199.25C293.556 198.515 292.563 197.477 291.866 196.136C291.17 194.788 290.821 193.193 290.821 191.352C290.821 189.557 291.17 187.981 291.866 186.625C292.563 185.269 293.545 184.212 294.81 183.455C296.082 182.697 297.575 182.318 299.287 182.318C300.438 182.318 301.51 182.504 302.503 182.875C303.503 183.239 304.374 183.788 305.116 184.523C305.866 185.258 306.45 186.182 306.866 187.295C307.283 188.402 307.491 189.697 307.491 191.182V192.511H292.753V189.511H302.935C302.935 188.814 302.783 188.197 302.48 187.659C302.177 187.121 301.757 186.701 301.219 186.398C300.688 186.087 300.071 185.932 299.366 185.932C298.632 185.932 297.98 186.102 297.412 186.443C296.851 186.777 296.412 187.227 296.094 187.795C295.776 188.356 295.613 188.981 295.605 189.67V192.523C295.605 193.386 295.764 194.133 296.082 194.761C296.408 195.39 296.866 195.875 297.457 196.216C298.048 196.557 298.749 196.727 299.56 196.727C300.098 196.727 300.59 196.652 301.037 196.5C301.484 196.348 301.866 196.121 302.185 195.818C302.503 195.515 302.745 195.144 302.912 194.705L307.389 195C307.162 196.076 306.696 197.015 305.991 197.818C305.295 198.614 304.393 199.235 303.287 199.682C302.188 200.121 300.92 200.341 299.48 200.341ZM310.651 200V182.545H315.344V185.591H315.526C315.844 184.508 316.378 183.689 317.128 183.136C317.878 182.576 318.741 182.295 319.719 182.295C319.961 182.295 320.223 182.311 320.503 182.341C320.783 182.371 321.029 182.413 321.241 182.466V186.761C321.014 186.693 320.7 186.633 320.298 186.58C319.897 186.527 319.529 186.5 319.196 186.5C318.484 186.5 317.848 186.655 317.287 186.966C316.734 187.269 316.295 187.693 315.969 188.239C315.651 188.784 315.491 189.413 315.491 190.125V200H310.651ZM331.151 200V182.545H335.991V200H331.151ZM333.582 180.295C332.863 180.295 332.245 180.057 331.73 179.58C331.223 179.095 330.969 178.515 330.969 177.841C330.969 177.174 331.223 176.602 331.73 176.125C332.245 175.64 332.863 175.398 333.582 175.398C334.302 175.398 334.916 175.64 335.423 176.125C335.938 176.602 336.196 177.174 336.196 177.841C336.196 178.515 335.938 179.095 335.423 179.58C334.916 180.057 334.302 180.295 333.582 180.295ZM354.392 187.523L349.96 187.795C349.884 187.417 349.722 187.076 349.472 186.773C349.222 186.462 348.892 186.216 348.483 186.034C348.081 185.845 347.6 185.75 347.04 185.75C346.29 185.75 345.657 185.909 345.142 186.227C344.627 186.538 344.369 186.955 344.369 187.477C344.369 187.894 344.536 188.246 344.869 188.534C345.203 188.822 345.775 189.053 346.585 189.227L349.744 189.864C351.441 190.212 352.706 190.773 353.54 191.545C354.373 192.318 354.79 193.333 354.79 194.591C354.79 195.735 354.453 196.739 353.778 197.602C353.112 198.466 352.195 199.14 351.028 199.625C349.869 200.102 348.532 200.341 347.017 200.341C344.706 200.341 342.866 199.86 341.494 198.898C340.131 197.928 339.331 196.61 339.097 194.943L343.858 194.693C344.002 195.398 344.35 195.936 344.903 196.307C345.456 196.67 346.165 196.852 347.028 196.852C347.877 196.852 348.559 196.689 349.074 196.364C349.597 196.03 349.862 195.602 349.869 195.08C349.862 194.64 349.676 194.28 349.312 194C348.949 193.712 348.388 193.492 347.631 193.341L344.608 192.739C342.903 192.398 341.634 191.807 340.801 190.966C339.975 190.125 339.562 189.053 339.562 187.75C339.562 186.629 339.866 185.663 340.472 184.852C341.085 184.042 341.945 183.417 343.051 182.977C344.165 182.538 345.468 182.318 346.96 182.318C349.165 182.318 350.9 182.784 352.165 183.716C353.438 184.648 354.18 185.917 354.392 187.523ZM367.122 182.545V186.182H356.611V182.545H367.122ZM358.997 178.364H363.838V194.636C363.838 195.083 363.906 195.432 364.043 195.682C364.179 195.924 364.368 196.095 364.611 196.193C364.861 196.292 365.149 196.341 365.474 196.341C365.702 196.341 365.929 196.322 366.156 196.284C366.384 196.239 366.558 196.205 366.679 196.182L367.44 199.784C367.198 199.86 366.857 199.947 366.418 200.045C365.978 200.152 365.444 200.216 364.815 200.239C363.649 200.284 362.626 200.129 361.747 199.773C360.876 199.417 360.198 198.864 359.713 198.114C359.228 197.364 358.99 196.417 358.997 195.273V178.364ZM382.523 189.909V200H377.682V182.545H382.295V185.625H382.5C382.886 184.61 383.534 183.807 384.443 183.216C385.352 182.617 386.455 182.318 387.75 182.318C388.962 182.318 390.019 182.583 390.92 183.114C391.822 183.644 392.523 184.402 393.023 185.386C393.523 186.364 393.773 187.53 393.773 188.886V200H388.932V189.75C388.939 188.682 388.667 187.848 388.114 187.25C387.561 186.644 386.799 186.341 385.83 186.341C385.178 186.341 384.602 186.481 384.102 186.761C383.61 187.042 383.223 187.451 382.943 187.989C382.67 188.519 382.53 189.159 382.523 189.909ZM397.588 200V182.545H402.429V200H397.588ZM400.02 180.295C399.3 180.295 398.683 180.057 398.168 179.58C397.66 179.095 397.406 178.515 397.406 177.841C397.406 177.174 397.66 176.602 398.168 176.125C398.683 175.64 399.3 175.398 400.02 175.398C400.74 175.398 401.353 175.64 401.861 176.125C402.376 176.602 402.634 177.174 402.634 177.841C402.634 178.515 402.376 179.095 401.861 179.58C401.353 180.057 400.74 180.295 400.02 180.295ZM414.193 200.341C412.405 200.341 410.867 199.962 409.58 199.205C408.299 198.439 407.314 197.379 406.625 196.023C405.943 194.667 405.602 193.106 405.602 191.341C405.602 189.553 405.947 187.985 406.636 186.636C407.333 185.28 408.322 184.223 409.602 183.466C410.883 182.701 412.405 182.318 414.17 182.318C415.693 182.318 417.027 182.595 418.17 183.148C419.314 183.701 420.22 184.477 420.886 185.477C421.553 186.477 421.92 187.652 421.989 189H417.42C417.292 188.129 416.951 187.428 416.398 186.898C415.852 186.36 415.136 186.091 414.25 186.091C413.5 186.091 412.845 186.295 412.284 186.705C411.731 187.106 411.299 187.693 410.989 188.466C410.678 189.239 410.523 190.174 410.523 191.273C410.523 192.386 410.674 193.333 410.977 194.114C411.288 194.894 411.723 195.489 412.284 195.898C412.845 196.307 413.5 196.511 414.25 196.511C414.803 196.511 415.299 196.398 415.739 196.17C416.186 195.943 416.553 195.614 416.841 195.182C417.136 194.742 417.33 194.216 417.42 193.602H421.989C421.913 194.936 421.549 196.11 420.898 197.125C420.254 198.133 419.364 198.92 418.227 199.489C417.091 200.057 415.746 200.341 414.193 200.341ZM429.929 189.909V200H425.088V176.727H429.793V185.625H429.997C430.391 184.595 431.027 183.788 431.906 183.205C432.785 182.614 433.887 182.318 435.213 182.318C436.425 182.318 437.482 182.583 438.384 183.114C439.293 183.636 439.997 184.39 440.497 185.375C441.005 186.352 441.255 187.523 441.247 188.886V200H436.406V189.75C436.414 188.674 436.141 187.837 435.588 187.239C435.043 186.64 434.277 186.341 433.293 186.341C432.634 186.341 432.05 186.481 431.543 186.761C431.043 187.042 430.649 187.451 430.361 187.989C430.08 188.519 429.937 189.159 429.929 189.909ZM454.341 182.545V186.182H443.83V182.545H454.341ZM446.216 178.364H451.057V194.636C451.057 195.083 451.125 195.432 451.261 195.682C451.398 195.924 451.587 196.095 451.83 196.193C452.08 196.292 452.367 196.341 452.693 196.341C452.92 196.341 453.148 196.322 453.375 196.284C453.602 196.239 453.777 196.205 453.898 196.182L454.659 199.784C454.417 199.86 454.076 199.947 453.636 200.045C453.197 200.152 452.663 200.216 452.034 200.239C450.867 200.284 449.845 200.129 448.966 199.773C448.095 199.417 447.417 198.864 446.932 198.114C446.447 197.364 446.208 196.417 446.216 195.273V178.364ZM471.798 187.523L467.366 187.795C467.291 187.417 467.128 187.076 466.878 186.773C466.628 186.462 466.298 186.216 465.889 186.034C465.488 185.845 465.007 185.75 464.446 185.75C463.696 185.75 463.063 185.909 462.548 186.227C462.033 186.538 461.776 186.955 461.776 187.477C461.776 187.894 461.942 188.246 462.276 188.534C462.609 188.822 463.181 189.053 463.991 189.227L467.151 189.864C468.848 190.212 470.113 190.773 470.946 191.545C471.779 192.318 472.196 193.333 472.196 194.591C472.196 195.735 471.859 196.739 471.185 197.602C470.518 198.466 469.601 199.14 468.435 199.625C467.276 200.102 465.938 200.341 464.423 200.341C462.113 200.341 460.272 199.86 458.901 198.898C457.537 197.928 456.738 196.61 456.503 194.943L461.264 194.693C461.408 195.398 461.757 195.936 462.31 196.307C462.863 196.67 463.571 196.852 464.435 196.852C465.283 196.852 465.965 196.689 466.48 196.364C467.003 196.03 467.268 195.602 467.276 195.08C467.268 194.64 467.082 194.28 466.719 194C466.355 193.712 465.795 193.492 465.037 193.341L462.014 192.739C460.31 192.398 459.041 191.807 458.207 190.966C457.382 190.125 456.969 189.053 456.969 187.75C456.969 186.629 457.272 185.663 457.878 184.852C458.491 184.042 459.351 183.417 460.457 182.977C461.571 182.538 462.874 182.318 464.366 182.318C466.571 182.318 468.306 182.784 469.571 183.716C470.844 184.648 471.586 185.917 471.798 187.523ZM489.082 200.284C487.757 200.284 486.556 199.943 485.48 199.261C484.412 198.572 483.563 197.561 482.935 196.227C482.313 194.886 482.003 193.242 482.003 191.295C482.003 189.295 482.325 187.633 482.969 186.307C483.613 184.973 484.469 183.977 485.537 183.318C486.613 182.652 487.791 182.318 489.071 182.318C490.048 182.318 490.863 182.485 491.514 182.818C492.173 183.144 492.704 183.553 493.105 184.045C493.514 184.53 493.825 185.008 494.037 185.477H494.185V176.727H499.014V200H494.241V197.205H494.037C493.81 197.689 493.488 198.17 493.071 198.648C492.662 199.117 492.128 199.508 491.469 199.818C490.817 200.129 490.022 200.284 489.082 200.284ZM490.616 196.432C491.397 196.432 492.056 196.22 492.594 195.795C493.139 195.364 493.556 194.761 493.844 193.989C494.139 193.216 494.287 192.311 494.287 191.273C494.287 190.235 494.143 189.333 493.855 188.568C493.567 187.803 493.151 187.212 492.605 186.795C492.06 186.379 491.397 186.17 490.616 186.17C489.821 186.17 489.151 186.386 488.605 186.818C488.06 187.25 487.647 187.848 487.366 188.614C487.086 189.379 486.946 190.265 486.946 191.273C486.946 192.288 487.086 193.186 487.366 193.966C487.654 194.739 488.067 195.345 488.605 195.784C489.151 196.216 489.821 196.432 490.616 196.432ZM502.994 200V182.545H507.688V185.591H507.869C508.188 184.508 508.722 183.689 509.472 183.136C510.222 182.576 511.085 182.295 512.062 182.295C512.305 182.295 512.566 182.311 512.847 182.341C513.127 182.371 513.373 182.413 513.585 182.466V186.761C513.358 186.693 513.044 186.633 512.642 186.58C512.241 186.527 511.873 186.5 511.54 186.5C510.828 186.5 510.191 186.655 509.631 186.966C509.078 187.269 508.638 187.693 508.312 188.239C507.994 188.784 507.835 189.413 507.835 190.125V200H502.994ZM520.565 200.33C519.452 200.33 518.459 200.136 517.588 199.75C516.717 199.356 516.027 198.777 515.52 198.011C515.02 197.239 514.77 196.277 514.77 195.125C514.77 194.155 514.948 193.341 515.304 192.682C515.66 192.023 516.145 191.492 516.759 191.091C517.372 190.689 518.069 190.386 518.849 190.182C519.637 189.977 520.463 189.833 521.327 189.75C522.342 189.644 523.16 189.545 523.781 189.455C524.402 189.356 524.853 189.212 525.134 189.023C525.414 188.833 525.554 188.553 525.554 188.182V188.114C525.554 187.394 525.327 186.837 524.872 186.443C524.425 186.049 523.789 185.852 522.963 185.852C522.092 185.852 521.399 186.045 520.884 186.432C520.368 186.811 520.027 187.288 519.861 187.864L515.384 187.5C515.611 186.439 516.058 185.523 516.724 184.75C517.391 183.97 518.251 183.371 519.304 182.955C520.365 182.53 521.592 182.318 522.986 182.318C523.955 182.318 524.884 182.432 525.77 182.659C526.664 182.886 527.455 183.239 528.145 183.716C528.842 184.193 529.391 184.807 529.793 185.557C530.194 186.299 530.395 187.189 530.395 188.227V200H525.804V197.58H525.668C525.387 198.125 525.012 198.606 524.543 199.023C524.073 199.432 523.509 199.754 522.849 199.989C522.19 200.216 521.429 200.33 520.565 200.33ZM521.952 196.989C522.664 196.989 523.293 196.848 523.838 196.568C524.384 196.28 524.812 195.894 525.122 195.409C525.433 194.924 525.588 194.375 525.588 193.761V191.909C525.437 192.008 525.228 192.098 524.963 192.182C524.705 192.258 524.414 192.33 524.088 192.398C523.762 192.458 523.437 192.515 523.111 192.568C522.785 192.614 522.49 192.655 522.224 192.693C521.656 192.777 521.16 192.909 520.736 193.091C520.312 193.273 519.982 193.519 519.747 193.83C519.512 194.133 519.395 194.511 519.395 194.966C519.395 195.625 519.634 196.129 520.111 196.477C520.596 196.818 521.209 196.989 521.952 196.989ZM545.344 192.568V182.545H550.185V200H545.537V196.83H545.355C544.961 197.852 544.306 198.674 543.389 199.295C542.48 199.917 541.37 200.227 540.06 200.227C538.893 200.227 537.866 199.962 536.98 199.432C536.094 198.902 535.401 198.148 534.901 197.17C534.408 196.193 534.158 195.023 534.151 193.659V182.545H538.991V192.795C538.999 193.826 539.276 194.64 539.821 195.239C540.366 195.837 541.098 196.136 542.014 196.136C542.598 196.136 543.143 196.004 543.651 195.739C544.158 195.466 544.567 195.064 544.878 194.534C545.196 194.004 545.351 193.348 545.344 192.568ZM563.443 182.545V186.182H552.67V182.545H563.443ZM555.136 200V181.284C555.136 180.019 555.383 178.97 555.875 178.136C556.375 177.303 557.057 176.678 557.92 176.261C558.784 175.845 559.765 175.636 560.864 175.636C561.606 175.636 562.284 175.693 562.898 175.807C563.519 175.92 563.981 176.023 564.284 176.114L563.42 179.75C563.231 179.689 562.996 179.633 562.716 179.58C562.443 179.527 562.163 179.5 561.875 179.5C561.163 179.5 560.667 179.667 560.386 180C560.106 180.326 559.966 180.784 559.966 181.375V200H555.136ZM567.418 200.295C566.668 200.295 566.024 200.03 565.486 199.5C564.955 198.962 564.69 198.318 564.69 197.568C564.69 196.826 564.955 196.189 565.486 195.659C566.024 195.129 566.668 194.864 567.418 194.864C568.145 194.864 568.781 195.129 569.327 195.659C569.872 196.189 570.145 196.826 570.145 197.568C570.145 198.068 570.016 198.527 569.759 198.943C569.509 199.352 569.179 199.682 568.77 199.932C568.361 200.174 567.91 200.295 567.418 200.295ZM585.443 176.727V200H580.523V176.727H585.443ZM603.923 187.523L599.491 187.795C599.416 187.417 599.253 187.076 599.003 186.773C598.753 186.462 598.423 186.216 598.014 186.034C597.613 185.845 597.132 185.75 596.571 185.75C595.821 185.75 595.188 185.909 594.673 186.227C594.158 186.538 593.901 186.955 593.901 187.477C593.901 187.894 594.067 188.246 594.401 188.534C594.734 188.822 595.306 189.053 596.116 189.227L599.276 189.864C600.973 190.212 602.238 190.773 603.071 191.545C603.904 192.318 604.321 193.333 604.321 194.591C604.321 195.735 603.984 196.739 603.31 197.602C602.643 198.466 601.726 199.14 600.56 199.625C599.401 200.102 598.063 200.341 596.548 200.341C594.238 200.341 592.397 199.86 591.026 198.898C589.662 197.928 588.863 196.61 588.628 194.943L593.389 194.693C593.533 195.398 593.882 195.936 594.435 196.307C594.988 196.67 595.696 196.852 596.56 196.852C597.408 196.852 598.09 196.689 598.605 196.364C599.128 196.03 599.393 195.602 599.401 195.08C599.393 194.64 599.207 194.28 598.844 194C598.48 193.712 597.92 193.492 597.162 193.341L594.139 192.739C592.435 192.398 591.166 191.807 590.332 190.966C589.507 190.125 589.094 189.053 589.094 187.75C589.094 186.629 589.397 185.663 590.003 184.852C590.616 184.042 591.476 183.417 592.582 182.977C593.696 182.538 594.999 182.318 596.491 182.318C598.696 182.318 600.431 182.784 601.696 183.716C602.969 184.648 603.711 185.917 603.923 187.523ZM616.653 182.545V186.182H606.142V182.545H616.653ZM608.528 178.364H613.369V194.636C613.369 195.083 613.438 195.432 613.574 195.682C613.71 195.924 613.9 196.095 614.142 196.193C614.392 196.292 614.68 196.341 615.006 196.341C615.233 196.341 615.46 196.322 615.688 196.284C615.915 196.239 616.089 196.205 616.21 196.182L616.972 199.784C616.729 199.86 616.388 199.947 615.949 200.045C615.509 200.152 614.975 200.216 614.347 200.239C613.18 200.284 612.157 200.129 611.278 199.773C610.407 199.417 609.729 198.864 609.244 198.114C608.759 197.364 608.521 196.417 608.528 195.273V178.364ZM633.645 200.284C632.319 200.284 631.118 199.943 630.043 199.261C628.974 198.572 628.126 197.561 627.497 196.227C626.876 194.886 626.565 193.242 626.565 191.295C626.565 189.295 626.887 187.633 627.531 186.307C628.175 184.973 629.031 183.977 630.099 183.318C631.175 182.652 632.353 182.318 633.634 182.318C634.611 182.318 635.425 182.485 636.077 182.818C636.736 183.144 637.266 183.553 637.668 184.045C638.077 184.53 638.387 185.008 638.599 185.477H638.747V176.727H643.577V200H638.804V197.205H638.599C638.372 197.689 638.05 198.17 637.634 198.648C637.224 199.117 636.69 199.508 636.031 199.818C635.38 200.129 634.584 200.284 633.645 200.284ZM635.179 196.432C635.959 196.432 636.618 196.22 637.156 195.795C637.702 195.364 638.118 194.761 638.406 193.989C638.702 193.216 638.849 192.311 638.849 191.273C638.849 190.235 638.705 189.333 638.418 188.568C638.13 187.803 637.713 187.212 637.168 186.795C636.622 186.379 635.959 186.17 635.179 186.17C634.384 186.17 633.713 186.386 633.168 186.818C632.622 187.25 632.209 187.848 631.929 188.614C631.649 189.379 631.509 190.265 631.509 191.273C631.509 192.288 631.649 193.186 631.929 193.966C632.217 194.739 632.63 195.345 633.168 195.784C633.713 196.216 634.384 196.432 635.179 196.432ZM652.534 200.33C651.42 200.33 650.428 200.136 649.557 199.75C648.686 199.356 647.996 198.777 647.489 198.011C646.989 197.239 646.739 196.277 646.739 195.125C646.739 194.155 646.917 193.341 647.273 192.682C647.629 192.023 648.114 191.492 648.727 191.091C649.341 190.689 650.038 190.386 650.818 190.182C651.606 189.977 652.432 189.833 653.295 189.75C654.311 189.644 655.129 189.545 655.75 189.455C656.371 189.356 656.822 189.212 657.102 189.023C657.383 188.833 657.523 188.553 657.523 188.182V188.114C657.523 187.394 657.295 186.837 656.841 186.443C656.394 186.049 655.758 185.852 654.932 185.852C654.061 185.852 653.367 186.045 652.852 186.432C652.337 186.811 651.996 187.288 651.83 187.864L647.352 187.5C647.58 186.439 648.027 185.523 648.693 184.75C649.36 183.97 650.22 183.371 651.273 182.955C652.333 182.53 653.561 182.318 654.955 182.318C655.924 182.318 656.852 182.432 657.739 182.659C658.633 182.886 659.424 183.239 660.114 183.716C660.811 184.193 661.36 184.807 661.761 185.557C662.163 186.299 662.364 187.189 662.364 188.227V200H657.773V197.58H657.636C657.356 198.125 656.981 198.606 656.511 199.023C656.042 199.432 655.477 199.754 654.818 199.989C654.159 200.216 653.398 200.33 652.534 200.33ZM653.92 196.989C654.633 196.989 655.261 196.848 655.807 196.568C656.352 196.28 656.78 195.894 657.091 195.409C657.402 194.924 657.557 194.375 657.557 193.761V191.909C657.405 192.008 657.197 192.098 656.932 192.182C656.674 192.258 656.383 192.33 656.057 192.398C655.731 192.458 655.405 192.515 655.08 192.568C654.754 192.614 654.458 192.655 654.193 192.693C653.625 192.777 653.129 192.909 652.705 193.091C652.28 193.273 651.951 193.519 651.716 193.83C651.481 194.133 651.364 194.511 651.364 194.966C651.364 195.625 651.602 196.129 652.08 196.477C652.564 196.818 653.178 196.989 653.92 196.989ZM680.642 187.523L676.21 187.795C676.134 187.417 675.972 187.076 675.722 186.773C675.472 186.462 675.142 186.216 674.733 186.034C674.331 185.845 673.85 185.75 673.29 185.75C672.54 185.75 671.907 185.909 671.392 186.227C670.877 186.538 670.619 186.955 670.619 187.477C670.619 187.894 670.786 188.246 671.119 188.534C671.453 188.822 672.025 189.053 672.835 189.227L675.994 189.864C677.691 190.212 678.956 190.773 679.79 191.545C680.623 192.318 681.04 193.333 681.04 194.591C681.04 195.735 680.703 196.739 680.028 197.602C679.362 198.466 678.445 199.14 677.278 199.625C676.119 200.102 674.782 200.341 673.267 200.341C670.956 200.341 669.116 199.86 667.744 198.898C666.381 197.928 665.581 196.61 665.347 194.943L670.108 194.693C670.252 195.398 670.6 195.936 671.153 196.307C671.706 196.67 672.415 196.852 673.278 196.852C674.127 196.852 674.809 196.689 675.324 196.364C675.847 196.03 676.112 195.602 676.119 195.08C676.112 194.64 675.926 194.28 675.562 194C675.199 193.712 674.638 193.492 673.881 193.341L670.858 192.739C669.153 192.398 667.884 191.807 667.051 190.966C666.225 190.125 665.812 189.053 665.812 187.75C665.812 186.629 666.116 185.663 666.722 184.852C667.335 184.042 668.195 183.417 669.301 182.977C670.415 182.538 671.718 182.318 673.21 182.318C675.415 182.318 677.15 182.784 678.415 183.716C679.688 184.648 680.43 185.917 680.642 187.523ZM697.926 200.284C696.6 200.284 695.4 199.943 694.324 199.261C693.256 198.572 692.407 197.561 691.778 196.227C691.157 194.886 690.847 193.242 690.847 191.295C690.847 189.295 691.169 187.633 691.812 186.307C692.456 184.973 693.313 183.977 694.381 183.318C695.456 182.652 696.634 182.318 697.915 182.318C698.892 182.318 699.706 182.485 700.358 182.818C701.017 183.144 701.547 183.553 701.949 184.045C702.358 184.53 702.669 185.008 702.881 185.477H703.028V176.727H707.858V200H703.085V197.205H702.881C702.653 197.689 702.331 198.17 701.915 198.648C701.506 199.117 700.972 199.508 700.312 199.818C699.661 200.129 698.866 200.284 697.926 200.284ZM699.46 196.432C700.241 196.432 700.9 196.22 701.438 195.795C701.983 195.364 702.4 194.761 702.688 193.989C702.983 193.216 703.131 192.311 703.131 191.273C703.131 190.235 702.987 189.333 702.699 188.568C702.411 187.803 701.994 187.212 701.449 186.795C700.903 186.379 700.241 186.17 699.46 186.17C698.665 186.17 697.994 186.386 697.449 186.818C696.903 187.25 696.491 187.848 696.21 188.614C695.93 189.379 695.79 190.265 695.79 191.273C695.79 192.288 695.93 193.186 696.21 193.966C696.498 194.739 696.911 195.345 697.449 195.784C697.994 196.216 698.665 196.432 699.46 196.432ZM719.793 200.341C717.997 200.341 716.452 199.977 715.156 199.25C713.868 198.515 712.876 197.477 712.179 196.136C711.482 194.788 711.134 193.193 711.134 191.352C711.134 189.557 711.482 187.981 712.179 186.625C712.876 185.269 713.857 184.212 715.122 183.455C716.395 182.697 717.887 182.318 719.599 182.318C720.751 182.318 721.823 182.504 722.815 182.875C723.815 183.239 724.687 183.788 725.429 184.523C726.179 185.258 726.762 186.182 727.179 187.295C727.596 188.402 727.804 189.697 727.804 191.182V192.511H713.065V189.511H723.247C723.247 188.814 723.096 188.197 722.793 187.659C722.49 187.121 722.069 186.701 721.531 186.398C721.001 186.087 720.384 185.932 719.679 185.932C718.944 185.932 718.293 186.102 717.724 186.443C717.164 186.777 716.724 187.227 716.406 187.795C716.088 188.356 715.925 188.981 715.918 189.67V192.523C715.918 193.386 716.077 194.133 716.395 194.761C716.721 195.39 717.179 195.875 717.77 196.216C718.361 196.557 719.062 196.727 719.872 196.727C720.41 196.727 720.902 196.652 721.349 196.5C721.796 196.348 722.179 196.121 722.497 195.818C722.815 195.515 723.058 195.144 723.224 194.705L727.702 195C727.474 196.076 727.009 197.015 726.304 197.818C725.607 198.614 724.705 199.235 723.599 199.682C722.501 200.121 721.232 200.341 719.793 200.341ZM730.963 200V182.545H735.804V200H730.963ZM733.395 180.295C732.675 180.295 732.058 180.057 731.543 179.58C731.035 179.095 730.781 178.515 730.781 177.841C730.781 177.174 731.035 176.602 731.543 176.125C732.058 175.64 732.675 175.398 733.395 175.398C734.115 175.398 734.728 175.64 735.236 176.125C735.751 176.602 736.009 177.174 736.009 177.841C736.009 178.515 735.751 179.095 735.236 179.58C734.728 180.057 734.115 180.295 733.395 180.295ZM744.523 189.909V200H739.682V182.545H744.295V185.625H744.5C744.886 184.61 745.534 183.807 746.443 183.216C747.352 182.617 748.455 182.318 749.75 182.318C750.962 182.318 752.019 182.583 752.92 183.114C753.822 183.644 754.523 184.402 755.023 185.386C755.523 186.364 755.773 187.53 755.773 188.886V200H750.932V189.75C750.939 188.682 750.667 187.848 750.114 187.25C749.561 186.644 748.799 186.341 747.83 186.341C747.178 186.341 746.602 186.481 746.102 186.761C745.61 187.042 745.223 187.451 744.943 187.989C744.67 188.519 744.53 189.159 744.523 189.909ZM767.543 200.341C765.747 200.341 764.202 199.977 762.906 199.25C761.618 198.515 760.626 197.477 759.929 196.136C759.232 194.788 758.884 193.193 758.884 191.352C758.884 189.557 759.232 187.981 759.929 186.625C760.626 185.269 761.607 184.212 762.872 183.455C764.145 182.697 765.637 182.318 767.349 182.318C768.501 182.318 769.573 182.504 770.565 182.875C771.565 183.239 772.437 183.788 773.179 184.523C773.929 185.258 774.512 186.182 774.929 187.295C775.346 188.402 775.554 189.697 775.554 191.182V192.511H760.815V189.511H770.997C770.997 188.814 770.846 188.197 770.543 187.659C770.24 187.121 769.819 186.701 769.281 186.398C768.751 186.087 768.134 185.932 767.429 185.932C766.694 185.932 766.043 186.102 765.474 186.443C764.914 186.777 764.474 187.227 764.156 187.795C763.838 188.356 763.675 188.981 763.668 189.67V192.523C763.668 193.386 763.827 194.133 764.145 194.761C764.471 195.39 764.929 195.875 765.52 196.216C766.111 196.557 766.812 196.727 767.622 196.727C768.16 196.727 768.652 196.652 769.099 196.5C769.546 196.348 769.929 196.121 770.247 195.818C770.565 195.515 770.808 195.144 770.974 194.705L775.452 195C775.224 196.076 774.759 197.015 774.054 197.818C773.357 198.614 772.455 199.235 771.349 199.682C770.251 200.121 768.982 200.341 767.543 200.341ZM778.713 200V182.545H783.406V185.591H783.588C783.906 184.508 784.44 183.689 785.19 183.136C785.94 182.576 786.804 182.295 787.781 182.295C788.024 182.295 788.285 182.311 788.565 182.341C788.846 182.371 789.092 182.413 789.304 182.466V186.761C789.077 186.693 788.762 186.633 788.361 186.58C787.959 186.527 787.592 186.5 787.259 186.5C786.546 186.5 785.91 186.655 785.349 186.966C784.796 187.269 784.357 187.693 784.031 188.239C783.713 188.784 783.554 189.413 783.554 190.125V200H778.713ZM795.966 193.023V192.636C795.973 191.311 796.091 190.254 796.318 189.466C796.553 188.678 796.894 188.042 797.341 187.557C797.788 187.072 798.326 186.633 798.955 186.239C799.424 185.936 799.845 185.621 800.216 185.295C800.587 184.97 800.883 184.61 801.102 184.216C801.322 183.814 801.432 183.367 801.432 182.875C801.432 182.352 801.307 181.894 801.057 181.5C800.807 181.106 800.47 180.803 800.045 180.591C799.629 180.379 799.167 180.273 798.659 180.273C798.167 180.273 797.701 180.383 797.261 180.602C796.822 180.814 796.462 181.133 796.182 181.557C795.902 181.973 795.75 182.492 795.727 183.114H791.091C791.129 181.598 791.492 180.348 792.182 179.364C792.871 178.371 793.784 177.633 794.92 177.148C796.057 176.655 797.311 176.409 798.682 176.409C800.189 176.409 801.523 176.659 802.682 177.159C803.841 177.652 804.75 178.367 805.409 179.307C806.068 180.246 806.398 181.379 806.398 182.705C806.398 183.591 806.25 184.379 805.955 185.068C805.667 185.75 805.261 186.356 804.739 186.886C804.216 187.409 803.598 187.883 802.886 188.307C802.288 188.663 801.795 189.034 801.409 189.42C801.03 189.807 800.746 190.254 800.557 190.761C800.375 191.269 800.28 191.894 800.273 192.636V193.023H795.966ZM798.216 200.295C797.458 200.295 796.811 200.03 796.273 199.5C795.742 198.962 795.481 198.318 795.489 197.568C795.481 196.826 795.742 196.189 796.273 195.659C796.811 195.129 797.458 194.864 798.216 194.864C798.936 194.864 799.568 195.129 800.114 195.659C800.659 196.189 800.936 196.826 800.943 197.568C800.936 198.068 800.803 198.527 800.545 198.943C800.295 199.352 799.966 199.682 799.557 199.932C799.148 200.174 798.701 200.295 798.216 200.295Z" fill="black"/>
<path d="M769.271 499.536H707.27V483.929C707.27 482.312 706.018 481 704.469 481H559.334C537.645 481 520 499.457 520 522.138V535.507C520 558.19 537.645 576.644 559.334 576.644H704.469C706.018 576.644 707.27 575.335 707.27 573.715V558.108H769.271C770.82 558.108 772.072 556.799 772.072 555.179V502.465C772.072 500.848 770.82 499.536 769.271 499.536ZM544.216 523.752L563.502 503.581C564.597 502.436 566.367 502.436 567.462 503.581C568.557 504.727 568.557 506.578 567.462 507.723L548.176 527.894C547.63 528.465 546.913 528.752 546.196 528.752C545.479 528.752 544.762 528.465 544.216 527.894C543.123 526.748 543.123 524.897 544.216 523.752ZM570.977 526.637L548.742 549.892C548.196 550.463 547.479 550.75 546.762 550.75C546.045 550.75 545.328 550.463 544.781 549.892C543.686 548.747 543.686 546.895 544.781 545.75L567.017 522.495C568.112 521.35 569.882 521.35 570.977 522.495C572.072 523.64 572.072 525.495 570.977 526.637ZM588.499 508.312L579.419 517.808C578.873 518.38 578.156 518.667 577.439 518.667C576.722 518.667 576.005 518.38 575.459 517.808C574.364 516.663 574.364 514.812 575.459 513.667L584.539 504.17C585.634 503.025 587.404 503.025 588.499 504.17C589.594 505.315 589.594 507.167 588.499 508.312ZM766.47 552.25H754.889V540.17C754.889 538.55 753.637 537.241 752.088 537.241C750.539 537.241 749.287 538.55 749.287 540.17V552.25H707.27V505.394H749.287V517.474C749.287 519.091 750.539 520.404 752.088 520.404C753.637 520.404 754.889 519.091 754.889 517.474V505.394H766.47V552.25Z" fill="black"/>
</svg>
