<svg width="981" height="414" viewBox="0 0 981 414" fill="none" xmlns="http://www.w3.org/2000/svg">
<ellipse rx="478" ry="192.5" transform="matrix(-1 0 0 1 503 192.5)" fill="white"/>
<path d="M38.0654 384.813L87.5667 240.258L162.998 296.845L38.0654 384.813Z" fill="white"/>
<path d="M135.528 164V134.909H141.679V146.912H154.165V134.909H160.301V164H154.165V151.983H141.679V164H135.528ZM171.48 164.412C170.088 164.412 168.848 164.17 167.759 163.688C166.67 163.195 165.808 162.471 165.173 161.514C164.548 160.548 164.236 159.346 164.236 157.906C164.236 156.694 164.458 155.676 164.903 154.852C165.348 154.028 165.955 153.366 166.722 152.864C167.489 152.362 168.36 151.983 169.335 151.727C170.32 151.472 171.352 151.292 172.432 151.188C173.701 151.055 174.723 150.932 175.5 150.818C176.277 150.695 176.84 150.515 177.19 150.278C177.541 150.042 177.716 149.691 177.716 149.227V149.142C177.716 148.242 177.432 147.546 176.864 147.054C176.305 146.562 175.509 146.315 174.477 146.315C173.388 146.315 172.522 146.557 171.878 147.04C171.234 147.513 170.808 148.11 170.599 148.83L165.003 148.375C165.287 147.049 165.846 145.903 166.679 144.938C167.512 143.962 168.587 143.214 169.903 142.693C171.229 142.163 172.763 141.898 174.506 141.898C175.718 141.898 176.878 142.04 177.986 142.324C179.103 142.608 180.093 143.048 180.955 143.645C181.826 144.241 182.512 145.009 183.014 145.946C183.516 146.874 183.767 147.987 183.767 149.284V164H178.028V160.974H177.858C177.508 161.656 177.039 162.258 176.452 162.778C175.865 163.29 175.159 163.692 174.335 163.986C173.511 164.27 172.56 164.412 171.48 164.412ZM173.213 160.236C174.103 160.236 174.889 160.061 175.571 159.71C176.253 159.35 176.788 158.867 177.176 158.261C177.564 157.655 177.759 156.969 177.759 156.202V153.886C177.569 154.009 177.309 154.123 176.977 154.227C176.655 154.322 176.291 154.412 175.884 154.497C175.476 154.573 175.069 154.644 174.662 154.71C174.255 154.767 173.885 154.819 173.554 154.866C172.844 154.971 172.223 155.136 171.693 155.364C171.163 155.591 170.751 155.899 170.457 156.287C170.164 156.666 170.017 157.139 170.017 157.707C170.017 158.531 170.315 159.161 170.912 159.597C171.518 160.023 172.285 160.236 173.213 160.236ZM194.513 134.909V164H188.462V134.909H194.513ZM205.411 134.909V164H199.36V134.909H205.411ZM220.116 164.426C217.91 164.426 216.002 163.957 214.392 163.02C212.792 162.073 211.556 160.757 210.685 159.071C209.813 157.376 209.378 155.411 209.378 153.176C209.378 150.922 209.813 148.953 210.685 147.267C211.556 145.572 212.792 144.256 214.392 143.318C216.002 142.371 217.91 141.898 220.116 141.898C222.323 141.898 224.226 142.371 225.827 143.318C227.437 144.256 228.677 145.572 229.548 147.267C230.42 148.953 230.855 150.922 230.855 153.176C230.855 155.411 230.42 157.376 229.548 159.071C228.677 160.757 227.437 162.073 225.827 163.02C224.226 163.957 222.323 164.426 220.116 164.426ZM220.145 159.739C221.149 159.739 221.987 159.455 222.659 158.886C223.331 158.309 223.838 157.523 224.179 156.528C224.529 155.534 224.705 154.402 224.705 153.134C224.705 151.865 224.529 150.733 224.179 149.739C223.838 148.744 223.331 147.958 222.659 147.381C221.987 146.803 221.149 146.514 220.145 146.514C219.132 146.514 218.279 146.803 217.588 147.381C216.906 147.958 216.39 148.744 216.04 149.739C215.699 150.733 215.528 151.865 215.528 153.134C215.528 154.402 215.699 155.534 216.04 156.528C216.39 157.523 216.906 158.309 217.588 158.886C218.279 159.455 219.132 159.739 220.145 159.739ZM254.474 164H244.161V134.909H254.559C257.485 134.909 260.004 135.491 262.116 136.656C264.228 137.812 265.852 139.473 266.988 141.642C268.134 143.811 268.707 146.405 268.707 149.426C268.707 152.456 268.134 155.061 266.988 157.239C265.852 159.417 264.218 161.088 262.087 162.253C259.966 163.418 257.428 164 254.474 164ZM250.312 158.73H254.218C256.036 158.73 257.566 158.408 258.806 157.764C260.056 157.111 260.994 156.102 261.619 154.739C262.253 153.366 262.57 151.595 262.57 149.426C262.57 147.277 262.253 145.52 261.619 144.156C260.994 142.793 260.061 141.789 258.82 141.145C257.58 140.501 256.05 140.179 254.232 140.179H250.312V158.73ZM273.149 164V142.182H279.016V145.989H279.243C279.641 144.634 280.308 143.612 281.246 142.92C282.183 142.22 283.263 141.869 284.484 141.869C284.787 141.869 285.114 141.888 285.464 141.926C285.815 141.964 286.123 142.016 286.388 142.082V147.452C286.104 147.366 285.711 147.291 285.209 147.224C284.707 147.158 284.248 147.125 283.831 147.125C282.941 147.125 282.145 147.319 281.445 147.707C280.753 148.086 280.204 148.616 279.797 149.298C279.399 149.98 279.2 150.766 279.2 151.656V164H273.149ZM290.553 164.369C289.616 164.369 288.811 164.038 288.138 163.375C287.476 162.703 287.144 161.898 287.144 160.96C287.144 160.032 287.476 159.237 288.138 158.574C288.811 157.911 289.616 157.58 290.553 157.58C291.462 157.58 292.258 157.911 292.94 158.574C293.621 159.237 293.962 160.032 293.962 160.96C293.962 161.585 293.801 162.158 293.479 162.679C293.167 163.19 292.755 163.602 292.244 163.915C291.732 164.218 291.169 164.369 290.553 164.369ZM311.949 164H305.358L315.401 134.909H323.327L333.355 164H326.764L319.477 141.557H319.25L311.949 164ZM311.537 152.565H327.105V157.366H311.537V152.565ZM336.743 164V142.182H342.609V145.989H342.837C343.234 144.634 343.902 143.612 344.839 142.92C345.777 142.22 346.857 141.869 348.078 141.869C348.381 141.869 348.708 141.888 349.058 141.926C349.409 141.964 349.716 142.016 349.982 142.082V147.452C349.697 147.366 349.304 147.291 348.803 147.224C348.301 147.158 347.841 147.125 347.425 147.125C346.535 147.125 345.739 147.319 345.038 147.707C344.347 148.086 343.798 148.616 343.391 149.298C342.993 149.98 342.794 150.766 342.794 151.656V164H336.743ZM359.161 151.386V164H353.11V142.182H358.877V146.031H359.133C359.616 144.762 360.425 143.759 361.562 143.02C362.698 142.272 364.076 141.898 365.695 141.898C367.21 141.898 368.531 142.229 369.658 142.892C370.785 143.555 371.661 144.502 372.286 145.733C372.911 146.955 373.224 148.413 373.224 150.108V164H367.173V151.188C367.182 149.852 366.841 148.811 366.15 148.062C365.459 147.305 364.507 146.926 363.295 146.926C362.48 146.926 361.761 147.101 361.136 147.452C360.52 147.802 360.037 148.313 359.687 148.986C359.346 149.649 359.171 150.449 359.161 151.386ZM387.851 164.426C385.644 164.426 383.736 163.957 382.126 163.02C380.526 162.073 379.29 160.757 378.419 159.071C377.548 157.376 377.112 155.411 377.112 153.176C377.112 150.922 377.548 148.953 378.419 147.267C379.29 145.572 380.526 144.256 382.126 143.318C383.736 142.371 385.644 141.898 387.851 141.898C390.057 141.898 391.961 142.371 393.561 143.318C395.171 144.256 396.411 145.572 397.283 147.267C398.154 148.953 398.589 150.922 398.589 153.176C398.589 155.411 398.154 157.376 397.283 159.071C396.411 160.757 395.171 162.073 393.561 163.02C391.961 163.957 390.057 164.426 387.851 164.426ZM387.879 159.739C388.883 159.739 389.721 159.455 390.393 158.886C391.066 158.309 391.572 157.523 391.913 156.528C392.264 155.534 392.439 154.402 392.439 153.134C392.439 151.865 392.264 150.733 391.913 149.739C391.572 148.744 391.066 147.958 390.393 147.381C389.721 146.803 388.883 146.514 387.879 146.514C386.866 146.514 386.014 146.803 385.322 147.381C384.641 147.958 384.125 148.744 383.774 149.739C383.433 150.733 383.263 151.865 383.263 153.134C383.263 154.402 383.433 155.534 383.774 156.528C384.125 157.523 384.641 158.309 385.322 158.886C386.014 159.455 386.866 159.739 387.879 159.739ZM408.575 134.909V164H402.524V134.909H408.575ZM421.462 164.355C419.805 164.355 418.304 163.929 416.96 163.077C415.624 162.215 414.564 160.951 413.778 159.284C413.001 157.608 412.613 155.553 412.613 153.119C412.613 150.619 413.015 148.541 413.82 146.884C414.625 145.217 415.695 143.972 417.031 143.148C418.375 142.314 419.848 141.898 421.448 141.898C422.67 141.898 423.688 142.106 424.502 142.523C425.326 142.93 425.989 143.441 426.491 144.057C427.002 144.663 427.39 145.259 427.656 145.847H427.84V134.909H433.877V164H427.911V160.506H427.656C427.371 161.112 426.969 161.713 426.448 162.31C425.937 162.897 425.269 163.384 424.445 163.773C423.631 164.161 422.637 164.355 421.462 164.355ZM423.38 159.54C424.355 159.54 425.179 159.275 425.852 158.744C426.533 158.205 427.054 157.452 427.414 156.486C427.783 155.52 427.968 154.388 427.968 153.091C427.968 151.794 427.788 150.667 427.428 149.71C427.068 148.754 426.548 148.015 425.866 147.494C425.184 146.973 424.355 146.713 423.38 146.713C422.386 146.713 421.548 146.983 420.866 147.523C420.184 148.062 419.668 148.811 419.317 149.767C418.967 150.723 418.792 151.831 418.792 153.091C418.792 154.36 418.967 155.482 419.317 156.457C419.677 157.423 420.193 158.181 420.866 158.73C421.548 159.27 422.386 159.54 423.38 159.54ZM450.457 142.182V146.727H437.318V142.182H450.457ZM440.301 136.955H446.352V157.295C446.352 157.854 446.438 158.29 446.608 158.602C446.778 158.905 447.015 159.118 447.318 159.241C447.631 159.365 447.991 159.426 448.398 159.426C448.682 159.426 448.966 159.402 449.25 159.355C449.534 159.298 449.752 159.256 449.903 159.227L450.855 163.73C450.552 163.825 450.126 163.934 449.577 164.057C449.027 164.189 448.36 164.27 447.574 164.298C446.116 164.355 444.837 164.161 443.739 163.716C442.65 163.271 441.802 162.58 441.196 161.642C440.59 160.705 440.292 159.521 440.301 158.091V136.955ZM460.976 160.023L460.82 161.585C460.696 162.835 460.46 164.08 460.109 165.321C459.768 166.571 459.409 167.703 459.03 168.716C458.661 169.729 458.362 170.525 458.135 171.102H454.214C454.357 170.544 454.551 169.762 454.797 168.759C455.043 167.764 455.275 166.647 455.493 165.406C455.711 164.166 455.848 162.902 455.905 161.614L455.976 160.023H460.976ZM139.719 212L133.781 190.182H139.903L143.284 204.841H143.483L147.006 190.182H153.014L156.594 204.756H156.778L160.102 190.182H166.21L160.287 212H153.881L150.131 198.278H149.861L146.111 212H139.719ZM169.438 212V190.182H175.489V212H169.438ZM172.478 187.369C171.578 187.369 170.807 187.071 170.163 186.474C169.528 185.868 169.211 185.144 169.211 184.301C169.211 183.468 169.528 182.753 170.163 182.156C170.807 181.55 171.578 181.247 172.478 181.247C173.378 181.247 174.145 181.55 174.779 182.156C175.423 182.753 175.745 183.468 175.745 184.301C175.745 185.144 175.423 185.868 174.779 186.474C174.145 187.071 173.378 187.369 172.478 187.369ZM180.337 212V190.182H186.203V193.989H186.43C186.828 192.634 187.496 191.612 188.433 190.92C189.371 190.22 190.45 189.869 191.672 189.869C191.975 189.869 192.302 189.888 192.652 189.926C193.002 189.964 193.31 190.016 193.575 190.082V195.452C193.291 195.366 192.898 195.291 192.396 195.224C191.894 195.158 191.435 195.125 191.018 195.125C190.128 195.125 189.333 195.319 188.632 195.707C187.941 196.086 187.392 196.616 186.984 197.298C186.587 197.98 186.388 198.766 186.388 199.656V212H180.337ZM212.013 199.386V212H205.962V182.909H211.842V194.031H212.098C212.59 192.743 213.386 191.735 214.484 191.006C215.583 190.267 216.961 189.898 218.618 189.898C220.133 189.898 221.454 190.229 222.581 190.892C223.717 191.545 224.598 192.488 225.223 193.719C225.857 194.94 226.17 196.403 226.161 198.108V212H220.109V199.188C220.119 197.843 219.778 196.796 219.087 196.048C218.405 195.3 217.448 194.926 216.217 194.926C215.393 194.926 214.664 195.101 214.03 195.452C213.405 195.802 212.912 196.313 212.553 196.986C212.202 197.649 212.022 198.449 212.013 199.386ZM237.144 212.412C235.752 212.412 234.512 212.17 233.423 211.688C232.334 211.195 231.472 210.471 230.837 209.514C230.212 208.548 229.9 207.346 229.9 205.906C229.9 204.694 230.122 203.676 230.567 202.852C231.013 202.028 231.619 201.366 232.386 200.864C233.153 200.362 234.024 199.983 234.999 199.727C235.984 199.472 237.016 199.292 238.096 199.188C239.365 199.055 240.388 198.932 241.164 198.818C241.941 198.695 242.504 198.515 242.854 198.278C243.205 198.042 243.38 197.691 243.38 197.227V197.142C243.38 196.242 243.096 195.546 242.528 195.054C241.969 194.562 241.174 194.315 240.141 194.315C239.052 194.315 238.186 194.557 237.542 195.04C236.898 195.513 236.472 196.11 236.263 196.83L230.667 196.375C230.951 195.049 231.51 193.903 232.343 192.938C233.176 191.962 234.251 191.214 235.567 190.693C236.893 190.163 238.427 189.898 240.17 189.898C241.382 189.898 242.542 190.04 243.65 190.324C244.767 190.608 245.757 191.048 246.619 191.645C247.49 192.241 248.176 193.009 248.678 193.946C249.18 194.874 249.431 195.987 249.431 197.284V212H243.692V208.974H243.522C243.172 209.656 242.703 210.258 242.116 210.778C241.529 211.29 240.823 211.692 239.999 211.986C239.175 212.27 238.224 212.412 237.144 212.412ZM238.877 208.236C239.767 208.236 240.553 208.061 241.235 207.71C241.917 207.35 242.452 206.867 242.84 206.261C243.228 205.655 243.423 204.969 243.423 204.202V201.886C243.233 202.009 242.973 202.123 242.641 202.227C242.319 202.322 241.955 202.412 241.548 202.497C241.14 202.573 240.733 202.644 240.326 202.71C239.919 202.767 239.549 202.819 239.218 202.866C238.508 202.971 237.888 203.136 237.357 203.364C236.827 203.591 236.415 203.899 236.121 204.287C235.828 204.666 235.681 205.139 235.681 205.707C235.681 206.531 235.979 207.161 236.576 207.597C237.182 208.023 237.949 208.236 238.877 208.236ZM254.239 212V182.909H260.29V193.847H260.475C260.74 193.259 261.124 192.663 261.626 192.057C262.137 191.441 262.8 190.93 263.614 190.523C264.438 190.106 265.461 189.898 266.683 189.898C268.273 189.898 269.741 190.314 271.086 191.148C272.431 191.972 273.505 193.217 274.31 194.884C275.115 196.541 275.518 198.619 275.518 201.119C275.518 203.553 275.125 205.608 274.339 207.284C273.562 208.951 272.502 210.215 271.157 211.077C269.822 211.929 268.326 212.355 266.668 212.355C265.494 212.355 264.495 212.161 263.671 211.773C262.857 211.384 262.189 210.897 261.668 210.31C261.147 209.713 260.75 209.112 260.475 208.506H260.205V212H254.239ZM260.163 201.091C260.163 202.388 260.343 203.52 260.702 204.486C261.062 205.452 261.583 206.205 262.265 206.744C262.947 207.275 263.775 207.54 264.751 207.54C265.736 207.54 266.569 207.27 267.251 206.73C267.933 206.181 268.449 205.423 268.799 204.457C269.159 203.482 269.339 202.36 269.339 201.091C269.339 199.831 269.164 198.723 268.813 197.767C268.463 196.811 267.947 196.062 267.265 195.523C266.583 194.983 265.745 194.713 264.751 194.713C263.766 194.713 262.933 194.973 262.251 195.494C261.578 196.015 261.062 196.754 260.702 197.71C260.343 198.667 260.163 199.794 260.163 201.091ZM289.499 212.426C287.254 212.426 285.322 211.972 283.703 211.062C282.093 210.144 280.853 208.847 279.982 207.17C279.11 205.485 278.675 203.491 278.675 201.19C278.675 198.946 279.11 196.976 279.982 195.281C280.853 193.586 282.079 192.265 283.661 191.318C285.251 190.371 287.117 189.898 289.257 189.898C290.696 189.898 292.036 190.13 293.277 190.594C294.527 191.048 295.616 191.735 296.544 192.653C297.482 193.572 298.211 194.727 298.732 196.119C299.252 197.502 299.513 199.121 299.513 200.977V202.639H281.089V198.889H293.817C293.817 198.018 293.627 197.246 293.249 196.574C292.87 195.902 292.344 195.376 291.672 194.997C291.009 194.609 290.237 194.415 289.357 194.415C288.438 194.415 287.624 194.628 286.913 195.054C286.213 195.471 285.663 196.034 285.266 196.744C284.868 197.445 284.664 198.226 284.655 199.088V202.653C284.655 203.733 284.854 204.666 285.251 205.452C285.659 206.238 286.232 206.844 286.97 207.27C287.709 207.696 288.585 207.909 289.598 207.909C290.27 207.909 290.886 207.814 291.445 207.625C292.003 207.436 292.482 207.152 292.879 206.773C293.277 206.394 293.58 205.93 293.788 205.381L299.385 205.75C299.101 207.095 298.518 208.269 297.638 209.273C296.767 210.267 295.64 211.044 294.257 211.602C292.884 212.152 291.298 212.426 289.499 212.426ZM309.513 199.386V212H303.462V190.182H309.229V194.031H309.484C309.967 192.762 310.777 191.759 311.913 191.02C313.05 190.272 314.428 189.898 316.047 189.898C317.562 189.898 318.883 190.229 320.01 190.892C321.137 191.555 322.013 192.502 322.638 193.733C323.263 194.955 323.575 196.413 323.575 198.108V212H317.524V199.188C317.534 197.852 317.193 196.811 316.501 196.062C315.81 195.305 314.858 194.926 313.646 194.926C312.832 194.926 312.112 195.101 311.487 195.452C310.872 195.802 310.389 196.313 310.038 196.986C309.697 197.649 309.522 198.449 309.513 199.386ZM337.602 212V190.182H343.653V212H337.602ZM340.642 187.369C339.742 187.369 338.971 187.071 338.327 186.474C337.692 185.868 337.375 185.144 337.375 184.301C337.375 183.468 337.692 182.753 338.327 182.156C338.971 181.55 339.742 181.247 340.642 181.247C341.542 181.247 342.309 181.55 342.943 182.156C343.587 182.753 343.909 183.468 343.909 184.301C343.909 185.144 343.587 185.868 342.943 186.474C342.309 187.071 341.542 187.369 340.642 187.369ZM354.552 199.386V212H348.501V182.909H354.381V194.031H354.637C355.129 192.743 355.925 191.735 357.023 191.006C358.122 190.267 359.5 189.898 361.157 189.898C362.672 189.898 363.993 190.229 365.12 190.892C366.256 191.545 367.137 192.488 367.762 193.719C368.397 194.94 368.709 196.403 368.7 198.108V212H362.648V199.188C362.658 197.843 362.317 196.796 361.626 196.048C360.944 195.3 359.987 194.926 358.756 194.926C357.933 194.926 357.203 195.101 356.569 195.452C355.944 195.802 355.451 196.313 355.092 196.986C354.741 197.649 354.561 198.449 354.552 199.386ZM373.462 212V190.182H379.328V193.989H379.555C379.953 192.634 380.621 191.612 381.558 190.92C382.496 190.22 383.575 189.869 384.797 189.869C385.1 189.869 385.427 189.888 385.777 189.926C386.127 189.964 386.435 190.016 386.7 190.082V195.452C386.416 195.366 386.023 195.291 385.521 195.224C385.019 195.158 384.56 195.125 384.143 195.125C383.253 195.125 382.458 195.319 381.757 195.707C381.066 196.086 380.517 196.616 380.109 197.298C379.712 197.98 379.513 198.766 379.513 199.656V212H373.462ZM398.756 212.426C396.512 212.426 394.58 211.972 392.961 211.062C391.351 210.144 390.111 208.847 389.239 207.17C388.368 205.485 387.933 203.491 387.933 201.19C387.933 198.946 388.368 196.976 389.239 195.281C390.111 193.586 391.337 192.265 392.918 191.318C394.509 190.371 396.375 189.898 398.515 189.898C399.954 189.898 401.294 190.13 402.535 190.594C403.785 191.048 404.874 191.735 405.802 192.653C406.739 193.572 407.469 194.727 407.989 196.119C408.51 197.502 408.771 199.121 408.771 200.977V202.639H390.347V198.889H403.075C403.075 198.018 402.885 197.246 402.506 196.574C402.128 195.902 401.602 195.376 400.93 194.997C400.267 194.609 399.495 194.415 398.614 194.415C397.696 194.415 396.881 194.628 396.171 195.054C395.47 195.471 394.921 196.034 394.523 196.744C394.126 197.445 393.922 198.226 393.913 199.088V202.653C393.913 203.733 394.112 204.666 394.509 205.452C394.916 206.238 395.489 206.844 396.228 207.27C396.967 207.696 397.843 207.909 398.856 207.909C399.528 207.909 400.144 207.814 400.702 207.625C401.261 207.436 401.739 207.152 402.137 206.773C402.535 206.394 402.838 205.93 403.046 205.381L408.643 205.75C408.359 207.095 407.776 208.269 406.896 209.273C406.024 210.267 404.897 211.044 403.515 211.602C402.142 212.152 400.556 212.426 398.756 212.426ZM418.771 199.386V212H412.719V190.182H418.487V194.031H418.742C419.225 192.762 420.035 191.759 421.171 191.02C422.308 190.272 423.685 189.898 425.305 189.898C426.82 189.898 428.141 190.229 429.268 190.892C430.395 191.555 431.271 192.502 431.896 193.733C432.521 194.955 432.833 196.413 432.833 198.108V212H426.782V199.188C426.791 197.852 426.451 196.811 425.759 196.062C425.068 195.305 424.116 194.926 422.904 194.926C422.09 194.926 421.37 195.101 420.745 195.452C420.129 195.802 419.647 196.313 419.296 196.986C418.955 197.649 418.78 198.449 418.771 199.386ZM464.942 182.909H471.093V201.801C471.093 203.922 470.586 205.778 469.573 207.369C468.569 208.96 467.163 210.201 465.354 211.091C463.546 211.972 461.439 212.412 459.033 212.412C456.619 212.412 454.507 211.972 452.698 211.091C450.889 210.201 449.483 208.96 448.479 207.369C447.476 205.778 446.974 203.922 446.974 201.801V182.909H453.124V201.276C453.124 202.384 453.366 203.368 453.849 204.23C454.341 205.092 455.032 205.769 455.923 206.261C456.813 206.754 457.85 207 459.033 207C460.227 207 461.263 206.754 462.144 206.261C463.034 205.769 463.721 205.092 464.204 204.23C464.696 203.368 464.942 202.384 464.942 201.276V182.909ZM491.935 191.276C491.821 190.13 491.333 189.24 490.472 188.605C489.61 187.971 488.44 187.653 486.963 187.653C485.959 187.653 485.112 187.795 484.42 188.08C483.729 188.354 483.199 188.738 482.83 189.23C482.47 189.723 482.29 190.281 482.29 190.906C482.271 191.427 482.38 191.882 482.616 192.27C482.863 192.658 483.199 192.994 483.625 193.278C484.051 193.553 484.544 193.795 485.102 194.003C485.661 194.202 486.258 194.372 486.892 194.514L489.506 195.139C490.775 195.423 491.939 195.802 493 196.276C494.061 196.749 494.979 197.331 495.756 198.023C496.532 198.714 497.134 199.528 497.56 200.466C497.995 201.403 498.218 202.478 498.227 203.69C498.218 205.471 497.763 207.014 496.864 208.321C495.973 209.618 494.686 210.627 493 211.347C491.324 212.057 489.302 212.412 486.935 212.412C484.586 212.412 482.541 212.052 480.798 211.332C479.065 210.613 477.711 209.547 476.736 208.136C475.77 206.716 475.263 204.959 475.216 202.866H481.168C481.234 203.842 481.513 204.656 482.006 205.31C482.508 205.954 483.175 206.441 484.009 206.773C484.851 207.095 485.803 207.256 486.864 207.256C487.905 207.256 488.81 207.104 489.577 206.801C490.353 206.498 490.955 206.077 491.381 205.537C491.807 204.997 492.02 204.377 492.02 203.676C492.02 203.023 491.826 202.473 491.438 202.028C491.059 201.583 490.5 201.205 489.761 200.892C489.032 200.58 488.137 200.295 487.077 200.04L483.909 199.244C481.456 198.648 479.52 197.715 478.099 196.446C476.679 195.177 475.973 193.468 475.983 191.318C475.973 189.557 476.442 188.018 477.389 186.702C478.346 185.385 479.657 184.358 481.324 183.619C482.991 182.881 484.884 182.511 487.006 182.511C489.165 182.511 491.049 182.881 492.659 183.619C494.278 184.358 495.538 185.385 496.438 186.702C497.337 188.018 497.801 189.543 497.83 191.276H491.935ZM502.364 212V182.909H514.012C516.152 182.909 517.937 183.226 519.367 183.861C520.797 184.495 521.872 185.376 522.592 186.503C523.311 187.62 523.671 188.908 523.671 190.366C523.671 191.503 523.444 192.502 522.989 193.364C522.535 194.216 521.91 194.917 521.114 195.466C520.328 196.006 519.429 196.389 518.415 196.616V196.901C519.523 196.948 520.56 197.26 521.526 197.838C522.502 198.416 523.292 199.225 523.898 200.267C524.504 201.299 524.808 202.53 524.808 203.96C524.808 205.504 524.424 206.882 523.657 208.094C522.899 209.296 521.777 210.248 520.29 210.949C518.804 211.65 516.971 212 514.793 212H502.364ZM508.515 206.972H513.529C515.243 206.972 516.493 206.645 517.279 205.991C518.065 205.329 518.458 204.448 518.458 203.349C518.458 202.545 518.264 201.834 517.876 201.219C517.487 200.603 516.933 200.12 516.214 199.77C515.504 199.42 514.656 199.244 513.671 199.244H508.515V206.972ZM508.515 195.082H513.075C513.917 195.082 514.665 194.936 515.319 194.642C515.982 194.339 516.503 193.913 516.881 193.364C517.27 192.814 517.464 192.156 517.464 191.389C517.464 190.338 517.09 189.491 516.342 188.847C515.603 188.203 514.552 187.881 513.188 187.881H508.515V195.082ZM542.29 195.054V199.855H529.023V195.054H542.29ZM563.341 191.276C563.227 190.13 562.74 189.24 561.878 188.605C561.016 187.971 559.847 187.653 558.369 187.653C557.366 187.653 556.518 187.795 555.827 188.08C555.135 188.354 554.605 188.738 554.236 189.23C553.876 189.723 553.696 190.281 553.696 190.906C553.677 191.427 553.786 191.882 554.023 192.27C554.269 192.658 554.605 192.994 555.031 193.278C555.457 193.553 555.95 193.795 556.509 194.003C557.067 194.202 557.664 194.372 558.298 194.514L560.912 195.139C562.181 195.423 563.346 195.802 564.406 196.276C565.467 196.749 566.385 197.331 567.162 198.023C567.938 198.714 568.54 199.528 568.966 200.466C569.402 201.403 569.624 202.478 569.634 203.69C569.624 205.471 569.17 207.014 568.27 208.321C567.38 209.618 566.092 210.627 564.406 211.347C562.73 212.057 560.708 212.412 558.341 212.412C555.992 212.412 553.947 212.052 552.205 211.332C550.472 210.613 549.117 209.547 548.142 208.136C547.176 206.716 546.67 204.959 546.622 202.866H552.574C552.64 203.842 552.92 204.656 553.412 205.31C553.914 205.954 554.581 206.441 555.415 206.773C556.258 207.095 557.209 207.256 558.27 207.256C559.312 207.256 560.216 207.104 560.983 206.801C561.759 206.498 562.361 206.077 562.787 205.537C563.213 204.997 563.426 204.377 563.426 203.676C563.426 203.023 563.232 202.473 562.844 202.028C562.465 201.583 561.906 201.205 561.168 200.892C560.438 200.58 559.544 200.295 558.483 200.04L555.315 199.244C552.863 198.648 550.926 197.715 549.506 196.446C548.085 195.177 547.38 193.468 547.389 191.318C547.38 189.557 547.848 188.018 548.795 186.702C549.752 185.385 551.063 184.358 552.73 183.619C554.397 182.881 556.291 182.511 558.412 182.511C560.571 182.511 562.455 182.881 564.065 183.619C565.685 184.358 566.944 185.385 567.844 186.702C568.743 188.018 569.207 189.543 569.236 191.276H563.341ZM585.262 190.182V194.727H572.123V190.182H585.262ZM575.106 184.955H581.157V205.295C581.157 205.854 581.242 206.29 581.413 206.602C581.583 206.905 581.82 207.118 582.123 207.241C582.435 207.365 582.795 207.426 583.202 207.426C583.487 207.426 583.771 207.402 584.055 207.355C584.339 207.298 584.557 207.256 584.708 207.227L585.66 211.73C585.357 211.825 584.931 211.934 584.381 212.057C583.832 212.189 583.165 212.27 582.379 212.298C580.92 212.355 579.642 212.161 578.543 211.716C577.454 211.271 576.607 210.58 576.001 209.642C575.395 208.705 575.096 207.521 575.106 206.091V184.955ZM589.204 212V190.182H595.255V212H589.204ZM592.244 187.369C591.344 187.369 590.572 187.071 589.928 186.474C589.294 185.868 588.977 185.144 588.977 184.301C588.977 183.468 589.294 182.753 589.928 182.156C590.572 181.55 591.344 181.247 592.244 181.247C593.143 181.247 593.91 181.55 594.545 182.156C595.189 182.753 595.511 183.468 595.511 184.301C595.511 185.144 595.189 185.868 594.545 186.474C593.91 187.071 593.143 187.369 592.244 187.369ZM609.96 212.426C607.725 212.426 605.803 211.953 604.193 211.006C602.593 210.049 601.362 208.723 600.5 207.028C599.648 205.333 599.222 203.383 599.222 201.176C599.222 198.941 599.652 196.981 600.514 195.295C601.385 193.6 602.621 192.279 604.222 191.332C605.822 190.376 607.725 189.898 609.932 189.898C611.835 189.898 613.502 190.243 614.932 190.935C616.362 191.626 617.493 192.597 618.327 193.847C619.16 195.097 619.619 196.564 619.705 198.25H613.994C613.833 197.161 613.407 196.285 612.716 195.622C612.034 194.95 611.139 194.614 610.031 194.614C609.094 194.614 608.275 194.869 607.574 195.381C606.883 195.883 606.343 196.616 605.955 197.582C605.566 198.548 605.372 199.718 605.372 201.091C605.372 202.483 605.562 203.667 605.94 204.642C606.329 205.617 606.873 206.361 607.574 206.872C608.275 207.384 609.094 207.639 610.031 207.639C610.723 207.639 611.343 207.497 611.892 207.213C612.451 206.929 612.91 206.517 613.27 205.977C613.639 205.428 613.881 204.77 613.994 204.003H619.705C619.61 205.67 619.155 207.137 618.341 208.406C617.536 209.666 616.423 210.651 615.003 211.361C613.582 212.071 611.902 212.426 609.96 212.426ZM629.062 205.722L629.076 198.463H629.957L636.945 190.182H643.891L634.502 201.148H633.067L629.062 205.722ZM623.579 212V182.909H629.63V212H623.579ZM637.215 212L630.795 202.497L634.829 198.222L644.303 212H637.215ZM665.947 220.636C663.987 220.636 662.306 220.366 660.905 219.827C659.513 219.296 658.405 218.572 657.581 217.653C656.757 216.735 656.222 215.703 655.976 214.557L661.572 213.804C661.743 214.24 662.013 214.647 662.382 215.026C662.751 215.404 663.239 215.707 663.845 215.935C664.461 216.171 665.209 216.29 666.089 216.29C667.406 216.29 668.49 215.968 669.342 215.324C670.204 214.689 670.635 213.624 670.635 212.128V208.136H670.379C670.114 208.742 669.716 209.315 669.186 209.855C668.656 210.395 667.974 210.835 667.141 211.176C666.307 211.517 665.313 211.688 664.158 211.688C662.519 211.688 661.028 211.309 659.683 210.551C658.348 209.784 657.283 208.615 656.487 207.043C655.701 205.461 655.308 203.463 655.308 201.048C655.308 198.577 655.711 196.512 656.516 194.855C657.321 193.198 658.391 191.957 659.726 191.134C661.071 190.31 662.543 189.898 664.143 189.898C665.365 189.898 666.388 190.106 667.212 190.523C668.036 190.93 668.698 191.441 669.2 192.057C669.712 192.663 670.105 193.259 670.379 193.847H670.607V190.182H676.615V212.213C676.615 214.069 676.161 215.622 675.251 216.872C674.342 218.122 673.083 219.06 671.473 219.685C669.873 220.319 668.031 220.636 665.947 220.636ZM666.075 207.142C667.051 207.142 667.875 206.901 668.547 206.418C669.229 205.925 669.75 205.224 670.109 204.315C670.479 203.397 670.663 202.298 670.663 201.02C670.663 199.741 670.483 198.634 670.124 197.696C669.764 196.749 669.243 196.015 668.561 195.494C667.879 194.973 667.051 194.713 666.075 194.713C665.081 194.713 664.243 194.983 663.561 195.523C662.879 196.053 662.363 196.792 662.013 197.739C661.662 198.686 661.487 199.779 661.487 201.02C661.487 202.279 661.662 203.368 662.013 204.287C662.373 205.196 662.889 205.902 663.561 206.403C664.243 206.896 665.081 207.142 666.075 207.142ZM691.374 212.426C689.129 212.426 687.197 211.972 685.578 211.062C683.968 210.144 682.728 208.847 681.857 207.17C680.985 205.485 680.55 203.491 680.55 201.19C680.55 198.946 680.985 196.976 681.857 195.281C682.728 193.586 683.954 192.265 685.536 191.318C687.126 190.371 688.992 189.898 691.132 189.898C692.571 189.898 693.911 190.13 695.152 190.594C696.402 191.048 697.491 191.735 698.419 192.653C699.357 193.572 700.086 194.727 700.607 196.119C701.127 197.502 701.388 199.121 701.388 200.977V202.639H682.964V198.889H695.692C695.692 198.018 695.502 197.246 695.124 196.574C694.745 195.902 694.219 195.376 693.547 194.997C692.884 194.609 692.112 194.415 691.232 194.415C690.313 194.415 689.499 194.628 688.788 195.054C688.088 195.471 687.538 196.034 687.141 196.744C686.743 197.445 686.539 198.226 686.53 199.088V202.653C686.53 203.733 686.729 204.666 687.126 205.452C687.534 206.238 688.107 206.844 688.845 207.27C689.584 207.696 690.46 207.909 691.473 207.909C692.145 207.909 692.761 207.814 693.32 207.625C693.878 207.436 694.357 207.152 694.754 206.773C695.152 206.394 695.455 205.93 695.663 205.381L701.26 205.75C700.976 207.095 700.393 208.269 699.513 209.273C698.642 210.267 697.515 211.044 696.132 211.602C694.759 212.152 693.173 212.426 691.374 212.426ZM717.07 190.182V194.727H703.604V190.182H717.07ZM706.686 212V188.605C706.686 187.024 706.994 185.712 707.609 184.67C708.234 183.629 709.087 182.848 710.166 182.327C711.246 181.806 712.472 181.545 713.845 181.545C714.773 181.545 715.621 181.616 716.388 181.759C717.164 181.901 717.742 182.028 718.121 182.142L717.041 186.688C716.804 186.612 716.511 186.541 716.161 186.474C715.82 186.408 715.469 186.375 715.109 186.375C714.219 186.375 713.599 186.583 713.249 187C712.898 187.407 712.723 187.98 712.723 188.719V212H706.686ZM734.758 202.71V190.182H740.809V212H734.999V208.037H734.772C734.28 209.315 733.46 210.343 732.315 211.119C731.178 211.896 729.791 212.284 728.153 212.284C726.694 212.284 725.411 211.953 724.303 211.29C723.195 210.627 722.329 209.685 721.704 208.463C721.088 207.241 720.776 205.778 720.766 204.074V190.182H726.817V202.994C726.827 204.282 727.173 205.3 727.854 206.048C728.536 206.796 729.45 207.17 730.596 207.17C731.325 207.17 732.007 207.005 732.641 206.673C733.276 206.332 733.787 205.83 734.175 205.168C734.573 204.505 734.767 203.686 734.758 202.71ZM751.7 199.386V212H745.649V190.182H751.416V194.031H751.672C752.155 192.762 752.964 191.759 754.101 191.02C755.237 190.272 756.615 189.898 758.234 189.898C759.75 189.898 761.071 190.229 762.197 190.892C763.324 191.555 764.2 192.502 764.825 193.733C765.45 194.955 765.763 196.413 765.763 198.108V212H759.712V199.188C759.721 197.852 759.38 196.811 758.689 196.062C757.998 195.305 757.046 194.926 755.834 194.926C755.019 194.926 754.3 195.101 753.675 195.452C753.059 195.802 752.576 196.313 752.226 196.986C751.885 197.649 751.71 198.449 751.7 199.386ZM778.572 212.355C776.915 212.355 775.414 211.929 774.069 211.077C772.734 210.215 771.673 208.951 770.887 207.284C770.111 205.608 769.722 203.553 769.722 201.119C769.722 198.619 770.125 196.541 770.93 194.884C771.735 193.217 772.805 191.972 774.14 191.148C775.485 190.314 776.957 189.898 778.558 189.898C779.779 189.898 780.797 190.106 781.612 190.523C782.435 190.93 783.098 191.441 783.6 192.057C784.112 192.663 784.5 193.259 784.765 193.847H784.95V182.909H790.987V212H785.021V208.506H784.765C784.481 209.112 784.078 209.713 783.558 210.31C783.046 210.897 782.379 211.384 781.555 211.773C780.74 212.161 779.746 212.355 778.572 212.355ZM780.489 207.54C781.465 207.54 782.289 207.275 782.961 206.744C783.643 206.205 784.164 205.452 784.523 204.486C784.893 203.52 785.077 202.388 785.077 201.091C785.077 199.794 784.897 198.667 784.538 197.71C784.178 196.754 783.657 196.015 782.975 195.494C782.293 194.973 781.465 194.713 780.489 194.713C779.495 194.713 778.657 194.983 777.975 195.523C777.293 196.062 776.777 196.811 776.427 197.767C776.076 198.723 775.901 199.831 775.901 201.091C775.901 202.36 776.076 203.482 776.427 204.457C776.787 205.423 777.303 206.181 777.975 206.73C778.657 207.27 779.495 207.54 780.489 207.54ZM805.905 212.426C803.661 212.426 801.729 211.972 800.109 211.062C798.5 210.144 797.259 208.847 796.388 207.17C795.517 205.485 795.081 203.491 795.081 201.19C795.081 198.946 795.517 196.976 796.388 195.281C797.259 193.586 798.485 192.265 800.067 191.318C801.658 190.371 803.523 189.898 805.663 189.898C807.103 189.898 808.443 190.13 809.683 190.594C810.933 191.048 812.022 191.735 812.95 192.653C813.888 193.572 814.617 194.727 815.138 196.119C815.659 197.502 815.919 199.121 815.919 200.977V202.639H797.496V198.889H810.223C810.223 198.018 810.034 197.246 809.655 196.574C809.276 195.902 808.75 195.376 808.078 194.997C807.415 194.609 806.643 194.415 805.763 194.415C804.844 194.415 804.03 194.628 803.32 195.054C802.619 195.471 802.07 196.034 801.672 196.744C801.274 197.445 801.071 198.226 801.061 199.088V202.653C801.061 203.733 801.26 204.666 801.658 205.452C802.065 206.238 802.638 206.844 803.376 207.27C804.115 207.696 804.991 207.909 806.004 207.909C806.677 207.909 807.292 207.814 807.851 207.625C808.41 207.436 808.888 207.152 809.286 206.773C809.683 206.394 809.986 205.93 810.195 205.381L815.791 205.75C815.507 207.095 814.925 208.269 814.044 209.273C813.173 210.267 812.046 211.044 810.663 211.602C809.29 212.152 807.704 212.426 805.905 212.426ZM825.919 199.386V212H819.868V190.182H825.635V194.031H825.891C826.374 192.762 827.183 191.759 828.32 191.02C829.456 190.272 830.834 189.898 832.453 189.898C833.968 189.898 835.289 190.229 836.416 190.892C837.543 191.555 838.419 192.502 839.044 193.733C839.669 194.955 839.982 196.413 839.982 198.108V212H833.93V199.188C833.94 197.852 833.599 196.811 832.908 196.062C832.216 195.305 831.265 194.926 830.053 194.926C829.238 194.926 828.518 195.101 827.893 195.452C827.278 195.802 826.795 196.313 826.445 196.986C826.104 197.649 825.929 198.449 825.919 199.386ZM851.327 208.023L851.171 209.585C851.048 210.835 850.811 212.08 850.461 213.321C850.12 214.571 849.76 215.703 849.381 216.716C849.012 217.729 848.714 218.525 848.487 219.102H844.566C844.708 218.544 844.902 217.762 845.148 216.759C845.395 215.764 845.627 214.647 845.844 213.406C846.062 212.166 846.2 210.902 846.256 209.614L846.327 208.023H851.327ZM882.904 196.403L877.364 196.744C877.27 196.271 877.066 195.845 876.754 195.466C876.441 195.078 876.029 194.77 875.518 194.543C875.016 194.306 874.415 194.188 873.714 194.188C872.776 194.188 871.986 194.386 871.342 194.784C870.698 195.172 870.376 195.693 870.376 196.347C870.376 196.867 870.584 197.308 871.001 197.668C871.417 198.027 872.132 198.316 873.146 198.534L877.094 199.33C879.216 199.765 880.797 200.466 881.839 201.432C882.88 202.398 883.401 203.667 883.401 205.239C883.401 206.669 882.98 207.923 882.137 209.003C881.304 210.082 880.158 210.925 878.7 211.531C877.251 212.128 875.579 212.426 873.685 212.426C870.797 212.426 868.496 211.825 866.782 210.622C865.077 209.41 864.078 207.762 863.785 205.679L869.737 205.366C869.916 206.247 870.352 206.92 871.043 207.384C871.735 207.838 872.62 208.065 873.7 208.065C874.76 208.065 875.612 207.862 876.256 207.455C876.91 207.038 877.241 206.503 877.251 205.849C877.241 205.3 877.009 204.85 876.555 204.5C876.1 204.14 875.399 203.866 874.452 203.676L870.674 202.923C868.543 202.497 866.957 201.759 865.915 200.707C864.883 199.656 864.367 198.316 864.367 196.688C864.367 195.286 864.746 194.079 865.504 193.065C866.271 192.052 867.345 191.271 868.728 190.722C870.12 190.172 871.749 189.898 873.614 189.898C876.37 189.898 878.539 190.48 880.12 191.645C881.711 192.81 882.639 194.396 882.904 196.403ZM887.212 212V190.182H893.263V212H887.212ZM890.251 187.369C889.352 187.369 888.58 187.071 887.936 186.474C887.302 185.868 886.984 185.144 886.984 184.301C886.984 183.468 887.302 182.753 887.936 182.156C888.58 181.55 889.352 181.247 890.251 181.247C891.151 181.247 891.918 181.55 892.553 182.156C893.196 182.753 893.518 183.468 893.518 184.301C893.518 185.144 893.196 185.868 892.553 186.474C891.918 187.071 891.151 187.369 890.251 187.369ZM908.053 212.426C905.809 212.426 903.877 211.972 902.258 211.062C900.648 210.144 899.407 208.847 898.536 207.17C897.665 205.485 897.229 203.491 897.229 201.19C897.229 198.946 897.665 196.976 898.536 195.281C899.407 193.586 900.634 192.265 902.215 191.318C903.806 190.371 905.672 189.898 907.812 189.898C909.251 189.898 910.591 190.13 911.832 190.594C913.082 191.048 914.171 191.735 915.099 192.653C916.036 193.572 916.765 194.727 917.286 196.119C917.807 197.502 918.067 199.121 918.067 200.977V202.639H899.644V198.889H912.371C912.371 198.018 912.182 197.246 911.803 196.574C911.424 195.902 910.899 195.376 910.227 194.997C909.564 194.609 908.792 194.415 907.911 194.415C906.993 194.415 906.178 194.628 905.468 195.054C904.767 195.471 904.218 196.034 903.82 196.744C903.423 197.445 903.219 198.226 903.21 199.088V202.653C903.21 203.733 903.408 204.666 903.806 205.452C904.213 206.238 904.786 206.844 905.525 207.27C906.263 207.696 907.139 207.909 908.153 207.909C908.825 207.909 909.441 207.814 909.999 207.625C910.558 207.436 911.036 207.152 911.434 206.773C911.832 206.394 912.135 205.93 912.343 205.381L917.94 205.75C917.656 207.095 917.073 208.269 916.192 209.273C915.321 210.267 914.194 211.044 912.812 211.602C911.439 212.152 909.853 212.426 908.053 212.426ZM141.466 247.386V260H135.415V230.909H141.295V242.031H141.551C142.044 240.743 142.839 239.735 143.938 239.006C145.036 238.267 146.414 237.898 148.071 237.898C149.586 237.898 150.907 238.229 152.034 238.892C153.17 239.545 154.051 240.488 154.676 241.719C155.311 242.94 155.623 244.403 155.614 246.108V260H149.562V247.188C149.572 245.843 149.231 244.796 148.54 244.048C147.858 243.3 146.902 242.926 145.67 242.926C144.847 242.926 144.117 243.101 143.483 243.452C142.858 243.802 142.366 244.313 142.006 244.986C141.655 245.649 141.475 246.449 141.466 247.386ZM166.597 260.412C165.205 260.412 163.965 260.17 162.876 259.688C161.787 259.195 160.925 258.471 160.29 257.514C159.665 256.548 159.353 255.346 159.353 253.906C159.353 252.694 159.576 251.676 160.021 250.852C160.466 250.028 161.072 249.366 161.839 248.864C162.606 248.362 163.477 247.983 164.452 247.727C165.437 247.472 166.469 247.292 167.549 247.188C168.818 247.055 169.841 246.932 170.617 246.818C171.394 246.695 171.957 246.515 172.308 246.278C172.658 246.042 172.833 245.691 172.833 245.227V245.142C172.833 244.242 172.549 243.546 171.981 243.054C171.422 242.562 170.627 242.315 169.594 242.315C168.505 242.315 167.639 242.557 166.995 243.04C166.351 243.513 165.925 244.11 165.717 244.83L160.12 244.375C160.404 243.049 160.963 241.903 161.796 240.938C162.629 239.962 163.704 239.214 165.021 238.693C166.346 238.163 167.88 237.898 169.623 237.898C170.835 237.898 171.995 238.04 173.103 238.324C174.22 238.608 175.21 239.048 176.072 239.645C176.943 240.241 177.629 241.009 178.131 241.946C178.633 242.874 178.884 243.987 178.884 245.284V260H173.146V256.974H172.975C172.625 257.656 172.156 258.258 171.569 258.778C170.982 259.29 170.276 259.692 169.452 259.986C168.629 260.27 167.677 260.412 166.597 260.412ZM168.33 256.236C169.22 256.236 170.006 256.061 170.688 255.71C171.37 255.35 171.905 254.867 172.293 254.261C172.682 253.655 172.876 252.969 172.876 252.202V249.886C172.686 250.009 172.426 250.123 172.094 250.227C171.772 250.322 171.408 250.412 171.001 250.497C170.594 250.573 170.186 250.644 169.779 250.71C169.372 250.767 169.003 250.819 168.671 250.866C167.961 250.971 167.341 251.136 166.81 251.364C166.28 251.591 165.868 251.899 165.575 252.287C165.281 252.666 165.134 253.139 165.134 253.707C165.134 254.531 165.433 255.161 166.029 255.597C166.635 256.023 167.402 256.236 168.33 256.236ZM183.692 260V230.909H189.744V241.847H189.928C190.193 241.259 190.577 240.663 191.079 240.057C191.59 239.441 192.253 238.93 193.067 238.523C193.891 238.106 194.914 237.898 196.136 237.898C197.727 237.898 199.194 238.314 200.539 239.148C201.884 239.972 202.959 241.217 203.763 242.884C204.568 244.541 204.971 246.619 204.971 249.119C204.971 251.553 204.578 253.608 203.792 255.284C203.015 256.951 201.955 258.215 200.61 259.077C199.275 259.929 197.779 260.355 196.121 260.355C194.947 260.355 193.948 260.161 193.124 259.773C192.31 259.384 191.642 258.897 191.121 258.31C190.601 257.713 190.203 257.112 189.928 256.506H189.658V260H183.692ZM189.616 249.091C189.616 250.388 189.796 251.52 190.156 252.486C190.515 253.452 191.036 254.205 191.718 254.744C192.4 255.275 193.228 255.54 194.204 255.54C195.189 255.54 196.022 255.27 196.704 254.73C197.386 254.181 197.902 253.423 198.252 252.457C198.612 251.482 198.792 250.36 198.792 249.091C198.792 247.831 198.617 246.723 198.266 245.767C197.916 244.811 197.4 244.062 196.718 243.523C196.036 242.983 195.198 242.713 194.204 242.713C193.219 242.713 192.386 242.973 191.704 243.494C191.031 244.015 190.515 244.754 190.156 245.71C189.796 246.667 189.616 247.794 189.616 249.091ZM218.952 260.426C216.707 260.426 214.776 259.972 213.156 259.062C211.546 258.144 210.306 256.847 209.435 255.17C208.563 253.485 208.128 251.491 208.128 249.19C208.128 246.946 208.563 244.976 209.435 243.281C210.306 241.586 211.532 240.265 213.114 239.318C214.705 238.371 216.57 237.898 218.71 237.898C220.15 237.898 221.49 238.13 222.73 238.594C223.98 239.048 225.069 239.735 225.997 240.653C226.935 241.572 227.664 242.727 228.185 244.119C228.705 245.502 228.966 247.121 228.966 248.977V250.639H210.543V246.889H223.27C223.27 246.018 223.08 245.246 222.702 244.574C222.323 243.902 221.797 243.376 221.125 242.997C220.462 242.609 219.69 242.415 218.81 242.415C217.891 242.415 217.077 242.628 216.366 243.054C215.666 243.471 215.116 244.034 214.719 244.744C214.321 245.445 214.117 246.226 214.108 247.088V250.653C214.108 251.733 214.307 252.666 214.705 253.452C215.112 254.238 215.685 254.844 216.423 255.27C217.162 255.696 218.038 255.909 219.051 255.909C219.723 255.909 220.339 255.814 220.898 255.625C221.456 255.436 221.935 255.152 222.332 254.773C222.73 254.394 223.033 253.93 223.241 253.381L228.838 253.75C228.554 255.095 227.972 256.269 227.091 257.273C226.22 258.267 225.093 259.044 223.71 259.602C222.337 260.152 220.751 260.426 218.952 260.426ZM238.966 247.386V260H232.915V238.182H238.682V242.031H238.938C239.42 240.762 240.23 239.759 241.366 239.02C242.503 238.272 243.881 237.898 245.5 237.898C247.015 237.898 248.336 238.229 249.463 238.892C250.59 239.555 251.466 240.502 252.091 241.733C252.716 242.955 253.028 244.413 253.028 246.108V260H246.977V247.188C246.987 245.852 246.646 244.811 245.955 244.062C245.263 243.305 244.312 242.926 243.099 242.926C242.285 242.926 241.565 243.101 240.94 243.452C240.325 243.802 239.842 244.313 239.491 244.986C239.151 245.649 238.975 246.449 238.966 247.386ZM267.055 260V238.182H273.107V260H267.055ZM270.095 235.369C269.196 235.369 268.424 235.071 267.78 234.474C267.145 233.868 266.828 233.144 266.828 232.301C266.828 231.468 267.145 230.753 267.78 230.156C268.424 229.55 269.196 229.247 270.095 229.247C270.995 229.247 271.762 229.55 272.396 230.156C273.04 230.753 273.362 231.468 273.362 232.301C273.362 233.144 273.04 233.868 272.396 234.474C271.762 235.071 270.995 235.369 270.095 235.369ZM284.005 247.386V260H277.954V230.909H283.835V242.031H284.09C284.583 240.743 285.378 239.735 286.477 239.006C287.575 238.267 288.953 237.898 290.61 237.898C292.125 237.898 293.446 238.229 294.573 238.892C295.71 239.545 296.59 240.488 297.215 241.719C297.85 242.94 298.162 244.403 298.153 246.108V260H292.102V247.188C292.111 245.843 291.77 244.796 291.079 244.048C290.397 243.3 289.441 242.926 288.21 242.926C287.386 242.926 286.656 243.101 286.022 243.452C285.397 243.802 284.905 244.313 284.545 244.986C284.194 245.649 284.014 246.449 284.005 247.386ZM308.966 247.386V260H302.915V238.182H308.682V242.031H308.938C309.42 240.762 310.23 239.759 311.366 239.02C312.503 238.272 313.881 237.898 315.5 237.898C317.015 237.898 318.336 238.229 319.463 238.892C320.59 239.555 321.466 240.502 322.091 241.733C322.716 242.955 323.028 244.413 323.028 246.108V260H316.977V247.188C316.987 245.852 316.646 244.811 315.955 244.062C315.263 243.305 314.312 242.926 313.099 242.926C312.285 242.926 311.565 243.101 310.94 243.452C310.325 243.802 309.842 244.313 309.491 244.986C309.151 245.649 308.975 246.449 308.966 247.386ZM355.209 244.403L349.669 244.744C349.574 244.271 349.371 243.845 349.058 243.466C348.746 243.078 348.334 242.77 347.822 242.543C347.321 242.306 346.719 242.188 346.018 242.188C345.081 242.188 344.29 242.386 343.646 242.784C343.002 243.172 342.68 243.693 342.68 244.347C342.68 244.867 342.889 245.308 343.305 245.668C343.722 246.027 344.437 246.316 345.45 246.534L349.399 247.33C351.52 247.765 353.102 248.466 354.143 249.432C355.185 250.398 355.706 251.667 355.706 253.239C355.706 254.669 355.285 255.923 354.442 257.003C353.608 258.082 352.463 258.925 351.004 259.531C349.555 260.128 347.884 260.426 345.99 260.426C343.102 260.426 340.801 259.825 339.087 258.622C337.382 257.41 336.383 255.762 336.089 253.679L342.041 253.366C342.221 254.247 342.657 254.92 343.348 255.384C344.039 255.838 344.925 256.065 346.004 256.065C347.065 256.065 347.917 255.862 348.561 255.455C349.214 255.038 349.546 254.503 349.555 253.849C349.546 253.3 349.314 252.85 348.859 252.5C348.405 252.14 347.704 251.866 346.757 251.676L342.979 250.923C340.848 250.497 339.262 249.759 338.22 248.707C337.188 247.656 336.672 246.316 336.672 244.688C336.672 243.286 337.051 242.079 337.808 241.065C338.575 240.052 339.65 239.271 341.033 238.722C342.425 238.172 344.054 237.898 345.919 237.898C348.675 237.898 350.843 238.48 352.425 239.645C354.016 240.81 354.944 242.396 355.209 244.403ZM359.516 260V238.182H365.567V260H359.516ZM362.556 235.369C361.656 235.369 360.885 235.071 360.241 234.474C359.606 233.868 359.289 233.144 359.289 232.301C359.289 231.468 359.606 230.753 360.241 230.156C360.885 229.55 361.656 229.247 362.556 229.247C363.456 229.247 364.223 229.55 364.857 230.156C365.501 230.753 365.823 231.468 365.823 232.301C365.823 233.144 365.501 233.868 364.857 234.474C364.223 235.071 363.456 235.369 362.556 235.369ZM380.273 260.426C378.038 260.426 376.116 259.953 374.506 259.006C372.905 258.049 371.674 256.723 370.812 255.028C369.96 253.333 369.534 251.383 369.534 249.176C369.534 246.941 369.965 244.981 370.827 243.295C371.698 241.6 372.934 240.279 374.534 239.332C376.134 238.376 378.038 237.898 380.244 237.898C382.148 237.898 383.814 238.243 385.244 238.935C386.674 239.626 387.806 240.597 388.639 241.847C389.473 243.097 389.932 244.564 390.017 246.25H384.307C384.146 245.161 383.72 244.285 383.028 243.622C382.347 242.95 381.452 242.614 380.344 242.614C379.406 242.614 378.587 242.869 377.886 243.381C377.195 243.883 376.655 244.616 376.267 245.582C375.879 246.548 375.685 247.718 375.685 249.091C375.685 250.483 375.874 251.667 376.253 252.642C376.641 253.617 377.186 254.361 377.886 254.872C378.587 255.384 379.406 255.639 380.344 255.639C381.035 255.639 381.655 255.497 382.205 255.213C382.763 254.929 383.223 254.517 383.582 253.977C383.952 253.428 384.193 252.77 384.307 252.003H390.017C389.922 253.67 389.468 255.137 388.653 256.406C387.848 257.666 386.736 258.651 385.315 259.361C383.895 260.071 382.214 260.426 380.273 260.426ZM399.942 247.386V260H393.891V230.909H399.772V242.031H400.028C400.52 240.743 401.316 239.735 402.414 239.006C403.513 238.267 404.89 237.898 406.548 237.898C408.063 237.898 409.384 238.229 410.511 238.892C411.647 239.545 412.528 240.488 413.153 241.719C413.787 242.94 414.1 244.403 414.09 246.108V260H408.039V247.188C408.049 245.843 407.708 244.796 407.016 244.048C406.335 243.3 405.378 242.926 404.147 242.926C403.323 242.926 402.594 243.101 401.96 243.452C401.335 243.802 400.842 244.313 400.482 244.986C400.132 245.649 399.952 246.449 399.942 247.386ZM428.795 260.426C426.551 260.426 424.619 259.972 423 259.062C421.39 258.144 420.15 256.847 419.278 255.17C418.407 253.485 417.972 251.491 417.972 249.19C417.972 246.946 418.407 244.976 419.278 243.281C420.15 241.586 421.376 240.265 422.957 239.318C424.548 238.371 426.414 237.898 428.554 237.898C429.993 237.898 431.333 238.13 432.574 238.594C433.824 239.048 434.913 239.735 435.841 240.653C436.778 241.572 437.508 242.727 438.028 244.119C438.549 245.502 438.81 247.121 438.81 248.977V250.639H420.386V246.889H433.114C433.114 246.018 432.924 245.246 432.545 244.574C432.167 243.902 431.641 243.376 430.969 242.997C430.306 242.609 429.534 242.415 428.653 242.415C427.735 242.415 426.92 242.628 426.21 243.054C425.509 243.471 424.96 244.034 424.562 244.744C424.165 245.445 423.961 246.226 423.952 247.088V250.653C423.952 251.733 424.151 252.666 424.548 253.452C424.955 254.238 425.528 254.844 426.267 255.27C427.006 255.696 427.882 255.909 428.895 255.909C429.567 255.909 430.183 255.814 430.741 255.625C431.3 255.436 431.778 255.152 432.176 254.773C432.574 254.394 432.877 253.93 433.085 253.381L438.682 253.75C438.398 255.095 437.815 256.269 436.935 257.273C436.063 258.267 434.937 259.044 433.554 259.602C432.181 260.152 430.595 260.426 428.795 260.426ZM442.759 260V238.182H448.625V241.989H448.852C449.25 240.634 449.918 239.612 450.855 238.92C451.793 238.22 452.872 237.869 454.094 237.869C454.397 237.869 454.723 237.888 455.074 237.926C455.424 237.964 455.732 238.016 455.997 238.082V243.452C455.713 243.366 455.32 243.291 454.818 243.224C454.316 243.158 453.857 243.125 453.44 243.125C452.55 243.125 451.755 243.319 451.054 243.707C450.363 244.086 449.813 244.616 449.406 245.298C449.009 245.98 448.81 246.766 448.81 247.656V260H442.759ZM486.537 244.403L480.997 244.744C480.902 244.271 480.699 243.845 480.386 243.466C480.074 243.078 479.662 242.77 479.151 242.543C478.649 242.306 478.047 242.188 477.347 242.188C476.409 242.188 475.618 242.386 474.974 242.784C474.33 243.172 474.009 243.693 474.009 244.347C474.009 244.867 474.217 245.308 474.634 245.668C475.05 246.027 475.765 246.316 476.778 246.534L480.727 247.33C482.848 247.765 484.43 248.466 485.472 249.432C486.513 250.398 487.034 251.667 487.034 253.239C487.034 254.669 486.613 255.923 485.77 257.003C484.937 258.082 483.791 258.925 482.332 259.531C480.884 260.128 479.212 260.426 477.318 260.426C474.43 260.426 472.129 259.825 470.415 258.622C468.71 257.41 467.711 255.762 467.418 253.679L473.369 253.366C473.549 254.247 473.985 254.92 474.676 255.384C475.367 255.838 476.253 256.065 477.332 256.065C478.393 256.065 479.245 255.862 479.889 255.455C480.543 255.038 480.874 254.503 480.884 253.849C480.874 253.3 480.642 252.85 480.188 252.5C479.733 252.14 479.032 251.866 478.085 251.676L474.307 250.923C472.176 250.497 470.59 249.759 469.548 248.707C468.516 247.656 468 246.316 468 244.688C468 243.286 468.379 242.079 469.136 241.065C469.903 240.052 470.978 239.271 472.361 238.722C473.753 238.172 475.382 237.898 477.247 237.898C480.003 237.898 482.171 238.48 483.753 239.645C485.344 240.81 486.272 242.396 486.537 244.403ZM500.702 260.426C498.468 260.426 496.545 259.953 494.935 259.006C493.335 258.049 492.104 256.723 491.242 255.028C490.39 253.333 489.964 251.383 489.964 249.176C489.964 246.941 490.395 244.981 491.256 243.295C492.128 241.6 493.363 240.279 494.964 239.332C496.564 238.376 498.468 237.898 500.674 237.898C502.577 237.898 504.244 238.243 505.674 238.935C507.104 239.626 508.236 240.597 509.069 241.847C509.902 243.097 510.362 244.564 510.447 246.25H504.737C504.576 245.161 504.149 244.285 503.458 243.622C502.776 242.95 501.881 242.614 500.773 242.614C499.836 242.614 499.017 242.869 498.316 243.381C497.625 243.883 497.085 244.616 496.697 245.582C496.308 246.548 496.114 247.718 496.114 249.091C496.114 250.483 496.304 251.667 496.683 252.642C497.071 253.617 497.615 254.361 498.316 254.872C499.017 255.384 499.836 255.639 500.773 255.639C501.465 255.639 502.085 255.497 502.634 255.213C503.193 254.929 503.652 254.517 504.012 253.977C504.381 253.428 504.623 252.77 504.737 252.003H510.447C510.352 253.67 509.897 255.137 509.083 256.406C508.278 257.666 507.165 258.651 505.745 259.361C504.325 260.071 502.644 260.426 500.702 260.426ZM520.372 247.386V260H514.321V230.909H520.202V242.031H520.457C520.95 240.743 521.745 239.735 522.844 239.006C523.942 238.267 525.32 237.898 526.977 237.898C528.492 237.898 529.813 238.229 530.94 238.892C532.077 239.545 532.957 240.488 533.582 241.719C534.217 242.94 534.529 244.403 534.52 246.108V260H528.469V247.188C528.478 245.843 528.137 244.796 527.446 244.048C526.764 243.3 525.808 242.926 524.577 242.926C523.753 242.926 523.024 243.101 522.389 243.452C521.764 243.802 521.272 244.313 520.912 244.986C520.562 245.649 520.382 246.449 520.372 247.386ZM549.14 260.426C546.933 260.426 545.025 259.957 543.415 259.02C541.815 258.073 540.579 256.757 539.708 255.071C538.837 253.376 538.401 251.411 538.401 249.176C538.401 246.922 538.837 244.953 539.708 243.267C540.579 241.572 541.815 240.256 543.415 239.318C545.025 238.371 546.933 237.898 549.14 237.898C551.346 237.898 553.25 238.371 554.85 239.318C556.46 240.256 557.701 241.572 558.572 243.267C559.443 244.953 559.879 246.922 559.879 249.176C559.879 251.411 559.443 253.376 558.572 255.071C557.701 256.757 556.46 258.073 554.85 259.02C553.25 259.957 551.346 260.426 549.14 260.426ZM549.168 255.739C550.172 255.739 551.01 255.455 551.683 254.886C552.355 254.309 552.862 253.523 553.202 252.528C553.553 251.534 553.728 250.402 553.728 249.134C553.728 247.865 553.553 246.733 553.202 245.739C552.862 244.744 552.355 243.958 551.683 243.381C551.01 242.803 550.172 242.514 549.168 242.514C548.155 242.514 547.303 242.803 546.612 243.381C545.93 243.958 545.414 244.744 545.063 245.739C544.722 246.733 544.552 247.865 544.552 249.134C544.552 250.402 544.722 251.534 545.063 252.528C545.414 253.523 545.93 254.309 546.612 254.886C547.303 255.455 548.155 255.739 549.168 255.739ZM569.864 247.386V260H563.813V238.182H569.58V242.031H569.836C570.319 240.762 571.129 239.759 572.265 239.02C573.401 238.272 574.779 237.898 576.398 237.898C577.914 237.898 579.235 238.229 580.362 238.892C581.488 239.555 582.364 240.502 582.989 241.733C583.614 242.955 583.927 244.413 583.927 246.108V260H577.876V247.188C577.885 245.852 577.544 244.811 576.853 244.062C576.162 243.305 575.21 242.926 573.998 242.926C573.183 242.926 572.464 243.101 571.839 243.452C571.223 243.802 570.74 244.313 570.39 244.986C570.049 245.649 569.874 246.449 569.864 247.386ZM618.295 238.182L610.667 260H603.849L596.221 238.182H602.613L607.144 253.793H607.371L611.888 238.182H618.295ZM630.631 260.426C628.387 260.426 626.455 259.972 624.836 259.062C623.226 258.144 621.986 256.847 621.114 255.17C620.243 253.485 619.808 251.491 619.808 249.19C619.808 246.946 620.243 244.976 621.114 243.281C621.986 241.586 623.212 240.265 624.793 239.318C626.384 238.371 628.25 237.898 630.39 237.898C631.829 237.898 633.169 238.13 634.41 238.594C635.66 239.048 636.749 239.735 637.677 240.653C638.614 241.572 639.344 242.727 639.864 244.119C640.385 245.502 640.646 247.121 640.646 248.977V250.639H622.222V246.889H634.95C634.95 246.018 634.76 245.246 634.381 244.574C634.003 243.902 633.477 243.376 632.805 242.997C632.142 242.609 631.37 242.415 630.489 242.415C629.571 242.415 628.756 242.628 628.046 243.054C627.345 243.471 626.796 244.034 626.398 244.744C626.001 245.445 625.797 246.226 625.788 247.088V250.653C625.788 251.733 625.987 252.666 626.384 253.452C626.791 254.238 627.364 254.844 628.103 255.27C628.842 255.696 629.718 255.909 630.731 255.909C631.403 255.909 632.019 255.814 632.577 255.625C633.136 255.436 633.614 255.152 634.012 254.773C634.41 254.394 634.713 253.93 634.921 253.381L640.518 253.75C640.234 255.095 639.651 256.269 638.771 257.273C637.899 258.267 636.772 259.044 635.39 259.602C634.017 260.152 632.431 260.426 630.631 260.426ZM644.594 260V238.182H650.461V241.989H650.688C651.086 240.634 651.754 239.612 652.691 238.92C653.629 238.22 654.708 237.869 655.93 237.869C656.233 237.869 656.559 237.888 656.91 237.926C657.26 237.964 657.568 238.016 657.833 238.082V243.452C657.549 243.366 657.156 243.291 656.654 243.224C656.152 243.158 655.693 243.125 655.276 243.125C654.386 243.125 653.591 243.319 652.89 243.707C652.199 244.086 651.649 244.616 651.242 245.298C650.844 245.98 650.646 246.766 650.646 247.656V260H644.594ZM660.962 260V238.182H666.729V242.031H666.984C667.439 240.753 668.196 239.744 669.257 239.006C670.318 238.267 671.587 237.898 673.064 237.898C674.56 237.898 675.834 238.272 676.885 239.02C677.936 239.759 678.637 240.762 678.987 242.031H679.214C679.66 240.781 680.464 239.782 681.629 239.034C682.804 238.277 684.191 237.898 685.791 237.898C687.827 237.898 689.48 238.546 690.749 239.844C692.027 241.132 692.666 242.959 692.666 245.327V260H686.629V246.52C686.629 245.308 686.307 244.399 685.663 243.793C685.019 243.187 684.214 242.884 683.249 242.884C682.15 242.884 681.293 243.234 680.678 243.935C680.062 244.626 679.754 245.54 679.754 246.676V260H673.888V246.392C673.888 245.322 673.58 244.47 672.964 243.835C672.358 243.201 671.558 242.884 670.564 242.884C669.892 242.884 669.286 243.054 668.746 243.395C668.215 243.726 667.794 244.195 667.482 244.801C667.169 245.398 667.013 246.098 667.013 246.903V260H660.962ZM697.446 260V238.182H703.497V260H697.446ZM700.486 235.369C699.586 235.369 698.814 235.071 698.17 234.474C697.536 233.868 697.219 233.144 697.219 232.301C697.219 231.468 697.536 230.753 698.17 230.156C698.814 229.55 699.586 229.247 700.486 229.247C701.385 229.247 702.152 229.55 702.787 230.156C703.431 230.753 703.753 231.468 703.753 232.301C703.753 233.144 703.431 233.868 702.787 234.474C702.152 235.071 701.385 235.369 700.486 235.369ZM726.498 244.403L720.958 244.744C720.863 244.271 720.66 243.845 720.347 243.466C720.035 243.078 719.623 242.77 719.112 242.543C718.61 242.306 718.008 242.188 717.308 242.188C716.37 242.188 715.579 242.386 714.935 242.784C714.291 243.172 713.969 243.693 713.969 244.347C713.969 244.867 714.178 245.308 714.594 245.668C715.011 246.027 715.726 246.316 716.739 246.534L720.688 247.33C722.809 247.765 724.391 248.466 725.433 249.432C726.474 250.398 726.995 251.667 726.995 253.239C726.995 254.669 726.574 255.923 725.731 257.003C724.897 258.082 723.752 258.925 722.293 259.531C720.844 260.128 719.173 260.426 717.279 260.426C714.391 260.426 712.09 259.825 710.376 258.622C708.671 257.41 707.672 255.762 707.379 253.679L713.33 253.366C713.51 254.247 713.946 254.92 714.637 255.384C715.328 255.838 716.214 256.065 717.293 256.065C718.354 256.065 719.206 255.862 719.85 255.455C720.504 255.038 720.835 254.503 720.844 253.849C720.835 253.3 720.603 252.85 720.148 252.5C719.694 252.14 718.993 251.866 718.046 251.676L714.268 250.923C712.137 250.497 710.551 249.759 709.509 248.707C708.477 247.656 707.961 246.316 707.961 244.688C707.961 243.286 708.34 242.079 709.097 241.065C709.864 240.052 710.939 239.271 712.322 238.722C713.714 238.172 715.343 237.898 717.208 237.898C719.964 237.898 722.132 238.48 723.714 239.645C725.305 240.81 726.233 242.396 726.498 244.403ZM748.959 244.403L743.419 244.744C743.324 244.271 743.121 243.845 742.808 243.466C742.496 243.078 742.084 242.77 741.572 242.543C741.071 242.306 740.469 242.188 739.768 242.188C738.831 242.188 738.04 242.386 737.396 242.784C736.752 243.172 736.43 243.693 736.43 244.347C736.43 244.867 736.639 245.308 737.055 245.668C737.472 246.027 738.187 246.316 739.2 246.534L743.149 247.33C745.27 247.765 746.852 248.466 747.893 249.432C748.935 250.398 749.456 251.667 749.456 253.239C749.456 254.669 749.035 255.923 748.192 257.003C747.358 258.082 746.213 258.925 744.754 259.531C743.305 260.128 741.634 260.426 739.74 260.426C736.852 260.426 734.551 259.825 732.837 258.622C731.132 257.41 730.133 255.762 729.839 253.679L735.791 253.366C735.971 254.247 736.407 254.92 737.098 255.384C737.789 255.838 738.675 256.065 739.754 256.065C740.815 256.065 741.667 255.862 742.311 255.455C742.964 255.038 743.296 254.503 743.305 253.849C743.296 253.3 743.064 252.85 742.609 252.5C742.155 252.14 741.454 251.866 740.507 251.676L736.729 250.923C734.598 250.497 733.012 249.759 731.97 248.707C730.938 247.656 730.422 246.316 730.422 244.688C730.422 243.286 730.801 242.079 731.558 241.065C732.325 240.052 733.4 239.271 734.783 238.722C736.175 238.172 737.804 237.898 739.669 237.898C742.425 237.898 744.593 238.48 746.175 239.645C747.766 240.81 748.694 242.396 748.959 244.403ZM764.871 238.182V242.727H751.732V238.182H764.871ZM754.715 232.955H760.766V253.295C760.766 253.854 760.852 254.29 761.022 254.602C761.192 254.905 761.429 255.118 761.732 255.241C762.045 255.365 762.405 255.426 762.812 255.426C763.096 255.426 763.38 255.402 763.664 255.355C763.948 255.298 764.166 255.256 764.317 255.227L765.269 259.73C764.966 259.825 764.54 259.934 763.991 260.057C763.442 260.189 762.774 260.27 761.988 260.298C760.53 260.355 759.251 260.161 758.153 259.716C757.064 259.271 756.216 258.58 755.61 257.642C755.004 256.705 754.706 255.521 754.715 254.091V232.955ZM776.043 230.909L775.489 251.278H770.29L769.722 230.909H776.043ZM772.89 260.369C771.952 260.369 771.147 260.038 770.475 259.375C769.803 258.703 769.471 257.898 769.481 256.96C769.471 256.032 769.803 255.237 770.475 254.574C771.147 253.911 771.952 253.58 772.89 253.58C773.79 253.58 774.58 253.911 775.262 254.574C775.944 255.237 776.29 256.032 776.299 256.96C776.29 257.585 776.124 258.158 775.802 258.679C775.489 259.19 775.077 259.602 774.566 259.915C774.055 260.218 773.496 260.369 772.89 260.369Z" fill="black"/>
</svg>
