<svg width="959" height="403" viewBox="0 0 959 403" fill="none" xmlns="http://www.w3.org/2000/svg">
<ellipse rx="478" ry="192.5" transform="matrix(-1 0 0 1 478.002 192.5)" fill="white"/>
<path d="M914.002 403L800.209 316.5L877.502 282.5L914.002 403Z" fill="white"/>
<path d="M121.543 160H114.952L124.994 130.909H132.92L142.949 160H136.358L129.071 137.557H128.844L121.543 160ZM121.131 148.565H136.699V153.366H121.131V148.565ZM152.388 147.386V160H146.337V130.909H152.217V142.031H152.473C152.965 140.743 153.761 139.735 154.859 139.006C155.958 138.267 157.336 137.898 158.993 137.898C160.508 137.898 161.829 138.229 162.956 138.892C164.092 139.545 164.973 140.488 165.598 141.719C166.232 142.94 166.545 144.403 166.536 146.108V160H160.484V147.188C160.494 145.843 160.153 144.796 159.462 144.048C158.78 143.3 157.823 142.926 156.592 142.926C155.768 142.926 155.039 143.101 154.405 143.452C153.78 143.802 153.287 144.313 152.928 144.986C152.577 145.649 152.397 146.449 152.388 147.386ZM177.519 160.412C176.127 160.412 174.887 160.17 173.798 159.688C172.709 159.195 171.847 158.471 171.212 157.514C170.587 156.548 170.275 155.346 170.275 153.906C170.275 152.694 170.497 151.676 170.942 150.852C171.388 150.028 171.994 149.366 172.761 148.864C173.528 148.362 174.399 147.983 175.374 147.727C176.359 147.472 177.391 147.292 178.471 147.188C179.74 147.055 180.763 146.932 181.539 146.818C182.316 146.695 182.879 146.515 183.229 146.278C183.58 146.042 183.755 145.691 183.755 145.227V145.142C183.755 144.242 183.471 143.546 182.903 143.054C182.344 142.562 181.549 142.315 180.516 142.315C179.427 142.315 178.561 142.557 177.917 143.04C177.273 143.513 176.847 144.11 176.638 144.83L171.042 144.375C171.326 143.049 171.885 141.903 172.718 140.938C173.551 139.962 174.626 139.214 175.942 138.693C177.268 138.163 178.802 137.898 180.545 137.898C181.757 137.898 182.917 138.04 184.025 138.324C185.142 138.608 186.132 139.048 186.994 139.645C187.865 140.241 188.551 141.009 189.053 141.946C189.555 142.874 189.806 143.987 189.806 145.284V160H184.067V156.974H183.897C183.547 157.656 183.078 158.258 182.491 158.778C181.904 159.29 181.198 159.692 180.374 159.986C179.55 160.27 178.599 160.412 177.519 160.412ZM179.252 156.236C180.142 156.236 180.928 156.061 181.61 155.71C182.292 155.35 182.827 154.867 183.215 154.261C183.603 153.655 183.798 152.969 183.798 152.202V149.886C183.608 150.009 183.348 150.123 183.016 150.227C182.694 150.322 182.33 150.412 181.923 150.497C181.515 150.573 181.108 150.644 180.701 150.71C180.294 150.767 179.924 150.819 179.593 150.866C178.883 150.971 178.263 151.136 177.732 151.364C177.202 151.591 176.79 151.899 176.496 152.287C176.203 152.666 176.056 153.139 176.056 153.707C176.056 154.531 176.354 155.161 176.951 155.597C177.557 156.023 178.324 156.236 179.252 156.236ZM201.731 130.909L201.177 151.278H195.978L195.41 130.909H201.731ZM198.577 160.369C197.64 160.369 196.835 160.038 196.163 159.375C195.49 158.703 195.159 157.898 195.168 156.96C195.159 156.032 195.49 155.237 196.163 154.574C196.835 153.911 197.64 153.58 198.577 153.58C199.477 153.58 200.268 153.911 200.95 154.574C201.631 155.237 201.977 156.032 201.987 156.96C201.977 157.585 201.811 158.158 201.489 158.679C201.177 159.19 200.765 159.602 200.254 159.915C199.742 160.218 199.183 160.369 198.577 160.369ZM241.173 130.909V160H235.861L223.205 141.69H222.991V160H216.841V130.909H222.239L234.795 149.205H235.051V130.909H241.173ZM256.085 160.426C253.84 160.426 251.908 159.972 250.289 159.062C248.679 158.144 247.439 156.847 246.567 155.17C245.696 153.485 245.261 151.491 245.261 149.19C245.261 146.946 245.696 144.976 246.567 143.281C247.439 141.586 248.665 140.265 250.246 139.318C251.837 138.371 253.703 137.898 255.843 137.898C257.282 137.898 258.622 138.13 259.863 138.594C261.113 139.048 262.202 139.735 263.13 140.653C264.067 141.572 264.797 142.727 265.317 144.119C265.838 145.502 266.099 147.121 266.099 148.977V150.639H247.675V146.889H260.403C260.403 146.018 260.213 145.246 259.835 144.574C259.456 143.902 258.93 143.376 258.258 142.997C257.595 142.609 256.823 142.415 255.942 142.415C255.024 142.415 254.21 142.628 253.499 143.054C252.799 143.471 252.249 144.034 251.852 144.744C251.454 145.445 251.25 146.226 251.241 147.088V150.653C251.241 151.733 251.44 152.666 251.837 153.452C252.245 154.238 252.817 154.844 253.556 155.27C254.295 155.696 255.171 155.909 256.184 155.909C256.856 155.909 257.472 155.814 258.031 155.625C258.589 155.436 259.067 155.152 259.465 154.773C259.863 154.394 260.166 153.93 260.374 153.381L265.971 153.75C265.687 155.095 265.104 156.269 264.224 157.273C263.353 158.267 262.226 159.044 260.843 159.602C259.47 160.152 257.884 160.426 256.085 160.426ZM270.048 160V138.182H276.099V160H270.048ZM273.087 135.369C272.188 135.369 271.416 135.071 270.772 134.474C270.138 133.868 269.82 133.144 269.82 132.301C269.82 131.468 270.138 130.753 270.772 130.156C271.416 129.55 272.188 129.247 273.087 129.247C273.987 129.247 274.754 129.55 275.388 130.156C276.032 130.753 276.354 131.468 276.354 132.301C276.354 133.144 276.032 133.868 275.388 134.474C274.754 135.071 273.987 135.369 273.087 135.369ZM286.997 147.386V160H280.946V138.182H286.713V142.031H286.969C287.452 140.762 288.261 139.759 289.398 139.02C290.534 138.272 291.912 137.898 293.531 137.898C295.046 137.898 296.367 138.229 297.494 138.892C298.621 139.555 299.497 140.502 300.122 141.733C300.747 142.955 301.06 144.413 301.06 146.108V160H295.009V147.188C295.018 145.852 294.677 144.811 293.986 144.062C293.295 143.305 292.343 142.926 291.131 142.926C290.316 142.926 289.597 143.101 288.972 143.452C288.356 143.802 287.873 144.313 287.523 144.986C287.182 145.649 287.007 146.449 286.997 147.386ZM312.406 156.023L312.249 157.585C312.126 158.835 311.889 160.08 311.539 161.321C311.198 162.571 310.838 163.703 310.46 164.716C310.09 165.729 309.792 166.525 309.565 167.102H305.644C305.786 166.544 305.98 165.762 306.227 164.759C306.473 163.764 306.705 162.647 306.923 161.406C307.14 160.166 307.278 158.902 307.335 157.614L307.406 156.023H312.406ZM333.869 160.355C332.211 160.355 330.71 159.929 329.366 159.077C328.031 158.215 326.97 156.951 326.184 155.284C325.407 153.608 325.019 151.553 325.019 149.119C325.019 146.619 325.422 144.541 326.227 142.884C327.031 141.217 328.102 139.972 329.437 139.148C330.781 138.314 332.254 137.898 333.854 137.898C335.076 137.898 336.094 138.106 336.908 138.523C337.732 138.93 338.395 139.441 338.897 140.057C339.408 140.663 339.797 141.259 340.062 141.847H340.246V130.909H346.283V160H340.317V156.506H340.062C339.778 157.112 339.375 157.713 338.854 158.31C338.343 158.897 337.675 159.384 336.852 159.773C336.037 160.161 335.043 160.355 333.869 160.355ZM335.786 155.54C336.762 155.54 337.585 155.275 338.258 154.744C338.94 154.205 339.46 153.452 339.82 152.486C340.19 151.52 340.374 150.388 340.374 149.091C340.374 147.794 340.194 146.667 339.835 145.71C339.475 144.754 338.954 144.015 338.272 143.494C337.59 142.973 336.762 142.713 335.786 142.713C334.792 142.713 333.954 142.983 333.272 143.523C332.59 144.062 332.074 144.811 331.724 145.767C331.373 146.723 331.198 147.831 331.198 149.091C331.198 150.36 331.373 151.482 331.724 152.457C332.084 153.423 332.6 154.181 333.272 154.73C333.954 155.27 334.792 155.54 335.786 155.54ZM357.48 160.412C356.088 160.412 354.848 160.17 353.759 159.688C352.67 159.195 351.808 158.471 351.173 157.514C350.548 156.548 350.236 155.346 350.236 153.906C350.236 152.694 350.458 151.676 350.903 150.852C351.348 150.028 351.955 149.366 352.722 148.864C353.489 148.362 354.36 147.983 355.335 147.727C356.32 147.472 357.352 147.292 358.432 147.188C359.701 147.055 360.723 146.932 361.5 146.818C362.277 146.695 362.84 146.515 363.19 146.278C363.541 146.042 363.716 145.691 363.716 145.227V145.142C363.716 144.242 363.432 143.546 362.864 143.054C362.305 142.562 361.509 142.315 360.477 142.315C359.388 142.315 358.522 142.557 357.878 143.04C357.234 143.513 356.808 144.11 356.599 144.83L351.003 144.375C351.287 143.049 351.846 141.903 352.679 140.938C353.512 139.962 354.587 139.214 355.903 138.693C357.229 138.163 358.763 137.898 360.506 137.898C361.718 137.898 362.878 138.04 363.986 138.324C365.103 138.608 366.093 139.048 366.955 139.645C367.826 140.241 368.512 141.009 369.014 141.946C369.516 142.874 369.767 143.987 369.767 145.284V160H364.028V156.974H363.858C363.508 157.656 363.039 158.258 362.452 158.778C361.865 159.29 361.159 159.692 360.335 159.986C359.511 160.27 358.56 160.412 357.48 160.412ZM359.213 156.236C360.103 156.236 360.889 156.061 361.571 155.71C362.253 155.35 362.788 154.867 363.176 154.261C363.564 153.655 363.759 152.969 363.759 152.202V149.886C363.569 150.009 363.309 150.123 362.977 150.227C362.655 150.322 362.291 150.412 361.884 150.497C361.476 150.573 361.069 150.644 360.662 150.71C360.255 150.767 359.885 150.819 359.554 150.866C358.844 150.971 358.223 151.136 357.693 151.364C357.163 151.591 356.751 151.899 356.457 152.287C356.164 152.666 356.017 153.139 356.017 153.707C356.017 154.531 356.315 155.161 356.912 155.597C357.518 156.023 358.285 156.236 359.213 156.236ZM392.615 144.403L387.075 144.744C386.981 144.271 386.777 143.845 386.464 143.466C386.152 143.078 385.74 142.77 385.229 142.543C384.727 142.306 384.125 142.188 383.425 142.188C382.487 142.188 381.696 142.386 381.053 142.784C380.409 143.172 380.087 143.693 380.087 144.347C380.087 144.867 380.295 145.308 380.712 145.668C381.128 146.027 381.843 146.316 382.857 146.534L386.805 147.33C388.927 147.765 390.508 148.466 391.55 149.432C392.591 150.398 393.112 151.667 393.112 153.239C393.112 154.669 392.691 155.923 391.848 157.003C391.015 158.082 389.869 158.925 388.411 159.531C386.962 160.128 385.29 160.426 383.396 160.426C380.508 160.426 378.207 159.825 376.493 158.622C374.788 157.41 373.789 155.762 373.496 153.679L379.447 153.366C379.627 154.247 380.063 154.92 380.754 155.384C381.446 155.838 382.331 156.065 383.411 156.065C384.471 156.065 385.323 155.862 385.967 155.455C386.621 155.038 386.952 154.503 386.962 153.849C386.952 153.3 386.72 152.85 386.266 152.5C385.811 152.14 385.11 151.866 384.163 151.676L380.385 150.923C378.254 150.497 376.668 149.759 375.626 148.707C374.594 147.656 374.078 146.316 374.078 144.688C374.078 143.286 374.457 142.079 375.214 141.065C375.982 140.052 377.056 139.271 378.439 138.722C379.831 138.172 381.46 137.898 383.325 137.898C386.081 137.898 388.25 138.48 389.831 139.645C391.422 140.81 392.35 142.396 392.615 144.403ZM406.18 160V138.182H412.232V160H406.18ZM409.22 135.369C408.321 135.369 407.549 135.071 406.905 134.474C406.27 133.868 405.953 133.144 405.953 132.301C405.953 131.468 406.27 130.753 406.905 130.156C407.549 129.55 408.321 129.247 409.22 129.247C410.12 129.247 410.887 129.55 411.521 130.156C412.165 130.753 412.487 131.468 412.487 132.301C412.487 133.144 412.165 133.868 411.521 134.474C410.887 135.071 410.12 135.369 409.22 135.369ZM435.232 144.403L429.692 144.744C429.598 144.271 429.394 143.845 429.082 143.466C428.769 143.078 428.357 142.77 427.846 142.543C427.344 142.306 426.743 142.188 426.042 142.188C425.104 142.188 424.314 142.386 423.67 142.784C423.026 143.172 422.704 143.693 422.704 144.347C422.704 144.867 422.912 145.308 423.329 145.668C423.746 146.027 424.46 146.316 425.474 146.534L429.423 147.33C431.544 147.765 433.125 148.466 434.167 149.432C435.209 150.398 435.729 151.667 435.729 153.239C435.729 154.669 435.308 155.923 434.465 157.003C433.632 158.082 432.486 158.925 431.028 159.531C429.579 160.128 427.907 160.426 426.013 160.426C423.125 160.426 420.824 159.825 419.11 158.622C417.406 157.41 416.406 155.762 416.113 153.679L422.065 153.366C422.245 154.247 422.68 154.92 423.371 155.384C424.063 155.838 424.948 156.065 426.028 156.065C427.088 156.065 427.941 155.862 428.585 155.455C429.238 155.038 429.569 154.503 429.579 153.849C429.569 153.3 429.337 152.85 428.883 152.5C428.428 152.14 427.728 151.866 426.781 151.676L423.002 150.923C420.871 150.497 419.285 149.759 418.244 148.707C417.211 147.656 416.695 146.316 416.695 144.688C416.695 143.286 417.074 142.079 417.832 141.065C418.599 140.052 419.674 139.271 421.056 138.722C422.448 138.172 424.077 137.898 425.942 137.898C428.698 137.898 430.867 138.48 432.448 139.645C434.039 140.81 434.967 142.396 435.232 144.403ZM451.145 138.182V142.727H438.006V138.182H451.145ZM440.989 132.955H447.04V153.295C447.04 153.854 447.125 154.29 447.295 154.602C447.466 154.905 447.703 155.118 448.006 155.241C448.318 155.365 448.678 155.426 449.085 155.426C449.369 155.426 449.653 155.402 449.938 155.355C450.222 155.298 450.439 155.256 450.591 155.227L451.543 159.73C451.24 159.825 450.813 159.934 450.264 160.057C449.715 160.189 449.047 160.27 448.261 160.298C446.803 160.355 445.525 160.161 444.426 159.716C443.337 159.271 442.49 158.58 441.884 157.642C441.277 156.705 440.979 155.521 440.989 154.091V132.955ZM470.396 147.386V160H464.344V138.182H470.112V142.031H470.367C470.85 140.762 471.66 139.759 472.796 139.02C473.933 138.272 475.31 137.898 476.93 137.898C478.445 137.898 479.766 138.229 480.893 138.892C482.02 139.555 482.896 140.502 483.521 141.733C484.146 142.955 484.458 144.413 484.458 146.108V160H478.407V147.188C478.416 145.852 478.076 144.811 477.384 144.062C476.693 143.305 475.741 142.926 474.529 142.926C473.715 142.926 472.995 143.101 472.37 143.452C471.754 143.802 471.272 144.313 470.921 144.986C470.58 145.649 470.405 146.449 470.396 147.386ZM489.227 160V138.182H495.278V160H489.227ZM492.267 135.369C491.367 135.369 490.596 135.071 489.952 134.474C489.317 133.868 489 133.144 489 132.301C489 131.468 489.317 130.753 489.952 130.156C490.596 129.55 491.367 129.247 492.267 129.247C493.167 129.247 493.934 129.55 494.568 130.156C495.212 130.753 495.534 131.468 495.534 132.301C495.534 133.144 495.212 133.868 494.568 134.474C493.934 135.071 493.167 135.369 492.267 135.369ZM509.984 160.426C507.749 160.426 505.826 159.953 504.217 159.006C502.616 158.049 501.385 156.723 500.523 155.028C499.671 153.333 499.245 151.383 499.245 149.176C499.245 146.941 499.676 144.981 500.538 143.295C501.409 141.6 502.645 140.279 504.245 139.332C505.845 138.376 507.749 137.898 509.955 137.898C511.859 137.898 513.525 138.243 514.955 138.935C516.385 139.626 517.517 140.597 518.35 141.847C519.183 143.097 519.643 144.564 519.728 146.25H514.018C513.857 145.161 513.431 144.285 512.739 143.622C512.058 142.95 511.163 142.614 510.055 142.614C509.117 142.614 508.298 142.869 507.597 143.381C506.906 143.883 506.366 144.616 505.978 145.582C505.59 146.548 505.396 147.718 505.396 149.091C505.396 150.483 505.585 151.667 505.964 152.642C506.352 153.617 506.897 154.361 507.597 154.872C508.298 155.384 509.117 155.639 510.055 155.639C510.746 155.639 511.366 155.497 511.915 155.213C512.474 154.929 512.933 154.517 513.293 153.977C513.663 153.428 513.904 152.77 514.018 152.003H519.728C519.633 153.67 519.179 155.137 518.364 156.406C517.559 157.666 516.447 158.651 515.026 159.361C513.606 160.071 511.925 160.426 509.984 160.426ZM529.653 147.386V160H523.602V130.909H529.483V142.031H529.739C530.231 140.743 531.027 139.735 532.125 139.006C533.223 138.267 534.601 137.898 536.259 137.898C537.774 137.898 539.095 138.229 540.222 138.892C541.358 139.545 542.239 140.488 542.864 141.719C543.498 142.94 543.811 144.403 543.801 146.108V160H537.75V147.188C537.759 145.843 537.419 144.796 536.727 144.048C536.045 143.3 535.089 142.926 533.858 142.926C533.034 142.926 532.305 143.101 531.67 143.452C531.045 143.802 530.553 144.313 530.193 144.986C529.843 145.649 529.663 146.449 529.653 147.386ZM560.168 138.182V142.727H547.029V138.182H560.168ZM550.012 132.955H556.063V153.295C556.063 153.854 556.148 154.29 556.319 154.602C556.489 154.905 556.726 155.118 557.029 155.241C557.342 155.365 557.701 155.426 558.109 155.426C558.393 155.426 558.677 155.402 558.961 155.355C559.245 155.298 559.463 155.256 559.614 155.227L560.566 159.73C560.263 159.825 559.837 159.934 559.288 160.057C558.738 160.189 558.071 160.27 557.285 160.298C555.826 160.355 554.548 160.161 553.45 159.716C552.361 159.271 551.513 158.58 550.907 157.642C550.301 156.705 550.003 155.521 550.012 154.091V132.955ZM573.368 160V138.182H579.135V142.031H579.391C579.845 140.753 580.603 139.744 581.663 139.006C582.724 138.267 583.993 137.898 585.47 137.898C586.966 137.898 588.24 138.272 589.291 139.02C590.342 139.759 591.043 140.762 591.393 142.031H591.621C592.066 140.781 592.871 139.782 594.036 139.034C595.21 138.277 596.597 137.898 598.197 137.898C600.233 137.898 601.886 138.546 603.155 139.844C604.433 141.132 605.072 142.959 605.072 145.327V160H599.036V146.52C599.036 145.308 598.714 144.399 598.07 143.793C597.426 143.187 596.621 142.884 595.655 142.884C594.556 142.884 593.699 143.234 593.084 143.935C592.468 144.626 592.161 145.54 592.161 146.676V160H586.294V146.392C586.294 145.322 585.986 144.47 585.371 143.835C584.765 143.201 583.964 142.884 582.97 142.884C582.298 142.884 581.692 143.054 581.152 143.395C580.622 143.726 580.2 144.195 579.888 144.801C579.575 145.398 579.419 146.098 579.419 146.903V160H573.368ZM619.795 160.426C617.551 160.426 615.619 159.972 614 159.062C612.39 158.144 611.15 156.847 610.278 155.17C609.407 153.485 608.972 151.491 608.972 149.19C608.972 146.946 609.407 144.976 610.278 143.281C611.15 141.586 612.376 140.265 613.957 139.318C615.548 138.371 617.414 137.898 619.554 137.898C620.993 137.898 622.333 138.13 623.574 138.594C624.824 139.048 625.913 139.735 626.841 140.653C627.778 141.572 628.508 142.727 629.028 144.119C629.549 145.502 629.81 147.121 629.81 148.977V150.639H611.386V146.889H624.114C624.114 146.018 623.924 145.246 623.545 144.574C623.167 143.902 622.641 143.376 621.969 142.997C621.306 142.609 620.534 142.415 619.653 142.415C618.735 142.415 617.92 142.628 617.21 143.054C616.509 143.471 615.96 144.034 615.562 144.744C615.165 145.445 614.961 146.226 614.952 147.088V150.653C614.952 151.733 615.151 152.666 615.548 153.452C615.955 154.238 616.528 154.844 617.267 155.27C618.006 155.696 618.882 155.909 619.895 155.909C620.567 155.909 621.183 155.814 621.741 155.625C622.3 155.436 622.778 155.152 623.176 154.773C623.574 154.394 623.877 153.93 624.085 153.381L629.682 153.75C629.398 155.095 628.815 156.269 627.935 157.273C627.063 158.267 625.937 159.044 624.554 159.602C623.181 160.152 621.595 160.426 619.795 160.426ZM633.759 160V138.182H639.81V160H633.759ZM636.798 135.369C635.899 135.369 635.127 135.071 634.483 134.474C633.848 133.868 633.531 133.144 633.531 132.301C633.531 131.468 633.848 130.753 634.483 130.156C635.127 129.55 635.899 129.247 636.798 129.247C637.698 129.247 638.465 129.55 639.099 130.156C639.743 130.753 640.065 131.468 640.065 132.301C640.065 133.144 639.743 133.868 639.099 134.474C638.465 135.071 637.698 135.369 636.798 135.369ZM650.708 147.386V160H644.657V138.182H650.424V142.031H650.68C651.163 140.762 651.972 139.759 653.109 139.02C654.245 138.272 655.623 137.898 657.242 137.898C658.757 137.898 660.078 138.229 661.205 138.892C662.332 139.555 663.208 140.502 663.833 141.733C664.458 142.955 664.771 144.413 664.771 146.108V160H658.719V147.188C658.729 145.852 658.388 144.811 657.697 144.062C657.005 143.305 656.054 142.926 654.842 142.926C654.027 142.926 653.308 143.101 652.683 143.452C652.067 143.802 651.584 144.313 651.234 144.986C650.893 145.649 650.718 146.449 650.708 147.386ZM679.483 160.426C677.239 160.426 675.307 159.972 673.688 159.062C672.078 158.144 670.837 156.847 669.966 155.17C669.095 153.485 668.659 151.491 668.659 149.19C668.659 146.946 669.095 144.976 669.966 143.281C670.837 141.586 672.063 140.265 673.645 139.318C675.236 138.371 677.101 137.898 679.241 137.898C680.681 137.898 682.021 138.13 683.261 138.594C684.511 139.048 685.6 139.735 686.528 140.653C687.466 141.572 688.195 142.727 688.716 144.119C689.237 145.502 689.497 147.121 689.497 148.977V150.639H671.074V146.889H683.801C683.801 146.018 683.612 145.246 683.233 144.574C682.854 143.902 682.329 143.376 681.656 142.997C680.993 142.609 680.222 142.415 679.341 142.415C678.422 142.415 677.608 142.628 676.898 143.054C676.197 143.471 675.648 144.034 675.25 144.744C674.852 145.445 674.649 146.226 674.639 147.088V150.653C674.639 151.733 674.838 152.666 675.236 153.452C675.643 154.238 676.216 154.844 676.955 155.27C677.693 155.696 678.569 155.909 679.582 155.909C680.255 155.909 680.87 155.814 681.429 155.625C681.988 155.436 682.466 155.152 682.864 154.773C683.261 154.394 683.564 153.93 683.773 153.381L689.369 153.75C689.085 155.095 688.503 156.269 687.622 157.273C686.751 158.267 685.624 159.044 684.241 159.602C682.868 160.152 681.282 160.426 679.483 160.426ZM693.446 160V138.182H699.312V141.989H699.54C699.938 140.634 700.605 139.612 701.543 138.92C702.48 138.22 703.56 137.869 704.781 137.869C705.084 137.869 705.411 137.888 705.761 137.926C706.112 137.964 706.42 138.016 706.685 138.082V143.452C706.401 143.366 706.008 143.291 705.506 143.224C705.004 143.158 704.545 143.125 704.128 143.125C703.238 143.125 702.442 143.319 701.741 143.707C701.05 144.086 700.501 144.616 700.094 145.298C699.696 145.98 699.497 146.766 699.497 147.656V160H693.446ZM717.043 130.909L716.489 151.278H711.29L710.722 130.909H717.043ZM713.89 160.369C712.952 160.369 712.147 160.038 711.475 159.375C710.803 158.703 710.471 157.898 710.481 156.96C710.471 156.032 710.803 155.237 711.475 154.574C712.147 153.911 712.952 153.58 713.89 153.58C714.79 153.58 715.58 153.911 716.262 154.574C716.944 155.237 717.29 156.032 717.299 156.96C717.29 157.585 717.124 158.158 716.802 158.679C716.489 159.19 716.077 159.602 715.566 159.915C715.055 160.218 714.496 160.369 713.89 160.369ZM116.528 208V178.909H122.679V191.736H123.062L133.531 178.909H140.903L130.108 191.935L141.031 208H133.673L125.705 196.04L122.679 199.733V208H116.528ZM152.249 208.426C150.043 208.426 148.135 207.957 146.525 207.02C144.924 206.073 143.689 204.757 142.817 203.071C141.946 201.376 141.511 199.411 141.511 197.176C141.511 194.922 141.946 192.953 142.817 191.267C143.689 189.572 144.924 188.256 146.525 187.318C148.135 186.371 150.043 185.898 152.249 185.898C154.456 185.898 156.359 186.371 157.96 187.318C159.569 188.256 160.81 189.572 161.681 191.267C162.552 192.953 162.988 194.922 162.988 197.176C162.988 199.411 162.552 201.376 161.681 203.071C160.81 204.757 159.569 206.073 157.96 207.02C156.359 207.957 154.456 208.426 152.249 208.426ZM152.278 203.739C153.281 203.739 154.12 203.455 154.792 202.886C155.464 202.309 155.971 201.523 156.312 200.528C156.662 199.534 156.837 198.402 156.837 197.134C156.837 195.865 156.662 194.733 156.312 193.739C155.971 192.744 155.464 191.958 154.792 191.381C154.12 190.803 153.281 190.514 152.278 190.514C151.264 190.514 150.412 190.803 149.721 191.381C149.039 191.958 148.523 192.744 148.173 193.739C147.832 194.733 147.661 195.865 147.661 197.134C147.661 198.402 147.832 199.534 148.173 200.528C148.523 201.523 149.039 202.309 149.721 202.886C150.412 203.455 151.264 203.739 152.278 203.739ZM166.923 208V186.182H172.69V190.031H172.945C173.4 188.753 174.157 187.744 175.218 187.006C176.279 186.267 177.548 185.898 179.025 185.898C180.521 185.898 181.795 186.272 182.846 187.02C183.897 187.759 184.598 188.762 184.948 190.031H185.175C185.621 188.781 186.425 187.782 187.59 187.034C188.764 186.277 190.152 185.898 191.752 185.898C193.788 185.898 195.441 186.546 196.71 187.844C197.988 189.132 198.627 190.959 198.627 193.327V208H192.59V194.52C192.59 193.308 192.268 192.399 191.624 191.793C190.98 191.187 190.175 190.884 189.21 190.884C188.111 190.884 187.254 191.234 186.638 191.935C186.023 192.626 185.715 193.54 185.715 194.676V208H179.849V194.392C179.849 193.322 179.541 192.47 178.925 191.835C178.319 191.201 177.519 190.884 176.525 190.884C175.853 190.884 175.246 191.054 174.707 191.395C174.176 191.726 173.755 192.195 173.442 192.801C173.13 193.398 172.974 194.098 172.974 194.903V208H166.923ZM203.407 208V186.182H209.458V208H203.407ZM206.447 183.369C205.547 183.369 204.775 183.071 204.131 182.474C203.497 181.868 203.18 181.144 203.18 180.301C203.18 179.468 203.497 178.753 204.131 178.156C204.775 177.55 205.547 177.247 206.447 177.247C207.346 177.247 208.113 177.55 208.748 178.156C209.392 178.753 209.714 179.468 209.714 180.301C209.714 181.144 209.392 181.868 208.748 182.474C208.113 183.071 207.346 183.369 206.447 183.369ZM232.459 192.403L226.919 192.744C226.824 192.271 226.621 191.845 226.308 191.466C225.996 191.078 225.584 190.77 225.072 190.543C224.571 190.306 223.969 190.188 223.268 190.188C222.331 190.188 221.54 190.386 220.896 190.784C220.252 191.172 219.93 191.693 219.93 192.347C219.93 192.867 220.139 193.308 220.555 193.668C220.972 194.027 221.687 194.316 222.7 194.534L226.649 195.33C228.77 195.765 230.352 196.466 231.393 197.432C232.435 198.398 232.956 199.667 232.956 201.239C232.956 202.669 232.535 203.923 231.692 205.003C230.858 206.082 229.713 206.925 228.254 207.531C226.805 208.128 225.134 208.426 223.24 208.426C220.352 208.426 218.051 207.825 216.337 206.622C214.632 205.41 213.633 203.762 213.339 201.679L219.291 201.366C219.471 202.247 219.907 202.92 220.598 203.384C221.289 203.838 222.175 204.065 223.254 204.065C224.315 204.065 225.167 203.862 225.811 203.455C226.464 203.038 226.796 202.503 226.805 201.849C226.796 201.3 226.564 200.85 226.109 200.5C225.655 200.14 224.954 199.866 224.007 199.676L220.229 198.923C218.098 198.497 216.512 197.759 215.47 196.707C214.438 195.656 213.922 194.316 213.922 192.688C213.922 191.286 214.301 190.079 215.058 189.065C215.825 188.052 216.9 187.271 218.283 186.722C219.675 186.172 221.304 185.898 223.169 185.898C225.925 185.898 228.093 186.48 229.675 187.645C231.266 188.81 232.194 190.396 232.459 192.403ZM246.624 208.426C244.389 208.426 242.467 207.953 240.857 207.006C239.257 206.049 238.026 204.723 237.164 203.028C236.312 201.333 235.886 199.383 235.886 197.176C235.886 194.941 236.317 192.981 237.178 191.295C238.049 189.6 239.285 188.279 240.886 187.332C242.486 186.376 244.389 185.898 246.596 185.898C248.499 185.898 250.166 186.243 251.596 186.935C253.026 187.626 254.157 188.597 254.991 189.847C255.824 191.097 256.283 192.564 256.369 194.25H250.658C250.497 193.161 250.071 192.285 249.38 191.622C248.698 190.95 247.803 190.614 246.695 190.614C245.758 190.614 244.939 190.869 244.238 191.381C243.547 191.883 243.007 192.616 242.619 193.582C242.23 194.548 242.036 195.718 242.036 197.091C242.036 198.483 242.226 199.667 242.604 200.642C242.993 201.617 243.537 202.361 244.238 202.872C244.939 203.384 245.758 203.639 246.695 203.639C247.387 203.639 248.007 203.497 248.556 203.213C249.115 202.929 249.574 202.517 249.934 201.977C250.303 201.428 250.545 200.77 250.658 200.003H256.369C256.274 201.67 255.819 203.137 255.005 204.406C254.2 205.666 253.087 206.651 251.667 207.361C250.246 208.071 248.566 208.426 246.624 208.426ZM266.294 195.386V208H260.243V178.909H266.124V190.031H266.379C266.872 188.743 267.667 187.735 268.766 187.006C269.864 186.267 271.242 185.898 272.899 185.898C274.414 185.898 275.735 186.229 276.862 186.892C277.999 187.545 278.879 188.488 279.504 189.719C280.139 190.94 280.451 192.403 280.442 194.108V208H274.391V195.188C274.4 193.843 274.059 192.796 273.368 192.048C272.686 191.3 271.73 190.926 270.499 190.926C269.675 190.926 268.946 191.101 268.311 191.452C267.686 191.802 267.194 192.313 266.834 192.986C266.483 193.649 266.304 194.449 266.294 195.386ZM302.501 208.355C300.844 208.355 299.343 207.929 297.999 207.077C296.663 206.215 295.603 204.951 294.817 203.284C294.04 201.608 293.652 199.553 293.652 197.119C293.652 194.619 294.054 192.541 294.859 190.884C295.664 189.217 296.734 187.972 298.07 187.148C299.414 186.314 300.887 185.898 302.487 185.898C303.709 185.898 304.727 186.106 305.541 186.523C306.365 186.93 307.028 187.441 307.53 188.057C308.041 188.663 308.429 189.259 308.695 189.847H308.879V178.909H314.916V208H308.95V204.506H308.695C308.411 205.112 308.008 205.713 307.487 206.31C306.976 206.897 306.308 207.384 305.484 207.773C304.67 208.161 303.676 208.355 302.501 208.355ZM304.419 203.54C305.394 203.54 306.218 203.275 306.891 202.744C307.572 202.205 308.093 201.452 308.453 200.486C308.822 199.52 309.007 198.388 309.007 197.091C309.007 195.794 308.827 194.667 308.467 193.71C308.107 192.754 307.587 192.015 306.905 191.494C306.223 190.973 305.394 190.713 304.419 190.713C303.425 190.713 302.587 190.983 301.905 191.523C301.223 192.062 300.707 192.811 300.357 193.767C300.006 194.723 299.831 195.831 299.831 197.091C299.831 198.36 300.006 199.482 300.357 200.457C300.716 201.423 301.232 202.181 301.905 202.73C302.587 203.27 303.425 203.54 304.419 203.54ZM326.113 208.412C324.721 208.412 323.48 208.17 322.391 207.688C321.302 207.195 320.441 206.471 319.806 205.514C319.181 204.548 318.869 203.346 318.869 201.906C318.869 200.694 319.091 199.676 319.536 198.852C319.981 198.028 320.587 197.366 321.354 196.864C322.121 196.362 322.993 195.983 323.968 195.727C324.953 195.472 325.985 195.292 327.065 195.188C328.334 195.055 329.356 194.932 330.133 194.818C330.909 194.695 331.473 194.515 331.823 194.278C332.174 194.042 332.349 193.691 332.349 193.227V193.142C332.349 192.242 332.065 191.546 331.496 191.054C330.938 190.562 330.142 190.315 329.11 190.315C328.021 190.315 327.155 190.557 326.511 191.04C325.867 191.513 325.441 192.11 325.232 192.83L319.636 192.375C319.92 191.049 320.478 189.903 321.312 188.938C322.145 187.962 323.22 187.214 324.536 186.693C325.862 186.163 327.396 185.898 329.138 185.898C330.351 185.898 331.511 186.04 332.619 186.324C333.736 186.608 334.726 187.048 335.587 187.645C336.459 188.241 337.145 189.009 337.647 189.946C338.149 190.874 338.4 191.987 338.4 193.284V208H332.661V204.974H332.491C332.14 205.656 331.672 206.258 331.085 206.778C330.497 207.29 329.792 207.692 328.968 207.986C328.144 208.27 327.192 208.412 326.113 208.412ZM327.846 204.236C328.736 204.236 329.522 204.061 330.204 203.71C330.886 203.35 331.421 202.867 331.809 202.261C332.197 201.655 332.391 200.969 332.391 200.202V197.886C332.202 198.009 331.942 198.123 331.61 198.227C331.288 198.322 330.924 198.412 330.516 198.497C330.109 198.573 329.702 198.644 329.295 198.71C328.888 198.767 328.518 198.819 328.187 198.866C327.477 198.971 326.856 199.136 326.326 199.364C325.796 199.591 325.384 199.899 325.09 200.287C324.797 200.666 324.65 201.139 324.65 201.707C324.65 202.531 324.948 203.161 325.545 203.597C326.151 204.023 326.918 204.236 327.846 204.236ZM361.248 192.403L355.708 192.744C355.613 192.271 355.41 191.845 355.097 191.466C354.785 191.078 354.373 190.77 353.862 190.543C353.36 190.306 352.758 190.188 352.058 190.188C351.12 190.188 350.329 190.386 349.685 190.784C349.041 191.172 348.719 191.693 348.719 192.347C348.719 192.867 348.928 193.308 349.344 193.668C349.761 194.027 350.476 194.316 351.489 194.534L355.438 195.33C357.559 195.765 359.141 196.466 360.183 197.432C361.224 198.398 361.745 199.667 361.745 201.239C361.745 202.669 361.324 203.923 360.481 205.003C359.647 206.082 358.502 206.925 357.043 207.531C355.594 208.128 353.923 208.426 352.029 208.426C349.141 208.426 346.84 207.825 345.126 206.622C343.421 205.41 342.422 203.762 342.129 201.679L348.08 201.366C348.26 202.247 348.696 202.92 349.387 203.384C350.078 203.838 350.964 204.065 352.043 204.065C353.104 204.065 353.956 203.862 354.6 203.455C355.254 203.038 355.585 202.503 355.594 201.849C355.585 201.3 355.353 200.85 354.898 200.5C354.444 200.14 353.743 199.866 352.796 199.676L349.018 198.923C346.887 198.497 345.301 197.759 344.259 196.707C343.227 195.656 342.711 194.316 342.711 192.688C342.711 191.286 343.09 190.079 343.847 189.065C344.614 188.052 345.689 187.271 347.072 186.722C348.464 186.172 350.093 185.898 351.958 185.898C354.714 185.898 356.882 186.48 358.464 187.645C360.055 188.81 360.983 190.396 361.248 192.403ZM381.035 208.412C379.643 208.412 378.402 208.17 377.313 207.688C376.224 207.195 375.362 206.471 374.728 205.514C374.103 204.548 373.79 203.346 373.79 201.906C373.79 200.694 374.013 199.676 374.458 198.852C374.903 198.028 375.509 197.366 376.276 196.864C377.043 196.362 377.915 195.983 378.89 195.727C379.875 195.472 380.907 195.292 381.987 195.188C383.255 195.055 384.278 194.932 385.055 194.818C385.831 194.695 386.395 194.515 386.745 194.278C387.095 194.042 387.271 193.691 387.271 193.227V193.142C387.271 192.242 386.987 191.546 386.418 191.054C385.86 190.562 385.064 190.315 384.032 190.315C382.943 190.315 382.076 190.557 381.433 191.04C380.789 191.513 380.362 192.11 380.154 192.83L374.558 192.375C374.842 191.049 375.4 189.903 376.234 188.938C377.067 187.962 378.142 187.214 379.458 186.693C380.784 186.163 382.318 185.898 384.06 185.898C385.272 185.898 386.433 186.04 387.54 186.324C388.658 186.608 389.647 187.048 390.509 187.645C391.38 188.241 392.067 189.009 392.569 189.946C393.071 190.874 393.322 191.987 393.322 193.284V208H387.583V204.974H387.413C387.062 205.656 386.594 206.258 386.006 206.778C385.419 207.29 384.714 207.692 383.89 207.986C383.066 208.27 382.114 208.412 381.035 208.412ZM382.768 204.236C383.658 204.236 384.444 204.061 385.126 203.71C385.808 203.35 386.343 202.867 386.731 202.261C387.119 201.655 387.313 200.969 387.313 200.202V197.886C387.124 198.009 386.863 198.123 386.532 198.227C386.21 198.322 385.845 198.412 385.438 198.497C385.031 198.573 384.624 198.644 384.217 198.71C383.809 198.767 383.44 198.819 383.109 198.866C382.398 198.971 381.778 199.136 381.248 199.364C380.718 199.591 380.306 199.899 380.012 200.287C379.719 200.666 379.572 201.139 379.572 201.707C379.572 202.531 379.87 203.161 380.467 203.597C381.073 204.023 381.84 204.236 382.768 204.236ZM412.008 198.71V186.182H418.059V208H412.249V204.037H412.022C411.53 205.315 410.71 206.343 409.565 207.119C408.428 207.896 407.041 208.284 405.403 208.284C403.944 208.284 402.661 207.953 401.553 207.29C400.445 206.627 399.579 205.685 398.954 204.463C398.338 203.241 398.026 201.778 398.016 200.074V186.182H404.067V198.994C404.077 200.282 404.423 201.3 405.104 202.048C405.786 202.796 406.7 203.17 407.846 203.17C408.575 203.17 409.257 203.005 409.891 202.673C410.526 202.332 411.037 201.83 411.425 201.168C411.823 200.505 412.017 199.686 412.008 198.71ZM434.632 186.182V190.727H421.166V186.182H434.632ZM424.249 208V184.605C424.249 183.024 424.556 181.712 425.172 180.67C425.797 179.629 426.649 178.848 427.729 178.327C428.808 177.806 430.035 177.545 431.408 177.545C432.336 177.545 433.183 177.616 433.95 177.759C434.727 177.901 435.304 178.028 435.683 178.142L434.604 182.688C434.367 182.612 434.073 182.541 433.723 182.474C433.382 182.408 433.032 182.375 432.672 182.375C431.782 182.375 431.161 182.583 430.811 183C430.461 183.407 430.286 183.98 430.286 184.719V208H424.249ZM447.587 208V186.182H453.638V208H447.587ZM450.626 183.369C449.727 183.369 448.955 183.071 448.311 182.474C447.677 181.868 447.359 181.144 447.359 180.301C447.359 179.468 447.677 178.753 448.311 178.156C448.955 177.55 449.727 177.247 450.626 177.247C451.526 177.247 452.293 177.55 452.928 178.156C453.571 178.753 453.893 179.468 453.893 180.301C453.893 181.144 453.571 181.868 452.928 182.474C452.293 183.071 451.526 183.369 450.626 183.369ZM464.536 195.386V208H458.485V178.909H464.366V190.031H464.621C465.114 188.743 465.909 187.735 467.008 187.006C468.106 186.267 469.484 185.898 471.141 185.898C472.656 185.898 473.978 186.229 475.104 186.892C476.241 187.545 477.121 188.488 477.746 189.719C478.381 190.94 478.693 192.403 478.684 194.108V208H472.633V195.188C472.642 193.843 472.301 192.796 471.61 192.048C470.928 191.3 469.972 190.926 468.741 190.926C467.917 190.926 467.188 191.101 466.553 191.452C465.928 191.802 465.436 192.313 465.076 192.986C464.726 193.649 464.546 194.449 464.536 195.386ZM483.446 208V186.182H489.213V190.031H489.469C489.923 188.753 490.681 187.744 491.741 187.006C492.802 186.267 494.071 185.898 495.548 185.898C497.045 185.898 498.318 186.272 499.369 187.02C500.42 187.759 501.121 188.762 501.472 190.031H501.699C502.144 188.781 502.949 187.782 504.114 187.034C505.288 186.277 506.675 185.898 508.276 185.898C510.312 185.898 511.964 186.546 513.233 187.844C514.511 189.132 515.151 190.959 515.151 193.327V208H509.114V194.52C509.114 193.308 508.792 192.399 508.148 191.793C507.504 191.187 506.699 190.884 505.733 190.884C504.634 190.884 503.777 191.234 503.162 191.935C502.546 192.626 502.239 193.54 502.239 194.676V208H496.372V194.392C496.372 193.322 496.064 192.47 495.449 191.835C494.843 191.201 494.043 190.884 493.048 190.884C492.376 190.884 491.77 191.054 491.23 191.395C490.7 191.726 490.278 192.195 489.966 192.801C489.653 193.398 489.497 194.098 489.497 194.903V208H483.446ZM529.188 208V186.182H534.955V190.031H535.211C535.665 188.753 536.423 187.744 537.484 187.006C538.544 186.267 539.813 185.898 541.29 185.898C542.787 185.898 544.06 186.272 545.112 187.02C546.163 187.759 546.863 188.762 547.214 190.031H547.441C547.886 188.781 548.691 187.782 549.856 187.034C551.03 186.277 552.417 185.898 554.018 185.898C556.054 185.898 557.706 186.546 558.975 187.844C560.254 189.132 560.893 190.959 560.893 193.327V208H554.856V194.52C554.856 193.308 554.534 192.399 553.89 191.793C553.246 191.187 552.441 190.884 551.475 190.884C550.377 190.884 549.52 191.234 548.904 191.935C548.289 192.626 547.981 193.54 547.981 194.676V208H542.114V194.392C542.114 193.322 541.807 192.47 541.191 191.835C540.585 191.201 539.785 190.884 538.79 190.884C538.118 190.884 537.512 191.054 536.972 191.395C536.442 191.726 536.021 192.195 535.708 192.801C535.396 193.398 535.239 194.098 535.239 194.903V208H529.188ZM575.616 208.426C573.371 208.426 571.44 207.972 569.82 207.062C568.21 206.144 566.97 204.847 566.099 203.17C565.228 201.485 564.792 199.491 564.792 197.19C564.792 194.946 565.228 192.976 566.099 191.281C566.97 189.586 568.196 188.265 569.778 187.318C571.369 186.371 573.234 185.898 575.374 185.898C576.814 185.898 578.154 186.13 579.394 186.594C580.644 187.048 581.733 187.735 582.661 188.653C583.599 189.572 584.328 190.727 584.849 192.119C585.37 193.502 585.63 195.121 585.63 196.977V198.639H567.207V194.889H579.934C579.934 194.018 579.745 193.246 579.366 192.574C578.987 191.902 578.461 191.376 577.789 190.997C577.126 190.609 576.354 190.415 575.474 190.415C574.555 190.415 573.741 190.628 573.031 191.054C572.33 191.471 571.781 192.034 571.383 192.744C570.985 193.445 570.781 194.226 570.772 195.088V198.653C570.772 199.733 570.971 200.666 571.369 201.452C571.776 202.238 572.349 202.844 573.087 203.27C573.826 203.696 574.702 203.909 575.715 203.909C576.388 203.909 577.003 203.814 577.562 203.625C578.121 203.436 578.599 203.152 578.996 202.773C579.394 202.394 579.697 201.93 579.906 201.381L585.502 201.75C585.218 203.095 584.636 204.269 583.755 205.273C582.884 206.267 581.757 207.044 580.374 207.602C579.001 208.152 577.415 208.426 575.616 208.426ZM589.579 208V186.182H595.63V208H589.579ZM592.619 183.369C591.719 183.369 590.947 183.071 590.303 182.474C589.669 181.868 589.352 181.144 589.352 180.301C589.352 179.468 589.669 178.753 590.303 178.156C590.947 177.55 591.719 177.247 592.619 177.247C593.518 177.247 594.285 177.55 594.92 178.156C595.564 178.753 595.886 179.468 595.886 180.301C595.886 181.144 595.564 181.868 594.92 182.474C594.285 183.071 593.518 183.369 592.619 183.369ZM606.528 195.386V208H600.477V186.182H606.244V190.031H606.5C606.983 188.762 607.793 187.759 608.929 187.02C610.065 186.272 611.443 185.898 613.062 185.898C614.578 185.898 615.899 186.229 617.026 186.892C618.152 187.555 619.028 188.502 619.653 189.733C620.278 190.955 620.591 192.413 620.591 194.108V208H614.54V195.188C614.549 193.852 614.208 192.811 613.517 192.062C612.826 191.305 611.874 190.926 610.662 190.926C609.848 190.926 609.128 191.101 608.503 191.452C607.887 191.802 607.404 192.313 607.054 192.986C606.713 193.649 606.538 194.449 606.528 195.386ZM659.064 178.909V208H653.751L641.095 189.69H640.882V208H634.732V178.909H640.129L652.686 197.205H652.942V178.909H659.064ZM670.254 208.412C668.862 208.412 667.621 208.17 666.532 207.688C665.443 207.195 664.581 206.471 663.947 205.514C663.322 204.548 663.009 203.346 663.009 201.906C663.009 200.694 663.232 199.676 663.677 198.852C664.122 198.028 664.728 197.366 665.495 196.864C666.262 196.362 667.133 195.983 668.109 195.727C669.094 195.472 670.126 195.292 671.205 195.188C672.474 195.055 673.497 194.932 674.273 194.818C675.05 194.695 675.613 194.515 675.964 194.278C676.314 194.042 676.489 193.691 676.489 193.227V193.142C676.489 192.242 676.205 191.546 675.637 191.054C675.078 190.562 674.283 190.315 673.251 190.315C672.162 190.315 671.295 190.557 670.651 191.04C670.007 191.513 669.581 192.11 669.373 192.83L663.776 192.375C664.06 191.049 664.619 189.903 665.452 188.938C666.286 187.962 667.361 187.214 668.677 186.693C670.003 186.163 671.537 185.898 673.279 185.898C674.491 185.898 675.651 186.04 676.759 186.324C677.877 186.608 678.866 187.048 679.728 187.645C680.599 188.241 681.286 189.009 681.788 189.946C682.29 190.874 682.54 191.987 682.54 193.284V208H676.802V204.974H676.631C676.281 205.656 675.812 206.258 675.225 206.778C674.638 207.29 673.933 207.692 673.109 207.986C672.285 208.27 671.333 208.412 670.254 208.412ZM671.987 204.236C672.877 204.236 673.663 204.061 674.344 203.71C675.026 203.35 675.561 202.867 675.95 202.261C676.338 201.655 676.532 200.969 676.532 200.202V197.886C676.343 198.009 676.082 198.123 675.751 198.227C675.429 198.322 675.064 198.412 674.657 198.497C674.25 198.573 673.843 198.644 673.435 198.71C673.028 198.767 672.659 198.819 672.327 198.866C671.617 198.971 670.997 199.136 670.467 199.364C669.936 199.591 669.524 199.899 669.231 200.287C668.937 200.666 668.79 201.139 668.79 201.707C668.79 202.531 669.089 203.161 669.685 203.597C670.291 204.023 671.058 204.236 671.987 204.236ZM687.235 208V186.182H693.002V190.031H693.258C693.712 188.753 694.47 187.744 695.531 187.006C696.591 186.267 697.86 185.898 699.337 185.898C700.834 185.898 702.107 186.272 703.158 187.02C704.21 187.759 704.91 188.762 705.261 190.031H705.488C705.933 188.781 706.738 187.782 707.903 187.034C709.077 186.277 710.464 185.898 712.065 185.898C714.101 185.898 715.753 186.546 717.022 187.844C718.3 189.132 718.94 190.959 718.94 193.327V208H712.903V194.52C712.903 193.308 712.581 192.399 711.937 191.793C711.293 191.187 710.488 190.884 709.522 190.884C708.424 190.884 707.567 191.234 706.951 191.935C706.335 192.626 706.028 193.54 706.028 194.676V208H700.161V194.392C700.161 193.322 699.853 192.47 699.238 191.835C698.632 191.201 697.832 190.884 696.837 190.884C696.165 190.884 695.559 191.054 695.019 191.395C694.489 191.726 694.067 192.195 693.755 192.801C693.442 193.398 693.286 194.098 693.286 194.903V208H687.235ZM733.663 208.426C731.418 208.426 729.487 207.972 727.867 207.062C726.257 206.144 725.017 204.847 724.146 203.17C723.274 201.485 722.839 199.491 722.839 197.19C722.839 194.946 723.274 192.976 724.146 191.281C725.017 189.586 726.243 188.265 727.825 187.318C729.415 186.371 731.281 185.898 733.421 185.898C734.861 185.898 736.201 186.13 737.441 186.594C738.691 187.048 739.78 187.735 740.708 188.653C741.646 189.572 742.375 190.727 742.896 192.119C743.416 193.502 743.677 195.121 743.677 196.977V198.639H725.254V194.889H737.981C737.981 194.018 737.791 193.246 737.413 192.574C737.034 191.902 736.508 191.376 735.836 190.997C735.173 190.609 734.401 190.415 733.521 190.415C732.602 190.415 731.788 190.628 731.077 191.054C730.377 191.471 729.827 192.034 729.43 192.744C729.032 193.445 728.828 194.226 728.819 195.088V198.653C728.819 199.733 729.018 200.666 729.415 201.452C729.823 202.238 730.396 202.844 731.134 203.27C731.873 203.696 732.749 203.909 733.762 203.909C734.434 203.909 735.05 203.814 735.609 203.625C736.167 203.436 736.646 203.152 737.043 202.773C737.441 202.394 737.744 201.93 737.952 201.381L743.549 201.75C743.265 203.095 742.683 204.269 741.802 205.273C740.931 206.267 739.804 207.044 738.421 207.602C737.048 208.152 735.462 208.426 733.663 208.426ZM775.037 192.403L769.497 192.744C769.402 192.271 769.199 191.845 768.886 191.466C768.574 191.078 768.162 190.77 767.651 190.543C767.149 190.306 766.547 190.188 765.847 190.188C764.909 190.188 764.118 190.386 763.474 190.784C762.83 191.172 762.509 191.693 762.509 192.347C762.509 192.867 762.717 193.308 763.134 193.668C763.55 194.027 764.265 194.316 765.278 194.534L769.227 195.33C771.348 195.765 772.93 196.466 773.972 197.432C775.013 198.398 775.534 199.667 775.534 201.239C775.534 202.669 775.113 203.923 774.27 205.003C773.437 206.082 772.291 206.925 770.832 207.531C769.384 208.128 767.712 208.426 765.818 208.426C762.93 208.426 760.629 207.825 758.915 206.622C757.21 205.41 756.211 203.762 755.918 201.679L761.869 201.366C762.049 202.247 762.485 202.92 763.176 203.384C763.867 203.838 764.753 204.065 765.832 204.065C766.893 204.065 767.745 203.862 768.389 203.455C769.043 203.038 769.374 202.503 769.384 201.849C769.374 201.3 769.142 200.85 768.688 200.5C768.233 200.14 767.532 199.866 766.585 199.676L762.807 198.923C760.676 198.497 759.09 197.759 758.048 196.707C757.016 195.656 756.5 194.316 756.5 192.688C756.5 191.286 756.879 190.079 757.636 189.065C758.403 188.052 759.478 187.271 760.861 186.722C762.253 186.172 763.882 185.898 765.747 185.898C768.503 185.898 770.671 186.48 772.253 187.645C773.844 188.81 774.772 190.396 775.037 192.403ZM790.95 186.182V190.727H777.81V186.182H790.95ZM780.793 180.955H786.844V201.295C786.844 201.854 786.93 202.29 787.1 202.602C787.271 202.905 787.507 203.118 787.81 203.241C788.123 203.365 788.483 203.426 788.89 203.426C789.174 203.426 789.458 203.402 789.742 203.355C790.026 203.298 790.244 203.256 790.396 203.227L791.347 207.73C791.044 207.825 790.618 207.934 790.069 208.057C789.52 208.189 788.852 208.27 788.066 208.298C786.608 208.355 785.329 208.161 784.231 207.716C783.142 207.271 782.294 206.58 781.688 205.642C781.082 204.705 780.784 203.521 780.793 202.091V180.955ZM804.6 208.426C802.356 208.426 800.424 207.972 798.805 207.062C797.195 206.144 795.954 204.847 795.083 203.17C794.212 201.485 793.776 199.491 793.776 197.19C793.776 194.946 794.212 192.976 795.083 191.281C795.954 189.586 797.181 188.265 798.762 187.318C800.353 186.371 802.219 185.898 804.359 185.898C805.798 185.898 807.138 186.13 808.379 186.594C809.629 187.048 810.718 187.735 811.646 188.653C812.583 189.572 813.312 190.727 813.833 192.119C814.354 193.502 814.614 195.121 814.614 196.977V198.639H796.191V194.889H808.918C808.918 194.018 808.729 193.246 808.35 192.574C807.971 191.902 807.446 191.376 806.773 190.997C806.111 190.609 805.339 190.415 804.458 190.415C803.54 190.415 802.725 190.628 802.015 191.054C801.314 191.471 800.765 192.034 800.367 192.744C799.969 193.445 799.766 194.226 799.756 195.088V198.653C799.756 199.733 799.955 200.666 800.353 201.452C800.76 202.238 801.333 202.844 802.072 203.27C802.81 203.696 803.686 203.909 804.7 203.909C805.372 203.909 805.987 203.814 806.546 203.625C807.105 203.436 807.583 203.152 807.981 202.773C808.379 202.394 808.682 201.93 808.89 201.381L814.487 201.75C814.202 203.095 813.62 204.269 812.739 205.273C811.868 206.267 810.741 207.044 809.359 207.602C807.986 208.152 806.399 208.426 804.6 208.426ZM824.614 195.386V208H818.563V178.909H824.444V190.031H824.7C825.192 188.743 825.987 187.735 827.086 187.006C828.184 186.267 829.562 185.898 831.219 185.898C832.735 185.898 834.056 186.229 835.183 186.892C836.319 187.545 837.2 188.488 837.825 189.719C838.459 190.94 838.772 192.403 838.762 194.108V208H832.711V195.188C832.72 193.843 832.379 192.796 831.688 192.048C831.006 191.3 830.05 190.926 828.819 190.926C827.995 190.926 827.266 191.101 826.631 191.452C826.006 191.802 825.514 192.313 825.154 192.986C824.804 193.649 824.624 194.449 824.614 195.386ZM855.129 186.182V190.727H841.99V186.182H855.129ZM844.973 180.955H851.024V201.295C851.024 201.854 851.109 202.29 851.28 202.602C851.45 202.905 851.687 203.118 851.99 203.241C852.303 203.365 852.662 203.426 853.07 203.426C853.354 203.426 853.638 203.402 853.922 203.355C854.206 203.298 854.424 203.256 854.575 203.227L855.527 207.73C855.224 207.825 854.798 207.934 854.249 208.057C853.699 208.189 853.032 208.27 852.246 208.298C850.787 208.355 849.509 208.161 848.411 207.716C847.321 207.271 846.474 206.58 845.868 205.642C845.262 204.705 844.964 203.521 844.973 202.091V180.955ZM865.648 204.023L865.491 205.585C865.368 206.835 865.132 208.08 864.781 209.321C864.44 210.571 864.08 211.703 863.702 212.716C863.332 213.729 863.034 214.525 862.807 215.102H858.886C859.028 214.544 859.223 213.762 859.469 212.759C859.715 211.764 859.947 210.647 860.165 209.406C860.383 208.166 860.52 206.902 860.577 205.614L860.648 204.023H865.648ZM120.719 256L114.781 234.182H120.903L124.284 248.841H124.483L128.006 234.182H134.014L137.594 248.756H137.778L141.102 234.182H147.21L141.287 256H134.881L131.131 242.278H130.861L127.111 256H120.719ZM156.66 256.412C155.268 256.412 154.027 256.17 152.938 255.688C151.849 255.195 150.987 254.471 150.353 253.514C149.728 252.548 149.415 251.346 149.415 249.906C149.415 248.694 149.638 247.676 150.083 246.852C150.528 246.028 151.134 245.366 151.901 244.864C152.668 244.362 153.54 243.983 154.515 243.727C155.5 243.472 156.532 243.292 157.612 243.188C158.88 243.055 159.903 242.932 160.68 242.818C161.456 242.695 162.02 242.515 162.37 242.278C162.72 242.042 162.896 241.691 162.896 241.227V241.142C162.896 240.242 162.612 239.546 162.043 239.054C161.485 238.562 160.689 238.315 159.657 238.315C158.568 238.315 157.701 238.557 157.058 239.04C156.414 239.513 155.987 240.11 155.779 240.83L150.183 240.375C150.467 239.049 151.025 237.903 151.859 236.938C152.692 235.962 153.767 235.214 155.083 234.693C156.409 234.163 157.943 233.898 159.685 233.898C160.897 233.898 162.058 234.04 163.165 234.324C164.283 234.608 165.272 235.048 166.134 235.645C167.005 236.241 167.692 237.009 168.194 237.946C168.696 238.874 168.947 239.987 168.947 241.284V256H163.208V252.974H163.038C162.687 253.656 162.219 254.258 161.631 254.778C161.044 255.29 160.339 255.692 159.515 255.986C158.691 256.27 157.739 256.412 156.66 256.412ZM158.393 252.236C159.283 252.236 160.069 252.061 160.751 251.71C161.433 251.35 161.968 250.867 162.356 250.261C162.744 249.655 162.938 248.969 162.938 248.202V245.886C162.749 246.009 162.488 246.123 162.157 246.227C161.835 246.322 161.47 246.412 161.063 246.497C160.656 246.573 160.249 246.644 159.842 246.71C159.434 246.767 159.065 246.819 158.734 246.866C158.023 246.971 157.403 247.136 156.873 247.364C156.343 247.591 155.931 247.899 155.637 248.287C155.344 248.666 155.197 249.139 155.197 249.707C155.197 250.531 155.495 251.161 156.092 251.597C156.698 252.023 157.465 252.236 158.393 252.236ZM191.795 240.403L186.255 240.744C186.16 240.271 185.957 239.845 185.644 239.466C185.332 239.078 184.92 238.77 184.408 238.543C183.906 238.306 183.305 238.188 182.604 238.188C181.667 238.188 180.876 238.386 180.232 238.784C179.588 239.172 179.266 239.693 179.266 240.347C179.266 240.867 179.475 241.308 179.891 241.668C180.308 242.027 181.023 242.316 182.036 242.534L185.985 243.33C188.106 243.765 189.688 244.466 190.729 245.432C191.771 246.398 192.292 247.667 192.292 249.239C192.292 250.669 191.871 251.923 191.028 253.003C190.194 254.082 189.049 254.925 187.59 255.531C186.141 256.128 184.47 256.426 182.576 256.426C179.688 256.426 177.387 255.825 175.673 254.622C173.968 253.41 172.969 251.762 172.675 249.679L178.627 249.366C178.807 250.247 179.243 250.92 179.934 251.384C180.625 251.838 181.511 252.065 182.59 252.065C183.651 252.065 184.503 251.862 185.147 251.455C185.8 251.038 186.132 250.503 186.141 249.849C186.132 249.3 185.9 248.85 185.445 248.5C184.991 248.14 184.29 247.866 183.343 247.676L179.565 246.923C177.434 246.497 175.848 245.759 174.806 244.707C173.774 243.656 173.258 242.316 173.258 240.688C173.258 239.286 173.637 238.079 174.394 237.065C175.161 236.052 176.236 235.271 177.619 234.722C179.011 234.172 180.639 233.898 182.505 233.898C185.261 233.898 187.429 234.48 189.011 235.645C190.602 236.81 191.53 238.396 191.795 240.403ZM213.4 256.355C211.743 256.355 210.242 255.929 208.897 255.077C207.562 254.215 206.501 252.951 205.715 251.284C204.939 249.608 204.55 247.553 204.55 245.119C204.55 242.619 204.953 240.541 205.758 238.884C206.563 237.217 207.633 235.972 208.968 235.148C210.313 234.314 211.785 233.898 213.386 233.898C214.607 233.898 215.625 234.106 216.44 234.523C217.263 234.93 217.926 235.441 218.428 236.057C218.94 236.663 219.328 237.259 219.593 237.847H219.778V226.909H225.815V256H219.849V252.506H219.593C219.309 253.112 218.906 253.713 218.386 254.31C217.874 254.897 217.207 255.384 216.383 255.773C215.568 256.161 214.574 256.355 213.4 256.355ZM215.317 251.54C216.293 251.54 217.117 251.275 217.789 250.744C218.471 250.205 218.992 249.452 219.352 248.486C219.721 247.52 219.906 246.388 219.906 245.091C219.906 243.794 219.726 242.667 219.366 241.71C219.006 240.754 218.485 240.015 217.803 239.494C217.121 238.973 216.293 238.713 215.317 238.713C214.323 238.713 213.485 238.983 212.803 239.523C212.121 240.062 211.605 240.811 211.255 241.767C210.905 242.723 210.729 243.831 210.729 245.091C210.729 246.36 210.905 247.482 211.255 248.457C211.615 249.423 212.131 250.181 212.803 250.73C213.485 251.27 214.323 251.54 215.317 251.54ZM237.011 256.412C235.619 256.412 234.379 256.17 233.29 255.688C232.201 255.195 231.339 254.471 230.705 253.514C230.08 252.548 229.767 251.346 229.767 249.906C229.767 248.694 229.99 247.676 230.435 246.852C230.88 246.028 231.486 245.366 232.253 244.864C233.02 244.362 233.891 243.983 234.866 243.727C235.851 243.472 236.884 243.292 237.963 243.188C239.232 243.055 240.255 242.932 241.031 242.818C241.808 242.695 242.371 242.515 242.722 242.278C243.072 242.042 243.247 241.691 243.247 241.227V241.142C243.247 240.242 242.963 239.546 242.395 239.054C241.836 238.562 241.041 238.315 240.009 238.315C238.92 238.315 238.053 238.557 237.409 239.04C236.765 239.513 236.339 240.11 236.131 240.83L230.534 240.375C230.818 239.049 231.377 237.903 232.21 236.938C233.044 235.962 234.118 235.214 235.435 234.693C236.76 234.163 238.295 233.898 240.037 233.898C241.249 233.898 242.409 234.04 243.517 234.324C244.634 234.608 245.624 235.048 246.486 235.645C247.357 236.241 248.044 237.009 248.545 237.946C249.047 238.874 249.298 239.987 249.298 241.284V256H243.56V252.974H243.389C243.039 253.656 242.57 254.258 241.983 254.778C241.396 255.29 240.69 255.692 239.866 255.986C239.043 256.27 238.091 256.412 237.011 256.412ZM238.744 252.236C239.634 252.236 240.42 252.061 241.102 251.71C241.784 251.35 242.319 250.867 242.707 250.261C243.096 249.655 243.29 248.969 243.29 248.202V245.886C243.1 246.009 242.84 246.123 242.509 246.227C242.187 246.322 241.822 246.412 241.415 246.497C241.008 246.573 240.6 246.644 240.193 246.71C239.786 246.767 239.417 246.819 239.085 246.866C238.375 246.971 237.755 247.136 237.224 247.364C236.694 247.591 236.282 247.899 235.989 248.287C235.695 248.666 235.548 249.139 235.548 249.707C235.548 250.531 235.847 251.161 236.443 251.597C237.049 252.023 237.816 252.236 238.744 252.236ZM267.555 256L261.617 234.182H267.739L271.12 248.841H271.319L274.842 234.182H280.85L284.43 248.756H284.614L287.938 234.182H294.046L288.123 256H281.717L277.967 242.278H277.697L273.947 256H267.555ZM306.585 256.426C304.379 256.426 302.471 255.957 300.861 255.02C299.26 254.073 298.025 252.757 297.153 251.071C296.282 249.376 295.847 247.411 295.847 245.176C295.847 242.922 296.282 240.953 297.153 239.267C298.025 237.572 299.26 236.256 300.861 235.318C302.471 234.371 304.379 233.898 306.585 233.898C308.792 233.898 310.695 234.371 312.295 235.318C313.905 236.256 315.146 237.572 316.017 239.267C316.888 240.953 317.324 242.922 317.324 245.176C317.324 247.411 316.888 249.376 316.017 251.071C315.146 252.757 313.905 254.073 312.295 255.02C310.695 255.957 308.792 256.426 306.585 256.426ZM306.614 251.739C307.617 251.739 308.455 251.455 309.128 250.886C309.8 250.309 310.307 249.523 310.648 248.528C310.998 247.534 311.173 246.402 311.173 245.134C311.173 243.865 310.998 242.733 310.648 241.739C310.307 240.744 309.8 239.958 309.128 239.381C308.455 238.803 307.617 238.514 306.614 238.514C305.6 238.514 304.748 238.803 304.057 239.381C303.375 239.958 302.859 240.744 302.509 241.739C302.168 242.733 301.997 243.865 301.997 245.134C301.997 246.402 302.168 247.534 302.509 248.528C302.859 249.523 303.375 250.309 304.057 250.886C304.748 251.455 305.6 251.739 306.614 251.739ZM327.31 243.386V256H321.259V226.909H327.139V238.031H327.395C327.887 236.743 328.683 235.735 329.781 235.006C330.88 234.267 332.258 233.898 333.915 233.898C335.43 233.898 336.751 234.229 337.878 234.892C339.014 235.545 339.895 236.488 340.52 237.719C341.154 238.94 341.467 240.403 341.457 242.108V256H335.406V243.188C335.416 241.843 335.075 240.796 334.384 240.048C333.702 239.3 332.745 238.926 331.514 238.926C330.69 238.926 329.961 239.101 329.327 239.452C328.702 239.802 328.209 240.313 327.849 240.986C327.499 241.649 327.319 242.449 327.31 243.386ZM352.271 226.909V256H346.219V226.909H352.271ZM374.415 256.355C372.758 256.355 371.257 255.929 369.913 255.077C368.577 254.215 367.517 252.951 366.731 251.284C365.954 249.608 365.566 247.553 365.566 245.119C365.566 242.619 365.969 240.541 366.773 238.884C367.578 237.217 368.648 235.972 369.984 235.148C371.328 234.314 372.801 233.898 374.401 233.898C375.623 233.898 376.641 234.106 377.455 234.523C378.279 234.93 378.942 235.441 379.444 236.057C379.955 236.663 380.344 237.259 380.609 237.847H380.793V226.909H386.83V256H380.864V252.506H380.609C380.325 253.112 379.922 253.713 379.401 254.31C378.89 254.897 378.222 255.384 377.398 255.773C376.584 256.161 375.59 256.355 374.415 256.355ZM376.333 251.54C377.308 251.54 378.132 251.275 378.805 250.744C379.487 250.205 380.007 249.452 380.367 248.486C380.737 247.52 380.921 246.388 380.921 245.091C380.921 243.794 380.741 242.667 380.381 241.71C380.022 240.754 379.501 240.015 378.819 239.494C378.137 238.973 377.308 238.713 376.333 238.713C375.339 238.713 374.501 238.983 373.819 239.523C373.137 240.062 372.621 240.811 372.271 241.767C371.92 242.723 371.745 243.831 371.745 245.091C371.745 246.36 371.92 247.482 372.271 248.457C372.63 249.423 373.147 250.181 373.819 250.73C374.501 251.27 375.339 251.54 376.333 251.54ZM391.805 256V234.182H397.672V237.989H397.899C398.297 236.634 398.964 235.612 399.902 234.92C400.839 234.22 401.919 233.869 403.141 233.869C403.444 233.869 403.77 233.888 404.121 233.926C404.471 233.964 404.779 234.016 405.044 234.082V239.452C404.76 239.366 404.367 239.291 403.865 239.224C403.363 239.158 402.904 239.125 402.487 239.125C401.597 239.125 400.802 239.319 400.101 239.707C399.41 240.086 398.86 240.616 398.453 241.298C398.055 241.98 397.857 242.766 397.857 243.656V256H391.805ZM413.769 256.412C412.377 256.412 411.137 256.17 410.048 255.688C408.959 255.195 408.097 254.471 407.462 253.514C406.837 252.548 406.525 251.346 406.525 249.906C406.525 248.694 406.747 247.676 407.192 246.852C407.638 246.028 408.244 245.366 409.011 244.864C409.778 244.362 410.649 243.983 411.624 243.727C412.609 243.472 413.641 243.292 414.721 243.188C415.99 243.055 417.013 242.932 417.789 242.818C418.566 242.695 419.129 242.515 419.479 242.278C419.83 242.042 420.005 241.691 420.005 241.227V241.142C420.005 240.242 419.721 239.546 419.153 239.054C418.594 238.562 417.799 238.315 416.766 238.315C415.677 238.315 414.811 238.557 414.167 239.04C413.523 239.513 413.097 240.11 412.888 240.83L407.292 240.375C407.576 239.049 408.135 237.903 408.968 236.938C409.801 235.962 410.876 235.214 412.192 234.693C413.518 234.163 415.052 233.898 416.795 233.898C418.007 233.898 419.167 234.04 420.275 234.324C421.392 234.608 422.382 235.048 423.244 235.645C424.115 236.241 424.801 237.009 425.303 237.946C425.805 238.874 426.056 239.987 426.056 241.284V256H420.317V252.974H420.147C419.797 253.656 419.328 254.258 418.741 254.778C418.154 255.29 417.448 255.692 416.624 255.986C415.8 256.27 414.849 256.412 413.769 256.412ZM415.502 252.236C416.392 252.236 417.178 252.061 417.86 251.71C418.542 251.35 419.077 250.867 419.465 250.261C419.853 249.655 420.048 248.969 420.048 248.202V245.886C419.858 246.009 419.598 246.123 419.266 246.227C418.944 246.322 418.58 246.412 418.173 246.497C417.765 246.573 417.358 246.644 416.951 246.71C416.544 246.767 416.174 246.819 415.843 246.866C415.133 246.971 414.513 247.136 413.982 247.364C413.452 247.591 413.04 247.899 412.746 248.287C412.453 248.666 412.306 249.139 412.306 249.707C412.306 250.531 412.604 251.161 413.201 251.597C413.807 252.023 414.574 252.236 415.502 252.236ZM444.742 246.71V234.182H450.793V256H444.984V252.037H444.756C444.264 253.315 443.445 254.343 442.299 255.119C441.163 255.896 439.775 256.284 438.137 256.284C436.679 256.284 435.396 255.953 434.288 255.29C433.18 254.627 432.313 253.685 431.688 252.463C431.073 251.241 430.76 249.778 430.751 248.074V234.182H436.802V246.994C436.811 248.282 437.157 249.3 437.839 250.048C438.521 250.796 439.434 251.17 440.58 251.17C441.309 251.17 441.991 251.005 442.626 250.673C443.26 250.332 443.772 249.83 444.16 249.168C444.558 248.505 444.752 247.686 444.742 246.71ZM467.366 234.182V238.727H453.901V234.182H467.366ZM456.983 256V232.605C456.983 231.024 457.291 229.712 457.906 228.67C458.531 227.629 459.384 226.848 460.463 226.327C461.543 225.806 462.769 225.545 464.142 225.545C465.07 225.545 465.918 225.616 466.685 225.759C467.461 225.901 468.039 226.028 468.418 226.142L467.338 230.688C467.101 230.612 466.808 230.541 466.457 230.474C466.116 230.408 465.766 230.375 465.406 230.375C464.516 230.375 463.896 230.583 463.545 231C463.195 231.407 463.02 231.98 463.02 232.719V256H456.983ZM480.321 256V234.182H486.372V256H480.321ZM483.361 231.369C482.461 231.369 481.689 231.071 481.045 230.474C480.411 229.868 480.094 229.144 480.094 228.301C480.094 227.468 480.411 226.753 481.045 226.156C481.689 225.55 482.461 225.247 483.361 225.247C484.26 225.247 485.027 225.55 485.662 226.156C486.306 226.753 486.628 227.468 486.628 228.301C486.628 229.144 486.306 229.868 485.662 230.474C485.027 231.071 484.26 231.369 483.361 231.369ZM509.373 240.403L503.833 240.744C503.738 240.271 503.535 239.845 503.222 239.466C502.91 239.078 502.498 238.77 501.987 238.543C501.485 238.306 500.883 238.188 500.183 238.188C499.245 238.188 498.454 238.386 497.81 238.784C497.166 239.172 496.844 239.693 496.844 240.347C496.844 240.867 497.053 241.308 497.469 241.668C497.886 242.027 498.601 242.316 499.614 242.534L503.563 243.33C505.684 243.765 507.266 244.466 508.308 245.432C509.349 246.398 509.87 247.667 509.87 249.239C509.87 250.669 509.449 251.923 508.606 253.003C507.772 254.082 506.627 254.925 505.168 255.531C503.719 256.128 502.048 256.426 500.154 256.426C497.266 256.426 494.965 255.825 493.251 254.622C491.546 253.41 490.547 251.762 490.254 249.679L496.205 249.366C496.385 250.247 496.821 250.92 497.512 251.384C498.203 251.838 499.089 252.065 500.168 252.065C501.229 252.065 502.081 251.862 502.725 251.455C503.379 251.038 503.71 250.503 503.719 249.849C503.71 249.3 503.478 248.85 503.023 248.5C502.569 248.14 501.868 247.866 500.921 247.676L497.143 246.923C495.012 246.497 493.426 245.759 492.384 244.707C491.352 243.656 490.836 242.316 490.836 240.688C490.836 239.286 491.215 238.079 491.972 237.065C492.739 236.052 493.814 235.271 495.197 234.722C496.589 234.172 498.218 233.898 500.083 233.898C502.839 233.898 505.007 234.48 506.589 235.645C508.18 236.81 509.108 238.396 509.373 240.403ZM525.286 234.182V238.727H512.146V234.182H525.286ZM515.129 228.955H521.18V249.295C521.18 249.854 521.266 250.29 521.436 250.602C521.607 250.905 521.843 251.118 522.146 251.241C522.459 251.365 522.819 251.426 523.226 251.426C523.51 251.426 523.794 251.402 524.078 251.355C524.362 251.298 524.58 251.256 524.732 251.227L525.683 255.73C525.38 255.825 524.954 255.934 524.405 256.057C523.856 256.189 523.188 256.27 522.402 256.298C520.944 256.355 519.665 256.161 518.567 255.716C517.478 255.271 516.63 254.58 516.024 253.642C515.418 252.705 515.12 251.521 515.129 250.091V228.955ZM536.457 226.909L535.903 247.278H530.705L530.136 226.909H536.457ZM533.304 256.369C532.366 256.369 531.562 256.038 530.889 255.375C530.217 254.703 529.885 253.898 529.895 252.96C529.885 252.032 530.217 251.237 530.889 250.574C531.562 249.911 532.366 249.58 533.304 249.58C534.204 249.58 534.994 249.911 535.676 250.574C536.358 251.237 536.704 252.032 536.713 252.96C536.704 253.585 536.538 254.158 536.216 254.679C535.903 255.19 535.491 255.602 534.98 255.915C534.469 256.218 533.91 256.369 533.304 256.369Z" fill="black"/>
</svg>
